<svg
   xmlns="http://www.w3.org/2000/svg"
   version="1.1"
   id="friuli-venezia_giulia"
   viewBox="0 0 300 266"
   aria-label="Map of Friuli-Venezia Giulia - Italy"
   >
  <path
     d="m 37.58562,64.59214 -0.11191,-0.63688 -0.0885,-0.79665 -0.0946,-0.84175 -0.33626,-0.31233 -0.004,-0.004 -0.41253,-0.21991 -0.93249,-0.4899 -1.97355,-2.06262 -0.25161,-0.42812 -0.64357,0.0457 -0.24384,0.15031 -0.54113,0.40026 -0.31287,0.26722 -1.6267,1.55045 -0.4732,0.88795 -0.11246,0.23049 -1.55489,1.98857 -0.82729,0.38356 -0.14029,0.0373 -1.36782,-0.64243 -0.35073,-0.17594 0.2377,1.28379 0.0445,0.22825 0.002,0.006 0.0935,0.25164 0.15644,0.22713 0.13583,0.17981 0.35629,0.62966 0.083,0.34571 0.37133,2.44006 -2.43561,2.13387 -0.13751,0.11246 -0.10356,0.0139 -1.507,0.38079 -2.24968,1.76978 -1.86554,-0.71426 -0.25553,-0.10132 0.34961,0.50772 0.28004,1.59165 0.0501,0.51774 0.039,0.44815 -0.29952,0.49381 -0.25441,0.41363 -1.21363,1.86386 -0.42367,0.20822 -1.94682,0.50383 -0.21043,0.015 -1.75754,-0.19316 -1.30771,-0.3229 -0.35129,-0.20933 -0.14753,-0.0779 -0.17758,0.0379 -0.22492,0.12861 -0.0334,0.0183 -0.16813,0.12638 -0.15921,0.15309 -0.67196,0.94641 -1.24035,0.13416 -0.10411,0.0445 -2.11048,1.6384 0.21433,0.28337 0.2121,0.27947 0.18538,0.31176 0.13418,0.42979 0.0746,0.2533 -0.0112,0.19316 -1.22364,4.48878 -0.51663,0.36353 -0.71092,0.46764 -2.59649,1.58941 -0.14643,0.084 -0.0813,0.10968 L 0.35073,93.4751 0,94.56014 l 0.002,0.004 0.10856,0.28114 0.002,0.003 0.11246,0.21878 -0.17035,0.60237 0.52107,2.37994 0.0986,0.0802 0.039,0.034 0.10577,0.083 0.11524,0.0351 0.35742,0.0284 0.99984,1.71579 0.3485,0.96311 0.10077,0.23606 0.0807,0.15809 0.32846,0.525 0.11412,0.12859 0.10242,-0.0468 0.12305,-0.15588 0.0846,-0.10409 0.43702,-0.0796 0.14251,-0.0139 0.0557,0.0262 0.0668,0.0334 0.50939,0.26779 0.10466,0.0629 0.92804,0.71371 0.56839,0.72315 0.35965,0.52443 0.589,0.53444 0.42031,0.0724 0.1659,-0.0874 0.16758,-0.0913 0.16366,-0.034 0.16033,0.0624 0.39417,0.25331 0.19651,0.14029 0.648,0.93973 -0.0112,0.0177 0.77718,0.23772 0.19985,-0.064 0.23215,-0.10856 0.96423,-0.47767 1.00486,-0.50159 0.27055,-0.13918 2.26249,-0.0278 0.74823,0.89019 0.37966,0.57953 -0.0112,0.32901 -0.0612,0.37801 -0.10299,0.1776 -0.0852,0.0802 -0.13528,0.0913 -0.17981,0.0579 -0.15089,0.004 -0.11355,0.0958 -0.25721,0.37411 -0.48545,1.17745 0.0662,0.0718 0.25552,0.2572 0.37245,0.36132 0.24495,0.20819 0.1865,0.0947 0.18538,0.0624 2.10104,-0.33012 1.46248,-0.23049 0.1787,-0.0183 0.24885,-0.0217 0.18148,-0.009 0.20822,0.008 2.04425,0.25552 0.93304,0.16256 -0.36186,0.34573 -0.37745,1.71355 -0.0445,0.20599 0.0167,0.2366 0.0167,0.15364 1.04048,3.65817 0.47433,1.02768 1.19581,1.9212 1.51704,1.24315 0.15533,0.0623 0.84287,0.18205 1.5276,0.71872 2.45176,1.22643 0.47599,0.6313 0.33124,0.45262 0.005,0.0785 -0.0112,0.19763 -0.0735,0.23549 -0.039,0.0835 -0.083,0.16813 -0.079,0.30842 0.33291,1.71967 0.17869,0.38637 0.18928,0.20876 0.10578,0.1325 0.039,0.18483 -0.005,0.17703 -0.0701,0.2366 -0.0852,0.26889 -0.17815,0.52609 0.0334,0.7755 -0.1648,0.069 -0.22045,0.0941 -0.17981,0.13973 -0.0557,0.0729 -0.002,0.003 -0.0735,0.11134 -0.0501,0.0796 -0.24995,0.58454 -0.0334,0.26054 0.0974,0.15978 0.14084,0.14251 0.13083,0.0974 0.0991,0.23827 -0.0112,0.0663 -0.0112,0.0896 -0.039,0.0857 -0.4732,0.97147 -0.0334,0.0596 -0.26054,0.36686 -0.20934,0.20765 -0.74987,2.2892 -0.0445,0.12193 -0.19708,0.26108 -2.06595,1.8494 -0.26891,0.16758 -1.14849,0.64467 -1.90673,1.00877 -1.2693,0.65468 -0.95032,0.47209 -0.13137,0.005 -0.53834,-0.0829 -0.13861,-0.0328 -0.19709,-0.0468 -1.80931,2.12498 -0.19818,0.54001 -0.22882,0.73207 -0.28504,0.75213 -0.33403,0.61405 -0.30395,0.4398 -0.64912,0.87014 -0.21379,0.2611 -0.37632,0.0907 -0.77274,-0.0129 -0.6263,1.94737 -0.24438,1.62448 0.003,0.35518 -0.0445,0.17036 -0.1197,0.0601 -0.23436,0.0819 -0.27001,0.0701 -0.51941,0.11525 0.24662,0.35741 0.33236,0.41863 0.12248,0.12973 0.60403,0.63187 0.0601,0.0562 0.098,0.0534 0.0685,0.0345 0.18818,0.12193 0.13304,0.0907 0.0997,0.12693 0.17815,0.24383 0.76714,1.07947 0.003,0.004 0.0673,0.10578 0.0869,0.17536 0.21098,1.10341 0.002,0.1258 -0.0579,0.15143 -0.0445,0.0969 -0.17149,0.24272 0.5506,1.70577 0.0167,0.31509 0.13249,0.98816 0.94251,1.78093 0.84063,1.2526 0.0501,0.61015 -0.0846,1.40515 -0.37913,2.14388 -0.44147,4.42976 -0.2494,1.29602 0.003,0.0278 0.004,0.0212 0.63575,2.0821 0.0166,0.0479 0.005,0.0167 0.002,0.003 0.0557,0.0835 0.34794,0.13195 0.86122,0.26332 0.14474,0.0234 0.12305,0.0173 0.14308,0.005 0.39248,-0.054 0.2366,-0.0468 0.70869,-0.25499 0.0963,-0.0534 2.08433,-0.11358 0.13861,0.0551 0.27167,0.25554 0.002,0.53666 0.11746,0.32067 0.0557,0.0941 1.21865,1.93735 2.03478,1.42018 0.14139,0.0896 0.80223,0.37188 0.69366,0.32122 0.4064,0.0646 0.13694,-0.0378 0.14141,-0.0512 0.96478,-0.0223 1.40013,0.0852 0.21878,0.0328 0.14196,0.0495 0.0568,0.029 0.0913,0.0479 0.28837,0.1531 0.27669,0.1609 0.10354,0.0612 0.15367,0.17146 0.15976,0.20877 0.18706,0.45705 0.0112,0.0395 -0.002,0.0991 -0.21766,0.36631 -0.13752,0.22323 -0.0869,0.10913 0.0167,0.13026 0.003,0.0116 0.87125,1.71188 0.57619,0.81447 0.11637,0.12414 0.34404,0.34851 0.12414,0.0585 1.26652,0.19984 -0.14641,0.13807 -0.72539,0.60681 -0.0974,0.0568 -0.97034,0.39081 h -0.0334 l -0.25554,-0.0596 -0.29506,-0.0479 -0.41753,0.0835 -0.0991,0.13806 1.76087,1.94737 1.30549,0.90968 0.73931,0.36241 0.31066,0.13751 0.62128,0.61405 0.75825,2.66165 0.14695,0.64966 -0.0501,0.0612 -0.0579,0.0607 -0.20487,-0.0256 -0.0278,-0.003 -0.24664,0.0101 -0.21098,0.0874 -0.0879,0.0924 -0.003,0.004 -0.52164,0.79666 0.0574,0.1748 0.23158,0.13361 3.47555,0.59458 0.52721,1.16184 1.23088,2.2391 0.0223,0.27058 -0.0445,0.29282 -0.10409,0.29839 -0.72708,0.88685 -0.10967,0.0852 -0.17815,0.0529 -0.29672,0.0384 -0.26556,-0.0356 0.44204,0.83506 0.33291,1.659 0.005,0.0212 0.97924,0.87125 0.15923,0.0579 0.25107,-0.044 0.0696,-0.0267 0.11636,-0.0902 0.51829,-0.89854 0.0167,-0.0752 -0.0829,-0.10076 -0.0763,-0.0774 -0.0791,-0.0963 0.0278,-0.1069 0.0696,-0.0351 0.14029,0.0234 0.003,0.002 0.16702,0.10856 0.12081,0.12136 0.10075,0.11634 0.0573,0.11134 0.0818,0.25109 0.11858,0.39693 0.0112,0.0807 0.7666,0.67139 0.99094,-0.34849 0.22547,-0.0674 0.16868,0.0635 0.17703,0.16369 0.15031,0.22156 0.0646,0.20932 0.0445,0.17705 0.34238,0.78496 0.60681,1.05664 0.0763,0.0501 0.24272,0.025 0.74154,-0.0179 0.1052,-0.0256 0.0674,-0.0412 0.12971,-0.084 0.0729,-0.0668 0.0501,-0.0562 0.0167,-0.16199 -0.0573,-0.14308 -0.15365,-0.20154 -0.21657,-0.18314 -0.17869,-0.13361 -0.0501,-0.10523 0.0445,-0.0562 0.0752,-0.0512 0.67583,-0.43535 0.0746,-0.0295 0.0673,-0.004 0.0445,0.0156 -0.30284,-0.99094 -0.0668,-0.23047 -0.19542,-0.95366 0.12804,-0.13694 0.79165,-0.79834 1.20416,-0.90744 0.12526,0.20877 0.0674,0.15588 0.17091,0.34238 0.13973,0.20988 0.59623,0.66694 0.11024,0.10468 0.0963,0.0785 0.61238,0.42144 0.19428,0.0774 0.78943,0.31176 0.33346,-0.0601 0.13418,-0.11023 0.0596,-0.0523 1.32945,0.73933 1.74973,1.43853 1.09616,-0.12302 0.0729,0.0234 0.084,0.079 0.0445,0.0412 0.0501,0.0501 0.29173,0.58064 0.005,0.0757 -0.27779,0.70702 -0.18649,0.3819 1.38231,0.82227 0.039,0.14362 -0.0445,0.52108 -0.4565,0.55504 -0.23884,0.23772 1.32999,1.57438 0.17815,0.13194 0.17536,0.19763 0.24885,0.29116 0.20932,0.29116 0.0223,0.13917 -0.0112,0.13307 -0.0167,0.0451 1.38678,0.38582 0.11913,0.0245 0.16089,-0.0156 0.60625,-0.26054 0.11691,-0.0612 0.19987,-0.14531 0.0612,-0.049 0.66581,-0.56673 2.37828,-2.26581 0.56896,-0.51941 0.72706,-1.09394 1.59721,-1.65176 0.0952,-0.0518 0.0757,-0.044 0.78774,-0.76548 0.46429,-0.53278 0.0112,-0.0122 0.57175,-0.72429 0.10689,-0.16257 0.0818,-0.16366 0.0334,-0.0863 0.79274,-1.04328 1.01433,-1.21696 0.20934,-0.1698 0.39914,0.0974 0.41309,0.46041 0.0278,0.0785 -0.0445,0.10187 -0.039,0.0535 0.52999,0.74932 0.0685,0.0963 0.13249,0.14976 0.17984,0.18871 0.41475,0.39862 0.1865,0.17648 0.11412,0.088 0.0278,0.0217 0.17201,-0.11579 0.64524,-0.45929 0.13582,-0.10242 0.0601,-0.0457 0.0952,-0.1002 0.15198,-0.17258 0.23605,-0.29784 0.20432,-0.29173 0.54946,-0.70924 0.48602,-0.57453 0.16757,-0.17203 0.13361,-0.11746 1.01098,-0.75491 0.19375,-0.11522 0.62851,-0.61686 -0.002,-0.003 -0.0112,-0.015 -0.49605,-0.55838 0.52833,-0.60125 0.11413,-0.13028 1.03881,-0.65301 0.40362,-0.16645 0.49547,-0.16925 0.13751,0.034 0.24329,0.0857 0.30284,0.26888 0.95366,0.88296 1.57659,0.83283 0.6085,-0.0362 0.74321,0.36186 0.003,0.002 0.0223,0.0173 -0.0445,0.67305 -0.77271,1.99303 -0.0897,0.13082 -0.13025,0.0997 -0.0278,0.0662 -0.005,0.093 0.25164,1.66012 0.30786,0.64188 0.039,0.0479 0.0167,0.019 0.95643,0.643 0.30676,0.0362 0.14363,-0.0473 1.78537,-0.98928 v -0.0607 -0.10411 l 0.004,-1.35837 1.08281,-1.32609 0.0791,0.0406 0.40195,0.0557 0.29228,-0.0317 0.95252,-0.69646 0.71761,-0.76158 -0.0969,-0.60626 -0.0445,-0.28057 -0.002,-0.0129 -0.0334,-0.10913 0.0223,-0.52442 3.34807,-0.64355 1.21642,-0.1865 2.12887,0.60681 0.70534,0.65859 0.1776,0.62908 -1.23479,2.43785 0.3229,0.20877 3.43712,2.24466 0.0334,0.14584 -0.15141,0.63411 0.30396,0.14529 0.2572,0.0512 h 0.039 l 1.24425,-0.75099 2.10102,-0.83785 0.74211,0.35796 0.81447,-1.28657 0.21655,-0.39025 0.16035,0.21155 0.42588,0.78775 0.10021,0.39581 0.0612,0.35965 0.12526,0.25052 0.4231,0.78551 0.24438,0.44037 0.14531,0.25887 2.33039,-0.74432 0.61015,-0.20599 0.10801,-0.0356 1.59552,-0.24885 -0.40528,-1.4892 -0.11134,-0.0668 -0.0946,-0.16868 -0.0167,-1.42406 0.0941,-2.01696 0.64022,-0.80166 0.56283,-0.28783 0.68532,0.1236 0.11022,0.1386 0.13528,0.1698 0.0557,0.0707 0.13973,0.21935 0.17091,0.26777 0.0334,0.0579 0.0167,0.029 0.25999,0.47987 1.43408,1.2604 0.9531,0.50716 0.0707,0.15588 0.45427,-0.015 0.16145,-0.024 0.20655,-0.0495 0.0902,-0.049 -0.4565,-4.43978 -0.41087,-1.84328 -0.94862,-3.56295 -0.89353,-0.73541 -1.03158,-0.83173 -1.29326,-1.021 -0.1297,-0.0535 -0.48434,-0.10187 -0.21155,-0.0445 -0.18593,-0.019 -0.38135,-0.0194 -1.96131,-1.35281 -0.29282,-0.3457 -0.85957,-0.5428 -0.49714,-0.30229 -1.00765,-1.3322 -0.74433,-0.99542 -0.14251,-0.24605 -0.72484,-1.66069 -0.33847,-0.84173 -0.93195,-4.46929 -0.38134,-2.09657 -0.13193,-0.72984 -0.65637,-4.68139 -0.005,-0.43535 0.23215,-2.12107 0.13249,-1.14961 0.10076,-0.45372 0.54893,-2.1372 0.53054,-3.06805 -0.0557,-0.84954 -0.002,-0.20431 0.0167,-0.27113 0.0278,-0.29505 0.43202,-4.02058 0.14474,-1.40512 0.23047,-3.29074 -0.0963,-1.57102 -0.0167,-1.43743 0.0445,-1.20028 0.0891,-0.54613 -0.0557,-1.84216 0.0607,-0.68029 0.0857,-0.67307 0.0852,-0.33124 0.16314,-0.4192 0.52887,-1.20807 1.14126,-2.91271 0.40362,-2.74571 0.65245,-4.34513 0.18428,-0.80611 0.23772,-0.87292 0.29951,-0.76826 0.19485,0.0445 0.33179,-1.11509 0.11022,-0.40083 0.0501,-0.2611 0.0278,-0.17649 -0.039,-0.43088 0.0167,-0.24719 0.0802,-0.26722 0.60403,-0.72372 0.74432,-1.30159 -0.14586,-0.60348 0.0278,-0.24607 0.16478,-0.4487 0.30062,-0.29951 0.20042,-0.29394 0.92359,-3.68543 0.29896,-2.26971 -0.0501,-0.31121 -0.0223,-0.28614 -0.003,-0.29896 0.0846,-0.27336 0.29285,-0.6764 0.15697,-0.30063 0.30619,-0.36407 0.38861,-0.29451 0.32455,-0.21712 -0.53946,-0.92804 -0.23325,-0.34238 -0.46264,-0.61849 -0.005,-0.008 -0.27112,-0.28613 -0.0223,0.002 -0.25107,0.0183 -0.37968,0.008 -0.71147,-0.13026 -0.11301,-0.0223 -0.0685,-0.0278 -0.73041,-0.61628 -0.0278,-0.10466 -0.16368,-0.6341 -0.0223,-0.0763 -0.18816,-0.11189 -0.73876,-0.31064 -0.23994,-0.0546 2.27082,-1.21085 1.15964,-1.44745 0.58065,-1.00208 0.0557,-0.0551 0.088,-0.0907 0.039,-0.0401 1.01433,-0.73598 0.67973,-0.41197 0.60349,-0.26777 0.16813,-0.0896 0.35518,-0.64188 -0.11803,-1.25484 -0.0891,-0.24327 -0.0651,-2.21461 0.26722,-0.23993 0.13028,-0.21657 0.2995,-0.54446 0.039,-0.15086 -0.25218,-0.99987 -0.0573,-0.13861 -0.20489,-0.44872 -0.16311,-0.44592 0.50661,-1.12065 0.23938,-0.16311 0.49326,-0.15588 0.72539,-0.27503 0.31119,-0.12414 0.20767,-0.10744 0.0969,-0.0501 0.20876,-0.13751 0.14532,-0.10411 0.20263,-0.17814 -0.93973,-0.59067 -3.51953,-2.04203 -0.23882,-0.16756 -1.6796,-1.84495 -0.0985,-0.30562 -0.46819,-1.83437 0.0112,-0.16925 0.0568,-0.23103 0.36966,-0.54558 0.21379,-0.11467 0.16533,-0.0173 0.15478,-0.0445 0.39358,-0.13694 0.0334,-0.0239 0.10021,-0.0779 1.59776,-1.56157 0.63243,-0.65471 0.30396,-0.46763 0.10913,-0.20152 -0.0501,-0.23048 -0.34851,-1.41238 0.0112,-1.05274 -1.10451,-0.2995 -0.31399,-0.16145 -0.32066,-0.21712 -0.25052,-0.21602 -0.15309,-0.15866 -0.039,-0.12414 -0.13751,-1.0082 -0.34852,-0.0545 -0.15643,-0.009 -1.71467,0.25164 -0.84175,0.42253 -0.15198,0.15143 -0.87848,-0.002 -0.69477,-0.002 -0.22492,-0.17425 -0.25833,-0.24995 -0.40471,-0.51162 -0.0501,-0.0846 -0.15255,-0.28504 -0.22045,-0.29227 -0.0908,-0.10299 -0.0852,-0.0857 -0.59345,-0.54948 -0.69979,-0.4025 -1.14459,-0.51608 -0.0674,0.2032 -0.4782,1.0071 -0.62966,1.26873 -0.12747,0.23439 -0.26891,0.3396 -2.55864,1.00374 -0.28168,0.0328 -1.47307,0.10855 -0.26221,-0.059 -1.20306,-0.51774 -0.0223,-0.088 0.0334,-0.12637 0.0334,-0.0997 0.19485,-0.4114 0.29784,-0.74321 0.31176,-0.8579 -0.0278,-0.044 -0.13305,-0.054 -0.11914,0.0969 -0.15866,0.0868 -0.12916,0.003 -0.25552,-0.059 -1.61891,-0.47487 -1.06277,-0.45762 -0.18705,-0.0724 -0.13083,-0.0373 -0.93974,0.14976 -0.74543,0.1236 -0.70869,0.12581 -0.97258,0.1865 -0.3073,0.0907 -0.72373,-0.0629 -0.25609,-0.0696 -0.15978,-0.20265 -0.0501,-0.24828 -0.0334,-0.25721 -0.1581,-0.23882 -1.25317,-1.51594 -0.8334,-0.79162 -0.39469,-0.14142 -0.22882,-0.0662 -0.31733,-0.0835 -0.83395,-0.21933 -0.13194,-0.0818 -0.45929,-0.18093 -0.26889,0.31566 -0.2071,0.24607 -0.17034,0.18202 -0.0779,0.083 -0.49269,0.0885 -0.86514,0.11634 -1.6256,-0.27724 -2.18619,0.27224 -0.0112,0.0952 0.13361,0.37745 0.13694,0.25553 0.25775,0.37745 -0.47541,1.35504 -2.2174,0.81447 -1.23143,0.33793 -1.35171,0.3162 -0.84452,0.12917 -0.23772,-0.0228 -2.36269,0.74099 -1.69352,1.237 -0.12079,0.19263 -0.64469,0.44371 -1.84214,0.75822 -0.589,0.1865 -0.25998,-0.12303 -2.4089,-3.20832 -0.0824,-0.14641 -0.039,-0.14976 -0.0501,-0.18762 -0.005,-0.15421 0.0278,-0.50159 -0.17037,-0.0757 -0.38356,-0.16144 -2.22073,-0.86681 -2.88041,0.34072 -0.36966,0.118 -0.26834,0.15255 -0.5979,0.89407 -0.0796,0.18428 -0.0557,0.21545 -0.0607,0.16255 -0.11915,0.16813 -0.10744,0.0651 -1.10731,0.38746 -0.24105,0.02 -0.25218,-0.029 -1.43187,-0.60515 -0.1737,-0.015 -0.85788,-0.88015 -0.15921,-0.23104 -0.10245,-0.30117 -0.0278,-0.15812 -0.10299,-0.0885 -0.57508,-0.36018 -0.20042,-0.0746 -1.5354,0.34739 -0.6007,0.21712 -0.30786,0.12971 -0.12861,0.17425 -0.22714,0.13639 -0.23993,0.0584 -0.25276,-0.0635 -0.53834,-0.18426 -2.03699,-1.10841 0.83116,-0.54502 0.11468,-0.0635 0.55449,-0.51717 0.3357,-0.31342 0.0334,-0.10747 -0.0167,-0.15476 -0.0729,-0.15031 -3.48837,-2.82474 -0.1052,-0.004 -0.48268,0.15978 -0.21043,0.12805 -0.11748,0.14919 -0.14196,0.12081 -0.12248,0.0679 -0.47432,0.12971 -2.25078,-0.61126 -1.51202,-0.48712 -0.4014,0.79554 -0.1052,0.1954 -0.16868,0.21879 -0.21769,0.20543 -0.18928,0.1698 -0.44927,0.21711 -1.17911,0.49603 -0.19597,-0.10133 -0.95585,-0.61348 -0.15979,-0.11636 -0.17759,-0.1659 -0.0167,-0.0177 -0.99095,-1.07167 -0.20432,-0.35073 -0.1865,-0.37744 -0.24216,-0.53 -0.12248,-0.50827 -0.30562,-1.29825 -0.46988,-2.12053 z"
     id="pordenone"
     name="Pordenone"
     />
  <path
     d="m 244.5035,212.02599 -3.75057,-1.49813 -1.31829,-0.92135 -2.41111,1.71912 0.0278,0.0607 0.14251,0.28447 0.0796,0.50829 -0.0896,0.10744 -0.0885,0.0996 -0.0112,0.0101 -0.16366,0.054 -0.19485,0.0234 h -0.0223 l -0.56394,1.12734 0.23548,1.81989 0.11579,0.51718 0.0501,0.20265 0.0746,0.30952 1.76644,1.25093 1.67404,0.75156 0.61238,0.21936 4.30559,0.53444 1.16353,0.31509 0.35908,0.55281 0.8245,1.2398 0.2032,0.29729 0.44647,0.53889 0.22268,0.1826 0.0813,0.0596 0.14587,0.0707 0.13917,0.0746 0.4075,0.2355 0.27614,0.1915 1.10897,0.87682 0.7638,0.63743 0.15866,0.14253 0.0685,0.20152 0.10131,0.14029 0.66248,0.60349 0.13918,0.1052 0.51108,0.35575 0.18759,0.12359 0.0223,0.0112 0.54726,0.37354 0.82115,0.58512 0.21265,0.15976 0.039,0.0334 0.29953,0.29841 6.22681,6.30086 0.0585,0.0635 0.0278,0.0334 0.10076,0.1581 0.084,0.18093 0.0885,0.22268 -0.0445,0.2661 -0.0278,0.1186 -0.20042,0.20598 1.96296,1.23255 1.92177,1.03382 0.0557,0.0278 0.22157,0.18093 0.10577,0.0935 0.41754,0.39471 0.0635,0.0646 1.57939,1.58887 1.38676,1.64173 0.0935,0.18371 0.52554,1.92512 0.41308,1.42907 0.25552,0.66248 0.43481,0.99597 0.44258,-0.162 0.29227,0.58565 0.0707,0.15811 0.43478,1.06834 -0.0557,0.13304 -0.0501,0.0891 -0.039,0.0445 -1.502,1.38343 -0.039,0.0334 -0.10356,0.0852 -0.10188,0.0557 -0.11189,0.005 -0.0768,-0.0278 -0.0334,-0.0167 -0.38413,-0.2455 v -0.2956 l 0.0334,-0.19376 0.1013,-0.0774 -0.28837,-0.0662 -1.23702,1.20137 -0.0112,0.11525 -0.0278,0.73152 0.24886,1.39121 1.51092,-0.22991 0.17034,0.0278 0.74267,0.36243 0.059,0.0974 -0.003,0.27612 -0.21655,0.0846 -1.2437,0.46597 0.22323,0.51775 0.27391,0.2622 0.15421,-0.0557 1.42518,-0.53723 0.31678,-1.27765 1.50869,0.005 0.0112,0.0167 0.22825,0.53054 0.0112,0.0278 0.2199,0.55002 -0.79667,0.34295 -0.40806,1.04438 -0.005,0.0278 0.003,0.0835 0.66139,1.18692 -0.70647,2.07042 0.002,0.003 1.74363,-0.0768 0.63967,-0.26444 0.28335,-0.0991 3.41933,0.59233 0.89019,1.10619 0.039,0.0596 -0.83452,-0.67529 -0.46486,0.10466 -0.12414,0.0278 -0.18762,0.0501 -0.17203,0.0735 -0.31454,0.26108 -2.02976,1.80153 -0.13138,0.15253 -1.62728,-0.73707 -0.17646,-0.22214 -0.23996,-0.1737 -0.0752,-0.0445 -1.78648,-0.50438 -3.19385,-0.6597 -1.43632,-0.039 -1.69185,0.0501 -2.27862,0.78662 -0.0278,0.0112 -0.0334,0.039 -0.0278,0.0997 0.005,0.18816 0.13585,1.16632 0.15364,0.41084 0.41642,0.83395 0.21155,0.004 0.22604,-0.0278 1.43909,-0.17926 1.47082,-0.38692 1.19971,-0.25163 0.26501,0.16979 1.87167,1.05388 2.98954,1.66121 0.50492,0.25944 0.73152,0.33848 0.21101,0.0712 0.90408,0.23382 0.53556,0.0757 3.88306,0.41532 0.71371,-0.059 1.37729,-0.13749 2.99233,-0.18819 0.87125,-0.16423 1.66568,-0.43145 0.039,-0.0167 -0.039,-0.26387 -0.0718,-0.31009 -0.0718,-0.29451 0.0278,-0.12914 0.43757,-0.65692 0.13028,-0.16368 0.22102,-0.16256 0.83673,-0.52776 0.16701,-0.0969 0.29282,-0.0713 0.28059,-0.039 0.23327,-0.0445 0.15976,-0.074 0.083,-0.1002 0.30341,-0.92024 0.13751,-0.62352 0.059,-0.55393 -0.005,-0.60125 0.0501,-0.33124 0.0445,-0.10634 0.19652,-0.0685 0.25887,-0.0885 0.55114,-0.13473 0.59568,-0.1314 0.34852,-0.18259 5.2264,-3.34862 2.08043,-1.50757 0.14808,-0.6057 -0.5634,-0.45595 -2.14555,-1.6256 -0.24329,-0.16366 -0.32957,-0.10968 -0.29228,-0.0818 -0.27222,-0.039 -0.29284,-0.0223 -1.04217,-0.57286 -0.40138,-0.2622 -1.80819,-1.22532 -1.66178,-1.37398 -1.67516,-1.44188 -0.46875,-0.41196 -0.2032,-0.22379 -0.0991,-0.14474 -0.26166,-0.40028 -0.0334,-0.0557 -0.63577,-0.97479 -1.1418,-1.70132 -0.32066,-0.44035 -0.2199,-0.1993 -0.26389,-0.20988 -1.27375,-0.98205 -0.53444,-0.85455 -0.20266,-0.50773 -0.098,-0.27557 0.0223,-0.10076 0.10466,-0.38858 0.0557,-0.16201 0.0824,-0.12693 0.27614,-0.22211 0.28335,-0.22604 0.0618,-0.0724 0.0167,-0.11301 -0.0562,-0.3602 -0.27446,-1.67235 -0.0657,-0.18595 -1.14961,-1.62336 -0.0952,-0.12916 -0.21822,-0.18428 -0.15143,-0.11189 -0.61016,-0.44314 -0.25107,-0.17926 -0.84397,-0.59457 -0.89297,-0.6252 -0.36465,-0.48322 -0.51105,-0.70924 -0.49883,-0.88517 -0.3652,-0.95811 -0.18483,-0.50216 -0.11691,-0.40083 -0.10632,-0.2789 -0.29617,-0.41197 -0.36743,-0.32958 -0.61462,-0.42086 -0.70703,-0.4192 -0.17536,-0.10523 -0.29449,-0.14808 -0.59068,-0.2867 -1.76922,-0.16702 -1.27654,-0.36854 -0.21267,-0.10523 -0.0557,-0.0278 -0.0907,-0.0846 -1.14349,-1.1173 -0.74264,0.0668 -1.74139,0.0607 -0.10968,-0.0406 -2.04536,-1.19415 -0.16923,-0.19875 -0.0112,-0.0122 -0.0501,-0.0713 0.32232,-0.054 0.157,-0.0184 0.19987,-0.0356 -0.45206,-0.45429 -0.88238,-0.77105 -0.39917,-0.16923 -1.01545,-0.39416 -0.22157,-0.0802 -1.61389,-0.93028 -0.67419,-0.42364 -0.83897,-0.6018 -0.36464,-0.31454 -0.29727,-0.26891 -0.47433,-0.46207 -0.13694,-0.15531 -0.23272,-0.26332 -0.48934,-0.50551 -0.3513,-0.34069 -0.53499,-0.47489 -0.28447,-0.25162 -0.64079,-0.4348 -0.76937,-0.50716 -0.81335,0.32066 -0.71592,-0.98705 -0.37469,-0.82895 -0.12581,-0.16311 -0.97757,-0.0902 -0.68476,-0.0629 -0.45483,-0.0207 -0.30565,0.0523 -0.33457,0.0952 -0.4064,0.069 -2.32817,0.29282 -2.41725,0.20488 -0.74766,-0.19263 z"
     id="trieste"
     name="Trieste"
     />
  <path
     d="m 198.29614,229.8895 0.14121,-0.22947 h 0.22947 l 0.0353,0.31772 0.15885,0.17653 0.14123,0.1412 0.0177,0.12355 -0.15887,0.12358 -0.053,-0.26478 -0.053,-0.0706 -0.15886,0.1059 -0.21182,0.0353 c 0,0 -0.0353,-0.1059 -0.1059,-0.1412 -0.0706,-0.0353 -0.15888,-0.15887 -0.15888,-0.15887 z m -7.3567,8.20548 0.32451,-0.34948 0.22467,0.17475 0.22467,0.57413 0.59909,0.24964 0.39942,-0.19972 0.0499,-0.29955 0.0999,0.3994 -0.0999,0.32451 -0.37443,0.0999 -0.37446,0.1248 -0.29954,-0.27458 c 0,0 -0.1997,-0.32452 -0.29955,-0.34949 -0.0998,-0.025 -0.3994,-0.17473 -0.3994,-0.17473 z m -11.95373,-7.46412 h 0.24712 l 0.42363,0.1412 0.0706,0.28242 -0.35303,-0.1059 c 0,0 -0.0706,-0.17652 -0.21182,-0.17652 -0.1412,0 -0.2118,-0.1059 -0.1765,-0.1412 z m -2.68299,-0.14121 0.24712,-0.0706 0.1765,-0.1765 0.17653,-0.0706 0.1765,0.38833 0.17652,0.2824 0.31771,0.24712 h 0.24712 l 0.28243,-0.2118 0.38833,-0.0706 0.0706,0.0706 -0.31773,0.24711 -0.1412,0.1059 -0.28243,0.24712 -0.2118,-0.0353 -0.14122,-0.31772 -0.38833,-0.14121 -0.2471,-0.17652 -0.14123,-0.1412 h -0.31772 -0.21181 z m 4.69522,-4.44812 0.28243,-0.1412 h 0.28242 v 0.38833 l -0.10592,0.1765 -0.2118,0.10592 h -0.21183 l -0.1412,-0.28242 z m 9.95529,1.72983 -0.21181,-0.42362 0.28241,-0.0353 0.35303,0.17653 0.14122,0.38833 -0.35303,-0.0706 z m -16.45093,3.38903 v 0.31772 l 0.17651,0.38833 0.24712,0.35303 0.1765,0.35302 0.21183,0.31771 v 0.42363 l -0.0353,0.38832 0.70603,0.17653 1.72983,0.0706 0.56483,0.21182 0.60015,0.38833 0.60014,0.2824 1.05908,0.21183 1.23558,0.31772 0.56485,0.17651 0.63543,0.1412 -0.1765,-0.1412 -0.77666,-0.21181 -1.23558,-0.38832 -0.95318,-0.35303 -0.60013,-0.17652 -0.38833,-0.14121 -0.0706,-0.17652 h 0.42365 l 0.74133,0.17652 0.63546,0.14121 0.88255,0.21182 0.35303,0.2471 0.42363,-0.2824 c 0,0 0,-0.14122 -0.17651,-0.14122 -0.17652,0 -0.45892,-0.0353 -0.45892,-0.0353 l -0.0706,-0.28243 -0.35302,-0.1765 -0.45895,0.1412 -0.35301,-0.0706 -0.0353,-0.49423 c 0,0 0.35303,0.0353 0.49425,0.0706 0.1412,0.0353 0.45893,0.21183 0.60013,0.28243 0.14122,0.0706 0.42363,0.1765 0.56485,0.2471 0.1412,0.0706 0.31771,0.14122 0.52953,0.14122 0.21183,0 0.74136,-0.0706 0.74136,-0.0706 0,0 0.31772,-0.0353 0.45892,-0.0353 0.14121,0 0.49423,0.1765 0.49423,0.1765 l 0.24713,0.42363 0.3177,0.28243 0.38833,0.1059 0.45895,0.24712 0.56483,0.28241 0.63545,0.38833 0.77666,0.24712 c 0,0 0.45892,0.35303 0.63543,0.42363 0.17652,0.0706 0.42362,0.21182 0.56485,0.31772 0.1412,0.10591 0.52953,0.45893 0.52953,0.45893 0,0 0.38832,0.38833 0.52953,0.38833 0.14122,0 0.42362,0.1412 0.42362,0.1412 0,0 0.21183,0.21183 0.21183,0.0706 0,-0.14122 0.21182,-0.38832 0.0353,-0.38832 -0.1765,0 -0.31773,0 -0.31773,0 0,0 -0.2471,-0.0353 -0.3177,-0.21183 -0.0706,-0.1765 -0.31773,-0.49423 -0.31773,-0.49423 l -0.31772,-0.0353 -0.45893,-0.10592 -0.31773,-0.2471 c 0,0 0.0706,-0.35303 -0.0706,-0.35303 -0.14122,0 -0.35303,-0.28243 -0.35303,-0.28243 l -0.31772,-0.42362 -0.1765,-0.17651 -0.0353,-0.52955 -0.1765,-0.67073 c 0,0 0.0353,-0.24712 0.0353,-0.42363 0,-0.17652 0.35303,-0.0706 0.35303,-0.0706 l 0.1059,-0.67073 V 232.749 l -0.42363,-0.0706 -0.60013,0.31773 -0.52955,0.1059 -0.45893,-0.17652 c 0,0 -0.42362,0.0353 -0.42362,-0.1059 0,-0.14121 -0.0353,-0.28243 -0.0353,-0.28243 h -0.31772 l -0.35303,0.14122 -0.2118,0.35303 0.35303,0.2118 0.2118,0.21183 -0.0353,0.1059 -0.42363,0.21182 h -0.2471 l -0.24713,-0.28242 -0.2118,-0.28243 -0.28243,-0.38832 -0.17652,-0.0353 -0.42363,-0.14121 -0.1059,0.17651 -0.42363,-0.21181 -0.21182,-0.17652 v -0.31773 l 0.31772,-0.0353 0.24713,-0.1059 0.45893,-0.1765 0.31772,-0.14123 0.1059,-0.1059 0.42363,0.21181 0.28243,0.10592 0.1765,-0.10592 -0.1059,-0.24711 -0.31773,-0.17652 0.0353,-0.28241 0.45893,-0.1412 0.31773,-0.10592 0.95315,-0.0706 h 0.56486 l 0.2471,0.31772 0.14122,0.60013 -0.1059,0.17653 -0.49425,0.1059 -0.2471,0.1059 -0.17653,0.31773 0.17653,0.21182 0.2471,0.1059 0.10592,0.17651 h 0.24711 l 0.14122,-0.1059 0.1412,-0.24713 -0.1412,-0.1059 v -0.28243 l 0.2118,0.0706 0.35303,-0.10593 0.21183,-0.2118 0.1412,-0.28243 0.56483,-0.24712 0.0706,-0.35301 0.3177,-0.42362 -0.1059,-0.17653 -0.84725,-0.2471 -0.35303,0.0706 -0.84725,-0.0353 -0.42363,0.0706 c 0,0 -0.35303,-0.17652 -0.52955,-0.28243 -0.17651,-0.1059 -0.28241,-0.1765 -0.28241,-0.1765 l -0.38832,0.1765 -0.42363,-0.0706 0.2824,-0.38832 c 0,0 0.10593,-0.24713 0.24713,-0.24713 0.1412,0 0.60015,-0.2471 0.60015,-0.2471 l 0.1765,-0.24713 0.1765,-0.38833 0.21183,-0.1765 0.1765,-0.0706 0.28243,-0.52955 0.17652,-0.1412 0.1412,-0.49423 -0.0353,-0.31773 -0.14122,-0.45893 -0.31771,-0.35302 -0.38832,0.38833 -0.0706,0.38832 -0.17653,0.24711 -0.24712,0.17652 0.10592,0.2824 -0.31773,0.21183 -0.28242,0.0706 0.0706,0.28243 -0.0353,0.49422 -0.0353,0.14121 -0.28243,-0.14121 -0.2471,-0.1412 -0.0706,0.1765 -0.24713,0.14123 -0.49423,-0.17653 -0.1765,-0.1765 -0.14122,-0.24712 -0.28241,-0.14121 -0.24712,0.14121 -0.1412,-0.21181 -0.17653,-0.21182 -0.2118,-0.1059 -0.21183,0.2118 -0.38832,0.0353 -0.24713,0.10592 -0.353,0.0353 -0.0706,-0.28242 -0.1412,-0.21183 0.1412,-0.353 -0.0353,-0.14122 -0.1412,-0.10591 -0.1412,-0.0706 -0.14122,0.24711 c 0,0 0.1059,0.31772 -0.10591,0.14122 -0.21182,-0.17652 -0.28242,-0.35303 -0.28242,-0.35303 l -0.1765,-0.0353 0.0353,0.21181 v 0.10592 l -0.14123,0.0706 -0.2118,0.1059 -0.0353,0.1412 h -0.17652 l 0.0706,0.21183 v 0.42363 0.1412 l -0.42365,0.21182 -0.1412,-0.21182 0.0706,0.21182 0.10592,0.28243 0.0706,0.2471 0.1059,0.31773 0.10591,0.35302 0.45892,0.10591 0.35303,0.0706 0.17652,0.28242 0.17651,0.56485 v 0.28241 l 0.14122,0.38833 -0.52955,0.1412 -0.81196,0.38833 -0.52952,0.14122 -0.67076,0.1412 -0.52953,0.1765 -0.1059,0.10593 -0.21182,0.0706 -0.14121,-0.24713 -0.24712,0.10593 h -0.42363 l -0.38832,-0.21183 -0.38833,-0.28242 -0.35303,-0.35303 -0.24712,-0.0706 -0.10591,-0.45893 -0.1765,-0.0353 h -0.31772 l -0.0706,0.14122 z m 21.44623,5.48953 0.52953,-0.053 h 0.28243 l 0.0883,0.1412 v 0.21182 c 0,0 -0.12356,0.35303 -0.0706,0.42363 0.053,0.0706 0.1059,0.15885 0.1059,0.22948 0,0.0706 0,0.2824 0,0.2824 l -0.22946,0.17652 -0.0883,0.21181 v 0.24712 l -0.10592,0.21181 -0.1765,0.0706 c 0,0 -0.15888,-0.14123 -0.22948,-0.17653 -0.0706,-0.0353 -0.33537,-0.24712 -0.33537,-0.24712 l -0.26476,-0.1765 -0.42365,-0.33538 -0.30005,-0.21182 -0.0883,-0.12356 0.21182,-0.19415 0.31773,-0.12355 0.30007,-0.15888 0.21181,-0.22945 z m -0.0706,-1.09438 0.45893,-0.14121 0.1765,0.24713 -0.22945,0.22945 c 0,0 -0.33538,0.17651 -0.33538,0.1059 0,-0.0706 -0.053,-0.51187 -0.0706,-0.44127 z m 6.08249,2.45208 0.19972,-0.0499 0.14977,0.0499 0.14978,0.0124 0.0624,0.0749 -0.0374,0.13728 -0.0999,0.1373 -0.0749,0.0499 -0.0499,0.18721 -0.12482,0.0374 -0.22466,0.0124 -0.11234,0.0749 -0.0124,0.14976 c 0,0 -0.0624,0.0124 -0.0749,-0.0499 -0.0124,-0.0624 -0.0124,-0.17473 -0.0124,-0.17473 l -0.1997,0.0374 -0.18722,-0.12482 c 0,0 -0.025,-0.025 -0.0874,-0.0749 -0.0624,-0.0499 -0.14977,-0.16225 -0.14977,-0.16225 l -0.1373,-0.0124 -0.18721,-0.1373 -0.16225,-0.0375 c 0,0 -0.14978,-0.0499 -0.17475,-0.0998 -0.0249,-0.0499 -0.0499,-0.14977 -0.0499,-0.14977 l -0.0124,-0.23715 c 0,0 0,-0.1373 0,-0.18721 0,-0.0499 0.025,-0.26212 0.025,-0.26212 l 0.0124,-0.16225 0.0749,-0.0499 0.34947,0.0124 0.12481,-0.0874 0.11234,-0.12482 0.0874,-0.11233 0.0124,-0.18721 -0.0124,-0.13728 -0.0499,-0.1997 0.0375,-0.16227 0.16225,-0.0999 0.11233,-0.0124 0.0998,0.1373 0.0499,0.1373 -0.0124,0.0998 -0.0749,0.11233 -0.0874,0.0874 v 0.11235 0.11231 l -0.0374,0.16227 c 0,0 0,0.0249 -0.0499,0 -0.0499,-0.025 -0.11234,-0.0624 -0.11234,-0.0624 l -0.0499,0.0874 0.0499,0.12482 0.0749,0.025 0.025,0.12482 0.0125,0.18722 v 0.22466 l 0.0124,0.22467 0.0999,0.0749 0.14976,0.0874 0.0999,0.1373 h 0.0749 l 0.0499,-0.0499 0.0874,-0.0374 z m 0.674,0.31203 0.11234,-0.18724 0.16224,-0.0249 0.21219,0.23713 0.0874,0.12481 -0.0749,0.32452 c 0,0 -0.1373,0.0874 -0.1997,0.12482 -0.0624,0.0374 -0.21218,0.1373 -0.21218,0.1373 l -0.24962,0.0249 -0.22466,-0.11234 -0.0124,-0.0874 c 0,0 0,-0.0499 0.0624,-0.0874 0.0624,-0.0375 0.17476,-0.13728 0.17476,-0.13728 l 0.0624,-0.16227 z m 0.0124,1.26059 0.11234,-0.17473 c 0,0 0.14976,-0.0874 0.1997,-0.12482 0.0499,-0.0374 0.29954,-0.17473 0.29954,-0.17473 l 0.16227,-0.0124 0.0874,0.0998 c 0,0 0.18721,0.0624 0.23713,0.0624 0.0499,0 0.1997,-0.025 0.1997,-0.025 l 0.17475,0.0749 c 0,0 0.0249,-0.0874 0.12482,-0.0874 0.0998,0 0.13728,-0.0998 0.13728,-0.0998 l 0.16227,0.0499 0.23715,0.0124 0.1997,0.11234 0.16224,0.16227 0.0874,0.16224 -0.14979,-0.025 -0.0624,0.0749 -0.12482,0.0874 -0.0249,0.0874 -0.0375,0.16225 -0.12482,0.16227 -0.12481,0.0375 -0.1248,0.0124 -0.0999,0.0499 -0.18722,0.0874 -0.0499,0.0624 -0.16227,0.0624 -0.0749,0.0499 -0.0999,0.0499 -0.0499,0.0124 -0.17473,-0.0499 -0.13728,-0.0374 -0.0999,0.0374 -0.17473,0.0624 -0.0499,-0.12481 c 0,0 -0.0124,-0.13731 -0.025,-0.18722 -0.0124,-0.0499 -0.0124,-0.14978 -0.0124,-0.14978 0,0 -0.0874,-0.18722 -0.1373,-0.1997 -0.0499,-0.0125 -0.1373,-0.14979 -0.1373,-0.14979 l -0.0749,-0.0998 z m -4.39342,-7.12681 0.1997,-0.0999 0.29955,-0.22466 0.24963,0.0499 h 0.34949 l -0.14979,0.24961 -0.22466,0.29955 -0.12482,0.29957 0.4743,0.0249 0.1997,0.0749 -0.0499,0.44931 -0.17473,0.1997 -0.27458,-0.0998 -0.29955,-0.14976 0.0249,0.0998 0.0749,0.44931 -0.14978,0.2746 -0.32452,0.0499 -0.24961,0.39942 -0.59912,0.0749 -0.29955,0.0499 -0.27458,-0.025 c 0,0 0.025,-0.0998 -0.025,-0.24962 -0.0499,-0.14978 -0.12482,-0.37443 -0.12482,-0.37443 0,0 0.0499,-0.2746 -0.0499,-0.29957 -0.0998,-0.0249 -0.27458,-0.12479 -0.27458,-0.12479 l -0.22467,-0.22467 c 0,0 0.1248,-0.17473 0.22467,-0.14978 0.0998,0.025 0.49925,-0.0499 0.49925,-0.0499 l 0.34946,-0.12482 0.1997,-0.1997 0.14978,-0.17475 -0.025,-0.29953 0.12481,-0.17475 h 0.27458 z m -2.65798,-3.19938 0.44128,0.14122 0.26477,0.24711 0.15886,0.40598 -0.44128,0.30007 -0.15885,0.35303 c 0,0 -0.22948,0.21182 -0.30008,0.17652 -0.0706,-0.0353 -0.26477,-0.3707 -0.33538,-0.406 -0.0706,-0.0353 -0.30007,-0.22945 -0.30007,-0.22945 l -0.1765,-0.38833 0.37067,0.0353 0.28243,-0.0353 0.1765,-0.35302 z m 8.89623,7.26348 0.0883,-0.0971 0.15885,-0.11471 0.13239,-0.0971 0.19415,-0.0794 0.15004,-0.0353 0.14122,-0.0441 0.0353,0.0706 -0.17652,0.0883 -0.12355,0.053 -0.19418,0.0618 -0.0794,0.0618 -0.0971,0.0706 -0.0971,0.0441 -0.0883,0.0618 z m 1.72097,-1.52682 0.1059,-0.0353 0.0883,0.0265 0.0177,0.11474 -0.0618,0.0706 -0.11473,0.10592 -0.11472,0.15002 -0.0618,0.0706 -0.0706,0.0971 -0.13239,0.12357 -0.0883,0.0618 -0.0971,0.10592 -0.0971,0.0971 -0.12355,0.0177 -0.0441,-0.0794 0.0794,-0.0706 0.0883,-0.0618 0.0971,-0.0883 0.0882,-0.0794 0.10592,-0.0618 c 0,0 0.0529,-0.053 0.0529,-0.0883 0,-0.0353 0.009,-0.1412 0.009,-0.1412 l 0.0441,-0.14123 0.11472,-0.12355 z m 0.72778,-1.63863 0.24961,0.025 c 0,0 0.0874,-0.025 0.0874,0.0374 0,0.0624 0,0.18721 0,0.18721 l 0.0749,0.17473 0.0499,0.0499 0.025,0.17473 -0.23715,-0.0499 -0.14976,-0.0624 -0.0624,0.0624 -0.025,0.12479 -0.1373,0.0499 -0.0749,-0.14979 v -0.22466 l 0.0874,-0.0749 0.14977,-0.0499 0.0874,-0.0998 -0.0874,-0.0749 -0.1373,0.0249 -0.0124,-0.13731 z m -0.16227,1.28558 0.18721,0.12482 0.025,0.13728 -0.12482,0.0499 h -0.18721 l -0.14977,-0.0749 -0.025,-0.0874 0.12481,-0.0749 z m 0.31203,0.32452 0.11233,-0.0375 0.1373,0.12482 0.0874,0.24964 -0.12482,0.13728 -0.17473,0.0624 -0.11233,-0.21218 -0.12482,-0.14978 -0.16225,-0.0499 0.0998,-0.0124 z m -2.52791,-5.09033 0.45893,-0.22947 0.35302,0.0706 0.0883,0.2471 c 0,0 -0.0177,0.19418 -0.0883,0.22948 -0.0706,0.0353 -0.30007,0.1412 -0.30007,0.22945 0,0.0883 -0.21183,0.47658 -0.21183,0.47658 0,0 -0.2118,0.0353 -0.3177,-0.0353 -0.10593,-0.0706 -0.19418,-0.1059 -0.22948,-0.19415 -0.0353,-0.0883 -0.0706,-0.31773 -0.0706,-0.31773 l 0.0706,-0.2118 0.1059,-0.0177 c 0,0 0,-0.1059 0,-0.1765 0,-0.0706 -0.053,-0.19415 0.0177,-0.15885 0.0706,0.0353 0.15887,0.12355 0.12357,0.0883 z m -3.79348,12.79818 -0.23102,0.1578 -0.37065,-0.0353 -0.52955,-0.0883 -0.10591,-0.22945 -0.1765,-0.5119 c 0,0 -0.22947,-0.21181 -0.33537,-0.21181 -0.10593,0 -0.44128,-0.1059 -0.52956,-0.15887 -0.0882,-0.053 -0.2824,-0.053 -0.2824,-0.053 l -0.40598,-0.0706 -0.053,-0.19416 0.24713,-0.31772 0.28242,-0.38833 0.24711,-0.10592 0.0883,0.17652 0.52953,0.0353 0.38832,-0.0177 0.30008,0.0353 0.51188,0.15885 0.38833,-0.0353 0.45892,-0.0177 0.26478,0.10592 c 0,0 0.19415,0.19415 0.26475,0.22945 0.0706,0.0353 0.38833,0.21183 0.4766,0.26478 0.0883,0.053 0.47658,-0.0177 0.47658,-0.0177 l 0.42363,-0.15886 0.35303,-0.19417 0.31772,-0.28243 0.28241,-0.1412 0.31772,-0.21182 0.24713,0.053 0.26477,0.1059 0.23815,-0.18426 0.34948,-0.64904 0.14976,-0.49924 0.0999,-0.34949 -0.0999,-0.64901 h 0.14979 l 0.49925,0.0499 h 0.59909 l 0.5991,0.14978 h 0.49927 l 0.49925,-0.0499 0.24963,-0.34949 v -0.3994 l -0.34948,-0.1997 -0.3994,0.24964 h -0.14979 v -0.3994 l 0.24964,0.1997 0.29955,-0.0998 0.34948,-0.0999 v -0.39942 l -0.1997,-0.0998 -0.24963,-0.0999 0.14976,-0.49925 0.14979,-0.39939 v -0.29955 l -0.1997,-0.5991 -0.34949,-0.34948 -0.3994,-0.24962 -0.14978,-0.49927 -0.14976,-0.69894 -0.64904,-0.24962 -0.0499,-0.44933 v -0.3994 l 0.0999,-0.79882 -0.29955,-0.49924 -0.44933,-0.14977 -0.29955,-0.49927 v -0.54916 l -0.24964,-0.14978 -0.69894,-0.14977 -0.5561,-0.0156 -0.0179,-0.25565 0.002,-0.30117 -0.0278,-0.18093 -0.0635,-0.15811 -0.13194,-0.0785 -0.14641,-0.0896 -0.10523,-0.16257 -0.39415,-1.07055 1.62617,-0.69256 0.15754,-0.0662 1.03492,-0.14418 0.85902,-0.24105 3.17547,-0.58957 1.66513,-0.2455 0.0907,0.004 0.0868,0.004 0.1236,-0.0278 1.59497,-0.4899 0.20042,-0.10747 0.16868,-0.12635 0.039,-0.12138 0.088,-0.51884 -0.18929,-0.0574 -0.23213,0.42367 -0.12804,0.11912 -0.56896,0.23494 -0.70203,0.27669 -0.22602,0.0501 -0.2366,0.005 -0.17981,-0.0757 -0.0952,-0.15978 -0.0334,-0.13082 v -0.12136 l -0.0278,-0.33738 -0.0112,-0.13918 -0.0167,-0.16366 -0.12971,-0.211 -0.14474,-0.10968 -0.21712,-0.0924 -2.50018,-1.00543 -0.36743,0.29339 -0.33291,0.24441 -0.34851,0.21376 -0.32123,0.0729 -0.2494,-0.0317 -0.27557,-0.1197 -0.162,-0.13416 -0.0557,-0.0763 -0.0919,-0.12804 -0.0557,-0.16368 0.88182,-2.92774 0.96535,-1.63285 1.14071,-1.21251 0.87903,-1.25148 -0.56951,-1.12734 -0.75713,-1.08783 -0.10577,-0.20096 -0.23494,-0.61571 -0.12302,-0.33403 0.23493,-0.088 0.28281,-0.1091 0.0573,-0.0251 -0.40751,-0.89909 -0.43869,-0.90743 -0.19818,-0.35185 -0.35908,-1.12734 -0.002,-0.52386 -0.0166,-2.20236 -0.0112,-1.18411 -0.0167,-0.44482 -0.0112,-0.57008 0.005,-0.25107 0.0885,-0.0373 0.29729,-0.12248 0.14587,-1.11899 -0.039,-0.02 -0.71259,-0.30119 h -0.26332 l -0.5634,0.004 -0.3691,0.0177 -0.6803,-0.71093 0.003,-0.32123 0.0607,-0.21711 0.10577,-0.14753 0.0985,-0.13193 0.0674,-0.2483 0.0501,-0.29061 -0.17648,-0.20541 -1.57382,-1.68741 3.10254,-2.62432 0.15367,-0.0484 0.13361,-0.0985 0.039,-0.19597 -0.14196,-0.32177 -0.2032,-0.32623 -0.1353,-0.12026 -0.0334,-0.0273 -0.95698,-1.03826 0.13026,-0.46709 0.1275,-0.589 0.0635,-0.31787 -1.4007,-1.82547 -2.01306,-1.32107 -0.35686,-0.51886 -0.56785,-3.24006 -1.8789,-1.09672 1.0366,-0.0896 0.90021,-0.24552 0.41977,-0.1581 0.55336,-0.27057 1.14125,-0.74932 0.44147,-0.42422 1.67292,-1.79206 0.0852,-0.19652 0.11468,-0.31176 0.039,-0.13861 -0.0663,-2.06651 -0.0501,-0.43312 0.0112,-0.25442 1.54878,-2.24745 1.55267,-1.25762 0.22435,-0.0423 0.8217,-0.32901 0.0874,-0.21433 0.002,-0.24719 -0.0278,-0.1993 -0.43702,-2.00751 -0.0629,-0.22768 -0.0724,-0.21491 -0.55393,-0.63186 0.0601,-0.14975 0.19875,-0.22547 2.66943,-2.34877 1.20195,-0.60125 0.18816,0.18707 0.16423,0.0874 0.28504,0.0779 0.21824,0.008 0.24105,-0.0674 0.0868,-0.15032 -0.0112,-0.20821 -0.0112,-0.103 -0.10354,-1.01599 0.0501,-2.01642 -0.29339,-0.10799 -0.22323,-0.11524 -0.22102,-0.15421 -0.0278,-0.18983 -0.039,-1.23759 0.28002,-0.054 0.24329,-0.0852 0.25052,-0.17981 1.2448,-1.24147 0.12081,-1.19248 1.25372,-5.06995 0.11022,-0.19542 1.09004,-1.61222 1.1162,-1.05442 0.27113,-0.0367 0.27224,-0.0946 0.22768,-0.12971 0.41197,-0.51162 -0.0696,0.62296 0.18205,0.22992 0.098,0.0724 0.22159,0.0351 0.63743,0.083 0.49657,0.0724 0.88407,0.15976 0.002,0.0696 0.005,0.64191 -0.43369,2.29196 -0.039,0.18262 -0.0712,0.17703 -0.67139,1.60554 -1.27656,2.32094 -0.1013,0.17258 -0.36912,0.4487 -0.039,0.007 -0.4487,0.10021 -0.432,-0.0105 -0.13917,-0.0407 -0.1481,0.005 -1.4608,0.65582 -0.0785,0.0512 -0.64969,1.1847 -0.039,0.12357 0.5417,0.87516 0.18928,0.13917 0.12748,0.0585 0.12916,0.0384 0.10299,0.0557 0.46262,0.32401 0.14308,0.13083 0.13696,0.16145 0.10799,0.18426 0.9954,1.84883 0.40697,0.80892 0.14362,0.39079 1.15073,1.28434 0.14808,0.13473 0.93527,0.10744 1.73137,0.6302 1.91509,1.12177 0.0278,0.10245 -0.0167,0.14641 0.0869,0.70645 0.039,0.22547 0.0768,0.18761 0.11134,0.11915 0.19318,0.0774 0.32623,0.0891 0.53946,0.10856 1.41348,0.27224 0.32512,0.0295 0.24329,-0.0757 0.20151,-0.10635 0.1648,-0.12247 0.0813,-0.18983 0.003,-0.19095 0.0167,-0.21379 0.0562,-0.2071 0.10244,-0.10075 0.8295,-0.0585 1.88223,-0.0351 0.61015,0.22602 0.51886,0.25666 0.0824,-0.0122 1.18914,-1.89784 0.11301,-0.1865 0.26221,-0.60793 -0.0167,-0.13918 -0.0223,-0.17536 0.004,-0.13861 0.0445,-0.10466 0.16533,-0.34628 0.0818,-0.15143 1.25705,-1.33722 0.98761,-0.30396 0.11858,-0.0267 0.19207,0.0239 0.35964,0.0462 1.80375,0.55169 0.14196,0.0624 0.0696,0.0779 0.35294,0.34461 0.15476,0.10968 0.26891,0.13582 1.65286,0.23827 0.3808,0.0251 0.15476,-0.039 1.86054,-0.95642 1.79761,1.80652 0.0896,1.16855 -0.46374,2.97952 -0.80892,3.29238 -0.0112,0.1698 0.0112,0.39415 0.0624,0.33347 0.12305,0.38637 0.15866,0.44425 0.13026,0.36408 0.12804,0.3847 0.21267,0.648 0.0167,0.0651 -0.0112,0.51607 -0.0557,0.0958 -0.0991,0.15421 -1.28489,1.61111 -1.38288,1.67516 -0.69255,1.03324 -0.0701,0.13307 -0.0278,0.059 -0.10855,0.25387 -0.77217,1.95349 -0.60291,1.55434 -0.0974,0.22435 -0.12081,0.27167 -0.14417,0.0451 -0.25721,0.0985 -0.50049,0.27557 -0.4782,0.29171 -0.19375,0.13696 -0.18372,0.13083 -1.14235,1.13957 0.0991,0.11303 0.13861,0.17258 0.17926,0.26444 0.0874,0.15198 0.0501,0.0946 0.0278,0.0679 -0.005,0.0351 -0.0835,0.0618 -0.19763,0.0379 -0.1698,-0.0284 -0.0167,-0.003 -0.75156,-0.35853 0.47154,2.92887 0.0445,0.33179 -0.0334,0.11023 -2.29867,4.39802 -0.10967,0.19318 -0.26332,0.41254 -0.28057,0.35796 0.0223,-1.13515 -0.26389,0.75268 -0.3474,1.21587 0.0167,0.92078 0.0663,0.80334 0.37744,0.2739 0.23104,0.16535 0.28837,0.18148 0.20265,0.11969 0.20154,0.157 0.58621,0.56061 0.49492,0.60458 0.12191,0.17203 1.60835,3.51285 0.0863,0.21488 0.0112,0.1069 -0.16701,1.78982 0.0573,0.91134 -2.41111,1.71912 0.0278,0.0607 0.14251,0.28447 0.0796,0.50828 -0.0896,0.10746 -0.0885,0.0996 -0.0112,0.0101 -0.16366,0.054 -0.19485,0.0234 h -0.0223 l -0.56397,1.12734 0.23551,1.8199 0.11579,0.51717 0.0501,0.20265 -0.0223,0.14475 -0.0112,0.0429 -0.005,0.0267 -0.0223,0.0278 -0.0278,0.0223 -0.0445,0.0278 -0.0334,0.0173 -0.13527,0.0373 -0.0757,0.0177 h -0.0657 l -4.13025,-0.81616 -0.18202,-0.23993 -0.83897,-1.26985 -0.58512,-0.90523 -0.0562,-0.0996 -0.46373,-0.74212 -0.44038,-0.67138 -0.0445,-0.0618 -0.0501,-0.069 -0.0445,-0.0629 -0.0607,-0.0752 -0.11525,-0.13306 -0.0501,-0.059 -0.039,-0.0379 -0.29617,-0.22325 -0.0735,-0.0534 -0.19317,-0.12026 -0.79109,-0.4565 -0.1119,0.16144 0.0646,0.0395 0.0557,0.0328 0.13306,0.0679 0.0568,0.0212 0.0278,0.002 0.0223,-0.003 0.0557,0.002 0.039,0.0122 0.14808,0.054 0.0768,0.0323 0.10744,0.0573 0.0334,0.0194 0.0985,0.0635 0.0846,0.0562 0.0501,0.0328 0.039,0.0379 0.0445,0.0418 0.0768,0.0885 0.039,0.049 0.45094,0.59903 0.51719,0.75991 0.0223,0.0395 0.63798,1.34781 -0.1002,0.0835 -0.25274,0.17869 -0.0746,-0.0796 -0.14698,-0.17703 -0.0612,-0.0752 -0.0557,-0.0741 -0.17591,-0.21712 -0.13249,-0.16311 -0.11134,-0.12359 -0.12472,0.0239 -1.7514,0.6391 -0.30062,0.3318 -0.11246,0.18483 0.43311,0.56839 0.35408,0.28839 0.58177,0.39694 -0.21212,0.88405 -0.6558,0.64633 -0.14085,0.1737 -0.0685,0.0974 -0.68142,1.00153 -0.26611,0.11301 -0.039,0.0177 -0.0278,0.0323 -0.0863,0.12024 -0.0501,0.093 -0.74656,1.4597 -0.12024,0.35684 -0.0278,0.26834 -0.003,0.0445 0.0112,1.17911 0.005,0.0273 0.94084,2.31259 0.7371,0.91745 1.30047,1.59053 3.18884,2.0999 0.17648,0.28004 0.0112,0.0501 -0.14529,0.48544 -0.0707,-0.0223 -0.0557,0.37802 -0.0657,0.1091 -0.1275,0.14587 -0.12193,0.0557 -0.19485,0.039 -1.57437,-0.0835 -1.8828,-0.0501 -0.28057,0.0907 -1.48699,0.78886 -0.95755,0.50884 -0.30283,0.16257 -0.44982,0.30674 -0.43647,0.38467 -0.67919,0.51051 -0.54168,0.31064 -0.25998,0.13697 -2.98621,1.54152 -0.33403,0.069 -1.52315,0.10632 -0.1403,0.002 -0.16087,-0.005 -0.62799,-0.0501 -0.12136,-0.0629 -0.25887,-0.40195 -0.0885,-0.17981 -0.0445,-0.0913 -0.0958,-0.11912 -0.17092,-0.18094 -0.14084,-0.14752 -0.0985,-0.0869 -0.36298,-0.26777 -0.19095,-0.1158 -0.0857,-0.0223 -0.19428,-0.0334 -0.22547,-0.0334 -0.0774,-0.002 0.0752,0.25442 0.14698,0.47266 0.56061,0.37521 0.54167,0.54726 0.0624,0.2544 -0.0779,0.12472 -1.46972,2.22963 -0.19987,0.23883 -0.16368,0.14475 -0.77604,0.67305 -0.10078,-0.039 -0.27055,0.0112 -0.13694,0.0501 -0.23606,0.093 -1.17354,0.56952 -1.96352,1.23589 -0.19207,0.14085 -1.53598,1.09784 -0.11022,-0.0223 -2.58759,-0.039 -1.34557,0.11748 -2.23687,0.33124 z"
     id="gorizia"
     name="Gorizia"
     />
  <path
     d="m 155.59496,236.68378 0.0457,0.18155 0.42922,0.14084 0.12916,0.13528 0.0685,0.26277 -0.005,0.0857 -0.0278,0.1492 -0.0501,0.18036 -0.15364,0.34739 -0.29951,0.45874 -0.29118,0.35963 -0.16366,0.19987 -0.638,0.61405 -0.32846,0.31175 -0.76548,0.6263 -0.86678,0.70591 -0.72318,0.57786 -0.92971,0.75601 -0.40195,0.34407 -0.97814,0.8757 -0.17201,0.15809 -0.96756,0.98428 -0.16035,0.17368 -0.12414,0.14643 -0.10243,0.14306 -0.12916,0.19485 -0.47042,0.89409 -0.22102,0.53556 -0.15421,0.40695 -0.20877,0.63632 -0.26108,0.95811 -0.28504,1.4352 -0.28894,-0.20599 -0.14587,-0.10466 -2.1333,-1.63394 -0.50104,-1.18858 0.0112,-0.0445 0.0112,-0.059 0.002,-0.0557 -0.003,-0.039 -0.0223,-0.0874 -0.0334,-0.0623 -0.0501,-0.0557 -0.0557,-0.0445 -0.11022,-0.083 -0.373,-0.19152 -0.0668,-0.0167 -0.14808,-0.0445 -0.10911,-0.0223 -0.16144,-0.0223 -0.17648,-0.0112 -0.15422,-0.005 -0.0974,0.002 -0.12471,0.0112 -0.12415,0.0223 -0.0957,0.0223 -0.14644,0.0618 -0.40694,0.19373 -0.23104,0.13528 -0.12916,0.088 -0.23993,0.15419 -0.24998,0.13028 -0.0835,0.039 -0.13583,0.039 -0.0735,0.0223 -0.0445,0.002 -0.0445,-0.004 -0.0501,-0.0223 -0.0334,-0.0223 -0.098,-0.0813 -0.0562,-0.0735 -0.0501,-0.0818 -0.0668,-0.12136 -0.039,-0.0846 -0.10801,-0.30731 -0.0557,-0.17703 -0.004,-0.0557 -0.005,-0.10354 -0.0112,-0.36243 v -0.20877 l 0.005,-0.11634 0.0223,-0.10801 0.12245,-0.40528 0.0112,-0.0278 0.15645,-0.33738 0.63408,-1.1045 -0.0278,-0.36966 -0.27612,-0.805 -0.0779,-0.216 -0.26108,-0.48824 -0.18819,-0.19542 -0.20486,-0.0852 -0.21267,-0.0223 -0.25997,0.0334 -0.37245,0.29896 -0.20041,0.17147 -0.0924,0.0501 -0.0701,-0.0223 -0.13416,-0.0445 -0.25832,-0.19149 -1.40515,-1.28434 -0.19038,-0.18595 -0.14531,-0.29339 -0.005,-0.24774 0.0724,-0.19206 0.0629,-0.0846 0.0334,-0.005 0.083,-0.0167 0.23215,0.0635 0.2583,0.0557 0.14753,-0.0167 0.11358,-0.0278 0.13694,-0.10242 0.15478,-0.18707 0.14418,-0.27279 0.12637,-0.25942 0.0935,-0.28059 0.12638,-0.44092 0.0334,-0.23436 -0.0568,-0.23884 -0.12191,-0.22935 -0.24942,-0.12861 -0.22714,-0.0278 -0.25887,0.0585 -0.10299,0.11748 -0.0674,0.19094 -0.0612,0.23882 -0.0729,0.17536 -0.11746,0.0223 -0.0935,0.0167 -0.12526,-0.0223 -1.30271,-1.17799 -0.22213,-0.20822 -0.088,-0.20876 -0.002,-0.005 0.0278,-0.16868 0.40473,-2.59427 0.1314,-2.05817 -0.039,-0.20653 -0.0924,-0.22435 -0.22768,-0.2199 -0.30955,-0.20432 -0.45817,-0.26777 -0.22991,-0.12526 -0.22714,-0.0891 -0.29396,-0.1815 -0.25775,-0.24774 -0.12747,-0.34737 0.005,-0.42534 0.0562,-0.43257 0.0501,-0.28169 0.0657,-0.2572 0.0167,-0.0746 0.13194,-0.30062 0.0334,-0.25887 -0.0334,-0.0334 -0.0902,-0.0985 -0.18705,-0.0501 -0.12026,0.0112 -0.0724,0.0112 -0.2288,0.10966 -0.32513,0.20265 -0.34626,0.2828 -0.36298,0.30286 -0.63186,0.64969 -0.0774,0.13249 0.0112,0.2071 0.0334,0.28169 -0.002,0.28392 -0.005,0.21546 -0.039,0.113 -0.0501,0.15588 -0.13863,0.14977 -0.211,0.13249 -0.13083,0.0679 -0.20708,0.0112 -0.0991,-0.0334 -0.11801,-0.039 -0.093,-0.0334 -0.11748,-0.0445 -0.19206,-0.0835 -0.0935,-0.0807 -0.11691,-0.30565 -0.0334,-0.36074 0.0112,-0.32846 0.0167,-0.12305 0.0579,-0.41584 0.18483,-0.31176 0.24327,-0.17815 0.28337,-0.15756 0.31455,-0.14863 0.23548,-0.1314 0.17981,-0.12526 0.0779,-0.16589 -0.0774,-1.35281 -0.0629,-0.16701 -0.19875,-0.13918 -0.21267,-0.10133 -0.22601,-0.0646 -0.25052,-0.0813 -0.34852,-0.12191 -0.3769,-0.18483 -0.31342,-0.25942 -0.48879,-0.42032 -0.17703,-0.21823 -0.0596,-0.22547 0.0167,-0.18205 0.49157,-1.56881 0.57731,-1.07166 0.11358,-1.25596 -1.97801,-1.19636 -1.70854,-1.43186 -1.26206,-2.67778 0.004,-1.51202 1.48364,-0.71595 0.18595,-0.0991 0.20988,-0.18483 0.0857,-0.21488 -0.005,-0.27557 -0.0657,-0.26834 -0.13362,-0.21044 -0.19708,-0.15978 -0.11858,0.0284 -0.0634,0.0173 -0.11802,0.0807 -0.0223,0.0251 -0.0958,0.19485 -0.0557,0.23715 -0.039,0.22883 -0.0223,0.26275 -0.0724,0.18649 -0.20989,0.18874 -0.2917,0.0757 -0.24831,-0.0546 -0.17981,-0.11134 -0.0167,-0.0234 -0.10244,-0.13416 -1.17966,-2.23798 -0.10801,-0.25218 0.0624,-0.23939 0.68421,-1.52762 0.16199,-0.21155 0.17649,-0.0523 0.039,-0.0112 0.28168,-0.0791 0.11803,-0.0212 0.27836,0.0824 0.0974,0.21377 0.0646,0.32846 0.0446,0.2739 0.10856,0.27336 0.17758,0.20042 0.21768,0.19651 0.20932,0.049 0.23603,-0.074 0.0841,-0.0345 0.10522,-0.0557 0.17537,-0.2199 0.26831,-0.61795 0.0752,-0.35685 -0.0334,-0.2071 -0.21933,-0.16646 -0.29841,-0.21933 -0.35351,-0.23996 -0.0501,-0.0351 -0.31954,-0.17091 -0.005,-0.003 -0.25999,-0.0746 -0.10632,-0.0156 -0.1776,-0.0267 -0.32791,0.0251 -0.11858,0.0139 -0.2828,0.0495 -0.11413,-0.0116 -0.20655,-0.0212 -0.24384,-0.0674 -0.0924,-0.0362 -0.15422,-0.0596 -0.40751,-0.25385 -0.0557,-0.10133 0.0752,-0.35239 0.0874,-0.152 0.26332,0.007 0.22713,-0.0852 0.11358,-0.0451 0.19597,-0.22604 0.10856,-0.0662 0.0946,-0.059 0.53166,-0.67138 -0.91969,0.33457 -0.0278,0.55895 -0.0768,0.0212 -0.0167,0.005 -0.0813,0.0223 -0.11523,0.0267 -0.2405,0.0129 -0.11914,-0.18538 -0.12636,-0.24997 -0.34016,-0.73541 -0.0334,-0.15366 0.22659,-0.21822 1.30494,-1.12455 0.0707,0.15588 0.45429,-0.015 0.16145,-0.0239 0.20653,-0.0496 0.0902,-0.049 -0.4565,-4.43978 -0.41085,-1.84328 -0.94864,-3.56295 -0.89353,-0.73541 -1.03158,-0.83173 -1.29323,-1.021 -0.12971,-0.0535 -0.48434,-0.10187 -0.21157,-0.0445 -0.18593,-0.019 -0.38135,-0.0194 -1.96129,-1.3528 -0.29284,-0.34574 -0.85955,-0.54279 -0.49716,-0.30229 -1.00763,-1.3322 -0.74432,-0.9954 -0.14254,-0.24607 -0.72482,-1.66067 -0.33849,-0.84175 -0.93193,-4.46927 -0.38134,-2.09659 -0.13195,-0.72984 -0.65637,-4.68139 -0.005,-0.43535 0.23215,-2.12107 0.13249,-1.14961 0.10078,-0.45372 0.54891,-2.13721 0.53054,-3.06804 -0.0557,-0.84954 -0.002,-0.20431 0.0167,-0.27113 0.0278,-0.29505 0.432,-4.02056 0.14474,-1.40514 0.23049,-3.29071 -0.0963,-1.57105 -0.0167,-1.43743 0.0445,-1.20026 0.0891,-0.54615 -0.0557,-1.84214 0.0607,-0.68031 0.0857,-0.67307 0.0852,-0.33124 0.16312,-0.4192 0.52887,-1.20807 1.14126,-2.91271 0.40362,-2.74571 0.65247,-4.34513 0.18426,-0.80611 0.23772,-0.87292 0.29951,-0.76826 0.19484,0.0445 0.33182,-1.11509 0.11022,-0.40083 0.0501,-0.2611 0.0278,-0.17649 -0.039,-0.43088 0.0167,-0.24719 0.0802,-0.26722 0.60404,-0.72372 0.74432,-1.30159 -0.14586,-0.60348 0.0278,-0.24605 0.1648,-0.44872 0.30062,-0.29951 0.20042,-0.29394 0.92357,-3.68543 0.29896,-2.26971 -0.0501,-0.31121 -0.0223,-0.28614 -0.003,-0.29896 0.0846,-0.27334 0.29282,-0.6764 0.157,-0.30062 0.30619,-0.3641 0.38858,-0.29451 0.32456,-0.21712 -0.53944,-0.92802 -0.23327,-0.34238 -0.46262,-0.61852 -0.005,-0.008 -0.27112,-0.28616 -0.0223,0.002 -0.25109,0.0184 -0.37966,0.008 -0.7115,-0.13025 -0.113,-0.0223 -0.0685,-0.0278 -0.73041,-0.61628 -0.0278,-0.10466 -0.16366,-0.6341 -0.0223,-0.0763 -0.18818,-0.11189 -0.73874,-0.31064 -0.23996,-0.0545 2.27084,-1.21085 1.15962,-1.44745 0.58065,-1.00208 0.0557,-0.0551 0.0879,-0.0907 0.039,-0.0401 1.01434,-0.73597 0.67975,-0.41197 0.60347,-0.26777 0.16813,-0.0896 0.35517,-0.64189 -0.11802,-1.25481 -0.0891,-0.24329 -0.0651,-2.21459 0.26723,-0.23996 0.13025,-0.21654 0.29951,-0.54448 0.039,-0.15086 -0.25219,-0.99985 -0.0573,-0.13863 -0.20487,-0.4487 -0.16311,-0.44594 0.50661,-1.12065 0.23938,-0.16312 0.49324,-0.15588 0.72539,-0.27502 0.31121,-0.12414 0.20765,-0.10744 0.0969,-0.0501 0.20876,-0.13751 0.1453,-0.10411 0.20265,-0.17815 -0.93975,-0.59066 -3.51951,-2.04201 -0.23884,-0.16758 -1.6796,-1.84493 -0.0985,-0.30564 -0.46819,-1.83437 0.0112,-0.16925 0.0568,-0.23103 0.36964,-0.54558 0.21379,-0.11467 0.16534,-0.0173 0.15477,-0.0445 0.3936,-0.13697 0.0334,-0.0239 0.10021,-0.0779 1.59776,-1.56157 0.63241,-0.65469 0.30398,-0.46764 0.10911,-0.20153 -0.0501,-0.23049 -0.34849,-1.41238 0.0112,-1.05273 -1.10453,-0.29951 -0.31399,-0.16144 -0.32066,-0.21712 -0.25052,-0.216 -0.15309,-0.15866 -0.039,-0.12417 -0.13752,-1.00819 -0.34849,-0.0546 -0.15645,-0.009 -1.71467,0.25163 -0.84173,0.42253 -0.152,0.15143 -0.87848,-0.002 -0.69477,-0.002 -0.22492,-0.17427 -0.25831,-0.24995 -0.40473,-0.51163 -0.0501,-0.0846 -0.15255,-0.28502 -0.22045,-0.29227 -0.0907,-0.103 -0.0852,-0.0857 -0.59347,-0.54948 -0.69979,-0.40249 -1.14459,-0.51608 -0.0674,0.2032 -0.47823,1.0071 -0.62963,1.26873 -0.12749,0.23439 -0.26889,0.33959 -2.55866,1.00375 -0.28169,0.0329 -1.47305,0.10856 -0.26222,-0.059 -1.20304,-0.51774 -0.0223,-0.088 0.0334,-0.12638 0.0334,-0.0996 0.19485,-0.41141 0.29784,-0.74321 0.31176,-0.85789 -0.0278,-0.044 -0.13307,-0.054 -0.11912,0.0969 -0.15866,0.0868 -0.12916,0.003 -0.25554,-0.059 -1.61892,-0.47487 -1.06277,-0.45762 -0.18704,-0.0724 -0.13083,-0.0373 -0.93972,0.14976 -0.74545,0.12359 -0.70869,0.12581 -0.97258,0.1865 -0.30731,0.0907 -0.72372,-0.0629 -0.25609,-0.0696 -0.15976,-0.20263 -0.0501,-0.24831 -0.0334,-0.2572 -0.15812,-0.23882 -1.25315,-1.51592 -0.8334,-0.79165 -0.39471,-0.14141 -0.2288,-0.0662 -0.31733,-0.0835 -0.83395,-0.21936 -0.13194,-0.0818 -0.45929,-0.18093 -0.26889,0.31566 -0.2071,0.24607 -0.17037,0.18205 -0.0779,0.0829 -0.49269,0.0885 -0.86512,0.11634 -1.6256,-0.27724 -2.18621,0.27224 -0.0112,0.0952 0.13361,0.37745 0.13694,0.25554 0.25777,0.37745 -0.47544,1.35504 -2.21737,0.81446 -1.23145,0.33793 -1.35169,0.31621 -0.84454,0.12916 -0.23772,-0.0228 -2.36267,0.741 -1.69352,1.23701 -0.12081,0.19262 -0.64467,0.4437 -1.84216,0.75825 -0.589,0.18649 -0.25999,-0.12304 -2.40889,-3.20832 -0.0824,-0.14642 -0.039,-0.14976 -0.0501,-0.18761 -0.005,-0.1542 0.0278,-0.50161 -0.17035,-0.0757 -0.38358,-0.16145 -2.22071,-0.8668 -2.88043,0.34071 -0.36966,0.11803 -0.26832,0.15252 -0.59792,0.89409 -0.0796,0.18427 -0.0557,0.21545 -0.0607,0.16256 -0.11912,0.16811 -0.10746,0.0651 -1.10729,0.38749 -0.24105,0.02 -0.25221,-0.029 -1.43184,-0.60515 -0.1737,-0.015 -0.8579,-0.88017 -0.15921,-0.23103 -0.10245,-0.30118 -0.0278,-0.15811 -0.10299,-0.0885 -0.57508,-0.3602 -0.20042,-0.0746 -1.5354,0.3474 -0.6007,0.21711 -0.30786,0.12971 -0.12859,0.17425 -0.22714,0.13639 -0.23995,0.0585 -0.25274,-0.0634 -0.53834,-0.18429 -2.03702,-1.1084 0.83117,-0.54503 0.11469,-0.0634 0.55448,-0.51719 0.33569,-0.31343 0.0334,-0.10744 -0.0167,-0.15478 -0.0729,-0.15031 -3.48835,-2.82475 -0.10522,-0.004 -0.48268,0.15976 -0.21043,0.12804 -0.11746,0.14921 -0.14196,0.12079 -0.12248,0.0679 -0.47432,0.12971 -2.25078,-0.61127 -1.51204,-0.48712 -0.40138,0.79555 -0.10523,0.1954 -0.16867,0.21878 -0.21767,0.20543 -0.18928,0.1698 -0.44927,0.21712 -1.17911,0.49602 -0.19597,-0.10131 -0.95588,-0.6135 -0.15978,-0.11636 -0.17758,-0.16589 -0.0166,-0.0177 -0.99095,-1.07166 -0.20432,-0.35073 -0.1865,-0.37745 -0.24217,-0.52999 -0.12247,-0.50828 -0.30564,-1.29825 -0.46986,-2.1205 -0.11191,-0.63689 -0.0885,-0.79664 -0.0946,-0.84175 -0.33627,-0.31233 -0.004,-0.004 -0.41254,-0.2199 -0.93249,-0.4899 -1.97354,-2.06262 -0.25162,-0.42812 -0.78218,-1.4302 -0.35018,-1.4352 -0.0334,-0.14529 0.0969,-0.16423 0.17312,-0.28449 0.47376,-0.59901 0.46542,-1.01545 -0.0167,-0.23549 0.0785,-0.1954 0.5801,-0.9041 0.18873,-0.25609 0.23047,-0.27724 0.24105,-0.23605 1.4842,-1.25482 0.29394,-0.14919 1.03882,-0.40195 1.32999,-1.22086 -0.12916,-0.64524 -0.039,-0.32623 0.002,-0.35964 0.005,-0.26054 0.0735,-0.19095 0.51662,-1.07055 0.11581,-0.10299 0.0334,0.008 1.0917,1.29324 0.91634,0.20265 0.0501,-0.10245 0.74823,-0.7265 0.52999,-0.46207 1.42963,-1.2448 0.72318,-0.51941 1.29992,-0.84342 0.52274,-0.23883 3.07362,0.57619 1.24201,0.44371 0.34571,0.15866 0.93194,0.82726 0.48489,0.46264 0.43871,0.25107 0.26275,0.11524 0.13584,-0.039 0.13361,-0.2366 0.23049,-0.36909 1.51035,-1.73249 0.15476,-0.11858 0.10523,-0.0807 0.28559,-0.15755 0.20042,-0.0713 2.35822,0.23439 0.6686,0.18538 1.02825,0.33792 0.28337,0.28614 0.19818,0.38582 0.77552,0.76769 1.07555,0.27557 0.31454,0.0585 0.54781,-0.18817 0.56283,-0.49547 0.0112,-0.16145 0.003,-0.13917 -1.04272,-2.99288 -0.52999,-0.80501 -0.16701,-0.10633 -0.20765,-0.0657 -0.2366,-0.1147 -1.34058,-0.9993 -0.24995,-0.23046 -2.31202,-2.55642 0.0112,-0.0323 0.15364,-0.638 0.13639,-0.88739 0.0112,-0.28171 -0.0112,-0.20598 -0.18649,-0.81446 0.82338,-0.39972 0.94919,-0.4732 0.57508,-0.3012 1.02713,-0.54055 0.38468,-0.14085 4.30393,-1.49755 0.38748,-0.1275 0.90856,-0.5283 0.27055,-0.1904 0.0985,-0.15088 0.003,-0.005 0.0223,-0.17482 0.0902,-0.35294 0.0501,-0.13751 0.21379,-0.28616 1.25036,-1.16186 0.26444,-0.16145 1.17021,-0.53944 3.34194,-1.08782 1.2103,0.55338 1.20471,0.63855 3.27179,-0.54948 0.53333,-0.32624 -0.20487,-0.1197 -0.2121,-0.12971 -0.2277,-0.16922 -0.41975,-0.3396 -1.60556,-1.66012 -0.51218,-0.95254 0.0112,-1.19693 0.0729,-1.66902 0.50606,-0.80109 0.34404,-0.21434 0.58622,-0.36521 0.29451,-0.34404 0.0112,-0.11358 -0.0579,-0.40083 -0.0924,-0.52998 -0.0991,-0.4231 -0.0668,-0.2611 -0.0112,-0.003 -0.16868,-0.0356 -0.23772,-1.2242 -0.0223,-0.22658 0.039,-0.23661 0.11803,-0.36909 0.21821,-1.17633 -0.85177,-2.16061 -0.37354,-0.44982 -0.19319,-0.17481 -0.14139,-0.15476 -0.002,-0.002 L 76.59422,9.31647 76.54972,8.64842 76.46562,7 76.62985,5.33932 76.32867,4.34949 76.35097,4.18749 76.51465,4.01936 76.73843,3.87852 77.17935,3.49327 77.24055,3.30399 80.6905,0.68021 80.85918,0.58281 81.77775,0.148 82.38623,0.0534 82.7893,0 l 2.38996,0.25554 0.45928,0.1002 1.07445,0.23882 2.30146,0.72484 0.12971,0.23494 0.003,0.25164 0.15811,0.42698 0.12303,0.27169 0.77606,0.74987 0.28002,0.25388 1.23088,0.6263 -0.0167,-0.0211 1.80765,0.74709 0.37021,-0.0969 0.89017,-0.23995 0.53056,-0.29228 0.43534,0.0412 1.20585,0.79386 -0.0112,0.0869 -0.0835,0.23103 -0.2739,0.67862 -0.17537,0.29228 -0.0824,0.34963 -0.0718,1.05385 -0.0167,1.17521 0.0278,0.31789 0.33515,0.30341 0.4476,0.30117 0.91023,0.35296 0.81891,0.25331 0.93028,0.18093 0.56059,-0.0167 0.427,-0.0663 0.61295,-0.31844 1.73637,-0.4654 0.8501,0.044 1.11676,0.13028 1.51482,0.23606 1.1986,-0.41087 1.97409,0.17815 2.65941,-0.25719 0.53054,-0.0557 0.41254,-0.0729 1.74194,0.13361 0.18038,0.1442 1.19303,0.80556 0.81948,0.37578 0.37633,0.14196 0.29672,0.088 0.11358,-0.0612 0.50827,-0.30452 0.27001,-0.17982 0.1982,-0.16813 0.34459,-0.20988 2.13944,0.6725 1.61446,0.47822 1.84773,0.5133 0.23661,0.0557 0.71259,-0.0351 0.25998,-0.34516 1.17243,-0.3307 0.25442,-0.0312 0.26389,0.0824 2.11327,0.27669 0.70257,-0.21378 0.85567,-0.0779 0.1659,0.0663 0.17479,0.10798 0.80278,0.76993 1.68463,0.45317 1.77034,0.29394 0.28168,0.004 0.28726,-0.0729 1.42853,-0.45929 0.98762,-0.10187 0.74097,-0.33959 3.33749,-0.64746 0.19206,0.0295 0.22713,0.0512 0.87071,0.20541 0.40806,0.1364 0.28226,0.30897 0.28392,0.24662 0.3357,0.1904 0.20822,0.0941 1.24591,0.49881 0.22768,0.0852 0.33627,-0.1787 0.22825,-0.16646 1.5226,0.40418 0.26611,0.14418 0.42421,0.29451 0.17092,0.15533 0.24217,0.0757 0.33569,0.0779 5.27986,0.6135 2.39217,-0.0896 0.45205,0.0668 0.0445,0.17984 0.0991,0.52942 1.80598,1.91397 0.15921,0.0997 2.57869,1.31884 0.34183,0.1353 0.31397,0.118 0.37914,-0.0223 0.55226,-0.0423 0.28837,-0.0423 2.74737,0.43923 1.64842,1.5872 1.01321,1.16296 0.0334,0.14308 0.0952,0.68977 -0.0618,0.58509 0.91079,0.10133 0.98647,-0.73543 1.32443,-0.8217 0.56896,-0.28504 3.16267,-0.17703 0.55949,0.0406 3.22393,0.33793 2.35489,0.53889 0.40807,0.30008 0.40861,0.29784 0.21433,0.13917 0.32737,0.17592 0.486,0.15645 0.53278,0.15754 0.31787,-0.005 0.66972,-0.0451 0.81615,-0.53054 1.51925,-1.32942 0.74545,-0.82727 1.47362,-1.54989 0.15031,-0.0362 2.30422,0.26389 1.19414,-0.27614 1.30159,0.68476 0.0501,-0.32178 -0.0891,-0.47765 -0.1659,-0.41254 -0.2249,-0.41251 0.64579,-1.12511 0.14862,-0.25665 2.83145,0.61628 0.53834,0.18148 0.19262,0.0707 3.19719,1.21808 -0.093,0.33681 -0.0818,0.41698 -0.0985,0.62854 -0.064,0.43033 0.002,0.26387 0.18202,0.26444 0.46376,0.13472 2.82141,0.7911 0.34459,0.0696 2.49797,-0.005 1.95517,-0.30952 4.20651,0.38801 0.27835,-0.0373 2.26639,-1.11956 2.20736,-0.93471 0.32232,-0.0323 0.68977,-0.0573 0.10744,0.22268 0.30398,0.71983 0.19373,0.72484 0.95921,2.10382 0.25554,0.39526 0.30172,0.27948 0.51943,0.24105 0.32011,0.084 0.53054,-0.16867 2.08933,-0.44927 0.40919,-0.24886 0.50437,-0.37131 0.24217,-0.24885 0.46152,-0.17537 1.11176,0.0924 2.3727,0.35629 0.25052,0.0445 0.21767,0.0958 0.86345,1.09506 0.14086,0.27835 0.18539,0.97591 0.0223,0.19318 -0.0813,0.0868 -0.11301,0.11858 -0.0278,0.15811 0.0857,0.13473 0.12581,0.0484 0.42031,0.0774 0.59904,0.0958 0.32567,0.0384 h 0.005 l 1.20471,-0.47932 -0.0112,-0.32846 0.13751,-0.23939 0.35853,-0.44482 0.18593,-0.11691 0.91746,-0.42643 0.94753,0.10799 4.54388,0.84287 1.11064,0.216 0.30619,0.13194 0.13082,0.17982 0.33736,0.35184 1.58275,0.85734 0.0735,0.0328 3.47778,1.63619 3.40541,1.36672 1.22978,0.30564 1.34891,0.17202 2.98564,0.0919 0.41308,-0.0312 0.31231,-0.0379 0.30897,-0.26277 0.36131,-0.19485 0.56283,2.06038 0.0223,0.088 0.0674,0.32846 -0.1041,1.4508 -0.0724,0.18705 -0.24105,0.20598 -0.2483,0.0724 -0.24384,0.0473 -0.25999,0.0846 -0.216,0.11524 -0.84008,0.50661 -0.26832,0.17703 -0.10356,0.10021 -0.14308,0.47822 -0.039,0.16478 0.32513,1.88891 0.38746,1.86109 0.0818,0.0707 0.54224,0.46988 -0.0166,0.1258 -0.0919,0.2032 -0.10744,0.14532 -0.10245,0.13249 -0.23493,0.28614 -1.49589,1.69409 -0.61405,0.64466 0.10635,1.40848 0.34347,0.88962 0.16035,0.61294 0.005,0.11802 -0.95088,3.12149 -0.5077,0.58621 -0.25666,0.28949 -0.15866,0.15309 -0.8512,0.61072 -0.157,-0.029 -5.49362,-1.17911 -0.0112,-0.28504 -0.0707,-0.14308 -0.79053,-0.43923 -0.2071,-0.0824 -0.17258,0.0234 -2.05983,0.55616 -3.35141,0.74933 -3.49058,0.59737 -0.13472,0.0122 -0.13026,-0.18481 -0.12583,-0.0518 -0.0779,-0.002 -1.0032,0.70869 -2.30757,2.21906 -0.22713,0.25942 -0.0835,1.2142 -0.29727,1.77924 -0.26334,1.40458 -0.56839,1.03993 -0.50549,0.74935 -0.28059,0.37578 -0.24106,0.2917 -0.24997,0.20153 -0.11301,-0.0345 -0.14139,-0.12078 -0.10801,-0.0317 -0.28392,-0.0295 -0.4526,0.0746 -0.1776,0.0401 -0.45149,0.50827 -1.15239,1.00265 -2.16171,1.52984 -0.44648,0.15643 -2.83645,0.3975 -0.78441,0.30005 0.11079,0.90078 0.0501,0.38356 -0.0779,0.14532 -0.20265,0.12526 -3.35419,1.41404 -0.75044,0.17537 -1.01433,0.17258 -1.12456,0.16366 -0.19207,0.0167 -0.039,0.14641 -0.0612,0.20543 -0.103,0.10633 -0.76045,0.75881 -0.20656,0.16533 -1.05663,0.57955 -0.37856,0.093 -0.18094,-0.0223 -0.14586,-0.0824 -0.12024,-0.15031 -0.91579,-0.26889 -0.25219,-0.0323 -1.39234,-0.0184 -0.63575,0.03 -0.14308,0.0295 -1.67737,0.65357 -0.10244,0.10244 -0.14641,0.22937 -0.15645,1.12677 0.24552,0.29339 0.32178,0.44092 0.4988,0.74155 0.91301,3.01347 -0.3986,1.43187 -1.17021,2.0871 -0.10299,0.0924 -0.25942,0.0607 -0.29506,-0.007 -0.2405,-0.0718 -0.88239,-0.0824 -0.72039,-0.0607 -1.41793,1.09282 -0.0802,0.11803 -0.40918,0.68977 -0.0334,0.18705 0.0729,1.12734 -1.71131,1.00374 -0.10188,0.13806 -0.15923,0.30898 -0.21823,0.50104 -0.23827,0.46264 -2.33317,0.20541 -2.78244,0.23829 0.19095,0.85455 0.22435,0.88294 0.11189,0.21824 0.18205,0.28113 0.15533,0.0807 0.26053,-0.007 0.26444,-0.28002 0.14587,-0.13528 0.11745,0.15141 0.3179,0.48546 1.09394,2.19232 0.0701,0.638 0.0223,0.3396 0.0112,0.31176 0.0167,0.2199 0.21878,1.84661 0.76548,2.6878 0.15031,0.4153 1.41071,2.48738 0.71759,0.85567 0.26056,0.22214 0.1531,-0.002 0.84953,0.33236 0.98983,0.72817 0.10466,0.12136 -0.0991,0.69534 -1.29157,3.21556 -0.40583,0.23215 -0.22546,0.0579 -0.24998,0.0479 -0.0919,0.13028 -0.11189,0.20876 -0.0445,0.27389 0.11301,0.26055 0.21043,0.39192 2.37994,1.48699 1.28824,-0.66696 2.84311,-0.90297 0.15811,-0.0535 0.093,-0.19651 0.20041,-0.48712 0.059,-0.14865 -0.0445,-0.15143 -0.4192,-1.3283 -0.11358,-0.34517 -0.0445,-0.0885 0.638,-0.34683 1.64285,-0.29672 4.09406,0.35853 0.38023,0.0367 0.66137,0.0713 2.09045,0.57565 0.25887,0.13694 0.4014,0.59735 -0.0729,0.049 -0.1581,0.0941 -0.0729,0.0284 -0.0601,0.0417 -0.0112,0.0434 -0.0112,0.059 0.002,0.0273 0.0278,0.0629 0.0935,0.0479 0.36966,0.18428 0.27836,0.12359 0.35684,0.14251 0.90521,0.10354 1.13569,0.0607 0.35741,-0.008 0.1993,-0.15253 0.15978,-0.16479 0.16535,-0.11468 0.29172,-0.12414 0.34571,-0.1403 1.19303,-0.22323 0.13863,-0.002 0.10744,0.15978 -0.0445,1.46082 0.7499,-0.24885 0.24271,-0.0129 0.76605,-0.0384 1.30604,0.33348 1.41683,0.87014 0.2739,0.18873 1.35726,0.94807 0.69422,2.53026 -0.0724,0.28613 -0.0334,1.24259 0.069,0.30507 0.27947,0.23049 1.17021,0.36631 0.94753,-0.32344 0.47487,-0.34404 0.24662,-0.21046 0.13751,-0.17367 0.16423,-0.17984 0.19373,-0.18036 0.15588,-0.10411 0.59568,-0.15143 0.1815,0.0852 0.21933,0.14643 -0.12916,0.46931 0.56897,-0.12305 0.31121,-0.0105 2.66943,0.6597 0.40806,0.10632 0.34571,0.14197 0.27279,0.13974 0.4732,-0.18038 0.95755,-0.43369 0.29896,-0.14529 0.63353,-0.34794 0.32234,-0.19597 0.70258,-0.27779 1.0032,0.42589 0.22099,0.11301 0.53613,-0.0796 0.70534,0.13918 0.11803,0.0634 1.1073,0.67419 2.0576,1.31605 0.0813,0.72094 0.0818,1.29046 0.0167,0.29006 -0.0651,0.275 -0.36576,0.62352 -0.39805,0.4309 -0.14029,0.0713 -0.17537,0.0835 -0.17313,0.11079 -0.56729,0.63965 -0.0607,0.27781 -0.0167,0.69644 -0.31064,2.41279 -0.1158,0.33626 -0.38413,0.76993 -0.46262,0.87459 -0.4849,0.7265 -0.0857,0.1108 -0.81226,0.62016 -0.26165,0.0579 -0.29227,-0.0607 -0.24662,-0.0373 -0.17425,0.0323 -0.75824,0.6519 -0.65859,0.78106 -0.35296,0.73598 -2.91662,2.4256 -0.80611,0.53389 -0.48323,0.2583 -0.4604,1.21977 -0.80221,0.98369 -0.20432,0.12248 -0.91134,0.33792 -1.19469,0.43702 -0.58512,0.60125 -0.20932,0.24831 -0.39193,0.56282 -0.0223,0.0451 -0.0445,0.0818 -0.33403,0.69311 -0.2043,0.2483 -0.58956,0.37856 -3.87026,1.76923 -0.18817,-0.0707 -0.15699,-0.0735 -0.27222,-0.14139 -0.18707,-0.009 -0.33848,0.0707 -0.12971,0.14976 -0.0223,0.0267 -1.72915,2.31314 -0.079,0.17926 -0.0501,0.2544 0.0167,0.24441 -0.039,0.16089 -0.6263,0.48266 -2.74683,1.36672 -0.19318,0.0685 -0.2121,-0.0267 -0.24383,-0.0946 -0.21824,-0.098 -1.35783,0.0512 -0.24661,0.0713 -0.22214,0.16813 -0.83895,0.75991 -0.0601,0.14084 0.0746,0.20711 0.039,0.0534 0.10299,0.14141 0.0278,1.08336 -0.0958,0.18595 -0.41197,0.5116 -0.22768,0.12973 -0.27224,0.0946 -0.27112,0.0367 -1.11621,1.05442 -1.09004,1.61222 -0.11022,0.1954 -1.25372,5.06998 -0.12081,1.19247 -1.2448,1.24147 -0.25052,0.17981 -0.24328,0.0852 -0.28003,0.054 0.039,1.23757 0.0278,0.18985 0.22102,0.15421 0.22323,0.11522 0.29339,0.10801 -0.0501,2.01642 0.10354,1.016 0.0112,0.10299 0.0112,0.20819 -0.0868,0.15032 -0.24105,0.0674 -0.21824,-0.008 -0.28504,-0.0779 -0.16423,-0.0874 -0.18816,-0.18705 -1.20195,0.60125 -2.66943,2.34878 -0.19875,0.22546 -0.0601,0.14975 0.55393,0.63186 0.0724,0.21491 0.0629,0.22768 0.43701,2.00751 0.0278,0.1993 -0.002,0.24717 -0.0874,0.21433 -0.82169,0.32903 -0.22436,0.0423 -1.55267,1.25762 -1.54878,2.24745 -0.0112,0.2544 0.0501,0.43314 0.0663,2.06649 -0.039,0.13863 -0.11468,0.31176 -0.0852,0.19652 -1.67292,1.79206 -0.44146,0.42422 -1.14126,0.74932 -0.55336,0.27055 -0.41977,0.15812 -0.90021,0.2455 -1.0366,0.0896 1.8789,1.09672 0.56785,3.24006 0.35686,0.51886 2.01306,1.32107 1.4007,1.82545 -0.0635,0.31789 -0.1275,0.589 -0.13026,0.46709 0.95698,1.03827 0.0334,0.0273 0.1353,0.12026 0.2032,0.32623 0.14196,0.32177 -0.039,0.19597 -0.13361,0.0985 -0.15367,0.0484 -3.10254,2.62432 1.57382,1.68741 0.17649,0.20541 -0.0501,0.29061 -0.0674,0.24828 -0.0985,0.13195 -0.10578,0.14753 -0.0607,0.21712 -0.003,0.32122 0.68031,0.71093 0.36909,-0.0177 0.5634,-0.004 h 0.26332 l 0.71259,0.30119 0.039,0.02 -0.14587,1.11899 -0.29729,0.12248 -0.0885,0.0373 -0.005,0.25107 0.0112,0.57008 0.0167,0.4448 0.0112,1.18413 0.0167,2.20236 0.002,0.52386 0.35908,1.12734 0.19818,0.35185 0.43869,0.90744 0.40752,0.89908 -0.0573,0.0251 -0.28281,0.1091 -0.23493,0.088 0.12302,0.33403 0.23494,0.61573 0.10577,0.20097 0.75713,1.08782 0.56951,1.12734 -0.87903,1.25148 -1.14071,1.21251 -0.96535,1.63283 -0.88182,2.92776 0.0557,0.16368 0.0919,0.12804 0.0557,0.0762 0.162,0.13418 0.27557,0.1197 0.2494,0.0317 0.32123,-0.0729 0.34851,-0.21376 0.33291,-0.24441 0.36743,-0.29339 2.50018,1.00544 0.21712,0.0924 0.14475,0.10968 0.12971,0.21098 0.0166,0.16368 0.0112,0.13918 0.0278,0.33736 v 0.12138 l 0.0334,0.13082 0.0952,0.15976 0.17981,0.0757 0.23661,-0.005 0.22601,-0.0501 0.70203,-0.27669 0.56896,-0.23493 0.12804,-0.11913 0.23214,-0.42367 0.18928,0.0573 -0.088,0.51886 -0.039,0.12136 -0.16868,0.12637 -0.20041,0.10745 -1.59498,0.4899 -0.1236,0.0278 -0.0868,-0.004 -0.0907,-0.004 -1.66514,0.24553 -3.17547,0.58954 -0.85902,0.24107 -1.03491,0.14418 -0.15755,0.0663 -1.62617,0.69253 0.39415,1.07057 0.10523,0.16255 0.14641,0.0896 0.13194,0.0785 0.0635,0.15811 0.0278,0.18093 -0.002,0.30118 -0.0135,0.21553 -0.2494,0.10782 -0.24713,0.18093 h -0.60013 -0.4413 l -0.12355,-0.19417 -0.12355,-0.1059 h -0.19416 l -0.0353,0.26477 -0.12355,0.053 -0.22945,0.19416 -0.26478,-0.0353 c 0,0 -0.28242,0.0706 -0.33537,0.14122 -0.053,0.0706 -0.26478,0.0883 -0.26478,0.0883 l -0.2118,-0.12357 -0.19418,-0.22946 -0.2118,-0.0706 -0.35303,0.0177 -0.28242,0.053 -0.28243,-0.0706 -0.1412,-0.12358 -0.1765,-0.3177 -0.0353,-0.22948 -0.30008,-0.053 -0.053,-0.24712 -0.28243,-0.0706 -0.35302,-0.12355 -0.31773,-0.0883 -0.2118,-0.21182 c 0,0 -0.0706,0.15885 -0.14123,0.15885 -0.0706,0 -0.2118,-0.0353 -0.2824,-0.0529 -0.0706,-0.0177 -0.26478,-0.1765 -0.26478,-0.1765 l -0.22947,-0.26478 c 0,0 -0.1765,-0.1412 -0.2824,-0.1412 -0.10593,0 -0.22948,-0.26477 -0.22948,-0.26477 l -0.33538,-0.15886 -0.38832,-0.0706 -0.72371,-0.1059 -0.61778,-0.0883 c 0,0 -0.44127,-0.12355 -0.52955,-0.1412 -0.0883,-0.0177 -0.2118,0 -0.2118,0 l -0.33538,-0.10593 -0.2471,-0.12355 -0.17652,-0.1412 h -0.24713 l -0.19415,0.0706 -0.30008,-0.053 -0.19415,-0.053 -0.1059,-0.30006 -0.0177,-0.44128 -0.0706,-0.19417 -0.38833,-0.19415 -0.26475,-0.0883 -0.21182,-0.0706 -0.30008,0.0177 -0.37068,0.12357 -0.1412,-0.0883 -0.1765,-0.21181 -0.17653,-0.26477 h -0.19415 l -0.26477,0.10592 -0.33538,0.0882 -0.12355,-0.0706 -0.14123,-0.15885 -0.2118,-0.053 -0.19417,-0.1059 -0.14121,-0.15888 -0.28242,0.15888 -0.19415,-0.10593 -0.19418,-0.30005 v -0.30008 l -0.0883,-0.26477 -0.26477,-0.17651 -0.15886,-0.15887 -0.24712,-0.053 c 0,0 -0.28241,0.21182 -0.37068,0.24712 -0.0883,0.0353 -0.22945,0.0353 -0.22945,0.0353 l -0.38833,-0.0883 c 0,0 -0.40598,0 -0.47658,0 -0.0706,0 -0.33537,0 -0.33537,0 l -0.19416,-0.21182 h -0.28242 l -0.35303,0.15887 -0.28243,0.0177 -0.1412,-0.15888 -0.31772,-0.15885 -0.33538,-0.0177 -0.30008,-0.12355 -0.63543,-0.12358 -0.24712,0.1059 -0.12355,0.28243 -0.10593,-0.0706 -0.40595,-0.0177 -0.26478,0.12356 -0.30007,0.0883 -0.28243,-0.0883 -0.19415,0.0706 -0.42363,0.12357 -0.19417,-0.31773 -0.0883,-0.31772 c 0,0 -0.053,-0.2118 -0.053,-0.28241 0,-0.0706 -0.24712,-0.10592 -0.31772,-0.12357 -0.0706,-0.0177 -0.31773,-0.1412 -0.31773,-0.1412 l -0.2118,0.19415 c 0,0 -0.15888,0.12358 -0.24713,0.15888 -0.0883,0.0353 -0.1765,0.1412 -0.1765,0.1412 0,0 -0.14122,0.24712 -0.21182,0.24712 -0.0706,0 -0.28243,-0.0177 -0.28243,-0.0177 0,0 -0.1059,-0.14122 -0.12355,-0.21183 -0.0177,-0.0706 -0.1412,-0.26477 -0.1412,-0.26477 h -0.35303 l -0.31773,0.17652 -0.30007,0.22948 c 0,0 -0.17651,0.0353 -0.24711,0.0353 -0.0706,0 -0.51188,0.0353 -0.6531,0.0353 -0.1412,0 -0.22947,0.0177 -0.22947,0.0177 0,0 -0.37066,-0.10592 -0.45893,-0.12357 -0.0883,-0.0177 -0.33536,-0.12355 -0.33536,-0.12355 l -0.26477,-0.28243 -0.22948,-0.0706 -0.44128,-0.0883 -0.24712,0.0177 -0.35303,0.0529 -0.1412,-0.0882 -0.12355,-0.24712 -0.0353,-0.1765 -0.18467,0.049 -0.16226,0.19972 -0.18722,0.0374 -0.34841,-0.0214 -0.22064,-0.0883 -0.32656,-0.12355 -0.26475,-0.0883 -0.28243,-0.11473 -0.13239,-0.15888 -0.0441,-0.22945 -0.0441,-0.34419 -0.0177,-0.25596 -0.0794,-0.16769 -0.19417,-0.2471 -0.1059,-0.19418 -0.12356,-0.29124 -0.0706,-0.44128 -0.0177,-0.45892 -0.009,-0.45893 v -0.48542 c 0,0 -0.0353,-0.28242 -0.0441,-0.31772 -0.009,-0.0353 -0.12357,-0.22946 -0.12357,-0.22946 l -0.13237,-0.19417 -0.14122,-0.009 -0.24711,-0.0265 -0.22064,-0.053 h -0.30007 l -0.15004,0.0265 -0.0706,0.0883 -0.17653,0.0971 -0.13238,0.0883 -0.0265,0.15004 c 0,0 -0.0794,0.15002 -0.0883,0.20297 -0.009,0.053 -0.009,0.14122 -0.009,0.14122 0,0 -0.0971,0.13239 -0.11473,0.1765 -0.0177,0.0441 -0.10591,0.13239 -0.10591,0.13239 0,0 -0.0265,0.14122 -0.0177,0.17652 0.009,0.0353 -0.0441,0.0706 -0.0441,0.0706 0,0 -0.18533,0 -0.23829,0 -0.053,0 -0.0706,-0.0706 -0.0706,-0.0706 l -0.0971,-0.0353 -0.15004,0.0883 -0.18534,0.13236 -0.0794,0.0971 -0.63545,0.0441 -0.33537,-0.0177 -0.42363,-0.009 -0.1059,-0.0265 -0.053,-0.15887 -0.053,-0.14121 0.009,-0.32654 -0.053,-0.16769 -0.0706,-0.19417 -0.20913,-0.10894 -0.19969,-0.12482 -0.11234,-0.17473 -0.11233,-0.16227 -0.025,-0.14976 -0.0874,-0.0749 -0.0749,0.0375 -0.0874,-0.0749 -0.025,-0.17475 -0.11233,-0.0125 -0.0749,0.11234 -0.0374,0.16224 -0.0124,0.16225 -0.12479,0.16227 -0.22467,0.0624 -0.21218,0.0124 -0.24964,-0.0374 -0.12482,-0.0499 c 0,0 -0.17473,-0.21218 -0.24961,-0.26209 -0.0749,-0.0499 -0.14978,-0.1373 -0.14978,-0.1373 l -0.29955,0.0874 -0.0499,0.18722 0.0249,0.26212 0.025,0.33697 v 0.26212 0.32452 l -0.0374,0.21218 -0.0999,0.27458 0.11233,0.21219 c 0,0 0.11233,0.0749 0.16227,0.0999 0.0499,0.025 0.0499,0.12481 0.0499,0.12481 l -0.14976,0.0374 -0.0998,0.0499 c 0,0 0.0624,0.16225 0.0749,0.22467 0.0124,0.0624 0.12482,0.22466 0.12482,0.22466 l 0.0374,0.1997 -0.14976,0.14976 -0.17476,-0.0374 -0.1997,-0.0998 -0.1997,-0.11233 -0.14976,-0.0124 -0.18724,0.025 0.21219,0.11231 -0.1248,0.025 -0.34948,-0.1248 -0.61158,-0.0999 -0.5367,-0.18721 -0.0374,0.21218 -0.0999,0.38691 -0.1997,0.16227 0.11233,0.1997 -0.0999,0.0874 -0.18721,-0.12482 -0.0624,0.28706 -0.0874,0.48679 -0.16227,0.17473 -0.28706,0.0874 -0.2746,0.31203 -0.14977,0.14978 -0.2117,0.2954 -0.52952,-0.35303 -0.38833,-0.28242 -0.35303,-0.0353 -0.2118,0.45893 -0.35303,-0.0706 -0.35303,0.17653 -0.31772,0.35302 -0.1412,0.28241 -0.21183,0.38832 -0.1765,0.10593 -0.0353,0.35302 0.1765,0.10591 0.17653,0.0353 v 0.2118 0.17652 l -0.28243,-0.0353 -0.24713,0.1412 -0.1765,-0.31772 -0.14122,-0.38833 -0.24711,-0.2471 -0.17652,0.0706 -0.0353,0.1412 0.17652,0.35303 0.10591,0.28242 -0.10591,0.0706 -0.35302,-0.24712 -0.28243,-0.0353 -0.21182,-0.0353 -0.28241,0.49425 -0.0353,-0.31773 0.0353,-0.42363 -0.0353,-0.42362 -0.0353,-0.28243 0.21181,-0.17652 c 0,0 0.0706,0 0.21182,0 0.1412,0 0,-0.17651 0,-0.17651 l -0.0706,-0.31772 -0.1059,-0.28243 0.1059,-0.2471 v -0.35303 l 0.0706,-0.24712 -0.0706,-0.17651 -0.35301,-0.14122 -0.0706,-0.3177 0.0706,-0.17653 0.1412,-0.1765 -0.17652,-0.17652 -0.0706,0.21182 -0.1765,-0.14122 -0.0353,-0.31771 -0.35303,0.1059 0.1059,-0.24712 -0.2471,-0.0353 -0.24713,0.24712 -0.1059,-0.17652 0.1765,-0.28241 0.0706,-0.42362 -0.10593,-0.21183 -0.1412,0.21183 -0.45893,0.38832 0.1059,0.24711 0.0353,0.31772 -0.1412,0.0353 -0.28242,0.17653 -0.28243,0.0353 -0.52953,0.1412 h -0.28242 l -0.45893,0.21183 -0.1765,0.1059 0.1765,0.2471 -0.1059,0.21183 -0.0353,0.1765 0.1765,0.56485 0.28242,0.1765 0.24713,0.21183 -0.0706,0.1765 -0.14121,0.17652 -0.0353,0.35303 -0.31772,0.2118 -0.38833,0.14123 -0.2118,0.38832 v 0.35301 l -0.21183,0.24712 -0.31772,-0.0706 -0.31773,0.14121 -0.2118,0.52955 -0.0706,0.3177 h 0.3177 l 0.49425,-0.2471 0.1059,-0.14123 0.17651,-0.2118 0.0353,-0.28243 0.1059,0.0706 0.1059,0.14122 0.24713,0.31773 -0.21183,0.1059 -0.1412,0.2471 0.0353,0.42363 0.1412,0.42365 0.14123,0.2471 -0.14123,0.14122 0.14123,0.21181 0.2824,0.1059 0.38833,-0.2118 0.42362,-0.28243 0.38833,-0.1059 0.38833,-0.28243 h 0.21182 l -0.1059,0.28243 -0.35302,0.2471 v 0.17653 l 0.2471,0.63545 0.0353,0.38833 -0.1412,0.45892 -0.17651,0.49423 -0.14122,0.28243 0.10592,0.2118 -0.21182,0.0353 -0.35303,-0.0706 -0.2471,-0.1765 -0.31773,0.1412 -0.42362,-0.45893 -0.14123,-0.31772 -0.0706,-0.28243 -0.24712,-0.1412 -0.17651,0.28242 h -0.1412 l -0.0706,-0.24712 -0.1765,-0.31773 v -0.31772 h -0.21183 l -0.3177,0.14122 h -0.17653 l -0.31772,0.1059 -0.28241,-0.1059 -0.24712,0.35303 0.1059,0.35302 0.10592,0.35303 -0.0353,0.1765 0.1412,0.42363 -0.17652,-0.0706 -0.1765,-0.24713 -0.21183,-0.1059 -0.2118,-0.38832 -0.31773,-0.10591 -0.42363,-0.17652 h -0.35302 l -0.28243,0.21182 -0.1765,0.35303 0.1765,0.49423 0.0353,0.35303 -0.1765,0.1765 -0.24712,0.17652 0.17652,0.21181 0.1765,0.35302 -0.1059,0.14123 -0.42363,0.2118 -0.42363,0.17652 0.14121,0.45893 0.14122,0.35301 v 0.21182 l -0.28243,0.0353 h -0.28242 l -0.28243,-0.1412 -0.49423,0.2471 -0.42362,0.0706 -0.56483,0.24712 0.49423,0.0706 0.42362,0.0706 0.31773,0.35303 0.0706,0.45893 -0.1059,0.38833 -0.42363,-0.14121 -0.31772,-0.45893 h -0.84726 l -0.42363,-0.1059 -0.38832,0.67073 -0.38833,0.10593 0.56483,0.67073 0.42363,0.42363 0.24712,0.84727 0.1059,0.77666 0.35303,0.67073 0.31773,0.1059 h 0.42362 l 0.0706,0.14122 -0.1765,0.52953 -0.28242,0.28243 -0.0353,0.28242 -0.10593,0.31771 0.0353,0.31773 0.56483,-0.28241 -0.28242,0.49423 h -0.24711 l -0.14122,0.49423 0.0353,0.49423 0.21183,0.42363 0.70605,0.56485 0.70603,-0.17653 1.2003,-0.35302 0.28241,-0.28241 0.0353,-0.42363 0.0706,-0.49425 0.35301,-0.2824 0.38832,-0.24713 0.52956,-0.77665 0.35302,-0.52953 0.31771,-0.14122 -0.1059,0.28242 -0.14121,0.42363 -0.63545,1.02378 0.21183,0.28243 0.38832,0.1765 h 0.35303 l 0.42363,0.31772 0.0353,0.38833 0.31772,-0.0706 0.91786,-0.0353 0.91786,-0.42365 1.69453,-0.70603 0.91786,-0.28243 0.56483,-0.42362 0.67075,-0.63546 0.70605,-0.52953 0.28241,-0.45892 -0.0353,-0.31773 0.24712,0.1765 z m -1.2382,-11.43206 0.12481,-0.11234 0.0874,-0.0124 0.025,0.17473 v 0.14979 l 0.0998,0.0624 0.0375,0.0874 -0.0499,0.0749 v 0.0998 l 0.11234,0.11234 0.0375,0.12482 -0.0998,-0.0499 -0.1373,-0.1248 -0.025,-0.12481 -0.0874,-0.0874 -0.0998,-0.0999 -0.0874,-0.11233 -0.0374,-0.0874 z m -0.43683,-0.77383 0.17473,-0.11233 0.12482,0.0374 0.11233,0.12481 0.0998,0.12482 0.0124,0.28707 -0.0375,0.16226 -0.18721,0.0499 -0.0375,0.0499 -0.0374,0.11234 -0.0749,0.12481 -0.14976,-0.025 -0.11234,-0.1997 -0.0124,-0.18724 v -0.21218 l -0.0499,-0.1248 0.025,-0.0874 0.0874,-0.0874 z m 7.68848,8.17524 0.1997,-0.0874 0.28706,-0.11234 0.2621,0.0874 0.16227,-0.025 0.12481,-0.27458 0.17474,-0.0624 0.36196,0.0374 0.22465,-0.13728 0.31203,0.0124 0.18724,0.0998 c 0,0 0.29955,0 0.34946,0.0124 0.0499,0.0125 0.674,0.025 0.674,0.025 h 0.36195 c 0,0 0.6116,0.0124 0.66151,0 0.0499,-0.0124 0.44934,-0.13728 0.44934,-0.13728 l 0.13728,-0.0749 0.1373,-0.1248 -0.0749,-0.14978 -0.0998,-0.14979 c 0,0 0.0874,-0.0499 0.14976,-0.0499 0.0624,0 0.2746,0.18721 0.2746,0.18721 l 0.0998,0.21219 -0.0499,0.18721 -0.14979,0.0999 0.0999,0.0124 0.21219,-0.0375 0.18721,-0.13728 0.16225,-0.16227 0.17475,-0.13728 -0.0124,-0.1373 c 0,0 0.0998,-0.0874 0.14976,-0.0874 0.0499,0 0.16227,0.11233 0.16227,0.11233 0,0 0.0999,0.0374 0.16225,0.0374 0.0624,0 0.17473,0.0749 0.17473,0.0749 l 0.24964,0.0624 0.14978,0.0624 0.13728,-0.11233 0.11233,-0.24964 0.0499,-0.0874 0.18723,0.0375 h 0.13728 l 0.0999,-0.16227 0.1997,-0.0499 0.18722,0.0374 0.37443,0.0499 0.23715,-0.0375 0.2621,-0.1997 0.2746,-0.24963 0.17473,-0.0874 0.31203,-0.0624 0.22467,-0.025 0.14976,0.025 0.0999,0.13728 0.0249,0.2746 v 0.1373 l 0.21218,-0.025 0.025,-0.21219 0.0124,-0.16226 0.16225,-0.0499 0.0499,-0.14978 0.0124,-0.2621 h 0.0749 l 0.0499,0.0749 0.28707,-0.0124 0.23713,0.0374 0.1997,0.0375 0.16227,0.14977 0.0624,0.36194 -0.0499,0.28709 -0.0874,0.025 -0.0499,0.22464 -0.0499,0.1373 -0.34949,-0.0374 -0.0749,-0.0874 -0.18724,0.0874 -0.16224,0.12482 -0.37444,0.17473 -0.1373,0.1997 -0.23715,0.1373 -0.31203,0.11233 -0.64901,0.0375 -1.08588,0.0374 -1.03595,0.0998 -1.11083,0.0874 -0.83625,0.14977 h -0.4743 l -0.61158,0.1373 -0.67398,0.0999 -0.77385,0.14978 -0.78631,0.11231 -0.42437,-0.0124 -0.2746,-0.0749 -0.38691,-0.0499 -0.28707,-0.16227 -0.21218,-0.18722 -0.16225,-0.11233 z m -4.72203,2.99066 -0.38833,-0.52953 c 0,0 -0.1412,-0.56483 0,-0.63545 0.1412,-0.0706 0.38833,-0.0706 0.38833,-0.21181 0,-0.14122 0.24712,-0.67075 0.24712,-0.67075 0,0 0.17651,-0.0706 0.35303,-0.0706 0.1765,0 0.84725,-0.0353 0.84725,-0.0353 0,0 0.38833,-0.17652 0.52953,-0.21183 0.14121,-0.0353 0.56483,-0.3177 0.70606,-0.2824 0.0706,0.0177 0.19858,-0.004 0.29565,0.0618 0.0971,0.0662 0.16328,0.22063 0.16328,0.22063 l 0.24712,-0.49422 0.35303,-0.45893 0.3177,-0.31773 0.21183,0.21183 -0.1059,0.45892 -0.0353,0.42363 0.0794,0.5825 0.16769,0.51188 0.053,0.57367 -0.1412,0.0794 -0.30889,0.0265 -1.39446,0.78549 -1.18263,0.1412 -1.12085,-0.0441 z"
     id="udine"
     name="Udine"
     />
</svg>
