<svg
   xmlns="http://www.w3.org/2000/svg"
   version="1.1"
   id="lazio"
   viewBox="0 0 592 604"
   aria-label="Map of Lazio - Italy"
   >
  <path
     d="m 220.87366,129.00018 0.26976,-0.81618 h 0.75876 l 0.21684,-0.21678 0.27102,-0.59622 1.24662,-0.27096 0.70458,-0.37944 0.92142,-0.59622 v -1.1382 l 0.3252,-1.24662 0.3252,-1.51764 1.02984,-0.54198 -0.21684,-0.54198 0.054,-1.46346 -0.86724,-1.35498 -0.4878,0.10836 -0.4878,0.43362 h -0.70464 l -0.27096,0.6504 -0.92142,0.43362 -0.813,0.10842 -0.6504,-0.54204 -0.86724,0.054 -0.70458,0.1626 -1.19244,0.70458 -1.1382,0.70464 -1.57182,0.10836 -0.86724,-0.37938 -0.6504,-0.4878 -0.054,-0.92142 0.4878,-0.3252 0.75876,-0.59622 -0.054,-1.89702 v -1.24662 l -0.6504,-0.21678 -0.65046,-0.3252 -0.54198,-0.43362 0.3252,-1.68024 0.37944,-1.89702 0.27096,-0.43362 0.10842,-0.3252 0.70464,-0.054 0.6504,0.27096 0.3252,0.4878 0.813,-0.10836 0.3252,-0.27102 0.37938,-0.43362 -0.27096,-0.86718 -0.1626,-0.813 -0.54204,-0.59622 -1.51758,0.10836 -1.46346,-0.1626 -0.27102,-1.1382 0.32526,-1.68024 v -0.92136 l 0.75876,-0.65046 1.19244,-0.59616 1.19244,-1.19244 0.1626,-0.27102 -0.32526,-0.21678 -1.40922,-0.86724 -0.21678,-0.27096 -2.65584,-1.35504 -1.626,-0.54198 -0.9756,-0.37944 -0.70464,0.3252 -1.35504,0.70464 -0.54198,1.89702 -0.43362,0.813 -0.75876,0.27102 -0.75882,0.59622 -0.4878,0.27096 v 0.21684 l 0.43356,0.27096 v 0.59622 l -0.27102,0.054 -0.70458,0.27102 -0.9756,0.59616 -0.54204,0.70464 -1.89702,0.59622 -0.813,0.27096 -0.4878,-0.27096 -0.59622,-0.75882 -0.43362,-2.05962 -0.54198,-0.21684 -1.35504,-1.3008 -1.02978,-0.43362 -1.1382,-0.54198 -0.81306,-0.3252 -0.3252,0.3252 -0.59622,0.6504 -0.32514,0.10848 -1.13826,1.08396 -2.1138,0.43362 -1.68024,-0.43362 -0.43356,-0.3252 -0.59622,-0.1626 -0.054,-0.43356 -0.59622,-0.37944 v -0.4878 l 0.16266,-0.3252 1.35498,-0.27102 0.75882,0.4878 0.37938,0.43362 0.37944,0.59622 0.43362,-0.4878 0.54198,-1.40922 h 0.27102 V 99.2406 l -1.35504,-0.54198 -0.70464,-1.35504 -0.65034,-0.43362 -1.30086,-1.35498 -0.54198,-0.10842 -0.4878,0.37938 -0.81306,0.59622 -1.51758,-0.1626 -0.27102,-1.02978 0.1626,-1.08402 0.27102,-0.27102 2.05962,-0.54204 0.9756,-0.054 -0.054,-0.3252 -0.43362,-0.21684 -0.3252,-0.59616 -0.75882,-0.37944 -2.33064,-0.21678 -1.1382,-1.19244 -0.6504,-1.73442 -0.21684,-0.054 0.10842,-0.75876 1.57182,-0.21684 0.1626,-0.75882 0.9756,-0.054 v -0.54204 l -0.21684,-0.59616 0.054,-0.86724 0.21678,-1.02978 -0.21678,-0.32526 -0.6504,-1.19238 -0.37944,-1.68024 -1.40922,0.4878 v 0.21684 h -0.43356 l -0.21684,-0.27102 -1.1382,-0.6504 -2.22222,-1.08402 -2.22222,-1.24662 -0.48786,-1.40922 -0.21678,-1.40922 -0.3252,-0.86724 c 0,0 0,0 0.21678,-1.24662 0.21684,-1.24656 0.054,0 0.054,0 l 0.4878,-0.813 0.27102,-0.054 -0.1626,-1.08402 -0.3252,-1.40922 0.70458,-0.054 0.92142,0.70464 0.3252,-0.10842 -0.4878,-0.54198 -0.43362,-0.75882 -0.70458,-1.626 -0.81306,-0.10842 -0.27096,-0.59622 -1.30086,-0.3252 -0.27096,-0.70458 0.10836,-0.92142 0.27102,-0.81306 0.54204,-1.1382 0.75876,-0.21678 0.43362,-0.86724 0.59622,-0.6504 0.054,-0.75882 -0.16266,-0.37938 -1.89702,-0.59622 -0.92142,-0.54198 -0.92136,-0.10842 -0.10842,-0.3252 0.54198,-0.54204 -0.21678,-0.70458 -0.54198,-1.1382 -0.48786,-0.70464 -1.3008,-1.08402 -1.02978,-0.59622 -0.75882,-0.813 -1.08402,-1.08402 -1.24662,-1.1382 -2.38482,-1.24662 -2.22228,-1.02978 -1.35498,-0.70464 -1.08402,-0.59622 -0.92142,-0.3252 -0.70458,0.3252 -0.81306,0.70464 -1.19238,1.02978 -0.54204,1.02984 -0.3252,0.3252 0.43362,0.43362 0.21678,0.27096 -0.1626,0.43362 -0.75882,1.08402 -0.9756,0.3252 -0.27096,0.70464 -0.27102,-0.10842 -0.1626,-0.9756 -1.3008,-0.54204 -0.21684,-0.21678 -0.21678,0.27102 -0.4878,1.1382 -0.59622,1.9512 -0.86724,0.1626 -0.9756,-0.27096 -0.75882,-0.59622 -0.4878,-1.19244 -0.54198,-0.75882 -0.43362,-0.9756 -0.37944,-0.37938 -0.37938,0.1626 -1.08402,0.6504 -0.59622,1.89702 -2.1138,0.54204 -2.16804,-0.59622 -0.37938,-0.43362 -0.65046,0.4878 -0.75876,0.92142 -0.4878,0.3252 -2.33064,0.37938 -3.08946,0.70464 -1.19244,0.59622 -0.37938,0.59622 -0.70464,1.08396 -0.4878,-0.10836 0.48786,-0.86724 -0.37944,-1.51758 -1.35498,-0.32526 -0.65046,-0.70458 -1.08402,-0.54198 -1.19238,-1.24662 -1.19244,-1.13826 -1.7886,-0.59616 -1.1382,-0.54204 -0.70464,-0.59622 -1.08402,-0.59622 -2.38482,-1.19238 -3.41466,-0.59622 -2.9268,-0.59622 -1.51764,-0.43356 -0.054,-0.43362 0.37944,-0.9756 0.6504,-1.30086 0.43362,-0.27102 0.3252,-0.59616 -0.3252,-0.70464 -3.57726,-1.1382 -1.08402,-0.54198 -0.37938,-0.48786 0.1626,-0.6504 0.75876,-1.1382 0.32526,-1.02984 0.92142,-0.92136 1.1382,-0.43362 0.75882,-0.59622 0.3252,-1.9512 2.00544,-0.54204 1.02978,-0.43362 0.70464,-0.6504 1.1382,-0.4878 0.4878,-2.60166 0.6504,-1.84278 0.70464,-0.92142 0.92136,-0.54204 0.43362,-0.21678 v -0.27102 l -0.3252,-0.3252 -0.27096,-1.24662 -0.37944,-0.92142 -0.43362,-0.86718 -1.24662,-0.54204 h -2.00538 l -0.054,-0.59616 -0.4878,-0.10842 -0.3252,-1.08402 -1.35504,-0.4878 -1.51764,-0.10842 -1.89702,-0.43356 -1.84278,-0.21684 -0.27102,-0.59622 -0.75882,-0.43362 L 101.30584,14.58 100.81804,12.68298 100.27606,9.86454 99.57142,8.72634 98.4874,8.0217 97.9996,6.3957 97.29502,4.01088 96.64456,2.81844 96.3736,1.95126 95.61478,1.68024 94.69336,1.19244 93.88036,1.40922 93.12154,1.08402 92.03752,0.65046 90.89932,1.02984 88.6771,1.57182 86.67166,1.30086 86.23804,0.54204 85.85866,0 84.44944,0.10842 84.07,1.19244 83.47378,1.35504 83.257,2.16804 82.01038,2.71002 80.87218,3.9567 77.83696,4.66128 77.24074,4.98648 76.6987,8.72634 76.48192,11.11116 76.2109,13.38762 75.5605,13.6044 75.12688,13.4418 74.53066,11.8158 73.9345,11.05698 73.2841,9.86454 71.98324,8.78052 71.60386,7.6965 70.95346,6.99192 69.70684,6.3957 68.46022,6.0705 67.3762,6.34152 66.61738,8.0217 l -1.1382,1.30086 -0.6504,0.37938 -0.32526,0.92142 -0.75876,1.08402 -0.43362,2.92686 -0.4878,1.626 -0.3252,0.37944 0.6504,0.75876 2.439,0.54204 0.75882,0.813 0.9756,1.19244 0.70464,1.08396 0.59622,0.54204 0.9756,2.439 0.6504,0.70464 0.59622,0.3252 4.01082,0.75882 1.42998,0.38034 0.63252,0.75906 0.4428,0.18978 0.37956,0.56928 0.0632,0.63258 1.13862,0.12648 -0.69582,0.4428 -0.12654,0.25302 -0.18972,0.56928 -1.20186,2.5302 -0.63258,3.47904 -0.50604,2.90976 -0.56928,1.39164 -1.89768,0.18972 -2.21388,0.31632 -0.18978,0.69576 0.0633,0.37956 0.69576,1.58136 0.56934,1.83444 0.18972,0.8223 -0.18972,0.31626 -0.37956,2.40372 0.18978,2.5302 1.32834,0.4428 3.09948,0.56928 0.44274,1.2651 0.63258,0.50604 0.31626,1.01208 -0.31626,1.89768 -0.69582,1.45488 -0.50604,0.75906 -0.3795,0.18978 -1.01208,0.31626 v 0.69582 l -0.4428,0.0632 -0.50604,0.3795 -1.20186,0.56934 -0.56928,0.63252 -0.25302,0.56928 h -0.37956 l -0.75906,-0.18972 -2.78322,-0.56934 -2.40372,-0.75906 -0.8223,-0.18972 0.12648,1.51812 c 0,0 0.18978,1.13856 0.18978,1.77114 0,0.63252 0.12654,0.4428 0.12654,0.4428 l 0.0632,0.69576 v 0.4428 l -0.75906,1.20186 -1.32834,1.2651 -1.32834,1.32834 -0.18978,1.51812 -1.45488,0.25302 -0.0632,-0.3795 -0.37956,-0.12654 -0.25302,-0.56928 -0.12654,-0.63252 -0.88554,-0.0633 -1.20186,0.37956 -0.94884,0.69582 -1.2651,1.2651 -0.56928,1.01208 -2.21394,0.56928 -1.13856,0.69582 -1.51812,0.63252 -0.12654,0.31632 0.50604,0.8223 0.56928,0.69582 v 0.94878 l -0.25302,0.69582 -0.50604,0.94884 -0.75906,0.18978 -0.63252,0.69582 -0.94884,0.63252 -3.09954,0.18978 -0.50604,1.2651 -1.07532,0.8223 -0.63252,0.37956 -1.07538,0.69582 -0.63252,0.25302 h -0.8856 l -0.56928,-0.8856 -0.94884,-0.25302 -1.20186,0.37956 -0.56928,1.2018 -0.63258,1.01208 -0.31626,0.25302 -0.25302,-0.31626 -1.32834,-0.4428 -0.4428,-1.07532 -0.56928,-0.69582 -1.77114,-0.69576 -0.63258,-0.25302 -1.13856,0.25302 -1.26516,0.69576 -0.50604,0.56934 -0.12648,0.8223 0.12648,0.31626 0.31632,1.83444 0.50604,1.77114 v 1.58136 l -0.12654,1.07532 -0.88554,0.8856 -1.07538,1.01208 -0.56928,0.50604 -0.63252,1.58136 -0.31632,0.8856 -0.8223,1.83438 -0.12654,0.69582 0.18978,0.88554 1.2651,1.51812 0.31626,0.18978 0.4428,-0.12654 V 100.568 l 0.69582,-0.0633 0.94884,0.31626 1.01208,0.69582 0.50604,0.94884 0.31626,0.12648 0.56934,1.39164 v 0 l 1.07532,1.13856 0.88554,0.0633 1.51818,0.4428 0.31626,0.31626 1.13856,0.18978 v 0.37956 h 0.37956 l 0.56928,0.44274 0.63258,0.63258 0.0632,0.69582 v 1.32834 l 0.37956,0.75906 0.25296,1.32834 -0.31626,0.94884 -0.69582,1.7079 -0.25302,1.32834 0.50604,1.2651 0.18978,2.90976 0.50604,0.31626 0.12654,1.07538 -0.12654,1.58136 h -1.07532 l -0.94884,0.12654 -1.20186,0.31626 -0.56928,0.31626 -0.8856,-0.12654 -0.44274,-0.31626 -0.31632,-0.25302 -1.13856,0.12654 -1.20186,-0.12654 -1.01208,0.12654 h -1.58136 l -2.78328,-0.0633 -1.32834,-0.25302 -1.20186,-0.25302 -0.12648,-0.56928 h -0.4428 l -0.63258,0.0632 -2.21388,1.3284 -1.7079,0.75906 -1.01208,0.56928 -0.25302,0.31626 -0.56934,-0.3795 -1.58136,-0.4428 -1.13856,-0.8223 -2.34048,-0.31626 -1.2651,0.3795 -1.20186,1.07532 -0.31626,1.58142 -0.0632,1.45482 0.50604,0.63258 v 0.56928 l -0.18978,0.56934 -0.56928,1.13856 -0.37956,0.8856 -0.31626,0.0632 -0.56928,0.75912 -1.07538,0.63252 -0.63252,0.50604 -1.13862,0.75906 -0.75906,0.4428 -0.3795,0.75906 -0.50604,1.13862 -0.18978,1.77114 1.01208,0.25302 -0.31626,0.88554 -0.25302,1.58142 L 0,141.30432 l 0.0632,0.3795 1.45488,0.31626 1.2651,0.8856 2.1507,1.01208 1.83438,0.4428 2.46696,1.2651 2.27718,1.20186 1.83444,0.63252 1.01202,0.63258 2.27724,0.94878 2.5302,1.20186 2.27718,1.2651 2.59344,1.39164 0.4428,0.50604 0.94884,0.37956 1.39164,1.2018 2.40366,1.20186 1.83444,1.83444 0.88554,0.50604 0.8223,0.75906 0.50604,1.01208 2.34048,1.2651 2.27718,1.20186 0.75906,0.50604 1.20186,0.69576 0.56928,0.69582 1.13856,0.31626 1.01214,1.20186 1.2018,1.07538 0.63258,1.32834 1.32834,0.69582 0.63258,1.32834 0.3795,0.3795 1.2651,1.20186 1.13862,1.20186 0.69582,1.58136 1.20186,1.3284 0.31626,1.07532 1.39158,2.46696 0.18978,0.69582 0.8856,0.4428 0.69582,0.25302 0.44274,0.94878 1.3284,0.69582 1.13856,2.1507 1.07532,2.21394 0.63258,0.63252 0.4428,2.46696 1.2651,3.35256 1.2651,2.5302 1.07532,1.20186 0.56928,1.2018 0.63258,0.50604 0.50604,1.13862 1.20186,1.39164 0.69582,0.8223 v 0.8223 l -0.8856,0.8223 0.006,1.84632 0.9558,-0.43338 1.52556,-0.76278 4.74618,-0.25428 4.15284,0.42378 3.05112,0.5085 0.25428,0.25428 0.42372,0.42378 0.25428,0.5085 0.59328,0.0847 1.52556,0.84756 0.8475,0.339 0.678,0.76278 0.42378,0.0848 0.76278,-0.42378 0.5085,-0.42378 0.59328,-0.8475 c 0,0 0,-0.50856 0,-0.84756 0,-0.339 0,-0.8475 0,-0.8475 l -0.5085,-0.93228 -0.1695,-1.27128 0.25422,-1.18656 1.10178,-1.01706 0.33906,-0.339 1.52556,-0.76278 1.10178,-1.52556 0.25422,-1.77978 0.93228,-0.5085 1.10178,-0.93228 1.18656,-1.18656 1.27128,-0.59328 0.25428,-0.339 -0.42378,-0.339 -0.5085,-1.18656 -0.25428,-0.76278 0.0848,-0.8475 1.61028,-1.27128 0.25428,-0.84756 -0.59328,-0.5085 -0.0848,-0.8475 v -0.33906 l 0.33906,-0.0847 0.5085,0.678 1.017,-1.44078 0.42378,-0.84756 c 0,0 -0.59328,1.10178 -0.59328,-0.0847 0,-1.18656 0,-1.10178 0,-1.10178 l 1.61034,0.0847 0.93228,0.0848 1.017,-0.1695 -0.0847,-0.59328 -0.59328,-0.339 -0.5085,-0.42378 v -0.0847 l 0.25422,-0.16956 c 0,0 0.1695,0.0848 0.59328,-0.25422 0.42378,-0.33906 0.42378,-0.33906 0.42378,-0.33906 l 0.93228,-0.25422 1.61028,-0.25428 c 0,0 0.1695,-0.93228 0.678,-0.42372 0.50856,0.5085 0.50856,0.5085 0.50856,0.5085 l 0.339,0.76278 c 0,0 -0.5085,-0.5085 -0.5085,-0.0848 0,0.42378 -0.25428,0.25428 0,0.59328 0.25422,0.339 0.25422,0.42378 0.25422,0.42378 0,0 0.76278,-0.76278 1.44084,0.42372 0.678,1.18656 0.678,1.18656 0.678,1.18656 l 0.59328,0.59328 1.1865,0.59328 0.42378,0.5085 0.67806,0.1695 0.76272,0.67806 0.42378,-0.33906 1.27128,0.0848 0.93228,0.76278 0.25428,0.678 0.8475,0.339 0.84756,0.42378 1.94928,0.1695 0.075,0.4371 0.3873,-0.38724 0.3873,-0.82992 0.6639,0.16596 0.77454,1.49382 0.55326,1.7151 1.0512,2.04702 1.27248,2.21304 0.60858,1.9917 1.43844,2.54496 0.49794,1.60446 0.3873,1.82574 0.44262,0.82992 1.38312,0.16596 2.15766,0.6639 1.32786,0.3873 2.26836,0.22128 0.6639,0.44262 0.55326,-0.27666 3.15354,-0.55326 0.60858,-0.71922 0.22128,-2.48964 1.99176,-0.16596 2.10234,0.22128 2.04708,0.44262 2.98758,-0.55326 1.27248,-0.2766 0.99582,0.44256 2.93226,0.3873 1.21716,0.82986 1.16184,1.10652 0.3873,0.82992 0.49794,1.54908 0.2766,-0.49794 0.60858,-0.77454 0.55326,-1.16184 0.49794,-0.44262 0.77454,-1.3278 0.99588,-0.33192 0.60858,-0.27666 0.49794,-0.55326 0.82986,-0.6639 0.44262,-0.33192 0.77454,-1.32786 0.3873,-1.6044 0.55326,-0.33198 0.33192,-0.44262 1.99176,-0.11064 3.59616,-0.2766 0.77454,-0.60858 0.3873,-0.55326 0.6639,-0.7746 1.27248,-0.71922 0.77454,-0.11064 0.49794,0.2766 2.04708,1.10652 0.6639,0.6639 1.21716,0.66396 2.04702,0.33192 2.04702,-0.2766 1.21716,-0.60858 1.65978,-0.71928 0.71928,-0.44256 0.38724,0.16596 0.11064,0.77454 0.49794,1.3278 0.11064,0.66396 1.32786,0.11064 0.6639,-0.27666 1.49376,-0.0552 1.16184,1.21716 0.71922,1.21716 1.10652,1.3278 0.6639,0.16596 0.1107,0.22134 -0.49794,0.2766 0.11064,1.77042 0.60858,0.44262 0.44262,0.9405 0.44256,-0.99582 0.99588,-0.11064 0.60858,0.16596 1.27248,0.60858 0.27666,0.6639 0.49788,0.16596 0.22134,-0.16596 0.77454,-0.82986 1.3278,-0.55332 1.0512,-0.49788 0.82992,-0.27666 0.16596,-2.15766 0.77454,-1.27248 0.33198,-0.27666 1.16184,-0.77454 1.3278,-0.498 1.16184,-1.3278 0.6639,-1.16184 0.60858,-1.77042 0.16596,-1.43844 -0.2766,-0.88518 -0.55326,-2.87694 -0.33198,-2.1024 -0.44262,-0.22128 0.0552,-0.7746 0.55326,-0.6639 1.65978,-0.22128 1.49376,-1.27248 c 0,0 -0.0552,-0.44262 0.55326,-1.16184 0.60858,-0.71922 -0.0552,0.82986 0.60858,-0.71922 0.66396,-1.54914 0.16602,-0.3873 0.66396,-1.60446 0.49788,-1.21716 0.49788,-1.21716 0.49788,-1.21716 l 0.49794,-0.22128 0.33198,-0.0552 0.0552,0.99588 0.94056,0.22128 0.71922,-0.0552 0.22128,-1.43844 0.3873,-0.77454 -0.11064,-1.65978 -0.6639,-1.27248 -0.60858,-0.60858 -0.16602,-0.3873 v -0.60858 l 0.71922,-0.60858 0.22134,-1.16184 0.22128,-0.22128 0.3873,0.99582 0.44262,1.65978 0.49794,1.49382 0.6639,2.48964 0.33192,2.54496 0.11064,1.65978 -0.44256,2.98758 -0.33198,2.04702 -0.38724,3.09828 -0.3873,1.3278 0.0552,1.9917 0.49794,0.82986 0.94056,0.22134 0.88518,-0.27666 1.21716,-0.60858 0.33198,-0.38724 0.60858,-1.38318 0.2766,-1.9917 0.27666,-1.93638 1.16184,-0.7746 1.27248,-0.0552 1.54914,-0.0552 0.33192,0.44262 h 0.55332 l 0.49794,-0.88518 0.55326,-1.49382 0.71922,-1.54908 c 0,0 0.0552,0.2766 0,0 -0.0552,-0.27666 -0.22128,-1.88112 -0.22128,-1.88112 l 0.82986,-1.77042 0.38736,-1.60452 0.99588,-0.16596 0.33198,-0.27666 0.5532,-0.11064 0.11064,-1.21716 -0.44256,-0.49794 c 0,0 -0.33198,-0.11064 0.3873,-0.33198 0.71922,-0.22128 0.71922,-0.22128 0.71922,-0.22128 v -0.33198 l -0.82992,-0.71922 -0.6639,-0.88518 c 0,0 -0.22128,0 -0.11064,-0.55326 0.11064,-0.55326 0.11064,-0.55326 0.11064,-0.55326 v 0 l 0.6639,-1.27248 0.55326,-0.77454 0.60858,-2.60034 c 0.16146,-0.68988 0.44262,-0.55326 0.44262,-0.55326 l 1.21716,-0.44262 1.88106,-0.99582 0.55326,-0.3873 0.55326,-0.16596 -0.22128,-0.3873 c 0,0 -0.71928,0.27666 -0.49794,-0.44262 l 0.22128,-0.71922 c 0.50676,-1.64688 1.27248,-1.16184 1.27248,-1.16184 l 0.49794,-1.21716 c 0,0 0.27666,-1.49376 0.60858,-1.65978 0.33198,-0.16596 0.30696,-0.51822 0.30696,-0.51822 l -0.20418,-0.35724 -0.61242,-0.25518 -0.30624,-0.30624 -1.07178,-0.20418 -1.02072,0.20418 -0.61248,0.51036 -0.66348,0.25518 -1.07178,0.20418 -0.56142,-0.25518 -0.76554,-0.20418 -0.30624,-0.8676 -0.4083,-0.3573 -0.35724,-0.91866 -0.51036,-0.56142 -1.42908,-2.4498 -0.20412,-0.66348 0.30618,-0.30618 1.37802,-0.45936 1.32696,0.051 v -0.56142 l -0.4593,-0.86766 -0.76554,-0.25518 -0.81666,-0.10206 -0.4593,-0.4083 -0.4083,-0.10206 -1.12284,-0.10206 -0.15306,-0.3573 -0.51042,-0.56142 -0.20412,-0.4593 -0.8166,-1.12284 -0.15312,-2.14356 0.15312,-1.32696 1.2759,-0.66348 0.7656,-0.76554 0.4083,-1.07178 -0.25518,-0.8166 -0.3573,-0.051 -0.61242,0.25518 -1.07178,0.66348 -0.4083,0.15312 -0.30624,-0.10206 -1.07178,-0.66348 -0.8676,-0.3573 -0.10212,-1.17384 0.25518,-1.17384 h 0.30624 l 0.051,-1.1739 -0.30624,-0.76554 -0.4083,-2.14356 -0.8676,-0.25518 -1.78632,-0.66348 -0.96972,-0.51036 -0.25518,-1.12284 0.35724,-0.61248 0.71454,-0.71448 0.30624,-0.71454 h -1.0347 z m 6.23754,-0.7653 0.6447,-0.80964 0.92142,-0.9756 0.75876,-0.37944 1.08402,-0.21678 0.37944,0.59622 0.4878,0.3252 0.4293,0.93228 -0.36468,0.78588 -0.61242,1.17384 -1.12284,0.61248 -0.76554,0.76554 -0.45936,-0.10206 -0.76554,-0.71454 -0.3573,-0.45936 -0.15306,-0.66348 z"
     id="viterbo"
     name="Viterbo"
     />
  <path
     d="m 357.06718,207.62856 -0.28056,-0.52446 -0.14634,-1.07334 0.12192,-0.68304 0.5367,0.41472 0.3171,0.26832 0.68304,0.19518 0.41472,0.3171 0.7074,-0.3171 1.21968,-0.58548 1.73202,-0.60984 1.73196,-0.65868 0.75618,-0.46344 0.41472,-1.2441 1.26846,-1.07334 0.5367,-1.90272 1.53678,-0.4635 0.24396,-0.75618 0.51228,-2.73216 0.75618,-1.90272 0.24396,-1.41486 -0.36588,-1.53678 -1.14654,-1.12212 -0.34152,-0.4635 v -0.87816 l 0.4635,-0.17076 h 1.5612 2.12226 l 2.8053,-0.12198 1.00014,-0.14634 0.29274,-0.24396 0.41472,0.21954 0.63426,0.63426 1.14648,0.60984 0.58548,0.56106 1.07334,1.12212 1.14648,0.56106 0.63426,0.73182 1.0977,0.46344 1.29288,0.65868 1.29288,0.29274 1.02456,0.3171 0.63426,1.12212 0.95136,0.17076 0.19512,-0.17076 0.80502,-0.48786 0.36594,-0.78066 0.36588,-0.6342 0.65862,-0.19518 h 1.5612 l 0.97578,0.3903 0.3903,0.8538 0.34152,0.0732 0.0246,0.34152 c 0,0 0.3171,0.21954 0.63426,0.2439 0.31704,0.0246 0.36588,0.75624 0.36588,0.75624 l 1.80516,0.60984 1.78074,0.24396 0.34152,0.6342 0.68304,0.36594 1.29288,0.53664 0.65862,0.6099 0.43908,1.07328 0.31716,0.80502 0.3903,0.17076 0.26832,0.43908 1.68318,0.19518 0.65862,0.4635 0.1464,-0.4635 0.73182,-0.1464 0.56106,-0.26832 0.43908,-1.07334 1.26846,-0.6342 0.4635,-0.7806 1.68318,-0.2196 1.34166,0.31716 1.26852,0.26832 1.07334,-0.19518 2.39058,-0.56106 1.41486,-0.36588 0.34152,-2.58576 0.87816,-0.51228 0.29274,-0.7074 0.63426,-0.5367 1.65876,-0.2439 0.87816,-0.0976 0.0246,-0.41466 -0.19512,-0.48792 -0.63426,-1.12212 -0.29274,-0.7074 0.26832,-0.48786 1.12212,-0.58548 1.2441,-0.19512 h 1.12212 l 0.65862,0.26832 0.36594,0.17076 0.3171,-0.21954 0.97578,-0.26832 0.80502,-0.43914 0.3903,-0.21954 -0.58548,-0.26832 -0.48786,-0.43908 -0.65868,-0.70746 -0.53664,-0.7074 -1.00014,-0.63426 0.0246,-0.21954 0.82938,0.0246 0.41472,0.41472 0.58542,0.1707 0.927,0.0246 0.53664,-0.26832 0.63426,-0.56106 1.12212,-0.60984 1.73196,-0.14634 1.14654,-0.0246 0.51222,-0.1464 -0.53664,-0.34146 -0.29274,-0.8538 -0.36588,-0.51228 -0.0486,-0.5367 -1.39044,-0.34152 -1.7076,-0.43908 -2.6589,-0.19512 -1.02456,-1.1709 -0.68304,-0.65868 -1.14648,-0.51228 -0.51228,-0.60984 -0.58548,-1.12212 -0.29274,-1.26846 0.24396,-0.56106 0.65862,-0.68304 0.73182,-0.56106 -0.0976,-0.43908 -0.75624,-1.21974 -1.8783,-0.43908 -0.19518,-0.34152 -0.80496,-0.3903 -0.29274,-0.8538 -2.82972,-0.26832 -2.78088,-0.0486 -1.80516,-0.58548 -1.21968,-0.63426 -1.07334,-1.0977 -1.21974,-1.1709 -0.51222,-1.75638 -0.3903,-1.41486 -0.90264,-0.41466 -1.07328,-1.26852 -1.17096,-1.12212 -2.3418,-1.21968 -2.46378,-1.07334 -0.51228,-1.14654 -0.58542,-1.1709 -0.36594,-1.29288 -0.36588,-0.3171 -0.48792,-1.39044 -0.17076,-1.92714 -0.12192,-2.415 -0.26838,-2.14668 -0.36588,-1.97592 -1.36608,-0.3171 -0.63426,-0.63426 -1.1709,-0.56106 -0.60984,-0.60984 -0.68304,-0.26832 -0.53664,-0.90258 -3.04926,-0.3171 -0.3171,-0.80502 -0.82944,-0.34152 -0.21948,-0.43908 -0.39036,-0.17076 -0.41466,-0.80502 -1.1709,-1.29288 -1.14654,-1.0245 -1.29288,-0.58548 -1.14648,-0.68304 -1.07334,-0.41466 -0.95142,-0.36594 0.56106,-0.3903 0.2196,-0.3903 0.6342,-1.36608 1.3173,-1.12212 1.07334,-1.19526 1.21968,-1.21974 1.19532,-0.51228 0.58542,-0.7074 0.58548,-0.73182 0.60984,-1.00014 0.5367,-1.12212 0.17076,-0.21954 v -0.68304 l -0.41472,-0.21954 -0.3903,-0.73182 -0.4635,-2.24424 -2.39058,-1.26852 -2.26866,-0.56106 -1.12212,-0.51222 -0.7806,-0.43914 -0.48786,-0.8538 -0.82944,-0.29268 -0.3171,-0.80502 -1.29288,-1.07334 -0.53664,-1.31724 -1.19532,-1.19532 -1.19532,-1.1709 -1.17084,-1.07322 -1.19532,-0.56106 -1.14654,-0.60984 -1.12212,-0.4635 0.8538,-0.19518 0.26832,-1.0977 0.60984,-1.3173 1.26852,-1.14648 1.0977,-1.21974 1.1709,-0.53664 3.53712,-0.58548 1.2441,-1.12212 0.51228,-1.1709 0.58548,-0.6342 1.19532,-1.2441 1.00014,-0.97578 0.58542,-0.4635 -0.73182,-0.0246 -0.85374,-0.19518 -0.39036,-2.07348 0.34152,-1.39044 0.34152,-1.75638 0.31716,-1.85394 0.2439,-1.1709 v -1.29288 l -0.82938,-0.43908 -2.51256,-0.68304 -0.4635,-1.02456 -0.63426,-1.19532 -0.60984,-0.6342 -0.34152,-0.97578 -0.0486,-2.14668 0.43908,-0.68304 1.21968,-0.3171 0.8538,-0.51228 0.24396,-0.7074 0.7074,-1.14654 0.4635,-1.04892 0.21954,-0.41472 -0.19518,-0.85374 -0.4635,-1.7808 0.19518,-1.97592 0.92694,-0.34146 c 0,0 1.07334,-1.09776 1.19532,-1.2441 0.12198,-0.1464 1.07334,-1.19532 1.07334,-1.19532 l 0.26832,-2.61018 0.36594,-0.48786 2.04906,-0.0732 0.8538,0.24396 1.21968,0.68304 0.41472,0.12198 1.14654,-0.0246 0.7806,-0.19518 0.3903,-0.21954 0.75618,0.21954 0.68304,0.58548 0.48786,1.2441 1.14654,0.56106 0.95136,0.24396 1.36608,-0.2196 0.63426,-0.58542 0.46344,-1.75638 h 0.3903 l 0.19518,-0.34152 0.8538,-0.0486 h 1.0977 l 1.04892,-0.19518 1.19532,-0.48786 2.00034,0.0731 0.48786,0.87822 0.60984,1.1709 0.48786,1.29288 0.41472,0.8538 0.65862,0.0731 0.4635,-0.36588 0.41472,-0.3903 0.46344,-0.24396 1.61004,-0.51228 1.8051,-0.53664 0.75624,-0.4635 0.41472,-0.82938 1.8783,-0.3171 1.0977,0.41466 0.65868,0.58548 1.19532,0.21954 1.0977,-0.24396 1.82958,-0.60984 1.31724,-0.48786 0.3171,-0.29274 2.34186,-0.34152 1.82952,-0.63426 0.24396,-0.34152 -0.63426,-0.48786 0.12198,-0.36588 1.02456,-0.0976 0.48786,-0.46344 0.63426,-0.60984 -0.0767,-0.71298 -0.55194,-1.00044 -0.3795,-1.20744 0.48294,-1.20744 0.5865,-3.62232 0.2415,-1.89738 0.86244,-0.3105 0.55194,-1.27638 0.621,-0.552 0.5175,-1.69044 0.27594,-0.93144 -0.27594,-1.75938 -1.72494,-0.207 -2.58738,-0.68994 -0.82794,-0.552 -1.20744,-0.345 -1.69044,0.2415 -0.34494,0.58644 -0.2415,-0.31044 -0.276,-0.759 -0.345,-0.48294 -1.34544,-1.34544 -0.58644,-1.20744 -0.276,-0.65544 -0.48294,-0.3795 -0.4485,-0.6555 -1.17294,-0.58644 -0.276,-1.58694 0.2415,-0.72444 0.75894,-2.34588 0.69,-1.17294 0.207,-1.37994 -0.1725,-0.68994 -0.82794,-0.1725 -0.3105,-0.345 -0.70764,-0.33936 -0.97572,-0.48786 -0.1464,-0.34152 -1.26846,-0.3903 -1.21974,-1.1709 -1.31724,-1.21974 -0.19512,-1.46358 -0.58548,-0.0976 -0.3903,-0.7806 -1.1709,-1.21968 -1.1709,-0.48786 -0.29274,-0.39036 -0.48792,-0.19512 -0.2439,-0.3903 -0.73182,-0.0486 -2.34186,-0.0486 -0.73176,-0.5367 -0.34152,-0.73182 -0.82944,-0.7806 v -1.21968 l -0.6342,-0.1464 -0.97578,0.24396 -1.51242,0.3903 -2.00028,0.29274 -0.68304,1.07334 -0.5367,2.39058 c 0,0 -0.53664,1.61004 -0.53664,1.80516 0,0.19518 -0.1464,0.5367 -0.1464,0.5367 l -0.2439,-0.1464 -0.29274,-0.48786 -1.85394,-0.48786 -4.00062,-0.63426 -2.78088,-0.58548 -1.75638,-0.48786 -0.63426,-0.68304 -0.58542,-0.3903 -1.80516,0.24396 -0.58542,0.58542 -0.43908,1.21974 0.13554,2.50296 0.37944,0.5865 0.1725,3.10482 -0.34494,0.2415 -0.5175,0.75894 -1.24194,2.41488 -0.414,1.69044 -0.72444,1.31094 0.069,0.345 0.13794,0.93144 0.759,0.207 v 1.62138 l -0.3105,0.828 -0.207,1.27644 -0.34494,1.58688 -1.24194,1.31094 -1.242,1.27644 -0.44844,1.13844 -0.5175,0.552 -1.31088,0.55194 -0.5865,0.552 -0.3105,0.96594 -0.41394,-0.58644 -0.345,-0.207 -1.31094,-1.37994 -0.483,-1.10394 -0.68994,-0.552 -0.58644,-0.345 -1.0005,0.207 -1.34544,0.414 -0.27594,1.31094 -0.1725,1.27644 -0.72444,1.10394 -1.20744,1.20744 -0.345,0.89694 -0.75894,0.3105 -0.7245,0.31044 -0.65544,0.621 -1.65594,0.069 -0.3105,0.55194 -0.86244,0.3795 -1.13844,0.44844 -0.2415,0.69 -0.93144,0.44844 -1.03494,1.13844 -0.93144,0.345 -2.41488,0.0348 -0.207,-0.4485 -1.24194,-0.44844 -2.51838,-0.414 -0.1035,-0.93144 -0.51744,-0.552 -0.483,-1.55238 -0.51744,-0.3795 -0.7935,-0.069 -0.41394,1.00044 -1.1385,1.0695 -0.55194,1.10394 -0.276,0.75894 0.2415,0.5175 0.3105,0.82794 -0.345,1.00044 -0.414,0.75894 -0.79344,0.3795 -1.69044,0.3105 -2.44932,0.138 -3.44982,-0.5175 -1.48344,-0.276 h -2.13888 l -2.93238,0.345 -1.20744,0.75894 -0.55194,0.96594 -0.483,1.69044 -0.5865,1.37994 -0.34494,0.138 -0.3105,-0.138 -1.13844,-0.621 -1.06944,-0.41394 -0.414,-1.03494 -0.82794,-0.345 -2.27688,-0.552 -0.72444,-0.62094 -0.69,-0.5175 -1.34544,0.138 0.414,0.3105 0.1035,0.4485 -0.2415,0.27594 -1.13844,0.552 -1.13844,0.552 -0.2415,0.24144 0.207,0.3795 0.276,0.55194 -0.2415,0.621 -0.207,0.75894 0.2415,0.93144 0.5865,0.69 0.62094,1.10394 0.44844,1.72488 0.7245,0.69 0.58644,1.20744 0.4485,1.69038 0.138,0.966 -0.62094,2.17338 -1.13844,0.37944 -1.31094,0.3105 -0.345,0.552 -2.03538,0.31044 -2.27694,1.17294 -2.20788,1.06944 -0.68994,1.27644 -1.20744,1.13844 -1.48344,1.34544 -2.06988,1.17294 -0.55194,0.552 -0.414,0.828 -0.276,-0.483 -0.68994,-0.276 h -1.31094 l -1.44894,0.276 -2.62188,0.75894 -0.62094,0.207 -0.69,-0.41394 -1.17294,0.75894 -0.89694,0.414 -0.345,5.4852 -1.34538,0.207 -2.72538,0.44844 -1.34544,0.552 -2.00088,0.207 -2.62188,0.37944 -1.13844,1.10394 -1.03494,0.5865 -0.8625,0.62094 -0.17244,0.69 0.3105,0.62094 1.00044,2.20788 0.79344,0.5865 0.5175,1.20744 0.72444,0.75894 2.17338,0.96594 1.10394,1.06944 0.3105,0.483 -0.0348,0.483 -0.82794,0.34494 -1.13844,0.5865 -1.17294,1.13844 -0.483,0.62094 -0.41394,0.483 -0.8625,0.138 -0.27594,0.138 -0.5175,0.1725 -0.207,-0.483 -0.89694,-0.414 -0.3795,-0.31044 -0.55194,0.24144 -0.9315,0.345 -0.48294,1.51794 -0.483,0.51744 -0.24144,0.7245 -1.035,0.37944 -0.55194,0.6555 -1.17294,0.65544 -0.621,0.6555 -2.20788,1.03494 -1.55238,0.345 -2.06994,-0.2415 -0.79344,-0.3795 -0.345,-1.41444 -1.20744,-1.20744 -0.82794,-0.41394 -0.3105,-0.759 -0.2415,-0.27594 0.1035,-0.483 0.276,-0.1725 0.3795,-0.79344 0.207,-0.69 -0.1035,-0.44844 -0.82794,-0.7245 -1.82844,-0.41394 -1.65594,0.34494 -0.20694,0.345 -0.5865,0.069 -0.207,0.37944 -0.68994,0.483 -0.069,0.3795 0.207,0.34494 0.621,0.3105 0.41394,0.5175 -0.1035,1.75938 -0.37944,1.27644 -0.552,2.55288 -0.48294,2.31138 -0.3795,0.4485 -0.1035,1.44888 0.5175,0.207 0.20694,0.4485 0.4485,0.138 0.1035,2.00088 -0.345,1.58694 -1.17294,1.34544 -0.37944,1.34538 -0.8625,0.345 -0.82794,0.345 -0.2415,0.75894 -1.31094,0.79344 -1.13844,1.035 -1.27644,0.75894 -0.44844,0.4485 -0.69,1.10394 -0.96594,0.55194 -2.93238,0.759 -1.82838,0.55194 -0.65544,0.5865 -1.20744,1.03494 -1.17294,1.20744 -0.5865,1.93188 -0.68994,0.68994 h -0.276 l -0.3795,-0.37944 -0.93144,-0.276 -0.55194,-0.5865 -0.5865,-1.27638 -0.55194,-2.13894 -0.483,-2.20788 0.276,-2.31138 0.68994,-0.3795 0.276,-0.51744 -0.1725,-0.65544 -0.621,-0.5865 -1.24188,-0.483 -1.79394,0.3795 -1.03494,1.17294 -1.20744,0.3795 -0.82116,0.17406 -0.30618,0.61248 -0.61248,1.17384 -1.12284,0.61242 -0.76554,0.7656 -0.45936,-0.10212 -0.76554,-0.71448 -0.35724,-0.45936 -0.15312,-0.66348 -0.13746,-0.77178 -0.67428,-0.17874 -0.5865,-0.34494 -0.37944,0.20694 -0.9315,0.483 -0.65544,0.345 -0.5865,-0.345 -1.69038,0.0348 -0.483,0.46896 h 0.8166 l -0.30624,0.71448 -0.71454,0.71454 -0.35724,0.61248 0.25518,1.12278 0.96972,0.51036 1.78632,0.66348 0.8676,0.25524 0.4083,2.14356 0.30624,0.76554 -0.051,1.17384 h -0.30624 l -0.25518,1.1739 0.10212,1.17384 0.8676,0.35724 1.07178,0.66348 0.30624,0.10212 0.4083,-0.15312 1.07178,-0.66354 0.61242,-0.25518 0.3573,0.051 0.25518,0.8166 -0.4083,1.07178 -0.76554,0.7656 -1.27596,0.66348 -0.15312,1.32696 0.15312,2.14356 0.8166,1.12284 0.20412,0.4593 0.51042,0.56142 0.15306,0.35724 1.12284,0.10212 0.4083,0.10206 0.45936,0.4083 0.8166,0.10206 0.76554,0.25518 0.45936,0.86766 v 0.56142 l -1.32702,-0.051 -1.37796,0.4593 -0.30624,0.30624 0.20412,0.66348 1.42908,2.4498 0.51036,0.56142 0.35724,0.91866 0.4083,0.35724 0.30624,0.86766 0.76554,0.20412 0.56142,0.25518 1.07178,-0.20412 0.66348,-0.25518 0.61248,-0.51042 1.02072,-0.20412 1.07178,0.20412 0.30624,0.30624 0.61242,0.25518 0.20418,0.3573 0.2103,0.10032 0.74172,0.0862 0.18972,0.3795 1.43172,-0.138 0.5175,-0.2415 0.53472,-0.60372 1.93188,0.25872 2.3976,0.621 0.7245,0.27594 0.31044,2.60466 0.29514,1.26456 -0.26832,1.19532 -0.24396,0.43908 v 0.75618 l 1.36608,-0.0976 1.85394,-0.90258 0.75624,-0.12198 -0.19518,-2.53698 -0.41472,-0.56106 0.24396,-0.29268 0.41472,-0.56106 0.97572,0.19512 1.14654,0.70746 0.19512,0.68298 -0.8538,0.4635 -0.41466,1.14654 -0.3171,1.02456 -0.0246,2.04906 0.7074,0.17076 0.68304,-0.29274 1.1709,-0.60984 1.2441,-0.60984 0.80502,-0.48786 0.0486,-0.36594 0.41472,-0.14634 0.19518,-0.36594 h 1.00014 l 0.48786,0.8538 0.21954,1.29288 -0.68304,0.41472 0.1464,1.26846 0.80496,0.56106 1.19532,1.12212 1.21968,1.1709 2.21988,0.24396 0.80496,0.0246 0.26832,2.78088 0.80502,0.3903 0.90258,0.65862 -0.21954,4.07382 -0.3903,2.31744 -0.26832,2.46378 -1.73196,0.60984 -0.43908,0.19512 -0.2196,-0.26832 -0.6342,-0.21954 -0.58548,0.31716 -0.48786,0.48786 -0.95136,0.36588 0.26832,1.95156 0.58542,0.73176 0.26838,1.36608 c 0,0 -0.48786,0.0246 -0.48786,0.12198 0,0.0976 -0.12198,0.48786 -0.12198,0.48786 l -0.29274,0.0732 -0.21954,0.3903 -0.51228,0.17076 -0.19518,0.7806 v 1.09776 l 0.6099,-0.4635 h 2.09784 l 0.68304,1.34166 0.60984,1.1709 0.43908,0.4635 0.6099,0.17076 0.82938,-0.51228 0.3171,0.3171 0.68304,0.6099 0.82938,0.36588 0.48786,0.43908 0.48792,0.24396 0.56106,1.2441 0.19512,0.36588 -0.12198,0.48792 -0.36588,0.19512 v 1.46364 l 1.41486,0.24396 0.73182,-0.26838 0.51222,-0.6342 0.6099,-0.58548 0.58542,-0.68304 1.58562,-0.34152 1.78074,0.31716 1.2441,0.68298 0.3903,0.73188 1.80516,0.0731 2.53698,-0.3171 1.1709,-0.5367 1.1709,-0.29268 0.63426,-1.97592 0.60984,-1.19532 1.04898,-0.63426 1.14648,-0.3171 0.90258,0.0732 0.24396,0.34152 0.65862,0.29274 0.2439,-0.26838 0.41472,-0.65862 1.14654,-2.43942 0.53664,-0.60984 0.75624,-1.14648 1.19532,-1.21974 1.0977,-0.51228 1.90272,-0.3171 1.6344,0.34152 2.36622,0.58548 0.56106,0.58542 0.17076,0.95136 0.0246,0.82944 -0.63426,0.56106 -1.26852,0.6342 -1.26846,0.48792 -0.21954,0.46344 0.14634,0.4635 0.65868,0.1464 0.0246,0.3171 1.85394,0.4635 1.3173,0.34152 0.29274,1.39044 0.60984,0.60984 1.73196,0.48786 4.1226,0.63426 0.60984,0.60984 1.65876,0.53664 1.26852,0.39036 0.36588,0.51222 1.53684,0.43914 0.14634,0.92694 -0.43908,0.36594 0.29274,0.36588 0.58542,0.60984 1.09776,2.19546 0.60984,1.87836 0.53664,1.07334 0.36594,0.92694 0.58548,0.21954 0.21954,0.75624 0.26832,0.7074 v 1.46364 l 0.2439,0.65862 0.21954,-0.56106 2.00034,-0.21954 1.5612,-0.0246 0.3171,1.07334 1.48806,0.0486 1.36602,-0.24396 0.2196,-0.63426 0.56106,-1.07328 0.56106,-1.24416 1.29288,-1.1709 1.1709,-0.34146 1.6344,0.3171 0.65862,0.7074 0.97578,0.17076 0.26832,0.51228 0.46344,0.41472 0.6099,1.2441 0.65862,0.53664 0.48786,1.07334 1.2441,1.2441 0.21954,0.7806 0.36594,0.19512 0.26832,0.6099 0.26832,-0.65868 0.12198,-0.36588 0.5367,-1.26852 0.51222,-0.48786 0.21954,-0.8538 0.51228,-2.17104 1.0002,-2.24424 0.60984,-2.3418 0.60984,-0.58548 0.48786,-1.21968 0.7074,-0.58548 2.24424,-0.34152 1.51248,0.0976 0.14634,1.04898 0.80502,0.3903 2.31738,0.58542 1.80516,0.65868 0.1464,0.48786 0.21954,0.80502 1.07334,0.12198 1.00014,0.0246 1.03668,-0.061 z"
     id="rieti"
     name="Rieti"
     />
  <path
     d="m 397.50304,365.6319 -0.80784,-0.16224 -1.60998,-0.0976 -0.97578,-0.19512 -1.21968,-0.73182 -0.82944,-0.73182 -0.39024,-1.36608 0.19512,-1.26846 -0.0486,-1.36608 0.5367,-1.51242 0.63426,-0.97572 0.48786,-0.48792 0.29274,-0.29274 v -0.2439 l -1.3173,-0.73182 -0.3903,-1.26852 v -1.26846 l 0.5367,-0.14634 0.19512,-0.3903 0.53664,-0.48792 0.0976,-0.2439 -0.73182,-0.5367 -0.29274,-1.51242 -0.68304,-2.00034 -0.58548,-1.07328 -0.39024,-2.43942 h -0.29274 l -0.1464,-0.3903 -1.51242,-0.63426 -2.82966,-0.53664 -2.00034,-0.48786 -1.0245,-0.73182 -0.43914,-1.07334 -1.12212,-0.3903 -1.31724,-1.46364 -1.17096,-0.29274 -0.0976,-1.5612 h -0.7806 l -0.34152,-0.68304 -0.82938,-0.43908 v -2.04912 l 0.19518,-0.73182 0.34152,-1.51242 -0.1464,-0.97572 -0.63426,-0.48792 -0.58542,-1.07334 -0.58548,-0.58542 -0.43908,-0.82938 0.48786,-0.58548 0.29274,-0.29274 -2.09784,-0.0486 -2.38776,-1.24224 -0.74172,-0.58644 -0.414,-1.62144 -0.31044,0.70722 -0.32778,0.276 -0.39672,0.93144 -0.207,-0.43122 -0.32772,-0.138 -0.18972,-0.32772 -0.345,-1.19022 -0.22422,-2.2596 -1.84566,-0.69 -2.44938,-0.48294 -0.276,-0.36228 -1.43166,-0.34494 -1.12122,-1.13844 -1.10394,-0.552 -0.62094,-1.31094 -0.69,-1.03494 -1.25022,-1.25208 -0.4635,-1.14654 -0.6342,-0.26832 -0.75624,-0.0486 -1.53678,0.24396 -0.31716,0.51228 -0.26832,-0.29274 0.26832,-1.24404 0.24396,-0.68304 0.63426,-1.2441 0.58542,-1.73196 0.29274,-0.97578 -0.0732,-3.02484 0.34152,-1.34166 0.5367,-0.82944 0.43908,-0.1707 0.26832,-0.63426 0.75624,-0.29274 0.0976,-1.19532 -0.34152,-0.97572 -0.60984,-0.43908 -0.36594,-1.36608 0.43908,-1.12212 1.21974,-0.41472 1.85394,0.0246 0.48786,0.43908 0.12198,0.87822 0.14634,-0.0486 0.51228,-0.58548 0.31716,-0.21954 0.43908,-1.60998 0.46344,-0.0246 0.26838,-0.4635 1.78074,-0.3171 0.97578,-0.24396 0.85374,0.29274 0.3903,0.70746 0.87822,0.0976 0.95136,-0.19518 1.00014,-0.14634 0.14634,-0.17076 -0.7074,-0.43908 -0.0486,-0.56106 0.2439,-1.09776 0.60984,-2.36622 0.43908,-2.63454 0.4635,-0.0246 0.29274,-0.58542 2.31744,-0.19512 1.75632,-0.56112 0.65868,-0.6342 0.82938,-0.29274 0.95136,0.26832 0.51228,0.58548 0.21954,0.87816 0.8538,0.29274 1.26846,0.56106 0.60984,0.65862 0.73182,0.12198 0.4635,0.63426 1.65876,0.29274 1.97592,0.41466 3.53712,-0.14634 0.29274,-1.14654 0.3903,-0.12198 0.3903,-0.68298 2.31744,-0.2196 0.24396,0.48792 2.7321,0.34152 0.34152,0.14634 0.26832,-0.19512 0.5367,-0.5367 0.17076,-3.5127 0.41466,-2.31744 1.78074,-0.68304 0.43914,-0.87816 1.5612,-0.0246 0.3171,-0.8538 1.14654,-1.14648 1.07334,-1.19532 1.43922,-0.65862 1.07334,-1.09776 0.65862,-0.24396 0.3903,-0.7806 0.68304,-1.24404 0.80502,-0.34152 -0.0976,-0.68304 -0.1707,-0.82944 -0.73188,-0.41466 -0.0731,-0.68304 0.3171,-1.82952 0.3903,-1.0002 0.70746,-0.12192 1.75632,-0.65868 0.51228,-0.2439 0.75624,0.21954 0.51228,0.19512 0.97572,0.0486 0.19518,-1.9515 0.6342,-1.19532 0.8538,-0.34152 0.3903,-1.43922 1.17096,-1.21974 1.07328,-1.07328 0.82944,-0.3903 0.36588,-1.43928 0.25734,-1.38936 -1.94052,-0.12312 -0.63426,-0.14634 -1.12212,-1.21968 -1.31724,-1.3173 -1.02456,-1.12212 -1.36608,-1.12212 -2.78088,-0.58542 -1.80516,-0.5367 -1.46364,-0.3903 -0.29274,-0.7806 -0.63426,-0.68304 -0.39024,-0.82938 -0.3903,-0.0486 -0.29274,-0.43908 -0.68304,-0.3903 -1.61004,-0.48786 -1.1709,-0.48786 -2.14668,0.0486 -0.39024,0.58548 h -0.73188 l -0.43908,-0.34152 -0.48786,-0.48786 -1.26846,-0.48792 -2.4882,-1.41486 -1.60998,-0.48786 -1.3173,-0.29274 -0.48786,-0.87816 -1.21968,-0.68304 -1.07334,-1.02456 -1.12212,-0.68304 -0.68304,-0.53664 -2.24424,-1.1709 -3.12246,-0.58548 -1.65876,-0.58542 -2.39064,-1.21968 -1.07328,-0.29274 -0.97578,0.0486 -0.0976,1.17096 0.14634,1.31724 0.14634,0.58542 0.34152,0.39036 0.19518,0.48786 0.43908,0.53664 -0.14634,1.21974 -0.63426,0.14634 h -1.36608 l -0.43908,-0.63426 h -2.04906 l -2.73216,-0.2439 -1.26846,-0.58548 -2.24424,-1.1709 -1.07334,-2.3418 -0.58548,-2.4882 -0.68304,-0.3903 -0.43908,-1.21968 -0.63426,-0.5367 -1.36602,-1.26846 -1.12212,-0.5367 -0.58548,-0.48786 -0.34152,-3.02484 -0.53664,-1.80516 -0.87816,-1.21968 -0.1464,-1.75638 0.3903,-1.7076 0.48792,-4.14696 0.53664,-1.26846 0.52446,-1.64658 0.30492,-2.0247 -0.29268,-1.25628 -1.04892,0.0486 -1.00014,-0.0246 -1.07334,-0.12198 -0.21954,-0.80502 -0.1464,-0.48786 -1.80516,-0.65868 -2.31738,-0.58542 -0.80502,-0.3903 -0.14634,-1.04898 -1.51248,-0.0976 -2.24424,0.34152 -0.7074,0.58548 -0.48786,1.21968 -0.60984,0.58548 -0.60984,2.3418 -1.0002,2.24424 -0.51228,2.17104 -0.21954,0.8538 -0.51222,0.48786 -0.5367,1.26852 -0.12198,0.36588 -0.26832,0.65868 -0.26832,-0.6099 -0.36594,-0.19512 -0.21954,-0.7806 -1.2441,-1.2441 -0.48786,-1.07334 -0.65862,-0.53664 -0.6099,-1.2441 -0.46344,-0.41472 -0.26832,-0.51228 -0.97578,-0.17076 -0.65862,-0.7074 -1.6344,-0.3171 -1.1709,0.34146 -1.29288,1.1709 -0.56106,1.24416 -0.56106,1.07328 -0.2196,0.63426 -1.36602,0.24396 -1.48806,-0.0486 -0.3171,-1.07334 -1.5612,0.0246 -2.00034,0.21954 -0.21954,0.56106 -0.2439,-0.65862 v -1.46364 l -0.26832,-0.7074 -0.21954,-0.75624 -0.58548,-0.21954 -0.36594,-0.92694 -0.53664,-1.07334 -0.60984,-1.87836 -1.09776,-2.19546 -0.58542,-0.60984 -0.29274,-0.36588 0.43908,-0.36594 -0.14634,-0.92694 -1.53684,-0.43914 -0.36588,-0.51222 -1.26852,-0.39036 -1.65876,-0.53664 -0.60984,-0.60984 -4.1226,-0.63426 -1.73196,-0.48786 -0.60984,-0.60984 -0.29274,-1.39044 -1.3173,-0.34152 -1.85394,-0.4635 -0.0246,-0.3171 -0.65868,-0.1464 -0.14634,-0.4635 0.21954,-0.46344 1.26846,-0.48792 1.26852,-0.6342 0.63426,-0.56106 -0.0246,-0.82944 -0.17076,-0.95136 -0.56106,-0.58542 -2.36622,-0.58548 -1.6344,-0.34152 -1.90272,0.3171 -1.0977,0.51228 -1.19532,1.21974 -0.75624,1.14648 -0.53664,0.60984 -1.14654,2.43942 -0.41472,0.65862 -0.2439,0.26838 -0.65862,-0.29274 -0.24396,-0.34152 -0.90258,-0.0732 -1.14648,0.3171 -1.04898,0.63426 -0.60984,1.19532 -0.63426,1.97592 -1.1709,0.29268 -1.1709,0.5367 -2.53698,0.3171 -1.80516,-0.0731 -0.3903,-0.73188 -1.2441,-0.68298 -1.78074,-0.31716 -1.58562,0.34152 -0.58542,0.68304 -0.6099,0.58548 -0.51222,0.6342 -0.73182,0.26838 -1.41486,-0.24396 v -1.46364 l 0.36588,-0.19512 0.12198,-0.48792 -0.19512,-0.36588 -0.56106,-1.2441 -0.48792,-0.24396 -0.48786,-0.43908 -0.82938,-0.36588 -0.68304,-0.6099 -0.3171,-0.3171 -0.82938,0.51228 -0.6099,-0.17076 -0.43908,-0.4635 -0.60984,-1.1709 -0.68304,-1.34166 h -2.09784 l -0.6099,0.4635 v -1.09776 l 0.19518,-0.7806 0.51228,-0.17076 0.21954,-0.3903 0.29274,-0.0732 c 0,0 0.12198,-0.3903 0.12198,-0.48786 0,-0.0976 0.48786,-0.12198 0.48786,-0.12198 l -0.26838,-1.36608 -0.58542,-0.73176 -0.26832,-1.95156 0.95136,-0.36588 0.48786,-0.48786 0.58548,-0.31716 0.6342,0.21954 0.2196,0.26832 0.43908,-0.19512 1.73196,-0.60984 0.26832,-2.46378 0.3903,-2.31744 0.21954,-4.07376 -0.90258,-0.65868 -0.80502,-0.3903 -0.26832,-2.78088 -0.80496,-0.0246 -2.21988,-0.24396 -1.21968,-1.1709 -1.19532,-1.12212 -0.80496,-0.56106 -0.1464,-1.26846 0.68304,-0.41472 -0.21954,-1.29288 -0.48786,-0.8538 h -1.00014 l -0.19518,0.36594 -0.41472,0.14634 -0.0486,0.36594 -0.80502,0.48786 -1.2441,0.60984 -1.1709,0.60984 -0.68304,0.29274 -0.7074,-0.17076 0.0246,-2.04906 0.3171,-1.02456 0.41466,-1.14654 0.8538,-0.46344 -0.19512,-0.68304 -1.14654,-0.70746 -0.97572,-0.19512 -0.41472,0.56106 -0.24396,0.29268 0.41472,0.56106 0.19518,2.53698 -0.75624,0.12198 -1.85394,0.90258 -1.36608,0.0976 v -0.75618 l 0.24396,-0.43908 0.26832,-1.19532 -0.29514,-1.26456 -0.31044,-2.6046 -0.7245,-0.276 -2.3976,-0.621 -1.93188,-0.25872 -0.53472,0.60372 -0.5175,0.2415 -1.43172,0.138 -0.18972,-0.3795 -0.74172,-0.0862 -0.5172,0.41796 c -0.33198,0.16596 -0.60858,1.65972 -0.60858,1.65972 l -0.49794,1.21722 c 0,0 -0.76572,-0.4851 -1.27248,1.16184 l -0.22134,0.71922 c -0.22128,0.71922 0.49794,0.44256 0.49794,0.44256 l 0.22134,0.3873 -0.55326,0.16596 -0.55326,0.3873 -1.88106,0.99588 -1.21716,0.44256 c 0,0 -0.28116,-0.13656 -0.44262,0.55326 l -0.60858,2.60034 -0.55326,0.77454 -0.6639,1.27248 v 0 c 0,0 0,0 -0.1107,0.55326 -0.11064,0.55326 0.1107,0.55326 0.1107,0.55326 l 0.6639,0.88518 0.82986,0.71928 v 0.33192 c 0,0 0,0 -0.71922,0.22134 -0.71922,0.22128 -0.3873,0.33192 -0.3873,0.33192 l 0.44262,0.49794 -0.11064,1.21716 -0.55326,0.11064 -0.33198,0.27666 -0.99582,0.16596 -0.38742,1.60458 -0.82986,1.77042 c 0,0 0.16602,1.6044 0.22128,1.88106 0.0552,0.2766 0,0 0,0 l -0.71922,1.54908 -0.55326,1.49382 -0.49788,0.88518 h -0.55326 l -0.33198,-0.44256 -1.54914,0.0552 -1.27248,0.0552 -1.16184,0.77454 -0.2766,1.93638 -0.2766,1.9917 -0.60864,1.38318 -0.33192,0.3873 -1.21716,0.60858 -0.88524,0.2766 -0.9405,-0.22134 -0.49794,-0.82986 -0.0552,-1.9917 0.3873,-1.3278 0.38724,-3.09822 0.33198,-2.04708 0.44262,-2.98758 -0.11064,-1.65978 -0.33198,-2.54496 -0.6639,-2.48964 -0.49794,-1.49382 -0.44256,-1.65972 -0.3873,-0.99588 -0.22128,0.22128 -0.22134,1.16184 -0.71922,0.60858 v 0.60858 l 0.16596,0.3873 0.60858,0.60858 0.6639,1.27248 0.1107,1.65978 -0.3873,0.77454 -0.22128,1.4385 -0.71928,0.0552 -0.9405,-0.22128 -0.0552,-0.99588 -0.33192,0.0552 -0.49794,0.22128 c 0,0 0,0 -0.49794,1.21716 -0.49794,1.21716 0,0.0552 -0.6639,1.60446 -0.6639,1.54908 0,0 -0.60858,0.71922 -0.60858,0.71922 -0.55326,1.16184 -0.55326,1.16184 l -1.49382,1.27248 -1.65978,0.22128 -0.5532,0.66396 -0.0552,0.77454 0.44262,0.22128 0.33192,2.1024 0.55326,2.87694 0.27666,0.88518 -0.16596,1.43844 -0.60858,1.77048 -0.66396,1.16178 -1.16184,1.3278 -1.3278,0.498 -1.16184,0.77454 -0.33192,0.27666 -0.7746,1.27248 -0.16596,2.15766 -0.82986,0.27666 -1.0512,0.49794 -1.3278,0.55326 -0.7746,0.82986 -0.22128,0.16596 -0.49794,-0.16596 -0.2766,-0.6639 -1.27248,-0.60858 -0.60858,-0.16596 -0.99588,0.11064 -0.44262,0.99582 -0.44262,-0.9405 -0.60858,-0.44262 -0.11064,-1.77042 0.49794,-0.2766 -0.11064,-0.22134 -0.6639,-0.16596 -1.10652,-1.3278 -0.71922,-1.21716 -1.16184,-1.21716 -1.49382,0.0552 -0.6639,0.2766 -1.3278,-0.11064 -0.11064,-0.6639 -0.49794,-1.3278 -0.11064,-0.7746 -0.3873,-0.16596 -0.71922,0.44262 -1.65978,0.71922 -1.21716,0.60858 -2.04702,0.2766 -2.04708,-0.33192 -1.21716,-0.66396 -0.6639,-0.6639 -2.04702,-1.10646 -0.49794,-0.27666 -0.7746,0.11064 -1.27248,0.71922 -0.6639,0.7746 -0.38724,0.55326 -0.7746,0.60858 -3.59616,0.2766 -1.9917,0.1107 -0.33198,0.44256 -0.55326,0.33198 -0.38724,1.6044 -0.7746,1.32786 -0.44256,0.33192 -0.82992,0.6639 -0.49794,0.55326 -0.60858,0.27666 -0.99582,0.33192 -0.77454,1.32786 -0.49794,0.44256 -0.55326,1.16184 -0.60858,0.7746 -0.27666,0.49788 -0.49794,-1.54908 -0.38724,-0.82992 -1.16184,-1.10646 -1.21716,-0.82992 -2.93226,-0.38724 -0.99588,-0.44262 -1.27248,0.2766 -2.98758,0.55326 -2.04702,-0.44262 -2.1024,-0.22128 -1.9917,0.16596 -0.22134,2.4897 -0.60858,0.71922 -3.15354,0.55326 -0.55326,0.2766 -0.6639,-0.44262 -2.26836,-0.22128 -1.3278,-0.3873 -2.15772,-0.6639 -1.38312,-0.16596 -0.44262,-0.82986 -0.38724,-1.82574 -0.49794,-1.60446 -1.4385,-2.54496 -0.60858,-1.99176 -1.27248,-2.21298 -1.05114,-2.04708 -0.55326,-1.7151 -0.7746,-1.49376 -0.6639,-0.16602 -0.38724,0.82992 -0.3873,0.38724 -0.075,-0.4371 -1.94934,-0.1695 -0.8475,-0.42372 -0.84756,-0.33906 -0.25422,-0.678 -0.93228,-0.76278 -1.27128,-0.0848 -0.42378,0.33906 -0.76278,-0.67806 -0.678,-0.1695 -0.42378,-0.5085 -1.18656,-0.59328 -0.59328,-0.59328 c 0,0 0,0 -0.678,-1.1865 -0.678,-1.18656 -1.44078,-0.42378 -1.44078,-0.42378 0,0 0,-0.0848 -0.25428,-0.42378 -0.25422,-0.339 0,-0.1695 0,-0.59322 0,-0.42378 0.5085,0.0847 0.5085,0.0847 l -0.339,-0.76278 c 0,0 0,0 -0.5085,-0.5085 -0.5085,-0.5085 -0.678,0.42372 -0.678,0.42372 l -1.61034,0.25428 -0.93228,0.25428 c 0,0 0,0 -0.42378,0.339 -0.42372,0.339 -0.59322,0.25428 -0.59322,0.25428 l -0.25428,0.1695 v 0.0847 l 0.5085,0.42378 0.59328,0.339 0.0848,0.59328 -1.01706,0.1695 -0.93228,-0.0848 -1.61028,-0.0847 c 0,0 0,-0.0847 0,1.10178 0,1.18656 0.59328,0.0848 0.59328,0.0848 l -0.42378,0.8475 -1.01706,1.44078 -0.5085,-0.678 -0.339,0.0847 v 0.33906 l 0.0847,0.8475 0.59328,0.5085 -0.25422,0.84756 -1.61034,1.27128 -0.0847,0.84756 0.25422,0.76278 0.50856,1.1865 0.42372,0.339 -0.25422,0.339 -1.27128,0.59328 -1.18656,1.18656 -1.10178,0.93228 -0.93228,0.5085 -0.25428,1.77984 -1.10178,1.52556 -1.52556,0.76272 -0.339,0.33906 -1.10178,1.017 -0.25428,1.18656 0.1695,1.27128 0.50856,0.93228 c 0,0 0,0.5085 0,0.8475 0,0.33906 0,0.84756 0,0.84756 l -0.59328,0.8475 -0.5085,0.42378 -0.76278,0.42378 -0.42378,-0.0848 -0.678,-0.76278 -0.84756,-0.339 -1.52556,-0.84756 -0.59328,-0.0847 -0.25422,-0.5085 -0.42378,-0.42378 -0.25428,-0.25428 -3.05106,-0.5085 -4.1529,-0.42378 -4.74618,0.25428 -1.5255,0.76278 -0.76278,0.5085 -0.1551,0.7044 0.75894,1.20744 0.86244,0.414 0.207,0.58644 0.4485,0.3795 -0.276,0.37944 -0.2415,0.345 0.2415,0.82794 0.62094,1.17294 0.552,0.621 0.58644,1.27644 0.5865,1.06944 0.3795,0.68994 0.96594,0.345 0.44844,0.4485 1.20744,0.34494 0.483,1.03494 0.3795,0.414 -0.4485,0.2415 v 0.51744 l 0.75894,0.828 0.483,1.03494 0.62094,0.58644 0.7245,0.6555 0.55194,1.03494 0.96594,1.13844 0.897,0.414 0.1035,1.13838 -0.483,0.5175 -0.345,-0.2415 -0.86244,-0.31044 -0.2415,-0.4485 -0.75894,-0.414 -0.5175,-0.62094 -0.58644,-0.4485 -0.483,-0.58644 c 0,0 0.0342,0.58644 0.3105,0.79344 0.276,0.207 0.62094,0.69 0.62094,0.69 l 0.414,0.48294 0.82794,0.7245 1.0005,0.58644 h 1.41438 l 1.65594,0.1725 c 0,0 0.345,1.13844 0.48294,1.10394 0.138,-0.0348 1.34544,0.68994 1.34544,0.68994 l 0.5175,1.75944 0.65544,1.82838 v -0.31044 l 0.1725,1.41438 -0.34494,0.345 -0.1035,1.00044 0.44844,0.2415 0.2415,0.4485 0.5175,-1.10394 0.17244,0.17244 -0.20694,0.96594 0.41394,0.5175 0.759,0.414 0.34494,2.34588 0.4485,1.10394 1.27644,1.17294 0.58644,0.62094 0.483,1.72494 0.414,0.414 0.37944,0.44844 h 1.65594 l 1.20744,-0.3105 1.79388,-0.48294 2.27688,-1.24194 1.75944,-0.69 2.44938,-0.41394 3.24282,-0.5865 0.86244,-0.2415 1.58694,0.1725 1.89738,0.5865 1.20744,1.17294 1.03494,0.51744 1.27644,1.27644 1.17294,0.621 1.10394,1.10394 2.48388,1.31094 1.00044,0.41394 0.7245,0.414 0.1725,0.4485 0.37944,0.0342 0.2415,0.483 0.5865,0.1725 0.31044,0.79344 0.6555,1.82844 0.345,0.82794 0.68994,0.3105 1.17294,0.34494 1.37994,0.276 3.31182,0.621 2.55288,1.17294 0.48294,0.62094 1.20744,0.5175 0.69,0.3105 0.276,0.51744 0.34494,0.1725 0.5865,0.89694 1.10394,0.93144 1.20744,2.41488 0.41394,1.31094 0.966,0.3795 0.1035,0.3105 0.41394,0.27594 0.414,0.6555 2.31138,0.62094 0.58644,0.6555 1.06944,0.44844 1.82844,0.621 1.03494,0.44844 0.138,0.69 1.06944,0.55194 0.5175,1.00044 0.75894,0.3105 0.414,0.7935 1.03494,0.20694 0.24144,0.414 3.76032,0.2415 2.27688,1.27644 1.58694,1.72488 1.24194,0.5175 1.20744,1.37988 1.24194,1.0695 0.3105,0.82794 0.51744,0.345 0.276,0.55194 1.27644,1.37994 0.44844,0.4485 0.69,1.17294 0.3105,0.68994 0.55194,0.5175 0.1725,0.55194 0.75894,1.27644 0.483,1.06944 0.51744,0.5865 0.7245,1.24194 0.55194,1.72488 0.5865,0.552 0.58644,1.27638 0.483,0.4485 1.37994,2.34588 1.20744,2.55288 0.51744,0.89694 0.483,1.86294 0.72444,1.24194 0.552,1.69038 0.58644,1.00044 0.483,2.48388 1.17294,2.44938 0.68994,1.17294 0.621,1.69044 0.55194,1.79388 0.5175,1.75944 0.2415,1.13844 v 2.03538 l -0.3795,0.552 -0.3795,0.34494 -0.34494,0.3795 0.24144,0.3105 0.6555,1.17294 0.55194,1.10394 1.20744,2.27688 0.138,1.72488 -0.62094,0.483 -0.483,0.414 v 0.17244 l 1.48344,0.276 0.207,0.207 0.58644,-0.2415 1.00044,-0.345 2.00094,-0.13794 0.86244,-0.4485 1.24194,0.1035 -1.20744,0.3105 -2.34588,0.58644 -1.27644,0.414 -0.276,0.82794 0.5865,0.2415 0.62094,-0.0348 0.5865,-0.68994 1.75938,0.41394 0.897,0.552 1.17294,0.15522 0.32772,0.46572 0.93144,0.46572 2.38038,1.20744 1.22466,0.67272 1.62144,0.483 2.48388,1.19016 1.17294,0.6555 2.2941,0.58644 1.24194,0.67272 0.552,0.5175 2.2251,1.12116 0.759,0.60372 2.3286,1.22472 0.50022,0.53472 1.22472,0.63822 0.81072,0.276 0.18972,0.46572 0.67272,0.37944 1.20744,1.13844 1.22466,0.621 1.17294,1.15566 1.22472,0.5865 0.56922,0.65544 1.22466,0.56922 0.483,0.552 1.22466,0.51744 1.08672,1.29372 1.17294,1.12116 1.15572,1.20744 1.25916,1.19022 1.12116,0.55194 0.63822,0.552 1.13844,0.63822 1.173,1.19016 1.22466,1.13844 1.19016,1.17294 1.08672,1.17294 1.17294,1.19022 0.60372,0.46572 0.74172,0.79344 1.46616,1.36266 1.36266,1.32822 0.77622,0.84522 1.36272,1.50066 1.44888,1.36266 0.828,1.39716 0.72444,1.53522 0.63822,0.62094 1.41444,1.48344 1.56966,1.41444 1.37994,1.51794 0.74172,1.34538 1.43166,1.48344 0.82794,0.32772 0.6555,1.10394 1.43166,1.43172 0.67272,0.75894 0.72444,1.48344 1.46622,1.46616 0.67266,1.32816 1.41444,1.50072 0.74172,0.68994 0.7935,1.39716 0.65544,1.46622 1.44894,1.46616 1.44888,1.48344 0.7245,1.34538 0.74172,1.50072 0.68994,0.72444 1.43166,2.7771 0.759,0.82794 0.68994,1.41444 1.48344,1.44894 0.72444,1.53516 0.759,1.31094 0.60372,0.79344 1.50066,2.88066 0.77622,2.1216 0.48294,0.29328 h 1.46622 l 0.86244,-1.0005 0.77622,-0.70722 1.43328,-0.75384 2.00028,-0.7806 3.53718,-0.51228 3.00042,0.56106 2.8785,0.60984 0.7074,0.80502 1.43928,0.7806 1.51242,0.75618 0.68304,0.68304 2.78088,1.36608 1.60998,1.48806 1.41486,0.80496 0.4635,0.87822 0.51228,0.1707 0.0976,0.43914 1.60998,0.53664 0.82944,0.7806 1.51242,0.73182 0.6342,0.60984 0.36594,0.36594 0.56106,0.60984 0.26832,0.26832 0.24396,-0.53664 0.41466,-0.17076 0.21954,-0.7806 0.2196,-0.36594 0.4368,-0.36948 c 0.0222,-0.0522 -0.42816,-3.01482 -0.47556,-3.20436 -0.0474,-0.1896 -0.8058,-1.3983 -0.8058,-1.3983 l -0.5451,-1.3983 -2.03814,-2.29884 -0.948,-0.3792 -0.7584,0.6636 -1.61154,-0.2844 -0.948,-0.6636 v -2.93874 l 1.5168,-0.6636 0.37914,-2.08554 -0.66354,-3.1284 -0.474,-0.85314 -3.318,-0.6636 -1.89594,-3.88674 -0.474,-0.948 0.1896,-0.948 0.3792,-0.85314 -1.99074,-0.474 -6.44634,-0.2844 -1.42194,-0.6636 -0.3792,-2.93874 -0.5688,-0.8532 -1.2324,-0.5688 -1.13754,-0.3792 -0.7584,-0.56874 -2.65434,-1.7064 -5.28546,-0.71586 -1.54176,-0.40218 -0.33516,-0.53628 -0.53628,-0.26814 -0.067,-0.33516 -2.8824,-0.26814 -1.07256,0.33516 -1.00548,0.46926 -1.13952,-0.067 -0.73734,-0.87144 -0.6033,-2.4132 -1.54176,-2.81532 -0.6033,-2.21208 -0.80442,-1.27362 -0.73734,-1.07256 -0.93846,-0.4692 -1.40766,-0.67032 -1.27362,-1.47474 -0.80442,-1.34064 -0.6033,-0.87144 -2.2791,-0.4692 -0.6033,-0.1341 -0.93846,0.20112 -0.33516,0.20106 -0.33516,-1.00548 1.47474,-0.80436 2.41314,-0.87144 1.27362,-0.73734 0.7374,-4.42416 0.87138,-0.20112 0.46926,-0.67032 0.93846,-0.067 0.53622,-0.6033 0.7374,-1.13958 0.13404,-0.80436 0.93846,-0.53628 1.2066,-1.0725 1.27362,-0.80442 0.40218,-0.26814 0.87144,-0.40218 0.26814,-1.47468 0.4692,-1.2066 0.7374,-0.7374 1.13952,-0.40218 0.6033,-0.87144 0.73734,-0.33516 1.8099,-1.87692 0.93846,-0.53622 1.2066,-1.27362 0.67032,-0.067 0.80436,0.26808 0.6033,0.93846 1.13958,0.1341 0.067,1.34064 0.1341,0.4692 0.53622,0.33522 -0.26814,0.26808 -0.4692,0.40224 h -0.33516 l -0.13404,1.00548 0.1005,0.18432 1.02228,0.10056 0.3519,-0.31842 0.35196,-1.02222 c 0,0 0.3519,-0.51954 0.3519,-0.58656 0,-0.067 -0.55302,-0.51948 -0.55302,-0.51948 l 0.55302,-0.0838 0.4692,1.59204 0.51954,1.72608 0.26814,1.13958 -0.30168,1.80984 -0.22698,1.43274 0.2844,2.6544 0.37914,0.47394 -0.28434,0.711 -0.3792,0.9006 0.0948,3.74454 0.9006,0.8058 0.75834,1.56414 0.5688,0.1422 0.0948,-0.1896 1.422,-0.80574 1.51674,-0.711 1.4694,-0.711 1.65894,-0.8532 0.5688,-0.8532 0.711,-0.1422 0.3792,0.6162 0.3318,1.9908 0.6162,1.46934 2.27514,0.5688 1.0428,0.3318 1.0428,0.1896 0.75834,-1.0428 0.6162,-1.56414 1.4694,-0.6636 0.711,-0.3792 0.94794,0.0474 0.237,1.18494 -0.3318,2.65434 -0.7584,1.4694 -0.23694,0.3318 -0.1422,1.32714 1.04274,0.18966 1.3746,0.23694 1.56414,0.3318 0.6636,1.185 0.4266,0.5214 h 0.3792 l 0.6162,-1.185 0.7584,-1.422 0.711,-0.80574 0.3954,-3.88248 0.70386,-0.23466 0.10056,-0.63678 0.65358,-0.18432 0.21786,-0.53628 0.82116,-2.39646 0.78762,-2.59746 0.21786,-0.1173 0.63678,-0.53628 2.1618,-0.33516 1.34064,0.4692 0.6033,0.26814 h 0.80442 v -1.47474 l -0.6033,-1.60872 v -3.0165 l 2.81538,-0.067 0.93846,-0.53628 -0.20112,-1.34064 -0.67032,-0.67032 -1.00548,-0.26814 -0.067,-0.46926 0.33516,-0.26808 0.53622,-1.3407 0.80442,-0.4692 0.40218,-0.26814 0.46926,-0.87144 0.20106,1.07256 0.46926,1.34064 h 0.53622 l 0.53628,-0.26814 0.40218,-0.13404 0.067,-3.4857 0.87144,-0.26814 1.54176,-0.40218 -0.26814,-1.54176 -0.33516,-1.74288 0.33516,-1.80984 0.67032,-1.74288 v -1.2066 l -0.067,-1.60878 -0.4692,-0.87138 -0.67032,0.20106 -0.7374,0.6033 -0.13404,0.40218 -0.46926,-0.40218 -0.6033,-0.4692 -0.6033,-0.7374 -0.20106,-0.4692 0.26814,-0.67032 0.7038,-0.30168 0.23466,-0.50274 0.8379,-0.30162 0.56976,-0.53628 0.20112,-1.03902 0.90492,0.87144 1.30716,1.27362 1.10598,0.70386 0.67038,0.53622 0.40218,0.30168 0.90492,-0.20112 0.23466,-0.4692 h 0.63678 l 0.30162,0.6033 0.93846,0.16758 -0.0336,-0.2346 -0.56976,-0.43572 -0.16758,-1.27368 0.87144,-0.30162 1.17306,-0.6033 1.03902,-0.26814 1.27356,0.26814 1.27368,0.70386 1.4412,0.13404 1.37418,-0.26814 1.20654,-0.43566 2.34612,-0.70386 0.87144,-0.33516 0.46926,0.10056 0.43572,0.93846 0.53622,1.17306 0.67032,1.6758 1.17312,1.24008 0.13404,0.20112 -0.20106,0.33516 -0.40224,1.4412 -1.10604,0.0336 v 2.31264 l 0.30168,2.31264 0.63678,0.26814 1.74288,1.77636 0.6033,1.27362 1.17306,1.17306 2.37966,1.2066 0.63678,0.50274 0.972,0.6033 0.77088,0.53628 1.25688,0.41892 0.45246,1.99422 1.22334,1.13952 1.15632,2.44668 0.55302,1.13958 1.18986,1.17306 1.15632,1.22334 0.62004,0.486 1.13952,0.5865 1.02228,0.21786 0.38544,1.77636 0.1005,0.77088 -0.13404,0.6033 -1.45794,1.458 -0.33516,2.44668 -0.58656,0.0336 -0.53622,1.13952 -0.2514,0.43578 0.21786,0.2346 0.82116,0.73734 2.83212,0.7206 1.13952,0.30168 1.0893,-0.30168 2.83212,-1.45794 0.46926,-0.35196 0.50274,-0.85464 0.43572,1.22334 0.68706,0.77088 2.93268,1.37418 2.12826,2.145 1.47474,0.78768 1.4412,0.7206 0.75414,0.7038 1.22334,0.45246 0.13404,0.98874 0.50274,1.02228 0.486,0.77088 0.2514,0.15084 0.20106,-1.3407 0.7374,-1.34064 0.97194,-0.38544 1.17306,0.3687 0.63684,0.50274 1.15632,0.0336 0.25134,-0.2514 -0.7038,-0.28488 0.1005,-2.1618 0.90498,-0.21786 0.3519,-0.85464 2.34618,-0.3687 0.85464,-0.32676 0.6033,-1.82664 1.4244,-0.7206 2.85732,-0.69546 0.44406,-1.00554 0.62004,-0.20946 0.38544,-0.9636 0.46926,-0.33516 -0.0354,-0.56886 z m -121.04562,-44.0958 0.0246,1.6344 0.7074,0.53664 0.58548,0.7806 0.63426,0.43908 0.3903,0.29274 0.43908,0.48786 0.12198,0.29274 -1.02456,0.24396 -0.7806,0.19512 -0.4635,-0.87816 -0.26832,-0.3903 -0.26832,-1.14654 -0.41472,-0.4635 -0.48786,-1.0977 -0.17076,-0.43908 0.97572,-0.48786 z m -48.39756,-44.05548 0.41466,-0.21954 0.41472,-0.56106 0.63426,-0.51228 0.21954,-0.29274 1.00014,0.26832 0.36588,1.07334 -0.19512,0.95136 h -0.97578 l -0.36588,-0.26832 -0.43908,-0.14634 h -0.6099 z"
     id="roma"
     name="Roma"
     />
  <path
     d="m 471.65446,600.76734 1.2624,-0.0701 0.42084,0.60786 0.51432,0.28056 -0.46752,0.3273 -0.98196,0.56106 -0.84162,-0.0935 -0.0468,-0.74814 0.14028,-0.86502 z m -4.27836,-3.50682 -0.74808,0.7014 -0.37404,1.12212 -1.54302,1.47288 -0.72474,1.47288 -1.05204,0.21042 -0.58446,0.25716 -0.30396,0.37404 -0.60786,0.3273 0.23382,0.39744 0.46758,0.23376 1.23906,0.11694 0.49098,-0.42084 v -0.42078 l 0.9585,-0.42084 1.40274,-0.72474 1.49622,-1.40274 c 0,0 0.16368,-0.72474 0.16368,-0.84162 0,-0.11688 -0.21042,-1.37934 -0.21042,-1.37934 z m -88.97106,-46.38864 1.05804,-0.34716 1.05798,0.36366 0.21492,0.82656 0.24798,0.87618 -1.0911,0.44634 -0.84306,0.11574 -1.33908,-0.11574 -0.42978,-0.24798 0.21492,-0.9588 0.11568,-0.2976 z m -22.35024,28.81398 c 0,0 -0.26448,-0.52902 -0.33066,-0.66126 -0.0661,-0.13224 -0.6612,-0.99186 -0.6612,-0.99186 l 0.26448,-0.26448 0.7935,-0.99192 c 0,0 0.7935,-0.76044 0.7935,-0.89268 0,-0.13224 -0.39672,-0.39672 -0.39672,-0.39672 l -1.05804,-0.7935 -1.65312,-0.89274 -0.23142,-0.69426 0.3306,-0.6282 0.76044,-1.52088 0.36366,-2.54586 1.15722,-0.39672 1.587,-0.33066 0.33066,-0.36366 0.7935,-0.66126 0.39672,-1.05798 1.02492,-0.9588 0.56208,-0.66126 0.92574,-1.02492 0.9588,-0.23148 2.0499,0.0992 1.15722,-0.4959 0.56202,-0.36372 0.59514,0.36372 0.13224,1.02492 -0.89268,0.29754 -0.72738,-0.36366 -0.85962,1.22334 -2.2152,0.82656 -1.587,0.79344 -0.9588,0.56208 -1.19028,1.02498 -0.19836,2.51274 -0.69432,2.44662 -0.19836,2.3805 -0.13224,0.49596 2.18214,0.0661 0.4959,0.23142 -0.69432,1.02498 -0.36366,0.92574 -0.39678,0.6282 -0.6612,0.82656 -0.7935,0.49596 -0.6282,0.36366 z m -24.36708,-17.72154 1.19022,-0.1653 0.52902,-2.08296 h 0.4629 l 0.52896,1.28946 0.42984,2.41356 -0.26448,2.47968 -0.6282,0.42984 -0.72738,0.36366 -0.39678,1.2564 -0.6282,1.19022 -0.36366,0.2976 0.19836,-2.28132 0.89268,-1.65312 0.49596,-0.56208 -0.36366,-2.51274 z m 203.8842,-94.10514 0.46758,-0.46764 0.37404,-1.12212 0.46758,-1.77678 0.37404,-0.98196 0.32736,-1.3092 0.14022,-0.93516 3.3198,-0.14022 0.6546,-0.46758 1.54302,-0.56112 2.05734,0.14028 1.6365,-0.0468 1.21566,-0.0468 1.0287,-0.74808 1.3092,-0.74814 0.74814,-0.46758 0.56106,-1.44948 0.93516,-1.77678 v -1.26246 l -1.49622,-0.6546 -0.74814,-1.58976 -0.88842,-1.44948 -0.28056,-0.42078 0.56112,-0.23382 1.91706,-0.6546 1.5339,-1.55046 1.39686,-1.38864 0.26448,-0.23148 0.66126,0.26454 0.26454,0.59508 0.66126,-0.0661 2.51274,-0.52902 3.5046,-0.39672 0.7935,-1.587 0.85962,-2.5128 0.19842,-1.85148 -0.19842,-0.72738 -0.72732,-0.92574 -0.33066,-0.7935 -0.92574,-0.3306 -0.19836,-0.99192 -0.66126,-0.66126 -1.59054,-1.48836 -0.3663,-1.87008 -1.8,0.405 -1.395,0.675 -2.115,0.81 -1.395,0.45 -1.44,-0.405 -0.81,-0.9 -1.44,-0.63 -0.99,-0.18 -1.26,0.36 -0.045,3.69 0.27,0.855 -1.125,0.63 -1.26,0.45 -0.99,0.405 -0.27,-0.72 -1.125,-0.045 -0.36,1.665 -0.765,0.765 -0.405,1.305 -0.54,-0.81 -0.63,0.135 -1.26,0.855 -1.53,1.35 -1.395,0.585 -0.405,0.45 -0.585,-1.35 -0.45,-0.36 -0.585,-0.9 -0.99,-0.54 -0.405,-1.08 -0.99,-0.09 -1.26,-1.53 -0.99,-1.485 -2.07,-0.855 -1.485,-0.675 -0.675,-0.675 -1.44,-0.72 -0.585,-3.6 -0.72,-2.52 -0.45,-0.135 -1.845,0.36 -0.63,0.81 -0.63,1.935 -0.72,1.35 -0.855,0.315 -0.585,0.63 -0.765,0.405 -0.855,-0.225 -1.17,-0.495 -0.945,0.315 -0.765,0.765 -1.485,0.855 -0.675,1.305 -0.225,2.34 0.405,0.63 0.09,1.26 -0.585,0.585 -0.855,-0.63 -1.8,0.225 -2.7,0.765 -0.54,0.315 -0.9,-0.675 -1.035,-0.09 -0.45,-0.945 -0.72,-0.855 -1.395,-1.44 -0.27,-1.575 -0.72,-0.315 -0.585,-1.8 -1.26,-2.7 -1.53,-0.855 -0.99,-0.72 -1.215,-0.63 -0.63,-0.72 -0.9,-0.495 -0.36,-0.45 -1.44,-0.27 -1.485,-0.54 0.855,-0.45 0.405,-0.63 0.54,-1.17 0.855,-0.315 0.9,-0.945 1.08,-0.18 -0.81,-0.585 v -1.44 l -1.08,-0.405 -0.72,-1.53 -0.765,-0.63 -0.45,-0.855 -0.9,-0.54 -0.855,-3.015 -0.855,-0.585 -0.495,-0.9 -1.35,-1.305 -1.215,-0.495 -0.495,-0.585 -2.025,0.27 -0.99,0.405 -2.835,-0.27 c 0,0 -0.225,-2.61 -0.405,-2.7 -0.18,-0.09 -1.53,-0.27 -1.53,-0.27 l -4.23,-0.54 -0.765,-0.99 -1.44,-0.675 -2.835,-0.585 -1.575,-0.72 -0.765,-0.54 -0.495,-1.755 -0.9,-2.16 -0.9,-0.225 -0.45,0.225 -1.485,0.72 -0.72,0.72 -1.035,0.405 v 2.7 l 0.72,0.225 0.315,0.855 0.72,1.395 0.765,2.34 0.45,1.665 -0.495,1.8 -0.945,2.79 -0.54,1.71 -0.63,2.43 -1.44,0.45 -2.16,0.18 -0.315,-0.45 -0.765,-0.225 -0.225,-0.405 -1.755,-0.63 c 0,0 -3.33,-0.315 -3.735,-0.315 -0.405,0 -1.935,0.405 -1.935,0.405 l -0.72,1.125 -0.675,0.18 -0.9,0.45 -0.54,-0.405 -0.855,-0.675 -1.26,-0.81 -3.42,-0.45 -3.285,0.09 -0.36,0.765 -0.81,0.315 -1.035,0.405 -1.215,-0.27 -0.72,-0.81 -0.72,-1.35 -0.81,-0.63 -0.585,-1.53 -0.81,-0.765 -1.53,-0.855 -2.025,-0.54 -2.925,-0.765 -1.71,-0.45 0.09,-1.395 0.225,-1.035 0.675,-2.115 0.72,-1.44 0.81,-1.575 1.08,-0.36 0.18,-0.945 1.665,-0.81 2.025,-0.675 1.44,-1.395 0.315,-1.035 -0.27,-0.495 -1.485,-2.97 -0.63,-0.585 -0.72,-2.025 -1.62,-1.575 -0.225,-2.88 -0.54,-0.405 -0.405,-2.43 -0.585,-0.99 -0.495,-0.36 -0.315,-0.72 -1.035,-1.53 -1.17,-0.675 -0.765,-0.72 -1.53,-0.675 -7.245,-0.855 -1.4175,-0.675 -1.35,-1.4175 -1.575,-1.53 -0.27,-7.3575 -0.5175,-0.27 -0.2025,-1.935 -0.7425,-0.315 -0.5625,-0.405 -1.35,0.045 -0.5625,1.305 -1.76796,0.1407 0.012,0.5643 -0.46926,0.33516 -0.38544,0.9636 -0.62004,0.20946 -0.44406,1.00554 -2.85732,0.69546 -1.4244,0.7206 -0.6033,1.82664 -0.85464,0.32676 -2.34618,0.3687 -0.3519,0.85464 -0.90498,0.21786 -0.1005,2.1618 0.7038,0.28488 -0.25134,0.2514 -1.15632,-0.0336 -0.63684,-0.50274 -1.17306,-0.3687 -0.97194,0.38544 -0.7374,1.34064 -0.20106,1.3407 -0.2514,-0.15084 -0.486,-0.77088 -0.50274,-1.02228 -0.13404,-0.98874 -1.22334,-0.45246 -0.75414,-0.7038 -1.4412,-0.7206 -1.47474,-0.78768 -2.12826,-2.145 -2.93268,-1.37418 -0.68706,-0.77088 -0.43572,-1.22334 -0.50274,0.85464 -0.46926,0.35196 -2.83212,1.45794 -1.0893,0.30168 -1.13952,-0.30168 -2.83212,-0.7206 -0.82116,-0.73734 -0.21786,-0.2346 0.2514,-0.43578 0.53622,-1.13952 0.58656,-0.0336 0.33516,-2.44668 1.45794,-1.458 0.13404,-0.6033 -0.1005,-0.77088 -0.38544,-1.77636 -1.02228,-0.21786 -1.13952,-0.5865 -0.62004,-0.486 -1.15632,-1.22334 -1.18986,-1.17306 -0.55302,-1.13958 -1.15632,-2.44668 -1.22334,-1.13952 -0.45246,-1.99422 -1.25688,-0.41898 -0.77088,-0.53622 -0.972,-0.6033 -0.63678,-0.50274 -2.37966,-1.2066 -1.17306,-1.17306 -0.6033,-1.27362 -1.74288,-1.77636 -0.63678,-0.26814 -0.30168,-2.31264 v -2.31264 l 1.10604,-0.0336 0.40224,-1.4412 0.20106,-0.33516 -0.13404,-0.20112 -1.17312,-1.24008 -0.67032,-1.6758 -0.53622,-1.17306 -0.43572,-0.93846 -0.46926,-0.10056 -0.87144,0.33516 -2.34612,0.70386 -1.20654,0.43566 -1.37418,0.26814 -1.4412,-0.13404 -1.27368,-0.70386 -1.27356,-0.26814 -1.03902,0.26814 -1.17306,0.6033 -0.87144,0.30162 0.16758,1.27368 0.56976,0.43566 0.0336,0.23466 -0.93846,-0.16758 -0.30162,-0.6033 h -0.63678 l -0.23466,0.4692 -0.90492,0.20112 -0.40218,-0.30168 -0.67038,-0.53622 -1.10598,-0.70386 -1.30716,-1.27362 -0.90492,-0.87144 -0.20112,1.03902 -0.56976,0.53628 -0.8379,0.30162 -0.23466,0.50274 -0.7038,0.30168 -0.26814,0.67032 0.20106,0.4692 0.6033,0.7374 0.6033,0.4692 0.46926,0.40218 0.13404,-0.40218 0.7374,-0.6033 0.67032,-0.20112 0.4692,0.87144 0.067,1.60878 v 1.2066 l -0.67032,1.74288 -0.33516,1.80984 0.33516,1.74288 0.26814,1.54176 -1.54176,0.40218 -0.87144,0.26814 -0.067,3.4857 -0.40218,0.13404 -0.53628,0.26814 h -0.53622 l -0.46926,-1.34064 -0.20106,-1.07256 -0.46926,0.87144 -0.40218,0.26814 -0.80442,0.4692 -0.53622,1.3407 -0.33516,0.26808 0.067,0.46926 1.00548,0.26814 0.67032,0.67032 0.20112,1.34064 -0.93846,0.53628 -2.81538,0.067 v 3.01644 l 0.6033,1.60878 v 1.47474 h -0.80442 l -0.6033,-0.26814 -1.34064,-0.4692 -2.1618,0.33516 -0.63678,0.53628 -0.21786,0.1173 -0.78762,2.59746 -0.82116,2.39646 -0.21786,0.53628 -0.65358,0.18432 -0.10056,0.63678 -0.70386,0.23466 -0.3954,3.88248 -0.711,0.80574 -0.7584,1.422 -0.6162,1.185 h -0.3792 l -0.4266,-0.5214 -0.6636,-1.185 -1.56414,-0.3318 -1.3746,-0.237 -1.04274,-0.1896 0.1422,-1.32714 0.23694,-0.3318 0.7584,-1.4694 0.3318,-2.65434 -0.237,-1.18494 -0.94794,-0.0474 -0.711,0.3792 -1.4694,0.6636 -0.6162,1.56414 -0.75834,1.0428 -1.0428,-0.1896 -1.0428,-0.3318 -2.27514,-0.5688 -0.6162,-1.46934 -0.3318,-1.9908 -0.3792,-0.6162 -0.711,0.1422 -0.5688,0.8532 -1.65894,0.8532 -1.4694,0.711 -1.51674,0.711 -1.422,0.80574 -0.0948,0.1896 -0.5688,-0.1422 -0.75834,-1.56414 -0.9006,-0.8058 -0.0948,-3.74454 0.3792,-0.9006 0.28434,-0.711 -0.37914,-0.47394 -0.2844,-2.6544 0.22698,-1.43274 0.30168,-1.80984 -0.26814,-1.13958 -0.51954,-1.72608 -0.4692,-1.59204 -0.55302,0.0838 c 0,0 0.55302,0.45246 0.55302,0.51948 0,0.067 -0.3519,0.58656 -0.3519,0.58656 l -0.35196,1.02222 -0.3519,0.31842 -1.02228,-0.10056 -0.1005,-0.18432 0.13404,-1.00554 h 0.33516 l 0.4692,-0.40218 0.26814,-0.26814 -0.53622,-0.33516 -0.1341,-0.4692 -0.067,-1.34064 -1.13958,-0.1341 -0.6033,-0.93846 -0.80436,-0.26814 -0.67032,0.0671 -1.2066,1.27362 -0.93846,0.53622 -1.8099,1.87692 -0.73734,0.33516 -0.6033,0.87144 -1.13952,0.40218 -0.7374,0.7374 -0.4692,1.20654 -0.26814,1.47474 -0.87144,0.40218 -0.40218,0.26814 -1.27362,0.80442 -1.2066,1.0725 -0.93846,0.53628 -0.13404,0.80436 -0.7374,1.13958 -0.53622,0.6033 -0.93846,0.067 -0.46926,0.67032 -0.87138,0.20112 -0.7374,4.42416 -1.27362,0.73734 -2.41314,0.87144 -1.47474,0.80436 0.33516,1.00548 0.33516,-0.20106 0.93846,-0.20112 0.6033,0.13404 2.2791,0.46926 0.6033,0.87144 0.80442,1.34064 1.27362,1.47468 1.40766,0.67038 0.93846,0.4692 0.73734,1.07256 0.80442,1.27356 0.6033,2.21214 1.54176,2.81532 0.6033,2.4132 0.73734,0.87144 1.13952,0.067 1.00548,-0.46926 1.07256,-0.33516 2.8824,0.26814 0.067,0.33516 0.53628,0.26814 0.33516,0.53628 1.54176,0.40218 5.28546,0.71586 2.65434,1.7064 0.7584,0.56874 1.13754,0.3792 1.2324,0.5688 0.5688,0.8532 0.3792,2.93874 1.42194,0.6636 6.44634,0.2844 1.99074,0.474 -0.3792,0.85314 -0.1896,0.948 0.474,0.948 1.89594,3.88674 3.318,0.6636 0.474,0.85314 0.66354,3.1284 -0.37914,2.08554 -1.5168,0.6636 v 2.93874 l 0.948,0.6636 1.61154,0.2844 0.7584,-0.6636 0.948,0.3792 2.03814,2.29884 0.5451,1.3983 c 0,0 0.7584,1.2087 0.8058,1.3983 0.0474,0.18954 0.4977,3.15204 0.4977,3.15204 l 1.06776,0.1047 0.4629,-0.72738 3.63684,0.19836 2.11602,0.7935 0.66126,0.39672 0.4629,-0.26448 0.39672,-0.26448 5.68674,-0.33066 3.10788,0.52902 4.03362,1.45476 3.10788,1.45476 0.72738,0.72738 2.71116,1.19022 3.174,1.587 1.52088,1.52088 1.05798,1.1241 0.85962,0.19842 1.587,0.7935 2.11602,2.18214 1.52088,0.7935 2.0499,2.2482 2.11596,2.0499 2.24826,2.18214 0.66126,1.38864 1.32252,1.38858 0.6612,1.38864 0.72738,0.92574 0.79356,1.2564 0.99186,0.66126 0.46284,0.7935 1.52088,2.84334 0.85962,0.79356 0.39678,1.52082 0.85962,0.52902 1.45476,3.30624 1.52088,2.71116 0.72738,1.38864 0.3306,1.4547 0.66126,0.59514 0.33066,0.85962 0.52896,2.57892 0.59514,1.4547 0.13224,2.3805 0.13224,1.52088 0.66126,1.2564 0.85962,0.85962 1.45476,0.59514 2.90952,0.7935 1.78536,0.26448 2.31438,-0.3306 3.10788,-0.33066 0.59514,-1.9176 1.38864,-2.8434 1.38858,-1.19022 1.52088,-1.78542 0.72738,-0.52896 1.32252,-0.7935 1.587,-0.7935 0.39672,-0.99186 0.4629,-0.1323 0.59514,-0.99186 1.45476,-0.7935 2.18208,-2.04984 1.98378,-0.52902 3.10788,-1.78542 1.52088,-0.39672 0.19836,-0.4629 1.9176,-0.39672 2.77728,-0.66126 3.83526,-0.39672 7.00926,-0.33066 1.38858,-1.65312 0.79356,-0.3306 0.59508,-1.78542 2.11602,-0.72738 3.04176,-0.19836 3.6369,0.33066 4.89324,0.6612 2.04984,0.7935 4.49652,0.66126 4.36428,1.38864 1.4547,0.7935 2.0499,0.66126 1.45476,0.72738 2.18214,0.72738 3.04176,1.38864 2.7111,1.71924 2.8434,1.25634 0.99186,0.33066 0.52902,1.19022 1.38858,0.72738 1.2564,0.52902 0.19836,0.72738 1.52088,0.99186 0.92574,0.4629 0.79356,-0.26454 0.52896,-0.52896 0.72738,0.19836 2.0499,0.72738 1.45476,0.72738 0.39672,1.1241 0.72738,0.13224 v 0.33066 l 1.587,0.46284 3.43848,0.72738 1.65318,0.7935 1.4547,1.587 0.7935,0.72738 1.32252,0.59514 0.59514,0.66126 1.05798,0.46284 0.7935,-0.0661 0.3306,-1.38864 1.58706,0.0661 0.46284,0.52896 1.05798,0.0661 0.52902,1.32252 1.32252,0.19836 0.66126,-0.39678 0.7935,-0.66126 0.66126,-0.26448 0.6612,-0.66126 0.9258,-0.3306 -0.72738,-0.13224 -2.31438,-0.19836 -1.19028,-0.59514 -0.99186,-0.4629 -0.39672,-0.99186 c 0,0 -0.26454,-0.72738 -0.33066,-1.05798 -0.0661,-0.33066 0.26448,-3.43854 0.26448,-3.43854 l 0.72738,-1.9176 0.4629,-1.12416 1.1241,-0.39672 0.52902,-0.72738 2.90952,-1.52088 2.84334,-1.45476 1.52088,-1.587 3.04176,-0.0661 3.37242,0.39678 2.97558,0.52902 1.2564,0.85962 0.52902,0.85962 0.6612,0.39672 0.0661,0.59514 1.65312,0.19836 0.85962,0.33066 1.587,-0.26454 1.2564,-0.72738 1.52088,-1.45476 0.99186,-0.3306 1.78536,0.3306 2.31438,0.59514 0.66126,0.72738 1.52088,0.7935 1.45476,1.45476 1.38864,0.66126 1.587,1.65312 1.19022,0.52902 1.52088,1.38864 0.15294,0.5859 z"
     id="latina"
     name="Latina"
     />
  <path
     d="m 559.4494,431.64576 -1.8,0.405 -1.395,0.675 -2.115,0.81 -1.395,0.45 -1.44,-0.405 -0.81,-0.9 -1.44,-0.63 -0.99,-0.18 -1.26,0.36 -0.045,3.69 0.27,0.855 -1.125,0.63 -1.26,0.45 -0.99,0.405 -0.27,-0.72 -1.125,-0.045 -0.36,1.665 -0.765,0.765 -0.405,1.305 -0.54,-0.81 -0.63,0.135 -1.26,0.855 -1.53,1.35 -1.395,0.585 -0.405,0.45 -0.585,-1.35 -0.45,-0.36 -0.585,-0.9 -0.99,-0.54 -0.405,-1.08 -0.99,-0.09 -1.26,-1.53 -0.99,-1.485 -2.07,-0.855 -1.485,-0.675 -0.675,-0.675 -1.44,-0.72 -0.585,-3.6 -0.72,-2.52 -0.45,-0.135 -1.845,0.36 -0.63,0.81 -0.63,1.935 -0.72,1.35 -0.855,0.315 -0.585,0.63 -0.765,0.405 -0.855,-0.225 -1.17,-0.495 -0.945,0.315 -0.765,0.765 -1.485,0.855 -0.675,1.305 -0.225,2.34 0.405,0.63 0.09,1.26 -0.585,0.585 -0.855,-0.63 -1.8,0.225 -2.7,0.765 -0.54,0.315 -0.9,-0.675 -1.035,-0.09 -0.45,-0.945 -0.72,-0.855 -1.395,-1.44 -0.27,-1.575 -0.72,-0.315 -0.585,-1.8 -1.26,-2.7 -1.53,-0.855 -0.99,-0.72 -1.215,-0.63 -0.63,-0.72 -0.9,-0.495 -0.36,-0.45 -1.44,-0.27 -1.485,-0.54 0.855,-0.45 0.405,-0.63 0.54,-1.17 0.855,-0.315 0.9,-0.945 1.08,-0.18 -0.81,-0.585 v -1.44 l -1.08,-0.405 -0.72,-1.53 -0.765,-0.63 -0.45,-0.855 -0.9,-0.54 -0.855,-3.015 -0.855,-0.585 -0.495,-0.9 -1.35,-1.305 -1.215,-0.495 -0.495,-0.585 -2.025,0.27 -0.99,0.405 -2.835,-0.27 c 0,0 -0.225,-2.61 -0.405,-2.7 -0.18,-0.09 -1.53,-0.27 -1.53,-0.27 l -4.23,-0.54 -0.765,-0.99 -1.44,-0.675 -2.835,-0.585 -1.575,-0.72 -0.765,-0.54 -0.495,-1.755 -0.9,-2.16 -0.9,-0.225 -0.45,0.225 -1.485,0.72 -0.72,0.72 -1.035,0.405 v 2.7 l 0.72,0.225 0.315,0.855 0.72,1.395 0.765,2.34 0.45,1.665 -0.495,1.8 -0.945,2.79 -0.54,1.71 -0.63,2.43 -1.44,0.45 -2.16,0.18 -0.315,-0.45 -0.765,-0.225 -0.225,-0.405 -1.755,-0.63 c 0,0 -3.33,-0.315 -3.735,-0.315 -0.405,0 -1.935,0.405 -1.935,0.405 l -0.72,1.125 -0.675,0.18 -0.9,0.45 -0.54,-0.405 -0.855,-0.675 -1.26,-0.81 -3.42,-0.45 -3.285,0.09 -0.36,0.765 -0.81,0.315 -1.035,0.405 -1.215,-0.27 -0.72,-0.81 -0.72,-1.35 -0.81,-0.63 -0.585,-1.53 -0.81,-0.765 -1.53,-0.855 -2.025,-0.54 -2.925,-0.765 -1.71,-0.45 0.09,-1.395 0.225,-1.035 0.675,-2.115 0.72,-1.44 0.81,-1.575 1.08,-0.36 0.18,-0.945 1.665,-0.81 2.025,-0.675 1.44,-1.395 0.315,-1.035 -0.27,-0.495 -1.485,-2.97 -0.63,-0.585 -0.72,-2.025 -1.62,-1.575 -0.225,-2.88 -0.54,-0.405 -0.405,-2.43 -0.585,-0.99 -0.495,-0.36 -0.315,-0.72 -1.035,-1.53 -1.17,-0.675 -0.765,-0.72 -1.53,-0.675 -7.245,-0.855 -1.4175,-0.675 -1.35,-1.4175 -1.575,-1.53 -0.27,-7.3575 -0.5175,-0.27 -0.2025,-1.935 -0.7425,-0.315 -0.5625,-0.405 -1.35,0.045 -0.5625,1.305 -1.79526,0.1248 -0.80394,-0.1509 -1.60998,-0.0976 -0.97578,-0.19512 -1.21968,-0.73182 -0.82944,-0.73182 -0.39024,-1.36608 0.19512,-1.26846 -0.0486,-1.36608 0.5367,-1.51242 0.63426,-0.97572 0.48786,-0.48792 0.29274,-0.29274 v -0.2439 l -1.3173,-0.73182 -0.3903,-1.26852 v -1.26846 l 0.5367,-0.14634 0.19512,-0.3903 0.53664,-0.48792 0.0976,-0.2439 -0.73182,-0.5367 -0.29274,-1.51242 -0.68304,-2.00034 -0.58548,-1.07328 -0.39024,-2.43942 h -0.29274 l -0.1464,-0.3903 -1.51242,-0.63426 -2.82966,-0.53664 -2.00034,-0.48786 -1.0245,-0.73182 -0.43914,-1.07334 -1.12212,-0.3903 -1.31724,-1.46364 -1.17096,-0.29274 -0.0976,-1.5612 h -0.7806 l -0.34152,-0.68304 -0.82938,-0.43908 v -2.04912 l 0.19518,-0.73182 0.34152,-1.51242 -0.1464,-0.97572 -0.63426,-0.48792 -0.58542,-1.07334 -0.58548,-0.58542 -0.43908,-0.82938 0.48786,-0.58548 0.29274,-0.29274 -2.09784,-0.0486 -2.38776,-1.24224 -0.74172,-0.58644 -0.414,-1.62144 -0.31044,0.70722 -0.32778,0.276 -0.39672,0.93144 -0.207,-0.43122 -0.32772,-0.138 -0.18972,-0.32772 -0.345,-1.19022 -0.22422,-2.2596 -1.84566,-0.69 -2.44938,-0.48294 -0.276,-0.36228 -1.43166,-0.34494 -1.12122,-1.13844 -1.10394,-0.552 -0.62094,-1.31094 -0.69,-1.03494 -1.25022,-1.25208 -0.4635,-1.14654 -0.6342,-0.26832 -0.75624,-0.0486 -1.53678,0.24396 -0.31716,0.51228 -0.26832,-0.29274 0.26832,-1.24404 0.24396,-0.68304 0.63426,-1.2441 0.58542,-1.73196 0.29274,-0.97578 -0.0732,-3.02484 0.34152,-1.34166 0.5367,-0.82944 0.43908,-0.1707 0.26832,-0.63426 0.75624,-0.29274 0.0976,-1.19532 -0.34152,-0.97572 -0.60984,-0.43908 -0.36594,-1.36608 0.43908,-1.12212 1.21974,-0.41472 1.85394,0.0246 0.48786,0.43908 0.12198,0.87822 0.14634,-0.0486 0.51228,-0.58548 0.31716,-0.21954 0.43908,-1.60998 0.46344,-0.0246 0.26838,-0.4635 1.78074,-0.3171 0.97578,-0.24396 0.85374,0.29274 0.3903,0.70746 0.87822,0.0976 0.95136,-0.19518 1.00014,-0.14634 0.14634,-0.17076 -0.7074,-0.43908 -0.0486,-0.56106 0.2439,-1.09776 0.60984,-2.36622 0.43908,-2.63454 0.4635,-0.0246 0.29274,-0.58542 2.31744,-0.19512 1.75632,-0.56112 0.65868,-0.6342 0.82938,-0.29274 0.95136,0.26832 0.51228,0.58548 0.21954,0.87816 0.8538,0.29274 1.26846,0.56106 0.60984,0.65862 0.73182,0.12198 0.4635,0.63426 1.65876,0.29274 1.97592,0.41466 3.53712,-0.14634 0.29274,-1.14654 0.3903,-0.12198 0.3903,-0.68298 2.31744,-0.2196 0.24396,0.48792 2.7321,0.34152 0.34152,0.14634 0.26832,-0.19512 0.5367,-0.5367 0.17076,-3.5127 0.41466,-2.31744 1.78074,-0.68304 0.43914,-0.87816 1.5612,-0.0246 0.3171,-0.8538 1.14654,-1.14648 1.07334,-1.19532 1.43922,-0.65862 1.07334,-1.09776 0.65862,-0.24396 0.3903,-0.7806 0.68304,-1.24404 0.80502,-0.34152 -0.0976,-0.68304 -0.1707,-0.82944 -0.73188,-0.41466 -0.0731,-0.68304 0.3171,-1.82952 0.3903,-1.0002 0.70746,-0.12192 1.75632,-0.65868 0.51228,-0.2439 0.75624,0.21954 0.51228,0.19512 0.97572,0.0486 0.19518,-1.9515 0.6342,-1.19532 0.8538,-0.34152 0.3903,-1.43922 1.17096,-1.21974 1.07328,-1.07328 0.82944,-0.3903 0.36588,-1.43928 0.29274,-1.26846 0.2547,-1.01724 0.56112,-0.9936 0.72474,0.29226 1.09878,0.6429 c 0,0 0.58446,0.56112 0.6429,0.59616 0.0588,0.0348 2.37294,1.21572 2.37294,1.21572 l 1.14558,1.19232 1.19232,1.14552 0.59616,0.57282 0.60786,1.21566 0.3156,1.41444 0.79488,0.3156 1.18062,0.60786 0.88842,0.3273 0.92346,-0.39744 0.49092,-0.61956 2.04564,-0.3624 0.0818,1.22742 0.60786,0.29226 0.18702,0.72474 1.20402,1.14552 1.18062,1.16892 1.19232,1.21572 0.22206,1.04034 -0.19872,1.25076 -1.14558,2.3379 -0.71304,1.26246 -1.11048,1.05204 -0.3273,1.3209 -0.43248,0.19872 -0.44418,0.90006 -0.10524,0.9819 0.10524,1.356 1.2507,1.16892 0.12864,0.49098 -0.16368,0.70134 -0.39744,0.75978 v 2.47818 l 0.39744,0.26886 0.53772,1.76508 0.3156,0.50262 -0.24546,0.73644 -0.3156,1.13388 0.24546,0.61956 0.60786,1.16892 1.18062,1.08714 0.6195,1.85856 1.3209,0.12858 1.60146,-0.22206 0.59616,-1.75344 0.44418,-3.22626 0.77154,-0.24546 0.56106,-0.63126 1.25076,-0.40908 1.11048,0.43248 1.15728,0.58446 0.6546,0.29226 0.14028,0.51432 0.9702,0.40914 1.13388,0.54942 2.39628,0.56106 1.73004,0.59616 1.13388,0.59616 1.25076,1.15722 0.54942,0.63126 0.37404,1.43778 0.80658,0.339 0.60786,0.51432 2.37294,0.6429 5.22498,0.60606 1.35558,0.39678 0.56208,0.79344 c 0,0 0.3306,1.28946 0.42978,1.52094 0.0992,0.23142 0.66126,1.9176 0.66126,1.9176 l 0.59514,0.69432 0.9588,0.36366 0.033,0.39678 0.36366,0.1653 0.13224,2.24826 1.4217,0.19836 0.76044,0.4629 0.42984,0.85962 2.34744,1.1241 1.09104,0.52902 0.36366,0.29754 0.59514,-0.42978 2.61192,0.13224 0.39678,0.76044 0.42984,0.23142 0.13224,0.39678 0.7935,0.4959 0.29754,0.26454 0.33066,-0.26454 0.62814,-0.3306 0.49596,-1.45476 0.59514,-0.59514 0.59514,-1.19022 0.62814,-0.56208 2.28132,-0.6282 1.15722,-0.59508 1.19022,-0.56208 0.59514,-1.22334 1.22334,-0.4959 1.15716,-0.39678 0.56208,-0.42978 0.6282,-0.0992 0.39672,-0.56202 0.36372,-0.033 0.26448,-0.66126 0.72738,-0.19836 0.66126,-0.52902 0.6282,-1.28946 -0.033,-1.68618 -0.56208,-1.19022 -0.3306,-0.6282 0.23142,-1.15722 1.15716,-1.09104 2.57886,-0.6282 1.28946,-0.3306 1.52088,0.72738 2.14908,1.28946 1.38864,0.6612 0.42978,1.68624 1.15722,1.32246 1.88454,0.13224 0.72738,0.6282 0.49596,0.4629 0.92574,-1.12416 0.3306,-1.1241 0.56208,-0.19836 0.4629,-0.89268 0.42978,-0.2976 1.4217,-0.13224 1.45476,-1.02492 -0.16536,0.9588 -0.39672,0.7935 0.23142,0.46284 0.59514,1.78542 0.49596,0.23142 0.13224,0.3306 0.85962,0.49596 0.82656,0.72738 1.02492,0.52902 0.36372,0.99186 0.52896,0.66126 0.69432,0.26448 -0.6612,0.52902 0.0992,1.95066 0.4959,1.12416 1.05804,0.4959 0.69426,0.6282 0.7605,1.45476 0.62814,0.7935 0.7935,0.0661 0.82656,-0.16536 0.49596,-0.29754 0.56208,0.36372 1.68618,0.59508 0.66126,0.33066 1.25634,0.72738 0.26454,-0.7935 0.69432,-0.85962 1.45476,-0.7935 1.19022,-0.76044 1.55394,-0.42984 0.7935,1.05798 0.82656,1.587 0.29754,1.12416 1.0911,0.29754 4.2981,0.69432 2.2152,0.82656 0.72738,0.66126 3.4716,0.1653 2.31432,-0.26448 0.56208,-0.69432 0.69432,-0.6282 0.66126,-0.39672 0.85962,0.42978 0.7935,1.4217 0.56208,2.0499 0.46284,0.7935 0.39678,0.39672 h 1.19022 v -0.6282 l 1.55394,0.16536 0.7935,1.62006 0.76044,1.48782 c 0,0 0.2976,0.29754 0.33066,0.42978 0.033,0.13224 0.36366,0.82656 0.36366,0.82656 l 0.69432,2.18214 1.55394,1.48782 1.02492,0.36372 0.19842,0.4959 0.46284,0.2976 0.49596,0.85962 0.66126,0.82656 2.28132,0.13224 0.29754,0.72738 1.71924,0.62814 0.76044,0.69432 0.66126,1.32252 0.7935,0.76044 0.3306,0.99186 1.15722,0.59514 1.2894,1.38864 0.69432,2.81028 1.65318,2.90952 0.59508,2.8434 1.4217,2.97558 0.6282,0.69438 0.89268,1.55388 0.6282,2.61198 c 0,0 0.39672,1.09104 0.39672,1.25634 0,0.16536 -0.39672,1.7523 -0.39672,1.7523 l -1.4217,1.38864 -0.72738,0.9258 -0.42984,1.22328 0.4629,1.38864 0.85608,0.44412 -0.32736,0.93516 0.74814,1.07544 2.6652,0.37404 0.3273,0.56112 0.9819,0.3273 0.79488,0.51432 0.28056,2.75868 -0.42084,1.35594 -0.6546,0.74814 -1.07544,0.51432 -1.35594,0.46758 -1.49628,0.3273 0.56112,0.46758 0.79488,1.07544 0.93516,0.46758 0.74814,0.70134 1.3092,0.51438 0.6078,0.37404 0.51438,0.42078 0.88836,0.46758 -0.60786,0.51438 -2.15082,0.42078 -0.28056,1.54302 -3.273,0.70134 -1.82358,0.51432 v 1.91706 l -0.9819,0.3741 -1.54296,1.49622 -1.44948,1.35594 -0.3273,0.51438 0.14022,0.46752 1.40274,0.42084 0.14028,0.37404 0.88842,0.56112 1.3092,0.46758 0.51432,0.6546 0.74814,0.51432 -0.60786,0.3741 -0.51432,0.84162 -0.93516,1.26246 -0.51432,2.19756 -0.3741,0.84162 -0.6546,0.28056 -3.9744,0.46758 -0.79488,1.49622 -0.51432,1.21572 -0.79482,0.84162 -1.58976,0.74814 -0.74814,0.74814 -0.7014,1.3092 -0.88836,0.9819 -1.26246,0.51432 -0.70134,0.7014 -1.54302,0.74808 -0.79488,0.74814 -0.37404,1.07544 -0.74814,0.2805 -2.10408,0.74814 -0.70134,0.3273 h -1.21574 l -0.3273,-0.51432 -1.12218,-0.0935 -0.51432,0.28056 -1.16898,0.6546 -1.49622,0.6546 -0.70134,0.74814 -0.3273,1.02864 0.0468,1.16898 0.70134,1.5897 0.51432,0.56112 1.6365,0.93516 0.60786,0.23376 0.51432,0.37404 1.16898,0.3741 -1.21572,0.23376 -0.60786,0.79488 0.42084,0.7014 1.44948,1.54296 0.51432,0.46758 0.56112,0.74814 -0.7014,0.2805 -1.16892,0.51438 -0.70134,0.70134 -0.56112,2.24436 -0.3273,0.56112 -0.3273,3.13272 0.51432,2.9925 0.42084,0.79488 0.60786,0.3273 0.18702,0.37404 0.6546,0.23376 v 0.9819 l -0.51432,0.23382 -0.24942,0.77172 z"
     id="frosinone"
     name="Frosinone"
     />
</svg>
