<svg
   xmlns="http://www.w3.org/2000/svg"
   version="1.1"
   id="campania"
   viewBox="0 0 400 364"
   aria-label="Map of Campania - Italy"
   >
  <path
     id="napoli"
     d="m 162.77513,162.78403 -0.32377,-0.88443 -0.7265,-1.26347 -0.50538,-0.4738 -0.53699,-1.16872 -0.56856,-0.60015 -0.56856,-1.13712 -0.44221,-0.53698 -0.82127,-0.69491 -0.56856,-1.10554 -0.60015,-0.78967 -1.70569,-0.47381 -1.2003,0.15794 -0.53697,-0.28428 0.78966,-0.41063 0.53698,-0.34746 0.60015,-0.41063 0.50539,-0.88443 0.4738,-1.26347 0.34746,-0.85285 -0.22111,-1.26347 -0.31586,-0.37905 -0.0632,-0.2527 0.88443,-0.28428 1.6741,-0.50539 0.41063,-0.18951 0.69491,-0.0316 0.44222,0.44222 0.50539,-0.0632 0.37905,-0.31586 h 0.28427 l 0.56857,0.34745 0.37904,0.12635 0.28428,0.4738 0.41063,0.0316 0.41063,-0.2527 1.29506,-0.28429 0.9792,-0.15793 0.9476,-0.22111 h 1.95838 l 0.88444,0.22111 0.28428,0.7265 0.63174,0.22111 0.85285,0.34746 1.64251,0.0316 1.07396,-0.2527 0.0948,-0.34745 -0.0632,-0.2527 -0.56856,-1.16871 -0.22111,-0.63174 -0.25269,-0.34745 -0.53698,0.0948 -0.53698,0.41063 h -3.53773 l -2.06104,0.15794 c 0,0 -0.7739,0.45011 -0.81336,0.45011 -0.0395,0 -0.74232,0.16581 -0.76598,0.14214 l -0.52909,-0.90813 0.31588,-0.63173 0.50539,-0.18952 -0.44222,-0.37904 -0.50539,-0.5054 -0.25269,-0.63173 -0.37905,-1.01078 -2.08473,0.12634 -1.89521,-0.25269 -1.51617,-0.50539 -0.56857,-1.2003 v -2.21108 l -0.37904,-1.38982 -0.31586,-1.64252 -0.2527,-0.31587 -0.31587,-1.32665 -0.0632,-2.21108 0.2527,-1.07395 0.50539,-0.94761 -0.31587,-1.2003 -0.44222,-2.02156 -0.82125,-0.44221 -0.44222,-1.70569 -0.85285,-1.26348 -1.02064,-0.99697 -1.72377,0.0591 -0.71473,-0.21219 -0.18985,-0.30153 -1.1391,-0.0112 -0.74823,-0.25686 -0.40204,-0.30153 -0.48165,0.26811 -0.61199,0.5962 -0.13215,0.23262 0.0512,0.87909 -0.1141,0.91278 v 0.96983 l 0.45639,0.34229 0.2282,1.25508 -0.057,0.85573 -0.34229,0.57048 -1.31212,0.74163 -0.057,0.4564 -0.57049,0.62753 -0.57048,-0.45639 -0.85573,-0.62754 -1.02688,-0.39934 -1.08393,-0.34229 h -1.19802 -1.08392 l -0.62754,0.39934 -0.74166,0.4564 -0.11409,0.57048 -0.68459,1.76851 -1.25507,0.39934 -1.02688,-0.057 -1.31212,-0.68458 -1.71146,0.28524 -1.19803,0.17115 -1.25507,0.28524 -0.85573,0.51344 -1.82556,0.11409 -1.08393,-0.39934 -0.91278,-0.17114 -0.96983,-0.28525 -0.51343,-0.34229 0.11409,-0.22819 0.74163,-0.51344 0.51345,-0.68459 0.28524,-0.51343 0.1141,-0.68459 -0.62754,-0.51344 -0.62754,-0.34229 -1.48326,-0.2282 -1.65442,-0.11409 -1.25507,0.28524 -0.74163,0.17114 -1.25507,0.5705 h -1.08393 -1.31212 l -1.82556,0.11409 -0.34229,0.28525 -0.45639,0.17114 -0.57049,-0.22819 -0.2282,-0.2282 -1.31211,-0.11409 -0.74164,0.34229 -1.19802,0.057 h -0.96983 l -1.36917,-0.39934 -0.96983,-0.17114 h -1.48326 l -0.74164,0.45638 -0.57049,0.2282 -0.28524,0.57049 -0.34229,0.85573 -0.057,1.02688 -0.057,0.96983 0.1141,0.57049 0.85574,0.51343 0.11409,0.62754 v 1.36917 l -0.11409,1.31212 -0.57049,1.19802 -0.3423,1.25508 -1.02687,0.17115 -0.91278,-0.28525 -0.68459,-0.22819 h -1.14098 l -0.68458,0.22819 -1.02687,0.85573 0.45639,0.62754 0.39934,0.34229 0.74163,0.17115 v 0.39934 l -0.45639,0.057 -0.68458,0.74163 -0.28525,0.5705 -0.74163,0.34229 -0.68459,-0.68459 -0.45639,-0.45639 -0.62753,-0.39934 -0.62754,-0.91278 -0.79868,-0.79868 H 91.8651 l -0.34229,0.68458 -0.17115,0.91278 -0.62754,0.79869 -1.8826,0.22819 -0.74164,0.2282 h -0.62753 l -0.51344,-0.28525 -0.62754,-0.34229 -0.96983,-0.39934 -1.31211,-0.1141 -1.42623,0.57049 -0.39934,0.39934 -0.45638,-0.22819 -0.17116,-0.28525 h -0.91277 l -0.34229,0.79868 -0.17115,0.79868 -0.1141,0.57049 -0.74163,0.057 v -1.31212 l 0.17115,-1.31212 -0.51345,-0.11409 -0.11409,0.57048 -0.68459,0.39934 -1.14097,0.51344 -0.51344,0.62754 -0.34229,0.34229 -0.17115,0.62754 -0.68458,0.11409 -1.48327,-0.28524 -0.57049,-0.62753 -0.85573,-0.1141 -0.17115,-0.34229 0.4564,-0.39935 0.57048,-0.34229 0.51344,-0.74163 2.05375,-0.17115 -0.11409,-1.42622 -0.45639,-1.14097 -0.28524,-0.96983 -0.51345,-1.19802 -0.51343,-1.19803 h -0.79869 l -0.39934,0.51344 h -1.02688 l -1.25507,0.2282 -1.54031,0.17114 h -0.62754 l -0.34229,0.85573 -0.39934,0.91278 -0.1141,0.39935 -0.62754,1.59736 -0.91277,0.62754 -1.02688,0.39934 -0.28525,0.22819 -1.59736,0.39934 -2.51015,-0.28524 -1.88261,0.057 -1.82555,0.17115 -0.1141,0.22819 -0.057,0.57049 0.39934,0.62754 -0.51344,0.62753 -0.96982,0.39934 -0.85574,0.28525 h -0.79868 l -0.62753,-0.2282 -0.39934,-0.51343 -0.62754,-0.17115 -0.1141,0.22819 -0.54201,0.34233 -0.14267,1.31215 v 2.11081 l 1.25508,0.68458 0.57048,0.79868 0.34229,0.57049 0.3423,0.45639 0.11409,0.57049 -0.34229,0.34229 -0.28524,0.74164 v 0.45639 l 0.68458,0.79868 0.1141,0.62753 0.62754,0.74164 0.17115,0.79868 0.34229,0.68458 0.11409,0.34229 0.45639,0.28525 0.057,0.34229 -0.40932,0.61281 0.36471,1.76526 1.05378,2.35075 0.48636,2.26968 0.24318,1.05378 0.24318,1.70227 0.56742,1.13485 0.0811,2.10756 0.24318,2.91817 -0.16212,2.02651 v 1.6212 l -0.0811,2.10757 -0.24319,1.05378 -0.16211,0.72955 -0.16213,1.2159 v 0.89167 l 0.16213,0.97272 1.29696,0.48636 1.45908,0.32424 0.56742,0.24318 0.32425,0.0811 1.05378,-0.4053 2.26969,-0.16212 0.48636,0.16212 0.24318,0.48636 0.48636,0.48636 0.16212,0.48637 0.0811,0.48636 0.97273,0.0811 0.32423,-0.48636 v -0.89167 l -0.24317,-0.8106 h -0.72955 l -0.48636,-0.32424 -0.8106,-0.16212 -0.24318,-0.64849 h 1.2159 l 0.0811,-0.81059 -0.24318,-1.21591 v -1.62121 l -0.56742,-0.56742 -0.48636,-0.48636 -0.4053,-0.32424 -0.24319,-0.4053 -1.05378,-0.40531 h -0.4053 l -0.0811,-0.81059 v -0.72955 l 0.56742,-0.24318 0.56742,-0.64848 0.32424,-0.24318 0.16213,-0.32424 c 0,0 0.48636,-0.4053 0.8106,-0.48636 0.32424,-0.0811 0.72954,-0.32425 0.72954,-0.32425 h 0.72955 l 0.32423,-0.4053 1.37803,0.24319 h 0.89166 l 0.89166,0.0811 0.56743,0.4053 0.72954,0.4053 0.64848,0.97272 1.2159,0.32424 1.21591,0.0811 1.94544,-0.0811 0.64849,0.48636 h 1.62121 l 0.81059,0.16212 1.21591,1.21591 0.8106,0.97272 0.81061,1.05378 v 0.81061 l -1.13485,-0.0811 h -0.89166 -0.64848 l -0.24318,0.97272 v 0.89166 h 0.72954 l 1.05378,-0.4053 v -0.56742 l 0.64849,-0.32424 h 0.48636 1.37802 l 0.32424,0.48636 0.56743,0.4053 0.0811,0.48636 0.40531,0.48636 0.64848,-0.24317 0.4053,-0.89167 1.37802,-0.89166 0.81061,-0.8106 0.16211,-0.72955 -0.24317,-0.56742 v -1.45908 l 0.64848,-0.64849 0.8106,-1.6212 0.56742,-1.37802 0.8106,-0.48637 0.64849,-0.56742 0.64848,-0.0811 0.72954,-0.4053 0.0811,-0.56742 0.48636,0.24317 0.64848,0.40531 0.89167,-0.0811 0.72954,-0.56742 0.32424,-0.89167 0.97273,-0.8106 0.4053,-0.64848 0.97272,-0.4053 0.97272,-0.0811 0.64849,-0.56742 0.89166,0.16213 1.13484,0.64848 1.21591,0.72954 1.29696,0.48636 1.29697,0.64848 1.2159,0.48636 0.64848,0.48636 0.72954,0.64849 0.48637,0.72954 0.40529,0.8106 0.89167,0.16213 1.70226,0.72954 0.0811,0.72954 0.64849,0.48636 -0.0811,0.24318 -0.4053,0.32424 v 0.48636 l 0.56742,0.56743 0.8106,0.0811 1.05378,1.37802 0.0811,0.64848 0.81061,0.32424 1.54015,0.48637 0.24317,0.56742 0.64849,0.4053 0.72954,0.97272 0.32424,0.0811 0.89166,0.56742 0.32425,0.64848 0.89166,0.48636 0.56742,0.97272 0.8106,0.32424 0.64848,0.32424 0.4053,0.64848 0.40531,0.64849 v 0.56742 l 1.37802,0.24318 0.64849,0.24318 1.05378,0.16212 0.0811,0.72954 0.89166,0.40531 1.86438,0.32424 0.89167,-0.32424 1.05378,-0.81061 1.37803,-0.32424 1.05378,0.16212 0.56742,0.64848 0.72955,0.48637 0.48636,0.72954 0.8106,1.05379 1.6212,0.97272 0.24319,0.89166 0.89166,1.2159 0.16212,0.97273 1.2159,2.18861 0.0811,1.13486 0.24319,0.48636 0.24317,0.64848 v 0.72955 0.72954 0.48636 l -0.48636,0.24319 -0.16212,0.48634 -0.56742,0.97273 h -0.4053 l 0.0811,-0.97273 -0.32424,0.32425 c 0,0 0.8106,0 0,0 -0.81061,0 -1.29697,0.56743 -1.29697,0.56743 l -1.29696,1.05377 -1.78333,0.32425 -0.72954,0.81059 -0.64848,0.24318 -0.16212,0.89168 -0.56742,1.05378 -0.16213,0.89166 -0.64847,1.13484 -0.0102,0.7898 -0.42438,0.29036 -1.47412,0.71472 -0.22336,0.53605 -1.13909,0.15634 -1.58581,0.24569 -0.3127,0.40205 0.58073,0.51371 0.49137,0.80407 c 0,0 0.17868,-0.17869 0.0447,0.4467 -0.13402,0.62538 -0.13402,0.62538 -0.13402,0.62538 0,0 -0.35736,0.87108 -0.55838,1.49648 -0.20101,0.62538 -0.20101,0.62538 -0.20101,0.62538 l -0.58072,0.17869 -0.35737,0.37969 -1.31778,0.58072 -0.11168,0.44671 -0.62539,0.35737 -0.26802,0.33501 -1.78682,0.42439 -0.35737,0.31268 c 0,0 -0.64772,0.33503 -1.29545,-0.11167 -0.64772,-0.4467 -0.64772,-0.4467 -0.64772,-0.4467 0,0 -0.22335,0.33502 -0.64772,-0.15636 -0.42437,-0.49137 -0.15635,-0.134 -0.42437,-0.49137 -0.26803,-0.35738 -0.26803,-0.35738 -0.26803,-0.35738 0,0 -0.53604,-0.33501 -0.71472,0.0223 -0.17868,0.35739 -0.17868,0.37971 -0.17868,0.37971 0,0 -0.37968,-0.55839 -0.42438,0.26802 -0.0447,0.82641 0.20102,0.0447 -0.067,0.82641 -0.26803,0.78174 -0.26803,0.78174 -0.26803,0.78174 l -0.60305,-0.1787 -0.22336,-0.53604 -0.33502,0.26804 -0.33503,0.51371 c 0,0 -0.42437,0.17868 -0.0447,0.60304 0.37971,0.42439 0.37971,0.42439 0.37971,0.42439 l 0.78173,0.5807 0.0223,0.24569 -0.40204,0.29036 -0.40203,1.00508 -0.44671,0.44672 -0.067,0.64772 c 0,0 0.0223,-0.35737 -0.3127,0.4467 -0.33503,0.80407 -0.33503,0.80407 -0.33503,0.80407 l -0.26802,0.71473 c 0,0 -0.0223,0.40204 -0.33503,1.04976 -0.31269,0.64773 -0.13401,-0.53605 -0.31269,0.64773 -0.17868,1.18376 0.0447,0.87107 -0.17868,1.18376 -0.22336,0.3127 -0.11169,-0.26802 -0.22336,0.3127 -0.11168,0.58072 -0.0894,-0.17869 -0.11168,0.58072 -0.0223,0.75938 -0.0223,0.75938 -0.0223,0.75938 l 0.22335,1.13911 0.067,0.49138 0.24569,1.47412 0.067,0.22337 0.51371,0.067 0.82641,-0.80407 1.2061,-0.62538 1.18377,-1.34012 1.22844,-0.46904 0.89341,-0.40202 1.20611,-0.9381 1.27311,-0.4467 c 0,0 0.15635,-0.49135 0.44671,-0.46904 0.29035,0.0223 0.29035,0.0223 0.29035,0.0223 l 0.15635,0.55837 c 0,0 0.0447,0.29036 0.29036,0.26804 0.24569,-0.0223 0.24569,-0.0223 0.24569,-0.0223 l 0.42437,-0.55838 0.0223,-0.46904 1.18377,-0.51371 0.64772,-0.73708 1.0721,-0.40203 1.2061,-0.37971 0.51371,-0.20101 c 0,0 0.51372,-0.8934 1.18378,-1.34012 0.67006,-0.44671 0.55838,-0.17868 0.67006,-0.44671 0.11167,-0.26802 0.11167,-0.26802 0.11167,-0.26802 l 0.26803,-0.51371 0.35736,-0.3127 0.11168,-0.29034 0.93808,-0.11169 0.58071,-0.35735 0.89342,-0.22337 0.69239,-0.0447 0.53605,-0.82639 0.35736,-0.42439 0.62539,-0.35735 0.40203,-0.13402 0.15635,0.49137 0.0893,-0.33503 0.40203,-0.0893 0.51371,-0.0447 v 0.0223 l 0.67006,-0.15634 0.96042,-0.0223 0.99599,-0.13219 -0.44748,-0.48123 -0.41063,-0.63174 -0.26849,-0.48959 -0.0632,-0.91601 0.31588,-0.39485 0.53697,-0.93181 0.53698,-0.2211 0.82125,-0.37904 0.4896,-0.85286 0.37904,-1.37403 0.47381,-0.37904 0.63174,-0.30007 h 1.05816 l 0.91602,0.52119 0.56856,-0.36325 0.88443,-0.15794 0.91602,0.30007 0.60015,1.13713 0.12635,0.15795 -0.12635,0.42641 c 0,0 -0.30008,0.7107 -0.30008,0.77387 0,0.0632 0.15794,1.29508 0.15794,1.29508 l 0.75808,0.33165 0.53698,1.12133 1.2003,0.60016 0.42642,0.14215 0.20532,-0.20532 0.44221,-0.5054 0.4896,-0.30007 h 1.26348 l 0.75808,0.28428 0.55277,0.15794 0.53698,-0.11057 0.55277,-0.60014 0.61594,-0.52119 0.22111,-0.88442 0.18952,-0.18952 0.31587,0.72649 0.4896,0.22112 0.53697,0.61594 0.71071,0.25268 1.05816,-0.2053 0.64753,-0.64754 0.58435,-1.08974 0.18953,-0.67913 -0.17373,-0.85284 -1.26348,-0.36325 -0.58435,-0.50539 -0.28429,-0.74229 0.30008,-0.64753 0.18952,-0.60015 -0.18952,-0.39484 -1.16871,-1.21608 -1.13713,-1.10556 -0.56856,-1.1845 -0.33167,-0.458 v -0.91603 l 0.37905,-0.0632 0.4738,0.2685 0.67912,0.18952 0.50539,-0.22112 0.74229,-0.53697 0.18952,-0.77388 0.60015,-0.4896 0.26849,-0.50539 0.44221,-1.35823 0.079,-0.99498 1.2003,-0.56857 0.26849,-0.71069 -0.0474,-0.78968 -0.80546,-0.31587 -1.2003,-0.55277 -0.2527,-0.2211 0.0158,-1.20031 0.34745,-0.9476 0.2369,-0.18953 -0.60015,-0.28427 -1.24768,-0.20532 -0.30007,-0.53697 -0.52119,-1.15293 -0.31586,-0.83705 -0.56857,-0.30008 -0.2369,-1.15291 -0.36325,-0.82127 -0.42642,0.0158 -0.44222,0.17373 -0.26849,0.11055 -0.26849,-0.0474 -0.61594,-0.66332 -0.61594,-0.56856 -0.58436,-0.60015 -0.34746,-0.11056 -0.25269,0.11056 -0.55277,0.64752 -0.30008,0.20532 -1.46879,0.36325 -0.30007,0.25269 -1.01078,-0.14214 -0.61594,-0.44221 -2.22688,-0.22111 -0.0632,-0.85285 0.17373,-0.42642 1.12133,-0.53698 -0.0316,-0.53697 -0.58435,-1.2003 -0.2527,-2.36902 -0.26849,-1.16871 -0.67911,-0.60015 -0.20531,-0.37904 0.11055,-0.60016 0.75808,-0.18952 1.6899,-0.64753 1.83204,-0.50538 2.47957,-0.36326 0.42642,-0.83705 0.2527,-0.91601 0.34745,-0.83706 0.56856,-0.53697 0.2369,-0.20532 0.53698,-0.0948 0.41063,0.22111 2.36901,0.66332 0.61595,0.20532 0.28428,-0.14215 0.0316,-0.4738 -0.079,-1.1845 -0.2527,-0.56857 -0.26848,-0.34745 v -0.75809 l 0.85284,-0.30008 c 0,0 0.82126,-0.52118 1.04236,-0.61594 0.22112,-0.0948 0.82127,-0.17373 0.82127,-0.17373 l 0.28427,-0.83705 -0.14214,-2.59012 -0.30007,-0.52118 -0.56857,-0.58436 -1.15291,-0.50539 -1.16872,-0.66332 -1.2003,-0.53698 -0.67911,-0.61595 -0.0632,-0.75808 0.14214,-0.4738 0.64753,-1.13713 0.15793,-1.16871 0.39484,-0.33166 2.36902,-0.2527 0.4738,-0.37905 h 1.13713 l 0.72649,0.36326 0.23691,0.2369 z m -28.46405,67.43663 0.44078,-0.32039 0.76065,-0.33883 0.42029,0.84056 -1.1205,0.24101 -0.4815,0.33959 -0.63951,-0.5806 z m -43.06828,7.46623 h 2.66178 3.08207 l 0.84057,0.98066 1.40094,0.28018 1.40094,-0.28018 0.98066,-1.12077 1.26085,-0.56036 0.84056,0.56036 0.56038,0.84057 -0.84057,0.70047 -0.1401,0.84056 -0.56037,0.84057 -0.42028,1.40094 -0.70047,-0.2802 -1.12076,-0.84054 -1.40094,0.42027 -1.12075,0.14009 v 0.28018 l -0.14009,0.84059 h -0.70047 l -0.98066,0.56036 -1.82122,0.42029 -0.42029,0.14009 h -1.26084 -0.98066 l -0.84056,-0.98065 -0.28019,-1.40095 v -1.54104 z M 54.32689,188.21735 v 0.62753 c 0,0 -0.39934,0.17115 0.91278,0.1141 1.31212,-0.057 1.31212,-0.057 1.31212,-0.057 l 1.25508,0.17114 v 0.91279 l -0.17115,0.34229 -1.65441,0.28524 -0.39934,0.57049 -0.2282,0.51344 h -0.91278 l -0.34229,0.96983 -0.51344,1.59736 c 0,0 -0.34229,0.68459 0.057,0.68459 0.39934,0 0.39934,0 0.39934,0 l 0.74164,0.45639 0.1141,0.68459 -0.1141,0.51343 h -0.79868 l -0.39935,-0.74164 -0.74163,-0.34229 -0.39934,-0.85573 -1.14097,0.1141 -0.51344,0.28524 v 1.14098 l -0.39934,0.22818 -0.91279,-0.39934 c 0,0 -0.17114,-0.17114 -0.22819,-0.57048 -0.057,-0.39934 -0.057,-0.39934 -0.057,-0.39934 l 0.17114,-1.02688 0.68459,-0.39934 h 0.79868 l 0.62754,-0.34229 c 0,0 0.17114,1.14097 0.45639,-0.39934 0.28524,-1.54032 0.34229,-1.54032 0.34229,-1.54032 l 0.45639,-0.74163 0.057,-2.05375 0.79868,-0.2282 0.74164,-0.51344 v 0.39932 z m -19.24388,6.3396 2.04081,0.051 2.22288,0.37048 0.92391,0.15398 1.57339,0.52446 1.31117,0.65559 0.7867,2.09785 v 1.18007 l 0.39335,1.18004 0.42738,1.10598 -0.0199,0.77424 0.68459,0.57049 -0.34229,0.17114 -0.2282,0.62755 -1.54032,0.28523 v 0.5705 l 0.28525,0.22819 0.17114,0.68457 -0.51343,0.57049 -0.57049,-0.34228 -0.51344,-0.6846 -0.91278,-0.28523 -1.59737,0.28523 -0.68458,0.45639 -0.28524,0.51346 -0.2282,0.45637 -0.28524,0.51344 -0.85574,0.17116 -1.36916,-0.11409 -1.31213,-0.57051 -0.74163,-0.57048 -0.39934,0.17114 -0.11409,0.3423 -1.36918,0.45639 -0.28524,0.28525 -0.57049,0.11409 -0.34229,-0.45639 -0.39934,-0.22818 -0.62754,0.057 -1.02687,0.62753 -0.57049,0.57049 -0.39934,-0.22819 -2.2249,-1.36917 -0.79869,-0.11411 -0.28524,-1.14097 -0.91278,-0.39935 -0.17115,-0.45639 0.62754,-0.62753 1.14097,-0.22818 0.17115,-1.42622 -0.34229,-0.96983 -0.39934,-1.54034 0.39934,-1.4262 0.74163,-0.96983 0.51344,-1.36917 0.39934,-0.62754 -0.11409,-0.51344 -1.14098,-0.39934 -0.45639,-0.74163 -0.17115,-0.45639 0.57049,-0.51344 0.74164,-0.1141 0.57048,-0.51344 0.39934,-0.057 0.057,0.62753 0.34229,0.79869 0.28525,0.28524 0.39934,-0.85573 0.85573,-0.057 0.74163,0.22819 0.1141,1.02688 h 1.02688 l 0.85573,0.34229 0.74163,0.51344 0.79868,0.39934 0.79868,-0.39934 1.00843,-0.27805 z m 102.56239,-1.34411 0.51214,0.0927 0.57742,0.0416 0.12635,0.43318 -0.56743,-0.0474 -0.64848,-0.52004 z"
     name="Napoli"
     />
  <path
     d="m 228.24174,305.76356 0.434,0.043 0.087,0.9113 -0.4774,0.3038 -0.1736,-0.5641 z m -87.19046,-85.065 -0.50539,-0.50539 -0.41063,-0.63174 -0.26849,-0.48959 -0.0632,-0.91601 0.31588,-0.39485 0.53697,-0.93181 0.53698,-0.2211 0.82125,-0.37904 0.4896,-0.85284 0.37904,-1.37405 0.47381,-0.37904 0.63174,-0.30007 h 1.05816 l 0.91602,0.52119 0.56856,-0.36325 0.88443,-0.15794 0.91602,0.30007 0.60015,1.13713 0.12635,0.15795 -0.12635,0.42641 c 0,0 -0.30008,0.7107 -0.30008,0.77389 0,0.0632 0.15794,1.29506 0.15794,1.29506 l 0.75808,0.33165 0.53698,1.12133 1.2003,0.60016 0.42642,0.14215 0.20532,-0.20532 0.44221,-0.5054 0.4896,-0.30007 h 1.26348 l 0.75808,0.28428 0.55277,0.15794 0.53698,-0.11055 0.55277,-0.60016 0.61594,-0.52117 0.22111,-0.88444 0.18952,-0.18952 0.31587,0.72649 0.4896,0.22112 0.53697,0.61594 0.71071,0.2527 1.05816,-0.20532 0.64753,-0.64754 0.58435,-1.08974 0.18953,-0.67911 -0.17373,-0.85286 -1.26348,-0.36325 -0.58435,-0.50539 -0.28429,-0.74229 0.30008,-0.64753 0.18952,-0.60015 -0.18952,-0.39484 -1.16871,-1.21608 -1.13713,-1.10556 -0.56856,-1.1845 -0.33167,-0.458 v -0.91601 l 0.37905,-0.0632 0.4738,0.2685 0.67912,0.18952 0.50539,-0.2211 0.74229,-0.53699 0.18952,-0.77386 0.60015,-0.48962 0.26849,-0.50539 0.44221,-1.35823 0.079,-0.99498 1.2003,-0.56857 0.26849,-0.71069 -0.0474,-0.78968 -0.80546,-0.31587 -1.2003,-0.55277 -0.2527,-0.2211 0.0158,-1.20031 0.34745,-0.9476 0.2369,-0.18953 -0.60015,-0.28427 -1.24768,-0.20532 -0.30007,-0.53697 -0.52119,-1.15293 -0.31586,-0.83705 -0.56857,-0.30008 -0.2369,-1.15291 -0.36325,-0.82127 -0.42642,0.0158 -0.44222,0.17373 -0.26849,0.11055 -0.26849,-0.0474 -0.61594,-0.66332 -0.61594,-0.56856 -0.58436,-0.60015 -0.34746,-0.11056 -0.25269,0.11056 -0.55277,0.64752 -0.30008,0.20532 -1.46879,0.36325 -0.30007,0.25269 -1.01078,-0.14214 -0.61594,-0.44221 -2.22688,-0.22111 -0.0632,-0.85285 0.17373,-0.42642 1.12133,-0.53698 -0.0316,-0.53697 -0.58435,-1.2003 -0.2527,-2.36902 -0.26849,-1.16871 -0.67911,-0.60015 -0.20531,-0.37904 0.11055,-0.60016 0.75808,-0.18952 1.6899,-0.64753 1.83204,-0.50538 2.47957,-0.36326 0.42642,-0.83705 0.2527,-0.91601 0.34745,-0.83706 0.56856,-0.53697 0.2369,-0.20532 0.53698,-0.0948 0.41063,0.22111 2.36901,0.66332 0.61595,0.20532 0.28428,-0.14215 0.0316,-0.4738 -0.079,-1.1845 -0.2527,-0.56857 -0.26848,-0.34745 v -0.75809 l 0.85284,-0.30008 c 0,0 0.82126,-0.52118 1.04236,-0.61594 0.22112,-0.0948 0.82127,-0.17373 0.82127,-0.17373 l 0.28427,-0.83705 -0.14214,-2.59012 -0.30007,-0.52118 -0.56857,-0.58436 -1.15291,-0.50539 -1.16872,-0.66332 -1.2003,-0.53698 -0.67911,-0.61595 -0.0632,-0.75808 0.14214,-0.4738 0.64753,-1.13713 0.15793,-1.16871 0.39484,-0.33166 2.36902,-0.2527 0.4738,-0.37905 h 1.13713 l 0.72649,0.36326 0.23691,0.2369 0.75064,0.0845 1.02631,-0.0201 2.60395,0.32549 2.40865,1.17178 1.15008,0.58588 1.73596,0.62929 0.69439,0.2821 0.217,1.67086 1.43216,0.32549 0.43399,0.39059 1.97467,0.1085 0.34719,-0.30379 -0.41229,-0.1302 -0.1085,-1.38877 0.1736,-0.32549 0.67268,-1.28028 1.04152,-1.12837 0.651,-0.93308 1.085,0.26039 1.2369,0.58589 0.3255,0.26039 0.2387,-0.19529 1.6491,-0.36889 3.1248,-0.3038 0.8462,-0.28209 0.2604,0.91138 1.2586,1.17178 0.1953,1.38877 -0.8897,0.36889 -0.6076,0.1302 -0.4123,0.26039 0.5425,0.84629 0.4774,0.45568 0.5859,1.80106 1.1718,1.19348 c 0,0 0.8897,0.30379 1.7577,0.30379 0.8679,0 1.1066,-0.26039 1.2802,-0.26039 0.1736,0 1.2586,-0.36889 1.4105,-0.36889 0.1519,0 2.1049,0.34719 2.1049,0.34719 l 2.2784,0.65099 0.5208,0.19529 0.1953,-0.28209 0.9331,-0.54249 0.5425,-0.52079 0.4556,-0.34719 1.8445,0.0651 0.2604,0.75948 c 0,0 0.4557,0.4991 0.4774,0.58589 0.022,0.0868 1.2586,0.69439 1.2586,0.69439 l 1.1718,0.47739 0.2387,0.28209 0.8679,-0.19529 0.8463,-0.56419 0.5425,-0.45569 0.4557,-0.69439 c 0,0 1.0633,-0.32549 1.1718,-0.32549 0.1085,0 1.1934,0.21699 1.1934,0.21699 l 1.6275,0.45569 0.4123,0.4557 0.5859,-0.43399 0.8029,-0.434 2.3869,-1.10668 0.5642,-0.58588 1.2369,-0.69439 2.3435,-0.54249 0.3906,-0.43399 0.4991,0.0217 0.022,2.43035 0.7378,0.32549 1.3454,0.56419 2.3652,1.15008 c 0,0 0.434,0.88968 0.434,0.99818 0,0.10849 0.3472,0.15189 0.5208,0.15189 0.1736,0 0.651,-0.69438 0.651,-0.69438 l 3.1464,-0.1085 0.3255,0.60759 h 1.7794 l 0.7811,-0.39059 0.8246,-0.80289 0.6293,0.0868 0.4123,0.49908 0.3255,1.47557 c 0,0 2.2568,0.56419 2.4086,0.56419 0.1519,0 0.8897,0.2387 0.8897,0.2387 v 0.58588 l 0.868,0.0434 0.6076,-0.84629 0.3906,-0.86798 0.868,-0.1953 0.6076,-0.43399 1.0632,0.2821 2.387,1.19347 3.5153,0.54249 3.3635,0.60759 1.9529,0.60758 3.9927,0.56419 4.1664,0.60759 0.8028,0.30379 0.4991,0.95479 0.4774,1.64916 0.4774,2.34355 0.6727,1.23688 0.9114,0.39059 0.1519,1.86616 0.6509,1.30198 1.2586,1.12838 1.1284,0.52078 0.4123,0.86799 h 0.5208 c 0,0 0.3038,-0.4774 0.4557,-0.5208 0.1519,-0.0434 0.434,-0.28209 0.434,-0.28209 l 2.886,-0.58588 1.302,-0.434 0.4123,-0.75948 c 0,0 1.1284,-0.54249 1.3019,-0.58589 0.1737,-0.0434 3.4503,-0.56419 3.4503,-0.56419 l 1.085,-0.28209 0.3906,0.34719 0.5858,0.1519 0.9114,-0.217 0.7378,-0.45569 -0.1519,-0.73778 -0.5859,-1.12838 -0.8246,-1.36707 -0.065,-0.2604 0.434,-0.34719 0.2604,-1.38877 -0.3689,-1.38877 -0.3472,-0.88969 -0.6944,-0.52079 0.043,-4.33991 0.3473,-1.28027 1.1717,-2.34355 0.4774,-0.99818 0.7161,-0.1736 1.1935,-0.60759 0.5859,-0.54249 1.2151,-1.21517 c 0,0 1.085,-0.32549 1.1718,-0.41229 0.087,-0.0868 0.5208,-3.21154 0.5208,-3.21154 l 0.5425,-3.97102 0.6293,-1.23687 0.5859,-1.21518 0.4773,-0.80288 c 0,0 2.8644,0 3.0163,0 0.1519,0 1.7794,0.26039 1.7794,0.26039 l 1.0361,0.91138 1.5407,-0.0271 0.4913,0.39953 1.918,0.19948 0.3222,0.84391 0.7979,0.46031 0.3682,0.78254 1.1815,1.13545 0.5984,0.58307 0.844,0.2455 0.9206,-0.23015 0.537,-0.33757 0.2609,0.36825 0.4756,0.24551 0.1381,1.15079 -0.8286,0.2455 -1.1968,1.27354 -0.3222,0.42964 0.1228,0.36825 0.7518,0.30688 1.1201,0.44497 0.6905,-0.41429 0.537,-0.41428 0.8286,0.12275 0.2608,0.78254 -0.7979,0.23016 -0.2761,1.07407 -0.3223,1.2582 0.3223,1.65714 1.2275,1.22751 0.3375,0.41429 0.4143,0.30688 -0.1381,0.2455 -0.6598,0.18413 -0.4296,0.79788 -0.3682,0.15344 -0.2916,2.11746 -0.3069,0.21481 0.2762,1.33492 0.1074,2.50106 0.6291,0.30688 0.1995,3.26825 0.8286,0.41428 0.5524,0.59842 2.9,0.64444 0.6291,0.56773 0.7672,0.38359 0.2148,0.75185 1.3656,1.18149 1.1508,1.19682 0.583,1.13545 1.2122,0.61375 1.7799,0.59842 2.3169,1.13545 0.3376,0.81322 1.4116,0.3836 c 0,0 1.1201,0.64445 1.1815,0.64445 0.061,0 1.0894,0.16878 1.0894,0.16878 l 1.2275,-0.21482 0.4757,-0.33756 0.3376,0.13809 0.3222,0.47566 0.3222,0.12276 0.1995,1.61111 h 2.0407 l 0.061,-0.55238 0.2302,0.18412 0.4296,0.41428 -0.2608,0.87461 -0.5524,2.2402 -1.2889,1.36561 c 0,0 -0.8593,0.32223 -0.9974,0.49102 -0.1381,0.16877 -0.7365,0.65977 -0.7365,0.65977 l -1.0434,0.5217 -1.4116,0.35291 -0.3989,2.60846 -0.6598,1.18149 -0.5831,0.55237 -0.6138,1.81059 -0.2455,0.64445 -0.5677,0.67512 0.1841,0.29154 0.3069,0.32223 1.4884,0.35291 1.2428,0.58305 0.5678,1.24286 1.1507,1.13545 0.3223,0.13809 0.2915,-0.15344 0.9513,-0.33756 0.8593,0.39894 0.3836,0.65979 0.3682,0.30688 0.2762,0.35291 2.2556,0.0767 0.3682,-0.44498 0.3529,0.15345 0.7672,0.23016 0.5371,0.99735 0.3682,0.49101 0.5677,0.26084 -0.1227,0.15344 -0.6444,0.41428 0.1841,0.6291 0.8132,0.35291 0.8439,0.29153 0.5984,-0.5984 1.3963,0.26084 0.6291,0.64445 0.1688,0.24551 -0.1688,0.33756 -0.5677,0.5984 -0.583,1.18149 -0.2762,0.53703 0.2301,0.65979 0.6138,1.16614 0.6444,0.6291 0.5677,1.1201 0.1535,0.50635 -0.3069,0.50635 0.077,0.73652 1.2429,0.5984 0.3069,0.32223 -0.353,0.87461 -0.5677,1.1201 -0.2301,0.62909 0.1994,0.58307 0.6291,0.5984 1.1815,0.62912 0.5524,0.52168 0.1534,0.27619 -0.1534,0.2762 -1.2122,1.15078 -0.8439,0.4143 -0.061,0.39894 -0.5063,0.13809 -0.061,0.36826 0.3836,0.50635 0.5984,0.5984 0.5524,1.71852 1.2122,1.16614 1.1508,0.61375 2.946,0.56772 1.1201,0.58308 0.6598,0.67514 0.5217,2.30157 0.5524,1.16614 1.2582,1.21217 0.5984,1.1508 0.1227,0.44497 -0.5063,0.29152 0.031,0.26086 0.9053,0.18412 1.1661,0.55237 0.5984,0.59842 2.363,1.21218 2.3936,0.5217 1.0588,1.1814 0.8899,0.3683 0.3376,0.8286 0.9973,0.3529 0.046,0.3989 1.2428,0.4297 1.2429,2.3476 0.5063,0.5677 0.6138,1.2122 0.7212,0.2301 0.491,-0.2608 0.6444,-0.5984 c 0,0 0.6137,-0.3223 0.6905,-0.3223 0.077,0 0.7825,0.1381 0.7825,0.1381 l 0.2302,0.7519 1.7492,0.6291 2.363,1.2122 1.1814,1.1047 0.6445,0.6751 0.2762,1.1048 -0.3376,1.7799 -0.3683,1.5958 0.3376,1.9026 0.6444,3.5751 1.1969,1.1508 0.5524,0.6445 0.8439,0.3222 0.3222,0.8132 1.1815,1.1815 0.5677,1.7492 1.1968,1.1508 0.5984,0.6138 0.8746,0.2915 0.1228,0.445 0.7058,0.3836 0.4757,0.2301 0.7211,-0.1841 0.8439,-0.2455 0.9514,0.1995 1.7031,0.5677 2.363,1.2275 1.7646,0.5677 0.8132,0.3069 0.4143,0.9053 0.3989,0.7672 0.7825,0.4143 0.2916,0.4296 0.4756,0.445 0.092,0.6444 -0.8286,0.1995 -0.5217,0.5063 0.061,2.0561 0.3836,0.9667 0.5677,0.6137 0.1688,0.4143 -0.1381,0.1688 -1.1815,1.2582 -0.5523,0.491 -0.844,0.3683 -0.2301,1.1508 0.4756,1.473 0.5524,1.0741 0.6291,0.6597 0.1688,0.5371 -0.2302,0.6291 -0.2761,0.6598 -2.6392,0.491 -1.7645,0.583 -0.5524,1.2122 -1.2275,1.1661 -1.1201,1.1508 -3.5138,0.5985 -0.3222,2.1328 -0.2762,1.4423 -1.1968,0.5677 -1.1968,0.5984 -0.5985,0.5678 -0.1381,0.4756 0.1995,0.7212 0.5984,1.1968 0.1688,0.5217 -0.7825,0.583 -0.5831,0.5678 -0.9513,0.4449 v 0.2762 l -0.4603,0.2455 0.2148,1.3963 0.5831,1.2582 0.6291,0.5524 0.2761,1.4117 0.5831,0.1534 v 0.9973 l -0.5984,0.3529 -0.3222,1.7339 -0.1688,0.9513 0.2302,1.427 0.061,0.7365 -0.1074,0.4603 -0.5677,1.2122 -0.5677,1.0894 -0.6291,0.6291 -0.5678,1.7492 -0.5984,1.1968 -0.5524,1.1202 -1.1968,1.1814 -1.8259,0.6291 -1.7492,0.077 -0.5217,0.5217 -0.491,0.2301 0.445,0.2455 1.2275,0.077 1.0741,0.5678 1.2582,0.6137 0.5677,1.1815 0.583,1.7339 0.2149,0.5216 -0.1688,0.353 -0.6291,0.2915 -0.7826,0.2608 -0.3989,0.89 -1.2122,0.5831 -1.7492,0.6137 -0.8746,0.7979 -0.583,0.061 -0.2762,-0.3069 -1.1815,-1.2122 -1.1201,-1.0434 -0.6598,-0.6751 -0.1381,-0.7825 0.1381,-0.982 0.537,-0.5217 0.5217,-0.7826 -0.5217,-0.4756 -0.4296,-0.445 -0.4296,-0.3529 h -0.4757 l -0.1381,0.8746 -0.3989,0.4603 -0.1688,0.3069 -0.8286,0.1688 -0.4757,-0.89 -0.6291,-0.092 -3.6365,-0.5524 -3.0546,-0.2429 -2.0398,0.3039 -2.3435,0.5641 -1.302,0.6944 -3.4719,0.4774 -1.6492,0.434 -0.6076,0.7812 -1.4321,0.4774 -0.3472,0.4774 -0.6076,1.2585 -1.2152,1.302 -0.6944,1.1284 -0.651,1.736 0.087,1.4755 -0.4774,0.1302 -0.4773,-0.651 -0.8246,0.217 -1.1284,0.5208 -1.2152,0.7378 -0.7378,0.3038 -0.5642,1.4322 -0.9981,1.1283 -0.651,1.2152 -1.085,1.0416 -1.3888,2.4303 -0.5208,0.6944 -0.4773,2.3002 -1.2152,1.085 -0.3906,0.1302 h -0.217 c 0,0 -0.2604,-0.3472 -0.434,-0.3906 -0.1736,-0.043 -0.8246,-0.5208 -0.8246,-0.5208 l -1.8662,-0.3472 -1.9963,-0.5642 -1.7794,-0.434 -2.3001,0.3472 -1.085,0.6076 -0.434,0.3906 -0.434,-0.1302 -1.2586,-0.7812 -2.1699,-1.2152 -1.3454,-1.2585 -0.3472,-0.7812 -0.2604,-0.1736 -0.087,-0.2604 -0.6076,-0.3038 -0.217,-0.7378 -0.6943,-0.7378 -0.434,-0.6076 -0.3472,-0.2604 -0.3038,-0.5642 -1.9964,0.087 -0.3906,0.3037 -1.3888,0.6076 -0.3906,0.3906 -0.3037,0.4774 -0.434,0.1736 -0.3472,0.434 -4.1229,-0.087 -0.434,-0.3906 0.3906,-1.6492 0.5642,-0.2603 0.3038,0.4339 1.1283,0.1736 0.3906,-0.3906 0.7378,-0.3472 v -2.0831 l -0.4774,-0.3038 -0.3906,-1.4322 -0.5208,-2.1699 -1.0415,-2.2134 -0.868,-1.4756 -1.6058,-1.6057 -0.3906,-0.9114 -0.9548,-0.3038 -0.9981,-0.5208 -1.8228,-0.651 -1.1718,-1.2151 -1.085,-0.4774 -1.1717,-1.085 -0.7812,-1.4322 -0.9982,-0.9982 -1.302,-1.3453 -0.434,-0.6076 -0.8245,-0.3472 -0.651,-0.3906 -4.3399,-0.2604 -1.3888,-1.3888 -0.3906,-0.9982 -1.2586,-1.3019 -1.2586,-1.0416 -1.1717,-1.302 -0.5642,-1.0416 -0.9114,-0.4339 -0.1736,-0.434 -0.651,-0.2604 -0.6944,-1.3454 -1.0415,-0.3906 -0.4774,-0.651 -1.3888,-0.6076 -1.8662,-0.3037 -0.9982,0.2603 -1.2151,0.651 -2.0398,0.087 -1.4322,0.3472 -1.3019,1.2586 -0.5208,0.6944 -1.3888,0.217 -0.9548,-0.3038 -0.7378,-0.651 -0.9114,-0.2604 -0.8679,-0.043 -0.3038,0.6076 h -0.7812 l -0.4774,-0.1736 -0.8246,-0.3906 -0.3038,-0.868 -1.3454,-0.651 -0.4773,-0.5642 -0.217,-1.4756 -1.1284,-0.3471 -0.4774,-1.1284 -0.4774,-1.085 -0.5642,-0.6944 -0.6944,-0.9981 -1.4755,-0.434 -0.1302,-1.1284 -0.434,-0.3472 -0.217,-0.5208 -0.868,-0.3038 -0.1736,-0.5208 -4.2097,-0.3038 -1.3888,-1.2586 -0.5208,-0.2603 -1.1284,-0.9548 -1.9095,-0.3038 h -1.302 l -0.1302,1.2152 -1.302,-0.2604 -2.2567,-1.1284 -0.6944,-0.5642 -1.3454,-0.7378 -0.4339,-1.7793 -0.2171,-0.2604 -0.1735,-1.085 0.2603,-0.3472 0.651,-0.6076 1.302,-0.5208 0.9548,-1.2586 1.3888,-0.4774 0.7377,-0.217 0.3906,-0.9547 0.5642,-0.8246 0.651,-1.736 0.1302,-3.6889 v -2.5606 l -0.7378,-2.3869 -0.651,-0.7378 -0.2169,-0.6944 0.1301,-0.9114 0.434,-3.1247 1.4756,-0.1302 0.217,-0.3906 0.868,-0.217 0.7812,-0.4774 1.1283,-0.043 0.217,-0.5642 0.3906,-0.1302 0.4774,-1.4755 0.5208,-0.3472 0.3038,-0.434 0.651,-0.7812 0.217,0.3472 -0.4774,0.651 0.3038,0.1736 0.434,-0.217 1.085,-0.5642 0.6509,-0.217 0.4774,-0.7378 0.3038,-4.2097 -0.1302,-2.604 -0.3906,-0.2603 -0.434,-2.0398 -0.3038,-0.434 -0.1735,-0.8246 -0.3038,-0.1302 -0.5208,-0.7378 -0.9548,-2.9511 -1.2152,-2.2568 -1.1717,-2.3869 -0.5642,-1.2152 -0.6944,-0.5642 -0.5208,-1.2152 -0.5642,-0.5207 -0.651,-1.3454 -0.6076,-0.4774 -0.3038,-0.868 -0.4774,-0.1302 -0.3472,-0.868 -0.5642,-0.4339 -1.0849,-2.43037 -0.651,-0.5642 -0.434,-1.21518 -0.7812,-0.56418 -0.5208,-1.73596 -0.6076,-1.38877 -0.4774,-0.65099 -0.5207,-0.217 -0.2605,-0.73779 -0.5641,-1.73596 -0.5208,-1.08498 -0.6944,-1.73596 -1.085,-2.34355 -0.3906,-1.08498 -0.868,-0.78118 -1.1717,-2.43035 -0.651,-0.5208 -0.5642,-1.12838 c 0,0 -0.217,-0.56418 -0.3906,-0.60758 -0.1736,-0.0434 -0.6944,-1.64916 -0.6944,-1.64916 l -1.2152,-1.47557 -0.4774,-1.04158 -0.6509,-0.434 -0.5208,-1.17178 -1.1718,-1.38877 -0.6076,-1.04158 -1.3454,-1.12838 -0.5208,-0.78116 -0.5208,-1.04158 -1.2151,-0.6076 -0.5208,-1.04158 c 0,0 -1.0416,-0.52078 -1.2586,-1.30197 -0.217,-0.78119 -1.1284,-1.08498 -1.1284,-1.08498 l -1.2151,-1.34536 -1.2152,-1.08498 -0.6076,-0.5642 -0.2604,-0.73779 -0.9548,-0.60758 -1.0416,-1.21518 -1.3019,-0.39058 -1.0416,-1.21518 -1.2586,-1.30197 -2.3435,-1.17178 -0.4774,-0.434 -2.3436,-1.08498 -1.4755,-0.60758 -0.9114,0.4774 v 0.65098 l 0.5642,0.30379 -0.3472,0.3472 -0.7378,-0.26039 -0.434,-0.69439 -0.1736,-0.5208 -0.651,0.0868 -0.5208,1.30198 -0.087,1.17177 h -0.5208 l -0.2604,-0.73779 -0.6943,-0.0868 -0.2604,0.47739 -1.0416,0.3472 -1.8228,0.47739 -0.651,1.99635 -0.6076,1.04158 -0.7377,0.6076 -0.3906,1.25857 -0.7378,0.78119 -0.434,1.51897 -0.651,1.21516 -1.302,0.21699 -2.7775,-0.26039 c 0,0 -1.0416,-0.47738 -1.2152,-0.60758 -0.17356,-0.1302 -0.56415,-0.56418 -0.56415,-0.56418 l -1.77936,-0.73779 -1.12838,-0.52079 -2.60394,-0.21699 -2.03976,0.21699 -0.73779,0.65098 -0.43399,1.17178 -0.82458,0.65098 -0.2604,0.78119 -1.25857,0.26039 -1.34538,1.17178 -1.21517,0.60758 -1.12838,1.12839 -0.47738,0.60758 -0.65099,1.86616 -0.47739,0.73779 -0.434,0.1302 -0.56418,-1.21518 -2.12656,0.30379 -1.69257,0.6076 -1.69256,0.56418 -1.21517,0.56418 -0.6076,0.26041 -1.04157,-0.1302 -0.86799,-0.60758 -0.52078,-1.21519 -0.60759,-0.60758 -2.21335,-1.25858 -2.30016,-0.30379 -1.82276,0.43399 -1.12838,1.12838 z"
     id="salerno"
     name="Salerno"
     />
  <path
     d="m 176.44861,117.26024 0.26802,-0.96042 0.33503,-0.78174 0.17868,-0.24569 0.4244,0.26803 0.6254,1.18377 0.5807,0.55838 0.603,0.67006 0.6701,1.16144 0.1563,0.24568 -0.2233,0.26802 -0.2904,0.40204 0.2904,0.20102 0.5137,0.62539 0.6701,0.51371 0.201,0.33502 -0.201,0.26803 -0.6031,1.80916 -0.603,1.71982 -0.6701,1.22844 -0.5361,0.55838 -0.5807,1.16143 -0.1563,0.80407 -0.3127,0.55839 -0.69241,-0.20102 -1.29545,-0.58072 -0.46903,-0.29036 -0.35737,-3.08227 0.3797,-3.0376 0.22335,-1.34011 v -0.55838 l -0.31269,-0.33503 -0.55839,-0.75941 -0.11167,-0.80406 0.22336,-0.26803 0.26802,-0.35736 0.84874,-0.33503 0.33502,-0.40204 z m -13.60195,45.48194 -0.3953,-0.84259 -0.7265,-1.26348 -0.50538,-0.4738 -0.53699,-1.16872 -0.56856,-0.60015 -0.56856,-1.13712 -0.44221,-0.53698 -0.82127,-0.69491 -0.56856,-1.10554 -0.60015,-0.78967 -1.70569,-0.47381 -1.2003,0.15794 -0.53697,-0.28428 0.78966,-0.41063 0.53698,-0.34746 0.60015,-0.41063 0.50539,-0.88443 0.4738,-1.26347 0.34746,-0.85285 -0.22111,-1.26347 -0.31586,-0.37905 -0.0632,-0.25269 0.88443,-0.28429 1.6741,-0.50539 0.41063,-0.18951 0.69491,-0.0316 0.44222,0.44222 0.50539,-0.0632 0.37905,-0.31587 h 0.28427 l 0.56857,0.34745 0.37904,0.12635 0.28428,0.4738 0.41063,0.0316 0.41063,-0.2527 1.29506,-0.28428 0.9792,-0.15793 0.9476,-0.22112 h 1.95838 l 0.88444,0.22112 0.28428,0.72649 0.63174,0.22111 0.85285,0.34746 1.64251,0.0316 1.07396,-0.2527 0.0948,-0.34746 -0.0632,-0.25269 -0.56856,-1.16871 -0.22111,-0.63174 -0.25269,-0.34746 -0.53698,0.0948 -0.53698,0.41063 h -3.53773 l -2.06104,0.15794 c 0,0 -0.7739,0.45011 -0.81336,0.45011 -0.0395,0 -0.74229,0.16583 -0.76598,0.14214 l -0.52909,-0.90812 0.31588,-0.63174 0.50539,-0.18952 -0.44222,-0.37904 -0.50539,-0.5054 -0.25269,-0.63173 -0.37905,-1.01078 -2.08473,0.12635 -1.89521,-0.2527 -1.51617,-0.50539 -0.56857,-1.2003 v -2.21108 l -0.37904,-1.38982 -0.31586,-1.64252 -0.2527,-0.31586 -0.31587,-1.32666 -0.0632,-2.21108 0.2527,-1.07395 0.50539,-0.94761 -0.31587,-1.2003 -0.44222,-2.02156 -0.82125,-0.44221 -0.44222,-1.70569 -0.85285,-1.26348 -1.00485,-1.0246 0.45209,-1.32862 0.58435,-1.16081 0.59226,-0.57647 1.1924,-0.61594 0.63228,-1.13407 0.55838,-0.24569 0.62539,-3.28328 0.58072,-0.60306 v -0.33503 l -0.0893,-0.24568 -0.17868,-0.24569 -0.0223,-1.02743 0.62538,-0.22335 0.51372,0.51371 0.29035,0.15635 0.15635,1.27311 0.11168,-0.0893 0.35736,-0.55838 1.65281,0.17868 1.8985,0.64772 1.63048,0.51372 1.25078,0.67005 0.11167,0.13402 0.40204,0.11167 0.64772,-0.84874 1.2061,-0.62539 0.51371,-0.69239 0.53605,-0.20102 0.42437,-1.07209 0.44671,-0.17868 0.22335,-0.40204 2.50155,0.26803 1.67515,0.22335 0.89341,-0.13401 0.26803,-0.58072 1.78674,-0.20102 0.6254,-1.09443 0.201,-0.20101 0.3797,0.15634 1.2062,1.11676 1.1167,1.25078 1.1838,1.0721 0.3127,1.47413 0.402,2.12185 1.1615,2.41221 0.603,1.20611 1.1838,0.46903 1.0721,1.20611 0.7594,0.26802 0.4467,-0.26802 1.7645,-0.29036 0.5583,-0.26802 1.2061,-0.58072 0.1341,-0.22335 -0.089,-0.40204 -0.603,-0.53605 -0.6701,-0.69239 v -0.58071 l 0.6031,-2.2782 0.3573,-2.18886 -0.335,-1.94317 -0.201,-0.3797 0.022,-1.04976 1.0274,-0.0893 0.3574,0.33502 1.7868,0.67007 0.3574,0.13401 h 0.3573 l 0.1787,-1.56347 -0.5137,-0.46904 -0.022,-0.3127 0.2903,-0.15635 0.4244,-0.35736 1.4518,-0.20102 0.268,0.49138 0.1117,1.22844 0.335,1.07209 -0.2233,0.80407 -0.4691,0.33504 0.2904,0.62538 0.6477,0.69239 0.201,0.13402 0.4021,-0.13402 0.2457,-0.42437 0.2903,0.20102 0.067,0.20102 2.2782,0.58072 0.8041,0.22335 0.402,-0.20102 1.1615,-1.22844 1.2284,-1.22844 0.1117,-0.73706 0.5584,-0.20102 0.469,0.35736 1.0051,0.3127 0.7371,-0.24569 0.3573,-1.60814 0.2681,-0.42437 0.2233,-0.44671 0.1117,-0.67006 1.4741,-0.40203 0.9828,-0.51371 0.67,-0.58072 1.2955,-0.60306 1.3177,-0.33502 0.9605,-0.22336 1.1614,-0.60305 0.6477,-0.64772 0.6924,-0.17868 0.2234,-1.80916 0.2903,-0.11168 0.4914,-0.89341 1.2508,-0.31269 1.5411,0.37969 0.4467,0.17869 h 0.4467 l 0.4467,-1.31778 1.7199,-0.53605 1.8091,-0.64772 1.1838,-0.58072 1.1614,-1.16143 0.6254,-0.64773 0.5584,-1.11676 1.1168,-1.1391 1.072,-1.27311 0.8264,-0.60305 1.1168,-0.51372 0.1117,-0.4467 -0.1787,-0.20102 -0.4914,-1.11677 -0.5807,-1.16143 -0.3127,-0.29036 -0.335,0.17868 -0.268,0.26802 -0.2904,-0.15634 -0.3127,-0.49138 -0.469,-0.40203 -0.1564,-0.58072 -0.335,-0.40204 -0.2457,-0.78173 0.045,-1.11676 0.6477,-0.17869 0.3351,-0.11167 -0.134,-0.67006 -0.6478,-0.22336 -2.4569,-0.15634 h -1.3848 l -1.4964,0.3797 -0.134,0.44671 -0.3574,0.26802 -0.737,0.0447 -0.1564,-0.87107 0.335,-2.30054 0.2457,-2.03251 -0.067,-0.96042 -0.536,-0.60305 0.1563,-0.26802 0.8264,-0.82641 1.0944,-0.55838 0.5361,-0.60306 0.2457,-0.40203 0.335,-1.0721 0.6924,-0.24568 0.5584,-0.91575 0.6477,-0.22335 0.4691,-0.60306 0.4467,-0.24568 0.402,-0.44671 0.7371,-0.20101 0.1563,-1.96551 0.1563,-0.40204 -0.1563,-0.29035 -0.5137,-2.94826 -1.1168,-1.0721 -0.67,-0.71472 -0.7148,-0.17869 -0.469,-0.69239 -0.1787,-0.067 -0.3573,-3.68532 -0.4914,-1.69748 c 0,0 -0.3127,-0.40204 -0.3127,-0.55838 0,-0.15635 -0.089,-2.2112 -0.089,-2.2112 l 0.4914,-0.29036 0.268,-0.78173 3.3057,-0.22335 1.0274,0.35736 0.536,0.7594 1.2285,0.51371 0.603,0.29036 1.1615,-0.0447 0.3797,-0.58072 2.1888,-0.0447 0.8264,0.3797 0.6924,0.53605 0.4691,0.13401 c 0,0 0.603,0.067 0.603,-0.0447 0,-0.11168 0.5361,-0.60305 0.5361,-0.60305 l 0.6923,-1.29545 0.7148,-0.26802 0.201,-0.49138 0.1117,0.33503 0.1117,0.49138 0.5137,1.16143 0.5583,0.49138 0.8041,0.33503 0.4467,0.87107 0.1787,0.17869 0.402,-0.0894 0.6924,-0.55838 c 0,0 0.2234,-0.58072 0.5584,-0.60305 0.3351,-0.0223 1.2731,-0.64772 1.2731,-0.64772 l 1.1615,-0.17869 1.3624,0.0447 0.2234,0.35737 0.8264,0.0447 0.2233,0.49137 0.3127,0.067 0.6477,-0.13401 0.4021,-0.60305 0.603,-0.67006 1.2285,-0.53605 1.1167,-1.18377 0.6031,-1.18377 0.5137,-1.22844 0.201,-0.55838 0.2234,-0.7594 0.1799,-0.41452 2.6008,-0.39894 1.4884,-0.16878 1.3426,-0.60609 1.3502,-0.36825 2.2096,0.12275 0.3068,1.22751 0.1228,0.79788 1.2889,0.30688 0.7365,-0.36825 0.1534,-0.27619 0.1228,0.13809 0.6291,1.33492 0.5984,1.21217 1.4116,0.21482 0.3683,-0.1381 0.5677,-0.64444 0.3376,-0.8746 1.9333,-0.18413 0.8439,0.23016 0.1074,0.36825 0.491,0.16879 0.445,0.3529 0.5677,0.19947 0.5831,0.87461 0.2915,0.76719 0.8746,0.41429 1.1815,1.22751 0.8746,0.88995 0.3222,0.82857 0.3069,0.39894 0.5677,0.33757 0.061,0.26084 -0.6751,0.046 -1.5191,0.16879 -1.1814,0.53703 -2.8693,0.59841 -0.3836,0.56773 -0.092,1.93333 0.4757,1.02804 1.1354,2.36297 0.6138,1.18147 1.1354,1.18149 0.399,0.53703 -0.015,0.59841 -0.5678,0.32223 -0.9513,0.32222 -1.1968,0.56772 -0.6444,0.64445 c 0,0 -1.1355,0.61375 -1.1355,0.55238 0,-0.0614 -1.1508,1.1201 -1.1508,1.1201 l -1.1354,1.19683 -0.3223,0.96667 -0.3068,1.41163 -0.5984,0.53704 -1.1048,0.59841 -0.2762,0.55238 c 0,0 -0.2455,1.67249 -0.1841,1.82592 0.061,0.15344 0.2762,0.7672 0.2762,0.7672 l 0.4603,0.35291 -0.015,1.41164 0.8439,0.41429 2.3477,1.16613 1.4423,0.21482 0.9053,0.35291 1.1814,1.19682 0.6291,1.19682 1.2122,1.18149 0.5217,1.10476 1.1508,0.58306 0.2915,1.70318 0.1381,0.491 0.3683,0.39894 0.1841,0.0767 0.3989,-0.47566 0.399,0.1381 1.2735,0.64444 0.4603,0.59842 0.89,0.36825 0.1841,0.35291 1.3043,0.15344 0.3682,0.47566 0.9667,-0.0307 0.4296,-0.19947 1.1968,-1.10476 1.1355,-1.24285 0.2608,-0.19947 0.3069,0.19947 0.3836,0.93597 2.0561,0.21482 0.9206,0.26084 h 1.7492 l 1.4117,0.18413 0.5523,0.81323 0.7672,0.32222 0.092,0.39894 0.8899,0.41429 0.7059,0.35291 0.7825,-0.12276 0.2915,-0.82856 1.1662,-0.64445 1.2121,-1.15079 1.1508,-1.15079 0.5985,-1.7799 0.5063,-0.21482 1.2428,0.21482 1.1355,1.16614 0.4296,0.84391 0.8286,0.39895 2.2709,0.55237 1.1968,1.18148 1.1661,1.18149 0.6138,0.58306 1.1355,0.61376 0.6598,0.19947 1.7031,-0.21481 1.2429,-0.64445 1.2582,-0.27619 0.6598,0.10741 0.1994,1.13545 0.4297,0.1381 1.5037,0.64444 1.6878,0.64444 1.9026,0.59841 3.4371,1.16614 0.445,0.23016 h 1.7798 l 1.0281,0.0921 0.2941,0.28737 1.15,2.32185 0.3255,1.48643 1.2152,0.1302 0.2495,0.78118 0.6937,0.53215 0.2455,0.49101 -0.2455,1.22751 -0.5524,0.55238 0.3683,1.16613 0.4018,0.93492 1.2586,0.1736 0.2387,1.38877 0.5642,1.12837 0.2821,1.34538 v 0.99817 l -0.5208,0.3689 -0.087,2.10485 0.6293,0.4123 -0.087,3.29833 -0.4991,0.0434 -0.3255,0.84628 -0.5859,0.54249 -1.0416,2.34355 -1.2802,0.62929 -0.6076,1.19348 -0.2821,0.47738 0.2387,0.3906 0.3254,0.93308 -0.282,0.49909 -0.3689,0.99818 -0.217,1.41047 -0.5208,1.25857 -0.4774,0.1953 -0.022,0.19529 0.5642,0.3689 -0.2604,0.73778 -0.6727,0.4557 -0.217,2.12655 -1.2586,0.47739 -1.8879,0.54249 -1.1934,0.62929 -0.5859,0.67268 -0.9114,0.3472 v 0.41229 l -1.9963,0.39059 -2.3653,1.12838 -0.5859,0.60758 -0.2387,0.58589 0.3038,1.17178 0.5208,1.75766 0.8897,0.1953 0.022,0.26039 -0.5425,0.2387 -0.9113,0.56419 -0.5425,0.82458 h -1.9964 l -0.4123,-0.91138 -0.5425,-0.56419 -1.8444,-0.60759 -1.9096,-0.49909 -4.1012,-0.0434 c 0,0 -1.2803,0.3689 -1.2803,0.4774 0,0.10849 -0.217,0.82458 -0.217,0.82458 l -0.651,0.43399 -1.0198,0.217 -0.8029,-0.2604 -0.6293,-0.60759 -1.1067,-0.58589 c 0,0 -0.022,-0.80288 -0.217,-0.80288 -0.1953,0 -2.018,0.1953 -2.018,0.1953 l -2.17,0.52078 0.3038,1.90956 0.3038,0.84629 0.4991,0.52079 0.651,-0.36889 2.6907,0.1519 0.3038,2.06145 0.217,2.03976 0.3255,1.47557 -0.2604,2.66904 -0.651,0.2821 -0.5208,-0.2387 -1.2802,-0.39059 -1.6275,0.0868 -0.7595,0.30379 -1.519,0.49909 -0.8245,0.3472 -0.2523,0.53977 -1.5542,0.0461 -1.0361,-0.91138 c 0,0 -1.6275,-0.2604 -1.7794,-0.2604 -0.1519,0 -3.0162,0 -3.0162,0 l -0.4774,0.80289 -0.5859,1.21517 -0.6293,1.23688 -0.5425,3.97102 c 0,0 -0.434,3.12473 -0.5208,3.21153 -0.087,0.0868 -1.1717,0.41229 -1.1717,0.41229 l -1.2152,1.21517 -0.5859,0.54249 -1.1935,0.6076 -0.7161,0.17359 -0.4774,0.99818 -1.1717,2.34355 -0.3472,1.28028 -0.043,4.33991 0.6944,0.52079 0.3472,0.88968 0.3688,1.38877 -0.2603,1.38877 -0.434,0.3472 0.065,0.26039 0.8246,1.36707 0.5859,1.12838 0.1519,0.73778 -0.7378,0.4557 -0.9113,0.21699 -0.5859,-0.1519 -0.3906,-0.34719 -1.085,0.2821 c 0,0 -3.2766,0.52079 -3.4502,0.56418 -0.1736,0.0434 -1.302,0.58589 -1.302,0.58589 l -0.4123,0.75949 -1.302,0.43399 -2.886,0.58588 c 0,0 -0.2821,0.2387 -0.434,0.2821 -0.1519,0.0434 -0.4557,0.52079 -0.4557,0.52079 h -0.5208 l -0.4123,-0.86798 -1.1284,-0.52079 -1.2585,-1.12838 -0.651,-1.30198 -0.1519,-1.86616 -0.9114,-0.39059 -0.6727,-1.23687 -0.4774,-2.34356 -0.4774,-1.64916 -0.499,-0.95478 -0.8029,-0.3038 -4.1664,-0.60758 -3.9927,-0.56419 -1.9529,-0.60759 -3.3635,-0.60759 -3.5153,-0.54248 -2.3869,-1.19348 -1.0633,-0.28209 -0.6076,0.43399 -0.868,0.19529 -0.3906,0.86799 -0.6076,0.84628 -0.868,-0.0434 v -0.58589 c 0,0 -0.7377,-0.23869 -0.8896,-0.23869 -0.1519,0 -2.4087,-0.56419 -2.4087,-0.56419 l -0.3255,-1.47557 -0.4123,-0.49909 -0.6293,-0.0868 -0.8245,0.80288 -0.7812,0.39059 h -1.7794 l -0.3255,-0.60758 -3.1464,0.10849 c 0,0 -0.4774,0.69439 -0.651,0.69439 -0.1736,0 -0.5208,-0.0434 -0.5208,-0.1519 0,-0.10849 -0.434,-0.99818 -0.434,-0.99818 l -2.3652,-1.15007 -1.3454,-0.56419 -0.7378,-0.3255 -0.022,-2.43035 -0.499,-0.0217 -0.3906,0.43399 -2.3436,0.54249 -1.2369,0.69439 -0.5642,0.58589 -2.3869,1.10668 -0.8029,0.43399 -0.5859,0.43399 -0.4123,-0.45569 -1.6274,-0.45569 c 0,0 -1.085,-0.217 -1.1935,-0.217 -0.1085,0 -1.1718,0.32549 -1.1718,0.32549 l -0.4557,0.69439 -0.5425,0.45569 -0.8463,0.56419 -0.8679,0.19529 -0.2387,-0.28209 -1.1718,-0.47739 c 0,0 -1.2369,-0.60759 -1.2586,-0.69438 -0.022,-0.0868 -0.4774,-0.5859 -0.4774,-0.5859 l -0.2604,-0.75948 -1.8444,-0.0651 -0.4557,0.3472 -0.5425,0.52079 -0.9331,0.54249 -0.1953,0.28209 -0.5208,-0.1953 -2.2784,-0.65098 c 0,0 -1.953,-0.3472 -2.1049,-0.3472 -0.1519,0 -1.2369,0.3689 -1.4105,0.3689 -0.1735,0 -0.4122,0.26039 -1.2802,0.26039 -0.868,0 -1.7577,-0.3038 -1.7577,-0.3038 l -1.1718,-1.19347 -0.5859,-1.80106 -0.4773,-0.45569 -0.5425,-0.84628 0.4123,-0.2604 0.6075,-0.1302 0.8897,-0.36889 -0.1953,-1.38877 -1.2585,-1.17178 -0.2604,-0.91138 -0.8463,0.2821 -3.1248,0.30379 -1.6491,0.36889 -0.2387,0.19529 -0.3255,-0.26039 -1.2369,-0.58589 -1.085,-0.26039 -0.651,0.93308 -1.04149,1.12837 -0.67269,1.28028 -0.1736,0.32549 0.1085,1.38877 0.41229,0.1302 -0.34719,0.3038 -1.97466,-0.1085 -0.43399,-0.39059 -1.43217,-0.3255 -0.21699,-1.67086 -0.69439,-0.2821 -1.73597,-0.62928 -1.15007,-0.58589 -2.40865,-1.17178 -2.60395,-0.32549 z"
     id="avellino"
     name="Avellino"
     />
  <path
     d="m 257.90544,48.31122 -1.0721,-0.33504 -1.0275,-0.55839 -0.2903,-0.64772 0.335,-0.53605 v -0.53604 l -0.536,-0.96042 -0.4021,-0.11168 -0.1563,-0.3797 -0.7594,-0.3797 -0.7817,-0.67005 -0.1117,-1.27312 0.67,-0.58071 -0.1563,-1.0721 -0.4914,-0.33503 -1.3848,-0.0893 -1.8761,-0.67006 -0.5137,-0.62538 -1.1168,-0.55839 -3.998,-0.46904 -1.2285,-0.7594 -0.603,-0.49137 -0.6254,-1.22844 -0.4691,-1.85383 -0.2233,-1.63048 -0.3797,-0.82641 -0.8041,-0.40203 -0.4913,-2.68024 -0.3351,-0.40203 0.1787,-0.13401 0.201,-0.13401 0.4467,-0.55839 0.6477,-0.15634 0.6924,-0.3127 0.3127,-0.40203 0.2904,-0.067 0.4467,-0.96041 0.6477,-1.25078 1.0721,-0.55838 1.7645,-0.51372 0.2234,-0.87107 -0.2011,-0.33503 -0.1787,-0.87108 c 0,0 -0.8934,-0.22335 -0.9827,-0.24568 -0.089,-0.0223 -0.4244,-0.91575 -0.4244,-0.91575 l -0.3797,-0.26803 -0.067,-1.04975 0.2904,-0.84874 0.804,-1.34012 0.7148,-0.24569 0.1117,-0.35736 0.9827,-0.20102 0.067,-0.7594 -0.2903,-0.55838 -0.6031,-1.20611 -0.134,-0.71473 -0.1563,-0.0447 -0.1787,0.22336 -0.8264,0.22335 h -2.1442 l -1.3178,-0.29036 -0.9828,-0.26802 -0.5137,-0.26803 -0.268,-0.51371 -1.2731,-0.67006 -2.4122,-0.42437 -0.022,-0.42437 -0.6031,-0.35736 0.067,-2.05485 h -0.1563 l -0.6924,0.55838 -0.7594,0.29036 -0.268,0.22335 -0.3351,-0.17868 -0.5249,-2.32287 -0.6365,-1.79799 -0.6254,-1.15027 -0.5026,-0.60305 -0.6253,-0.54721 -0.5137,-0.61423 L 227.92064,0 l -1.463,0.42437 c 0,0 -1.262,0.58072 -1.262,0.62539 0,0.0447 -0.5583,0.54721 -0.5583,0.54721 l -0.5584,1.12794 -0.5807,0.62538 -0.4467,1.00509 -0.6701,0.15635 -1.2061,0.61422 -1.1949,0.52488 -1.195,0.61422 -0.5472,0.62539 -0.6254,0.55838 -1.7086,0.60305 -1.2396,0.61422 -2.3341,0.55838 -2.8924,0.61422 -1.7868,0.61422 -1.7645,0.52488 -0.3127,0.78174 -0.8376,0.36853 c 0,0 -0.6254,1.11676 -0.6365,1.1726 -0.011,0.0558 -0.3462,1.37362 -0.3462,1.37362 l -0.3909,0.13402 -0.3015,0.51371 -0.2457,0.10051 -0.3797,0.53604 -0.3574,0.18985 -0.7817,0.41321 h -1.8092 l -1.8203,-0.29036 -2.3675,-1.19494 -1.128,-0.52488 -0.6812,-0.65889 -1.1279,-0.55838 -0.5696,-0.59189 -0.4578,-0.85991 -0.6924,-0.32386 -1.8427,-0.56955 -1.8092,-0.24569 -0.3127,0.3797 -0.2568,0.15635 -0.1787,0.27919 -0.9492,0.59189 -0.5361,0.61422 -0.3239,1.32895 0.5584,0.25685 c 0,0 -0.045,1.01626 -0.045,1.0721 0,0.0558 -0.201,0.92691 -0.201,0.92691 l -0.5919,1.12793 -0.603,2.30054 -0.7929,0.23452 -0.3239,0.96041 -1.2507,0.56955 -0.5249,0.61422 -1.3066,0.55839 -1.664,0.59188 -1.79801,0.56955 -0.6924,0.22335 -1.08326,-0.21218 -1.70865,-0.55838 -0.54722,-1.17261 -0.52487,-0.21218 -0.71473,0.21218 -2.28937,0.54722 -1.12793,0.51371 -0.70356,0.7259 -0.54721,1.10559 c 0,0 -0.58072,1.04976 -0.58072,1.15027 0,0.10051 -0.25686,0.91575 -0.25686,0.91575 l -0.13401,-0.0558 -0.50254,-0.54722 -0.25686,-0.24568 -0.92691,-0.29036 -0.82641,0.26802 c 0,0 -1.18379,1.1391 -1.2061,1.19494 -0.0223,0.0558 -1.21728,1.11676 -1.21728,1.11676 l -0.32386,0.73707 -0.39087,0.24569 -0.31269,1.76448 -0.70356,0.23452 c 0,0 -0.55839,1.04976 -0.55839,1.09443 0,0.0447 -0.62538,0.61422 -0.62538,0.61422 l -1.23961,0.60306 -1.08327,0.60305 -0.4132,0.17868 -0.20101,-0.13401 -1.21728,-0.63656 -0.63655,-0.0447 -1.25078,-0.30152 v -0.3797 l 0.3462,-0.3127 0.10051,-1.52996 c 0,0 -0.58071,-0.26803 -0.63656,-0.30153 -0.0558,-0.0335 -0.22335,-0.62539 -0.22335,-0.62539 l -1.1726,-1.18377 -1.16144,-0.60305 -0.78173,-0.14518 -0.41321,0.17868 -0.54721,1.16144 -0.61423,0.60305 -0.60305,1.12793 -0.55838,0.16752 -1.74215,-0.14518 -2.40104,-0.56955 -0.59189,-0.26803 -1.75332,0.21219 -1.1726,0.64772 -1.05296,0.24474 -0.69491,0.41063 -0.31587,0.44222 -0.25269,0.60015 -1.23189,0.28428 -0.44222,-0.34746 -1.2003,-0.50539 -0.31587,-0.28428 -0.56856,0.0632 -0.28428,0.82125 -0.18952,0.66333 -0.41063,0.31587 -0.31587,0.12634 -0.41063,-0.75808 -0.78967,0.0316 -0.31587,0.2211 -1.10554,0.47381 -0.7265,1.26347 -0.4738,1.23189 -0.66333,1.07395 -0.53697,1.80045 -0.34746,1.10554 0.0632,1.2003 0.31586,-0.50538 1.98998,-0.18953 0.41063,0.22111 0.56856,0.2527 0.4738,-0.28428 1.04237,-0.37905 0.69491,0.44222 0.7265,0.50539 0.4738,1.73728 0.75808,1.23188 0.12635,0.60015 -0.34745,1.04237 -0.15794,0.50539 0.2527,0.34746 0.53697,1.07395 0.63174,0.53698 1.26348,0.50539 0.18952,1.64251 -0.31587,0.60015 -0.66333,0.18952 -2.8744,0.53698 -2.21108,1.16872 -1.10554,0.53697 -1.29506,1.38982 -0.7265,1.23189 -0.44222,0.9792 -0.18952,0.75808 0.22111,0.34746 -0.15793,0.4738 -0.53698,2.08473 -0.88443,0.18952 -0.28428,0.85285 -0.69492,1.16871 v 0.34746 l 0.12635,0.15793 0.69491,0.7265 0.0316,0.25269 -0.0632,0.28429 -0.56857,1.16871 -0.31586,1.6741 v 2.96917 l 0.28428,0.82126 1.26347,-0.18952 1.80045,-0.28429 0.28428,2.08474 0.22111,0.63173 0.75809,0.47381 0.25269,0.63173 0.56857,1.76887 0.15793,0.91602 1.13713,0.34746 1.07395,1.10554 0.7265,0.78966 -0.0632,0.44222 -0.2211,1.04237 0.31586,0.66332 0.28429,0.75809 0.69491,-0.12635 0.37904,-0.4738 0.22111,0.0948 -0.15794,1.10554 -0.18952,0.28428 -0.78967,1.16872 -0.60015,1.83203 -0.66332,0.75809 -2.90599,0.0316 -0.44222,0.63173 -0.31587,0.0632 -0.41063,0.85284 -0.37904,3.82201 -0.60015,-0.0316 -0.60015,-0.25269 -0.56857,-0.53698 -1.32664,-0.56856 -1.61093,-0.4738 -0.50539,-0.85285 -0.69491,-0.4738 -1.83205,-0.34746 -0.28427,-0.37904 -0.41063,-0.25269 -0.12635,-0.28429 -0.50539,-0.2211 -0.15793,-0.94761 -0.69492,-0.15793 -0.75808,0.25269 -2.43219,0.60015 -0.60015,0.56856 -0.60015,0.56857 -0.15794,0.41063 0.22111,1.29506 0.50539,1.2003 1.29507,0.69491 0.97918,0.75809 0.53698,-0.0316 0.78968,-0.41063 1.80045,0.25269 0.75808,0.34746 0.47381,0.50539 0.18952,0.44221 0.4738,0.44222 0.4738,1.16871 0.0277,1.67016 -0.43037,0.21321 0.12969,0.23672 1.56347,0.35736 2.81425,0.49138 1.02743,0.44671 2.59089,0.67006 0.44671,1.83149 v 1.07209 l -0.22336,1.20611 c 0,0 0,1.16144 0,1.47413 0,0.31269 0.17868,0.89341 0.17868,0.89341 l 0.62539,1.25077 0.22335,0.44671 -0.31269,0.35737 -0.49137,0.35736 -0.71474,0.49138 -1.02742,0.49137 -0.53605,0.58072 -0.75939,0.40204 -0.49138,0.89341 -0.26803,0.31269 0.22336,0.3127 0.67006,0.53604 2.09951,0.53605 3.26095,0.49138 0.89342,0.22335 0.58071,-0.4467 0.35737,0.62538 0.49138,1.02743 1.07209,-0.0447 2.45688,-0.62539 0.35736,-2.14418 h 0.35737 l 0.53605,0.31269 0.53604,0.71473 h 1.5188 l 0.22335,-0.80407 0.53605,-0.40204 1.20611,-0.67006 0.71473,-0.31269 0.49137,0.40203 0.22335,1.29545 0.80408,0.17868 0.49137,0.62539 -0.4467,0.67006 -0.44671,0.89341 0.3127,1.56347 0.62538,0.62539 0.71473,1.29545 0.53605,0.49138 0.59747,1.13909 0.99535,0.22409 0.16128,-0.23086 0.612,-0.5962 0.48165,-0.2681 0.40203,0.30152 0.74824,0.25686 1.13909,0.0112 0.18986,0.30152 0.71472,0.21219 1.71786,-0.1005 0.47381,-1.3148 0.58435,-1.16081 0.59226,-0.57647 1.1924,-0.61594 0.63228,-1.13407 0.55838,-0.24569 0.62539,-3.28328 0.58072,-0.60306 v -0.33503 l -0.0893,-0.24568 -0.17868,-0.24569 -0.0223,-1.02743 0.62538,-0.22335 0.51372,0.51371 0.29035,0.15635 0.15635,1.27311 0.11168,-0.0893 0.35736,-0.55838 1.65281,0.17868 1.8985,0.64772 1.63048,0.51372 1.25078,0.67005 0.11167,0.13402 0.40204,0.11167 0.64772,-0.84874 1.2061,-0.62539 0.51371,-0.69239 0.53605,-0.20102 0.42437,-1.07209 0.44671,-0.17868 0.22335,-0.40204 2.50155,0.26803 1.67515,0.22335 0.89341,-0.13401 0.26803,-0.58072 1.78681,-0.20102 0.6254,-1.09443 0.201,-0.20101 0.3797,0.15634 1.2062,1.11676 1.1167,1.25078 1.1838,1.0721 0.3127,1.47413 0.402,2.12185 1.1615,2.41221 0.603,1.20611 1.1838,0.46903 1.0721,1.20611 0.7594,0.26802 0.4467,-0.26802 1.7645,-0.29036 0.5583,-0.26802 1.2061,-0.58072 0.1341,-0.22335 -0.089,-0.40204 -0.603,-0.53605 -0.6701,-0.69239 v -0.58071 l 0.6031,-2.2782 0.3573,-2.18886 -0.335,-1.94317 -0.201,-0.3797 0.022,-1.04976 1.0274,-0.0893 0.3574,0.33502 1.7868,0.67007 0.3574,0.13401 h 0.3573 l 0.1787,-1.56347 -0.5137,-0.46904 -0.022,-0.3127 0.2903,-0.15635 0.4244,-0.35736 1.4518,-0.20102 0.268,0.49138 0.1117,1.22844 0.335,1.07209 -0.2233,0.80407 -0.4691,0.33504 0.2904,0.62538 0.6477,0.69239 0.201,0.13402 0.4021,-0.13402 0.2457,-0.42437 0.2903,0.20102 0.067,0.20102 2.2782,0.58072 0.8041,0.22335 0.402,-0.20102 1.1615,-1.22844 1.2284,-1.22844 0.1117,-0.73706 0.5584,-0.20102 0.469,0.35736 1.0051,0.3127 0.7371,-0.24569 0.3573,-1.60814 0.2681,-0.42437 0.2233,-0.44671 0.1117,-0.67006 1.4741,-0.40203 0.9828,-0.51371 0.67,-0.58072 1.2955,-0.60306 1.3177,-0.33502 0.9605,-0.22336 1.1614,-0.60305 0.6477,-0.64772 0.6924,-0.17868 0.2234,-1.80916 0.2903,-0.11168 0.4914,-0.89341 1.2508,-0.31269 1.5411,0.37969 0.4467,0.17869 h 0.4467 l 0.4467,-1.31778 1.7199,-0.53605 1.8091,-0.64772 1.1838,-0.58072 1.1614,-1.16143 0.6254,-0.64773 0.5584,-1.11676 1.1168,-1.1391 1.072,-1.27311 0.8264,-0.60305 1.1168,-0.51372 0.1117,-0.4467 -0.1787,-0.20102 -0.4914,-1.11677 -0.5807,-1.16143 -0.3127,-0.29036 -0.335,0.17868 -0.268,0.26802 -0.2904,-0.15634 -0.3127,-0.49138 -0.469,-0.40203 -0.1564,-0.58072 -0.335,-0.40204 -0.2457,-0.78173 0.045,-1.11676 0.6477,-0.17869 0.3351,-0.11167 -0.1341,-0.67006 -0.6477,-0.22336 -2.4569,-0.15634 h -1.3848 l -1.4964,0.3797 -0.134,0.44671 -0.3574,0.26802 -0.737,0.0447 -0.1564,-0.87107 0.335,-2.30054 0.2457,-2.03251 -0.067,-0.96042 -0.536,-0.60305 0.1563,-0.26802 0.8264,-0.82641 1.0944,-0.55838 0.5361,-0.60306 0.2457,-0.40203 0.335,-1.0721 0.6924,-0.24568 0.5584,-0.91575 0.6477,-0.22335 0.4691,-0.60306 0.4467,-0.24568 0.402,-0.44671 0.7371,-0.20101 0.1563,-1.96551 0.1563,-0.40204 -0.1563,-0.29035 -0.5137,-2.94826 -1.1168,-1.0721 -0.67,-0.71472 -0.7148,-0.17869 -0.469,-0.69239 -0.1787,-0.067 -0.3573,-3.68532 -0.4914,-1.69748 c 0,0 -0.3127,-0.40204 -0.3127,-0.55838 0,-0.15635 -0.089,-2.2112 -0.089,-2.2112 l 0.4914,-0.29036 0.268,-0.78173 3.3057,-0.22335 1.0274,0.35736 0.536,0.7594 1.2285,0.51371 0.603,0.29036 1.1615,-0.0447 0.3797,-0.58072 2.1888,-0.0447 0.8264,0.3797 0.6924,0.53605 0.4691,0.13401 c 0,0 0.603,0.067 0.603,-0.0447 0,-0.11168 0.5361,-0.60305 0.5361,-0.60305 l 0.6923,-1.29545 0.7148,-0.26802 0.201,-0.49138 0.1117,0.33503 0.1117,0.49138 0.5137,1.16143 0.5583,0.49138 0.8041,0.33503 0.4467,0.87107 0.1787,0.17869 0.402,-0.0894 0.6924,-0.55838 c 0,0 0.2234,-0.58072 0.5584,-0.60305 0.335,-0.0223 1.2731,-0.64772 1.2731,-0.64772 l 1.1615,-0.17869 1.3624,0.0447 0.2234,0.35737 0.8264,0.0447 0.2233,0.49137 0.3127,0.067 0.6477,-0.13401 0.4021,-0.60305 0.603,-0.67006 1.2285,-0.53605 1.1167,-1.18377 0.6031,-1.18377 0.5137,-1.22844 0.201,-0.55838 z m -81.45683,68.94902 0.26802,-0.96042 0.33503,-0.78174 0.17868,-0.24569 0.4244,0.26803 0.6254,1.18377 0.5807,0.55838 0.603,0.67006 0.6701,1.16144 0.1563,0.24568 -0.2233,0.26802 -0.2904,0.40204 0.2904,0.20102 0.5137,0.62539 0.6701,0.51371 0.201,0.33502 -0.201,0.26803 -0.6031,1.80916 -0.603,1.71982 -0.6701,1.22844 -0.5361,0.55838 -0.5807,1.16143 -0.1563,0.80407 -0.3127,0.55839 -0.69241,-0.20102 -1.29545,-0.58072 -0.46903,-0.29036 -0.35737,-3.08227 0.3797,-3.0376 0.22335,-1.34011 v -0.55838 l -0.31269,-0.33503 -0.55839,-0.75941 -0.11167,-0.80406 0.22336,-0.26803 0.26802,-0.35736 0.84874,-0.33503 0.33502,-0.40204 z"
     id="benevento"
     name="Benevento"
     />
  <path
     d="m 146.94491,121.63971 0.0862,0.8575 -0.1141,0.91277 v 0.96983 l 0.45639,0.34229 0.2282,1.25508 -0.057,0.85573 -0.34229,0.57049 -1.31212,0.74163 -0.057,0.45639 -0.57049,0.62753 -0.57048,-0.45639 -0.85573,-0.62753 -1.02688,-0.39934 -1.08393,-0.34229 h -1.19802 -1.08392 l -0.62754,0.39934 -0.74166,0.45639 -0.11409,0.57048 -0.68459,1.76851 -1.25507,0.39934 -1.02688,-0.057 -1.31212,-0.68459 -1.71146,0.28525 -1.19803,0.17114 -1.25507,0.28524 -0.85573,0.51344 -1.82556,0.1141 -1.08393,-0.39934 -0.91278,-0.17115 -0.96983,-0.28524 -0.51343,-0.3423 0.11409,-0.22819 0.74163,-0.51344 0.51345,-0.68458 0.28524,-0.51344 0.1141,-0.68459 -0.62754,-0.51344 -0.62754,-0.34229 -1.48326,-0.22819 -1.65442,-0.1141 -1.25507,0.28524 -0.74163,0.17115 -1.25507,0.57049 h -1.08393 -1.31212 l -1.82556,0.11409 -0.34229,0.28525 -0.45639,0.17114 -0.57049,-0.22819 -0.2282,-0.2282 -1.31211,-0.11409 -0.74164,0.34229 -1.19802,0.057 h -0.96983 l -1.36917,-0.39934 -0.96983,-0.17115 h -1.48326 l -0.74164,0.45639 -0.57049,0.22819 -0.28524,0.57049 -0.34229,0.85574 -0.057,1.02687 -0.057,0.96983 0.1141,0.57049 0.85574,0.51344 0.11409,0.62753 v 1.36918 l -0.11409,1.31211 -0.57049,1.19803 -0.3423,1.25507 -1.02687,0.17115 -0.91278,-0.28525 -0.68459,-0.22819 h -1.14098 l -0.68458,0.22819 -1.02687,0.85574 0.45639,0.62753 0.39934,0.34229 0.74163,0.17115 v 0.39934 l -0.45639,0.057 -0.68458,0.74163 -0.28525,0.57049 -0.74163,0.34229 -0.68459,-0.68459 -0.45639,-0.45639 -0.62753,-0.39934 -0.62754,-0.91278 -0.79868,-0.79868 h -0.51344 l -0.34229,0.68458 -0.17115,0.91279 -0.62754,0.79868 -1.8826,0.22819 -0.74164,0.2282 h -0.62753 l -0.51344,-0.28525 -0.62754,-0.34229 -0.96983,-0.39934 -1.31211,-0.1141 -1.42623,0.57049 -0.39934,0.39934 -0.45638,-0.22819 -0.17116,-0.28525 h -0.91277 l -0.34229,0.79868 -0.17115,0.79869 -0.1141,0.57049 -0.74163,0.057 v -1.31211 l 0.17115,-1.31213 -0.51345,-0.11409 -0.11409,0.57048 -0.68459,0.39935 -1.14097,0.51343 -0.51344,0.62754 -0.34229,0.34229 -0.17115,0.62754 -0.68458,0.1141 -1.48327,-0.28524 -0.57049,-0.62754 -0.85573,-0.1141 -0.17115,-0.34229 0.4564,-0.39934 0.57048,-0.3423 0.51344,-0.74163 2.05375,-0.17115 -0.11409,-1.42621 -0.45639,-1.14098 -0.28524,-0.96983 -0.51345,-1.19802 -0.51343,-1.19802 h -0.79869 l -0.39934,0.51343 h -1.02688 l -1.25507,0.2282 -1.54031,0.17114 h -0.62754 l -0.34229,0.85573 -0.39934,0.91279 -0.1141,0.39934 -0.62754,1.59736 -0.91277,0.62754 -1.02688,0.39934 -0.28525,0.22819 -1.59736,0.39934 -2.51015,-0.28524 -1.88261,0.057 -1.82555,0.17114 -0.1141,0.2282 -0.057,0.57048 0.39934,0.62754 -0.51344,0.62754 -0.96982,0.39934 -0.85574,0.28524 h -0.79868 l -0.62753,-0.22819 -0.39934,-0.51344 -0.62754,-0.17115 -0.1141,0.2282 -0.54201,0.34233 -0.14267,1.31214 v 2.11081 l 1.25508,0.68459 0.57048,0.79868 0.34229,0.57048 0.3423,0.45639 0.11409,0.57049 -0.34229,0.34229 -0.28524,0.74164 v 0.45639 l 0.68458,0.79868 0.1141,0.62754 0.62754,0.74163 0.17115,0.79868 0.34229,0.68459 0.11409,0.34229 0.45639,0.28524 0.057,0.34229 -0.39934,0.51344 -0.54235,-0.4836 -0.4132,-0.73148 -0.59693,-0.98472 -0.80546,-1.57934 -0.82126,-1.24768 -0.39484,-1.2003 -0.58435,-1.13713 -0.61595,-1.10554 -1.2234,-1.68499 -0.44671,-1.5188 -0.67006,-0.49137 -0.4467,-1.0721 -0.58072,-1.29544 -0.58072,-0.58072 -0.67005,-0.89341 -1.69749,-1.74215 -0.49138,-1.20611 -0.62538,-0.71473 -1.42946,-0.67006 -0.35736,-0.58071 -0.58072,-1.11677 -1.56347,-1.47413 -0.98275,-0.80407 -0.44671,-1.16143 -0.67006,-0.71473 -1.11676,-0.58072 -0.7594,-0.35736 -0.35737,-1.38479 -0.71473,-0.49138 -0.62538,-1.11676 -0.44671,-0.71473 -0.93808,-0.53605 -0.40204,-0.67006 -0.58072,-2.32287 -0.98274,-2.32286 -0.75941,-1.11677 -0.49137,-2.41221 -0.58072,-1.8315 -1.29544,-2.2782 -0.58073,-1.78682 -0.53604,-0.80407 -0.49138,-0.89341 -0.40203,-0.84874 -0.44671,-0.3127 -0.31269,-0.4467 -1.25078,-1.34012 -0.67006,-1.16144 -0.58072,-0.58071 -0.31269,-0.89341 -0.84874,-0.35737 -0.53605,-1.29544 -0.71473,-0.53605 -0.49137,-1.20611 -0.62539,-0.53604 -0.3127,-0.62539 -0.84874,-0.49138 -1.11676,-2.36753 -0.58072,-0.49138 -1.25077,-2.41221 -1.0721,-1.11677 -0.7594,-1.2061 L 10.3189,88.58164 8.62142,86.70548 6.70059,84.87398 4.82443,83.08716 3.75233,82.59578 2.72491,81.43434 1.56347,80.31758 0.3127,79.64752 0,78.93279 0.40204,78.39675 0.93808,76.69926 1.20611,75.93986 1.34012,74.24238 3.66299,74.10837 h 1.02742 l 0.22336,-0.53605 1.38478,-0.40203 0.93808,-0.17869 0.67006,0.22336 1.29545,0.44671 1.2061,-0.35737 0.44671,-0.62539 1.11676,-0.58071 0.75941,-0.67007 1.11676,-2.23352 0.26802,-0.3127 -0.17868,-0.35736 -1.92084,-1.65281 -0.58071,-1.42946 -0.22335,-1.07209 0.58071,-0.26803 0.49138,-0.62539 0.22335,0.0893 0.44671,0.3127 0.31269,-0.0447 0.58072,-0.62539 0.53605,-0.67006 1.2061,-1.0721 0.7594,-0.26802 1.02743,0.26802 0.49137,0.3127 1.25078,-0.3127 1.38479,-0.13401 1.56347,-0.4467 0.58072,-1.20611 0.71472,-2.27819 v -0.80408 l -0.0893,-1.02742 -0.53604,-1.16144 -0.89342,-0.35736 -0.4467,-0.67006 -0.3127,-0.71473 -0.35736,-0.53605 -0.67006,-0.53604 -0.31269,-0.71473 -0.35737,-0.80407 0.26802,-0.53605 0.35737,-0.22335 -0.31269,-1.47413 -0.98276,-0.44671 -0.40203,-1.25077 -0.13402,-2.54622 0.49138,-2.09952 0.3127,-1.87616 0.35736,-0.26803 0.40204,-0.89341 0.7594,-0.22335 -0.17869,-1.47413 -1.25077,-0.53605 -0.3127,-1.07209 0.35737,-0.71473 v -0.53605 l -1.78683,-0.71473 -0.58071,-0.49137 -0.62539,-0.62539 -0.13401,-1.42946 0.17868,-0.89341 0.80407,-0.84874 0.84874,-0.89341 1.20611,-0.53605 0.53604,-0.40204 0.80407,0.40204 1.16144,0.0893 h 1.83149 l 0.3127,-0.62539 0.89341,-0.62539 0.40203,-0.80407 0.98276,-0.35736 1.38479,-0.58072 1.69748,-1.92083 1.2061,-1.29545 0.44671,-1.02742 1.2061,-0.67006 0.80407,-0.53605 0.44671,-1.2061 0.80407,-0.22336 0.22335,-0.49137 1.34012,0.13401 0.93808,0.53605 0.89341,0.4467 0.5915,0.27508 2.30584,0.37904 0.60015,0.18952 1.29506,0.34745 0.31587,0.9792 0.44221,0.44221 -0.15793,2.30584 -0.56856,1.26348 -0.37905,0.4738 0.2527,1.16872 0.34745,0.44221 0.53698,0.34746 0.60015,0.15793 0.4738,-0.31587 0.50539,-0.18952 0.41063,0.50539 0.0948,0.37904 0.50539,0.53698 0.85285,0.34746 0.34745,0.82126 0.63174,1.73727 0.60016,0.56857 0.53697,1.13712 0.63174,0.78967 0.25269,0.69492 h 0.47381 l 0.37904,-0.15794 1.23189,-0.63174 1.70569,-0.60015 2.90599,-0.63173 0.97919,-0.28429 0.82126,0.31587 0.66332,0.41063 0.53698,0.78967 0.34746,0.69492 1.61093,0.25269 0.25269,0.34746 1.07395,0.15793 0.88444,-0.12635 0.2211,-0.44221 -0.72649,-0.28429 -0.78968,-1.2003 -0.53697,-1.23188 -0.12635,-1.51617 0.0632,-1.98998 v -0.69491 l -0.36662,-1.32279 -0.35737,-0.17868 -0.22335,-0.22336 -0.89341,-0.53604 -1.5188,-1.74216 -1.47413,-1.16143 -0.44671,-1.07209 -0.40203,-0.62539 0.44671,-0.7594 0.53604,-1.56347 0.49138,-1.02743 -0.53605,-0.89341 -0.0447,-0.26802 0.71473,-0.80407 0.89341,-0.62539 0.0893,-0.7594 0.75411,-1.5044 1.2003,-1.13713 0.63174,-0.7265 0.53697,-1.04236 0.66333,-1.16872 0.2211,-1.83204 0.22111,-0.75808 0.50539,-0.41063 0.0948,-0.34746 0.44222,0.0316 0.18952,0.31587 0.66332,1.16871 1.29507,1.26348 1.07395,1.07395 1.13713,1.13713 0.50539,0.66332 1.4214,0.63174 1.01078,0.56856 0.31588,0.12635 0.25269,-0.15793 0.15794,-2.14791 0.44221,-3.28503 0.60015,-0.22111 0.37904,0.53697 0.50539,0.2527 0.0316,0.34745 1.86363,-0.15793 1.48458,-0.60015 2.6533,-0.2527 0.66332,0.28429 0.75808,0.15793 0.60016,-0.22111 2.27425,-0.22111 1.07395,-0.0632 0.69491,1.54776 0.44222,1.13712 0.78967,0.37905 0.28428,0.31587 1.32665,-0.18953 2.40061,-0.53697 0.75808,-0.47381 0.66332,0.15794 0.31587,0.88443 0.60015,0.60015 1.29507,0.34746 0.41062,0.34745 0.2527,0.15794 -0.50539,0.7265 -0.97919,0.25269 -0.0316,0.2527 0.88443,0.25269 1.04237,0.28428 1.61093,0.28428 0.69491,0.34746 0.28428,0.37904 0.53698,0.34746 0.18952,0.50539 0.44222,0.31587 0.85284,0.50539 1.16872,0.53697 1.23188,0.34746 1.2003,-0.15794 0.18953,-0.4738 0.41063,0.41063 1.32664,0.28428 0.34746,0.41063 1.42141,0.0948 2.50709,0.73215 1.65281,0.4467 1.92083,0.13401 1.29545,0.67006 0.58071,0.49138 0.3127,0.4467 0.40203,-0.26802 0.98275,-0.58072 0.44671,-0.31269 0.7594,0.17868 0.67006,0.58072 1.07209,0.71473 0.7594,0.67006 1.16143,0.4467 1.20611,0.22336 1.65281,-0.17869 0.67006,-0.31269 0.62539,0.22335 0.58072,0.53605 0.53605,0.53605 0.53604,0.7594 0.53605,0.0447 1.42945,-0.58072 0.49138,0.49137 0.49138,0.58072 0.67005,0.62539 0.0447,0.31269 -0.53605,0.3127 -0.40203,0.31269 0.40203,0.35737 0.49137,1.02742 0.40204,1.16143 0.35737,1.20611 0.31269,0.53605 0.71473,0.71473 1.78682,0.31269 0.62539,0.44671 0.84874,0.62538 -0.26962,0.53001 -0.74119,0.44925 -0.31587,0.44222 -0.25269,0.60015 -1.23189,0.28428 -0.44222,-0.34746 -1.2003,-0.50539 -0.31587,-0.28428 -0.56856,0.0632 -0.28428,0.82125 -0.18952,0.66333 -0.41063,0.31587 -0.31587,0.12634 -0.41063,-0.75808 -0.78967,0.0316 -0.31587,0.2211 -1.10554,0.47381 -0.7265,1.26347 -0.4738,1.23189 -0.66333,1.07395 -0.53697,1.80045 -0.34746,1.10554 0.0632,1.2003 0.31586,-0.50538 1.98998,-0.18953 0.41063,0.22111 0.56856,0.2527 0.4738,-0.28428 1.04237,-0.37905 0.69491,0.44222 0.7265,0.50539 0.4738,1.73728 0.75808,1.23188 0.12635,0.60015 -0.34745,1.04237 -0.15794,0.50539 0.2527,0.34746 0.53697,1.07395 0.63174,0.53698 1.26348,0.50539 0.18952,1.64251 -0.31587,0.60015 -0.66333,0.18952 -2.8744,0.53698 -2.21108,1.16872 -1.10554,0.53697 -1.29506,1.38982 -0.7265,1.23189 -0.44222,0.9792 -0.18952,0.75808 0.22111,0.34746 -0.15793,0.4738 -0.53698,2.08473 -0.88443,0.18952 -0.28428,0.85285 -0.69492,1.16871 v 0.34746 l 0.12635,0.15793 0.69491,0.7265 0.0316,0.25269 -0.0632,0.28429 -0.56857,1.16871 -0.31586,1.6741 v 2.96917 l 0.28428,0.82126 1.26347,-0.18952 1.80045,-0.28429 0.28428,2.08474 0.22111,0.63173 0.75809,0.47381 0.25269,0.63173 0.56857,1.76887 0.15793,0.91602 1.13713,0.34746 1.07395,1.10554 0.7265,0.78966 -0.0632,0.44222 -0.2211,1.04237 0.31586,0.66332 0.28429,0.75809 0.69491,-0.12635 0.37904,-0.4738 0.22111,0.0948 -0.15794,1.10554 -0.18952,0.28428 -0.78967,1.16872 -0.60015,1.83203 -0.66332,0.75809 -2.90599,0.0316 -0.44222,0.63173 -0.31587,0.0632 -0.41063,0.85284 -0.37904,3.82201 -0.60015,-0.0316 -0.60015,-0.25269 -0.56857,-0.53698 -1.32664,-0.56856 -1.61093,-0.4738 -0.50539,-0.85285 -0.69491,-0.4738 -1.83205,-0.34746 -0.28427,-0.37904 -0.41063,-0.25269 -0.12635,-0.28429 -0.50539,-0.2211 -0.15793,-0.94761 -0.69492,-0.15793 -0.75808,0.25269 -2.43219,0.60015 -0.60015,0.56856 -0.60015,0.56857 -0.15794,0.41063 0.22111,1.29506 0.50539,1.2003 1.29507,0.69491 0.97918,0.75809 0.53698,-0.0316 0.78968,-0.41063 1.80045,0.25269 0.75808,0.34746 0.47381,0.50539 0.18952,0.44221 0.4738,0.44222 0.4738,1.16871 0.0277,1.67016 -0.43037,0.21321 0.12969,0.23672 1.56347,0.35736 2.81425,0.49138 1.02743,0.44671 2.59089,0.67006 0.44671,1.83149 v 1.07209 l -0.22336,1.20611 c 0,0 0,1.16144 0,1.47413 0,0.31269 0.17868,0.89341 0.17868,0.89341 l 0.62539,1.25077 0.22335,0.44671 -0.31269,0.35737 -0.49137,0.35736 -0.71474,0.49138 -1.02742,0.49137 -0.53605,0.58072 -0.75939,0.40204 -0.49138,0.89341 -0.26803,0.31269 0.22336,0.3127 0.67006,0.53604 2.09951,0.53605 3.26095,0.49138 0.89342,0.22335 0.58071,-0.4467 0.35737,0.62538 0.49138,1.02743 1.07209,-0.0447 2.45688,-0.62539 0.35736,-2.14418 h 0.35737 l 0.53605,0.31269 0.53604,0.71473 h 1.5188 l 0.22335,-0.80407 0.53605,-0.40204 1.20611,-0.67006 0.71473,-0.31269 0.49137,0.40203 0.22335,1.29545 0.80408,0.17868 0.49137,0.62539 -0.4467,0.67006 -0.44671,0.89341 0.3127,1.56347 0.62538,0.62539 0.71473,1.29545 0.53605,0.49138 0.59747,1.13909 z"
     id="caserta"
     name="Caserta"
     />
</svg>
