<svg
   xmlns="http://www.w3.org/2000/svg"
   version="1.1"
   id="campania"
   viewBox="0 0 511 465"
   aria-label="Map of Campania - Italy"
   >
  <path
     id="napoli"
     d="m 207.66623,207.66558 -0.41345,-1.12944 -0.92777,-1.6135 -0.6454,-0.60506 -0.68573,-1.49248 -0.72607,-0.76641 -0.72608,-1.45214 -0.56472,-0.68574 -1.04878,-0.88742 -0.72605,-1.41181 -0.76642,-1.00843 -2.17823,-0.60506 -1.5328,0.20169 -0.68575,-0.36304 1.00843,-0.52439 0.68575,-0.44371 0.7664,-0.52439 0.6454,-1.12944 0.60507,-1.61349 0.4437,-1.08912 -0.28235,-1.61349 -0.40337,-0.48405 -0.0807,-0.3227 1.12945,-0.36304 2.13788,-0.64539 0.52437,-0.24202 0.88743,-0.0403 0.56472,0.56473 0.6454,-0.0807 0.48405,-0.40337 h 0.36303 l 0.72607,0.4437 0.48405,0.16136 0.36305,0.60505 0.52438,0.0403 0.52437,-0.3227 1.65385,-0.36304 1.25045,-0.20168 1.21013,-0.28237 h 2.5009 l 1.12945,0.28237 0.36305,0.92776 0.80675,0.28236 1.0891,0.44371 2.09755,0.0403 1.37147,-0.3227 0.121,-0.44371 -0.0807,-0.3227 -0.72608,-1.49248 -0.28235,-0.80675 -0.3227,-0.44371 -0.68575,0.12102 -0.68572,0.52438 h -4.51778 l -2.63202,0.20169 c 0,0 -0.9883,0.57481 -1.0387,0.57481 -0.0504,0 -0.94795,0.21174 -0.97818,0.18151 l -0.67565,-1.1597 0.40338,-0.80674 0.6454,-0.24203 -0.56473,-0.48404 -0.6454,-0.64541 -0.3227,-0.80674 -0.48405,-1.2908 -2.66225,0.16135 -2.42025,-0.32269 -1.9362,-0.6454 -0.72607,-1.53282 v -2.82362 l -0.48403,-1.77484 -0.40337,-2.09754 -0.3227,-0.40337 -0.40338,-1.69418 -0.0807,-2.82361 0.3227,-1.37147 0.6454,-1.21012 -0.40338,-1.53282 -0.56472,-2.58159 -1.04878,-0.56472 -0.56472,-2.17822 -1.0891,-1.6135 -1.3034,-1.27315 -2.2013,0.0754 -0.91273,-0.27096 -0.24245,-0.38506 -1.45467,-0.0143 -0.9555,-0.32801 -0.51343,-0.38506 -0.61507,0.34238 -0.78155,0.76136 -0.16875,0.29707 0.0654,1.12262 -0.1457,1.16565 v 1.23849 l 0.58282,0.43713 0.2914,1.60276 -0.0728,1.0928 -0.4371,0.72852 -1.67563,0.94709 -0.0728,0.58282 -0.72853,0.80139 -0.72852,-0.58283 -1.0928,-0.80138 -1.31135,-0.50997 -1.38423,-0.43712 h -1.5299 -1.3842 l -0.80137,0.50997 -0.94713,0.58283 -0.1457,0.72853 -0.87425,2.25843 -1.60275,0.50997 -1.31137,-0.0728 -1.6756,-0.87424 -2.1856,0.36427 -1.5299,0.21856 -1.60278,0.36426 -1.09277,0.65568 -2.3313,0.1457 -1.3842,-0.50997 -1.16565,-0.21856 -1.2385,-0.36427 -0.65568,-0.43711 0.1457,-0.29141 0.94708,-0.65568 0.65567,-0.87423 0.36428,-0.65568 0.1457,-0.87423 -0.80138,-0.65568 -0.80137,-0.43712 -1.89418,-0.29141 -2.11275,-0.1457 -1.60275,0.36426 -0.9471,0.21855 -1.60275,0.72854 h -1.38422 -1.6756 l -2.3313,0.1457 -0.43713,0.36427 -0.58282,0.21856 -0.72853,-0.29142 -0.2914,-0.29141 -1.67562,-0.1457 -0.94709,0.43711 -1.52991,0.0728 h -1.2385 l -1.74847,-0.50997 -1.2385,-0.21856 h -1.89417 l -0.9471,0.58282 -0.72852,0.29141 -0.36427,0.72854 -0.43712,1.09279 -0.0728,1.31135 -0.0728,1.23851 0.14571,0.72853 1.0928,0.65567 0.1457,0.80138 v 1.74848 l -0.1457,1.67561 -0.72853,1.52991 -0.43712,1.60276 -1.31135,0.21857 -1.16565,-0.36427 -0.87423,-0.29141 h -1.45707 l -0.87423,0.29141 -1.31135,1.0928 0.58283,0.80138 0.50997,0.43711 0.94708,0.21856 v 0.50997 l -0.58282,0.0728 -0.87423,0.94708 -0.36427,0.72854 -0.94709,0.43711 -0.87423,-0.87424 -0.58283,-0.58282 -0.80138,-0.50997 -0.80138,-1.16564 -1.01994,-1.01994 h -0.65568 l -0.43712,0.87423 -0.21856,1.16565 -0.80138,1.01994 -2.40415,0.29141 -0.94708,0.29141 h -0.80139 l -0.65568,-0.36427 -0.80139,-0.43711 -1.23849,-0.50997 -1.67562,-0.14571 -1.82133,0.72853 -0.50997,0.50997 -0.58281,-0.29141 -0.21857,-0.36427 h -1.16564 l -0.43712,1.01994 -0.21856,1.01994 -0.1457,0.72854 -0.94709,0.0728 v -1.67561 l 0.21856,-1.67562 -0.65568,-0.1457 -0.1457,0.72853 -0.87424,0.50997 -1.45706,0.65567 -0.65568,0.80138 -0.43711,0.43712 -0.21856,0.80139 -0.87424,0.1457 -1.89417,-0.36426 -0.72853,-0.80138 -1.0928,-0.14571 -0.21855,-0.43712 0.58282,-0.50997 0.72853,-0.43712 0.65567,-0.94709 2.62271,-0.21855 -0.14571,-1.82133 -0.58282,-1.45706 -0.36426,-1.2385 -0.65568,-1.52991 -0.65567,-1.52991 h -1.01995 l -0.50997,0.65568 h -1.31135 l -1.60277,0.29141 -1.96702,0.21856 h -0.80139 l -0.43711,1.09279 -0.50997,1.16565 -0.14571,0.50997 -0.80138,2.03988 -1.16565,0.80138 -1.31135,0.50997 -0.36427,0.29142 -2.03988,0.50997 -3.20553,-0.36427 -2.40414,0.0728 -2.3313,0.21856 -0.1457,0.29141 -0.0728,0.72853 0.50997,0.80138 -0.65568,0.80139 -1.2385,0.50997 -1.0928,0.36426 h -1.01994 l -0.80138,-0.29141 -0.50997,-0.65567 -0.80138,-0.21857 -0.1457,0.29142 -0.69217,0.43716 -0.18219,1.67565 v 2.69556 l 1.60276,0.87424 0.72853,1.01994 0.43712,0.72853 0.43712,0.58282 0.1457,0.72853 -0.43711,0.43712 -0.36427,0.94709 v 0.58282 l 0.87424,1.01994 0.1457,0.80139 0.80138,0.94708 0.21857,1.01994 0.43711,0.87424 0.1457,0.43711 0.58283,0.36427 0.0728,0.43712 -0.52271,0.78258 0.46574,2.25428 1.34571,3.00197 0.6211,2.89846 0.31055,1.34571 0.31055,2.17384 0.72461,1.44924 0.10352,2.69142 0.31055,3.72659 -0.20703,2.58791 v 2.07032 l -0.10352,2.69143 -0.31055,1.34571 -0.20703,0.93165 -0.20704,1.55275 v 1.13868 l 0.20704,1.24219 1.65626,0.6211 1.8633,0.41406 0.72461,0.31055 0.41407,0.10352 1.34571,-0.51758 2.89845,-0.20703 0.6211,0.20703 0.31055,0.62109 0.6211,0.6211 0.20703,0.62111 0.10352,0.62109 1.2422,0.10352 0.41406,-0.6211 v -1.13868 l -0.31055,-1.03516 h -0.93165 l -0.62109,-0.41407 -1.03517,-0.20703 -0.31054,-0.82814 h 1.55274 l 0.10352,-1.03515 -0.31055,-1.55275 v -2.07033 l -0.72462,-0.72461 -0.62109,-0.6211 -0.51759,-0.41407 -0.31055,-0.51758 -1.34571,-0.51758 h -0.51758 l -0.10352,-1.03516 v -0.93165 l 0.72462,-0.31055 0.72461,-0.82813 0.41407,-0.31055 0.20703,-0.41406 c 0,0 0.6211,-0.51759 1.03516,-0.6211 0.41407,-0.10352 0.93165,-0.41407 0.93165,-0.41407 h 0.93165 l 0.41406,-0.51758 1.75978,0.31055 h 1.13868 l 1.13868,0.10352 0.72462,0.51758 0.93164,0.51758 0.82814,1.2422 1.55274,0.41406 1.55274,0.10352 2.48439,-0.10352 0.82814,0.62109 h 2.07033 l 1.03516,0.20704 1.55274,1.55275 1.03517,1.24219 1.03516,1.34571 v 1.03517 l -1.44923,-0.10352 h -1.13868 -0.82813 l -0.31055,1.2422 v 1.13868 h 0.93165 l 1.34571,-0.51758 v -0.72462 l 0.82814,-0.41406 h 0.62109 1.75978 l 0.41406,0.62109 0.72462,0.51759 0.10352,0.62109 0.51758,0.6211 0.82813,-0.31054 0.51758,-1.13868 1.75978,-1.13868 1.03516,-1.03517 0.20703,-0.93165 -0.31054,-0.72461 v -1.86329 l 0.82812,-0.82814 1.03517,-2.07032 0.72461,-1.75978 1.03517,-0.6211 0.82813,-0.72462 0.82813,-0.10351 0.93165,-0.51758 0.10351,-0.72462 0.6211,0.31055 0.82813,0.51758 1.13868,-0.10351 0.93165,-0.72462 0.41407,-1.13868 1.24219,-1.03516 0.51758,-0.82813 1.2422,-0.51758 1.24219,-0.10352 0.82814,-0.72462 1.13868,0.20704 1.44922,0.82813 1.55275,0.93165 1.65626,0.6211 1.65627,0.82812 1.55274,0.6211 0.82813,0.6211 0.93164,0.82813 0.62111,0.93165 0.51757,1.03516 1.13867,0.20704 2.17385,0.93164 0.10353,0.93165 0.82812,0.6211 -0.1035,0.31054 -0.5176,0.41407 v 0.6211 l 0.72463,0.72462 1.03515,0.10351 1.34572,1.75978 0.1035,0.82813 1.03518,0.41407 1.96682,0.62109 0.31053,0.72462 0.82815,0.51758 0.93165,1.24219 0.41405,0.10353 1.13867,0.72461 0.41408,0.82813 1.13867,0.62109 0.72463,1.24221 1.03515,0.41406 0.82815,0.41406 0.51757,0.82813 0.51758,0.82814 v 0.72461 l 1.75977,0.31055 0.82815,0.31055 1.3457,0.20703 0.10353,0.93165 1.13867,0.51758 2.38088,0.41407 1.13867,-0.41407 1.34573,-1.03517 1.75977,-0.41406 1.3457,0.20703 0.72463,0.82813 0.93165,0.62112 0.6211,0.93162 1.03515,1.34573 2.07032,1.2422 0.31055,1.13867 1.13868,1.55275 0.20705,1.2422 1.55275,2.79493 0.1035,1.44922 0.31055,0.6211 0.31055,0.82813 v 0.93165 0.93165 0.6211 l -0.6211,0.31055 -0.20703,0.62107 -0.72462,1.24223 h -0.51758 l 0.10353,-1.24223 -0.41408,0.41408 c 0,0 1.03518,0 0,0 -1.03517,0 -1.65625,0.72462 -1.65625,0.72462 l -1.65627,1.3457 -2.27735,0.41408 -0.93165,1.03515 -0.82813,0.31055 -0.20705,1.1387 -0.7246,1.3457 -0.20705,1.13867 -0.82812,1.44925 -0.013,1.00858 -0.54193,0.3708 -1.8825,0.9127 -0.28522,0.68455 -1.45468,0.1997 -2.02512,0.3137 -0.39933,0.51345 0.7416,0.656 0.6275,1.02685 c 0,0 0.2282,-0.2282 0.0571,0.57045 -0.17115,0.7986 -0.17115,0.7986 -0.17115,0.7986 0,0 -0.45635,1.1124 -0.71305,1.91105 -0.2567,0.79865 -0.2567,0.79865 -0.2567,0.79865 l -0.7416,0.2282 -0.45638,0.48485 -1.68285,0.7416 -0.14262,0.57045 -0.79863,0.4564 -0.34227,0.4278 -2.28183,0.54195 -0.45637,0.3993 c 0,0 -0.82715,0.42785 -1.65433,-0.1426 -0.82715,-0.57045 -0.82715,-0.57045 -0.82715,-0.57045 0,0 -0.28522,0.42785 -0.82715,-0.19965 -0.54195,-0.6275 -0.19967,-0.17115 -0.54195,-0.6275 -0.34227,-0.45635 -0.34227,-0.45635 -0.34227,-0.45635 0,0 -0.68455,-0.42785 -0.91273,0.0285 -0.22817,0.45635 -0.22817,0.48485 -0.22817,0.48485 0,0 -0.48488,-0.71305 -0.54195,0.3423 -0.0571,1.05535 0.2567,0.057 -0.0856,1.05535 -0.34228,0.9983 -0.34228,0.9983 -0.34228,0.9983 l -0.77012,-0.2282 -0.28523,-0.68455 -0.42785,0.3423 -0.42785,0.656 c 0,0 -0.54192,0.2282 -0.0571,0.7701 0.4849,0.54195 0.4849,0.54195 0.4849,0.54195 l 0.9983,0.7416 0.0285,0.31375 -0.5134,0.3708 -0.51343,1.2835 -0.57045,0.5705 -0.0856,0.82715 c 0,0 0.0285,-0.4564 -0.39933,0.57045 -0.42782,1.0268 -0.42782,1.0268 -0.42782,1.0268 l -0.34228,0.91275 c 0,0 -0.0285,0.5134 -0.42785,1.34055 -0.39932,0.8272 -0.17115,-0.68455 -0.39932,0.8272 -0.22818,1.5117 0.0571,1.11235 -0.22818,1.5117 -0.28522,0.3993 -0.14262,-0.3423 -0.28522,0.3993 -0.14263,0.7416 -0.11413,-0.2282 -0.14263,0.7416 -0.0285,0.9698 -0.0285,0.9698 -0.0285,0.9698 l 0.28523,1.45465 0.0856,0.6275 0.31375,1.8825 0.0856,0.28525 0.65602,0.0855 1.05535,-1.02685 1.54023,-0.7986 1.5117,-1.7114 1.56875,-0.59895 1.14092,-0.5134 1.54023,-1.198 1.6258,-0.57045 c 0,0 0.19967,-0.62745 0.57047,-0.59895 0.37078,0.0285 0.37078,0.0285 0.37078,0.0285 l 0.19967,0.71305 c 0,0 0.0571,0.3708 0.3708,0.3423 0.31375,-0.0285 0.31375,-0.0285 0.31375,-0.0285 l 0.54193,-0.7131 0.0285,-0.59895 1.5117,-0.65605 0.82717,-0.94125 1.36908,-0.5134 1.54025,-0.4849 0.65602,-0.2567 c 0,0 0.65603,-1.1409 1.5117,-1.71135 0.85568,-0.5705 0.71308,-0.2282 0.85568,-0.5705 0.14262,-0.34225 0.14262,-0.34225 0.14262,-0.34225 l 0.34228,-0.65605 0.45635,-0.3993 0.14262,-0.3708 1.19795,-0.1426 0.7416,-0.45635 1.14093,-0.28525 0.8842,-0.0571 0.68455,-1.0553 0.45635,-0.54195 0.79865,-0.45635 0.5134,-0.17115 0.19967,0.6275 0.1141,-0.42785 0.5134,-0.1141 0.65603,-0.0571 v 0.0285 l 0.85567,-0.19965 1.2265,-0.0285 1.2719,-0.1688 -0.57145,-0.61455 -0.52437,-0.80675 -0.34288,-0.62525 -0.0807,-1.16975 0.40337,-0.50425 0.68573,-1.18995 0.68575,-0.28235 1.04877,-0.48405 0.62523,-1.0891 0.48405,-1.7547 0.60505,-0.48405 0.80675,-0.3832 h 1.3513 l 1.1698,0.6656 0.72605,-0.4639 1.12945,-0.2017 1.16977,0.3832 0.76643,1.45215 0.16135,0.2017 -0.16135,0.54455 c 0,0 -0.3832,0.9076 -0.3832,0.9883 0,0.0807 0.20167,1.6538 0.20167,1.6538 l 0.9681,0.42355 0.68575,1.43195 1.5328,0.76645 0.54455,0.1815 0.2622,-0.2622 0.56473,-0.6454 0.62522,-0.3832 h 1.6135 l 0.9681,0.36305 0.7059,0.2017 0.68573,-0.1412 0.70592,-0.7664 0.78658,-0.66555 0.28235,-1.12945 0.24202,-0.24205 0.40338,0.92775 0.62522,0.2824 0.68575,0.78655 0.90758,0.3227 1.3513,-0.2622 0.82692,-0.8269 0.74625,-1.39165 0.24203,-0.86725 -0.22188,-1.0891 -1.61347,-0.4639 -0.74625,-0.6454 -0.36305,-0.9479 0.38322,-0.82695 0.24203,-0.7664 -0.24203,-0.5042 -1.49247,-1.553 -1.45215,-1.4118 -0.72608,-1.51265 -0.42355,-0.58488 v -1.16977 l 0.48405,-0.0807 0.60505,0.34287 0.86728,0.24203 0.6454,-0.28235 0.94792,-0.68575 0.24203,-0.98825 0.7664,-0.62525 0.34287,-0.6454 0.56473,-1.7345 0.10082,-1.27063 1.53283,-0.72607 0.34287,-0.90758 -0.0605,-1.00845 -1.0286,-0.40337 -1.53283,-0.7059 -0.3227,-0.28235 0.0202,-1.53283 0.4437,-1.21012 0.30253,-0.24203 -0.7664,-0.36302 -1.59333,-0.2622 -0.3832,-0.68573 -0.66557,-1.4723 -0.40338,-1.06895 -0.72607,-0.3832 -0.30253,-1.47232 -0.46387,-1.04878 -0.54455,0.0202 -0.56475,0.22185 -0.34285,0.1412 -0.34288,-0.0605 -0.78657,-0.84707 -0.78658,-0.72608 -0.74625,-0.7664 -0.4437,-0.14117 -0.3227,0.14117 -0.7059,0.8269 -0.38322,0.2622 -1.87568,0.46388 -0.3832,0.3227 -1.2908,-0.1815 -0.78657,-0.56473 -2.8438,-0.28237 -0.0807,-1.0891 0.22185,-0.54455 1.43197,-0.68575 -0.0403,-0.68573 -0.74625,-1.53282 -0.3227,-3.02531 -0.34285,-1.49247 -0.86725,-0.76641 -0.2622,-0.48405 0.14118,-0.76641 0.9681,-0.24203 2.15805,-0.82691 2.33955,-0.6454 3.1665,-0.46388 0.54455,-1.06894 0.3227,-1.16978 0.4437,-1.06895 0.72607,-0.68573 0.30253,-0.26219 0.68575,-0.12101 0.52437,0.28236 3.0253,0.84708 0.78658,0.2622 0.36305,-0.18153 0.0404,-0.60505 -0.10085,-1.51265 -0.3227,-0.72608 -0.34285,-0.44371 v -0.9681 l 1.0891,-0.3832 c 0,0 1.04877,-0.66557 1.33112,-0.78658 0.28238,-0.12101 1.04878,-0.22186 1.04878,-0.22186 l 0.36302,-1.06893 -0.1815,-3.30767 -0.38322,-0.66556 -0.72608,-0.74625 -1.4723,-0.64539 -1.49247,-0.84708 -1.53283,-0.68574 -0.86725,-0.78658 -0.0807,-0.9681 0.1815,-0.60506 0.82692,-1.45215 0.2017,-1.49247 0.5042,-0.42354 3.0253,-0.32271 0.60508,-0.48405 h 1.45215 l 0.92775,0.46389 0.30252,0.30252 z m -36.34942,86.11855 0.56287,-0.40915 0.97138,-0.4327 0.53672,1.0734 -1.4309,0.3078 -0.6149,0.43365 -0.81667,-0.74145 z m -54.99947,9.5346 h 3.39918 3.93589 l 1.07342,1.2523 1.78905,0.3578 1.78904,-0.3578 1.25233,-1.43125 1.61014,-0.7156 1.07343,0.7156 0.71561,1.07345 -1.07343,0.8945 -0.1789,1.07345 -0.71561,1.0734 -0.53672,1.78905 -0.89451,-0.3578 -1.43125,-1.0734 -1.78904,0.5367 -1.43123,0.1789 v 0.3578 l -0.17891,1.07345 h -0.89451 l -1.25233,0.7156 -2.32576,0.5367 -0.53671,0.1789 h -1.61014 -1.25233 l -1.07342,-1.2523 -0.35781,-1.78905 v -1.96795 z m -47.1427,-63.17405 v 0.80137 c 0,0 -0.50997,0.21858 1.16564,0.1457 1.67562,-0.0728 1.67562,-0.0728 1.67562,-0.0728 l 1.60277,0.21857 v 1.16565 l -0.21856,0.4371 -2.11274,0.36428 -0.50997,0.72852 -0.29141,0.65568 h -1.16565 l -0.43711,1.2385 -0.65568,2.0399 c 0,0 -0.43712,0.87422 0.0728,0.87422 0.50997,0 0.50997,0 0.50997,0 l 0.94709,0.5828 0.14571,0.87425 -0.14571,0.65568 h -1.01994 l -0.50997,-0.9471 -0.94709,-0.4371 -0.50997,-1.0928 -1.45705,0.14572 -0.65568,0.36425 v 1.45705 l -0.50997,0.29143 -1.16565,-0.51 c 0,0 -0.21856,-0.21855 -0.29141,-0.7285 -0.0728,-0.50998 -0.0728,-0.50998 -0.0728,-0.50998 l 0.21855,-1.31135 0.87424,-0.50997 h 1.01994 l 0.80138,-0.4371 c 0,0 0.21856,1.45705 0.58283,-0.50998 0.36426,-1.96705 0.43711,-1.96705 0.43711,-1.96705 l 0.58283,-0.94707 0.0728,-2.6227 1.01994,-0.29143 0.9471,-0.65567 v 0.50995 z m -24.575,8.09585 2.60617,0.0652 2.83868,0.47313 1.17986,0.19662 2.00927,0.66975 1.6744,0.8372 1.00463,2.67903 v 1.50697 l 0.50232,1.50695 0.54578,1.41238 -0.0254,0.98872 0.87424,0.72853 -0.43711,0.21857 -0.29142,0.80138 -1.96703,0.36425 v 0.72855 l 0.36427,0.2914 0.21856,0.87422 -0.65568,0.72853 -0.72853,-0.4371 -0.65567,-0.87425 -1.16565,-0.36425 -2.03988,0.36425 -0.87424,0.58282 -0.36426,0.6557 -0.29141,0.5828 -0.36427,0.65568 -1.0928,0.21857 -1.74846,-0.1457 -1.67562,-0.72855 -0.94709,-0.72852 -0.50997,0.21855 -0.1457,0.43712 -1.74848,0.58283 -0.36426,0.36427 -0.72853,0.1457 -0.43712,-0.58282 -0.50997,-0.2914 -0.80138,0.0728 -1.31135,0.80138 -0.72853,0.72852 -0.50997,-0.2914 -2.84126,-1.74847 -1.01995,-0.14573 -0.36426,-1.45705 -1.16565,-0.50997 -0.21856,-0.58283 0.80139,-0.80137 1.45705,-0.2914 0.21857,-1.82133 -0.43713,-1.2385 -0.50997,-1.96702 0.50997,-1.82133 0.9471,-1.2385 0.65567,-1.74847 0.50997,-0.80138 -0.1457,-0.65567 -1.45707,-0.50998 -0.58281,-0.94707 -0.21857,-0.58283 0.72854,-0.65567 0.94708,-0.1457 0.72853,-0.6557 0.50997,-0.0728 0.0728,0.8014 0.43712,1.01995 0.36427,0.36425 0.50997,-1.0928 1.09279,-0.0728 0.94709,0.2914 0.14571,1.31137 h 1.31135 l 1.09279,0.4371 0.94709,0.65568 1.01994,0.50997 1.01994,-0.50997 1.28779,-0.35508 z m 130.97519,-1.71648 0.65403,0.11835 0.73737,0.0531 0.16135,0.55318 -0.72462,-0.0605 -0.82813,-0.66412 z"
     name="Napoli"
     />
  <path
     d="m 290.97154,390.46913 0.5542,0.0554 0.11085,1.16385 -0.60965,0.38795 -0.22165,-0.72045 z m -111.34477,-108.63045 -0.6454,-0.6454 -0.52438,-0.80675 -0.34287,-0.6252 -0.0807,-1.1698 0.40338,-0.5042 0.68573,-1.18995 0.68573,-0.2824 1.04877,-0.48405 0.62523,-1.0891 0.48405,-1.75465 0.60507,-0.48405 0.80674,-0.3832 h 1.35131 l 1.16978,0.66555 0.72607,-0.4639 1.12944,-0.20165 1.16979,0.3832 0.76641,1.45215 0.16135,0.20165 -0.16135,0.54455 c 0,0 -0.38321,0.9076 -0.38321,0.9883 0,0.0806 0.20169,1.6538 0.20169,1.6538 l 0.9681,0.42355 0.68574,1.432 1.53282,0.7664 0.54455,0.1815 0.26219,-0.26215 0.56472,-0.6454 0.62523,-0.38325 h 1.6135 l 0.96809,0.36305 0.70591,0.2017 0.68573,-0.1412 0.70591,-0.7664 0.78658,-0.66555 0.28236,-1.12945 0.24202,-0.24205 0.40337,0.92775 0.62523,0.2824 0.68573,0.78655 0.9076,0.3227 1.3513,-0.2622 0.82691,-0.8269 0.74624,-1.39165 0.24203,-0.86725 -0.22186,-1.0891 -1.61349,-0.4639 -0.74624,-0.64535 -0.36304,-0.94795 0.38321,-0.8269 0.24202,-0.76645 -0.24202,-0.5042 -1.49248,-1.553 -1.45215,-1.4118 -0.72607,-1.51263 -0.42355,-0.5849 v -1.16977 l 0.48405,-0.0807 0.60507,0.34288 0.86725,0.24202 0.6454,-0.28237 0.94793,-0.68573 0.24202,-0.98827 0.76641,-0.62523 0.34287,-0.6454 0.56472,-1.7345 0.10084,-1.27062 1.53282,-0.72608 0.34287,-0.9076 -0.0605,-1.00842 -1.0286,-0.40338 -1.53282,-0.7059 -0.3227,-0.28237 0.0202,-1.5328 0.4437,-1.21013 0.30253,-0.24202 -0.76641,-0.36305 -1.59332,-0.2622 -0.38321,-0.68573 -0.66556,-1.47232 -0.40337,-1.06893 -0.72608,-0.38321 -0.30253,-1.47231 -0.46388,-1.04877 -0.54455,0.0202 -0.56473,0.22185 -0.34286,0.14118 -0.34287,-0.0605 -0.78658,-0.84709 -0.78658,-0.72606 -0.74624,-0.76641 -0.44371,-0.14118 -0.3227,0.14118 -0.70591,0.82691 -0.3832,0.26219 -1.87568,0.46388 -0.38321,0.3227 -1.29079,-0.18152 -0.78658,-0.56472 -2.84379,-0.28236 -0.0807,-1.08911 0.22186,-0.54455 1.43197,-0.68574 -0.0403,-0.68573 -0.74623,-1.53282 -0.32271,-3.02531 -0.34287,-1.49248 -0.86724,-0.76641 -0.2622,-0.48405 0.14118,-0.76641 0.9681,-0.24202 2.15805,-0.82691 2.33956,-0.6454 3.16649,-0.46388 0.54455,-1.06894 0.3227,-1.16978 0.44371,-1.06895 0.72607,-0.68573 0.30253,-0.26219 0.68574,-0.12102 0.52439,0.28236 3.02529,0.84709 0.78658,0.26219 0.36304,-0.18152 0.0403,-0.60505 -0.10085,-1.51266 -0.3227,-0.72607 -0.34286,-0.44371 v -0.9681 l 1.0891,-0.3832 c 0,0 1.04877,-0.66557 1.33113,-0.78658 0.28237,-0.12101 1.04878,-0.22186 1.04878,-0.22186 l 0.36303,-1.06894 -0.18151,-3.30766 -0.38321,-0.66557 -0.72607,-0.74624 -1.47231,-0.6454 -1.49249,-0.84708 -1.53282,-0.68574 -0.86725,-0.78657 -0.0807,-0.9681 0.18151,-0.60506 0.82692,-1.45215 0.20168,-1.49248 0.50422,-0.42354 3.02531,-0.3227 0.60506,-0.48405 h 1.45214 l 0.92776,0.46388 0.30254,0.30253 0.95858,0.10792 1.31064,-0.0257 3.32532,0.41566 3.07591,1.4964 1.46868,0.74819 2.21688,0.80362 0.88676,0.36024 0.27711,2.13375 1.82892,0.41566 0.55422,0.4988 2.5217,0.13855 0.44337,-0.38795 -0.52651,-0.16627 -0.13855,-1.7735 0.22169,-0.41567 0.85903,-1.63494 1.33013,-1.44097 0.83133,-1.19157 1.38555,0.33253 1.57953,0.7482 0.41566,0.33252 0.30482,-0.24939 2.10604,-0.47109 3.99038,-0.38795 1.08073,-0.36025 0.33253,1.16387 1.60723,1.49639 0.2494,1.7735 -1.13615,0.47109 -0.7759,0.16626 -0.52652,0.33254 0.69278,1.08073 0.60964,0.58192 0.74819,2.30001 1.4964,1.52411 c 0,0 1.13615,0.38795 2.24464,0.38795 1.1084,0 1.41325,-0.33253 1.63495,-0.33253 0.22165,0 1.6072,-0.47109 1.8012,-0.47109 0.19395,0 2.68795,0.44338 2.68795,0.44338 l 2.90965,0.83133 0.66505,0.2494 0.2494,-0.36024 1.1916,-0.69278 0.69275,-0.66506 0.58195,-0.44338 2.3554,0.0831 0.33255,0.96989 c 0,0 0.58195,0.63735 0.60965,0.7482 0.028,0.11084 1.60725,0.88674 1.60725,0.88674 l 1.49635,0.60965 0.30485,0.36024 1.10845,-0.2494 1.0807,-0.72049 0.6928,-0.58192 0.5819,-0.88676 c 0,0 1.35785,-0.41566 1.4964,-0.41566 0.13855,0 1.5241,0.27711 1.5241,0.27711 l 2.07835,0.58193 0.5265,0.58193 0.7482,-0.55422 1.0253,-0.55422 3.0482,-1.41326 0.7205,-0.74819 1.5795,-0.88676 2.9928,-0.69277 0.4988,-0.55422 0.63735,0.0276 0.0275,3.10363 0.9422,0.41566 1.7181,0.72049 3.0205,1.46868 c 0,0 0.5542,1.13615 0.5542,1.27471 0,0.13854 0.44335,0.19397 0.66505,0.19397 0.2217,0 0.83135,-0.88675 0.83135,-0.88675 l 4.0181,-0.13855 0.41565,0.7759 h 2.2723 l 0.9976,-0.49879 1.053,-1.02531 0.8036,0.11085 0.52655,0.63735 0.41565,1.88434 c 0,0 2.88195,0.72049 3.0759,0.72049 0.194,0 1.13615,0.30482 1.13615,0.30482 v 0.74819 l 1.10845,0.0554 0.7759,-1.08073 0.4988,-1.10844 1.10845,-0.2494 0.7759,-0.55422 1.35785,0.36024 3.0482,1.52411 4.4892,0.69277 4.29515,0.77591 2.494,0.7759 5.09885,0.72049 5.3205,0.77591 1.0253,0.38795 0.63735,1.21929 0.60965,2.10603 0.60965,2.99278 0.859,1.57953 1.1639,0.4988 0.19395,2.38314 0.83135,1.66266 1.6072,1.44097 1.441,0.66507 0.5265,1.10844 h 0.66505 c 0,0 0.38795,-0.60965 0.58195,-0.66507 0.19395,-0.0554 0.5542,-0.36024 0.5542,-0.36024 l 3.6856,-0.7482 1.66265,-0.55422 0.5265,-0.96988 c 0,0 1.44095,-0.69278 1.66265,-0.7482 0.2217,-0.0554 4.40605,-0.72048 4.40605,-0.72048 l 1.38555,-0.36025 0.4988,0.44338 0.7482,0.19398 1.16385,-0.27711 0.94215,-0.58193 -0.19395,-0.94218 -0.7482,-1.44097 -1.053,-1.74579 -0.0831,-0.33253 0.55425,-0.44338 0.3325,-1.7735 -0.4711,-1.7735 -0.44335,-1.13615 -0.88675,-0.66507 0.0554,-5.54219 0.4434,-1.63495 1.4964,-2.99278 0.6096,-1.27471 0.9145,-0.22168 1.5241,-0.77592 0.7482,-0.69277 1.5518,-1.55181 c 0,0 1.38555,-0.41567 1.4964,-0.52651 0.11085,-0.11085 0.66505,-4.10122 0.66505,-4.10122 l 0.6928,-5.07111 0.8036,-1.57953 0.7482,-1.55181 0.60965,-1.02531 c 0,0 3.65785,0 3.8518,0 0.194,0 2.2723,0.33253 2.2723,0.33253 l 1.3232,1.16386 1.9675,-0.0346 0.6274,0.51022 2.44935,0.25473 0.4115,1.0777 1.0189,0.58784 0.47025,0.99932 1.5088,1.45 0.7642,0.7446 1.0777,0.31351 1.1757,-0.29392 0.6858,-0.43107 0.3331,0.47026 0.60745,0.31352 0.17635,1.46959 -1.05815,0.31352 -1.52835,1.62635 -0.41155,0.54865 0.15675,0.47027 0.96015,0.3919 1.4304,0.56824 0.88175,-0.52906 0.6858,-0.52905 1.05815,0.15675 0.3331,0.99933 -1.01895,0.29392 -0.3527,1.37162 -0.41145,1.60676 0.41145,2.11622 1.5676,1.56757 0.43105,0.52906 0.52905,0.39189 -0.1763,0.31351 -0.8426,0.23513 -0.54865,1.01892 -0.47025,0.19596 -0.3723,2.70405 -0.3919,0.27432 0.3527,1.70474 0.13715,3.19392 0.80345,0.39189 0.25465,4.17366 1.05815,0.52905 0.7054,0.76419 3.70335,0.82297 0.8034,0.72501 0.97975,0.48986 0.2743,0.96013 1.74395,1.50879 1.4696,1.52838 0.7446,1.45 1.548,0.78379 2.27295,0.76419 2.9588,1.45 0.4311,1.03851 1.8027,0.48987 c 0,0 1.4304,0.82298 1.5088,0.82298 0.0784,0 1.3912,0.21552 1.3912,0.21552 l 1.56755,-0.2743 0.6074,-0.43109 0.43115,0.17634 0.4114,0.60745 0.4115,0.15675 0.25475,2.05743 h 2.60605 l 0.0784,-0.7054 0.2939,0.23515 0.54865,0.52905 -0.3331,1.11687 -0.7054,2.86083 -1.64595,1.74392 c 0,0 -1.0973,0.41148 -1.27365,0.62703 -0.17635,0.21555 -0.94055,0.84257 -0.94055,0.84257 l -1.3324,0.6662 -1.80275,0.45068 -0.50945,3.3311 -0.84255,1.50877 -0.7446,0.70543 -0.7838,2.31215 -0.3135,0.82295 -0.725,0.86215 0.23515,0.3723 0.3919,0.4115 1.90065,0.45065 1.58715,0.7446 0.725,1.58715 1.4696,1.45005 0.4115,0.1763 0.3723,-0.1959 1.21485,-0.4311 1.0973,0.50945 0.4899,0.8426 0.47025,0.39185 0.3527,0.4507 2.8804,0.0979 0.4703,-0.5682 0.45065,0.1959 0.97975,0.29395 0.6858,1.27365 0.4703,0.627 0.72495,0.3331 -0.15675,0.196 -0.82295,0.52905 0.23515,0.80335 1.0385,0.4507 1.0777,0.3723 0.7642,-0.7642 1.7831,0.3331 0.8034,0.823 0.2155,0.3135 -0.2155,0.43105 -0.725,0.7642 -0.7446,1.5088 -0.3527,0.6858 0.2939,0.8426 0.7838,1.48915 0.82295,0.8034 0.725,1.4304 0.19595,0.64665 -0.3919,0.6466 0.098,0.94055 1.58715,0.7642 0.3919,0.41145 -0.4507,1.1169 -0.725,1.4304 -0.2939,0.8034 0.2547,0.7446 0.8034,0.7642 1.5088,0.80335 0.7054,0.66625 0.19595,0.3527 -0.19595,0.3527 -1.548,1.4696 -1.0777,0.52905 -0.0784,0.50945 -0.64665,0.17635 -0.0784,0.47025 0.48985,0.64665 0.7642,0.7642 0.7054,2.1946 1.54795,1.48915 1.4696,0.7838 3.7622,0.725 1.4304,0.7446 0.84255,0.86215 0.66625,2.9392 0.7054,1.4892 1.60675,1.548 0.7642,1.46955 0.15675,0.56825 -0.64665,0.3723 0.039,0.3331 1.15605,0.23515 1.4892,0.7054 0.7642,0.7642 3.0176,1.548 3.05675,0.6662 1.352,1.5088 1.1365,0.47025 0.4311,1.0581 1.27365,0.4507 0.0588,0.50945 1.58715,0.54865 1.58715,2.99795 0.64665,0.725 0.78375,1.548 0.92095,0.2939 0.62705,-0.3331 0.82295,-0.7642 c 0,0 0.7838,-0.41145 0.88175,-0.41145 0.098,0 0.99935,0.17635 0.99935,0.17635 l 0.2939,0.9601 2.2338,0.8034 3.0176,1.54795 1.50875,1.41085 0.823,0.86215 0.3527,1.4108 -0.4311,2.273 -0.47025,2.0378 0.43105,2.42975 0.823,4.56555 1.52835,1.4696 0.70545,0.82295 1.0777,0.4115 0.41145,1.03855 1.5088,1.50875 0.725,2.2338 1.5284,1.4696 0.7642,0.7838 1.11685,0.3723 0.1568,0.5682 0.90135,0.4899 0.6074,0.2939 0.92095,-0.23515 1.0777,-0.3135 1.2149,0.25475 2.17498,0.725 3.01755,1.56755 2.2534,0.725 1.0385,0.3919 0.52905,1.1561 0.50945,0.9797 0.99935,0.52905 0.3723,0.54865 0.6074,0.56825 0.1176,0.823 -1.0581,0.2547 -0.66625,0.64665 0.0784,2.62565 0.48985,1.2345 0.725,0.78375 0.21555,0.52905 -0.17635,0.21555 -1.5088,1.60675 -0.7054,0.62705 -1.0777,0.47025 -0.2939,1.4696 0.6074,1.8811 0.7054,1.3716 0.8034,0.8426 0.21555,0.6858 -0.29395,0.8034 -0.3527,0.84255 -3.37025,0.627 -2.2534,0.7446 -0.7054,1.548 -1.56755,1.4892 -1.43038,1.4696 -4.4872,0.7642 -0.4115,2.7236 -0.3527,1.8419 -1.52835,0.725 -1.5284,0.7642 -0.7642,0.725 -0.17635,0.60745 0.25475,0.92095 0.7642,1.52835 0.21555,0.66625 -0.99935,0.7446 -0.7446,0.725 -1.21485,0.56825 v 0.3527 l -0.58785,0.3135 0.27435,1.7831 0.7446,1.60675 0.80335,0.7054 0.3527,1.80275 0.7446,0.1959 v 1.27365 l -0.7642,0.4507 -0.4115,2.2142 -0.2155,1.21485 0.2939,1.8223 0.0784,0.94055 -0.1372,0.58785 -0.725,1.54795 -0.725,1.39125 -0.80335,0.80335 -0.725,2.2338 -0.7642,1.52835 -0.7054,1.43045 -1.5284,1.50875 -2.33175,0.8034 -2.2338,0.0979 -0.6662,0.66625 -0.62705,0.2939 0.56825,0.3135 1.5676,0.098 1.3716,0.725 1.60675,0.7838 0.725,1.50875 0.7446,2.2142 0.27435,0.6662 -0.21555,0.4507 -0.8034,0.3723 -0.9993,0.3331 -0.50945,1.1365 -1.548,0.7446 -2.2338,0.78375 -1.1169,1.01895 -0.74455,0.0784 -0.3527,-0.39185 -1.5088,-1.548 -1.4304,-1.33245 -0.8426,-0.86215 -0.17635,-0.9993 0.17635,-1.25405 0.68585,-0.66625 0.6662,-0.9993 -0.6662,-0.60745 -0.54865,-0.56825 -0.54865,-0.45065 h -0.60745 l -0.17635,1.1169 -0.50945,0.5878 -0.21555,0.3919 -1.0581,0.21555 -0.60745,-1.1365 -0.8034,-0.11755 -4.6439,-0.7054 -3.9009,-0.3101 -2.6048,0.38795 -2.9928,0.7205 -1.66265,0.88675 -4.43375,0.60965 -2.10605,0.5542 -0.7759,0.9976 -1.82895,0.60965 -0.44335,0.60965 -0.7759,1.6072 -1.55185,1.6627 -0.88675,1.44095 -0.8313,2.21685 0.11085,1.88435 -0.60965,0.1663 -0.60965,-0.83135 -1.053,0.2771 -1.441,0.6651 -1.5518,0.94215 -0.94215,0.38795 -0.7205,1.82895 -1.2747,1.44095 -0.83135,1.5518 -1.38555,1.33015 -1.7735,3.1036 -0.66505,0.88675 -0.60965,2.9374 -1.5518,1.38555 -0.4988,0.16625 h -0.2771 c 0,0 -0.33255,-0.4434 -0.55425,-0.4988 -0.2217,-0.0554 -1.053,-0.66505 -1.053,-0.66505 l -2.38315,-0.4434 -2.5494,-0.72045 -2.2723,-0.55425 -2.9374,0.4434 -1.38555,0.7759 -0.5542,0.4988 -0.5542,-0.16625 -1.60725,-0.9976 -2.7711,-1.55185 -1.7181,-1.6072 -0.44335,-0.9976 -0.33255,-0.2217 -0.11085,-0.33255 -0.7759,-0.38795 -0.2771,-0.94215 -0.88675,-0.9422 -0.5542,-0.7759 -0.4434,-0.33255 -0.38795,-0.72045 -2.5494,0.11085 -0.4988,0.38795 -1.7735,0.7759 -0.4988,0.4988 -0.38795,0.60965 -0.55425,0.22165 -0.44335,0.55425 -5.2651,-0.11085 -0.5542,-0.4988 0.4988,-2.10605 0.72045,-0.3325 0.388,0.5542 1.44095,0.2217 0.4988,-0.4988 0.94215,-0.4434 v -2.66025 l -0.6096,-0.38795 -0.4988,-1.8289 -0.6651,-2.7711 -1.3301,-2.82655 -1.10845,-1.88435 -2.0506,-2.0506 -0.4988,-1.16385 -1.2193,-0.38795 -1.2747,-0.66505 -2.3277,-0.83135 -1.4964,-1.5518 -1.38555,-0.60965 -1.4964,-1.38555 -0.9976,-1.8289 -1.2747,-1.27475 -1.66265,-1.71805 -0.55425,-0.7759 -1.053,-0.4434 -0.83135,-0.4988 -5.54215,-0.3325 -1.7735,-1.7735 -0.4988,-1.27475 -1.60725,-1.66265 -1.60725,-1.3301 -1.4964,-1.6627 -0.72045,-1.3301 -1.1639,-0.5542 -0.22165,-0.55425 -0.83135,-0.3325 -0.88675,-1.7181 -1.33015,-0.4988 -0.6096,-0.83135 -1.7735,-0.7759 -2.38315,-0.38795 -1.2747,0.33255 -1.55185,0.8313 -2.6048,0.11085 -1.82895,0.4434 -1.66265,1.60725 -0.66505,0.88675 -1.7735,0.2771 -1.2193,-0.38795 -0.94215,-0.83135 -1.1639,-0.33255 -1.10845,-0.0554 -0.38795,0.7759 h -0.99755 l -0.60965,-0.2217 -1.05305,-0.4988 -0.38795,-1.1084 -1.71805,-0.83135 -0.60965,-0.7205 -0.2771,-1.88435 -1.441,-0.44335 -0.60965,-1.44095 -0.6096,-1.38555 -0.7205,-0.88675 -0.88675,-1.27475 -1.88435,-0.5542 -0.16625,-1.44095 -0.55425,-0.4434 -0.2771,-0.66505 -1.10845,-0.38795 -0.22165,-0.66505 -5.37595,-0.388 -1.7735,-1.6072 -0.66505,-0.33255 -1.441,-1.21925 -2.43855,-0.388 h -1.66265 l -0.1663,1.55185 -1.66265,-0.33255 -2.88195,-1.44095 -0.88675,-0.7205 -1.71805,-0.9422 -0.55425,-2.2723 -0.2771,-0.3325 -0.2217,-1.38555 0.33255,-0.4434 0.83135,-0.7759 1.66265,-0.66505 1.2193,-1.60725 1.7735,-0.60965 0.94215,-0.2771 0.4988,-1.21925 0.7205,-1.05305 0.8313,-2.21685 0.1663,-4.7109 v -3.2699 l -0.9422,-3.0482 -0.8313,-0.94215 -0.27715,-0.88675 0.1663,-1.1639 0.5542,-3.99035 1.88435,-0.16625 0.2771,-0.4988 1.10845,-0.2771 0.9976,-0.60965 1.44095,-0.0555 0.2771,-0.7205 0.4988,-0.16625 0.60965,-1.88435 0.66505,-0.44335 0.38795,-0.55425 0.83135,-0.9976 0.2771,0.4434 -0.6096,0.8313 0.38795,0.2217 0.5542,-0.2771 1.38555,-0.7205 0.83135,-0.2771 0.6096,-0.94215 0.38795,-5.37595 -0.16625,-3.3253 -0.4988,-0.33255 -0.5542,-2.60485 -0.38795,-0.5542 -0.2217,-1.053 -0.38795,-0.1663 -0.66505,-0.94215 -1.2193,-3.7687 -1.5518,-2.88195 -1.4964,-3.0482 -0.7205,-1.5518 -0.88675,-0.7205 -0.66505,-1.5518 -0.7205,-0.6651 -0.8313,-1.71805 -0.77595,-0.60965 -0.38795,-1.10845 -0.6096,-0.16625 -0.4434,-1.10845 -0.7205,-0.5542 -1.38555,-3.10365 -0.8313,-0.72045 -0.55425,-1.55185 -0.9976,-0.72045 -0.66505,-2.2169 -0.7759,-1.7735 -0.60965,-0.83135 -0.66505,-0.2771 -0.33255,-0.94215 -0.72045,-2.2169 -0.6651,-1.38555 -0.88675,-2.21685 -1.38555,-2.9928 -0.4988,-1.38555 -1.1084,-0.9976 -1.4964,-3.10365 -0.83135,-0.66505 -0.7205,-1.44095 c 0,0 -0.2771,-0.7205 -0.4988,-0.7759 -0.22165,-0.0554 -0.8867,-2.10605 -0.8867,-2.10605 l -1.55185,-1.88435 -0.60965,-1.33015 -0.8313,-0.5542 -0.6651,-1.4964 -1.49635,-1.7735 -0.77595,-1.3301 -1.71805,-1.441 -0.66505,-0.9976 -0.6651,-1.3301 -1.5518,-0.7759 -0.66505,-1.33015 c 0,0 -1.33015,-0.66505 -1.60725,-1.66265 -0.2771,-0.9976 -1.44095,-1.38555 -1.44095,-1.38555 l -1.55185,-1.7181 -1.55175,-1.38555 -0.7759,-0.72045 -0.33255,-0.9422 -1.21925,-0.7759 -1.33015,-1.55178 -1.66265,-0.4988 -1.33015,-1.55182 -1.6072,-1.66265 -2.9928,-1.4964 -0.60965,-0.5542 -2.9928,-1.38555 -1.88435,-0.77593 -1.16385,0.60965 v 0.83133 l 0.7205,0.38795 -0.44335,0.4434 -0.9422,-0.33255 -0.5542,-0.88675 -0.2217,-0.66505 -0.83135,0.11085 -0.66505,1.66265 -0.11085,1.4964 h -0.66505 l -0.33256,-0.94218 -0.88676,-0.11085 -0.33252,0.60965 -1.33013,0.44338 -2.32772,0.60962 -0.83133,2.54943 -0.77591,1.33012 -0.94218,0.77588 -0.49879,1.6072 -0.94217,0.9976 -0.55422,1.9398 -0.83133,1.5518 -1.66266,0.2771 -3.54701,-0.3325 c 0,0 -1.33012,-0.60965 -1.55181,-0.77595 -0.22169,-0.16625 -0.72049,-0.72045 -0.72049,-0.72045 l -2.27229,-0.9422 -1.44098,-0.66505 -3.32531,-0.2771 -2.60483,0.2771 -0.94218,0.83135 -0.55422,1.49635 -1.05302,0.83135 -0.33252,0.9976 -1.60724,0.33255 -1.71809,1.4964 -1.55181,0.7759 -1.44097,1.44095 -0.60964,0.7759 -0.83133,2.38315 -0.60964,0.94215 -0.55422,0.1663 -0.72048,-1.55185 -2.71568,0.388 -2.16146,0.7759 -2.16145,0.7205 -1.55182,0.72045 -0.77591,0.33255 -1.33012,-0.1663 -1.10844,-0.7759 -0.66507,-1.5518 -0.7759,-0.7759 -2.82652,-1.60725 -2.93737,-0.38795 -2.32772,0.5542 -1.44097,1.441 z"
     id="salerno"
     name="Salerno"
     />
  <path
     d="m 224.83021,149.74489 0.34227,-1.22648 0.42784,-0.99829 0.22818,-0.31376 0.54194,0.34228 0.79863,1.51171 0.7416,0.71307 0.77011,0.85568 0.85569,1.48319 0.19966,0.31375 -0.28522,0.34227 -0.3708,0.51341 0.3708,0.25671 0.65602,0.79864 0.85568,0.65602 0.25671,0.42784 -0.25671,0.34228 -0.77011,2.31034 -0.77012,2.19627 -0.85569,1.56875 -0.68454,0.71307 -0.7416,1.48318 -0.19965,1.02683 -0.39933,0.71307 -0.8842,-0.2567 -1.65433,-0.7416 -0.59897,-0.3708 -0.45637,-3.93615 0.48489,-3.8791 0.28523,-1.71137 v -0.71307 l -0.39933,-0.42784 -0.71307,-0.96978 -0.14261,-1.02682 0.28523,-0.34228 0.34227,-0.45636 1.08387,-0.42784 0.42784,-0.51341 z m -17.3701,58.08179 -0.5048,-1.07602 -0.92776,-1.6135 -0.6454,-0.60505 -0.68574,-1.49249 -0.72607,-0.76641 -0.72607,-1.45214 -0.56472,-0.68574 -1.04878,-0.88741 -0.72607,-1.41181 -0.76641,-1.00844 -2.17821,-0.60506 -1.53282,0.20169 -0.68573,-0.36304 1.00842,-0.52438 0.68574,-0.44372 0.76641,-0.52438 0.6454,-1.12945 0.60505,-1.61349 0.44372,-1.08911 -0.28236,-1.61349 -0.40337,-0.48405 -0.0807,-0.3227 1.12945,-0.36304 2.13787,-0.6454 0.52439,-0.24202 0.88742,-0.0404 0.56473,0.56473 0.6454,-0.0807 0.48405,-0.40337 h 0.36303 l 0.72607,0.44371 0.48405,0.16135 0.36304,0.60506 0.52438,0.0403 0.52439,-0.3227 1.65383,-0.36304 1.25046,-0.20168 1.21012,-0.28237 h 2.50091 l 1.12945,0.28237 0.36303,0.92775 0.80675,0.28236 1.08911,0.44372 2.09754,0.0403 1.37148,-0.3227 0.12101,-0.44371 -0.0807,-0.3227 -0.72607,-1.49248 -0.28237,-0.80675 -0.32269,-0.44371 -0.68573,0.12101 -0.68574,0.52439 h -4.51779 l -2.63201,0.20169 c 0,0 -0.98829,0.5748 -1.03869,0.5748 -0.0504,0 -0.94792,0.21177 -0.97818,0.18152 l -0.67565,-1.1597 0.40338,-0.80675 0.6454,-0.24202 -0.56473,-0.48405 -0.6454,-0.6454 -0.32269,-0.80675 -0.48405,-1.29079 -2.66227,0.16135 -2.42024,-0.3227 -1.9362,-0.6454 -0.72607,-1.53282 v -2.82361 l -0.48404,-1.77485 -0.40338,-2.09754 -0.3227,-0.40337 -0.40337,-1.69417 -0.0807,-2.82362 0.3227,-1.37146 0.6454,-1.21013 -0.40337,-1.53282 -0.56473,-2.58159 -1.04877,-0.56472 -0.56472,-2.17822 -1.08911,-1.61349 -1.28323,-1.30845 0.57733,-1.69668 0.74624,-1.4824 0.75632,-0.73616 1.52274,-0.78658 0.80744,-1.44824 0.71307,-0.31375 0.79864,-4.19285 0.74159,-0.77012 v -0.42784 l -0.11409,-0.31375 -0.22818,-0.31376 -0.0285,-1.31205 0.79864,-0.28522 0.65602,0.65602 0.37079,0.19966 0.19967,1.62581 0.14261,-0.11409 0.45636,-0.71308 2.1107,0.22819 2.42443,0.82716 2.08217,0.65602 1.59728,0.85568 0.14261,0.17115 0.51341,0.14261 0.82716,-1.08387 1.54023,-0.79864 0.65603,-0.8842 0.68455,-0.25671 0.54193,-1.3691 0.57046,-0.22818 0.28522,-0.51341 3.19456,0.34228 2.13921,0.28522 1.14092,-0.17113 0.34227,-0.7416 2.28183,-0.25671 0.79863,-1.39761 0.25671,-0.25671 0.48489,0.19966 1.54023,1.42614 1.42614,1.59728 1.51171,1.3691 0.39932,1.88251 0.51341,2.70966 1.48319,3.08046 0.77012,1.54024 1.5117,0.59897 1.3691,1.54024 0.96978,0.34227 0.57045,-0.34227 2.25331,-0.3708 0.71307,-0.34227 1.54022,-0.74159 0.17115,-0.28523 -0.1141,-0.51342 -0.7701,-0.68454 -0.8557,-0.88421 v -0.74159 l 0.7701,-2.90933 0.4564,-2.79524 -0.42785,-2.48148 -0.2567,-0.48489 0.0285,-1.34057 1.31205,-0.11409 0.45635,0.42784 2.28185,0.85569 0.45635,0.17113 h 0.45635 l 0.2282,-1.9966 -0.65605,-0.59898 -0.0285,-0.39932 0.3708,-0.19966 0.54195,-0.45636 1.854,-0.25671 0.34225,0.62751 0.1426,1.56875 0.42785,1.36909 -0.28525,1.02683 -0.59895,0.42784 0.3708,0.79864 0.82715,0.88421 0.2567,0.17113 0.5134,-0.17113 0.31375,-0.54194 0.3708,0.25671 0.0856,0.2567 2.9093,0.7416 1.02685,0.28523 0.5134,-0.25671 1.4832,-1.56875 1.56875,-1.56876 0.1426,-0.94125 0.71305,-0.25671 0.599,0.45636 1.28355,0.39933 0.94125,-0.31375 0.45635,-2.05365 0.34225,-0.54193 0.28525,-0.57046 0.1426,-0.85569 1.8825,-0.5134 1.255,-0.65603 0.8557,-0.74159 1.65435,-0.77012 1.68285,-0.42784 1.22645,-0.28523 1.4832,-0.77012 0.82715,-0.82716 0.8842,-0.22818 0.28525,-2.31035 0.3708,-0.14261 0.6275,-1.14092 1.59725,-0.39931 1.9681,0.48488 0.57045,0.22819 h 0.57045 l 0.57045,-1.68285 2.19625,-0.68455 2.31035,-0.82716 1.51175,-0.74159 1.48315,-1.48319 0.79865,-0.82716 0.71305,-1.42614 1.42615,-1.45467 1.3691,-1.62579 1.05535,-0.77012 1.42615,-0.65602 0.1426,-0.57046 -0.22815,-0.25671 -0.6275,-1.42614 -0.7416,-1.48319 -0.39935,-0.3708 -0.42785,0.22819 -0.34225,0.34227 -0.3708,-0.19966 -0.3993,-0.6275 -0.599,-0.51341 -0.19965,-0.74159 -0.42785,-0.51342 -0.31375,-0.99829 0.0571,-1.42614 0.82715,-0.22819 0.42785,-0.14261 -0.17115,-0.85568 -0.82715,-0.28524 -3.13755,-0.19965 h -1.7684 l -1.911,0.48489 -0.17115,0.57045 -0.4564,0.34227 -0.9412,0.0571 -0.1997,-1.11239 0.42785,-2.93785 0.31375,-2.59558 -0.0856,-1.22647 -0.68455,-0.77013 0.19965,-0.34227 1.05535,-1.05534 1.3976,-0.71307 0.68455,-0.77012 0.31375,-0.51341 0.42785,-1.3691 0.8842,-0.31374 0.7131,-1.16944 0.82715,-0.28523 0.59895,-0.77012 0.5705,-0.31375 0.5134,-0.57045 0.94125,-0.25671 0.19965,-2.51001 0.19965,-0.51341 -0.19965,-0.37079 -0.65605,-3.76502 -1.4261,-1.36909 -0.8557,-0.91273 -0.91275,-0.22819 -0.59895,-0.8842 -0.2282,-0.0856 -0.45635,-4.70626 -0.6275,-2.16774 c 0,0 -0.39935,-0.51341 -0.39935,-0.71307 0,-0.19966 -0.11405,-2.82376 -0.11405,-2.82376 l 0.6275,-0.3708 0.34225,-0.99829 4.2214,-0.28523 1.31205,0.45636 0.68455,0.96978 1.56875,0.65602 0.7701,0.3708 1.4832,-0.0571 0.4849,-0.74159 2.7952,-0.057 1.05535,0.48488 0.8842,0.68455 0.599,0.17114 c 0,0 0.7701,0.0856 0.7701,-0.0571 0,-0.14261 0.68455,-0.77011 0.68455,-0.77011 l 0.8842,-1.65433 0.91275,-0.34227 0.2567,-0.6275 0.1426,0.42784 0.14265,0.6275 0.656,1.48319 0.7131,0.6275 1.0268,0.42784 0.57045,1.11239 0.2282,0.22818 0.5134,-0.11409 0.8842,-0.71307 c 0,0 0.28525,-0.74159 0.7131,-0.77011 0.4278,-0.0285 1.62575,-0.82716 1.62575,-0.82716 l 1.4832,-0.22819 1.7399,0.0571 0.28525,0.45636 1.05535,0.0571 0.2852,0.6275 0.3993,0.0856 0.8272,-0.17114 0.5134,-0.77012 0.7701,-0.85568 1.56875,-0.68455 1.42615,-1.51171 0.77015,-1.51171 0.656,-1.56875 0.2567,-0.71307 0.28525,-0.96978 0.2298,-0.52935 3.3213,-0.50946 1.90065,-0.21554 1.71455,-0.77399 1.7243,-0.47027 2.82165,0.15676 0.3919,1.56757 0.15675,1.01892 1.64595,0.39189 0.94055,-0.47027 0.19595,-0.3527 0.15675,0.17635 0.80335,1.70473 0.7642,1.54798 1.8027,0.27432 0.4703,-0.17635 0.725,-0.82297 0.43105,-1.1169 2.46895,-0.23513 1.0777,0.29392 0.13715,0.47027 0.62705,0.21554 0.5682,0.45067 0.725,0.25473 0.7446,1.1169 0.3723,0.97973 1.1169,0.52905 1.5088,1.56757 1.1169,1.13649 0.4115,1.05811 0.39185,0.50946 0.725,0.43108 0.0784,0.33311 -0.86215,0.0588 -1.9399,0.21555 -1.50875,0.6858 -3.6642,0.76419 -0.4899,0.72501 -0.11755,2.46892 0.60745,1.31284 1.45,3.01757 0.7838,1.50878 1.45,1.50879 0.50945,0.68581 -0.0195,0.76419 -0.725,0.41149 -1.2149,0.41149 -1.52835,0.725 -0.823,0.82297 c 0,0 -1.45,0.78378 -1.45,0.70541 0,-0.0784 -1.4696,1.43041 -1.4696,1.43041 l -1.45,1.52838 -0.41145,1.23446 -0.3919,1.8027 -0.7642,0.68581 -1.4108,0.76419 -0.3527,0.70541 c 0,0 -0.31355,2.13581 -0.23515,2.33176 0.0784,0.19594 0.3527,0.97973 0.3527,0.97973 l 0.58785,0.45067 -0.0195,1.80271 1.0777,0.52906 2.99795,1.48918 1.8419,0.27433 1.1561,0.45068 1.5088,1.52838 0.80335,1.52838 1.548,1.50879 0.6662,1.41081 1.4696,0.74459 0.3723,2.17501 0.17635,0.62702 0.47025,0.50946 0.23515,0.098 0.50945,-0.60743 0.50945,0.17635 1.6264,0.82298 0.5878,0.76419 1.1365,0.47027 0.23515,0.45068 1.66555,0.19594 0.47025,0.60743 1.23445,-0.0392 0.54865,-0.25473 1.5284,-1.41081 1.45,-1.58716 0.3331,-0.25473 0.3919,0.25473 0.48985,1.19527 2.6257,0.27432 1.17565,0.33311 h 2.2338 l 1.8027,0.23514 0.7054,1.03851 0.97975,0.41149 0.11755,0.50946 1.1365,0.52905 0.90135,0.45068 0.99935,-0.15676 0.3723,-1.05811 1.48915,-0.82297 1.548,-1.4696 1.4696,-1.46959 0.7642,-2.27298 0.6466,-0.27433 1.58715,0.27433 1.45,1.48919 0.54865,1.07771 1.0581,0.50946 2.90005,0.7054 1.52835,1.50878 1.4892,1.50879 0.7838,0.7446 1.45,0.78378 0.84255,0.25473 2.175,-0.27432 1.58715,-0.82298 1.6068,-0.3527 0.84255,0.13717 0.25475,1.44999 0.54865,0.17636 1.92025,0.82297 2.1554,0.82297 2.42975,0.76419 4.3892,1.48919 0.56825,0.29392 h 2.27295 l 1.31285,0.11757 0.37555,0.36698 1.46865,2.96508 0.41565,1.8982 1.55185,0.16627 0.31865,0.99759 0.88585,0.67957 0.3135,0.62703 -0.3135,1.56757 -0.7054,0.70541 0.47025,1.48919 0.51315,1.19391 1.60725,0.22169 0.30485,1.7735 0.72045,1.44097 0.36025,1.71809 v 1.2747 l -0.66505,0.47109 -0.11085,2.68796 0.8036,0.52651 -0.1108,4.21206 -0.63735,0.0554 -0.4157,1.08073 -0.7482,0.69277 -1.3301,2.99279 -1.63495,0.80361 -0.7759,1.52411 -0.36025,0.60964 0.3048,0.4988 0.41565,1.19157 -0.3602,0.63735 -0.4711,1.27471 -0.2771,1.80121 -0.6651,1.60724 -0.6096,0.24939 -0.028,0.2494 0.72045,0.47109 -0.3325,0.94217 -0.85905,0.58194 -0.2771,2.71567 -1.60725,0.60964 -2.41085,0.69277 -1.5241,0.80362 -0.7482,0.85904 -1.16385,0.44338 v 0.52651 l -2.5494,0.49879 -3.0205,1.44098 -0.7482,0.7759 -0.30485,0.7482 0.38795,1.49639 0.6651,2.24459 1.1361,0.2494 0.0275,0.33253 -0.6928,0.30483 -1.16385,0.72048 -0.69275,1.05302 h -2.5494 l -0.52655,-1.16387 -0.69275,-0.72048 -2.35545,-0.77591 -2.43855,-0.63735 -5.2374,-0.0554 c 0,0 -1.63495,0.47109 -1.63495,0.60964 0,0.13856 -0.2771,1.05302 -0.2771,1.05302 l -0.8313,0.55422 -1.30245,0.27711 -1.0253,-0.33254 -0.8036,-0.7759 -1.41325,-0.7482 c 0,0 -0.0275,-1.02531 -0.2771,-1.02531 -0.2494,0 -2.57715,0.2494 -2.57715,0.2494 l -2.7711,0.66506 0.38795,2.43857 0.38795,1.08073 0.63735,0.66507 0.83135,-0.47109 3.43615,0.19398 0.38795,2.63253 0.2771,2.60484 0.4157,1.88434 -0.33255,3.40845 -0.8313,0.36025 -0.6651,-0.30482 -1.63495,-0.4988 -2.0783,0.11084 -0.9699,0.38796 -1.93975,0.63735 -1.05305,0.44337 -0.3221,0.68931 -1.98475,0.0589 -1.3232,-1.16386 c 0,0 -2.0783,-0.33253 -2.2723,-0.33253 -0.19395,0 -3.8518,0 -3.8518,0 l -0.60965,1.02531 -0.7482,1.55181 -0.8036,1.57953 -0.6928,5.07111 c 0,0 -0.5542,3.99037 -0.66505,4.10122 -0.11085,0.11084 -1.4964,0.52651 -1.4964,0.52651 l -1.5518,1.55181 -0.7482,0.69277 -1.5241,0.77592 -0.9145,0.22168 -0.6096,1.27471 -1.4964,2.99278 -0.4434,1.63495 -0.0554,5.54219 0.88675,0.66507 0.44335,1.13615 0.4711,1.7735 -0.33255,1.7735 -0.5542,0.44338 0.0832,0.33253 1.053,1.74579 0.7482,1.44097 0.19395,0.94218 -0.94215,0.58193 -1.16385,0.27711 -0.7482,-0.19398 -0.4988,-0.44338 -1.38555,0.36025 c 0,0 -4.18435,0.66506 -4.40605,0.72048 -0.2217,0.0554 -1.66265,0.7482 -1.66265,0.7482 l -0.5265,0.96988 -1.66265,0.55422 -3.6856,0.7482 c 0,0 -0.36025,0.30482 -0.5542,0.36024 -0.194,0.0554 -0.58195,0.66507 -0.58195,0.66507 h -0.66505 l -0.5265,-1.10844 -1.441,-0.66507 -1.6072,-1.44097 -0.83135,-1.66266 -0.19395,-2.38314 -1.1639,-0.4988 -0.859,-1.57953 -0.60965,-2.99278 -0.60965,-2.10603 -0.63735,-1.21929 -1.0253,-0.38795 -5.3205,-0.77591 -5.09885,-0.72049 -2.494,-0.7759 -4.29515,-0.77591 -4.4892,-0.69277 -3.0482,-1.52411 -1.35785,-0.36024 -0.7759,0.55422 -1.10845,0.2494 -0.4988,1.10844 -0.7759,1.08073 -1.10845,-0.0554 v -0.74819 c 0,0 -0.94215,-0.30482 -1.13615,-0.30482 -0.19395,0 -3.0759,-0.72049 -3.0759,-0.72049 l -0.41565,-1.88434 -0.52655,-0.63735 -0.8036,-0.11085 -1.053,1.02531 -0.9976,0.49879 h -2.2723 l -0.41565,-0.7759 -4.0181,0.13855 c 0,0 -0.60965,0.88675 -0.83135,0.88675 -0.2217,0 -0.66505,-0.0554 -0.66505,-0.19397 0,-0.13856 -0.5542,-1.27471 -0.5542,-1.27471 l -3.0205,-1.46868 -1.7181,-0.72049 -0.9422,-0.41566 -0.0275,-3.10363 -0.63735,-0.0276 -0.4988,0.55422 -2.9928,0.69277 -1.5795,0.88676 -0.7205,0.74819 -3.0482,1.41326 -1.0253,0.55422 -0.7482,0.55422 -0.5265,-0.58193 -2.07835,-0.58193 c 0,0 -1.38555,-0.27711 -1.5241,-0.27711 -0.13855,0 -1.4964,0.41566 -1.4964,0.41566 l -0.5819,0.88676 -0.6928,0.58192 -1.0807,0.72049 -1.10845,0.2494 -0.30485,-0.36024 -1.49635,-0.60965 c 0,0 -1.57955,-0.7759 -1.60725,-0.88674 -0.0275,-0.11085 -0.60965,-0.7482 -0.60965,-0.7482 l -0.33255,-0.96989 -2.3554,-0.0831 -0.58195,0.44338 -0.69275,0.66506 -1.1916,0.69278 -0.2494,0.36024 -0.66505,-0.2494 -2.90965,-0.83133 c 0,0 -2.494,-0.44338 -2.68795,-0.44338 -0.194,0 -1.57955,0.47109 -1.8012,0.47109 -0.2217,0 -0.52655,0.33253 -1.63495,0.33253 -1.10846,0 -2.24461,-0.38795 -2.24461,-0.38795 l -1.49639,-1.52411 -0.7482,-2.30001 -0.60964,-0.58192 -0.69278,-1.08073 0.52652,-0.33254 0.7759,-0.16626 1.13616,-0.47109 -0.24941,-1.7735 -1.60723,-1.49639 -0.33253,-1.16387 -1.08073,0.36025 -3.99038,0.38795 -2.10604,0.47109 -0.30481,0.24939 -0.41567,-0.33252 -1.57953,-0.7482 -1.38555,-0.33253 -0.83133,1.19157 -1.33012,1.44097 -0.85904,1.63494 -0.22169,0.41567 0.13855,1.7735 0.52651,0.16627 -0.44337,0.38795 -2.5217,-0.13855 -0.55422,-0.4988 -1.82892,-0.41566 -0.27711,-2.13375 -0.88676,-0.36024 -2.21688,-0.80362 -1.46868,-0.74819 -3.07591,-1.4964 -3.32532,-0.41566 z"
     id="avellino"
     name="Avellino"
     />
  <path
     d="m 328.85294,61.69496 -1.3691,-0.42785 -1.31205,-0.71307 -0.3708,-0.82717 0.42785,-0.68454 v -0.68455 l -0.68455,-1.22648 -0.5134,-0.14262 -0.1997,-0.48488 -0.96975,-0.48489 -0.9983,-0.85569 -0.1426,-1.6258 0.85565,-0.74159 -0.19965,-1.3691 -0.6275,-0.42784 -1.7684,-0.11409 -2.39595,-0.85568 -0.656,-0.79864 -1.42615,-0.71307 -5.1056,-0.59898 -1.56875,-0.96978 -0.7701,-0.6275 -0.79865,-1.56876 -0.59895,-2.36739 -0.28525,-2.08217 -0.4849,-1.05534 -1.0268,-0.51341 -0.6275,-3.42274 -0.42785,-0.51341 0.2282,-0.17114 0.2567,-0.17113 0.57045,-0.71308 0.82715,-0.19965 0.8842,-0.39932 0.39935,-0.51342 0.3708,-0.0856 0.57045,-1.22648 0.82715,-1.59728 1.3691,-0.71307 2.2533,-0.65603 0.2852,-1.11239 -0.2567,-0.42784 -0.22815,-1.11239 c 0,0 -1.14095,-0.28523 -1.255,-0.31375 -0.1141,-0.0285 -0.54195,-1.16944 -0.54195,-1.16944 l -0.4849,-0.34227 -0.0856,-1.34057 0.3708,-1.08387 1.0268,-1.71137 0.91275,-0.31375 0.1426,-0.45637 1.255,-0.2567 0.0856,-0.96978 -0.37075,-0.71307 -0.77015,-1.54023 -0.17115,-0.91273 -0.19965,-0.0571 -0.22815,0.28523 -1.05535,0.28523 h -2.7382 l -1.68285,-0.3708 -1.255,-0.34227 -0.65605,-0.34227 -0.34225,-0.65603 -1.6258,-0.85568 -3.08045,-0.54194 -0.0285,-0.54193 -0.77015,-0.45637 0.0856,-2.62409 h -0.1997 l -0.8842,0.71307 -0.96975,0.37079 -0.3423,0.28523 -0.4278,-0.22818 -0.6703,-2.96638 -0.8129,-2.29608 -0.79865,-1.46893 -0.64175,-0.77011 -0.79865,-0.69881 -0.656,-0.78438 L 290.56109,0 288.69284,0.54193 c 0,0 -1.61155,0.7416 -1.61155,0.79864 0,0.0571 -0.7131,0.69881 -0.7131,0.69881 l -0.71305,1.4404 -0.7416,0.79864 -0.57045,1.28353 -0.8557,0.19966 -1.5402,0.78438 -1.526,0.67028 -1.52595,0.78438 -0.6988,0.79864 -0.79865,0.71307 -2.182,0.77012 -1.583,0.78437 -2.98065,0.71307 -3.6937,0.78438 -2.28185,0.78438 -2.2533,0.67028 -0.3993,0.9983 -1.0696,0.47063 c 0,0 -0.79865,1.42614 -0.8129,1.49745 -0.0145,0.0713 -0.4421,1.75415 -0.4421,1.75415 l -0.49915,0.17114 -0.3851,0.65602 -0.31375,0.12836 -0.48485,0.68454 -0.4564,0.24245 -0.9983,0.52767 h -2.31035 l -2.3246,-0.3708 -3.0234,-1.52597 -1.4404,-0.67028 -0.86995,-0.84143 -1.4404,-0.71307 -0.72735,-0.75585 -0.5847,-1.09813 -0.88421,-0.41358 -2.35314,-0.72733 -2.31034,-0.31375 -0.39932,0.48488 -0.32802,0.19966 -0.22818,0.35654 -1.21221,0.75585 -0.68455,0.78438 -0.41359,1.69711 0.71308,0.32801 c 0,0 -0.0571,1.29779 -0.0571,1.3691 0,0.0713 -0.2567,1.18369 -0.2567,1.18369 l -0.75586,1.44041 -0.77011,2.93785 -1.01256,0.29949 -0.41358,1.22648 -1.59728,0.72733 -0.67029,0.78438 -1.66858,0.71307 -2.12495,0.75585 -2.29608,0.72733 -0.88421,0.28523 -1.38336,-0.27096 -2.182,-0.71308 -0.69881,-1.49744 -0.67028,-0.27097 -0.91273,0.27097 -2.92359,0.69881 -1.4404,0.65602 -0.89847,0.92699 -0.69881,1.41188 c 0,0 -0.74159,1.34057 -0.74159,1.46893 0,0.12835 -0.32801,1.16943 -0.32801,1.16943 l -0.17115,-0.0713 -0.64176,-0.69881 -0.32801,-0.31375 -1.18369,-0.37079 -1.05535,0.34227 c 0,0 -1.51173,1.45466 -1.54023,1.52597 -0.0285,0.0713 -1.5545,1.42614 -1.5545,1.42614 l -0.41358,0.94126 -0.49915,0.31375 -0.39932,2.2533 -0.89847,0.29949 c 0,0 -0.71307,1.34057 -0.71307,1.39762 0,0.057 -0.79863,0.78437 -0.79863,0.78437 l -1.58302,0.77012 -1.38336,0.77012 -0.52767,0.22818 -0.2567,-0.17114 -1.5545,-0.8129 -0.8129,-0.057 -1.59728,-0.38506 v -0.48489 l 0.44211,-0.39932 0.12835,-1.95381 c 0,0 -0.74158,-0.34227 -0.8129,-0.38506 -0.0713,-0.0428 -0.28523,-0.79864 -0.28523,-0.79864 l -1.49745,-1.51171 -1.48319,-0.77011 -0.99829,-0.1854 -0.52767,0.22818 -0.69882,1.48319 -0.78438,0.77011 -0.77011,1.4404 -0.71307,0.21393 -2.22478,-0.1854 -3.0662,-0.72733 -0.75586,-0.34228 -2.23904,0.27097 -1.49744,0.82716 -1.34466,0.31254 -0.88743,0.52439 -0.40337,0.56472 -0.3227,0.76641 -1.57316,0.36304 -0.56472,-0.44372 -1.53282,-0.64539 -0.40338,-0.36304 -0.72606,0.0807 -0.36304,1.04877 -0.24203,0.84708 -0.52438,0.40338 -0.40337,0.16134 -0.52439,-0.96809 -1.00843,0.0403 -0.40338,0.28236 -1.4118,0.60506 -0.92777,1.61349 -0.60505,1.57316 -0.84709,1.37147 -0.68573,2.29923 -0.44372,1.41181 0.0807,1.53282 0.40337,-0.6454 2.54126,-0.24202 0.52438,0.28236 0.72608,0.3227 0.60505,-0.36304 1.33114,-0.48405 0.88742,0.56473 0.92776,0.64539 0.60505,2.21856 0.9681,1.57315 0.16135,0.76641 -0.4437,1.33114 -0.20169,0.6454 0.3227,0.44371 0.68573,1.37147 0.80674,0.68573 1.6135,0.6454 0.24203,2.09754 -0.40337,0.76641 -0.84709,0.24203 -3.6707,0.68573 -2.82362,1.49248 -1.41181,0.68574 -1.65382,1.77484 -0.92777,1.57316 -0.56472,1.25046 -0.24202,0.96809 0.28236,0.44372 -0.20168,0.60506 -0.68574,2.66226 -1.12944,0.24202 -0.36304,1.08912 -0.88743,1.49247 v 0.44372 l 0.16135,0.20168 0.88743,0.92777 0.0403,0.32269 -0.0807,0.36304 -0.72608,1.49248 -0.40337,2.13788 v 3.79171 l 0.36304,1.04877 1.61349,-0.24202 2.29922,-0.36304 0.36304,2.66227 0.28236,0.80674 0.9681,0.60507 0.3227,0.80674 0.72607,2.2589 0.20169,1.16978 1.45215,0.44371 1.37147,1.41181 0.92776,1.00843 -0.0807,0.56473 -0.28236,1.33113 0.40337,0.84708 0.36304,0.9681 0.88742,-0.16135 0.48405,-0.60506 0.28236,0.12101 -0.20169,1.41181 -0.24202,0.36303 -1.00844,1.49249 -0.7664,2.33956 -0.84709,0.9681 -3.71104,0.0403 -0.56472,0.80675 -0.40338,0.0807 -0.52438,1.0891 -0.48404,4.88082 -0.76641,-0.0403 -0.76641,-0.32269 -0.72608,-0.68574 -1.69417,-0.72607 -2.0572,-0.60506 -0.6454,-1.08912 -0.88742,-0.60505 -2.33957,-0.44372 -0.36303,-0.48405 -0.52439,-0.32269 -0.16135,-0.36304 -0.6454,-0.28236 -0.20168,-1.21012 -0.88743,-0.20169 -0.9681,0.3227 -3.10597,0.76641 -0.76641,0.72607 -0.76641,0.72608 -0.20169,0.52438 0.28236,1.65384 0.6454,1.53282 1.65383,0.88741 1.25046,0.9681 0.68574,-0.0403 1.00843,-0.52438 2.29923,0.32269 0.96809,0.44372 0.60507,0.64539 0.24202,0.56472 0.60506,0.56472 0.60506,1.49249 0.0353,2.13283 -0.54959,0.27228 0.16561,0.30231 1.9966,0.45636 3.59388,0.6275 1.31205,0.57046 3.30865,0.85569 0.57046,2.33886 v 1.3691 l -0.28524,1.54023 c 0,0 0,1.48319 0,1.88251 0,0.39932 0.22818,1.14091 0.22818,1.14091 l 0.79865,1.59728 0.28522,0.57045 -0.39931,0.45637 -0.6275,0.45637 -0.91274,0.62749 -1.31205,0.62751 -0.68455,0.7416 -0.96977,0.5134 -0.6275,1.14092 -0.34228,0.39932 0.28523,0.39931 0.85569,0.68455 2.68114,0.68455 4.16433,0.6275 1.14092,0.28523 0.74159,-0.57045 0.45637,0.79863 0.6275,1.31205 1.36909,-0.0571 3.13751,-0.79864 0.45637,-2.73819 h 0.45636 l 0.68455,0.39932 0.68455,0.91273 h 1.93955 l 0.28523,-1.02682 0.68454,-0.51342 1.54024,-0.85568 0.91273,-0.39932 0.6275,0.51341 0.28523,1.65433 1.02682,0.22818 0.6275,0.79864 -0.57046,0.85568 -0.57045,1.14091 0.39932,1.9966 0.79864,0.79864 0.91273,1.65433 0.68454,0.6275 0.76299,1.45466 1.27109,0.28617 0.20596,-0.29482 0.78154,-0.76136 0.61508,-0.34238 0.51342,0.38506 0.95551,0.32801 1.45466,0.0143 0.24245,0.38506 0.91273,0.27096 2.19375,-0.12834 0.60507,-1.67903 0.74624,-1.4824 0.75632,-0.73616 1.52273,-0.78658 0.80745,-1.44823 0.71307,-0.31376 0.79863,-4.19285 0.7416,-0.77011 v -0.42785 l -0.11409,-0.31375 -0.22818,-0.31375 -0.0285,-1.31205 0.79863,-0.28523 0.65603,0.65603 0.37079,0.19966 0.19967,1.6258 0.14261,-0.11409 0.45636,-0.71308 2.11069,0.22819 2.42444,0.82716 2.08216,0.65603 1.59729,0.85568 0.14261,0.17114 0.51341,0.14261 0.82716,-1.08387 1.54023,-0.79863 0.65603,-0.88421 0.68454,-0.25671 0.54194,-1.36909 0.57046,-0.22818 0.28522,-0.51342 3.19456,0.34228 2.13921,0.28523 1.14091,-0.17114 0.34228,-0.74159 2.28182,-0.25671 0.79864,-1.39762 0.25671,-0.2567 0.48488,0.19966 1.54024,1.42614 1.42614,1.59728 1.51171,1.36909 0.39932,1.88251 0.51341,2.70967 1.48319,3.08046 0.77011,1.54024 1.51171,0.59897 1.3691,1.54024 0.96978,0.34227 0.57045,-0.34227 2.2533,-0.3708 0.71307,-0.34227 1.54025,-0.7416 0.17115,-0.28523 -0.1141,-0.51341 -0.7701,-0.68455 -0.85572,-0.8842 v -0.7416 l 0.77012,-2.90932 0.45635,-2.79524 -0.4278,-2.48148 -0.25675,-0.48489 0.0285,-1.34058 1.31205,-0.11409 0.4563,0.42784 2.2819,0.85569 0.4563,0.17114 h 0.45635 l 0.2282,-1.9966 -0.656,-0.59898 -0.0285,-0.39932 0.3708,-0.19966 0.54195,-0.45637 1.854,-0.2567 0.34225,0.6275 0.1426,1.56875 0.42785,1.3691 -0.28525,1.02682 -0.59895,0.42785 0.3708,0.79864 0.82715,0.8842 0.2567,0.17114 0.5134,-0.17114 0.31375,-0.54193 0.3708,0.25671 0.0856,0.2567 2.9093,0.74159 1.02685,0.28523 0.51345,-0.25671 1.4832,-1.56875 1.56875,-1.56876 0.1426,-0.94125 0.71305,-0.2567 0.599,0.45636 1.28355,0.39932 0.94125,-0.31375 0.45635,-2.05365 0.3423,-0.54192 0.2852,-0.57046 0.1426,-0.85569 1.8825,-0.51341 1.25505,-0.65602 0.85565,-0.74159 1.65435,-0.77013 1.68285,-0.42783 1.22645,-0.28524 1.4832,-0.77011 0.82715,-0.82716 0.8842,-0.22818 0.28525,-2.31035 0.3708,-0.14262 0.6275,-1.14091 1.59725,-0.39932 1.9681,0.48489 0.57045,0.22818 h 0.57045 l 0.57045,-1.68285 2.19625,-0.68454 2.31035,-0.82716 1.51175,-0.7416 1.48315,-1.48318 0.79865,-0.82717 0.7131,-1.42614 1.4261,-1.45466 1.3691,-1.6258 1.05535,-0.77011 1.42615,-0.65603 0.1426,-0.57046 -0.22815,-0.25671 -0.6275,-1.42614 -0.7416,-1.48318 -0.39935,-0.3708 -0.42785,0.22819 -0.34225,0.34227 -0.3708,-0.19966 -0.3993,-0.6275 -0.599,-0.51342 -0.19965,-0.74159 -0.42785,-0.51341 -0.31375,-0.9983 0.0571,-1.42614 0.82715,-0.22818 0.42785,-0.14262 -0.17115,-0.85568 -0.82715,-0.28523 -3.13755,-0.19966 h -1.7684 l -1.911,0.48489 -0.17115,0.57046 -0.45635,0.34227 -0.94125,0.0571 -0.1997,-1.11238 0.42785,-2.93786 0.31375,-2.59557 -0.0856,-1.22648 -0.68455,-0.77012 0.19965,-0.34227 1.05535,-1.05535 1.3976,-0.71307 0.68455,-0.77011 0.31375,-0.51342 0.42785,-1.36909 0.8842,-0.31375 0.7131,-1.16944 0.82715,-0.28522 0.59895,-0.77012 0.5705,-0.31375 0.5134,-0.57046 0.94125,-0.2567 0.19965,-2.51001 0.19965,-0.51341 -0.19965,-0.3708 -0.65605,-3.76501 -1.4261,-1.3691 -0.8557,-0.91272 -0.91275,-0.22819 -0.59895,-0.88421 -0.2282,-0.0856 -0.45635,-4.70627 -0.6275,-2.16773 c 0,0 -0.39935,-0.51342 -0.39935,-0.71308 0,-0.19965 -0.11405,-2.82375 -0.11405,-2.82375 l 0.6275,-0.3708 0.34225,-0.9983 4.2214,-0.28523 1.31205,0.45637 0.68455,0.96977 1.56875,0.65603 0.7701,0.37079 1.4832,-0.057 0.4849,-0.74159 2.7952,-0.0571 1.05535,0.48489 0.8842,0.68455 0.599,0.17113 c 0,0 0.7701,0.0856 0.7701,-0.057 0,-0.14262 0.68455,-0.77012 0.68455,-0.77012 l 0.8842,-1.65432 0.91275,-0.34228 0.2567,-0.6275 0.1426,0.42784 0.14265,0.62751 0.656,1.48318 0.7131,0.6275 1.0268,0.42785 0.57045,1.11239 0.2282,0.22818 0.5134,-0.11409 0.8842,-0.71307 c 0,0 0.28525,-0.7416 0.7131,-0.77012 0.4278,-0.0285 1.62575,-0.82716 1.62575,-0.82716 l 1.4832,-0.22818 1.7399,0.057 0.28525,0.45637 1.05535,0.057 0.2852,0.6275 0.3993,0.0856 0.8272,-0.17113 0.5134,-0.77012 0.7701,-0.85569 1.56875,-0.68454 1.42615,-1.51171 0.77015,-1.51171 0.656,-1.56876 0.2567,-0.71307 z m -104.02273,88.04993 0.34227,-1.22648 0.42784,-0.99829 0.22818,-0.31376 0.54194,0.34228 0.79863,1.51171 0.7416,0.71307 0.77011,0.85568 0.85569,1.48319 0.19966,0.31375 -0.28522,0.34227 -0.3708,0.51341 0.3708,0.25671 0.65602,0.79864 0.85568,0.65602 0.25671,0.42784 -0.25671,0.34228 -0.77011,2.31034 -0.77012,2.19627 -0.85569,1.56875 -0.68454,0.71307 -0.7416,1.48318 -0.19965,1.02683 -0.39933,0.71307 -0.8842,-0.2567 -1.65433,-0.7416 -0.59897,-0.3708 -0.45637,-3.93615 0.48489,-3.8791 0.28523,-1.71137 v -0.71307 l -0.39933,-0.42784 -0.71307,-0.96978 -0.14261,-1.02682 0.28523,-0.34228 0.34227,-0.45636 1.08387,-0.42784 0.42784,-0.51341 z"
     id="benevento"
     name="Benevento"
     />
  <path
     d="m 187.65311,155.33761 0.11003,1.09505 -0.14571,1.16564 v 1.2385 l 0.58283,0.43712 0.29141,1.60277 -0.0728,1.09279 -0.43712,0.72853 -1.67562,0.94708 -0.0728,0.58283 -0.72853,0.80138 -0.72853,-0.58282 -1.0928,-0.80139 -1.31135,-0.50997 -1.38421,-0.43711 h -1.52991 -1.3842 l -0.80138,0.50997 -0.94712,0.58282 -0.1457,0.72853 -0.87424,2.25844 -1.60277,0.50997 -1.31135,-0.0728 -1.67562,-0.87423 -2.18558,0.36426 -1.52991,0.21856 -1.60277,0.36426 -1.09279,0.65568 -2.33129,0.1457 -1.38421,-0.50997 -1.16565,-0.21855 -1.2385,-0.36427 -0.65567,-0.43712 0.1457,-0.29141 0.94709,-0.65567 0.65568,-0.87424 0.36426,-0.65567 0.14571,-0.87424 -0.80139,-0.65568 -0.80138,-0.43711 -1.89418,-0.29142 -2.11273,-0.1457 -1.60277,0.36426 -0.94708,0.21856 -1.60277,0.72853 h -1.3842 -1.67562 l -2.33129,0.14571 -0.43712,0.36426 -0.58282,0.21856 -0.72853,-0.29141 -0.29142,-0.29141 -1.67561,-0.14571 -0.94709,0.43712 -1.52991,0.0728 h -1.2385 l -1.74846,-0.50997 -1.23851,-0.21855 h -1.89417 l -0.94709,0.58281 -0.72853,0.29142 -0.36427,0.72853 -0.43711,1.0928 -0.0728,1.31135 -0.0728,1.2385 0.14571,0.72853 1.09279,0.65567 0.14571,0.80139 v 1.74847 l -0.14571,1.67561 -0.72853,1.52991 -0.43712,1.60277 -1.31135,0.21856 -1.16564,-0.36426 -0.87424,-0.29142 h -1.45706 l -0.87423,0.29142 -1.31136,1.09279 0.58283,0.80138 0.50997,0.43712 0.94708,0.21856 v 0.50997 l -0.58282,0.0728 -0.87423,0.94709 -0.36427,0.72853 -0.94708,0.43712 -0.87424,-0.87424 -0.58283,-0.58283 -0.80138,-0.50997 -0.80138,-1.16564 -1.01994,-1.01994 h -0.65567 l -0.43713,0.87423 -0.21855,1.16565 -0.80139,1.01994 -2.40414,0.29141 -0.94709,0.29142 h -0.80138 l -0.65568,-0.36427 -0.80138,-0.43712 -1.2385,-0.50997 -1.67561,-0.14571 -1.82133,0.72854 -0.50997,0.50997 -0.58282,-0.29141 -0.21857,-0.36427 h -1.16564 l -0.43711,1.01994 -0.21857,1.01994 -0.1457,0.72853 -0.94709,0.0728 v -1.67561 l 0.21856,-1.67562 -0.65568,-0.14571 -0.1457,0.72853 -0.87424,0.50997 -1.45705,0.65567 -0.65568,0.80139 -0.43712,0.43712 -0.21856,0.80138 -0.87423,0.1457 -1.89418,-0.36426 -0.72853,-0.80138 -1.09279,-0.14571 -0.21856,-0.43711 0.58282,-0.50997 0.72853,-0.43713 0.65567,-0.94708 2.62271,-0.21856 -0.1457,-1.82132 -0.58283,-1.45706 -0.36426,-1.2385 -0.65568,-1.52991 -0.65567,-1.52991 h -1.01995 l -0.50997,0.65567 h -1.31135 l -1.60277,0.29141 -1.96702,0.21856 h -0.80138 l -0.43712,1.0928 -0.50997,1.16565 -0.14571,0.50997 -0.80138,2.03988 -1.16564,0.80138 -1.31136,0.50997 -0.36426,0.29141 -2.03988,0.50997 -3.20553,-0.36427 -2.40415,0.0728 -2.33129,0.21856 -0.14571,0.29141 -0.0728,0.72853 0.50997,0.80138 -0.65568,0.80138 -1.2385,0.50997 -1.09279,0.36427 h -1.01994 l -0.80139,-0.29141 -0.50997,-0.65568 -0.80138,-0.21856 -0.1457,0.29141 -0.69217,0.43717 -0.18219,1.67565 v 2.69556 l 1.60277,0.87424 0.72852,1.01994 0.43712,0.72852 0.43712,0.58283 0.1457,0.72853 -0.43711,0.43711 -0.36427,0.94709 v 0.58283 l 0.87424,1.01994 0.1457,0.80138 0.80138,0.94709 0.21857,1.01994 0.43711,0.87423 0.14571,0.43712 0.58282,0.36427 0.0728,0.43711 -0.50997,0.65568 -0.6926,-0.61757 -0.52767,-0.93413 -0.76229,-1.25751 -1.0286,-2.01687 -1.04877,-1.59333 -0.50422,-1.53282 -0.74624,-1.45214 -0.78658,-1.41181 -1.56233,-2.15178 -0.57045,-1.93955 -0.85569,-0.6275 -0.57045,-1.3691 -0.7416,-1.65432 -0.74159,-0.74159 -0.85568,-1.14091 -2.16774,-2.22478 -0.6275,-1.54023 -0.79864,-0.91274 -1.82546,-0.85568 -0.45636,-0.74159 -0.7416,-1.42614 -1.99659,-1.88251 -1.25501,-1.02682 -0.57046,-1.48319 -0.85568,-0.91273 -1.42614,-0.74159 -0.96978,-0.45637 -0.45637,-1.76841 -0.91272,-0.62751 -0.79864,-1.42614 -0.57046,-0.91272 -1.19796,-0.68455 -0.51341,-0.85569 -0.74159,-2.96637 -1.255,-2.96637 -0.96978,-1.42615 -0.6275,-3.08046 -0.7416,-2.33887 -1.65432,-2.90933 -0.7416,-2.28182 -0.68454,-1.02683 -0.62751,-1.14091 -0.5134,-1.08386 -0.57046,-0.39933 -0.39932,-0.57045 -1.59728,-1.71137 -0.85568,-1.48319 -0.7416,-0.74159 -0.39931,-1.14091 -1.08387,-0.45637 -0.68455,-1.65432 -0.91273,-0.68455 -0.6275,-1.54023 -0.79864,-0.68455 -0.39932,-0.79864 -1.08387,-0.6275 -1.42614,-3.02342 -0.74159,-0.6275 -1.59728,-3.08047 -1.36909,-1.42614 -0.96978,-1.54023 -2.85228,-2.90933 -2.16774,-2.39591 -2.45296,-2.33888 -2.39591,-2.28182 -1.3691,-0.6275 L 3.47979,103.99422 1.9966,102.56808 0.39932,101.71239 0,100.79967 0.51341,100.11512 1.19796,97.94738 1.54024,96.97761 1.71137,94.80987 4.67774,94.63873 h 1.31205 l 0.28524,-0.68455 1.76841,-0.5134 1.19796,-0.22819 0.85568,0.28523 1.65433,0.57046 1.54023,-0.45637 0.57045,-0.79863 1.42614,-0.7416 0.96978,-0.85569 1.42614,-2.85228 0.34227,-0.39932 -0.22818,-0.45636 -2.45296,-2.11069 -0.74159,-1.82546 -0.28523,-1.36909 0.74159,-0.34228 0.62751,-0.79864 0.28522,0.11409 0.57046,0.39932 0.39932,-0.0571 0.74159,-0.79864 0.68455,-0.85569 1.54023,-1.36909 0.96978,-0.34227 1.31205,0.34227 0.6275,0.39932 1.59728,-0.39932 1.76842,-0.17114 1.99659,-0.57046 0.7416,-1.54023 0.91272,-2.90932 v -1.02683 l -0.11409,-1.31205 -0.68454,-1.48318 -1.14092,-0.45637 -0.57046,-0.85568 -0.39931,-0.91273 -0.45637,-0.68455 -0.85568,-0.68455 -0.39932,-0.91273 -0.45637,-1.02682 0.34228,-0.68455 0.45636,-0.28523 -0.39932,-1.8825 -1.255,-0.57046 -0.51342,-1.59728 -0.17113,-3.2516 0.6275,-2.68114 0.39932,-2.39592 0.45636,-0.34227 0.51342,-1.14092 0.96978,-0.28522 -0.22819,-1.88251 -1.59728,-0.68455 -0.39932,-1.36909 0.45637,-0.91273 V 43.2976 l -2.28183,-0.91273 -0.74159,-0.6275 -0.79864,-0.79864 -0.17114,-1.82546 0.22818,-1.14092 1.02683,-1.08386 1.08386,-1.14092 1.54024,-0.68454 0.68455,-0.51341 1.02681,0.51341 1.4832,0.11409 h 2.33886 l 0.39933,-0.79864 1.1409,-0.79864 0.51342,-1.02682 1.255,-0.45637 1.76842,-0.74159 2.16773,-2.45296 1.54023,-1.65433 0.57046,-1.31205 1.54023,-0.85568 1.02682,-0.68455 0.57046,-1.54023 1.02682,-0.28523 0.28523,-0.6275 1.71137,0.17114 1.19796,0.68454 1.14091,0.57046 0.75536,0.35128 2.94462,0.48405 0.76641,0.24202 1.65384,0.44371 0.40337,1.25046 0.56472,0.56472 -0.20168,2.94463 -0.72608,1.61349 -0.48405,0.60506 0.3227,1.49249 0.44371,0.56472 0.68574,0.44371 0.76641,0.20169 0.60506,-0.40338 0.64539,-0.24202 0.52439,0.6454 0.12101,0.48405 0.6454,0.68573 1.08911,0.44371 0.44371,1.04877 0.80675,2.21856 0.76641,0.72607 0.68573,1.45214 0.80675,1.00844 0.3227,0.88742 h 0.60506 l 0.48405,-0.20169 1.57316,-0.80674 2.17822,-0.76641 3.71103,-0.80675 1.25046,-0.36304 1.04877,0.40338 0.84708,0.52438 0.68574,1.00844 0.44371,0.88742 2.05721,0.3227 0.32269,0.44371 1.37147,0.20169 1.12945,-0.16135 0.28236,-0.56473 -0.92776,-0.36303 -1.00843,-1.53282 -0.68573,-1.57316 -0.16136,-1.93619 0.0807,-2.54126 v -0.88742 l -0.4682,-1.68925 -0.45636,-0.22818 -0.28523,-0.28523 -1.14091,-0.68454 -1.93956,-2.22478 -1.8825,-1.48319 -0.57045,-1.3691 -0.51342,-0.79864 0.57046,-0.96977 0.68455,-1.9966 0.6275,-1.31205 -0.68455,-1.14091 -0.0571,-0.34227 0.91273,-1.02683 1.14092,-0.79864 0.11409,-0.96977 0.96301,-1.92117 1.53282,-1.45214 0.80675,-0.92776 0.68573,-1.33114 0.84709,-1.49248 0.28236,-2.33957 0.28236,-0.96809 0.6454,-0.52439 0.12101,-0.44371 0.56473,0.0403 0.24202,0.40338 0.84708,1.49248 1.65383,1.61349 1.37148,1.37147 1.45214,1.45215 0.6454,0.84708 1.81518,0.80675 1.29079,0.72607 0.40338,0.16135 0.3227,-0.20169 0.20169,-2.74294 0.56472,-4.19508 0.76641,-0.28236 0.48405,0.68573 0.64539,0.3227 0.0404,0.44371 2.37991,-0.20169 1.89585,-0.76641 3.38834,-0.32269 0.84709,0.36303 0.96809,0.20169 0.76641,-0.28236 2.9043,-0.28236 1.37146,-0.0807 0.88742,1.97653 0.56473,1.45215 1.00844,0.48405 0.36303,0.40337 1.69417,-0.24203 3.06564,-0.68573 0.96809,-0.60506 0.84709,0.20169 0.40337,1.12944 0.76641,0.76641 1.65384,0.44371 0.52438,0.44371 0.3227,0.20169 -0.6454,0.92776 -1.25045,0.3227 -0.0404,0.3227 1.12944,0.3227 1.33113,0.36303 2.05721,0.36304 0.88742,0.44371 0.36304,0.48405 0.68574,0.44371 0.24202,0.6454 0.56472,0.40337 1.08911,0.6454 1.49248,0.68573 1.57316,0.44371 1.53282,-0.20168 0.24202,-0.60506 0.52439,0.52438 1.69417,0.36304 0.44371,0.52438 1.81518,0.12102 3.20162,0.93497 2.11069,0.57045 2.45296,0.17114 1.65433,0.85569 0.74159,0.6275 0.39932,0.57045 0.51341,-0.34227 1.255,-0.74159 0.57046,-0.39932 0.96977,0.22818 0.85569,0.74159 1.3691,0.91273 0.96977,0.85569 1.48318,0.57046 1.54024,0.28522 2.11069,-0.22818 0.85568,-0.39932 0.79864,0.28523 0.7416,0.68455 0.68455,0.68454 0.68454,0.96978 0.68455,0.0571 1.82546,-0.7416 0.6275,0.6275 0.6275,0.7416 0.85568,0.79864 0.0571,0.39932 -0.68455,0.39932 -0.51341,0.39932 0.51341,0.45636 0.6275,1.31205 0.51341,1.48319 0.45637,1.54023 0.39932,0.68455 0.91273,0.91273 2.28182,0.39932 0.79864,0.57045 1.08387,0.79864 -0.34432,0.67683 -0.94652,0.57371 -0.40337,0.56472 -0.3227,0.76641 -1.57316,0.36304 -0.56472,-0.44371 -1.53282,-0.6454 -0.40338,-0.36303 -0.72606,0.0807 -0.36304,1.04877 -0.24203,0.84709 -0.52438,0.40337 -0.40337,0.16135 -0.52439,-0.9681 -1.00843,0.0404 -0.40338,0.28236 -1.4118,0.60506 -0.92777,1.6135 -0.60505,1.57316 -0.84709,1.37147 -0.68573,2.29923 -0.44372,1.4118 0.0807,1.53282 0.40337,-0.64539 2.54126,-0.24203 0.52438,0.28236 0.72608,0.3227 0.60505,-0.36303 1.33114,-0.48405 0.88742,0.56472 0.92776,0.6454 0.60505,2.21855 0.96811,1.57316 0.16134,0.76641 -0.4437,1.33113 -0.20169,0.6454 0.3227,0.44371 0.68573,1.37147 0.80675,0.68574 1.61349,0.64539 0.24203,2.09755 -0.40337,0.76641 -0.84709,0.24202 -3.6707,0.68574 -2.82362,1.49248 -1.41181,0.68573 -1.65382,1.77485 -0.92777,1.57315 -0.56472,1.25046 -0.24202,0.9681 0.28236,0.44371 -0.20168,0.60506 -0.68574,2.66226 -1.12944,0.24203 -0.36304,1.08911 -0.88742,1.49248 v 0.44371 l 0.16134,0.20169 0.88743,0.92776 0.0403,0.3227 -0.0807,0.36303 -0.72608,1.49249 -0.40337,2.13787 v 3.79172 l 0.36304,1.04877 1.61349,-0.24203 2.29923,-0.36303 0.36303,2.66226 0.28236,0.80675 0.9681,0.60506 0.3227,0.80675 0.72607,2.25889 0.20169,1.16978 1.45215,0.44372 1.37147,1.41181 0.92776,1.00842 -0.0807,0.56473 -0.28236,1.33113 0.40337,0.84709 0.36304,0.96809 0.88742,-0.16135 0.48405,-0.60506 0.28236,0.12101 -0.20169,1.41181 -0.24202,0.36304 -1.00844,1.49248 -0.7664,2.33957 -0.84709,0.9681 -3.71104,0.0403 -0.56472,0.80674 -0.40338,0.0807 -0.52438,1.08911 -0.48404,4.88082 -0.76641,-0.0403 -0.76641,-0.3227 -0.72608,-0.68574 -1.69417,-0.72607 -2.0572,-0.60506 -0.6454,-1.08911 -0.88742,-0.60506 -2.33957,-0.44371 -0.36303,-0.48405 -0.52439,-0.3227 -0.16135,-0.36303 -0.6454,-0.28236 -0.20168,-1.21013 -0.88743,-0.20168 -0.9681,0.32269 -3.10597,0.76641 -0.76641,0.72608 -0.76641,0.72607 -0.20169,0.52439 0.28237,1.65383 0.64539,1.53282 1.65384,0.88742 1.25045,0.9681 0.68574,-0.0404 1.00843,-0.52439 2.29923,0.3227 0.9681,0.44371 0.60506,0.6454 0.24202,0.56472 0.60506,0.56472 0.60506,1.49248 0.0353,2.13284 -0.54959,0.27228 0.16561,0.3023 1.9966,0.45636 3.59388,0.6275 1.31205,0.57046 3.30865,0.85569 0.57046,2.33887 v 1.36909 l -0.28524,1.54023 c 0,0 0,1.4832 0,1.88251 0,0.39932 0.22818,1.14092 0.22818,1.14092 l 0.79865,1.59727 0.28522,0.57046 -0.39931,0.45637 -0.6275,0.45636 -0.91274,0.6275 -1.31205,0.6275 -0.68455,0.7416 -0.96977,0.51341 -0.6275,1.14091 -0.34228,0.39932 0.28523,0.39932 0.85569,0.68455 2.68114,0.68454 4.16433,0.62751 1.14092,0.28523 0.74159,-0.57046 0.45637,0.79864 0.6275,1.31205 1.36909,-0.0571 3.13751,-0.79863 0.45637,-2.73819 h 0.45636 l 0.68455,0.39931 0.68455,0.91274 h 1.93955 l 0.28523,-1.02683 0.68454,-0.51341 1.54024,-0.85568 0.91273,-0.39933 0.6275,0.51342 0.28523,1.65432 1.02682,0.22818 0.6275,0.79864 -0.57045,0.85568 -0.57046,1.14092 0.39932,1.9966 0.79864,0.79863 0.91273,1.65433 0.68454,0.6275 0.76299,1.45467 z"
     id="caserta"
     name="Caserta"
     />
</svg>
