<svg
   xmlns="http://www.w3.org/2000/svg"
   version="1.1"
   id="basilicata"
   viewBox="0 0 489 522"
   aria-label="Map of Basilicata - Italy"
   >
  <path
     id="potenza"
     name="Potenza"
     d="m 339.08374,453.84224 c -5.41929,6.79658 3.71953,15.34727 -2.53244,22.09697 -3.61862,3.76789 -6.59939,7.86098 -8.22878,12.57112 -2.97378,2.07712 1.21279,6.96297 -3.25884,8.37631 -4.07598,1.25225 -7.5196,8.02642 -2.74248,10.83185 5.08694,1.99351 4.48178,7.55945 1.86559,11.45103 -6.28472,-2.06774 -8.07587,-13.93121 -15.72251,-13.76672 -4.01018,1.41634 -7.31973,0.18516 -10.75451,-1.59313 -5.79574,0.0332 -9.23629,7.27936 -15.30874,3.30545 -4.65559,0.2746 2.27043,5.39654 -0.57139,8.15766 1.11492,8.14479 -5.68906,4.10219 -9.0267,1.21509 -0.54466,-4.2407 6.58973,-7.14479 1.87152,-11.8597 -1.35323,-7.07963 -8.00328,6.04976 -6.51817,9.07427 -5.14245,-6.52866 -8.73084,0.0885 -11.78021,4.43034 -1.78737,-4.26468 -6.52979,-0.34632 -10.4096,-1.69114 -4.44995,-2.38437 -6.3258,6.71003 -11.24359,3.70125 -5.74284,-1.35965 -8.47677,1.92704 -8.77342,-5.97058 -3.69812,-3.36374 -6.94118,-5.86459 -7.41088,-10.72304 -4.11216,-3.76834 -5.53044,-10.50478 -0.66669,-14.53291 0.95235,-3.34212 5.07662,-0.99681 5.23746,-5.28924 0.74538,-4.73364 -6.32576,-6.96314 -8.94108,-3.95618 0.61158,3.75028 -6.48607,4.24652 -8.70143,4.35012 -1.81406,-4.94147 -9.05837,-3.51124 -12.95243,-7.00009 -5.85838,-2.58746 -6.03799,5.48533 -10.89799,6.13276 -4.29744,5.04924 -1.64361,-6.11848 -6.53612,-4.29204 -4.28805,1.11616 -5.92364,2.86623 -9.3758,-2.64744 -4.11865,-1.42298 -10.03723,-1.33023 -11.49583,2.75188 -4.88991,3.49352 -5.14129,11.38593 -11.82875,12.42228 -5.13556,3.21167 -0.99951,9.89146 -4.34208,14.3819 -1.64588,3.88089 -4.42519,3.33345 -4.97141,-0.88225 -2.07279,0.33164 -4.72265,-2.00206 -5.08107,-5.0376 1.12716,-2.92071 -0.90388,-4.81863 -0.8107,-7.78325 -2.11826,-3.81729 -6.37132,-7.37367 -7.77853,-10.27833 -5.19986,-3.15194 -11.82885,-8.49875 -9.76598,-15.43458 -1.45483,-2.91717 -3.357,-7.30435 -7.01365,-5.63309 -8.228562,-0.72424 3.2848,-5.19492 5.64053,-6.47699 3.63876,-1.34928 -0.38229,-9.25419 -4.3358,-9.00932 -4.51867,-0.39058 -0.83892,-2.57424 1.23318,-1.37835 7.74532,-1.67536 9.03669,-10.76132 13.72428,-15.95929 -3.26208,-4.35569 3.97492,-8.94783 -0.46346,-13.05558 -4.01312,-4.43444 1.83807,-6.27785 3.8371,-8.95382 -3.22815,-5.89418 7.52189,-6.447 5.60644,-12.93003 6.74744,1.68649 9.19587,-6.25227 15.18588,-6.95219 3.52341,1.49486 6.89157,-3.44031 2.46972,-5.255 -4.88563,-5.75985 7.68982,-6.50848 3.61331,-10.50242 -2.04675,-3.15023 0.63796,-6.16182 1.51781,-7.8351 -3.13329,-4.58684 -7.23176,-7.93951 -12.95998,-9.94983 -5.55911,1.02008 -9.64486,-2.90814 -12.1494,-7.561 -0.86319,-5.50476 -9.54662,-9.15781 -7.13081,-16.48053 2.21704,-5.86327 2.55612,-11.2748 -4.68615,-13.8505 -3.85847,-6.68919 -9.16865,1.8365 -10.99664,-5.32004 -0.88412,-4.66551 -4.898401,-4.81735 -6.7697,-8.55706 -4.812031,-3.25974 -10.49155,-4.90837 -14.92919,-8.89107 1.137413,-2.76757 -2.344056,-10.30053 -5.671886,-13.18181 -5.058382,-0.89806 -9.564692,-4.53516 -10.533124,-9.49682 0.461419,-3.24371 8.26707,-4.46236 1.672951,-7.95203 -3.821548,-3.11057 5.198993,-7.04584 -1.138159,-11.83196 -7.684169,-4.22523 5.116958,-12.07069 -3.825843,-10.63983 -5.642622,1.13301 -1.324685,-6.27592 -6.293344,-6.7901 -3.228983,1.89138 -5.362737,-0.74245 -6.5799,-2.92228 -5.237233,2.89212 -5.481751,-5.2493 -10.39611,-5.48629 -0.463407,-3.5931 4.811576,-8.61312 4.9477,-13.4002 4.709723,-1.00213 13.236298,-5.45234 10.5984,-10.90612 -4.630029,2.52948 -3.111011,-2.41104 -5.10402,-3.19219 -4.563618,0.58771 -9.731938,-1.74849 -10.9947,-6.29621 -2.596366,0.38012 -5.967666,-1.4103 -8.05428,-3.19169 -1.316826,-3.29133 -3.498423,-5.15839 -5.94149,-7.85739 -3.272088,-0.96258 -9.946517,-2.70903 -7.31049,-7.17451 -1.136917,-4.427 -3.031606,-12.74478 2.449488,-14.84408 -6.955147,-2.53994 1.375908,-13.19783 -3.863819,-11.53554 -8.3028024,-0.86453 1.497355,-3.79872 -0.04788,-7.22787 -4.129352,0.87454 -6.1967888,-2.1908 -8.48501,-5.47804 -4.6578039,-1.75729 -7.29037106,-5.04342 0.376,-5.18598 3.126974,-1.97022 9.554733,4.03268 7.587263,-2.66334 -2.190585,-4.37855 2.848006,-11.36838 -3.850563,-11.67198 -5.3927304,2.3289 -4.1744041,-8.28036 2.083834,-5.66748 2.944944,-0.54513 2.900925,6.18098 6.95106,3.87467 6.956067,-4.89515 14.983099,0.43282 21.910527,2.43923 7.72354,0.53995 -2.451578,-7.61815 3.506365,-8.87659 5.700522,-2.68496 12.183145,-4.702948 17.388835,-7.434477 0.670555,-4.06567 4.160221,-7.098501 4.096192,-11.732676 -0.527318,-7.872058 10.559043,-10.378485 9.184417,-18.912993 2.59496,-11.20277 -5.495439,-21.772643 -8.494245,-31.696735 1.030116,-7.419453 7.373586,-16.204231 15.240946,-16.169716 5.050498,1.848328 10.708049,-3.497111 14.5625,2.4357 8.607935,1.937396 16.692445,2.506602 25.460095,0.8442 3.1144,-2.148243 5.77572,-5.885785 10.57041,-3.5013 3.19136,0.556103 4.44328,9.178812 7.85367,4.680801 2.37641,-2.204535 3.97217,-1.438641 5.10551,-0.479 5.91024,-2.114266 2.33035,-14.575796 10.79129,-12.4913 1.06824,-1.4623845 2.39423,-7.5623488 4.64872,-4.2514 3.10929,1.8172151 9.72411,-0.3485331 9.71721,-4.9381 3.35092,1.0136719 5.10653,3.0289426 7.22919,7.0289 4.90207,-4.0697212 7.60496,8.857523 13.20549,4.994084 3.79775,-3.6247288 11.32821,3.976075 6.22975,7.522159 6.12495,-2.276909 10.61291,1.121125 8.94712,6.55664 2.5998,2.353729 4.01085,13.919861 8.05499,7.72991 3.84435,3.453638 11.54762,6.563029 10.43874,12.75929 -7.34956,-0.102375 -3.00428,8.563225 -2.69712,12.5191 -3.2837,5.875959 -7.12469,14.152358 -15.33869,11.868003 -6.33386,-3.463703 -3.15951,6.251212 0.93424,6.85053 8.33073,2.683639 17.50436,5.269971 24.17484,10.661714 8.19977,0.63797 13.98312,6.325177 18.54625,12.660296 1.51155,-3.008661 5.83385,-3.479995 4.9301,-7.98366 3.99568,-5.643803 10.9708,-5.449613 16.11367,-1.891917 8.68782,1.192137 9.23305,11.476387 12.48123,17.614617 0.13224,5.93322 1.63485,12.45559 5.55388,17.1972 -3.55775,4.43945 -9.84427,1.13742 -12.88464,6.38503 -6.21602,5.95553 -14.13654,8.16639 -22.42423,9.00901 -7.89796,1.36806 -0.29151,10.31291 -5.71308,14.0119 3.14881,5.62652 6.29738,11.11216 10.9484,15.49109 0.39116,3.92153 -0.41948,5.11048 -0.53997,8.75867 0.96026,2.56156 0.19492,7.78658 -3.56284,5.15228 -6.65598,2.78828 -9.0741,11.40755 -16.85138,12.88284 -3.38259,2.38134 -10.50332,1.28752 -8.90053,7.71784 -4.90833,5.88654 1.66615,8.86514 5.40102,12.43559 0.97969,3.78967 2.56272,9.9773 7.63222,8.50629 2.10038,3.55627 8.98741,6.02403 6.47081,8.4509 -1.87088,6.85321 -7.07085,10.80646 -13.0587,13.73596 5.12818,5.53723 9.45166,12.15293 12.9256,18.76131 0.54282,5.00938 -9.52549,3.56854 -5.42343,8.53829 3.02676,5.6941 7.25245,9.0336 13.28506,10.70572 -0.29083,2.41143 -3.74348,4.59742 -3.09813,7.79299 -2.26102,2.89811 -10.28695,2.60652 -8.17686,9.01304 -0.44475,3.24435 3.139,4.33925 3.53237,6.55434 3.24042,4.35463 10.0882,5.82586 12.14037,10.79793 -1.85794,5.18382 6.25373,8.6873 2.69018,13.94597 5.42756,-2.12906 1.74845,4.1076 6.18817,4.37494 3.97778,3.14384 1.59669,6.73262 -2.98921,4.3903 -3.38686,4.36117 0.88622,9.35632 4.7091,11.70627 2.49117,3.03009 -0.44128,12.76018 6.08869,9.83125 5.13575,-0.67419 11.19263,1.50699 14.7161,-3.12712 5.30394,-0.0478 10.95485,3.88428 16.45989,0.5921 8.03057,-1.78409 3.97905,-15.13241 13.3328,-14.91628 5.88431,-4.10863 13.04119,0.93328 6.869,6.44582 -2.36019,4.61384 4.07284,8.31459 -0.293,13.70143 3.39823,4.37236 -3.81079,6.50994 -2.21814,11.22343 0.83986,4.69527 -6.54291,5.27071 -3.51341,10.32926 -0.49871,6.71834 6.56038,12.27537 12.44441,13.74502 3.42861,2.14544 1.10047,7.17131 1.0881,9.10279 -6.18687,1.35476 -10.6551,6.97515 -13.39872,12.45739 5.62002,4.91032 7.08817,8.70575 1.8208,13.86362 7.78004,-0.92219 -0.93781,10.12817 4.05908,6.34002 1.71385,-2.5526 6.67564,-4.09949 3.63167,0.4937 0.1875,3.96825 1.49874,6.73683 5.75034,7.55478 z" 
  />
  <path
     id="matera"
     name="Matera"
     d="m 289.94582,127.08675 c -2.36083,2.74347 -5.91733,2.88938 -9.08235,3.17958 -6.41492,5.37615 -13.30416,11.43141 -22.1405,11.41917 -3.83689,0.10201 -10.01539,2.20058 -7.65978,7.13303 1.2959,4.89173 -4.33841,8.22914 0.59309,12.20721 1.78253,4.45782 5.23123,7.46354 8.21601,10.95818 -0.72703,2.84608 0.99747,4.53359 -0.60756,6.41756 -0.24283,2.50608 1.63998,7.00206 -1.18434,8.01289 -6.15286,-2.21138 -8.33014,6.41911 -12.6443,8.91129 -4.26992,2.47845 -9.01184,5.31578 -13.685,5.88508 -3.3487,2.51561 -0.57264,7.66866 -4.01721,10.44081 2.35024,4.5803 9.2628,5.46126 8.87662,11.49291 0.63024,2.92124 3.688,5.19994 6.44031,4.29297 3.20672,1.12677 4.0073,7.33151 7.80282,5.90161 -3.00274,5.71982 -5.14459,12.85278 -12.1599,14.67242 -4.88127,2.46828 4.18415,6.61631 4.65544,10.65126 1.54351,4.17569 9.13615,8.49528 4.18155,13.08928 -2.47436,0.78734 -6.91833,2.58043 -3.26522,5.5975 2.70058,4.1282 5.43561,8.21559 10.36646,9.05708 4.40077,0.62002 2.13968,3.02419 0.40427,4.9262 -0.91491,2.98652 -0.80924,7.46562 -5.49352,6.31543 -4.81508,1.14023 -5.00267,9.18974 -1.13239,11.24149 1.03114,3.29029 6.20603,5.98446 9.16473,8.75243 3.32273,0.79373 4.80306,4.03583 3.84854,7.05925 2.5435,3.37736 4.03221,8.51211 3.79659,11.03879 4.44709,-1.91808 1.21751,3.07802 3.89188,3.59884 2.54616,0.49582 5.69628,6.79597 1.1273,5.4668 -5.14696,-2.29623 -4.63584,6.4789 -1.51041,8.43709 5.20598,2.15965 4.51892,8.74195 6.02928,13.06904 5.16343,-1.05782 11.06692,0.62973 15.94101,-1.25044 2.99348,-5.34487 8.61833,0.60448 12.99109,-0.28619 5.57556,-0.17931 11.27099,-2.9835 11.91492,-9.1309 0.73589,-3.84255 2.8927,-7.02278 7.23837,-7.05907 4.57202,-2.09526 11.60511,-2.2742 8.69871,4.69853 -3.7989,2.13606 -3.81319,5.91049 -0.33179,8.58606 0.0638,2.84157 -3.53333,6.49459 -0.83377,10.07538 -3.38371,2.81543 -2.8668,7.40817 -3.94741,11.3689 -2.21316,1.76231 -4.4598,3.67174 -2.74129,6.97107 -0.41851,4.2888 2.92627,9.27984 7.01803,11.11726 2.20561,2.42132 8.2576,2.31749 7.37355,6.37963 -1.66482,3.02712 2.22744,6.58278 -3.7607,5.98456 -4.26053,3.25253 -8.42286,6.67715 -10.49709,11.82375 1.29157,4.18275 10.23513,6.69636 3.59982,10.80222 -6.08634,4.15519 5.98488,3.87205 0.9108,8.52878 -1.88474,5.03164 3.30712,-1.92022 5.24704,-1.66701 1.91293,-0.0781 -1.38139,3.24734 -0.0207,4.59854 -0.29095,3.10403 3.80267,7.09273 6.23775,5.15764 -0.44869,-4.59746 3.64275,-7.39018 4.61009,-11.3447 -3.0292,-3.72733 1.62309,-8.84094 -1.40136,-12.8006 -2.96262,-4.05817 4.37459,-3.31171 3.01103,-7.3811 -0.99803,-8.22275 2.36328,-0.61905 4.51951,2.23187 4.68797,-4.35281 12.15237,-3.69841 16.65241,0.51391 4.25338,0.8498 8.8622,-3.87329 12.13177,2.08376 2.74291,3.62479 5.78042,-3.41776 9.37724,-2.89699 2.95558,-2.08174 5.45276,3.10864 8.0325,-0.67021 3.88885,-3.67092 8.70787,3.1541 12.85191,-0.80896 4.07896,0.0173 6.79742,8.49259 10.02014,3.82121 5.3369,-5.862 13.27954,-9.58615 15.42212,-17.87866 4.1254,-8.86011 12.24365,-15.72187 13.42166,-25.8026 2.40237,-11.48793 9.69551,-20.80859 13.89302,-31.44505 8.96408,-12.90188 18.98219,-25.60948 25.4807,-39.81883 -7.90028,-2.03226 -13.69249,-8.3657 -18.18421,-14.83737 0.35052,-4.47617 -0.0173,-10.3228 -5.30973,-11.83863 -3.56231,-1.88958 -6.00342,0.88698 -10.25299,-0.32746 -2.30116,-1.87227 -1.24594,-4.525 -4.41279,-0.77656 -3.20097,-1.00829 -10.22916,-5.03322 -7.45858,-8.88639 1.63909,-3.15668 6.80637,-8.10089 3.37098,-11.02552 -3.897,-0.18061 -7.5507,-5.53518 -3.75073,-8.44296 2.12984,-3.30659 -4.55607,-5.6133 -5.16911,-8.27299 -0.75935,-5.82756 6.17701,-11.47458 1.97308,-16.91743 6.17164,-2.6941 4.89598,-3.90116 0.98429,-8.45173 -4.24273,-8.16373 1.72599,-16.60943 2.90727,-24.8296 2.94625,-6.30016 -1.1462,-6.59546 -5.33806,-9.37104 -5.29161,-0.38989 -2.55808,-8.82263 0.48365,-5.40872 2.06204,1.50376 7.88679,-4.15083 0.71601,-5.15721 -5.15597,-3.82378 -12.15222,-5.81711 -15.1384,-11.9543 1.055,6.19403 -5.26588,6.41852 -3.98021,1.5919 -3.77828,-3.53476 -8.75075,-4.42225 -13.6367,-2.8299 -4.72106,0.3614 -7.81045,-8.08622 -11.71679,-3.32272 -4.81144,3.45385 4.81395,5.73064 1.06502,8.78472 -2.28192,2.50302 -5.22854,-2.05089 -4.13277,-4.29288 -0.4123,-6.97754 -10.20071,-2.12187 -9.17779,1.83721 3.7893,-0.49361 5.21582,10.31706 1.32882,7.56079 -4.16026,-4.65828 -8.04984,-9.61938 -11.34121,-14.93439 -4.2666,5.4369 -6.69247,12.39231 -12.71389,16.46637 -4.37843,3.03598 -8.22416,6.81591 -13.0037,8.72223 -4.11347,0.33353 -7.73498,-2.66446 -8.11358,-6.68942 -1.48586,-6.08284 -6.48017,-9.41969 -11.74103,-11.98818 -8.36595,-5.14084 -11.05617,-16.38505 -20.51933,-20.40976 -5.34993,-2.50021 -7.09984,-8.55715 -11.87505,-11.70024 -0.3598,-2.61047 -1.17432,-4.87631 -3.73597,-6.02477 z m -82.96009,80.05705 c -1.69547,-0.82798 -6.06355,0.47495 -8.9049,-0.92 -3.80175,2.33505 -4.81292,5.58951 -1.83569,9.23423 0.72857,3.01689 0.30512,7.25688 4.66618,7.67813 4.3144,3.50991 8.76736,-0.18499 5.37848,-4.48758 -0.35891,-3.96325 -0.72014,-7.71569 0.69593,-11.50478 z" 
  />
</svg>
