<svg
   xmlns="http://www.w3.org/2000/svg"
   version="1.1"
   id="sicily"
   viewBox="0 0 700 534"
   aria-label="Map of Sicily - Italy"
   >
  <path
     d="m 444.5171,247.0355 -0.5136,-0.4477 -0.9822,-0.912 -0.2806,-1.7539 v -1.6837 l -0.4911,-1.8241 -0.7717,-0.6314 -0.4911,-1.3329 0.07,-0.2806 0.6314,-0.4911 0.5612,-2.6659 0.421,-1.1225 0.1403,-0.6314 -0.5613,-0.4911 -0.2806,-1.0523 v -0.5612 l 0.3508,-0.2105 0.5612,-0.3508 1.2628,-0.3508 0.2806,-0.491 0.4911,-0.8419 0.1403,-0.7717 -0.9821,-0.2105 -1.333,-0.07 -1.4031,-0.07 -0.4911,0.4911 -1.5434,0.4911 -1.1926,-0.2105 -0.1403,-0.9822 v -1.2628 -1.1224 l -0.07,-0.7016 -0.8419,-0.6314 -0.9821,-0.3508 -0.2807,-0.8418 -0.3507,-0.9822 -1.1225,-0.07 -1.6136,-0.6314 -0.2806,-0.5612 0.3508,-0.5613 0.5612,-0.912 -0.2806,-0.4911 -0.3508,-1.1224 -0.5612,-0.3508 -0.912,-0.912 -0.7717,-0.3508 -0.9121,-0.2105 -0.1403,-0.4911 -0.7015,-0.9821 -0.421,-0.9822 -0.7015,-1.1225 -0.07,-1.1225 -1.1225,-0.7015 -0.6313,-0.8419 -0.9121,-1.0523 -0.2806,-0.7016 -0.8418,-0.9821 -0.4097,-1.5648 0.9007,-0.1891 0.7718,0.2807 2.5255,0.491 2.7361,0.07 1.1225,0.3508 2.5957,0.4911 h 2.6659 l 1.6136,-0.6314 1.6135,-0.421 2.1748,0.1404 0.9121,0.491 2.1748,0.2807 1.9643,-0.07 0.4209,-0.4911 h 0.7718 l 1.0523,-0.4209 0.9822,-0.912 1.7538,-0.9822 0.9822,-0.3508 3.0167,0.1403 0.7015,0.5613 1.8942,-0.07 1.8942,-0.7016 0.5612,-0.5612 0.8419,-0.5612 2.1047,-0.5613 0.7015,-0.912 1.6136,-0.9822 1.2628,-1.1926 0.9821,-1.1225 0.9121,-0.3508 2.1748,0.07 0.7015,0.7016 0.7717,0.6314 3.0869,0.2104 1.6837,-0.2806 1.8942,-0.7717 4.6302,-0.7717 1.6136,-1.1225 3.4376,-0.4911 0.5612,-0.4209 0.4209,-0.7717 0.7717,-0.6314 0.7016,-0.8419 0.7717,-0.2104 0.7016,-0.6314 0.5612,-0.5613 2.245,-0.1403 2.3852,-0.2806 2.245,-0.4209 0.1403,-0.2105 0.5613,-0.2105 0.1403,-0.4911 1.1224,-0.4209 0.9822,-0.4911 0.2806,-0.4911 1.333,-0.1403 2.736,-0.4209 0.7717,-1.0523 1.2628,-0.421 0.5613,-1.1926 1.0523,-0.8419 1.4733,-0.491 0.7015,-1.1225 0.7016,-0.1403 0.3507,-0.8419 0.4911,-0.5612 1.333,-0.912 0.4209,-0.4911 0.6314,-1.5435 1.1926,-1.5434 1.1927,-1.1224 0.4911,-1.6136 1.8941,-1.6136 c 1.8539,-1.5792 0.8419,-1.2628 0.8419,-1.2628 l 0.7717,-1.0523 0.7016,-0.912 0.7717,-1.7539 0.912,-1.2628 0.7717,-1.4031 0.2806,-0.7015 0.912,-0.7717 0.8419,-0.2105 0.2105,0.6314 -0.5613,0.2104 0.4911,0.6314 1.1225,0.3508 0.8418,0.5613 1.2628,0.2806 1.5435,0.2104 1.0523,0.4911 1.2628,0.2105 1.1926,-0.5612 2.245,-0.4911 1.824,-0.9822 1.4733,-0.4209 2.8763,-0.9822 1.7539,-1.0523 3.4376,-0.3508 2.1047,-0.4209 1.4732,-0.6314 1.333,-0.7717 0.491,-0.9121 0.7718,-1.6837 0.5612,-0.6314 1.6837,-0.9821 0.2105,-0.4911 1.8942,-0.07 0.4911,0.8419 0.2104,0.4209 0.421,0.4209 0.912,0.4911 1.4031,0.7016 0.9821,1.0523 0.4911,1.1926 1.1225,0.2806 1.6837,1.7539 0.9121,1.6837 2.5957,0.07 2.4554,-0.2806 4.5601,0.4911 3.5078,-0.5612 1.5434,-0.2105 1.0523,0.4209 0.912,0.9121 1.1927,1.9643 -0.07,1.2628 1.1225,0.4209 1.1225,0.9121 1.4732,0.491 0.4911,0.5613 3.6481,-0.07 0.2806,-0.4209 1.0523,-0.07 0.421,-0.9822 1.2627,-0.5612 1.333,-1.333 1.5434,-0.7015 1.3329,-0.5612 0.2105,-0.7718 0.912,-0.4209 2.5256,-0.7015 1.6837,-1.7539 1.2628,-0.4911 1.1927,-0.7016 0.2104,-0.6313 0.6314,-0.07 0.2807,-1.6837 0.491,-0.2807 0.6314,-0.8418 3.2272,-3.0869 0.5612,-1.824 1.0523,-1.4031 0.4516,-1.6003 0.7253,-3.0823 0.3626,-0.9066 0.1813,-1.6319 0.7253,-0.7252 v -1.9945 l 0.5439,-0.7252 0.3626,-1.8132 c 0,0 -0.9065,0 -0.9065,-1.0879 0,-1.0879 -0.7253,-0.7252 -0.7253,-0.7252 l -0.5439,-1.2693 h 1.2692 v -1.4505 l -0.7253,-0.1813 -1.8132,-0.5439 0.1814,-1.0879 h 1.6318 l 1.2692,0.5439 0.9066,1.2692 0.5439,1.2692 0.7253,1.9945 0.3626,0.7253 v 0.7252 l -0.5439,1.2692 -0.544,2.5384 -0.9066,0.7253 -0.3626,0.9066 1.2692,0.9066 1.2692,1.2692 1.8132,0.9065 h 2.3571 l 2.5384,-0.1813 1.9945,-0.9066 2.7197,-0.1813 1.4505,-0.1813 0.544,-1.4505 4.3515,-0.1813 1.4505,-0.544 1.6319,-0.3626 2.1758,-1.2692 0.9065,-0.9066 h 1.6319 l 0.7252,-0.9066 1.4505,-1.0878 2.1758,-0.9066 1.4505,-0.7253 1.8132,-1.0879 1.0879,-0.7252 1.0879,-0.7253 1.2692,-1.0879 1.0879,-0.3626 1.2692,-1.0879 v -1.0879 h 1.0879 l 1.0879,-0.7253 0.3626,-1.2692 0.7253,-0.9065 h 1.6318 v -1.4506 l 1.2692,-0.9065 1.6318,-1.6319 1.2692,-0.3626 0.544,-1.4505 1.2692,-0.9066 1.9945,-0.1813 1.0879,-1.0879 1.6318,0.1813 1.6318,0.9066 1.4505,0.3626 0.9066,1.0879 0.3627,0.1813 1.8131,1.4505 2.901,0.1814 2.1758,0.3626 1.4505,0.9066 1.9945,0.1813 2.1758,0.1813 2.1758,-1.0879 0.5439,0.7253 1.6319,0.7252 0.091,1.0434 -0.1403,0.5612 -1.5434,0.5613 -2.4554,0.491 -3.4376,0.7016 -1.6136,0.7717 -0.7717,0.7717 -1.6837,1.0523 -0.7015,0.2105 -0.8419,1.2628 -0.912,1.4732 -0.421,0.4911 -0.491,0.7717 -0.8419,2.8764 -0.5612,1.1225 0.2104,2.0345 -0.3508,1.0523 -0.7015,0.3508 v 0.912 1.7539 l 0.2806,0.7015 0.9822,-0.2806 0.5612,-0.5612 0.7717,-1.1927 -1.0523,-0.3507 0.3508,-0.5613 0.912,0.1403 h 0.7717 l -0.1403,1.7539 -1.0523,1.1926 -1.0524,0.7717 -0.5612,0.4911 -0.4209,1.0524 -0.421,0.7015 -0.912,2.5957 -0.7717,1.6136 -0.7717,0.7717 -0.7717,1.6136 -1.6837,2.9465 -0.7717,3.157 -0.5613,2.1748 -0.7015,2.5256 -1.2628,1.6135 -0.6314,2.0345 -0.7717,2.5958 -0.7016,2.4554 c 0,0 -1.824,2.1047 -1.5434,1.9644 0.2806,-0.1404 -1.0523,2.2449 -1.0523,2.2449 l -0.5612,1.4031 -0.9822,1.1225 -1.2628,0.7016 -0.9822,1.6837 -0.7015,0.5612 -1.1927,1.6837 -0.4209,2.1749 -1.8942,1.8941 -0.5612,1.1927 -0.7016,0.912 -0.912,1.824 -0.8419,0.7016 -0.7717,1.6135 -1.1225,0.7718 -1.2627,3.2972 -0.7016,1.5435 -1.8942,1.7538 -0.5612,1.4031 -0.7717,0.7016 -0.8419,1.6837 -0.6314,0.6314 -1.1225,1.6837 -0.6314,0.8419 -0.4911,1.5434 -0.5612,0.6314 -0.2105,0.9822 v 0.7015 l 0.9121,0.07 0.2806,0.5612 -0.7717,0.421 -1.5434,0.7015 -0.421,0.421 -0.8418,0.912 -0.9822,0.9821 -0.3508,1.1927 -0.5612,0.7717 -0.7717,1.4732 -1.0524,0.9121 -0.9821,0.9821 -0.421,1.333 -0.8418,1.3329 -0.1403,0.6314 v 1.0523 l 0.4209,0.2807 0.4911,0.7717 0.07,0.8418 0.7015,0.07 v 0.912 h -1.1225 l -0.4911,-0.912 -1.0523,0.4209 -0.912,0.2807 -0.2806,1.1224 -0.7016,0.8419 -0.7717,0.8419 -0.5612,0.7717 -0.4911,0.2104 -0.2806,1.2628 -0.07,0.8419 1.1225,0.491 -0.2806,1.2628 -0.7016,0.2807 -0.4911,0.8418 -0.6314,0.7717 -0.4911,0.6314 -0.8737,0.5587 -1.4728,-0.1486 -0.1441,-1.729 -1.0086,-0.7924 -0.8645,-1.0806 -0.9365,-1.0086 -0.9365,-2.4494 -0.5043,-1.3688 -0.8645,-1.0807 -0.8645,-0.7204 -0.8645,-0.4322 c 0,0 0.072,-0.5043 -0.2882,-0.5043 -0.3602,0 -0.9365,-0.1441 -0.9365,-0.1441 l -0.8645,-0.7925 -1.0807,-0.3602 -0.6483,-1.801 -0.4323,-0.5043 -2.6655,-1.0086 -0.7925,-0.4322 -0.6484,-0.7205 -0.7924,-0.144 -1.1527,-1.1527 -0.7925,-0.3602 -0.3602,-0.5043 -0.5043,-0.2161 -0.144,-0.5764 -1.2968,-0.2881 -1.657,0.5043 -0.9365,0.2161 -0.7204,-0.2882 -1.2968,-0.7924 -1.2247,-0.5764 -0.2881,-0.5043 -1.657,-0.2881 -1.801,0.6483 -1.4409,0.3603 -1.801,0.072 -2.1613,0.3602 -1.6569,0.9366 -1.5849,0.7924 -2.4495,0.3603 -2.1612,-0.3603 -1.3688,-0.5042 -2.8096,0.4322 -1.657,0.6484 -1.657,0.8645 -1.9451,0.072 c 0,0 -0.1441,-2.0892 -0.1441,-2.3774 0,-0.2882 -0.5043,-1.1527 -0.5043,-1.1527 l -2.9537,-0.072 -0.9365,-0.3602 -0.4323,-0.8645 -0.4322,-0.7924 -0.2882,-1.1527 -0.2161,-1.5129 -0.5763,-0.5043 -1.0086,-1.801 -0.4323,-1.3688 -0.4322,-1.5129 -1.657,-0.8645 -0.2161,-1.0086 -0.2882,-0.5043 -0.8645,0.3603 -0.2881,0.3602 -1.4409,0.6483 -0.9365,0.7925 -2.1613,0.7925 -1.0086,1.0085 -1.0806,1.2247 -1.1527,1.0086 -0.6483,1.1527 -1.0807,0.5043 -1.5128,0.7924 -1.5129,0.072 -0.6484,-1.5849 -0.5763,-1.8731 -0.072,-2.3053 -0.5043,-1.1527 -1.5129,0.072 -0.3602,0.7925 -0.3602,2.5935 -0.5043,1.0086 -0.6483,0.4322 -0.2162,0.5764 -1.729,-0.2882 -0.9365,-0.8645 -0.8645,-0.2161 -0.4323,-1.1527 -0.9365,-0.8645 -0.5043,-0.5763 h -1.8731 l -0.2161,0.7204 -1.2968,0.4322 -0.4322,1.2247 -0.4323,0.7205 h -1.4408 l -0.4322,0.9365 -0.7205,0.5763 -0.2161,0.8645 -0.072,1.2247 0.2162,1.585 -0.4323,1.0085 -0.4322,0.6484 0.072,0.4323 2.8816,0.3602 0.2161,0.3602 0.4323,0.1441 1.0806,0.8645 -0.072,0.5043 -0.9365,0.4322 -0.6484,0.8645 -0.2881,1.4409 -0.2162,0.6483 -1.2967,-0.2161 -0.2161,-1.3688 -1.2247,-0.8645 h -1.585 l -1.1526,-0.2161 -0.5764,-0.5763 v 0.7924 c 0,0 0,0.3602 0,0.8645 0,0.5043 0.072,2.1613 0.072,2.1613 l 0.7204,0.2881 0.2882,1.2968 -0.072,1.2967 -0.072,1.3688 -0.2161,1.0086 0.2882,1.2968 -0.6484,0.144 -0.2882,1.3688 0.1441,0.3602 0.6484,0.4323 0.1441,1.0806 0.8645,0.072 0.2881,-2.0172 0.2882,-0.5043 0.5043,-1.4408 0.7204,-0.5043 0.2882,-0.8645 0.4322,-0.7204 0.7925,0.2882 0.4322,0.5763 1.2968,0.8645 1.5849,0.4322 1.0806,0.8645 0.3603,0.2882 0.7204,0.072 0.3602,1.3688 0.2881,1.0086 0.3603,1.6569 0.5042,1.1527 0.072,1.0086 0.3602,0.8645 0.8645,1.4408 0.2882,0.7204 0.072,1.8011 0.1441,1.3688 -0.072,0.3602 h -0.9365 l -0.2162,-1.0086 -1.2967,-0.7204 -1.1527,0.2882 -0.7204,-0.5043 -1.0086,-0.5043 -0.7924,-0.4323 -0.4323,-1.0806 -0.7204,-0.5763 h -1.0086 l -0.5763,0.5042 -1.2247,-0.072 -0.5764,0.8645 -1.4767,0.3602 -1.6208,-1e-4 -0.2162,0.4323 -2.6655,0.6483 h -1.3688 l -1.1527,0.3602 -0.4322,0.9366 -0.7925,1.0086 -0.3602,0.9365 -1.3688,0.6484 -0.6484,1.2247 -1.729,-0.3602 -2.3773,-0.9366 -0.7204,-0.6483 -2.1613,-0.7204 h -2.8817 l -2.9537,0.5042 -0.4322,0.2882 h -1.0086 l -1.0086,-0.5043 -0.8645,-0.2881 -0.2882,-0.5043 -2.0171,-0.5764 -0.5764,-1.4408 -1.2967,-1.1527 -1.0086,-1.0086 -1.5129,-0.9365 -2.6655,-0.9365 -0.2882,-1.5129 0.8645,-2.0172 1.1527,-0.5763 1.5129,-0.5763 0.2881,-1.2248 -0.3602,-1.1526 -0.2882,-1.5129 -0.144,-1.5129 -0.4323,0.2161 -0.7924,0.3602 -1.0807,-0.4322 -0.7924,-0.1441 -0.2882,0.3602 -0.7925,0.9366 -0.8645,0.7204 -0.4322,2.0892 -1.2247,0.4323 -1.8011,0.8645 -0.4322,0.7924 -1.8731,0.9366 -1.0086,0.4322 -0.2161,0.7925 -0.3602,1.1526 -0.7925,2.3054 -0.7924,1.801 -0.6484,1.5849 -0.6484,0.9366 -1.0806,1.2967 -1.3688,0.072 -1.0086,-0.2161 -1.0806,-0.3602 -1.4408,-0.3602 -0.1441,-1.2968 0.3602,-1.2967 0.7924,-1.585 0.5043,-1.5849 -0.5043,-0.7924 -1.2247,-0.2882 -1.1526,-0.2882 -1.2247,-0.5763 -1.8731,-0.2882 -0.9366,-0.5043 -1.2247,-0.4322 -0.3602,-0.5764 -0.8645,-0.9365 -0.8645,-0.9365 -0.5763,-0.2162 -0.7925,0.1441 -0.4322,0.7204 -0.3602,1.3688 -0.3603,0.3602 v 1.657 l -0.072,0.5763 h -0.9366 l -0.5763,-0.6483 h -1.0806 l -1.8731,0.144 -0.5764,0.072 -0.7924,0.5764 -2.0172,-0.072 -1.5129,0.2161 -0.7204,0.2161 -0.2161,0.7925 -1.0086,0.3602 -0.4322,0.2881 -1.5129,0.9366 h -1.0086 l -0.2882,-0.5043 -1.2967,-0.072 h -0.8645 l -0.5043,0.2881 -0.7925,0.9366 -0.5763,0.4322 h -0.9365 l -0.8645,-0.6483 -0.7925,-0.072 z m 3.4112,-173.7148 1.0596,-0.066 0.3974,-0.6622 0.2649,0.4636 0.6622,0.1986 0.066,1.0596 0.066,1.3907 0.066,1.1259 -0.596,0.4635 -0.3974,0.9272 -0.3311,0.5298 -0.4636,0.2649 -0.9933,0.1324 -0.7285,-0.3973 -0.596,-0.066 -0.2649,-0.4636 -0.596,-0.5298 -0.1987,-1.4569 v -0.9934 l 0.1987,-0.9934 0.4635,-0.2649 0.4636,-0.1986 0.066,-0.2649 1.3907,-0.1987 z m 35.6288,-9.6025 1.2583,-0.1325 0.4636,-0.3311 0.9271,0.1987 1.0596,0.2649 1.1258,0.5298 1.6556,-0.066 0.6623,1.5894 0.066,1.1258 0.1987,1.3907 0.1986,0.8609 0.6623,0.1987 0.9271,0.066 0.3311,-0.3974 0.5961,0.2649 0.1986,0.3312 v 0.6622 l -0.4635,0.066 -0.7947,0.596 -0.861,0.066 -0.3311,-0.3973 -0.2649,-0.5961 -1.788,-0.3973 -0.9934,0.066 -0.7285,0.1987 -1.5231,0.2649 -0.6623,-0.7285 -0.5298,-0.4636 -0.4635,-0.9933 -0.5298,-0.5298 -0.4636,-0.9934 -0.3974,-0.4636 -0.066,-1.3907 0.5298,-0.8609 z m 81.7199,31.9355 0.2784,0.4175 0.7422,0.5567 1.0671,0.232 -0.3248,0.3711 -0.3247,0.3711 -0.1856,0.3712 -0.8351,0.3247 -0.046,0.6959 v 0.7887 l 0.4175,0.1855 0.046,0.4176 0.5103,0.1391 1.2526,0.6495 1.4845,0.4176 0.8815,0.2319 0.4175,0.3248 0.6031,0.6031 0.8815,0.3247 0.3247,0.6031 0.5567,0.8815 0.232,0.6494 0.2319,1.6238 0.5103,1.067 0.5104,0.3711 v 0.9279 l -0.232,0.4175 -0.6959,0.4639 -0.9742,0.6495 -0.6495,0.1392 h -1.9485 l -0.6031,-0.3247 -0.6495,-0.3712 -0.4175,-0.8814 -1.0206,-0.464 -1.0671,-0.7886 -0.9742,-0.093 -0.7887,-0.5103 -0.7422,-0.093 -0.464,-0.5567 -0.3247,-0.9743 -0.3711,-0.9742 -0.5103,-0.835 -0.8351,-0.3248 0.1392,-0.5567 c 0,0 0.1391,0 0.1391,-0.1856 0,-0.1855 -0.1391,-0.6495 -0.1391,-0.6495 l -0.232,-0.9742 0.1392,-0.3247 0.6959,-0.464 0.6031,-0.4639 0.835,-0.4175 0.6031,-0.4639 v -0.9279 l -0.2783,-0.5103 v -0.7423 -0.5567 l 0.4639,-0.2783 0.3247,-0.5103 0.1392,-0.2784 z m -9.696,-21.1085 0.7423,-0.1856 1.2062,-0.093 0.4639,0.5567 h 1.7629 l 1.3918,-0.046 0.8815,-0.8351 0.5567,-0.1392 0.4175,-0.4175 0.7887,0.046 0.4175,1.5773 0.046,0.8815 0.1855,0.5103 0.464,1.3918 -0.046,0.6031 -0.3712,0.3247 -0.4639,0.6959 0.093,1.067 0.4639,0.232 0.1392,0.9742 0.4639,0.7887 h 0.9743 l 1.8093,0.1855 v 1.0207 l -0.3248,0.4639 -1.4845,0.3711 -1.7629,0.2784 -0.464,0.093 -0.3247,0.3711 -0.232,0.4639 v 0.8351 l 0.464,0.5103 0.046,0.8815 0.5104,1.9484 0.9278,0.3248 -0.2784,2.0876 -0.6958,0.7423 -0.2784,0.9278 -0.7887,0.1392 -0.4639,-0.4175 -0.6959,-0.046 -0.6495,-1.0206 -0.6031,-1.3918 -0.3711,-0.8351 -0.6495,-0.9278 -0.6495,-0.6031 -0.8814,-0.1856 -1.299,0.093 h -0.5567 l -0.9279,-0.5567 -0.835,-0.6031 -0.6495,-0.835 -0.6959,-0.6959 -1.2062,-2.0413 0.046,-1.1134 0.6495,-0.8815 0.1392,-1.9948 v -2.9227 l 0.7422,-1.0207 0.6031,-0.5567 1.2526,-1.0206 z m -13.4917,-13.6299 -1.2688,0.2115 h -1.4802 l -0.8458,-0.7401 h -2.0089 l -2.5375,0.4229 -0.5286,0.2115 -0.423,0.7401 -0.4229,0.9515 -0.3172,0.8459 -0.4229,1.6916 v 0.7402 0.7401 l 0.5287,0.2114 0.5286,0.6344 0.6344,0.7401 0.6344,0.3172 0.3172,-0.3172 0.4229,-0.2114 0.6344,0.3171 h 0.7401 l 1.163,0.423 1.163,0.7401 1.163,0.5286 0.7402,0.9516 1.163,0.3172 1.5859,1.0573 0.9516,-0.1058 0.8458,-0.1057 0.9516,-0.7401 0.8458,0.1057 0.2115,-0.4229 -0.4229,-0.8458 -0.7401,-0.7401 -0.1058,-0.6344 0.1058,-0.7401 v -1.2688 l 0.3172,-0.4229 0.4229,-0.6344 0.3172,-0.4229 -0.3172,-0.6344 -0.4229,-1.2687 -0.1058,-0.7401 v -1.2688 l 0.1058,-0.7401 -0.3172,-0.5287 -1.3745,-0.2114 -1.4951,0.1657 -0.411,0.6165 z m 39.177,-18.4504 0.7102,0.075 0.2991,-0.5233 0.2616,0.1495 0.6355,0.299 0.4486,0.486 0.299,1.0467 -0.075,1.0093 -0.187,0.8597 -0.2616,0.5981 -0.075,0.2991 -0.4486,0.075 -1.2709,0.5607 -0.5608,0.3739 -1.0466,0.075 -0.075,-0.785 0.037,-1.8317 c 0,0 0.1869,-0.8971 0.299,-1.0466 0.1122,-0.1496 0.5607,-0.5981 0.5607,-0.5981 l 0.4486,-1.1215 z m 5.7567,1.3458 0.299,-0.037 0.4486,-0.5234 0.1495,0.1496 0.037,0.5981 -0.2617,0.299 -0.6354,-0.075 -0.037,-0.4112 z m 2.3924,1.3457 0.2242,-0.785 0.4112,-0.5607 0.2991,-0.3739 0.4859,-0.1121 0.486,0.1869 v 0.5233 l -0.3364,0.2617 -0.7103,-0.075 -0.2616,0.3365 -0.2617,0.4112 z m -0.4112,-7.5884 0.6354,-0.075 0.2991,-0.3738 1.0093,0.1122 0.3738,0.6728 -0.1121,0.5981 -0.8598,-0.075 h -0.5607 l -0.2617,-0.2617 z m 23.598,-35.4936 -0.5927,1.6298 -0.1481,0.5927 -0.7409,0.7409 -0.1481,0.7408 h -0.7409 l 0.1482,1.3335 -0.5927,1.6299 -0.5927,0.4445 -0.5927,0.5927 -0.7408,0.2963 h -0.7409 l -0.889,-0.2963 -0.7408,-0.4445 -1.3336,-0.4445 V 8.2975 l -0.889,-0.5927 -0.2963,-0.2963 -1.0372,-0.889 0.2963,-0.8891 0.5927,-0.7408 0.1482,-0.7409 1.0372,0.2964 0.5926,-0.4445 0.7409,-0.889 0.7408,-0.7409 V 1.6299 l 0.4445,-0.1482 0.1482,-0.889 1.1854,-0.5927 1.0372,0.1482 0.4445,0.889 1.1853,-0.4445 0.2964,0.5926 0.7408,0.2964 z"
     id="messina"
     name="Messina"
     />
  <path
     d="m 411.1516,316.7722 0.1612,0.6851 1.209,0.2821 1.1283,0.4836 0.2015,0.6447 0.081,1.7731 0.4836,0.6045 0.685,0.4836 -0.2821,0.282 -1.1283,0.081 h -1.6522 v -0.685 l -0.5642,-0.8463 -0.2015,-0.8059 -0.282,-0.5239 -0.1612,-1.2492 z m 9.4758,-13.8352 0.357,-1.1152 0.1692,-0.3869 0.3627,-0.5803 0.8946,-0.9671 0.8221,-0.7496 0.7737,-1.499 0.4594,-1.7893 0.1693,-1.4023 -0.1209,-1.3299 -0.5561,-1.1605 -0.9914,-0.7254 -0.048,-0.7979 0.2901,-0.7737 0.9188,-0.9188 1.4507,-0.7254 0.4111,-0.411 0.411,0.266 0.677,0.7979 0.5803,0.7495 0.3385,-0.4352 0.3385,-0.3869 0.6286,-0.2418 0.1209,-0.3868 1.1848,-0.677 1.1122,-0.3143 1.9827,-0.2418 1.0396,-0.3627 0.677,-0.7979 1.1123,-0.8946 0.5561,-0.5803 0.5803,-0.4352 0.6286,-0.5078 0.3627,-0.677 0.9671,-0.411 0.5561,0.266 0.4594,0.3385 0.5078,-0.2418 0.4836,-0.3869 1.0155,-0.4352 0.145,-0.3869 0.7254,-1.2089 0.1451,-0.8221 0.1692,-1.2089 0.2902,-1.0639 0.9187,-1.6683 0.4111,-0.3868 0.8462,-0.5803 0.2418,-0.677 0.8946,-1.5475 0.677,-1.3782 0.4594,-1.2089 -0.3143,-0.5319 -1.088,-1.0397 -0.073,-1.6442 0.3627,-0.5561 0.1451,-0.4835 -0.097,-0.266 -1.7166,-0.8221 -2.297,-0.7495 -0.1209,-1.4266 -0.266,-1.1605 -0.073,-1.4024 -0.7496,-0.5077 -0.7737,-0.4836 0.024,-1.0155 0.097,-0.4111 1.354,-0.3626 -0.048,-0.3385 -0.5561,-0.6045 0.7012,-0.7979 -0.1451,-0.8946 -0.6044,-0.5319 -0.1209,-0.6529 -0.4594,-0.4352 -0.2176,-0.6528 -0.073,-1.3782 0.1935,-1.62 0.9913,-0.3626 0.8704,-0.1451 0.8463,-0.8221 0.5132,-0.2805 0.9184,0.081 0.7925,0.072 0.8645,0.6483 h 0.9365 l 0.5763,-0.4322 0.7925,-0.9366 0.5043,-0.2881 h 0.8645 l 1.2967,0.072 0.2882,0.5043 h 1.0086 l 1.5129,-0.9366 0.4322,-0.2881 1.0086,-0.3602 0.2161,-0.7925 0.7204,-0.2161 1.5129,-0.2161 2.0172,0.072 0.7924,-0.5764 0.5764,-0.072 1.8731,-0.144 h 1.0806 l 0.5763,0.6483 h 0.9366 l 0.072,-0.5763 v -1.657 l 0.3603,-0.3602 0.3602,-1.3688 0.4322,-0.7204 0.7925,-0.1441 0.5763,0.2162 0.8645,0.9365 0.8645,0.9365 0.3602,0.5764 1.2247,0.4322 0.9366,0.5043 1.8731,0.2882 1.2247,0.5763 1.1526,0.2882 1.2247,0.2882 0.5043,0.7924 -0.5043,1.5849 -0.7924,1.585 -0.3602,1.2967 0.1441,1.2968 1.4408,0.3602 1.0806,0.3602 1.0086,0.2161 1.3688,-0.072 1.0806,-1.2967 0.6484,-0.9366 0.6484,-1.5849 0.7924,-1.801 0.7925,-2.3054 0.3602,-1.1526 0.2161,-0.7925 1.0086,-0.4322 1.8731,-0.9366 0.4322,-0.7924 1.8011,-0.8645 1.2247,-0.4323 0.4322,-2.0892 0.8645,-0.7204 0.7925,-0.9366 0.2882,-0.3602 0.7924,0.1441 1.0807,0.4322 0.7924,-0.3602 0.4323,-0.2161 0.144,1.5129 0.2882,1.5129 0.3602,1.1526 -0.2881,1.2248 -1.5129,0.5763 -1.1527,0.5763 -0.8645,2.0172 0.2882,1.5129 2.6655,0.9365 1.5129,0.9365 1.0086,1.0086 1.2967,1.1527 0.5764,1.4408 2.0171,0.5764 0.2882,0.5043 0.8645,0.2881 1.0086,0.5043 h 1.0086 l 0.4322,-0.2882 2.9537,-0.5042 h 2.8817 l 2.1613,0.7204 0.7204,0.6483 2.3773,0.9366 1.729,0.3602 0.6484,-1.2247 1.3688,-0.6484 0.3602,-0.9365 0.7925,-1.0086 0.4322,-0.9366 1.1527,-0.3602 h 1.3688 l 2.6655,-0.6483 0.2162,-0.4323 1.6978,0.086 0.1,2.1227 0.1687,1.9397 0.4217,0.759 0.8433,0.506 0.084,1.4336 -1.3493,0.253 -2.1083,0.8434 -0.9277,0.5903 -0.759,1.1806 -0.6746,1.6867 0.4217,1.265 1.6023,1.012 1.0963,1.0963 0.8433,0.506 v 0.759 l -0.4216,0.4216 -0.253,1.0964 -0.5904,1.265 -2.1083,0.3373 -1.265,1.0963 -0.759,0.6747 v 0.9276 h 1.518 l 0.759,0.506 0.253,0.506 0.4217,0.9277 0.1686,1.4336 -0.3373,0.8433 -0.253,1.4337 0.253,1.771 v 1.012 0.253 l 0.6747,1.3493 0.253,0.3373 0.759,1.1807 0.7589,-0.6747 0.3374,-0.759 1.0963,-1.3493 0.506,-0.6747 h 1.1807 l 0.2529,0.9277 0.084,0.6747 0.8433,0.084 0.6747,-0.5903 0.4216,-0.9277 0.506,-0.4216 0.3374,-0.759 2.7829,-1.518 1.012,-0.8434 0.9277,-0.9276 1.0963,-0.4217 1.012,-1.1806 h 0.253 l -0.1687,3.6263 0.084,1.6023 0.5903,0.6746 0.253,0.759 v 1.0964 l -1.3493,1.1806 -0.6747,1.6023 v 3.2047 l 1.0963,0.9276 0.4217,1.8553 2.277,1.012 1.3493,0.759 1.6866,0.253 0.9277,2.024 -0.759,1.8553 -0.1687,0.9277 v 0.759 l 0.759,0.506 0.506,0.6746 0.084,1.6867 0.253,1.8553 1.0119,0.9277 v 0.4216 l -0.8433,0.253 -1.3493,0.4217 -1.8553,1.012 -0.5903,0.6746 -0.3374,2.024 -1.1806,0.5903 -0.506,0.759 -1.0963,1.012 0.4216,0.6747 1.1807,0.4216 0.6746,1.012 0.3374,1.518 v 1.6867 1.0963 l -1.1807,1.0963 -0.1687,1.518 0.1687,1.012 0.1687,0.759 -0.3374,1.8553 -0.7589,1.6023 -0.1687,1.1807 -1.012,-0.3374 -1.3493,-0.6746 -0.4217,-1.518 -1.012,-0.084 v 1.0963 l -0.759,0.8433 -0.8433,-1.771 -1.265,-0.3373 -1.012,-0.759 -0.506,-1.1806 -0.4216,-0.9277 -0.4217,-0.759 -1.265,-0.3373 -1.1806,-0.4217 -1.771,-1.0963 -1.3493,-1.1807 -0.759,-1.1806 -1.0964,-0.8433 -0.253,0.084 -0.3373,0.759 h -0.6746 l -0.506,-1.0963 -1.1807,-1.1807 -3.3733,0.1687 -0.8433,0.6746 -1.265,0.8433 -3.7106,2.277 -1.518,0.506 -0.084,0.506 -3.9636,0.506 -2.1083,0.759 -1.8553,-0.253 -0.506,-1.6023 -1.0963,-1.012 -2.1927,-0.1687 -1.9396,1.012 -2.3614,0.6747 -1.2649,0.759 -0.6747,0.1686 -0.5903,2.024 v 1.0964 l -0.506,0.7589 -0.6747,1.012 -0.9276,0.8434 -2.277,0.6746 -1.4337,0.8433 -2.024,0.3374 -1.0119,0.4216 0.4216,0.6747 0.9277,0.253 3.0359,0.759 2.6987,0.4216 1.0963,0.3374 v 0.3373 l -0.8433,0.506 -0.8433,0.9277 -1.3494,2.1083 0.1687,2.1083 0.5903,0.759 0.8434,1.265 1.2649,0.253 0.1687,1.3493 1.6867,0.6747 h 0.4216 l 1.0963,-0.6747 0.084,0.084 v 1.6023 l 0.1686,0.1687 2.277,0.6747 2.783,-0.3374 2.3613,-1.012 1.3493,-0.253 2.024,1.518 2.53,1.3494 2.8673,0.5059 0.8433,0.506 -0.084,1.771 -0.9277,0.8434 -0.5903,2.0239 -1.9396,1.012 h -1.771 l -0.6747,-0.5903 -0.759,0.253 -0.759,0.6747 -0.9276,1.012 -1.012,0.9276 v 1.3493 l 0.506,2.53 0.6746,0.506 0.506,1.012 0.084,0.4216 0.9276,0.4217 -0.084,0.5903 -1.4337,0.3374 -0.084,0.8433 -1.012,0.8433 -1.265,1.3493 h -1.265 l -1.3493,-1.5179 -0.4217,0.253 -2.1083,0.5903 -1.9396,0.5903 -1.1807,0.4217 -0.253,1.012 -1.9396,1.265 -1.265,0.506 -3.795,0.4216 0.1687,0.506 0.9277,0.5903 1.7709,0.9277 1.265,0.8433 0.9277,1.518 0.6746,0.5903 0.3374,1.0964 v 0.5903 l -1.1807,0.759 -1.3493,1.6866 -1.3493,0.253 -1.0963,-0.3373 -2.1927,-0.5903 -1.3493,-1.1807 -1.771,-2.1083 -1.6023,-0.8433 -0.9277,-0.506 -0.6746,-1.1807 -0.4217,-0.253 -0.253,-0.5903 -0.759,-0.6747 -0.506,0.253 -0.5903,1.012 v 1.3493 l -0.4217,0.253 -0.6746,-0.5903 -1.012,-0.253 -0.6747,0.3373 0.1687,1.4337 0.9276,0.5903 1.0964,0.8434 0.6746,0.8433 2.1927,0.3373 1.1806,1.8553 v 2.277 l -1.012,0.1687 -1.6866,0.3373 -0.6747,0.9277 -0.3373,0.8433 -1.1807,0.506 -1.5179,0.506 -0.6747,0.3373 -0.5903,-0.506 -0.8434,-0.5903 -0.3373,-0.5903 h -0.759 -1.6023 -1.6023 l -0.4217,0.5059 -0.6746,-0.2529 -1.3494,-0.759 -0.9276,-0.5904 -1.1807,-0.4216 -0.9276,-0.084 -1.5868,0.048 -1.1971,0.2093 h -0.3627 l -1.6925,0.8059 -0.6851,0.2418 -1.3701,0.2015 -1.5716,-0.5239 -0.04,-1.6522 -0.2015,-1.491 v -1.9343 l -0.4433,-0.685 -1.7328,0.04 -1.2089,0.04 -1.7732,-0.4835 c 0,0 -1.088,-0.3627 -1.2492,-0.3627 -0.1612,0 -0.9671,0.3224 -0.9671,0.3224 l -0.6851,0.4835 -0.8865,-0.282 -0.4836,-1.8537 -0.6045,-0.806 -1.2895,-0.2418 -1.2895,-0.3627 -0.2418,-0.1209 -0.5239,0.4836 -1.088,-0.403 -0.6851,-0.282 -1.1686,0.1208 -0.1612,0.403 -1.1284,0.6045 -0.9671,1.2895 -0.3224,0.2015 -0.5239,0.6448 -0.8059,0.2015 -2.4582,0.8462 -3.0223,0.6851 -0.8463,0.8462 -1.894,0.5239 h -1.3298 l -1.5716,-0.6045 -0.7254,-0.6447 -1.9746,-0.9672 -1.3701,-0.8865 -0.3627,-0.6851 -0.2417,-1.2089 -0.5642,0.04 -0.2821,1.4911 -0.6851,0.3223 -0.4835,0.2821 -1.3299,0.8463 -1.088,0.2015 -0.5239,-0.3627 -0.5238,-0.2015 -1.7328,-0.081 -1.2493,-0.04 -0.6447,-0.4433 -0.6448,-0.403 1.5716,-0.1612 0.7657,-0.081 -0.2015,-1.1283 -0.081,-1.2089 -0.4433,0.7253 -0.5642,0.3224 -0.5641,-0.403 -0.3627,-0.7656 -0.5239,-0.6851 0.4433,-0.806 0.3224,-0.5641 0.1209,-1.6119 -1.0478,-1.0881 -0.685,-0.8462 0.5641,-0.8866 0.1209,-0.4433 -0.403,-1.0477 -1.0074,-0.6851 -0.5642,-0.3626 -0.8865,-1.0478 -1.2089,-1.1283 -0.6045,-0.7254 v -1.1686 l 1.1283,0.04 0.3224,0.6448 0.6045,0.04 1.2089,-0.2418 v -0.4029 l -0.2418,-0.7254 -0.403,-1.088 v -1.1284 l 0.2418,-1.491 0.6851,-0.6045 1.7328,-1.7731 1.6925,-0.9671 0.6851,-0.6045 0.685,-1.6925 1.7328,-1.6119 0.8866,-1.6119 0.7253,-0.8866 1.0075,-0.8462 0.403,-0.5642 0.1612,-0.685 0.8865,-0.3224 0.806,-0.7657 3.0223,-0.6044 0.9268,-0.3224 0.5239,-0.2418 -0.5239,-0.403 -0.6447,-0.6045 -0.9672,-0.081 -0.8865,-0.7253 -0.6448,-1.6925 -0.4836,-2.0552 -0.2417,-1.6522 -0.6448,-1.2492 -1.0075,0.04 -0.4835,0.5239 -0.4836,-0.6045 -0.2015,-0.7254 -0.6045,-0.8462 -0.2014,-0.2418 0.1611,-1.4507 0.3627,-0.5239 0.6851,-0.3224 0.3224,-0.6045 0.3224,-1.4507 0.4029,-1.2895 0.5642,-1.2895 0.2418,-1.491 -0.6045,-0.4836 -0.5642,-0.9269 -0.3626,-0.7253 0.1612,-1.6119 0.6044,-0.6448 0.081,-1.1686 1.6522,-0.3224 1.3299,-0.1209 0.6044,-0.7657 0.1209,-0.8865 v -1.8134 l 0.1612,-1.6119 0.4433,-0.806 0.2821,-0.7253 -0.3627,-0.8866 -1.0478,-0.3224 -0.9268,0.2821 -0.2015,0.403 -1.491,0.081 z"
     id="enna"
     name="Enna"
     />
  <path
     d="m 487.2253,435.4578 -0.5464,-0.7059 -0.9045,-0.045 -0.2261,-0.7236 0.4975,-0.4975 0.407,-0.814 -0.407,-0.8141 -0.8593,-0.7236 -0.8593,-0.8141 -0.4975,-1.4924 -0.4522,-1.4473 -0.4523,-1.221 -0.4523,-0.4523 0.6784,-0.3618 0.4071,-0.9498 1.6281,-0.1356 1.1759,0.2261 0.6783,0.8141 0.2714,0.045 0.1357,-1.2211 0.2713,-0.9498 0.8141,-1.5829 1.6733,-1.4472 0.6784,-2.4422 0.3166,-1.3568 0.045,-1.6733 -1.1759,-0.9045 -0.9045,-1.0855 -0.6784,-1.5376 -0.7688,-1.0854 -0.7689,-1.7186 -0.9045,-1.9447 -0.6332,-0.6332 -1.5829,-0.8141 -0.9497,-0.7688 v -2.0804 l -0.4975,-0.2261 -0.6784,1.1306 -0.3618,0.3618 -0.407,0.3619 -0.4523,0.8592 -0.7688,0.8593 -0.7688,0.2714 -1.2211,0.407 -1.3568,-0.407 -0.3618,-1.1307 -0.6332,-0.045 -0.407,-0.8141 -0.9045,-0.3166 -1.4472,-0.8141 -0.588,-0.9949 0.8593,-0.4523 -0.09,-1.0402 -0.4975,-0.814 -1.0854,0.045 -0.6784,0.7688 -0.2261,-0.7236 0.9045,-0.7236 -0.045,-1.0402 v -1.7186 l 0.2714,-1.6734 0.3165,-0.4974 0.3166,-0.5427 0.1809,-1.6282 -0.3166,-1.7638 -0.5427,-0.9497 v -1.0854 l 0.6784,-0.5427 0.09,-0.6784 1.0402,-0.588 0.6783,-0.3165 0.045,-0.3619 -0.6331,-0.3618 -0.7689,-1.2211 -0.4522,-2.5326 -0.3166,-0.8141 -0.6332,-0.407 -0.2713,0.6332 -0.4523,0.5427 -2.4874,0.814 -1.6281,0.2262 -0.3166,-1.2663 v -1.6734 l -0.5879,-2.0352 -0.4321,-2.0309 1.5383,-0.041 0.9276,0.084 1.1807,0.4216 0.9276,0.5904 1.3494,0.759 0.6746,0.2529 0.4217,-0.5059 h 1.6023 1.6023 0.759 l 0.3373,0.5903 0.8434,0.5903 0.5903,0.506 0.6747,-0.3373 1.5179,-0.506 1.1807,-0.506 0.3373,-0.8433 0.6747,-0.9277 1.6866,-0.3373 1.012,-0.1687 v -2.277 l -1.1806,-1.8553 -2.1927,-0.3373 -0.6746,-0.8433 -1.0964,-0.8434 -0.9276,-0.5903 -0.1687,-1.4337 0.6747,-0.3373 1.012,0.253 0.6746,0.5903 0.4217,-0.253 v -1.3493 l 0.5903,-1.012 0.506,-0.253 0.759,0.6747 0.253,0.5903 0.4217,0.253 0.6746,1.1807 0.9277,0.506 1.6023,0.8433 1.771,2.1083 1.3493,1.1807 2.1927,0.5903 1.0963,0.3373 1.3493,-0.253 1.3493,-1.6866 1.1807,-0.759 v -0.5903 l -0.3374,-1.0964 -0.6746,-0.5903 -0.9277,-1.518 -1.265,-0.8433 -1.7709,-0.9277 -0.9277,-0.5903 -0.1687,-0.506 3.795,-0.4216 1.265,-0.506 1.9396,-1.265 0.253,-1.012 1.1807,-0.4217 1.9396,-0.5903 2.1083,-0.5903 0.4217,-0.253 1.3493,1.5179 h 1.265 l 1.265,-1.3493 1.012,-0.8433 0.084,-0.8433 1.4337,-0.3374 0.084,-0.5903 -0.9276,-0.4217 -0.084,-0.4216 -0.506,-1.012 -0.6746,-0.506 -0.506,-2.53 v -1.3493 l 1.012,-0.9276 0.9276,-1.012 0.759,-0.6747 0.759,-0.253 0.6747,0.5903 h 1.771 l 1.9396,-1.012 0.5903,-2.0239 0.9277,-0.8434 0.084,-1.771 -0.8433,-0.506 -2.8673,-0.5059 -2.53,-1.3494 -2.024,-1.518 -1.3493,0.253 -2.3613,1.012 -2.783,0.3374 -2.277,-0.6747 -0.1686,-0.1687 v -1.6023 l -0.084,-0.084 -1.0963,0.6747 h -0.4216 l -1.6867,-0.6747 -0.1687,-1.3493 -1.2649,-0.253 -0.8434,-1.265 -0.5903,-0.759 -0.1687,-2.1083 1.3494,-2.1083 0.8433,-0.9277 0.8433,-0.506 v -0.3373 l -1.0963,-0.3374 -2.6987,-0.4216 -3.0359,-0.759 -0.9277,-0.253 -0.4216,-0.6747 1.0119,-0.4216 2.024,-0.3374 1.4337,-0.8433 2.277,-0.6746 0.9276,-0.8434 0.6747,-1.012 0.506,-0.7589 v -1.0964 l 0.5903,-2.024 0.6747,-0.1686 1.2649,-0.759 2.3614,-0.6747 1.9396,-1.012 2.1927,0.1687 1.0963,1.012 0.506,1.6023 1.8553,0.253 2.1083,-0.759 3.9636,-0.506 0.084,-0.506 1.518,-0.506 3.7106,-2.277 1.265,-0.8433 0.8433,-0.6746 3.3733,-0.1687 1.1807,1.1807 0.506,1.0963 h 0.6746 l 0.3373,-0.759 0.253,-0.084 1.0964,0.8433 0.759,1.1806 1.3493,1.1807 1.771,1.0963 1.1806,0.4217 1.265,0.3373 0.4217,0.759 0.4216,0.9277 0.506,1.1806 1.012,0.759 1.265,0.3373 0.8433,1.771 0.759,-0.8433 v -1.0964 l 1.012,0.084 0.4217,1.518 1.3493,0.6746 1.012,0.3374 0.1687,-1.1807 0.7589,-1.6023 0.3374,-1.8553 -0.1687,-0.759 -0.1687,-1.012 0.1687,-1.518 1.1807,-1.0963 v -1.0963 -1.6867 l -0.3374,-1.518 -0.6746,-1.012 -1.1807,-0.4216 -0.4216,-0.6747 1.0963,-1.012 0.506,-0.759 1.1806,-0.5903 0.3374,-2.024 0.5903,-0.6746 1.8553,-1.012 1.3493,-0.4217 0.8433,-0.253 v -0.4216 l -1.0119,-0.9277 -0.253,-1.8553 -0.084,-1.6867 -0.506,-0.6746 -0.759,-0.506 v -0.759 l 0.1687,-0.9277 0.759,-1.8553 -0.9277,-2.024 -1.6866,-0.253 -1.3493,-0.759 -2.277,-1.012 -0.4217,-1.8553 -1.0963,-0.9276 v -3.2047 l 0.6747,-1.6023 1.3493,-1.1806 v -1.0964 l -0.253,-0.759 -0.5903,-0.6746 -0.084,-1.6023 0.1687,-3.6263 h -0.253 l -1.012,1.1806 -1.0963,0.4217 -0.9277,0.9276 -1.012,0.8434 -2.7829,1.518 -0.3374,0.759 -0.506,0.4216 -0.4216,0.9277 -0.6747,0.5903 -0.8433,-0.084 -0.084,-0.6747 -0.2529,-0.9277 h -1.1807 l -0.506,0.6747 -1.0963,1.3493 -0.3374,0.759 -0.7589,0.6747 -0.759,-1.1807 -0.253,-0.3373 -0.6747,-1.3493 v -0.253 -1.012 l -0.253,-1.771 0.253,-1.4337 0.3373,-0.8433 -0.1686,-1.4336 -0.4217,-0.9277 -0.253,-0.506 -0.759,-0.506 h -1.518 v -0.9276 l 0.759,-0.6747 1.265,-1.0963 2.1083,-0.3373 0.5904,-1.265 0.253,-1.0964 0.4216,-0.4216 v -0.759 l -0.8433,-0.506 -1.0963,-1.0963 -1.6023,-1.012 -0.4217,-1.265 0.6746,-1.6867 0.759,-1.1806 0.9277,-0.5903 2.1083,-0.8434 1.3493,-0.253 -0.084,-1.4336 -0.8433,-0.506 -0.4217,-0.759 -0.1687,-1.9397 -0.1118,-2.1713 1.4119,-0.397 0.5764,-0.8645 1.2247,0.072 0.5763,-0.5043 h 1.0086 l 0.7204,0.5763 0.4323,1.0806 0.7924,0.4323 1.0086,0.5043 0.7204,0.5043 1.1527,-0.2882 1.2967,0.7204 0.2162,1.0086 h 0.9365 l 0.072,-0.3602 -0.1441,-1.3688 -0.072,-1.801 -0.2882,-0.7205 -0.8645,-1.4408 -0.3602,-0.8645 -0.072,-1.0086 -0.5042,-1.1526 -0.3603,-1.657 -0.2881,-1.0086 -0.3602,-1.3688 -0.7204,-0.072 -0.3603,-0.2881 -1.0806,-0.8645 -1.5849,-0.4323 -1.2968,-0.8645 -0.4322,-0.5763 -0.7925,-0.2882 -0.4322,0.7204 -0.2882,0.8645 -0.7204,0.5043 -0.5043,1.4409 -0.2882,0.5043 -0.2881,2.0171 -0.8645,-0.072 -0.1441,-1.0806 -0.6484,-0.4322 -0.1441,-0.3602 0.2882,-1.3688 0.6484,-0.1441 -0.2882,-1.2968 0.2161,-1.0086 0.072,-1.3687 0.072,-1.2968 -0.2882,-1.2967 -0.7204,-0.2882 c 0,0 -0.072,-1.657 -0.072,-2.1613 0,-0.5043 0,-0.8645 0,-0.8645 v -0.7924 l 0.5764,0.5763 1.1526,0.2161 h 1.585 l 1.2247,0.8645 0.2161,1.3688 1.2967,0.2162 0.2162,-0.6484 0.2881,-1.4409 0.6484,-0.8645 0.9365,-0.4322 0.072,-0.5043 -1.0806,-0.8645 -0.4323,-0.1441 -0.2161,-0.3602 -2.8816,-0.3602 -0.072,-0.4322 0.4322,-0.6484 0.4323,-1.0086 -0.2162,-1.5849 0.072,-1.2247 0.2161,-0.8645 0.7205,-0.5764 0.4322,-0.9365 h 1.4408 l 0.4323,-0.7204 0.4322,-1.2247 1.2968,-0.4323 0.2161,-0.7204 h 1.8731 l 0.5043,0.5763 0.9365,0.8645 0.4323,1.1527 0.8645,0.2161 0.9365,0.8645 1.729,0.2882 0.2162,-0.5763 0.6483,-0.4323 0.5043,-1.0086 0.3602,-2.5935 0.3602,-0.7924 1.5129,-0.072 0.5043,1.1526 0.072,2.3054 0.5763,1.873 0.6484,1.585 1.5129,-0.072 1.5128,-0.7925 1.0807,-0.5043 0.6483,-1.1526 1.1527,-1.0086 1.0806,-1.2247 1.0086,-1.0086 2.1613,-0.7925 0.9365,-0.7924 1.4409,-0.6484 0.2881,-0.3602 0.8645,-0.3602 0.2882,0.5043 0.2161,1.0085 1.657,0.8645 0.4322,1.5129 0.4323,1.3688 1.0086,1.8011 0.5763,0.5042 0.2161,1.5129 0.2882,1.1527 0.4322,0.7924 0.4323,0.8645 0.9365,0.3603 2.9537,0.072 c 0,0 0.5043,0.8645 0.5043,1.1527 0,0.2882 0.1441,2.3774 0.1441,2.3774 l 1.9451,-0.072 1.657,-0.8645 1.657,-0.6484 2.8096,-0.4322 1.3688,0.5043 2.1612,0.3602 2.4495,-0.3602 1.5849,-0.7925 1.6569,-0.9365 2.1613,-0.3602 1.801,-0.072 1.4409,-0.3602 1.801,-0.6484 1.657,0.2882 0.2881,0.5043 1.2247,0.5763 1.2968,0.7924 0.7204,0.2882 0.9365,-0.2161 1.657,-0.5043 1.2968,0.2882 0.144,0.5763 0.5043,0.2161 0.3602,0.5043 0.7925,0.3602 1.1527,1.1527 0.7924,0.1441 0.6484,0.7204 0.7925,0.4322 2.6655,1.0086 0.4323,0.5043 0.6483,1.8011 1.0807,0.3602 0.8645,0.7924 c 0,0 0.5763,0.1441 0.9365,0.1441 0.3603,0 0.2882,0.5043 0.2882,0.5043 l 0.8645,0.4322 0.8645,0.7205 0.8645,1.0806 0.5043,1.3688 0.9365,2.4494 0.9365,1.0086 0.8645,1.0806 1.0086,0.7925 0.1441,1.729 1.0806,0.072 0.4096,0.1331 -0.3011,0.8364 -0.6021,0.7025 -0.368,0.7359 -0.368,0.7026 -0.5687,0.7359 -0.4014,1.6392 -0.9702,1.8065 -0.7359,1.6058 -1.0371,1.773 -0.736,1.3716 -0.7694,0.4349 -0.5352,1.2712 -0.2677,0.7694 -0.1003,2.5759 0.4014,2.3417 0.8029,1.5723 0.6691,0.8698 0.7694,1.3381 0.2007,0.4015 -0.2342,0.368 -0.4683,1.1708 0.067,1.1709 -0.2007,0.4683 -0.5687,0.2676 -0.368,0.736 -0.8698,1.8399 -0.8029,1.5723 -0.1003,1.2378 0.2676,0.4683 0.3345,0.4349 -0.8029,0.4349 -0.067,1.5389 0.3011,1.0705 0.5018,0.4014 -0.368,1.5054 -0.7694,1.6392 -0.8698,0.7694 -0.7694,0.7695 -0.8029,0.9032 -0.5687,1.5389 -0.2676,2.2079 -0.3345,2.3082 0.4014,2.6763 0.4349,1.773 0.2342,1.4719 0.301,1.5054 -0.3345,1.6727 -1.4385,0.7694 -0.067,0.9702 0.4684,0.6356 0.301,0.8363 -0.3345,0.8363 -0.4014,-1.3046 -0.4015,-0.4684 -0.4683,0.067 -0.6691,1.0371 -0.5018,0.1338 -0.2676,0.7025 -0.4349,0.2676 -0.5353,1.7396 -0.669,1.6058 -1.6727,0.8363 -0.7694,0.8698 -0.7025,0.2341 -1.6392,0.4349 -0.3011,1.0371 0.2007,1.3046 0.2007,0.5019 -0.1003,0.4014 -0.7695,1.5388 -0.7359,0.7025 -0.9702,1.6393 -0.8028,1.2043 -0.9702,0.3345 -0.6356,1.773 -0.6356,3.914 0.3345,2.9105 0.4015,1.8733 0.669,4.9177 0.3011,1.7395 0.6022,2.141 0.5018,2.2414 v 4.3155 l 0.033,3.0442 0.033,2.8101 -0.1972,2.2942 -0.5071,0.3803 -1.3945,0.2958 -1.0564,-0.4226 -0.9719,-0.2535 -1.7748,-0.2959 -0.5071,-0.338 -0.8451,-0.169 -0.6761,0.4225 -0.5916,0.2536 h -1.3522 l -1.0564,-0.084 -0.2958,-1.141 -0.2536,-1.3522 -0.6761,-0.6338 -0.5916,-0.8874 h -0.4648 l -0.084,1.6057 -0.084,0.3803 -0.7184,0.3804 -1.5635,0.3803 -2.7044,-0.4649 -1.4367,-0.2535 -2.5777,-0.8029 -1.479,-0.6338 -1.3944,-0.2113 -0.4226,-0.8029 -0.6339,-0.2113 -0.169,-0.6338 -0.5071,-0.7184 -0.5915,-1.0987 -1.2255,-1.4789 -0.5071,-0.4226 -0.5493,-0.2535 -1.8593,-0.2113 -0.6761,-0.6761 c 0,0 -2.3664,0.084 -2.5354,-0.084 -0.169,-0.1691 -1.648,0.4648 -1.648,0.4648 l -3.0002,0.8451 -0.6339,1.6903 -0.042,1.3099 -1.5213,1.7748 -1.2254,0.8029 -1.9016,0.5493 -2.1128,0.8874 -0.9719,0.2958 -0.7606,1.7748 0.3803,1.7748 0.2535,0.5493 -0.169,1.1832 -1.648,0.9296 -1.8593,0.3803 -1.2677,0.5071 -1.7748,0.7184 -0.6761,0.8874 -1.0564,0.8874 -0.6339,0.7183 -1.6902,0.5916 -0.6761,1.7326 -0.1691,0.4648 0.6761,0.169 1.0987,-0.042 0.9719,1.6057 0.5916,0.2535 1.5635,0.4226 0.3803,0.5493 0.8452,0.085 0.7183,-0.5494 1.1832,-0.3803 1.0564,-0.2535 0.5916,-0.5494 0.8874,-0.3803 0.9297,-0.6761 1.1831,-0.3803 0.4649,0.2958 1.2254,0.5916 2.5354,0.9297 0.9297,0.1267 2.9579,0.5916 1.0564,0.5071 0.084,1.0987 -0.2112,0.5916 -0.5916,1.1832 -0.5071,0.8028 -0.169,1.31 v 1.5212 l -0.3381,0.2958 -1.6057,0.7184 -2.0284,0.338 -0.8451,0.2958 0.7606,0.8029 -0.1267,0.7606 -0.4649,0.042 -0.338,0.8451 -0.2958,0.2958 -0.2113,0.8874 -0.5071,1.0564 -1.3522,0.2113 -0.7606,0.3381 -2.4086,0.042 -1.0142,0.7184 -0.5916,0.169 -1.31,0.3803 -0.4225,0.6339 -0.7606,0.338 -0.8029,0.7606 -1.9016,1.8171 -0.338,0.5493 -0.4648,0.8874 -0.3803,1.0987 -0.8452,0.3803 -0.4648,1.3099 0.2535,0.9297 0.4649,0.6338 0.6338,1.0987 0.9297,0.2113 1.0986,-0.042 0.5071,-0.5493 1.9861,-0.2113 1.8593,0.5916 1.5635,0.8029 0.169,0.9296 0.5493,0.6761 0.8029,1.0142 1.3522,-0.084 1.4367,-0.6761 0.5071,-0.3803 1.6903,-0.4648 0.5071,-0.9297 0.8451,-0.9719 0.5916,-0.2535 0.6761,0.3803 0.3803,0.7606 0.4226,1.2254 -0.2958,3.0848 -0.2113,0.8028 -0.8029,0.3381 -1.3099,1.7748 -1.7326,0.5916 -0.9296,0.9719 -0.9719,1.1409 0.084,1.2677 0.9296,1.2677 0.8029,1.1409 0.6761,1.0987 0.1691,1.479 -0.085,1.1832 -0.4225,1.4367 -0.9297,0.2535 -0.6338,0.7607 -0.3803,0.5916 -0.4226,0.1267 -0.3381,-1.0564 -0.2957,-0.8874 -0.8452,0.042 -0.5916,0.4225 -0.6761,0.2536 -1.0987,0.2958 -1.6902,0.084 -1.0564,-0.5493 -0.8029,-0.6339 -0.8029,-0.7184 -0.6761,-0.5493 -2.1973,-0.1268 c 0,0 -0.2113,0.8874 -0.1691,1.0564 0.042,0.1691 0.4226,1.141 0.4226,1.141 l 0.8029,1.3522 0.8874,1.3945 0.7844,1.7413 -10e-5,-10e-5 0.4858,0.2354 1.377,0.2174 -0.072,0.3624 -0.7247,0.5073 -0.6161,-0.5436 h -1.0871 l -0.062,0.01 -1.2859,0.5294 -0.9833,1.2103 -0.832,0.3782 -0.076,0.7564 -0.832,0.076 -1.2859,-0.1512 -0.9077,-0.3782 -1.0589,-0.3782 -1.2859,0.3025 -0.9077,0.7564 -0.6051,0.3782 -0.5295,-0.1513 -0.076,-1.1345 -0.4538,-2.4205 v -1.5128 l -1.1346,-0.6808 -1.4372,-1.1346 -0.832,-0.6808 h -0.4538 l -0.3782,1.2103 -0.5295,1.3615 -1.4372,1.1346 -1.9666,0.6051 -0.5295,1.5128 -0.6051,1.2859 h -1.1346 l -0.7564,-0.3782 -0.7564,-0.832 -0.5295,-0.3026 -0.9077,0.7564 -1.2102,0.9833 -0.4538,1.7397 -1.2859,2.5718 -1.3615,0.6808 -0.9077,0.3782 -1.3615,-0.4539 -0.9077,-0.832 -0.3026,-0.9077 h -0.5295 l -0.5294,0.6808 -0.9077,1.1346 -1.059,1.1346 -1.3615,1.4371 -1.5128,0.6808 -0.7564,2.9499 -0.4538,0.1513 -0.4539,0.3026 -0.832,0.9833 -0.8321,0.3782 -0.832,0.3026 -0.5295,-1.059 -0.9077,-0.4538 -1.0589,0.6051 -0.8321,0.2269 -0.6051,-0.7564 -0.1513,-0.6808 -0.4538,-0.9076 -1.059,-0.6808 0.076,-1.2102 0.5295,-0.6808 -1.4372,-0.1513 -0.5294,0.3782 -1.3616,0.4538 -1.2102,0.6808 -0.9077,0.6807 -0.9833,1.2859 -0.6051,0.3782 -2.1179,0.9077 -0.9077,0.5295 -1.059,0.6807 -0.6051,0.5295 -2.6474,0.076 z"
     id="catania"
     name="Catania"
     />
  <path
     d="m 622.31,502.2719 v -0.5274 l 0.3867,-0.035 0.1407,0.5978 -0.1758,0.2109 -0.3516,-0.2461 z m -7.384,24.0154 0.4571,0.1406 0.1055,0.4571 -0.5977,0.1758 -0.1055,-0.2813 z m 35.5484,-103.4102 0.5977,-0.4571 0.6681,0.035 0.3165,1.6174 0.035,1.3713 -1.0197,0.07 -0.5626,-0.7032 -0.2461,-0.9846 0.211,-0.9493 z m -51.582,90.9278 v -0.5626 -1.1955 l 0.5625,-0.6329 -0.4922,-0.5626 -0.211,-1.6877 v -1.6174 l -0.4923,-1.8988 -0.1406,-1.1955 -0.7736,-1.0548 -0.7735,-0.7736 -0.1407,-1.4768 0.6329,-0.6329 0.211,-1.4767 -0.5626,-2.1097 -1.0548,-1.6878 -0.7736,-0.8439 -1.4064,-1.1955 -1.2659,-0.7735 -0.5625,-0.4923 -0.8439,-0.8439 -1.5471,-1.4064 -0.4923,0.2109 -0.8439,1.1252 -0.6329,0.1407 -0.7735,-0.7033 -0.2813,-1.4064 -2.0394,-0.3517 -2.8832,-0.4922 -3.0239,-0.6329 -0.9846,-0.7736 -0.7032,-0.8439 -1.969,-0.2109 -1.7581,0.3516 -1.6175,0.9142 -0.2813,0.8439 -0.1406,0.4219 -0.9142,-0.8439 -0.3516,-1.1251 -0.422,-0.8439 0.422,-0.9845 0.9142,-0.7736 0.3516,-2.0394 v -2.9535 l -0.8439,-0.633 0.3516,-1.1251 0.5626,-0.2813 v -1.0549 l 0.7736,-0.8438 0.7735,-0.1407 1.6878,0.5626 1.6878,0.3516 0.7735,0.9845 0.7032,1.4065 2.7426,0.2813 1.5471,0.7735 1.2659,0.2813 0.5626,-0.4922 0.6329,-1.4768 0.4922,-1.0549 0.3516,-1.1954 -0.4922,-0.9143 -1.2658,-0.9845 -1.6175,-0.7032 -0.9142,-1.2658 -0.4922,-0.7736 -0.6329,-0.5626 -2.4614,-0.4219 -1.8987,-1.8284 -1.5471,-0.5626 -0.6329,-1.4065 -0.4219,-1.0548 0.1406,-0.9142 1.1252,-0.7032 1.7581,-0.422 v -0.9142 l -0.422,-1.0548 -0.9845,-1.1252 -1.4065,-0.7735 -0.9845,-0.5626 -1.6174,-0.6329 -1.2658,-0.7033 -0.9142,-0.4219 -1.3362,0.2813 -0.4922,0.8439 -1.0549,-0.211 -0.7735,-0.6329 0.5625,-0.4923 0.2813,-0.8439 -0.4922,-0.7735 -0.211,-2.0394 -0.1406,-1.3361 -0.7033,-1.2658 0.4923,-0.5626 c 0,0 2.391,-0.2813 2.6723,-0.211 0.2812,0.07 1.6877,0.211 1.6877,0.211 l 0.2813,0.4922 -0.9142,0.6329 -0.3516,0.633 0.6329,0.9142 0.5626,1.6877 0.6329,0.8439 1.1955,0.8439 2.18,1.6877 1.3361,1.1955 1.4065,1.3362 1.4065,1.8284 0.7735,0.8438 1.8284,0.7736 1.9691,0.7032 1.1251,1.8284 0.4923,0.6329 0.4923,0.422 0.9845,-0.2813 v -1.6175 l -0.4923,-0.6329 -0.4922,-0.9845 -0.8439,-1.3361 -1.2658,-1.4768 -1.4065,-1.2658 -1.2658,-0.6329 -1.1252,-0.9142 -0.4219,-2.4614 -1.0549,-0.2812 -1.4064,-0.9846 -0.7033,-1.1955 -0.6329,-0.9845 v -3.5865 l -0.2813,-2.2503 -0.9845,-1.1252 -0.7735,-1.2658 -0.422,-0.7032 -1.0548,-0.8439 -1.0549,-0.9845 -0.7735,-1.5471 -0.9142,-0.9142 -0.6329,-2.3207 -0.3516,-1.1955 -1.4065,-0.211 -1.4768,-1.1955 -0.7736,-0.9845 0.9846,-0.9142 -0.5626,-0.3516 -0.422,-0.3516 -0.4922,1.1955 -0.7032,0.2109 -0.9846,-0.3516 -0.9142,-0.7032 -0.6329,-0.9845 v -1.6878 l 0.8439,-0.6329 0.9845,-0.07 1.5471,1.0548 0.6329,0.7736 0.1407,0.6329 0.7735,-1.1955 0.2813,-0.4923 -1.1955,-0.4922 -0.6329,-0.7033 -1.2658,-1.1251 -1.6174,-1.4065 -0.422,-1.1955 -0.035,-3.0239 -0.5978,-1.2306 -0.2813,-2.4965 -0.5274,-0.3516 -0.4922,0.3164 -1.7933,0.3516 -0.7119,-0.4844 -0.632,-0.017 -0.7348,-0.2223 0.06,-0.876 0.6157,-0.5152 0.3226,-1.1394 -0.1283,-1.0061 1.0657,0.5421 1.6902,-0.084 1.0987,-0.2958 0.6761,-0.2536 0.5916,-0.4225 0.8452,-0.042 0.2957,0.8874 0.3381,1.0564 0.4226,-0.1267 0.3803,-0.5916 0.6338,-0.7607 0.9297,-0.2535 0.4225,-1.4367 0.085,-1.1832 -0.1691,-1.479 -0.6761,-1.0987 -0.8029,-1.1409 -0.9296,-1.2677 -0.084,-1.2677 0.9719,-1.1409 0.9296,-0.9719 1.7326,-0.5916 1.3099,-1.7748 0.8029,-0.3381 0.2113,-0.8028 0.2958,-3.0848 -0.4226,-1.2254 -0.3803,-0.7606 -0.6761,-0.3803 -0.5916,0.2535 -0.8451,0.9719 -0.5071,0.9297 -1.6903,0.4648 -0.5071,0.3803 -1.4367,0.6761 -1.3522,0.084 -0.8029,-1.0142 -0.5493,-0.6761 -0.169,-0.9296 -1.5635,-0.8029 -1.8593,-0.5916 -1.9861,0.2113 -0.5071,0.5493 -1.0986,0.042 -0.9297,-0.2113 -0.6338,-1.0987 -0.4649,-0.6338 -0.2535,-0.9297 0.4648,-1.3099 0.8452,-0.3803 0.3803,-1.0987 0.4648,-0.8874 0.338,-0.5493 1.9016,-1.8171 0.8029,-0.7606 0.7606,-0.338 0.4225,-0.6339 1.31,-0.3803 0.5916,-0.169 1.0142,-0.7184 2.4086,-0.042 0.7606,-0.3381 1.3522,-0.2113 0.5071,-1.0564 0.2113,-0.8874 0.2958,-0.2958 0.338,-0.8451 0.4649,-0.042 0.1267,-0.7606 -0.7606,-0.8029 0.8451,-0.2958 2.0284,-0.338 1.6057,-0.7184 0.3381,-0.2958 v -1.5212 l 0.169,-1.31 0.5071,-0.8028 0.5916,-1.1832 0.2112,-0.5916 -0.084,-1.0987 -1.0564,-0.5071 -2.9579,-0.5916 -0.9297,-0.1267 -2.5354,-0.9297 -1.2254,-0.5916 -0.4649,-0.2958 -1.1831,0.3803 -0.9297,0.6761 -0.8874,0.3803 -0.5916,0.5494 -1.0564,0.2535 -1.1832,0.3803 -0.7183,0.5494 -0.8452,-0.085 -0.3803,-0.5493 -1.5635,-0.4226 -0.5916,-0.2535 -0.9719,-1.6057 -1.0987,0.042 -0.6761,-0.169 0.1691,-0.4648 0.6761,-1.7326 1.6902,-0.5916 0.6339,-0.7183 1.0564,-0.8874 0.6761,-0.8874 1.7748,-0.7184 1.2677,-0.5071 1.8593,-0.3803 1.648,-0.9296 0.169,-1.1832 -0.2535,-0.5493 -0.3803,-1.7748 0.7606,-1.7748 0.9719,-0.2958 2.1128,-0.8874 1.9016,-0.5493 1.2254,-0.8029 1.5213,-1.7748 0.042,-1.3099 0.6339,-1.6903 3.0002,-0.8451 c 0,0 1.479,-0.6339 1.648,-0.4648 0.169,0.169 2.5354,0.084 2.5354,0.084 l 0.6761,0.6761 1.8593,0.2113 0.5493,0.2535 0.5071,0.4226 1.2255,1.4789 0.5915,1.0987 0.5071,0.7184 0.169,0.6338 0.6339,0.2113 0.4226,0.8029 1.3944,0.2113 1.479,0.6338 2.5777,0.8029 1.4367,0.2535 2.7044,0.4649 1.5635,-0.3803 0.7184,-0.3804 0.084,-0.3803 0.084,-1.6057 h 0.4648 l 0.5916,0.8874 0.6761,0.6338 0.2536,1.3522 0.2958,1.141 1.0564,0.084 h 1.3522 l 0.5916,-0.2536 0.6761,-0.4225 0.8451,0.169 0.5071,0.338 1.7748,0.2959 0.9719,0.2535 1.0564,0.4226 1.3945,-0.2958 0.5071,-0.3803 c 0,0 0.6272,-0.1622 0.6634,-0.017 0.036,0.1449 0.1631,1.2139 0.1631,1.2139 l 0.1812,2.6635 0.2355,0.5074 0.7174,3.1951 0.4613,1.64 0.205,0.8199 0.5637,0.4613 0.3587,1.0762 0.41,0.2562 0.4613,-0.3075 0.6662,-0.3587 1.5374,0.3587 h 2.3062 l 1.6912,0.82 1.6912,1.435 1.6399,0.9224 0.8712,0.9737 h 0.9738 l 0.6149,-0.2049 1.025,-0.3588 1.025,0.3075 0.7174,0.4612 0.7175,0.3075 -0.1537,1.1275 0.051,1.025 0.2563,0.1025 0.4099,-0.7688 0.82,-0.2562 0.3588,-0.82 0.2049,-0.3075 0.3588,-1.6912 1.4862,-0.3075 0.5637,0.4613 0.82,1.6399 0.82,1.5375 1.5886,1.6399 1.5375,0.7687 1.6399,1.5375 0.9738,0.8712 0.7174,1.4862 0.5638,0.8712 1.0249,1.7937 0.3588,1.3837 -0.7688,0.41 -0.9224,-0.205 -0.5125,-0.3075 -1.5375,-0.7175 -0.8199,-0.8199 -0.7175,-0.4613 -0.3587,0.615 -0.615,0.3075 -0.1538,1.1787 0.051,1.7937 0.5125,0.7175 0.6662,0.4612 0.615,0.5637 -0.6663,0.3075 -0.205,1.3325 -0.7687,-0.1538 -0.615,-0.6662 -0.6149,-0.7175 -0.1538,-2.6136 -0.1025,-1.7937 -0.2562,-0.5637 -0.3075,-1.2812 -0.82,-0.051 -0.9224,0.6663 -0.6663,0.9737 -0.205,0.41 0.3075,0.6149 1.1787,0.6663 -0.6662,0.3074 -0.9737,-0.5124 -0.5125,-0.7175 -0.7175,0.6662 -0.4612,0.615 0.2562,1.1275 1.435,0.205 0.205,0.4099 -0.82,0.41 -0.8712,0.9737 -1.0762,0.9738 -0.2563,2.0499 0.615,3.1774 0.82,0.9224 0.7687,1.23 1.5887,0.9225 0.5125,2.1011 0.3075,3.3824 0.5637,0.9225 0.7175,0.3587 0.82,0.5638 0.8712,0.1537 1.0071,-0.2851 0.3867,-0.5275 0.3516,-0.1758 -0.07,-0.8439 -0.3164,-0.7032 1.3009,-0.1406 1.0197,0.1055 0.5978,1.1251 0.4571,1.0549 0.5977,1.0548 -0.2109,0.3868 -0.8439,-0.1055 -0.5978,-0.5977 -0.9845,-0.5626 -0.7736,0.07 -0.457,1.1252 -0.6681,0.9493 -0.07,1.2307 0.8791,2.1449 1.6877,0.879 0.7033,1.2658 0.4571,0.4923 1.9339,0.2109 0.9142,0.3517 0.9142,0.2109 0.7735,-0.5274 1.0549,-1.09 0.9142,0.1406 -0.7736,0.1759 -1.1252,1.1251 -0.2813,0.7033 1.0549,0.4922 2.0745,-0.3868 0.9142,-0.4571 2.391,0.1055 0.9845,0.6681 0.3517,1.3361 0.5625,1.8284 0.2462,1.723 -0.6329,1.8635 -0.4923,0.8087 -0.4571,1.512 -0.1055,0.4922 -1.4416,0.1759 -0.9845,0.4219 -0.7736,0.4923 -0.3516,0.9142 -0.3164,0.7735 0.2813,1.5119 0.9493,1.7581 0.7032,1.4768 1.5472,0.2813 1.1603,-0.8087 0.4923,-1.0197 0.7383,-0.4923 2.5317,0.3868 0.7735,0.7384 0.8088,1.6878 0.6329,1.5822 0.8438,0.7736 0.8439,0.8087 0.5978,0.8791 0.2461,0.9845 0.2813,1.1603 -0.211,0.5274 -1.8987,0.3165 -1.4416,-0.1055 -0.5626,-0.5274 -0.9494,-0.6681 -0.5274,-1.09 -0.3516,-0.7032 -0.6329,-0.3868 -0.7033,0.4571 -0.2813,0.3868 -0.3516,0.7384 -0.7384,0.2461 -0.6329,0.211 c 0,0 -1.6174,0.3867 -1.758,0.4571 -0.1407,0.07 -1.4768,0.3516 -1.4768,0.3516 l -0.5626,1.5119 -0.3868,1.0197 v 1.2307 l 0.2813,0.9845 c 0,0 0.4923,0.1406 0.4571,0.2813 -0.035,0.1406 -0.3165,0.5977 -0.3165,0.5977 l -0.8087,0.6681 -0.2109,0.6329 0.2109,0.2461 0.3165,0.5275 -0.2462,0.2813 -1.8987,0.8438 -0.668,0.1407 c 0,0 -1.3714,-0.5626 -1.512,-0.5978 -0.1406,-0.035 -1.1603,0.1407 -1.1603,0.1407 l -0.6681,0.2461 -0.3868,1.0549 -0.4922,0.1758 -0.1407,0.8087 -0.4219,0.5274 -0.9142,0.1407 -0.5978,-0.3868 -0.7735,-0.3516 -0.6329,0.4571 -0.4571,0.3867 -0.3868,1.4417 -0.1758,0.5274 -0.8439,0.8439 -1.1252,0.3164 -0.1406,0.6329 -0.9845,0.5978 -0.3165,0.5977 -0.6329,1.1252 -0.4219,0.9845 -0.211,1.1252 -0.7384,1.6877 -1.6174,0.8439 -1.0197,0.3516 -0.5978,1.1955 -0.879,1.6878 -0.5626,1.2658 -0.3164,1.2658 -0.422,1.4065 -0.3516,1.6174 -0.2461,0.8439 -0.035,0.7736 0.5626,0.4571 0.07,1.1251 v 1.09 l -1.7581,0.1407 -0.8087,1.0548 -0.7735,0.9142 -0.9846,0.7384 -0.7383,1.512 -0.3517,0.6329 -0.3867,2.6371 -0.3517,0.4571 0.2462,0.6681 0.3867,0.4922 0.4923,2.3559 0.3165,1.3361 -0.422,1.09 -0.7032,1.5823 -1.5471,0.7735 -0.422,0.5626 0.3165,0.4923 0.5977,0.7032 0.3412,0.6539 0.6713,-0.075 0.3232,-0.6216 0.05,0.7956 -1.1188,0.6962 -0.3233,2.2376 0.2735,0.8454 0.7459,0.7459 0.3232,0.6464 -0.4972,0.7708 0.1243,0.8204 0.7956,1.7156 0.8702,0.8951 0.6216,1.0193 0.4724,0.5719 0.7459,0.6961 0.2486,1.5167 0.2984,0.3978 0.6215,-0.7459 0.1,0.6216 0.1492,2.2874 0.3729,4.525 0.6216,1.5913 0.6962,0.4226 0.8419,0.7738 0.2461,0.8439 1.1604,0.5626 0.7384,0.1758 1.1603,-0.4571 1.0548,0.3868 -1.0548,0.8087 -2.0745,0.7736 -0.5275,2.4964 -0.1758,1.1604 -0.3516,-0.2462 c 0,0 -0.4923,-0.4571 -0.5977,-0.6329 -0.1055,-0.1758 -0.3517,-0.5274 -0.3517,-0.5274 l -2.6722,-0.035 -0.422,0.8791 -0.4571,0.5977 -0.5626,1.0549 -0.879,0.7032 -1.4416,0.8087 -0.8087,0.6681 -0.2813,0.5626 -0.422,0.7032 -0.3867,0.3165 h -0.9142 l -0.5275,-1.301 -0.5977,-0.7736 -1.5471,-0.8438 -0.5626,-0.3165 -0.7384,0.5626 -0.3868,-0.1407 -0.3516,-0.7735 c 0,0 -0.1055,-1.2307 -0.1406,-1.3713 -0.035,-0.1407 -0.5275,-0.7736 -0.5275,-0.7736 l -0.2461,-1.8635 -0.3516,-0.3165 -0.8087,-0.9494 -0.9142,-0.4922 -1.4943,-0.8114 -0.8205,-0.8453 -1.268,-0.4724 -0.4475,-0.2984 -0.9945,-0.3978 h -2.4118 z"
     id="siracusa"
     name="Siracusa"
     />
  <path
     d="m 467.2763,449.2954 0.761,-0.6885 2.899,-0.616 1.0872,-0.6161 0.5435,-1.0509 1.5583,-0.616 0.6522,-1.7032 0.906,-0.8335 2.4279,-0.6885 1.1234,-1.1234 1.9931,-0.5073 0.4349,-1.522 1.2321,-0.3262 2.4279,-1.3045 0.7927,-0.9377 c 0,0 1.0962,-1.2774 1.1143,-1.2906 l 2.4797,0.1682 2.6474,-0.076 0.6051,-0.5295 1.059,-0.6807 0.9077,-0.5295 2.1179,-0.9077 0.6051,-0.3782 0.9833,-1.2859 0.9077,-0.6807 1.2102,-0.6808 1.3616,-0.4538 0.5294,-0.3782 1.4372,0.1513 -0.5295,0.6808 -0.076,1.2102 1.059,0.6808 0.4538,0.9076 0.1513,0.6808 0.6051,0.7564 0.8321,-0.2269 1.0589,-0.6051 0.9077,0.4538 0.5295,1.059 0.832,-0.3026 0.8321,-0.3782 0.832,-0.9833 0.4539,-0.3026 0.4538,-0.1513 0.7564,-2.9499 1.5128,-0.6808 1.3615,-1.4371 1.059,-1.1346 0.9077,-1.1346 0.5294,-0.6808 h 0.5295 l 0.3026,0.9077 0.9077,0.832 1.3615,0.4539 0.9077,-0.3782 1.3615,-0.6808 1.2859,-2.5718 0.4538,-1.7397 1.2102,-0.9833 0.9077,-0.7564 0.5295,0.3026 0.7564,0.832 0.7564,0.3782 h 1.1346 l 0.6051,-1.2859 0.5295,-1.5128 1.9666,-0.6051 1.4372,-1.1346 0.5295,-1.3615 0.3782,-1.2103 h 0.4538 l 0.832,0.6808 1.4372,1.1346 1.1346,0.6808 v 1.5128 l 0.4538,2.4205 0.076,1.1345 0.5295,0.1513 0.6051,-0.3782 0.9077,-0.7564 1.2859,-0.3025 1.0589,0.3782 0.9077,0.3782 1.2859,0.1512 0.832,-0.076 0.076,-0.7564 0.832,-0.3782 0.9833,-1.2103 1.2859,-0.5294 0.062,-0.01 h 1.0871 l 0.6161,0.5436 0.7247,-0.5073 0.072,-0.3624 -1.377,-0.2174 -0.4858,-0.2354 1e-4,10e-5 -0.7844,-1.7413 -0.8874,-1.3945 -0.8029,-1.3522 c 0,0 -0.3803,-0.9719 -0.4226,-1.141 -0.042,-0.169 0.1691,-1.0564 0.1691,-1.0564 l 2.1973,0.1268 0.6761,0.5493 0.8029,0.7184 0.8029,0.6339 0.1267,1.0141 -0.338,1.1409 -0.5916,0.5071 -0.085,0.8874 0.7183,0.2113 0.6562,0.022 0.7119,0.4844 1.7932,-0.3516 0.4923,-0.3165 0.5274,0.3516 0.2813,2.4965 0.5978,1.2307 0.035,3.0238 0.422,1.1955 1.6174,1.4065 1.2658,1.1252 0.6329,0.7032 1.1955,0.4923 -0.2813,0.4922 -0.7735,1.1955 -0.1407,-0.6329 -0.6329,-0.7735 -1.5471,-1.0549 -0.9845,0.07 -0.8439,0.633 v 1.6877 l 0.6329,0.9845 0.9142,0.7033 0.9845,0.3516 0.7033,-0.211 0.4922,-1.1955 0.422,0.3516 0.5626,0.3516 -0.9846,0.9142 0.7736,0.9846 1.4768,1.1955 1.4064,0.2109 0.3517,1.1955 0.6329,2.3207 0.9142,0.9142 0.7735,1.5471 1.0549,0.9845 1.0548,0.8439 0.422,0.7032 0.7735,1.2659 0.9845,1.1251 0.2813,2.2504 v 3.5865 l 0.6329,0.9845 0.7033,1.1955 1.4064,0.9845 1.0549,0.2813 0.4219,2.4613 1.1252,0.9142 1.2658,0.6329 1.4065,1.2658 1.2658,1.4768 0.8439,1.3362 0.4922,0.9845 0.4923,0.6329 v 1.6174 l -0.9845,0.2813 -0.4923,-0.4219 -0.4923,-0.6329 -1.1251,-1.8284 -1.9691,-0.7033 -1.8284,-0.7735 -0.7735,-0.8439 -1.4065,-1.8284 -1.4065,-1.3361 -1.3361,-1.1955 -2.18,-1.6878 -1.1955,-0.8439 -0.6329,-0.8439 -0.5626,-1.6877 -0.6329,-0.9142 0.3516,-0.6329 0.9142,-0.6329 -0.2813,-0.4923 c 0,0 -1.4065,-0.1406 -1.6877,-0.211 -0.2813,-0.07 -2.6723,0.211 -2.6723,0.211 l -0.4923,0.5626 0.7032,1.2658 0.1407,1.3362 0.211,2.0393 0.4922,0.7736 -0.2813,0.8439 -0.5626,0.4922 0.7736,0.6329 1.0548,0.211 0.4923,-0.8439 1.3361,-0.2813 0.9142,0.422 1.2659,0.7032 1.6174,0.6329 0.9845,0.5626 1.4065,0.7735 0.9845,1.1252 0.4219,1.0549 v 0.9142 l -1.758,0.4219 -1.1252,0.7032 -0.1406,0.9142 0.4219,1.0549 0.6329,1.4065 1.5471,0.5625 1.8987,1.8284 2.4613,0.422 0.633,0.5626 0.4922,0.7735 0.9142,1.2658 1.6175,0.7033 1.2658,0.9845 0.4922,0.9142 -0.3516,1.1955 -0.4923,1.0548 -0.6329,1.4768 -0.5625,0.4923 -1.2659,-0.2813 -1.5471,-0.7736 -2.7426,-0.2813 -0.7032,-1.4064 -0.7736,-0.9845 -1.6877,-0.3517 -1.6878,-0.5625 -0.7735,0.1406 -0.7736,0.8439 v 1.0548 l -0.5626,0.2813 -0.3516,1.1252 0.8439,0.6329 v 2.9536 l -0.3516,2.0393 -0.9142,0.7736 -0.422,0.9845 0.422,0.8439 0.3516,1.1252 0.9142,0.8438 0.1406,-0.4219 0.2813,-0.8439 1.6175,-0.9142 1.758,-0.3516 1.9691,0.211 0.7032,0.8439 0.9846,0.7735 3.0238,0.6329 2.8833,0.4923 2.0394,0.3516 0.2813,1.4065 0.7735,0.7032 0.6329,-0.1406 0.8439,-1.1252 0.4923,-0.211 1.5471,1.4065 0.8439,0.8439 0.5625,0.4922 1.2659,0.7736 1.4064,1.1955 0.7736,0.8438 1.0548,1.6878 0.5626,2.1097 -0.211,1.4768 -0.6329,0.6329 0.1407,1.4768 0.7735,0.7735 0.7736,1.0549 0.1406,1.1955 0.4923,1.8987 v 1.6174 l 0.211,1.6878 0.4922,0.5626 -0.5626,0.6329 v 1.1955 0.5626 l -0.334,0.5977 -1.1076,0.2988 -0.7735,0.8087 -1.6175,0.8439 -0.8614,0.2813 -0.756,-0.334 c 0,0 -1.635,-0.2813 -1.7229,-0.2989 -0.088,-0.018 -1.7933,-0.088 -1.8284,-0.1582 -0.035,-0.07 -0.2989,-1.09 -0.2989,-1.09 l -0.7208,-0.4923 -0.2286,-0.4395 -1.3792,-0.535 -1.8399,-0.9945 -1.442,-1.5912 -0.7957,-0.9448 -1.7901,-0.8453 -2.8344,-0.1989 -1.8896,-0.4476 -1.5415,-0.2983 -1.2431,0.3978 -2.9836,0.6464 -0.9448,0.5967 -1.442,0.547 -0.8454,0.3978 -0.4972,0.6465 -0.6465,0.348 -0.5967,1.0443 0.2487,1.0442 0.4972,0.3978 1.1934,-0.05 0.3481,-0.4973 0.4973,0.099 v 0.8951 l -1.7404,0.05 -1.1437,-0.547 -0.9945,-0.8951 -1.1437,-0.2486 -1.3924,-0.05 -0.4475,0.4475 -1.0443,0.8454 -0.2983,0.9448 -1.2432,0.5469 -1.3923,0.3978 -1.8896,-0.348 -0.7956,-0.9946 -1.2929,-0.1989 -0.4475,0.3481 -0.7459,-0.05 -0.7459,-0.547 -0.3978,-1.1437 -3.5803,-0.3481 -3.2819,0.1989 -1.5912,0.3978 c 0,0 -0.547,0.2984 -0.7956,0.2984 -0.2487,0 -2.2377,-0.4475 -2.2377,-0.4475 l -1.4918,-0.4973 -0.7956,-1.8399 -0.8453,-0.895 -0.9448,-0.5967 -0.4973,-0.8951 -0.9448,-0.7956 -1.5912,-0.4476 -1.0443,-0.6961 -1.8895,-0.1492 -0.2487,-1.0442 -0.7956,-0.9946 -1.8896,-0.6464 -3.5802,-0.7956 -2.1383,-0.547 -0.895,-0.4475 -0.7459,-0.1989 -0.6465,-0.6962 -1.9393,-0.6464 -1.3426,-0.099 -1.9393,-0.6962 -1.8896,-0.2983 -1.3426,0.2983 -1.0939,0.4476 h -2.2874 l -1.2929,-0.3481 -1.641,-0.6962 -0.5967,-0.348 -0.7459,0.05 -0.3978,0.1989 -1.094,0.3481 -1.8398,0.05 -0.7956,-0.2984 -0.2984,-0.547 -0.3978,-1.0939 -0.9448,-0.8454 -0.8453,-1.442 -0.7459,-0.9448 -1.094,-0.9448 -0.6962,-0.9945 -0.5469,0.3481 -1.0443,0.2486 -0.3481,-0.4973 0.1,-0.8453 0.895,-0.2486 -0.3978,-1.8399 -0.3978,-1.5415 -0.7459,-1.4918 -0.3978,-0.9448 -0.9448,-0.3978 v -2.0388 l -0.4475,-0.7956 -0.2984,-1.8398 -0.4475,-0.9946 -1.094,-1.8895 -0.7458,-1.4421 -1.7902,-1.7404 -0.7459,-1.5415 -0.7956,-1.5415 -0.8453,-1.641 -1.3924,-1.5415 -0.6961,-1.5912 -0.2984,-0.4476 -0.895,-0.895 -0.4973,-1.1437 -0.8951,-0.7459 -0.6961,-1.4918 -0.9448,-1.094 -0.7459,-1.3923 -1.5913,-1.6907 -0.895,-1.5415 -1.3923,-1.5912 -1.641,-1.4918 -0.8951,-1.1934 -0.7956,-0.6962 -0.3481,-1.1437 z"
     id="ragusa"
     name="Ragusa"
     />
  <path
     d="m 467.2763,449.2954 0.761,-0.6885 2.899,-0.616 1.0872,-0.6161 0.5435,-1.0509 1.5583,-0.616 0.6522,-1.7032 0.906,-0.8335 2.4279,-0.6885 1.1234,-1.1234 1.9931,-0.5073 0.4349,-1.522 1.2321,-0.3261 2.4279,-1.3046 0.7927,-0.9377 c 0,0 1.0962,-1.2774 1.0899,-1.3043 l -0.5265,-0.7054 -0.9045,-0.045 -0.2261,-0.7236 0.4975,-0.4975 0.407,-0.814 -0.407,-0.8141 -0.8593,-0.7236 -0.8593,-0.814 -0.4975,-1.4925 -0.4522,-1.4472 -0.4523,-1.2211 -0.4523,-0.4523 0.6784,-0.3618 0.4071,-0.9497 1.6281,-0.1357 1.1759,0.2261 0.6783,0.8141 0.2714,0.045 0.1357,-1.2211 0.2713,-0.9497 0.8141,-1.5829 1.6733,-1.4473 0.6784,-2.4422 0.3166,-1.3567 0.045,-1.6734 -1.1759,-0.9045 -0.9045,-1.0854 -0.6784,-1.5377 -0.7688,-1.0854 -0.7689,-1.7186 -0.9045,-1.9447 -0.6332,-0.6332 -1.5829,-0.814 -0.9497,-0.7689 v -2.0803 l -0.4975,-0.2262 -0.6784,1.1307 -0.3618,0.3618 -0.407,0.3618 -0.4523,0.8593 -0.7688,0.8593 -0.7688,0.2713 -1.2211,0.4071 -1.3568,-0.4071 -0.3618,-1.1306 -0.6332,-0.045 -0.407,-0.8141 -0.9045,-0.3166 -1.4472,-0.814 -0.588,-0.995 0.8593,-0.4523 -0.09,-1.0401 -0.4975,-0.8141 -1.0854,0.045 -0.6784,0.7688 -0.2261,-0.7236 0.9045,-0.7236 -0.045,-1.0402 v -1.7186 l 0.2714,-1.6733 0.3165,-0.4975 0.3166,-0.5427 0.1809,-1.6281 -0.3166,-1.7638 -0.5427,-0.9498 v -1.0854 l 0.6784,-0.5427 0.09,-0.6784 1.0402,-0.5879 0.6783,-0.3166 0.045,-0.3618 -0.6331,-0.3618 -0.7689,-1.2211 -0.4522,-2.5327 -0.3166,-0.814 -0.6332,-0.4071 -0.2713,0.6332 -0.4523,0.5427 -2.4874,0.8141 -1.6281,0.2261 -0.3166,-1.2663 v -1.6734 l -0.5879,-2.0351 -0.4555,-1.8561 -1.2222,0.042 h -0.3627 l -1.6925,0.8059 -0.6851,0.2418 -1.3701,0.2015 -1.5716,-0.5239 -0.04,-1.6522 -0.2015,-1.491 v -1.9343 l -0.4433,-0.685 -1.7328,0.04 -1.2089,0.04 -1.7732,-0.4835 c 0,0 -1.088,-0.3627 -1.2492,-0.3627 -0.1612,0 -0.9671,0.3224 -0.9671,0.3224 l -0.6851,0.4835 -0.8865,-0.2821 -0.4836,-1.8536 -0.6045,-0.806 -1.2895,-0.2418 -1.2895,-0.3627 -0.2418,-0.1209 -0.5239,0.4836 -1.088,-0.403 -0.6851,-0.2821 -1.1686,0.1209 -0.1612,0.403 -1.1284,0.6045 -0.9671,1.2895 -0.3224,0.2015 -0.5239,0.6448 -0.8059,0.2015 -2.4582,0.8462 -3.0223,0.6851 -0.8463,0.8462 -1.894,0.5239 h -1.3298 l -1.5716,-0.6045 -0.7254,-0.6447 -1.9746,-0.9672 -1.3701,-0.8865 -0.3627,-0.6851 -0.2417,-1.2089 -0.5642,0.04 -0.2821,1.4911 -0.6851,0.3223 -0.4835,0.2821 -1.3299,0.8463 -1.088,0.2015 -0.5239,-0.3627 -0.5238,-0.2015 -1.7328,-0.081 -1.2493,-0.04 -0.6447,-0.4433 -0.6448,-0.403 1.5716,-0.1612 0.7657,-0.081 -0.2015,-1.1283 -0.081,-1.209 -0.4433,0.7254 -0.5642,0.3224 -0.5641,-0.403 -0.3627,-0.7656 -0.5239,-0.6851 0.4433,-0.806 0.3224,-0.5641 0.1209,-1.6119 -1.0478,-1.0881 -0.685,-0.8462 0.5641,-0.8866 0.1209,-0.4433 -0.403,-1.0477 -1.0074,-0.6851 -0.5642,-0.3626 -0.8865,-1.0478 -1.2089,-1.1283 -0.6045,-0.7254 v -1.1686 l 1.1283,0.04 0.3224,0.6448 0.6045,0.04 1.2089,-0.2418 v -0.4029 l -0.2418,-0.7254 -0.403,-1.088 v -1.1284 l 0.2418,-1.491 0.6851,-0.6045 1.7328,-1.7731 1.6925,-0.9671 0.6851,-0.6045 0.685,-1.6925 1.7328,-1.6119 0.8866,-1.6119 0.7253,-0.8866 1.0075,-0.8462 0.403,-0.5642 0.1612,-0.6851 0.8865,-0.3223 0.806,-0.7657 3.0223,-0.6045 0.9268,-0.3223 0.5239,-0.2418 -0.5239,-0.403 -0.6447,-0.6045 -0.9672,-0.081 -0.8865,-0.7253 -0.6448,-1.6925 -0.4836,-2.0552 -0.2417,-1.6522 -0.6448,-1.2493 -1.0075,0.04 -0.4835,0.5238 -0.4836,-0.6044 -0.2015,-0.7254 -0.6045,-0.8462 -0.2014,-0.2418 0.1611,-1.4507 0.3627,-0.5239 0.6851,-0.3224 0.3224,-0.6045 0.3224,-1.4507 0.4029,-1.2895 0.5642,-1.2895 0.2418,-1.4911 -0.6045,-0.4835 -0.5642,-0.9269 -0.3626,-0.7253 0.1612,-1.6119 0.6044,-0.6448 0.081,-1.1686 1.6522,-0.3224 1.3299,-0.1209 0.6044,-0.7657 0.1209,-0.8865 v -1.8134 l 0.1612,-1.6119 0.4433,-0.806 0.2821,-0.7254 -0.3627,-0.8865 -1.0478,-0.3224 -0.9268,0.2821 -0.2015,0.403 -1.491,0.081 -0.4326,-0.5137 -0.9677,-0.2475 -0.7791,-0.01 -0.3352,0.6522 -0.7882,0.072 -0.5798,-0.2174 -0.063,-0.7066 -0.3262,-0.2084 -0.2627,-1.3136 -0.2446,-1.1325 -1.667,-0.3624 -0.4348,0.5074 -1.3046,0.2174 -0.3624,-0.6523 -0.5798,-0.5073 -1.7394,-0.2174 -1.377,-0.5074 -0.5798,-0.7247 v -0.9422 l -2.3917,-0.7248 -1.1596,-0.2899 h -2.0294 l -0.8697,1.1596 -1.8119,0.7248 -0.1449,0.8697 -0.7248,0.7248 -0.9422,0.8697 -0.8697,0.8697 -0.073,1.9568 0.5798,1.8119 0.7973,1.7395 0.072,0.8697 -0.7247,0.5073 -1.0872,0.5798 -0.7972,0.5798 -0.7247,-0.3624 -1.3046,-0.1449 -1.2321,0.2899 -1.4495,0.5798 -1.8119,0.8697 -1.9569,0.4349 -0.6523,0.7972 -1.522,0.7248 -0.4348,-0.2899 -0.7248,-0.9422 -0.7247,-0.2899 -0.7248,-0.5798 h -1.377 l -1.8119,-0.4349 -0.5074,-0.5073 v -0.8697 l 0.145,-0.6523 0.5073,-0.4349 -0.073,-0.5073 -1.5219,-0.072 -1.2321,-0.2174 -1.3046,-0.7973 -1.7394,-0.7247 -0.7973,-1.0147 0.145,-1.0146 h 0.9422 l 0.9422,-0.5074 -0.4349,-0.3624 -0.2899,-0.9421 -0.4349,-1.0872 -0.4348,-0.7247 v -1.2321 l 0.2174,-0.4349 0.5073,-0.8697 0.145,-1.2321 -0.6523,-0.5798 -1.1596,-0.072 -1.1596,-0.2899 -0.5798,-0.7247 V 292.6 l -0.6523,-0.3624 -0.5073,-1.232 -0.6523,-1.667 -1.522,-0.6523 -0.7248,-0.1449 -0.7247,-0.9422 h -1.667 l -1.6669,-0.5798 -1.3771,-0.145 -1.9568,-0.5073 -1.2321,-0.5798 -2.0293,-0.9422 -0.073,-0.3624 v -0.8697 l 0.4348,-0.3624 0.2175,-1.522 -0.145,-1.9568 -0.3624,-1.4495 -0.6523,-1.1597 -0.4348,-0.9421 -0.7248,-1.3046 -0.3623,0.073 -1.2321,1.0146 -0.5798,0.7973 -0.8698,1.5944 -0.6522,0.8698 -0.9422,0.3623 -0.3624,0.8697 -0.5073,0.3624 -0.145,1.522 0.4349,1.522 0.3623,0.9422 -0.4348,0.8697 -2.1743,0.2174 -1.0871,-0.7247 -1.1596,-0.072 -1.3771,-0.5798 -0.7247,-0.145 -0.2175,0.8698 0.4349,0.8697 0.5073,0.8697 -0.4348,0.8697 -0.3624,0.5798 -0.8697,0.6523 -0.8073,0.8944 1.4249,0.6641 2.5624,0.1281 0.4613,0.4612 0.8199,0.205 0.3588,-0.5125 0.5381,-0.41 0.4356,-0.3843 1.768,-0.077 1.6144,-0.4868 0.8199,-0.8456 0.8969,-0.3844 1.2812,0.3331 0.82,0.7687 0.6918,0.9738 0.2819,1.2299 0.8712,-0.077 0.41,-0.9994 0.7687,0.1794 0.3331,0.3844 0.4356,1.7936 0.5125,0.6406 0.051,0.6919 -0.4099,0.205 -0.3588,2.3318 -1.0506,0.7175 -0.4099,0.7431 0.4099,1.5887 1.5119,1.6399 0.8712,0.7943 1.1018,0.3844 0.1538,1.5887 -0.5894,1.23 -0.6662,0.4099 -0.82,-0.4099 -0.9737,-0.3588 h -0.9481 l -0.41,0.41 -1.0506,0.1538 -0.6662,-0.2563 -0.6662,-0.5125 -0.5125,-0.5893 -1.7681,-0.026 -0.3331,0.3843 -0.2819,2.2037 -0.4356,0.9993 -1.6399,0.3075 -0.7944,-0.615 -0.3331,0.051 -0.4356,0.9225 -0.077,0.5381 0.2562,0.3843 0.2819,0.9737 -0.3588,0.615 -0.8199,0.7687 -1.3837,0.3844 -2.5112,0.3075 -1.6399,0.9225 -0.9994,0.1793 -0.5893,0.7944 -2.8443,0.2306 -2.9212,-0.1025 -0.6149,-0.3075 -0.3844,-0.3075 -0.5894,0.3075 -0.5381,0.6662 -0.8968,1.0762 -0.7944,0.6407 -0.2818,0.7431 0.3331,0.743 1.6399,0.8713 1.0506,1.0762 1.2044,1.2812 0.4356,1.2043 0.1793,1.9731 0.2563,1.0762 0.3331,0.7175 -0.615,0.5381 0.2306,1.563 0.5894,1.4862 -0.2819,1.2812 -0.41,0.4869 -0.1025,0.9994 0.3331,0.7174 0.205,0.7944 -0.026,1.1531 -0.2562,0.3843 -0.5894,1.1019 -1.3581,0.077 -0.4868,0.7687 -0.7944,0.4356 -0.6918,1.5375 -0.7687,1.5374 -0.4869,0.3844 -0.615,-0.6662 -0.3843,0.3075 0.051,2.383 -0.615,1.1531 0.4613,0.2562 3.0492,-0.2562 3.203,0.5125 0.7944,0.8199 0.7943,1.64 0.7944,0.7431 0.8968,0.7431 1.5887,0.2562 2.4343,0.1538 1.7937,0.205 0.5125,0.9993 2.3574,0.7944 0.615,0.2562 0.9737,-0.3331 0.205,-0.6406 0.3075,-1.1275 1.8705,-0.5637 1.2812,-0.4356 1.8962,0.4356 1.5631,0.82 0.8968,0.2818 1.1275,-0.1537 0.3331,-0.4613 1.64,0.2819 0.9224,0.3588 2.0756,-0.1538 0.2818,-0.1794 0.4869,-0.2818 0.5637,-0.2563 0.2307,-0.4612 0.6918,0.4612 1.5118,-0.5125 0.077,1.3581 -0.5125,0.5125 -0.3844,0.82 0.5125,0.7943 0.3844,0.2819 0.7175,0.2562 0.4868,1.0506 0.7175,0.7687 0.8968,1.7681 1.6912,0.077 2.255,-0.3075 1.3068,-0.3588 0.9481,0.41 1.6655,1.5375 0.7175,1.6655 c 0,0 0.4869,0.7688 0.4869,0.8713 0,0.1025 -0.41,1.4605 -0.41,1.4605 l -1.5631,0.5381 -1.5631,0.3075 -0.4612,0.4613 0.3588,0.5893 1.1018,0.6662 -0.5381,0.5894 -0.5125,0.8456 -0.8456,0.9225 -0.205,0.2818 0.205,0.41 0.7175,0.6919 3.2542,0.8968 0.615,1.1275 0.8969,0.5381 1.6399,0.6918 0.7687,0.7688 0.9738,0.8456 2.4855,0.5124 h 2.5368 l 2.4599,-0.1537 1.2043,1.2812 1.4606,1.5631 0.8712,0.8712 1.64,0.6918 0.4356,1.8194 -0.077,1.4861 0.6919,0.4357 0.2306,0.4868 2.5112,0.4612 1.0505,0.9225 0.9994,0.2819 0.5125,-0.1538 0.3331,-2.0755 0.3843,0.1794 0.4356,0.4868 0.7944,0.2562 v 1.435 l -0.41,1.23 -0.7431,1.5118 -1.7168,1.5887 -0.1794,1.2812 0.1281,0.41 0.41,0.3843 -0.1793,0.9994 -0.7431,1.5887 -0.8713,0.8968 -0.2818,0.9225 0.3075,0.6662 0.9224,0.8969 0.7688,0.9224 -0.077,0.7944 -2.1012,0.3075 -0.615,0.3074 -1.4605,0.7431 -0.1025,0.3844 0.205,0.4612 0.5637,2.1525 0.205,1.7937 0.5637,0.5124 0.6663,0.615 0.4099,0.6919 0.1538,0.3331 -0.9225,0.6918 -1.5118,0.026 -0.9225,-0.1794 -0.7175,-0.2563 -0.3843,-0.3331 -0.2306,0.4869 1.2812,0.5893 0.8199,0.7175 0.9994,1.025 1.3068,0.5125 0.8456,1.7168 0.8456,1.6143 1.5887,0.7944 1.8449,0.7943 0.6919,0.8456 0.6662,1.6656 0.4869,2.2293 0.2818,1.4862 0.3588,0.8712 0.1281,2.5111 v 1.4606 l 0.026,1.435 1.3581,-0.141 c 0,0 0.5381,-0.3843 0.5381,-0.4356 0,-0.051 2.3702,-0.8199 2.3702,-0.8199 l 1.499,-0.3972 1.704,0.4228 1.9218,0.4228 3.6259,0.3331 3.9717,0.7687 4.8045,0.82 3.1005,0.7431 2.5112,0.9096 2.319,0.7431 1.7168,0.7944 1.4221,0.82 1.6912,0.7815 1.5375,0.7687 3.1902,0.7944 2.3702,0.7943 1.5631,0.82 1.6399,0.82 1.6528,0.7815 1.5887,1.5759 1.5502,0.8071 0.7559,0.756 1.64,0.9096 0.7431,1.4862 1.6271,0.7815 1.5503,1.6015 1.6527,1.6656 1.5759,1.5375 0.4228,0.5124 z m -56.1247,-132.5232 0.1612,0.6851 1.209,0.2821 1.1283,0.4836 0.2015,0.6447 0.081,1.7731 0.4836,0.6045 0.685,0.4836 -0.2821,0.282 -1.1283,0.081 h -1.6522 v -0.685 l -0.5642,-0.8463 -0.2015,-0.8059 -0.282,-0.5239 -0.1612,-1.2492 z m -3.8129,-32.1059 1.5582,-0.6523 0.8697,-0.7972 0.2537,-0.4711 -0.2899,-0.3261 -0.7248,-1.6307 -0.8697,-0.7973 -0.7972,-0.4348 -1.6307,0.3986 -0.3262,0.2899 -0.5435,-0.1812 -0.2899,-1.1234 -0.29,-0.9059 h -2.138 l -1.1234,-0.4349 -1.2683,-0.4348 -0.3986,0.3986 -0.7972,1.6307 -0.761,1.7032 -0.4711,0.8697 0.3623,0.9422 1.3408,0.1087 1.1597,0.3986 0.2174,0.7248 0.073,1.3045 -0.4349,0.5798 -1.9206,0.1812 -2.138,-0.1087 -1.8119,0.2899 -0.2537,1.7032 v 1.9206 l -0.4349,0.1812 0.036,0.7972 0.3987,0.6886 0.761,0.7247 0.6885,1.3046 1.4857,0.5436 1.3771,0.036 1.1958,-0.5436 1.4133,-0.8697 0.8335,-1.5945 0.9784,-0.7248 0.761,-0.3261 0.3624,-0.616 c 0,0 0.5436,-0.145 0.7247,-0.1812 0.1812,-0.036 1.1959,-0.4711 1.1959,-0.4711 l 1.3408,-0.2537 1.8119,-0.036 0.3986,-0.6885 -0.4348,-0.6885 -1.1234,-0.3987 -0.073,-0.4348 -0.7248,-0.2899 -0.036,-0.8335 z"
     id="caltanissetta"
     name="Caltanissetta"
     />
  <path
     d="m 229.606,305.0474 1.3714,-0.1055 1.1078,-0.2638 0.4747,-0.4747 0.5275,0.633 0.7913,0.844 1.3187,0.3165 0.6858,0.7912 -0.5275,0.7913 -0.633,0.3692 -1.3715,0.5803 -0.6858,0.4747 -1.266,0.5803 -0.8967,0.1055 -1.8462,0.053 c 0,0 0.1055,-0.844 0,-1.055 -0.1055,-0.211 -0.5275,-1.5297 -0.5275,-1.5297 l -0.3165,-0.6858 0.053,-0.633 0.4748,-0.1055 0.633,-0.633 z m 177.388,121.955 -0.026,-1.435 v -1.4606 l -0.1281,-2.5111 -0.3588,-0.8712 -0.2818,-1.4862 -0.4869,-2.2293 -0.6662,-1.6656 -0.6919,-0.8456 -1.8449,-0.7943 -1.5887,-0.7944 -0.8456,-1.6143 -0.8456,-1.7168 -1.3068,-0.5125 -0.9994,-1.025 -0.8199,-0.7175 -1.2812,-0.5893 0.2306,-0.4869 0.3843,0.3331 0.7175,0.2563 0.9225,0.1794 1.5118,-0.026 0.9225,-0.6918 -0.1538,-0.3331 -0.4099,-0.6919 -0.6663,-0.615 -0.5637,-0.5124 -0.205,-1.7937 -0.5637,-2.1525 -0.205,-0.4612 0.1025,-0.3844 1.4605,-0.7431 0.615,-0.3074 2.1012,-0.3075 0.077,-0.7944 -0.7688,-0.9224 -0.9224,-0.8969 -0.3075,-0.6662 0.2818,-0.9225 0.8713,-0.8968 0.7431,-1.5887 0.1793,-0.9994 -0.41,-0.3843 -0.1281,-0.41 0.1794,-1.2812 1.7168,-1.5887 0.7431,-1.5118 0.41,-1.23 v -1.435 l -0.7944,-0.2562 -0.4356,-0.4868 -0.3843,-0.1794 -0.3331,2.0755 -0.5125,0.1538 -0.9994,-0.2819 -1.0505,-0.9225 -2.5112,-0.4612 -0.2306,-0.4868 -0.6919,-0.4357 0.077,-1.4861 -0.4356,-1.8194 -1.64,-0.6918 -0.8712,-0.8712 -1.4606,-1.5631 -1.2043,-1.2812 -2.4599,0.1537 h -2.5368 l -2.4855,-0.5124 -0.9738,-0.8456 -0.7687,-0.7688 -1.6399,-0.6918 -0.8969,-0.5381 -0.615,-1.1275 -3.2542,-0.8968 -0.7175,-0.6919 -0.205,-0.41 0.205,-0.2818 0.8456,-0.9225 0.5125,-0.8456 0.5381,-0.5894 -1.1018,-0.6662 -0.3588,-0.5893 0.4612,-0.4613 1.5631,-0.3075 1.5631,-0.5381 c 0,0 0.41,-1.358 0.41,-1.4605 0,-0.1025 -0.4869,-0.8713 -0.4869,-0.8713 l -0.7175,-1.6655 -1.6655,-1.5375 -0.9481,-0.41 -1.3068,0.3588 -2.255,0.3075 -1.6912,-0.077 -0.8968,-1.7681 -0.7175,-0.7687 -0.4868,-1.0506 -0.7175,-0.2562 -0.3844,-0.2819 -0.5125,-0.7943 0.3844,-0.82 0.5125,-0.5125 -0.077,-1.3581 -1.5118,0.5125 -0.6918,-0.4612 -0.2307,0.4612 -0.5637,0.2563 -0.4869,0.2818 -0.2818,0.1794 -2.0756,0.1538 -0.9224,-0.3588 -1.64,-0.2819 -0.3331,0.4613 -1.1275,0.1537 -0.8968,-0.2818 -1.5631,-0.82 -1.8962,-0.4356 -1.2812,0.4356 -1.8705,0.5637 -0.3075,1.1275 -0.205,0.6406 -0.9737,0.3331 -0.615,-0.2562 -2.3574,-0.7944 -0.5125,-0.9993 -1.7937,-0.205 -2.4343,-0.1538 -1.5887,-0.2562 -0.8968,-0.7431 -0.7944,-0.7431 -0.7943,-1.64 -0.7944,-0.8199 -3.203,-0.5125 -3.0492,0.2562 -0.4613,-0.2562 0.615,-1.1531 -0.051,-2.383 0.3843,-0.3075 0.615,0.6662 0.4869,-0.3844 0.7687,-1.5374 0.6918,-1.5375 0.7944,-0.4356 0.4868,-0.7687 1.3581,-0.077 0.5894,-1.1019 0.2562,-0.3843 0.026,-1.1531 -0.205,-0.7944 -0.3331,-0.7174 0.1025,-0.9994 0.41,-0.4869 0.2819,-1.2812 -0.5894,-1.4862 -0.2306,-1.563 0.615,-0.5381 -0.3331,-0.7175 -0.2563,-1.0762 -0.1793,-1.9731 -0.4356,-1.2043 -1.2044,-1.2812 -1.0506,-1.0762 -1.6399,-0.8713 -0.3331,-0.743 0.2818,-0.7431 0.7944,-0.6407 0.8968,-1.0762 0.5381,-0.6662 0.5894,-0.3075 0.3844,0.3075 0.6149,0.3075 2.9212,0.1025 2.8443,-0.2306 0.5893,-0.7944 0.9994,-0.1793 1.6399,-0.9225 2.5112,-0.3075 1.3837,-0.3844 0.8199,-0.7687 0.3588,-0.615 -0.2819,-0.9737 -0.2562,-0.3843 0.077,-0.5381 0.4356,-0.9225 0.3331,-0.051 0.7944,0.615 1.6399,-0.3075 0.4356,-0.9993 0.2819,-2.2037 0.3331,-0.3843 1.7681,0.026 0.5125,0.5893 0.6662,0.5125 0.6662,0.2563 1.0506,-0.1538 0.41,-0.41 h 0.9481 l 0.9737,0.3588 0.82,0.4099 0.6662,-0.4099 0.5894,-1.23 -0.1538,-1.5887 -1.1018,-0.3844 -0.8712,-0.7943 -1.5119,-1.6399 -0.4099,-1.5887 0.4099,-0.7431 1.0506,-0.7175 0.3588,-2.3318 0.4099,-0.205 -0.051,-0.6919 -0.5125,-0.6406 -0.4356,-1.7936 -0.3331,-0.3844 -0.7687,-0.1794 -0.41,0.9994 -0.8712,0.077 -0.2819,-1.2299 -0.6918,-0.9738 -0.82,-0.7687 -1.2812,-0.3331 -0.8969,0.3844 -0.8199,0.8456 -1.6144,0.4868 -1.768,0.077 -0.4356,0.3843 -0.5381,0.41 -0.3588,0.5125 -0.8199,-0.205 -0.4613,-0.4612 -2.5624,-0.1281 -1.4629,-0.5245 -1.6237,-0.1834 -2.9144,-0.1319 -0.5802,-1.0814 -1.543,-0.4088 -2.5715,0.1055 -0.6989,0.3297 -0.721,0.6576 -1.1189,0.4476 0.5222,0.5968 0.075,1.4174 -0.2984,1.6412 -0.8206,1.7904 -0.746,0.6713 -0.746,0.8206 -3.357,0.8206 -2.3125,0.373 -4.849,0.2984 -2.5364,0.8206 -0.4476,1.119 -0.6713,0.5968 -0.373,0.746 -0.5968,0.8206 -1.492,0.6714 -1.2682,0.2984 -2.0142,-0.1492 -1.119,-0.5968 -0.6714,0.5968 c 0,0 -1.0444,0.075 -1.7904,0.075 -0.7459,0 -2.0887,-0.1492 -2.0887,-0.1492 l -1.492,-0.8206 -0.8206,-1.0444 -0.2984,-0.373 -0.1492,-1.2682 0.4476,-0.6713 0.373,-0.4476 h -1.492 l -1.3428,0.5221 -1.5666,0.5222 -1.6412,0.6714 -1.9395,0.5968 -0.5222,0.373 -0.8952,0.4476 -0.2984,0.373 -0.2238,-1.4174 -0.5968,-1.2681 -1.1936,-0.8206 h -1.492 l -0.6714,1.4173 -1.0444,0.5222 -0.746,1.0444 -0.8206,0.8206 -0.8951,0.2984 -0.2984,-0.746 -0.8206,-1.1936 -0.8206,-0.5968 -1.5666,-0.5222 -2.5364,0.1492 -1.7158,0.9698 -0.2984,0.8952 0.4476,0.5222 0.373,1.4174 0.075,2.3872 0.746,0.8952 1.0443,0.373 0.8952,1.0444 0.746,1.3428 -1.7158,0.1491 -0.7459,0.746 -0.5968,1.3428 -0.2984,1.5666 -0.373,2.9094 0.746,1.865 0.8205,1.4174 0.6714,0.5967 1.119,0.373 0.746,0.6714 0.075,1.5666 -0.373,1.492 -1.7158,0.4476 -1.6412,0.5968 -1.4174,0.746 -0.8952,0.8952 -1.3428,0.4476 -0.746,0.5222 -0.5968,1.1936 -0.4476,-0.5222 -0.4476,-1.119 -1.1189,-0.5968 -0.5968,-0.9698 -0.746,-0.373 -0.1492,-2.1634 0.5968,-1.9396 0.373,-0.5968 -0.2984,-0.8206 -0.9698,-0.373 -0.746,-0.5221 -1.6412,-0.9698 -0.5968,-0.4476 -0.5222,-0.6714 0.4476,-0.5222 0.5222,-1.119 1.4174,-0.1492 0.1492,-2.3872 -0.373,-1.9396 -0.746,-1.492 -0.4476,-0.7459 -1.492,-0.2984 -0.2453,-0.3391 0.2901,-0.3165 0.8704,-0.7121 1.7143,-0.7121 1.5562,-1.6089 1.6352,-1.6616 0.053,-0.5275 -0.079,-0.3165 -0.6594,-1.8199 -0.9759,-0.5011 -1.3978,-0.2637 -1.7935,0.079 -0.6858,1.7671 -0.9758,1.7408 -0.7385,0.633 -1.5825,0.9495 c 0,0 -0.7649,0.1846 -0.9495,0.1846 -0.1846,0 -1.7671,-0.1319 -1.7671,-0.1319 l -1.2133,-0.8703 -0.7385,-0.3693 -1.6879,0.3165 -0.7122,0.8176 -0.7121,2.321 -0.7649,1.6089 -0.6857,1.7935 -0.2901,0.5011 -0.422,1.1341 -0.4484,-0.2901 c 0,0 -0.5802,-1.2133 -0.5802,-1.3188 0,-0.1055 -0.4748,-0.6857 -0.4748,-0.6857 l -1.266,-0.3693 -0.8703,-0.7912 -1.3979,-0.7649 -1.5825,-0.7648 -0.6858,-1.055 -0.9758,-0.4748 -0.3429,-0.7121 0.2901,-0.9495 0.5012,-2.6375 0.1055,-2.5056 -0.5012,-1.3979 -1.688,-0.5802 -0.8176,-0.8704 -1.0022,-0.1318 -0.4748,-1.3979 -0.4483,-0.9759 -1.8199,-0.3165 -1.0286,0.4748 -1.266,0.2901 -1.5561,0.633 -1.9781,0.3165 -0.9759,-0.3429 -0.844,-0.5539 -0.5011,-0.3164 -0.7121,-0.8704 -0.9232,-0.7913 -0.6593,-0.2901 -1.688,0.2901 -2.3738,0.7913 -0.8967,0.844 -1.7407,0.4483 -1.8727,0.053 -0.6066,0.633 -0.3428,-0.1055 -0.3957,-0.4484 -0.1055,-0.8176 -0.8703,-0.4747 -0.3429,-0.844 -2.2419,-0.7913 -0.9231,-0.7649 -1.5825,-0.8967 -0.8176,-0.7385 -0.9231,-1.6089 -0.6792,-3.1815 -0.7833,-0.9325 -2.2006,-0.5968 -1.3591,0.1347 -0.4389,0.5542 -3.1172,0.8049 -2.4366,0.8205 -0.7956,0.8205 -2.4259,0.65 -0.8063,1.0158 -0.174,0.8453 0.4724,0.2735 -0.2238,0.2487 -0.9945,0.3232 -0.6962,0.6713 -0.7956,1.5663 -0.7956,1.6907 -0.3232,1.0443 -2.0388,0.3481 -0.6962,1.5166 -1.2517,0.7408 0.01,3.834 0.05,0.8453 -1.5912,0.05 0.05,-0.9448 -0.6464,0.5469 -0.8454,1.641 -0.895,0.2984 0.1989,0.8453 0.5967,0.4973 -0.5967,0.6464 -0.4973,1.3923 -0.547,0.6465 v 1.3426 l 0.8454,0.1491 0.2486,-0.3978 3.1825,-0.895 0.2486,-0.2984 h 0.7956 l 0.1,1.6907 -1.1935,0.9448 -0.1989,1.6409 -0.2486,4.1273 0.05,3.9781 -0.3481,1.3923 -0.6961,1.4918 -0.05,1.8399 -0.05,0.05 0.547,0.547 0.547,0.547 0.2984,-0.2487 0.4972,-0.6464 0.4973,-0.4476 1.0442,-0.4972 2.188,0.3978 2.2874,0.4475 1.5912,0.6962 0.8453,0.6464 1.641,0.8951 0.7956,0.6962 0.7459,1.5912 1.641,0.8453 1.6409,1.5913 1.094,0.547 0.2983,1.5415 1.094,1.2431 1.4421,1.2929 0.9448,1.0442 0.4475,1.6907 0.4475,0.547 0.4476,2.6355 0.9448,0.547 1.2431,0.2983 0.8453,-0.4972 1.5416,-0.2984 0.6464,-0.6464 0.547,-0.1492 0.4475,-0.6464 1.7901,-0.3979 2.9339,-0.4475 2.536,0.3481 2.4863,0.3978 2.3868,0.4475 1.9891,0.7459 1.6409,0.2984 1.1437,-0.2984 3.282,-0.547 2.3371,0.5967 0.895,0.2487 0.5968,0.8453 0.895,0.4973 1.641,1.4918 0.9448,0.5469 0.6464,1.1935 0.6465,1.5415 2.3868,0.547 0.5967,0.3978 1.2432,0.2983 0.6464,1.1437 0.5967,1.5913 1.094,0.8453 0.7459,1.5912 1.0442,0.1 0.4973,0.7459 1.2431,1.2928 0.7956,0.7459 0.9946,0.9448 0.7459,1.641 0.9945,0.7956 0.547,1.8399 0.5967,0.4972 0.5967,2.5858 4.9229,0.547 0.2486,0.4972 0.9448,0.3481 0.7459,0.7956 0.9945,0.5967 0.3978,1.641 1.094,0.6962 0.7956,1.3923 1.1437,0.1989 1.2929,0.3978 1.6906,0.1989 0.5968,-0.547 0.9447,0.7459 h 1.1437 l 0.2487,0.547 0.895,0.7459 1.5416,0.6961 0.4475,0.2984 0.7459,0.1989 0.1492,0.5967 1.1934,0.547 0.6961,0.6962 0.8454,0.8453 2.536,0.3978 0.3978,0.4973 0.547,0.1989 0.3481,1.0939 0.7956,0.8951 1.7404,0.7956 0.6464,1.641 0.4973,1.094 0.9945,0.3978 0.9945,0.7956 1.6907,0.8453 2.6355,0.4973 1.989,0.2983 1.3924,0.7459 0.2486,0.4973 0.5967,-0.05 0.2984,-0.2984 1.5415,-0.3978 1.989,-0.2984 0.4476,-0.4972 1.1934,-0.1492 1.0939,0.4973 1.7902,0.8453 1.4918,0.7956 0.7459,0.2984 0.7458,-0.2984 0.547,-1.0939 1.9393,-0.2487 0.4476,0.5967 1.1934,0.2487 0.3978,0.547 0.7459,0.1989 0.05,1.1934 1.2432,0.8453 1.2928,1.5913 3.4311,1.6906 2.3372,2.4366 1.5415,1.4918 1.4917,0.6464 1.7405,0.5967 0.348,0.3481 0.4973,0.3481 0.3481,0.6464 1.1934,0.3481 1.6907,1.7902 0.547,1.6906 0.7956,1.4918 0.6962,2.2874 2.5857,0.9448 1.4918,0.7459 0.9448,0.9945 0.6961,0.8454 1.3924,0.5967 1.5912,0.895 3.5803,0.2984 0.4972,0.6962 1.094,0.1989 0.4973,1.0939 0.7956,1.1935 0.895,1.2928 1.4918,0.5967 7.1606,0.4973 7.8378,0.1997 0.4219,0.3164 1.1252,0.4571 0.2109,0.5978 0.9142,0.3867 1.2307,0.3868 0.4219,1.2307 0.6329,0.7735 0.7384,1.0197 0.3165,0.7384 -0.1758,1.512 0.2461,0.5977 0.3516,-0.5626 h 0.7033 l 0.3516,0.5626 0.5626,0.211 1.6877,0.7735 1.4065,0.7033 2.391,0.8438 1.8284,0.4923 1.4768,-0.4219 1.5471,-0.422 2.391,0.3516 0.4219,0.2813 0.5626,-0.2813 1.5471,-1.1251 1.4065,-0.4923 2.6722,-0.7032 1.5472,-0.7736 1.4064,-0.4219 9.8655,0.1275 1.1185,-0.011 z m -186.2114,6.7421 0.6464,0.4972 1.7902,0.099 0.7459,-0.547 0.3978,0.2486 0.4475,1.1437 0.4475,1.1934 0.2487,0.9448 0.1989,0.547 -0.1989,0.6464 -0.1492,0.9946 -0.3978,-0.2487 -1.0443,-0.3978 -1.7901,0.2487 -0.6464,0.2983 -0.7957,-0.2983 -0.8453,-0.5968 -0.6464,-1.0939 -0.3979,-1.1437 -0.3978,-0.547 0.2487,-0.5967 0.7459,-0.2984 0.5967,-0.4475 0.547,-0.1492 z m -105.2111,83.3736 0.7032,0.2812 0.211,0.5626 -1.3361,0.07 -0.07,-0.5626 0.4923,-0.3516 z m 46.5539,4.7819 0.9142,0.7735 c 0,0 1.3362,0.07 1.6175,0 0.2813,-0.07 2.6723,0.07 2.6723,0.07 l 2.3909,0.2814 0.9846,0.2812 0.8439,-0.2109 0.7032,-0.2813 0.4219,-0.9142 0.4923,-0.2813 0.6329,0.4922 2.2503,0.422 1.8284,0.4219 0.4923,0.4923 0.7032,0.4219 -0.3516,0.2816 -0.8439,0.211 -0.4922,0.7032 0.2813,0.7736 0.3516,1.0548 0.7735,0.5626 0.211,0.9142 -0.1406,1.0549 h -1.1252 l -1.6174,0.07 -1.8988,0.07 -0.5626,-0.8439 -0.2813,-0.6329 -0.4922,-0.5626 -0.3516,0.2813 -0.211,1.1955 -0.4219,0.3516 -0.4923,-0.2813 -2.0394,-0.9845 -0.6329,-0.5626 -2.0394,-1.1252 -0.4922,-0.7032 -1.4768,-0.07 -0.5626,0.211 -0.4922,0.4922 -0.4923,-0.07 -0.211,-1.0548 h -0.9845 l -1.8987,-0.4923 -1.3362,-0.211 -0.5626,0.211 -0.4219,0.2813 h -0.5626 l -0.4922,-0.2813 -0.8439,-0.2813 -0.4923,-0.5626 0.211,-0.7032 0.8439,-0.7032 0.6329,-0.4923 1.3361,-0.3516 h 2.18 z"
     id="agrigento"
     name="Agrigento"
     />
  <path
     d="m 8.2541,509.1603 2.0885,0.8951 0.9945,1.2928 1.3923,0.3978 1.2929,0.4973 0.7956,0.4973 0.6962,-0.2984 0.895,-0.4973 0.4973,-0.6961 0.7956,-0.099 0.6962,1.2929 0.5967,1.6907 1.1934,0.1989 1.4918,1.4918 0.7956,0.5967 1.3923,0.7956 0.8951,0.5967 0.4973,1.2929 0.6961,1.4918 0.1,3.3813 -0.1989,3.8787 -1.094,2.1879 -1.094,0.4973 -0.6961,0.7956 -1.1935,0.895 -1.2928,0.9946 -1.7902,0.2983 -2.9835,-0.3978 -2.2874,-0.6962 -1.1935,-0.895 c 0,0 -1.0939,-0.099 -1.0939,-0.4973 0,-0.3978 -0.2984,-1.989 -0.2984,-1.989 l -0.7956,-0.8951 -0.3978,-0.6962 -0.3978,-0.895 -0.4973,-1.1934 -1.989,-0.2984 -0.4973,-1.5912 -0.7956,-1.5913 -1.094,-1.989 L 2.2874,519.3049 1.4918,518.012 0.4973,517.5148 0,515.6252 l 0.4973,-2.3869 1.094,-1.6907 0.2983,-0.9945 1.3924,-0.2983 0.2983,-1.3924 1.7902,-0.4972 2.4863,0.099 z m 9.1993,-280.8027 1.442,0.3978 -0.1989,0.9946 c 0,0 -0.895,0.7956 -0.7459,0.9945 0.1492,0.1989 0.6962,0.8453 0.6962,0.8453 l 0.1989,2.188 2.0885,1.6409 0.3481,1.094 0.6464,0.4475 0.3481,1.7404 1.094,0.2487 0.3978,0.6961 0.7459,0.2984 -0.1492,0.3481 -1.4421,0.05 -0.6464,0.3978 -0.9448,-0.3481 -1.8896,-1.0442 -2.8344,-0.6962 -0.7956,-0.6464 -0.8453,-0.6962 -0.8454,-2.6355 -0.4972,-1.5912 -0.8454,-2.3371 -1.1437,-0.2984 -0.1989,-1.0939 3.083,-0.05 2.2377,-0.1989 z m 47.7564,8.6905 0.7384,2.2855 0.3516,1.0548 0.7736,0.5626 0.4219,0.7384 0.422,0.9142 0.2813,0.211 0.9493,-0.8791 1.6526,-0.7735 0.5626,-0.4571 1.0548,0.3516 1.0197,0.5978 0.1055,1.2658 0.8791,0.6329 1.6526,0.07 0.9845,0.211 0.8087,1.2306 -0.8087,1.6175 -0.3516,0.879 -1.723,0.3868 -1.8635,-0.4571 -1.5471,-1.6526 -0.2813,-0.4923 -0.4571,-0.5977 -2.2855,-0.3868 -1.7581,0.1758 -1.6526,0.5274 -0.1758,0.9142 -1.4768,0.6329 -0.7735,-0.07 -0.5275,0.1055 -0.4571,0.5274 -0.2109,-0.4923 -0.3517,-0.9845 -1.0548,-0.1055 -0.4219,-1.1955 -0.3517,-0.6329 c 0,0 0,-1.8284 -0.07,-1.969 -0.07,-0.1407 -0.1406,-2.3558 -0.1406,-2.3558 l 0.5274,-0.4923 h 1.4416 l 0.07,0.4219 0.5626,0.3868 0.3165,-0.3516 0.4571,-0.8439 1.1252,-0.5626 0.3867,-0.6329 0.422,-0.4219 0.2813,-0.2461 z m 4.5553,-16.5223 0.1989,1.4918 0.5967,1.5415 0.92,1.6409 1.3177,0.4973 0.4227,0.4475 -0.1,1.4172 -1.7404,0.8702 -2.3371,0.075 -0.5221,-0.373 -0.5719,-0.721 -0.7459,-0.3978 -0.05,-2.6604 0.3729,-0.895 0.547,-0.7956 0.4476,-1.2432 0.2237,-0.6713 1.0194,-0.2238 z m 14.6567,6.2903 h 1.3302 l -0.037,0.9945 c 0,0 -0.5097,0.6713 -0.6091,0.6465 -0.1,-0.025 -0.4351,-0.9945 -0.4351,-0.9945 l -0.2487,-0.6465 z m 2.4988,0 0.9821,0.05 c 0,0 0.4475,0.3107 0.3605,0.348 -0.087,0.037 -1.2183,0.6838 -1.2183,0.6838 l -0.5719,-0.025 0.4476,-1.0566 z m 5.072,22.3021 -0.9945,0.6216 -1.4669,0.3481 -0.7459,0.4972 -0.1492,1.3924 0.9448,0.3729 0.5719,1.1437 0.4724,0.7708 0.2983,1.0194 0.1741,1.5663 v 1.7404 l 0.2237,0.7708 0.2238,1.1188 0.3978,0.8951 0.3729,0.4724 0.4724,0.2486 0.3233,-0.3978 0.2983,-1.0194 0.1243,-1.268 c 0,0 -0.4475,-0.6713 -0.4972,-0.8205 -0.05,-0.1491 -0.2984,-0.6713 -0.3481,-0.7707 -0.05,-0.099 -0.075,-1.4172 -0.075,-1.4172 l 0.2735,-0.547 0.2984,-0.547 -0.1,-1.4918 -0.7707,-1.6161 -0.2735,-0.4226 -0.025,-0.9697 0.6215,-0.4227 v -0.348 l -0.6464,-0.92 z m 3.6549,6.539 1.7653,-0.2486 0.4226,1.2928 -0.174,0.7459 c 0,0 -1.5415,0.373 -1.641,0.373 -0.099,0 -0.2486,-0.5719 -0.2486,-0.7708 0,-0.1989 -0.1243,-1.3923 -0.1243,-1.3923 z m -1.3923,-3.9035 -0.05,0.8702 0.6713,0.4724 0.8951,0.2486 0.2238,0.8702 -0.3481,0.2735 -0.2984,-0.5967 -0.5967,-0.3729 -0.5718,-0.4476 -0.1741,-0.6713 z m 87.8907,72.1276 0.05,-1.8399 0.6961,-1.4918 0.3481,-1.3923 -0.05,-3.9781 0.2486,-4.1273 0.1989,-1.6409 1.1935,-0.9448 -0.1,-1.6907 h -0.7956 l -0.2486,0.2984 -3.1825,0.895 -0.2486,0.3978 -0.8454,-0.1491 v -1.3426 l 0.547,-0.6465 0.4973,-1.3923 0.5967,-0.6464 -0.5967,-0.4973 -0.1989,-0.8453 0.895,-0.2984 0.8454,-1.641 0.6464,-0.5469 -0.05,0.9448 1.5912,-0.05 -0.05,-0.8453 -0.01,-3.834 1.2517,-0.7408 0.6962,-1.5166 2.0388,-0.3481 0.3232,-1.0443 0.7956,-1.6907 0.7956,-1.5663 0.6962,-0.6713 0.9945,-0.3232 0.2238,-0.2487 -0.4724,-0.2735 0.174,-0.8453 0.8063,-1.0158 2.4259,-0.65 0.7956,-0.8205 2.4366,-0.8205 3.1172,-0.8049 0.4304,-0.5626 0.3559,-1.0193 0.6961,-1.1872 1.6783,-0.4165 0.3854,-0.2859 0.4972,0.5967 1.1935,-0.3978 1.8895,-0.8951 2.0885,-0.2983 1.8896,-1.094 1.8896,-0.7956 0.7956,-0.5967 2.188,-0.6962 h 1.1934 V 273.26 l -1.5912,-0.2984 -1.094,-0.4972 -1.094,-0.3978 -1.1934,-0.9945 0.6962,-2.188 0.9945,-0.8951 0.6961,-0.895 h 0.5968 l 0.5967,-0.8951 0.6961,-0.1989 -0.1989,-1.4918 -0.3978,-0.6961 h -0.7956 l -0.2984,0.895 0.1,0.4973 -1.1934,-0.1989 -0.4973,-0.6962 -0.4972,-0.7956 -0.7957,0.4973 -1.3923,0.7956 -1.7901,1.1934 h -0.4973 l -0.6962,-0.5967 -0.3978,-0.7956 c 0,0 -3.8786,-0.4973 -4.4753,-0.4973 -0.5967,0 -6.7627,-0.099 -6.7627,-0.099 l -1.2929,-0.5967 -2.6852,-0.6962 -0.5967,-1.3923 -2.188,-0.5968 -1.5912,-0.7956 -1.1934,-0.3978 -0.3978,-0.3978 0.099,-1.2929 1.1484,-0.8604 0.4923,-1.1603 0.5274,-0.1407 0.5274,-1.1251 0.422,-0.3868 v -0.5978 l 0.1406,-0.7735 -0.7735,0.4219 -0.8439,-0.7032 -0.2813,-1.8284 -0.211,-0.4571 -0.1406,-1.5823 -0.3165,0.3516 -0.7735,0.3165 -1.723,-0.2462 c 0,0 -0.4571,-0.3516 -0.4571,-0.5274 0,-0.1758 0.2462,-1.09 0.2462,-1.09 l 0.8087,-3.1294 0.3868,-0.4922 0.5274,0.3516 1.4768,0.8439 c 0,0 2.9536,0.3164 3.1294,0.3164 0.1758,0 2.4964,-0.4922 2.4964,-0.4922 l 1.7581,-0.3868 0.6329,0.7384 0.2462,0.3164 0.5274,-0.3164 0.2813,-0.7033 -0.5978,-0.5625 -0.1406,-1.0901 0.1758,-0.668 h 0.9493 l 0.211,0.4922 1.512,0.7384 1.6174,0.8791 0.3516,0.1758 0.4571,-0.2813 0.7736,-0.8087 1.09,-0.3516 0.5274,-1.1955 0.6681,-0.7384 0.7735,-0.8088 0.9494,-0.2109 0.5626,-0.3165 -1.3713,-0.2461 -0.3165,-2.3558 0.2813,-0.8439 0.3516,-1.1603 -0.3164,-2.0394 c 0,0 -0.211,-0.7736 -0.211,-0.9142 0,-0.1407 0.1055,-0.9845 0.1055,-0.9845 l 0.4571,-0.2462 0.7384,-0.3516 1.0197,-0.1758 -0.4923,-0.3516 -0.4923,-0.07 -0.3516,-0.4923 -0.7735,-0.3868 -0.7384,-0.8087 -1.6526,-0.6681 -1.5823,-1.7229 -0.7032,-0.7032 -0.9142,-1.5471 -2.2152,-0.9845 -0.5626,-1.1604 0.422,-1.8635 0.7383,-0.2462 -0.07,-0.4219 -1.5823,-0.3516 -0.6329,-1.4417 -2.2503,-0.7032 -0.5978,-2.0394 -0.3867,-2.7426 -0.7736,-0.879 -1.5823,0.7296 -1.6438,0.7999 -2.3734,0.8351 -2.3118,0.8351 -2.602,0.7736 -3.6216,0.4219 -3.3052,-0.4923 -1.7229,-0.7032 -0.8791,-1.2306 -0.7032,-2.0394 -0.4923,-1.4416 -0.9142,-0.3868 -0.3516,0.5977 -0.3516,-0.1406 -0.4219,-0.2461 -1.6175,-0.6681 -2.18,-0.8439 -1.7229,-1.6878 -1.3362,-1.4416 -1.0196,-0.9493 -0.8439,-1.1955 -0.7033,-0.2813 -0.668,-1.5471 -0.8439,-1.7581 -0.8439,-0.7032 -0.7032,-1.4417 -0.8791,-0.9493 c 0,0 -0.2812,-2.5317 -0.2812,-2.7075 0,-0.1758 -0.5275,-3.8326 -0.5275,-3.8326 l -0.668,-1.4768 -0.9142,-1.5823 -1.8636,-0.5274 -0.4571,-0.9493 -0.3165,-0.8439 0.2813,-1.6174 c 0,0 0.422,-0.8439 0.422,-1.0549 0,-0.211 -0.211,-1.5823 -0.211,-1.5823 l -0.5977,-0.4922 -1.3713,-0.4571 -0.8088,0.4922 -1.5119,0.7033 -1.2658,0.4219 -1.3713,-0.035 -0.6329,-0.879 -0.035,-0.4923 0.4571,-0.4571 0.2461,-1.1955 -0.3867,-0.3867 -1.4417,0.2461 -0.1758,0.5977 -0.2813,0.2813 -0.3164,0.8791 -0.2461,0.3164 -0.5275,1.4417 0.4571,1.6525 0.9494,1.0549 0.7735,1.5119 0.7736,1.512 0.7736,1.4768 0.3516,1.1251 -0.3868,1.301 -0.879,0.8087 -0.7384,2.4262 -1.0549,0.8087 -0.5274,0.7736 -0.3516,0.9142 -0.7033,0.2813 -0.2461,0.5625 -1.1252,0.7033 -1.4767,0.2813 -1.6526,-0.3868 -1.0549,-0.5626 -0.211,-1.5119 h -2.1097 l -0.5977,0.6329 -1.0548,0.2813 -0.5978,1.2306 -0.3165,0.3165 0.3165,0.4219 0.4571,0.8087 0.7384,0.5626 -0.3516,1.7229 -1.5471,0.8791 -0.9142,0.3164 -0.8087,2.0745 -0.7384,0.7736 -1.09,0.5274 -0.633,0.6329 -1.5471,0.4571 -1.6526,0.3165 -0.4219,0.6329 -2.8129,0.211 -2.18,-0.422 -0.633,-0.3164 -0.4219,-0.9494 -0.3516,0.7736 -2.6371,0.4922 -0.6681,2.391 -0.6329,1.09 -1.0197,0.4923 -0.8087,1.5471 -0.8087,0.8791 -0.7736,1.5471 -1.4416,0.7735 -0.9142,1.6174 -1.5823,1.6175 -1.3713,0.2109 h -3.0239 l -0.2461,0.8791 -0.8087,0.8439 0.4922,0.3164 0.6329,-0.2461 0.6681,-0.5978 2.1449,-0.3867 1.3713,0.1406 1.1603,0.3516 v 0.7384 l -1.0548,0.9494 -1.1252,0.4219 -0.4219,2.7075 -0.8088,0.8438 -0.879,0.6329 -0.211,0.7736 -0.2461,1.512 0.4571,1.3361 0.4923,1.09 -0.3517,2.6371 -0.7735,1.6175 -0.8087,2.2151 -0.8439,1.7229 -1.512,1.5823 -1.0196,1.5823 -0.5978,2.391 -1.301,0.7384 -0.4571,0.9493 -0.5626,0.5626 -0.6329,0.3165 0.3517,0.668 0.5274,0.3868 0.5977,-1.4064 0.3868,0.07 0.9494,1.6878 0.8087,1.4767 0.7384,0.9142 1.6526,0.7736 0.7384,0.6681 0.3516,1.6174 -0.2813,0.9142 -0.6681,1.4768 -0.7735,3.27 -0.8791,1.5823 -0.5977,1.9339 -0.1055,2.9184 -0.8087,2.2855 -4.0788,0.9142 -1.5471,0.879 -0.9493,0.6681 -0.1758,0.5274 0.3164,1.09 0.7384,0.7736 1.3713,0.6329 1.8987,1.0197 0.8087,1.4768 0.5626,1.4768 0.9494,2.3909 0.9142,1.8284 0.7735,0.6681 0.633,1.6174 0.3867,3.1646 -0.1055,2.9887 0.633,1.7229 0.2812,1.301 -0.1758,0.5626 -0.7032,0.7736 0.2813,0.3164 1.0197,0.3165 1.4768,1.5119 0.2461,1.1955 1.3713,0.3868 0.879,0.9142 0.8439,1.6174 1.4065,0.7033 1.1603,0.9142 0.5978,0.6329 0.4219,0.8438 0.5626,0.4571 1.4416,0.4571 1.4065,0.3517 0.9493,-0.422 1.4065,-0.4571 0.7384,-0.7735 1.301,0.1406 0.668,0.3516 2.2152,0.7384 1.7581,0.8439 2.1449,0.7736 0.9493,0.8087 1.3713,1.6526 1.7933,0.7384 0.7032,3.8326 0.9494,1.6877 0.7384,0.9494 0.7383,1.3361 1.5823,1.5823 0.9845,1.969 0.8439,0.5978 0.422,0.9845 0.4571,1.6878 1.3713,0.3868 1.3009,1.5822 1.7933,1.6175 c 0,0 0.3868,0.4571 0.5274,0.4571 0.1407,0 1.09,-0.422 1.09,-0.422 l 1.5823,-0.7735 2.4261,-0.4923 2.4965,-0.3516 1.4416,-0.6681 2.3207,-0.879 1.8987,-1.0549 3.0239,-0.5977 2.2855,-0.8087 6.5049,-0.3516 2.9888,-0.3868 5.7664,-0.4923 4.6062,0.4571 3.0942,0.3516 1.7116,0.5467 z"
     id="trapani"
     name="Trapani"
     />
  <path
     d="m 238.6843,167.1201 1.0194,0.05 0.3729,0.6216 -0.174,0.2486 -0.9945,-0.2486 z m -46.1544,43.7326 0.7736,0.879 0.3867,2.7426 0.5978,2.0394 2.2503,0.7032 0.6329,1.4417 1.5823,0.3516 0.07,0.4219 -0.7383,0.2462 -0.422,1.8635 0.5626,1.1604 2.2152,0.9845 0.9142,1.5471 0.7032,0.7032 1.5823,1.7229 1.6526,0.6681 0.7384,0.8087 0.7735,0.3868 0.3516,0.4923 0.4923,0.07 0.4923,0.3516 -1.0197,0.1758 -0.7384,0.3516 -0.4571,0.2462 c 0,0 -0.1055,0.8438 -0.1055,0.9845 0,0.1406 0.211,0.9142 0.211,0.9142 l 0.3164,2.0394 -0.3516,1.1603 -0.2813,0.8439 0.3165,2.3558 1.3713,0.2461 -0.5626,0.3165 -0.9494,0.2109 -0.7735,0.8088 -0.6681,0.7384 -0.5274,1.1955 -1.09,0.3516 -0.7736,0.8087 -0.4571,0.2813 -0.3516,-0.1758 -1.6174,-0.8791 -1.512,-0.7384 -0.211,-0.4922 H 196.96 l -0.1758,0.668 0.1406,1.0901 0.5978,0.5625 -0.2813,0.7033 -0.5274,0.3164 -0.2462,-0.3164 -0.6329,-0.7384 -1.7581,0.3868 c 0,0 -2.3206,0.4922 -2.4964,0.4922 -0.1758,0 -3.1294,-0.3164 -3.1294,-0.3164 l -1.4768,-0.8439 -0.5274,-0.3516 -0.3868,0.4922 -0.8087,3.1294 c 0,0 -0.2462,0.9142 -0.2462,1.09 0,0.1758 0.4571,0.5274 0.4571,0.5274 l 1.723,0.2462 0.7735,-0.3165 0.3165,-0.3516 0.1406,1.5823 0.211,0.4571 0.2813,1.8284 0.8439,0.7032 0.7735,-0.4219 -0.1406,0.7735 v 0.5978 l -0.422,0.3868 -0.5274,1.1251 -0.5274,0.1407 -0.4923,1.1603 -1.1484,0.8604 -0.099,1.2929 0.3978,0.3978 1.1934,0.3978 1.5912,0.7956 2.188,0.5968 0.5967,1.3923 2.6852,0.6962 1.2929,0.5967 c 0,0 6.166,0.099 6.7627,0.099 0.5967,0 4.4753,0.4973 4.4753,0.4973 l 0.3978,0.7956 0.6962,0.5967 h 0.4973 l 1.7901,-1.1934 1.3923,-0.7956 0.7957,-0.4973 0.4972,0.7956 0.4973,0.6962 1.1934,0.1989 -0.1,-0.4973 0.2984,-0.895 h 0.7956 l 0.3978,0.6961 0.1989,1.4918 -0.6961,0.1989 -0.5967,0.8951 h -0.5968 l -0.6961,0.895 -0.9945,0.8951 -0.6962,2.188 1.1934,0.9945 1.094,0.3978 1.094,0.4972 1.5912,0.2984 v 2.2874 h -1.1934 l -2.188,0.6962 -0.7956,0.5967 -1.8896,0.7956 -1.8896,1.094 -2.0885,0.2983 -1.8895,0.8951 -1.1935,0.3978 -0.4972,-0.5967 -0.3854,0.2859 -1.6783,0.4165 -0.6961,1.1872 -0.3396,0.9966 1.3513,-0.1036 2.2006,0.5968 0.7833,0.9325 0.6792,3.1815 0.9231,1.6089 0.8176,0.7385 1.5825,0.8967 0.9231,0.7649 2.2419,0.7913 0.3429,0.844 0.8703,0.4747 0.1055,0.8176 0.3957,0.4484 0.3428,0.1055 0.6066,-0.633 1.8727,-0.053 1.7407,-0.4483 0.8967,-0.844 2.3738,-0.7913 1.688,-0.2901 0.6593,0.2901 0.9232,0.7913 0.7121,0.8704 0.5011,0.3164 0.844,0.5539 0.9759,0.3429 1.9781,-0.3165 1.5561,-0.633 1.266,-0.2901 1.0286,-0.4748 1.8199,0.3165 0.4483,0.9759 0.4748,1.3979 1.0022,0.1318 0.8176,0.8704 1.688,0.5802 0.5012,1.3979 -0.1055,2.5056 -0.5012,2.6375 -0.2901,0.9495 0.3429,0.7121 0.9758,0.4748 0.6858,1.055 1.5825,0.7648 1.3979,0.7649 0.8703,0.7912 1.266,0.3693 c 0,0 0.4748,0.5802 0.4748,0.6857 0,0.1055 0.5802,1.3188 0.5802,1.3188 l 0.4484,0.2901 0.422,-1.1341 0.2901,-0.5011 0.6857,-1.7935 0.7649,-1.6089 0.7121,-2.321 0.7122,-0.8176 1.6879,-0.3165 0.7385,0.3693 1.2133,0.8703 c 0,0 1.5825,0.1319 1.7671,0.1319 0.1846,0 0.9495,-0.1846 0.9495,-0.1846 l 1.5825,-0.9495 0.7385,-0.633 0.9758,-1.7408 0.6858,-1.7671 1.7935,-0.079 1.3978,0.2637 0.9759,0.5011 0.6594,1.8199 0.079,0.3165 -0.053,0.5275 -1.6352,1.6616 -1.5562,1.6089 -1.7143,0.7121 -0.8704,0.7121 -0.2901,0.3165 0.2453,0.3391 1.492,0.2984 0.4476,0.7459 0.746,1.492 0.373,1.9396 -0.1492,2.3872 -1.4174,0.1492 -0.5222,1.119 -0.4476,0.5222 0.5222,0.6714 0.5968,0.4476 1.6412,0.9698 0.746,0.5221 0.9698,0.373 0.2984,0.8206 -0.373,0.5968 -0.5968,1.9396 0.1492,2.1634 0.746,0.373 0.5968,0.9698 1.1189,0.5968 0.4476,1.119 0.4476,0.5222 0.5968,-1.1936 0.746,-0.5222 1.3428,-0.4476 0.8952,-0.8952 1.4174,-0.746 1.6412,-0.5968 1.7158,-0.4476 0.373,-1.492 -0.075,-1.5666 -0.746,-0.6714 -1.119,-0.373 -0.6714,-0.5967 -0.8205,-1.4174 -0.746,-1.865 0.373,-2.9094 0.2984,-1.5666 0.5968,-1.3428 0.7459,-0.746 1.7158,-0.1491 -0.746,-1.3428 -0.8952,-1.0444 -1.0443,-0.373 -0.746,-0.8952 -0.075,-2.3872 -0.373,-1.4174 -0.4476,-0.5222 0.2984,-0.8952 1.7158,-0.9698 2.5364,-0.1492 1.5666,0.5222 0.8206,0.5968 0.8206,1.1936 0.2984,0.746 0.8951,-0.2984 0.8206,-0.8206 0.746,-1.0444 1.0444,-0.5222 0.6714,-1.4173 h 1.492 l 1.1936,0.8206 0.5968,1.2681 0.2238,1.4174 0.2984,-0.373 0.8952,-0.4476 0.5222,-0.373 1.9395,-0.5968 1.6412,-0.6714 1.5666,-0.5222 1.3428,-0.5221 h 1.492 l -0.373,0.4476 -0.4476,0.6713 0.1492,1.2682 0.2984,0.373 0.8206,1.0444 1.492,0.8206 c 0,0 1.3428,0.1492 2.0887,0.1492 0.746,0 1.7904,-0.075 1.7904,-0.075 l 0.6714,-0.5968 1.119,0.5968 2.0142,0.1492 1.2682,-0.2984 1.492,-0.6714 0.5968,-0.8206 0.373,-0.746 0.6713,-0.5968 0.4476,-1.119 2.5364,-0.8206 4.849,-0.2984 2.3125,-0.373 3.357,-0.8206 0.746,-0.8206 0.746,-0.6713 0.8206,-1.7904 0.2984,-1.6412 -0.075,-1.4174 -0.5222,-0.5968 1.1189,-0.4476 0.721,-0.6576 0.6989,-0.3297 2.5715,-0.1055 1.543,0.4088 0.5802,1.0814 2.9144,0.1319 1.6161,0.1392 0.8529,-0.9898 0.8697,-0.6523 0.3624,-0.5798 0.4348,-0.8697 -0.5073,-0.8697 -0.4349,-0.8697 0.2175,-0.8698 0.7247,0.145 1.3771,0.5798 1.1596,0.072 1.0871,0.7247 2.1743,-0.2174 0.4348,-0.8697 -0.3623,-0.9422 -0.4349,-1.522 0.145,-1.522 0.5073,-0.3624 0.3624,-0.8697 0.9422,-0.3623 0.6522,-0.8698 0.8698,-1.5944 0.5798,-0.7973 1.2321,-1.0146 0.3623,-0.073 0.7248,1.3046 0.4348,0.9421 0.6523,1.1597 0.3624,1.4495 0.145,1.9568 -0.2175,1.522 -0.4348,0.3624 v 0.8697 l 0.073,0.3624 2.0293,0.9422 1.2321,0.5798 1.9568,0.5073 1.3771,0.145 1.6669,0.5798 h 1.667 l 0.7247,0.9422 0.7248,0.1449 1.522,0.6523 0.6523,1.667 0.5073,1.232 0.6523,0.3624 v 1.0872 l 0.5798,0.7247 1.1596,0.2899 1.1596,0.072 0.6523,0.5798 -0.145,1.2321 -0.5073,0.8697 -0.2174,0.4349 v 1.2321 l 0.4348,0.7247 0.4349,1.0872 0.2899,0.9421 0.4349,0.3624 -0.9422,0.5074 h -0.9422 l -0.145,1.0146 0.7973,1.0147 1.7394,0.7247 1.3046,0.7973 1.2321,0.2174 1.5219,0.072 0.073,0.5073 -0.5073,0.4349 -0.145,0.6523 v 0.8697 l 0.5074,0.5073 1.8119,0.4349 h 1.377 l 0.7248,0.5798 0.7247,0.2899 0.7248,0.9422 0.4348,0.2899 1.522,-0.7248 0.6523,-0.7972 1.9569,-0.4349 1.8119,-0.8697 1.4495,-0.5798 1.2321,-0.2899 1.3046,0.1449 0.7247,0.3624 0.7972,-0.5798 1.0872,-0.5798 0.7247,-0.5073 -0.072,-0.8697 -0.7973,-1.7395 -0.5798,-1.8119 0.073,-1.9568 0.8697,-0.8697 0.9422,-0.8697 0.7248,-0.7248 0.1449,-0.8697 1.8119,-0.7248 0.8697,-1.1596 h 2.0294 l 1.1596,0.2899 2.3917,0.7248 v 0.9422 l 0.5798,0.7247 1.377,0.5074 1.7394,0.2174 0.5798,0.5073 0.3624,0.6523 1.3046,-0.2174 0.4348,-0.5074 1.667,0.3624 0.2446,1.1325 0.2627,1.3136 0.3262,0.2084 0.063,0.7066 0.5798,0.2174 0.7882,-0.072 0.3352,-0.6522 0.7791,0.01 0.9586,0.1874 0.3209,-1.0784 0.1692,-0.3869 0.3627,-0.5803 0.8946,-0.9671 0.8221,-0.7496 0.7737,-1.499 0.4594,-1.7893 0.1693,-1.4023 -0.1209,-1.3299 -0.5561,-1.1605 -0.9914,-0.7254 -0.048,-0.7979 0.2901,-0.7737 0.9188,-0.9188 1.4507,-0.7254 0.4111,-0.411 0.411,0.266 0.677,0.7979 0.5803,0.7495 0.3385,-0.4352 0.3385,-0.3869 0.6286,-0.2418 0.1209,-0.3868 1.1848,-0.677 1.1122,-0.3143 1.9827,-0.2418 1.0396,-0.3627 0.677,-0.7979 1.1123,-0.8946 0.5561,-0.5803 0.5803,-0.4352 0.6286,-0.5078 0.3627,-0.677 0.9671,-0.411 0.5561,0.266 0.4594,0.3385 0.5078,-0.2418 0.4836,-0.3869 1.0155,-0.4352 0.145,-0.3869 0.7254,-1.2089 0.1451,-0.8221 0.1692,-1.2089 0.2902,-1.0639 0.9187,-1.6683 0.4111,-0.3868 0.8462,-0.5803 0.2418,-0.677 0.8946,-1.5475 0.677,-1.3782 0.4594,-1.2089 -0.3143,-0.5319 -1.088,-1.0397 -0.073,-1.6442 0.3627,-0.5561 0.1451,-0.4835 -0.097,-0.266 -1.7166,-0.8221 -2.297,-0.7495 -0.1209,-1.4266 -0.266,-1.1605 -0.073,-1.4024 -0.7496,-0.5077 -0.7737,-0.4836 0.024,-1.0155 0.097,-0.4111 1.354,-0.3626 -0.048,-0.3385 -0.5561,-0.6045 0.7012,-0.7979 -0.1451,-0.8946 -0.6044,-0.5319 -0.1209,-0.6529 -0.4594,-0.4352 -0.2176,-0.6528 -0.073,-1.3782 0.1935,-1.62 0.9913,-0.3626 0.8704,-0.1451 0.8463,-0.8221 0.2612,-0.2799 -0.2843,-0.5037 -0.9822,-0.912 -0.2806,-1.7539 v -1.6837 l -0.4911,-1.824 -0.7717,-0.6314 -0.4911,-1.333 0.07,-0.2806 0.6314,-0.4911 0.5612,-2.6659 0.421,-1.1225 0.1403,-0.6314 -0.5613,-0.491 -0.2806,-1.0524 v -0.5612 l 0.3508,-0.2105 0.5612,-0.3507 1.2628,-0.3508 0.2806,-0.4911 0.4911,-0.8419 0.1403,-0.7717 -0.9821,-0.2104 -1.333,-0.07 -1.4031,-0.07 -0.4911,0.4911 -1.5434,0.4911 -1.1926,-0.2105 -0.1403,-0.9822 v -1.2627 -1.1225 l -0.07,-0.7016 -0.8419,-0.6314 -0.9821,-0.3507 -0.2807,-0.8419 -0.3507,-0.9822 -1.1225,-0.07 -1.6136,-0.6314 -0.2806,-0.5612 0.3508,-0.5612 0.5612,-0.9121 -0.2806,-0.491 -0.3508,-1.1225 -0.5612,-0.3508 -0.912,-0.912 -0.7717,-0.3508 -0.9121,-0.2105 -0.1403,-0.491 -0.7015,-0.9822 -0.421,-0.9822 -0.7015,-1.1225 -0.07,-1.1224 -1.1225,-0.7016 -0.6313,-0.8419 -0.9121,-1.0523 -0.2806,-0.7015 -0.8418,-0.9822 -0.4911,-1.4031 -0.2688,-0.6245 -0.9324,-0.373 -0.3729,0.4973 -2.362,-0.2113 -1.7374,-0.8403 -1.2307,-0.3517 -0.9142,0.633 -0.9494,0.668 -1.0197,0.8087 -2.9887,0.6681 -1.7932,0.3868 -1.301,-0.3868 -2.1449,-0.4219 -2.6019,0.1055 -0.4923,0.5625 -1.5471,0.1758 -0.4219,-0.3867 -0.8087,-0.7736 -1.6878,-0.7735 -1.9339,-0.3868 -0.4219,-1.3713 -1.1252,-0.3516 -0.07,-1.4417 -2.0042,-0.1758 -0.4571,0.7736 -0.5626,0.2461 -0.422,0.7384 -0.7384,0.2813 -1.5822,0.5274 -0.9494,0.3516 -1.3713,0.422 h -1.4416 l -0.8439,0.6681 -0.3868,-0.422 -3.7271,0.1055 -2.6371,0.879 -1.3713,0.9142 -1.6175,1.4768 -1.5471,1.5471 -1.758,0.8439 -1.7581,0.8087 -3.1294,1.5471 c 0,0 -1.301,0.8439 -1.4416,0.8439 -0.1407,0 -1.6175,0.6681 -1.6175,0.6681 l -1.6174,0.9142 -0.7032,0.7032 -1.6175,0.7736 -2.3558,0.879 -3.3052,0.8439 -1.5471,0.3516 -0.3164,0.4571 -3.6217,0.6681 -3.2348,0.8087 c 0,0 -2.1449,0.2813 -2.2855,0.2813 -0.1407,0 -3.3404,-0.2461 -3.3404,-0.2461 l -3.0239,-0.4571 c 0,0 -2.391,0 -2.5316,-0.07 -0.1407,-0.07 -0.4571,-0.4219 -0.6329,-0.4571 -0.1758,-0.035 -0.5978,-0.1406 -0.5626,-0.3164 0.035,-0.1758 0.2461,-1.5823 0.2461,-1.5823 l 0.1758,-0.3868 h 1.7933 l 0.668,0.1758 0.3868,0.3868 0.3516,-0.3164 -0.6681,-0.2813 -0.4571,-0.5275 c 0,0 -0.879,0 -1.0196,-0.035 -0.1407,-0.035 -0.5978,-0.5275 -0.5978,-0.5275 h -0.5977 l -0.6329,0.4923 -3.1294,-0.035 -5.5556,-0.8438 -2.3558,-0.8088 -0.7735,-0.8438 -0.5626,-1.0197 -3.481,-0.4923 -0.7032,-0.3516 -0.9846,-1.2658 -1.6526,-0.7384 -0.8087,-0.8439 -1.5471,-0.879 -3.0239,-1.512 -2.4965,-0.9142 -0.8087,-0.7735 -1.5822,-0.7033 -0.5978,-1.5471 -1.1252,-0.3867 -0.3516,-0.7033 -0.6329,-0.2461 -0.2461,-1.301 -0.5274,-0.3868 -0.1055,-1.2658 0.6329,-0.5274 0.2813,-1.512 -0.035,-3.6568 -0.4219,-0.7384 -0.7384,-1.2658 -0.3868,-0.5274 0.4923,-0.5274 0.3164,-0.5626 -0.3516,-0.3868 -1.969,-0.1406 -0.633,-0.3516 -2.3558,-0.4923 -0.8439,0.1758 -0.6329,1.8636 -1.6174,0.9493 -1.6526,0.8439 -2.4965,0.8087 -2.1097,0.8439 -1.2306,0.3165 h -4.1139 l -2.0042,-0.5275 -2.5668,-0.3164 -2.2152,-0.4923 -1.4416,-0.5626 -1.0197,-0.5274 c 0,0 0.035,-0.6329 -0.1758,-0.6329 -0.211,0 -1.0197,-0.4219 -1.0197,-0.4219 l -0.2461,-1.0197 -0.8088,-0.5275 -0.8438,-0.9493 -0.9846,-0.6681 -0.4922,-0.8439 -0.5626,-0.4571 0.3164,-0.7735 1.1604,-0.07 0.1055,0.668 0.7735,0.211 0.3516,-0.4923 -0.5626,-0.668 -0.4219,-1.6878 0.4219,-1.5119 0.4571,-1.5472 -0.3867,-0.9845 -1.0197,-2.4613 -0.5978,-2.2152 c 0,0 -0.7032,-1.4416 -0.7032,-1.5822 0,-0.1407 -0.3165,-0.9846 -0.3165,-0.9846 l -2.9184,-0.8087 -1.7229,-0.7735 -1.6526,-0.6681 -0.6329,-3.2349 -0.7384,-0.668 -0.9493,-1.5823 -0.6681,-0.5274 -1.0549,0.4922 -2.4261,0.8087 -0.6329,0.7384 -0.8087,1.5823 -1.7229,1.5471 -0.2462,1.09 -0.5626,0.8087 -0.3867,0.1758 -0.211,-0.7032 -2.3558,-0.211 -0.3165,0.7736 -1.1955,0.07 -0.3516,-0.7384 -0.8439,-1.1603 h -1.1955 l -0.3516,0.9142 0.8439,0.6681 0.211,1.301 -0.211,0.7735 -0.3868,1.09 -0.9845,0.8791 -1.6878,0.7384 -0.5977,1.09 -2.602,0.5625 -1.6877,0.8439 -3.7272,0.5274 -0.879,0.3165 -0.8087,-0.2461 c 0,0 -1.4065,-1.4417 -1.512,-1.5823 -0.1054,-0.1406 -0.4922,-0.6329 -0.4922,-0.6329 l 0.2109,-0.9494 0.7384,-0.2813 0.035,-0.4219 -1.2658,-0.1406 -0.6329,-0.4572 -1.7933,0.4572 -0.8087,0.8438 -0.2461,0.5626 -0.5274,-0.5626 -1.0549,-0.7384 -0.5274,-0.7735 -1.9339,-0.5626 -2.2152,0.5274 -0.879,0.7384 -1.5471,0.8087 -0.9142,1.0197 -0.6329,0.7384 -0.9142,0.7384 -0.1055,1.0197 0.2461,0.4219 0.3165,3.0942 -1.0197,1.0197 -1.5823,1.4768 -0.5626,1.1252 -0.9142,0.3516 -0.9493,0.5274 -0.2813,0.6329 0.2813,0.5978 0.7384,0.7032 0.7032,1.4416 1.1955,0.6681 0.5626,1.0197 0.879,4.1491 0.9142,1.7932 -0.211,1.2658 -0.7735,0.8791 -1.6526,0.7735 -1.5471,1.4768 -2.2855,0.8439 -1.301,0.9845 -1.1955,0.6329 -0.4219,1.4768 -1.0197,-0.035 -0.9845,0.8791 -1.6175,0.9493 -1.4416,0.8439 -1.6174,1.5471 -1.3362,0.4571 -0.9142,-0.035 -0.1758,0.3516 z m 37.0761,94.1947 1.3714,-0.1055 1.1078,-0.2638 0.4747,-0.4747 0.5275,0.633 0.7913,0.844 1.3187,0.3165 0.6858,0.7912 -0.5275,0.7913 -0.633,0.3692 -1.3715,0.5803 -0.6858,0.4747 -1.266,0.5803 -0.8967,0.1055 -1.8462,0.053 c 0,0 0.1055,-0.844 0,-1.055 -0.1055,-0.211 -0.5275,-1.5297 -0.5275,-1.5297 l -0.3165,-0.6858 0.053,-0.633 0.4748,-0.1055 0.633,-0.633 z m 177.7327,-20.3811 1.5582,-0.6523 0.8697,-0.7972 0.2537,-0.4711 -0.2899,-0.3261 -0.7248,-1.6307 -0.8697,-0.7973 -0.7972,-0.4348 -1.6307,0.3986 -0.3262,0.2899 -0.5435,-0.1812 -0.2899,-1.1234 -0.29,-0.9059 h -2.138 l -1.1234,-0.4349 -1.2683,-0.4348 -0.3986,0.3986 -0.7972,1.6307 -0.761,1.7032 -0.4711,0.8697 0.3623,0.9422 1.3408,0.1087 1.1597,0.3986 0.2174,0.7248 0.073,1.3045 -0.4349,0.5798 -1.9206,0.1812 -2.138,-0.1087 -1.8119,0.2899 -0.2537,1.7032 v 1.9206 l -0.4349,0.1812 0.036,0.7972 0.3987,0.6886 0.761,0.7247 0.6885,1.3046 1.4857,0.5436 1.3771,0.036 1.1958,-0.5436 1.4133,-0.8697 0.8335,-1.5945 0.9784,-0.7248 0.761,-0.3261 0.3624,-0.616 c 0,0 0.5436,-0.145 0.7247,-0.1812 0.1812,-0.036 1.1959,-0.4711 1.1959,-0.4711 l 1.3408,-0.2537 1.8119,-0.036 0.3986,-0.6885 -0.4348,-0.6885 -1.1234,-0.3987 -0.073,-0.4348 -0.7248,-0.2899 -0.036,-0.8335 z M 223.2214,44.6399 l 0.5752,-0.1918 0.6301,0.5205 0.4109,0.4109 0.8219,0.2192 1.3697,0.4931 0.6575,0.5205 v 0.5479 l -0.6301,0.4657 -0.3561,0.8218 -0.8766,0.7123 -0.5205,0.3014 c 0,0 -0.2466,0.3835 -0.274,0.4931 -0.027,0.1095 -0.5205,0.6574 -0.5205,0.6574 l -0.2465,0.3288 -0.9589,0.4109 -0.4931,0.2191 h -1.2327 l -1.4519,0.082 -0.7397,-0.1917 -0.6575,-0.274 -0.1096,-0.767 0.3562,-0.3836 0.1096,-0.9588 0.4109,-0.9862 0.2191,-1.0958 0.6575,-0.4109 0.5753,-0.5205 0.9588,-0.3835 0.3561,-0.5205 z"
     id="palermo"
     name="Palermo"
     />
</svg>
