<svg
   xmlns="http://www.w3.org/2000/svg"
   id="sardinia"
   viewBox="0 0 412.8707 792.99994"
   aria-label="Map of Sardinia - Italy"
 >
  <path
     id="sud-sardegna"
     d="m 300.22624,448.64204 c 0,0 -0.62784,2.38787 -1.63612,2.89201 -1.00808,0.50414 -3.14517,2.01358 -4.40105,1.50944 -1.25569,-0.50394 -3.39576,-1.50944 -4.15048,-1.50944 -0.75472,0 -4.90539,0.38024 -5.53324,-0.25058 -0.62784,-0.63082 -1.75982,-1.63612 -2.26396,-1.63612 -0.50414,0 -4.2379,-0.16257 -4.2379,-0.16257 -0.20221,0.51326 -0.45894,0.91471 -0.78803,1.18928 -0.2716,0.24146 -0.71824,0.31997 -1.26778,0.31997 l -0.0634,0.0397 c -2.86763,0 -8.78407,-2.44199 -10.38392,-1.3221 -2.07682,1.446 -4.84156,3.44115 -8.74145,2.83134 -6.15791,-0.96585 1.62998,7.98138 -1.08678,9.71999 -5.01681,3.30238 3.94807,12.38819 2.71636,14.62202 -1.31298,2.32721 -5.81653,-0.0634 -7.87809,-1.44581 l -0.42285,-0.4288 c 0.1804,-0.32612 0.27159,-0.69129 0.27159,-1.11395 l -0.33186,-0.0416 c -0.972,1.84131 -10.26318,-0.47381 -12.61775,-1.94994 0,0 -9.11891,8.24385 -16.6352,15.03872 -1.46107,-1.65119 -2.92829,-3.44134 -2.92829,-4.00575 0,-1.13198 -0.56758,-2.45111 -1.97413,-3.10612 -1.41885,-0.66709 -4.06285,-1.79888 -4.34059,-1.79888 h -4.43417 c 0,0 -3.77341,8.77178 -4.24424,9.43293 -0.47103,0.6671 -4.34079,6.03718 -4.34079,6.03718 0,0 -2.26397,-1.03821 -2.5536,-1.79293 -0.28389,-0.75472 -1.79314,-2.64143 -2.54766,-2.83155 -0.75472,-0.19031 -7.92408,-0.28963 -8.86872,-0.28963 -0.94484,0 -2.35734,0.28963 -2.17635,1.22535 0.19032,0.94484 1.04436,2.35754 1.04436,2.92512 0,0.56738 0.18635,2.35734 1.3221,2.35734 1.13516,0 4.3406,1.79313 4.71786,2.45428 0.21747,0.38936 1.32249,2.30897 2.19775,3.82734 -4.96546,7.12991 -8.35249,15.87473 -8.98648,16.5327 -1.08659,1.15023 -2.35417,3.92765 -4.01448,4.7698 -1.38851,0.75452 -4.47976,2.05244 -5.21327,3.61917 -1.11394,2.2941 -1.53958,3.38069 -3.44115,5.37286 -1.446,1.46107 -5.93449,-0.52515 -7.36523,0.94781 -1.06854,1.14705 -0.69128,-0.57015 -6.67117,2.74115 -4.3164,2.3847 -1.41864,3.80929 -5.52074,6.19399 -2.26397,1.3221 -4.22026,1.98642 -8.21372,0.99321 -2.50841,-0.60068 -2.75919,-4.08743 -4.70913,-4.08743 -3.41102,0.0297 -3.93003,1.21961 -7.54623,1.26778 -3.20881,0.0297 -4.08743,-3.10909 -6.27884,-4.22601 -2.14324,-1.0957 -3.22982,-4.43713 -6.00685,-5.82565 -2.282,-1.15299 0.85722,-8.79002 -5.73227,-8.22561 -1.21961,0.11696 -0.75473,1.50905 -6.3512,1.03524 -5.19186,-0.41969 -4.43734,0.69743 -6.94277,-0.56738 -1.799081,-0.87228 -5.282656,-4.73629 -8.111028,-8.62409 l -0.392329,0.75472 -0.392526,2.14621 -1.35838,0.32275 -2.333353,-2.98836 -5.846863,-11.00562 -1.780842,-1.71462 -0.84532,-0.20221 -0.703376,0.44089 -0.05154,1.47594 -1.539577,4.08724 -0.150667,0.40739 0.72439,2.57185 -0.362195,2.95525 1.116917,2.20052 -0.286862,3.20286 -0.941865,0.52218 0.02974,0.55529 1.666058,0.23849 0.522179,0.51623 -0.0456,2.20053 -1.068743,5.69005 -1.560789,1.14982 0.685335,0.87248 0.180404,1.90495 1.841505,0.99599 0.754325,1.46107 -0.03568,1.55742 -1.041187,2.17931 -0.180403,4.13263 0.02974,4.44011 0.905586,1.63018 2.577592,2.3847 0.814988,4.09913 -1.578631,5.28285 0.05947,5.71106 -1.195224,2.70447 -1.195224,4.52794 -0.603856,1.82307 -8.059485,13.37247 -2.251874,2.68048 -3.048822,2.22491 0.965854,0.83283 -0.02974,0.0416 c -0.984092,1.0624 -2.447939,2.51753 -2.447939,2.51753 l -1.445806,5.01066 0.304703,0.87545 3.652481,2.65649 3.501813,2.50524 -0.513456,5.71126 -1.195224,1.74496 -1.177382,3.70957 -4.135209,3.58607 -1.446203,2.94931 0.461913,1.4458 -0.392527,1.57269 0.483125,2.07682 1.962039,1.43371 -0.452794,1.94103 0.905587,2.14343 0.995987,0.0297 0.604055,0.81816 -0.93909,2.0223 0.706548,1.06875 3.018688,-0.3624 1.823267,1.43986 1.195224,1.94995 -0.585618,1.96243 2.200528,2.23047 1.267782,4.56104 0.603658,4.49482 -1.14705,3.08173 -1.183329,1.78124 -4.935131,4.08724 -1.750907,2.57779 -0.981118,1.44897 -1.593698,1.02612 -4.407004,4.85703 -0.564604,1.18015 0.314022,3.33271 0.996185,1.82307 3.945091,3.58012 0.452793,-0.11498 1.539379,-0.39808 0.603658,1.46999 -0.190316,4.01171 0.844924,4.71785 0.941865,0.94186 1.201568,-0.39252 0.784855,-2.93701 4.050756,4.84473 0.920852,2.06493 0.784657,4.71785 -0.314021,8.45518 0.676216,0.44387 2.342472,-2.07682 1.445807,0.63399 1.204541,-0.83342 0.70635,0.15661 2.50543,3.92983 0.84532,2.81647 0.875255,2.20053 0.664124,1.75091 0.02974,1.23448 -2.970119,6.23661 -1.201568,0.56659 0.848492,1.76993 -0.0674,0.0456 0.02379,0.0515 4.684747,-1.69957 0.567776,-0.59473 -0.815187,-0.8362 0.543392,-1.35521 -0.691284,-1.07786 -0.06344,-0.0813 0.570551,-0.87525 0.875255,-1.44601 0.908759,-0.54933 1.445807,0.11696 1.328445,0.0872 1.991775,-0.32592 0.314021,1.78679 -0.567379,1.71146 -1.424991,1.19839 -0.186351,0.75473 1.47594,0.11498 -0.08723,1.23467 2.414634,0.24147 0.286861,-0.66988 -0.959906,-2.06492 0.51306,-0.0634 2.110128,1.69341 1.113745,2.71359 0.950985,1.75091 1.871436,1.30108 0.42861,-0.24146 0.19032,-1.54255 1.14705,0.48293 1.26778,1.6605 0.94504,0.20221 1.54235,1.8199 0.83937,-0.0852 0.87209,-1.81713 1.66942,-0.0396 -0.63696,3.65228 1.78401,2.98855 -0.63399,0.4407 -2.86742,-2.95525 0.15066,2.95525 -0.4407,2.23364 -1.67835,2.05303 -0.31362,3.62195 2.17297,4.4074 -0.39213,1.62998 3.29009,4.34059 0.15066,2.70467 1.27373,0.47678 1.11058,-1.31596 1.69956,-0.63399 1.15934,0.69129 v 0.0198 l 0.48312,0.30471 1.47297,2.35456 0.70932,2.70447 0.4076,1.47594 -0.44665,2.95545 0.15067,3.65268 -2.41464,3.2086 -0.55548,1.19523 -0.0397,2.07682 0.33246,1.72058 1.65991,0.69148 2.77742,0.31382 1.75051,-1.90157 1.57269,-0.0357 0.94503,0.94207 -0.27179,4.08108 0.47995,1.57249 -2.23086,2.83135 0.30213,0.81816 0.87525,0.35902 1.47911,-0.94464 1.9561,-0.1804 0.54933,-4.68475 -1.38871,-1.5941 -0.19031,-1.3221 1.10779,-1.86232 1.95015,0.5884 1.81117,-1.19523 -0.0813,-1.3556 -1.42776,-2.32701 0.57055,-0.91471 0.87248,0.87526 0.99281,0.19031 0.63399,-0.59771 3.09739,-0.791 1.75051,-1.55742 1.06875,-0.0734 0.69128,-0.83897 0.79397,0.0634 0.59434,-0.91173 1.72058,0.0634 1.71146,-3.53175 0.79397,-0.0476 3.09739,3.50142 1.44561,0.99619 2.45111,1.20117 5.67816,1.42499 -0.44368,2.68643 2.98816,3.47148 0.81499,0.9599 1.32845,2.20053 1.14685,0.12093 -0.19032,-1.69639 -1.46682,-2.07087 0.42246,-1.11375 1.23785,-1.0624 0.42246,2.26397 1.20771,0.99619 2.34803,0.12093 1.15339,0.78782 0.83026,2.06176 1.86529,1.6724 4.7694,-0.0912 1.38831,-2.38173 2.4753,-1.02929 4.34079,-2.98518 2.58393,-1.54275 1.18928,-1.20435 2.06176,-3.95738 v 0 l -2.33653,-4.98984 c 0,0 0.75453,-2.76494 1.25866,-3.77322 0.50414,-1.00213 0,-4.27418 -0.75432,-5.53601 -0.75472,-1.25569 -4.27735,-4.52793 -4.27735,-4.52793 l -14.85183,-28.0001 c 0,0 2e-4,0 0,0 0,0 0.0198,0 0.0218,0 1.20732,-0.27179 7.78769,-10.61309 7.78769,-10.91502 -3.80355,-3.81543 -10.17259,-10.28439 -7.90862,-14.57086 0.82411,-1.57566 1.03226,-2.99133 0.81182,-4.27735 l 3.33588,-0.0694 c 0,0 0,-4.53091 1.25866,-5.53601 1.25886,-1.00531 2.26397,-3.77322 2.26397,-3.77322 l -0.25059,-11.821 c 0,0 0.50117,-2.26376 0.25059,-3.52243 -0.25059,-1.25886 -1.25906,-2.26396 -1.25906,-2.26396 0,0 1.25906,-10.8157 2.7683,-12.82908 1.50925,-2.01339 2.01358,-2.51455 2.76811,-2.51455 0.75472,0 2.51435,-0.50394 3.01849,-1.25866 0.50414,-0.75473 1.25886,-1.75963 2.7681,-1.50925 1.50945,0.25058 3.01849,0 3.01849,0 l 7.04249,-5.03207 0.25038,-4.52794 c 0,0 0.75492,-3.52263 2.76831,-5.28245 2.01338,-1.75983 4.52753,-3.77322 6.7915,-2.51436 2.26397,1.25867 5.78659,4.77832 5.78659,4.77832 l 5.03228,-1.50904 1.0053,0.50374 3.52263,-2.01339 c 0,0 4.27715,-0.50096 6.03698,-1.75963 1.75983,-1.25886 3.52263,-3.26927 3.52263,-3.26927 l 5.28246,0.75473 3.5258,3.77321 4.52793,2.01061 4.02082,-2.76514 0.75433,2.01022 6.7919,0.50433 1.50924,2.26357 2.77148,-2.26357 h 3.77301 c 0,0 2.26397,-3.52302 4.52794,-3.52302 2.26396,0 3.77301,-0.50394 4.02062,-1.50925 0.25058,-1.0051 0.50711,-3.26887 0.50711,-3.26887 0,0 6.03718,-5.787 6.28479,-8.05096 0.25058,-2.26377 0.50711,-7.54623 0.50711,-7.54623 0,0 -0.25058,-1.25589 2.26397,-1.0053 2.51138,0.25058 5.7866,0 6.54132,-0.25059 0.75452,-0.25355 14.58871,-4.27695 14.58871,-4.27695 l 0.25058,8.80489 -9.05587,15.09305 c 0,0 7.2899,10.56511 8.55153,11.57041 1.25886,1.00511 2.51753,2.01021 6.54132,0.25039 4.02082,-1.75983 4.52813,-0.75175 5.03227,0.25335 0.50414,1.00531 3.26888,2.26397 3.26888,2.26397 l 4.27735,3.77321 c 0,0 0.75492,4.77852 0.50434,5.53324 -0.25059,0.75472 0.75452,3.52263 1.25866,5.28246 0.50414,1.75983 7.54622,13.83419 7.79681,15.34343 0.25058,1.50925 0.75472,3.02186 0,4.78169 -0.75473,1.75983 -2.01339,5.28226 -2.01339,5.28226 0,0 -0.25038,7.04545 -1.50924,8.30114 -1.25867,1.25569 -4.77832,3.77322 -5.28226,4.52794 -0.49205,0.73965 -1.45215,5.12247 -2.13432,5.7291 l 1.46088,-0.0872 2.45111,0.63677 0.55846,-0.6669 2.14303,-0.12093 1.63018,-0.90876 1.66031,0.0634 2.50543,1.20434 0.4407,1.26779 0.71844,2.0558 -0.54339,1.20435 -0.84532,0.56718 0.96585,2.14641 0.8362,0.35942 1.39783,2.29985 2.6563,0.47717 -1.38832,-2.20053 1.34589,-4.84195 3.30238,-4.44626 0.98707,0.15662 0.71567,-0.59157 2.7802,0.18635 2.66204,-4.61258 0.31997,-3.84855 0.0357,-0.44684 0.81836,-3.46514 1.3219,-1.74496 -0.30787,-1.0743 0.32909,-0.96624 -0.3622,-1.17996 -2.50246,-0.99341 -0.33206,-4.16852 0.96586,-1.83833 -0.39253,-2.83155 0.81499,-2.90073 -0.23532,-2.07087 0.47718,-1.50925 -0.0297,-1.90177 1.53938,-2.32741 2.32741,-7.36225 3.17232,-4.96844 3.04883,-2.34524 2.71398,-0.75492 1.93468,0.12093 -0.18437,-2.54171 -3.25975,-1.67538 -3.46831,-3.20286 -0.81836,-1.989 -0.35902,-6.27884 0.39213,-6.39937 0.0872,-1.29772 4.72103,-14.01241 2.3274,-5.21009 2.86446,-4.34079 0.0337,-3.46831 1.11652,-2.23364 -0.60346,-3.2542 0.18437,-1.93805 -0.58839,-1.44581 0.12093,-2.45091 -1.55465,-2.58711 -0.94801,-3.08193 1.50925,-10.14245 0.15066,-0.90559 0.75472,-0.8362 1.70868,-0.3499 0.43753,-0.69129 -0.24126,-2.2943 1.29771,-5.10126 v -0.0793 h 0.0575 v -0.0396 0 c -1.82624,-0.60683 -3.45939,-1.44561 -4.79953,-2.32701 -3.41102,-2.29113 -15.15312,-5.13179 -19.89238,-5.21942 -6.64084,-0.0634 -11.86323,-9.41786 -11.71236,-15.02941 0.12093,-4.08128 -5.0408,4.4524 -6.98182,0 -2.83135,-6.4297 -9.29714,-5.91645 -11.7423,-0.0634 -1.84131,4.44329 -7.48318,-1.90157 -7.87849,-5.60837 -1.02651,-8.97122 3.81842,-8.21649 -0.54339,-14.7368 -2.59603,-3.9211 -8.75374,2.14918 -12.58742,-1.71463 -3.02761,-3.05179 10.25427,-6.72231 11.73635,-11.38605 l 0.0991,-0.9601 -0.0813,-0.54299 3.0183,-3.60134 c 0,0 -2.39065,-4.27755 -3.52263,-5.40953 -1.13199,-1.13198 -8.17427,-9.17918 -8.67841,-9.55644 -0.50414,-0.37746 -1.13179,-2.7685 -1.13179,-3.52302 0,-0.75473 -0.87842,-2.51436 1.63593,-3.26888 2.51455,-0.75472 2.13729,-2.89181 1.0053,-3.77321 -1.13178,-0.8814 -0.8816,-1.88671 -0.8816,-2.26397 0,-0.37726 0.88141,-2.39084 1.88671,-2.39084 1.00511,0 4.40106,-0.37746 4.40106,-0.37746 0,0 2.39084,-2.01319 2.39084,-3.14517 0,-1.13199 0,-4.90242 1.13218,-6.16108 1.13199,-1.25887 1.50905,-3.64951 1.50905,-3.64951 0,0 -5.03188,-8.42465 -6.03698,-9.17918 -1.00531,-0.75472 -2.89201,-1.8869 -2.89201,-1.8869 z m -218.512647,282.16799 -0.847898,-1.78362 0.0674,-0.0317 -0.02775,-0.0555 -1.276703,-1.446 -0.866533,-3.52858 0.392527,-1.78421 -0.754722,-1.69342 -1.448978,-1.59964 -3.320221,-1.74793 -2.535762,-3.20267 -1.910891,-0.24126 -7.063101,1.65991 -0.202409,0.0634 -0.482926,-0.6669 -1.78104,-2.39679 -0.914706,-1.44581 -1.322102,1.14686 -2.263967,3.77321 -1.699362,0.0297 0.552511,5.40319 -1.572684,2.05859 3.622347,13.88573 2.50543,6.16088 0.690887,0.81816 1.750906,2.02211 0.190316,2.20073 2.746696,6.82203 1.711852,3.13922 -0.392527,2.32741 1.388712,1.13793 1.427766,0.0991 1.83199,-1.20157 0.875651,0.98132 1.116521,-0.2266 3.56208,-2.98835 0.483125,-0.95991 -0.422858,-2.60832 0.691481,-0.65183 0.81816,-2.26397 0.301532,-2.45111 0.673441,-7.27463 0.986868,-3.44115 2.182289,-3.95758 -0.241265,-1.0622 -1.186501,1.58458 -1.077466,-0.63399 1.23745,-2.76791 z m -38.764387,-42.30486 -1.572684,0.34396 -2.224516,1.69341 -2.143037,-0.24146 -1.116916,0.57055 -2.384897,-1.11989 -0.724589,0.14274 -1.478715,3.30555 -3.56208,1.30089 -0.543392,0.41968 -0.845122,0.67305 -2.575014,-0.0456 -0.754326,0.85682 -1.901771,4.34099 0.12093,1.32507 0.945037,0.87545 3.803346,0.6338 1.237648,0.83937 0.691283,1.54552 -0.362195,2.44794 0.552115,1.41865 1.147248,0.75472 -0.12093,1.05962 -0.965853,0.99897 -0.02974,1.01442 1.177183,1.45492 2.716761,0.96288 2.049861,1.85638 2.354169,0.31402 1.147248,-0.32592 0.72439,0.51009 0.845122,-0.0872 0.956932,-1.44581 2.203701,-0.36219 0.81479,-1.4912 0.271596,-6.60496 0.16058,-2.45389 0.956535,-1.28602 -1.116916,-1.2196 -0.180404,-7.4255 0.604055,-4.96863 -0.362195,-1.90177 z m 315.545634,10.64401 -0.0575,0.0218 h -0.0198 -0.0198 l -0.0654,0.0575 v 0.1249 l 0.002,0.0198 0.113,0.21926 h 0.0218 l 0.0714,0.0198 0.11499,0.0218 0.0436,-0.0813 h 0.002 v -0.0892 l -0.10308,-0.11696 -0.0654,-0.0198 v -0.0357 -0.0813 z m 0.33207,2.35616 -0.0654,0.0357 -0.17644,0.25257 -0.0932,0.13678 -0.0198,0.0218 -0.0278,0.0654 -0.16454,1.25193 v 0.1467 l 0.0198,0.52475 0.0753,0.85385 v 0.0357 0.0297 0.0218 l 0.21628,0.34395 0.10309,-0.0218 0.2831,-0.22303 0.0357,-0.0714 0.2932,-1.08678 0.0436,-0.44883 0.0872,-1.05011 -0.23235,-0.43515 -0.0654,-0.12291 h -0.0218 l -0.0575,-0.0297 h -0.0357 l -0.0714,-0.14075 h -0.002 l -0.0218,-0.0357 -0.0198,-0.0198 -0.0198,-0.0297 z m -18.63887,17.75271 v 0.0198 l -0.42802,0.92561 -0.19844,0.74858 0.0198,0.0793 1.70888,0.77732 0.0753,0.0297 h 0.0218 0.0813 l 0.27358,-0.12688 v 0 l 0.0892,-0.24384 0.0575,-0.26209 -0.24384,-1.21762 -0.0218,-0.0912 -0.0357,-0.10309 -0.12489,-0.23393 -0.0654,-0.0872 -0.47223,-0.10705 -0.66452,-0.0872 z m 1.81216,1.66328 h -0.0515 -0.0218 -0.0198 -0.0198 l -0.0654,0.0218 0.0575,0.0734 0.0654,0.0496 0.1586,-0.0198 v 0 l -0.10111,-0.13679 z m 0.95237,0.28825 -0.10507,0.0496 -0.0496,0.0496 0.15265,0.1467 0.17644,0.0575 0.0654,-0.0575 -0.0416,-0.11696 -0.0436,-0.0575 z m -253.513934,2.17218 -0.715469,1.95887 0.784855,0.0634 1.116917,-1.4458 0.172474,-0.5765 z"
     name="Sud Sardegna"
     />
  <path
     id="nuoro"
     d="m 411.92605,260.21021 0.94464,-1.19839 -0.24146,-6.95169 -1.19225,-1.11077 -3.4473,-0.91173 -2.77703,-1.78104 -1.06854,-0.67007 -0.56758,-0.60366 0.0297,-1.18631 1.23765,-0.23551 0.36219,-1.11375 -1.08658,-5.24935 -1.05645,-0.63399 -0.96606,-2.05858 -3.95441,-1.43094 -1.82306,0.91173 -1.02632,-0.56757 0.84512,-0.75453 -0.15067,-0.66709 -1.19542,-0.3624 0.21133,-2.3845 1.02632,0.30788 0.12093,-0.6671 -1.56971,-3.37791 0.63399,-1.42479 -0.0912,-1.35224 -1.41865,-1.06259 -0.84532,-4.13541 0.60366,-2.83154 -0.24147,-0.94782 -0.78782,0.4407 -0.31383,6.03718 -0.63399,1.08064 -1.75071,-0.63379 0.21133,-0.81816 1.0745,-0.75453 0.31402,-4.28647 -0.33206,-0.90856 -0.99619,-0.12093 1.47911,-2.3274 3.04882,-1.59667 -0.19031,-4.73332 1.17718,-2.58374 -0.21133,-0.81816 -2.57779,-3.29326 0.0297,-1.06854 -1.83536,-1.44601 -1.153,0.47996 -0.90558,-0.81797 -1.99238,1.91089 -0.23531,-0.0634 -0.63994,-0.15067 c -3.58607,1.70868 -8.72381,2.56887 -9.086,4.13243 -0.15067,0.73054 -6.94277,2.5086 -6.94277,4.71805 0.0297,3.29029 -4.03291,-12.04402 -5.10146,-9.81039 -0.93572,1.93508 -15.90783,-5.95252 -17.11535,-3.41399 -0.95693,1.9894 -4.43733,5.28266 -7.45582,8.86873 -1.50925,1.78698 -3.3567,5.80166 -6.18805,6.55638 -1.48228,0.39233 -6.98202,0.2716 -8.36458,0.2716 -4.18378,0.0357 -6.55024,-0.2716 -9.87978,-1.11692 -3.26015,-0.78485 -3.35075,0.56758 -6.39937,1.39466 -3.05794,0.81796 -1.72058,4.73312 -3.62235,6.67097 -1.38851,1.44303 -6.2273,8.86872 -5.16173,10.01577 3.13923,3.41102 -2.14323,5.12545 -1.63017,8.30095 0.63399,4.18993 -6.3631,3.03673 -6.91243,4.21411 -0.84532,1.73564 -5.82585,3.60114 -7.90882,4.69089 -3.1876,1.66626 -1.62998,6.00685 -5.76539,6.07326 -3.37791,0.0357 -8.45201,-1.47296 -11.62156,-0.63379 -2.53556,0.67007 -3.96036,-2.30322 -7.54642,-2.26396 -2.57185,0.0337 -3.6737,0.0971 -4.59138,1.0624 -0.41651,0.44684 -0.77871,1.08083 -1.19522,1.95609 -0.87545,1.81414 -3.45642,3.3446 -3.45642,5.97374 0.0634,4.52793 8.06563,0.70337 10.40811,3.06091 1.35838,1.34629 8.6332,-2.22769 11.68203,-2.26397 3.09085,-0.0337 3.01849,8.96527 4.16554,11.2564 1.19542,2.3847 -8.69348,3.37474 -8.6572,6.18804 0.0456,3.16341 -3.41716,5.17997 -3.41716,7.11782 0.0357,1.75071 -1.94995,5.97374 -3.21476,7.30794 -1.50924,1.54255 -2.41185,2.78019 -4.34079,4.8027 -1.3221,1.35838 0.51326,3.50459 -1.59369,4.59117 -1.54553,0.81816 -4.92641,3.83665 -6.34506,4.20499 -2.4753,0.66393 -4.73926,1.7295 -7.54642,2.44497 -2.14324,0.58859 -5.04119,4.01467 -7.0635,4.06305 -5.10146,0.0238 -5.28266,1.68132 -7.54662,2.84958 -2.50543,1.33102 -3.25996,-0.26882 -5.041,1.57268 -1.35838,1.41568 -2.57779,3.85767 -4.01467,5.36691 -1.46107,1.46405 -2.02251,3.84875 -3.45939,5.35799 -0.82391,0.87546 -1.53938,-0.87525 -3.41082,-2.74689 -1.50944,-1.50925 -1.14725,-1.02632 -3.80354,-3.24806 -2.35437,-1.98603 -4.49761,-2.26377 -4.52794,-6.35695 0,-1.99237 -1.81097,-5.31873 -2.92789,-5.88631 -2.26397,-1.14705 -3.20881,-1.75071 -7.00323,-1.72058 -1.79908,0 -2.95505,-3.30535 -3.98454,-4.35883 -0.66393,-0.68216 -3.07896,-5.35204 -7.57656,-5.56932 -1.78104,-0.0694 -4.82966,2.94911 -7.09363,2.38173 -1.11989,-0.2718 -3.20881,-3.24211 -3.83665,-4.52794 -1.06855,-2.18843 -3.56188,-1.73266 -6.67117,-2.48738 -2.125,-0.52813 0.51326,5.47574 -0.30173,8.93513 -0.43178,1.81712 -2.50543,3.20563 -3.10909,5.71107 -0.44684,1.92595 -3.62235,-0.14274 -5.16192,1.446 -1.81118,1.86847 -3.04863,1.81712 -6.94277,1.83833 -2.94296,0.0297 -4.4976,2.6563 -7.42569,2.68941 -3.99664,0.0634 -4.04481,3.01868 -6.20311,5.21921 -1.44601,1.50925 -2.0798,3.01849 -4.92641,3.74308 -3.68261,0.99619 -3.07895,-1.19542 -5.19186,0.99619 -1.95609,2.07662 -2.86762,1.50924 -6.36329,2.44496 -1.47594,0.38936 -1.18313,-0.54339 -1.42479,-1.81117 l -1.31913,0.31085 c 0.3955,3.41101 -1.26778,12.7928 2.30024,15.48537 8.50633,6.43566 11.1325,2.14324 11.04507,4.64867 -0.19032,4.28647 -1.06557,11.83289 0.95693,15.25283 1.93488,3.25401 7.67013,-3.05774 10.50148,-1.82009 l 0.11696,-0.27775 c 1.02632,-2.14323 2.59901,4.25317 4.71508,5.28246 2.14324,1.05665 4.83878,1.14705 7.54643,1.11692 0.99618,0 4.73014,-1.99217 6.36012,-2.42395 2.54171,-0.65798 6.10061,-0.0575 8.73292,-0.0813 1.83219,0 6.15791,-4.01468 8.66314,-3.414 2.30025,0.56738 11.11446,0.87229 12.34616,-0.43475 0.99618,-1.02314 3.22387,-1.62998 7.39238,-0.95673 2.90094,0.44962 3.39001,-0.20539 6.98202,-0.23552 3.3567,-0.0397 4.86595,0.64906 6.97905,1.70551 3.08193,1.5485 4.0117,1.90772 2.3847,5.32171 -1.07469,2.26397 -1.11395,4.44328 -1.07469,7.73674 0,0.83898 2.34544,3.49547 2.34544,6.48383 0.0396,2.65629 -3.58607,3.80334 -2.95525,6.4295 0.33821,1.23468 5.85916,5.15876 6.58652,6.60476 1.06874,2.14621 0.84235,5.12862 1.50944,7.82417 0.72142,2.80121 2.69853,7.18423 1.75071,9.25808 -2.46915,5.66883 -8.06265,4.01467 -11.68183,-0.30808 -2.40888,-2.87654 -3.65248,-1.88056 -5.35799,-0.0634 -1.69956,1.75983 -2.1131,5.22517 -4.05393,6.2273 -2.62616,1.38851 -2.69574,4.52793 -3.1757,6.67097 -0.63379,2.73797 6.45687,4.36795 7.11782,6.99114 0.24147,0.9599 7.94193,-1.9892 11.5613,1.11374 1.59687,1.38257 -5.7293,7.20842 -4.49483,9.74715 1.11395,2.23978 -2.57481,7.18423 -1.42162,10.11827 2.22472,5.59648 3.65248,3.41399 6.03718,4.28944 1.86549,0.70021 12.86219,6.13076 12.30968,7.70344 -2.36052,6.88527 16.44825,-1.83536 16.04978,0.81796 -0.23829,1.65416 7.78808,10.5891 7.46514,15.15629 0,0.42861 -0.0852,0.79397 -0.27774,1.11394 l 0.43455,0.43456 c 2.07683,1.38256 6.57145,3.77321 7.86659,1.446 1.24657,-2.21877 -7.72167,-11.31964 -2.70466,-14.60992 2.70466,-1.75091 -5.08045,-10.68585 1.07746,-9.72594 3.89097,0.61873 6.6682,-1.38851 8.74502,-2.83154 1.59667,-1.12584 7.51312,1.3223 10.37777,1.3223 0.54934,0 0.99619,-0.0853 1.26778,-0.32612 0.32295,-0.27457 0.57967,-0.67919 0.78783,-1.1863 v 0 c 0,0 3.73396,0.16058 4.2381,0.16058 0.50414,0 1.63612,1.0053 2.26397,1.63612 0.62784,0.63082 4.77851,0.25058 5.53304,0.25058 0.75472,0 2.89181,1.00511 4.15067,1.50925 1.25866,0.50414 3.39575,-1.00511 4.40106,-1.50925 1.0051,-0.50414 1.63612,-2.89181 1.63612,-2.89181 0,0 1.88651,1.13198 2.89181,1.88651 1.00511,0.75472 6.03698,9.17957 6.03698,9.17957 0,0 -0.37726,2.39065 -1.50924,3.64951 -1.13199,1.25866 -1.13199,5.0289 -1.13199,6.16088 0,1.13199 -2.39064,3.14537 -2.39064,3.14537 0,0 -3.39595,0.37726 -4.40106,0.37726 -1.0053,0 -1.88671,2.01339 -1.88671,2.39085 0,0.37726 -0.25058,1.38236 0.88141,2.26396 1.13198,0.8814 1.50944,3.01849 -1.00511,3.77321 -2.51455,0.75453 -1.63612,2.51436 -1.63612,3.26908 0,0.75472 0.62784,3.14537 1.13198,3.52263 0.50414,0.37746 7.54642,8.42485 8.67841,9.55683 1.13198,1.13199 3.52283,5.40934 3.52283,5.40934 l -3.01869,3.60728 v 0 c 1.4458,5.40021 -15.09008,9.51143 -11.73933,12.89232 3.83348,3.86381 9.99139,-2.20053 12.58742,1.72057 4.35883,6.52011 -0.48292,5.76558 0.54339,14.73066 0.39848,3.70997 6.03718,10.05185 7.87849,5.61471 2.44496,-5.85618 8.91095,-6.36924 11.7423,0.0595 1.94102,4.44031 7.10275,-4.07197 6.98796,0 -0.15067,5.61154 5.07133,14.96597 11.71216,15.02941 4.73927,0.0912 16.48156,2.92194 19.89238,5.21921 1.34034,0.8814 2.97032,1.72355 4.79973,2.32721 l -0.81518,-20.7375 -1.02632,-5.67498 0.27179,-1.87164 2.17337,-3.50142 0.78486,-2.2943 -0.44071,-5.83477 0.56738,-1.86847 1.79016,-0.69128 1.8653,-4.52793 -0.87228,-2.86168 0.47698,-1.50924 v -4.59118 l -0.81499,-1.75091 0.1804,-2.65629 -0.95376,-4.13541 0.47381,-5.34589 0.35922,-2.32741 1.90475,-12.86219 1.43688,-2.98538 1.69044,-1.7176 0.69426,-2.29708 -1.75091,-3.53174 -1.32805,-0.66413 -0.0614,-0.87545 0.81499,-2.23364 -1.02632,-2.65649 0.96605,-7.85727 0.83005,-2.95525 5.09532,-0.72439 0.72459,-1.10185 0.0297,-3.42609 -1.99217,-2.20053 -1.29811,-0.0634 0.0297,0.96605 0.87546,0.51306 v 0.66412 l -1.14705,0.16653 -1.19225,-0.71547 -0.75472,-1.99237 -1.3221,-9.90079 1.35838,-5.59648 2.33335,-1.19542 v -8.33128 l 0.80587,-0.75472 0.58562,-1.72058 -0.58562,-0.93572 0.42266,-0.96585 3.04882,-3.32062 2.62616,-4.71805 0.87526,-3.04863 -1.05646,-3.44115 0.15067,-0.63993 0.39233,-1.90475 -1.93191,-2.10398 -9.26699,-6.36924 -1.29812,-3.58607 -3.22982,-3.08193 -2.14323,-3.29028 -1.69342,-6.12778 -3.13625,-4.79953 -0.94484,-0.96586 -1.05645,-6.27884 -0.19031,-2.2941 0.5646,-5.91644 -0.9268,-1.78085 -0.12093,-3.77321 0.19032,-1.14705 c 0.0634,-0.54042 0.60385,-3.63146 0.60385,-3.63146 l 2.32721,-8.23771 3.89097,-6.67712 1.50944,-0.3953 0.59752,-2.83154 2.20052,-3.13625 1.35838,-0.59771 0.75473,-2.7469 0.75472,-0.75472 0.4407,-0.4407 1.26778,-2.32721 3.18145,-3.29028 -0.0416,-1.32825 -2.30005,2.83749 -0.99321,0.0813 1.18947,-2.3272 2.22452,-2.46321 1.446,-0.40144 1.57269,-2.02548 1.07766,1.03524 2.20053,-2.38153 -1.59072,-0.71547 1.50924,-1.15002 1.18313,-0.0853 0.94187,0.56758 1.15002,-1.70551 3.20583,0.47698 2.20053,-3.08213 0.87546,-0.0773 0.23849,-3.42311 0.836,-1.3221 0.47995,-7.12397 0.47698,-0.69128 2.7802,-3.93914 1.82009,-0.27477 0.31105,-0.51306 -0.63399,-2.14324 -2.10696,-0.27179 -0.4286,-1.62998 0.31997,-0.94484 2.20052,1.50945 0.87546,0.20221 0.48292,-0.39253 2.38173,-6.27864 1.98622,-5.31259 0.56738,-0.3955 -0.18635,-1.9892 1.1532,-1.11692 -0.15067,-1.62997 z"
     name="Nuoro"
     />
  <path
     id="oristano"
     d="m 237.42456,471.78585 c 0.64311,0.45874 -0.0238,0.10309 0,0 z m 5.48486,-13.16709 c 0.3955,-2.65629 -18.41346,6.05839 -16.04978,-0.81796 0.54339,-1.57883 -10.44438,-7.00918 -12.31582,-7.70661 -2.3847,-0.87525 -3.80354,1.31021 -6.03718,-4.28924 -1.14705,-2.93404 2.53557,-7.88166 1.41865,-10.12144 -1.22853,-2.52645 6.10062,-8.36439 4.4978,-9.74696 -3.62235,-3.10016 -11.31984,-0.15661 -11.5613,-1.11691 -0.65203,-2.62319 -7.75161,-4.24702 -7.11167,-6.99094 0.47083,-2.14324 0.55231,-5.28266 3.17253,-6.67117 1.93785,-1.00511 2.35139,-4.47342 4.05095,-6.2273 1.71146,-1.81117 2.94613,-2.80418 5.36394,0.0634 3.61025,4.32255 9.21268,5.97969 11.67588,0.31085 0.94484,-2.07682 -1.03226,-6.45369 -1.74476,-9.25491 -0.67602,-2.70466 -0.44367,-5.6841 -1.50924,-7.82733 -0.72757,-1.44581 -6.25149,-5.36394 -6.59267,-6.60456 -0.63379,-2.62616 2.98856,-3.77321 2.95525,-6.43268 0,-2.98538 -2.35139,-5.64168 -2.35139,-6.48383 -0.0297,-3.29326 0,-5.4696 1.08064,-7.73357 1.627,-3.42311 0.69128,-3.77321 -2.3847,-5.32488 -2.11905,-1.0505 -3.6283,-1.75071 -6.98202,-1.70848 -3.58904,0.0357 -4.07514,0.68831 -6.9729,0.24146 -4.17169,-0.67621 -6.39937,-0.0694 -7.39556,0.95396 -1.23765,1.31001 -10.05185,0.99599 -12.34595,0.43456 -2.50543,-0.60069 -6.84008,3.41399 -8.66334,3.41399 -2.63231,0.0277 -6.18805,-0.58245 -8.74185,0.0852 -1.62106,0.42861 -5.35502,2.41781 -6.3512,2.41781 -2.71656,0.0337 -5.40319,-0.0595 -7.54643,-1.11375 -2.11904,-1.02949 -3.68261,-7.42569 -4.71805,-5.28265 l -0.11101,0.27179 c -2.83155,-1.2317 -8.57572,5.08025 -10.50168,1.82307 -2.0225,-3.42291 -1.14705,-10.96953 -0.96585,-15.2558 0.0912,-2.50544 -2.53576,1.78401 -11.04804,-4.64867 -3.56208,-2.69257 -1.90177,-12.07436 -2.2941,-15.48538 l 1.38851,-0.31679 c -0.12093,-0.67919 -0.39252,-1.43391 -1.11691,-2.14938 -0.82411,-0.86931 -6.59862,-3.47743 -7.3805,-3.69174 -3.13625,-0.7908 -0.63696,-2.26396 -1.55444,-5.76241 -0.56163,-2.28498 0.12093,-3.39892 -3.37494,-6.47788 -1.18313,-1.0505 -2.30005,-4.73609 -3.688559,-6.60475 -2.626162,-3.56486 -7.546623,-10.11827 -11.4707,-10.08496 -3.109089,0.0278 -5.813756,2.74689 -7.637022,4.61536 -1.871441,1.96818 -1.116917,3.10611 -4.920263,3.17252 -2.95525,0 -7.769847,1.35541 -8.210547,-0.4286 -0.190316,-0.72142 -0.513258,-1.47614 -0.966052,-2.20053 l -0.814988,1.35838 -0.241464,3.97839 -1.267781,1.39169 -0.292809,2.50226 -1.026319,2.3274 0.190316,3.26016 -1.439859,1.18015 -0.663925,1.47614 0.633792,1.19542 0.362195,0.6671 0.42266,1.90475 -0.42266,2.74372 1.177381,0.18437 0.694257,-0.81797 1.841307,1.11375 2.173369,-0.20519 0.543391,0.63399 3.169356,0.12093 2.315312,0.90559 0.905587,1.15003 0.362195,2.30619 1.322101,0.63379 3.332512,-0.63379 1.322299,1.15002 0.965854,2.26397 0.392526,3.68876 1.207317,1.38851 0.996185,-0.42861 1.578631,0.0714 0.09119,0.0456 0.362195,0.43158 -0.332062,0.2716 -0.12093,0.12093 -1.87144,1.66031 -0.271597,0.9147 1.026318,0.12093 1.086586,2.20053 -0.845122,5.48764 -1.418845,1.44601 -2.444966,8.05968 -1.288994,1.59984 1.319128,1.44581 -0.694257,4.08723 0.12093,5.79572 -0.996185,3.44412 -0.633792,2.70467 0.817962,2.41483 -0.603658,2.45111 0.93572,3.73694 2.327405,5.59647 2.414832,3.36879 0.603659,1.62998 0.42266,1.15022 0.271597,1.82307 0.09119,0.69128 0.72439,-0.31382 0.513258,-0.20538 0.21133,0.51326 -0.241463,0.24146 -1.14705,1.20137 -0.413739,1.62998 0.966051,3.68281 -0.362195,1.42459 -5.886314,7.0635 -3.44115,2.94613 -1.116917,0.39253 -0.241463,0.0734 -2.052637,-1.05645 -0.72439,0.12093 -3.803544,2.68662 -1.388513,-0.0297 -0.817962,-0.54934 -0.691283,-1.83516 -1.418647,-0.75472 -1.207515,2.77702 -1.177184,-0.63379 -0.993211,0.26248 -1.14705,1.15022 -0.325916,0.60068 -0.274769,0.4407 0.07533,1.26779 0.452794,0.67007 0.443674,0.4407 1.029292,0.31402 1.150024,-0.0357 1.509443,-0.71844 1.068545,-0.3953 0.799922,0.20816 1.150023,1.87164 0.395501,1.78084 0.238489,0.94186 0.205185,1.78699 -0.06344,1.3221 -0.332061,0.84532 -0.543194,1.41865 -0.691283,1.26778 -3.081929,4.92344 -1.086783,2.26376 v 0.91471 l 1.720575,2.54171 0.12093,1.46702 -0.06344,2.94316 -0.313823,11.50678 -0.513258,1.78698 0.326114,1.69639 1.464045,1.44601 2.08277,0.18635 3.259954,3.08193 2.227886,3.13625 0.754524,1.54552 -0.166527,2.07682 -1.388513,1.66923 0.0456,1.54255 1.509245,0.27775 1.104824,-1.86847 0.04758,-1.5939 0.02974,-1.59072 0.72439,-2.59008 1.859546,-2.50226 3.492496,-2.58096 -0.02974,-1.03227 -0.956933,-0.0634 -3.217925,3.41102 -0.51306,-0.51326 0.633791,-1.47594 -0.331863,-1.02949 -0.935918,0.44685 -0.452794,1.26778 -0.51306,0.0337 0.51306,-2.38153 1.720575,-0.4286 2.107155,-2.26397 4.090009,-0.39847 0.21133,0.43158 -0.332062,0.44684 -2.777027,1.1078 0.63399,0.47995 4.407004,-0.91173 0.724588,-2.0223 1.14705,-1.06558 0.94484,-0.12093 0.353076,0.81797 -1.273928,1.34926 -0.4407,1.42776 0.513258,0.31402 6.399374,-0.44367 1.986225,1.42162 2.662441,3.10612 1.14705,3.17252 1.901768,4.09933 0.96586,3.65248 -0.69426,4.41018 0.0634,1.90177 0.15463,7.54642 -2.182487,8.11381 -2.544485,4.95654 -4.645692,4.85385 -0.591565,1.3223 0.304704,0.67601 1.065571,-0.24146 4.769397,-5.97374 1.068545,-0.69128 0.392527,1.10779 -1.509246,2.94019 -5.590531,7.74566 -1.394461,2.62319 c 2.819254,3.89394 6.317895,7.75161 8.101711,8.62706 2.505432,1.25886 1.750902,0.13481 6.942762,0.56758 5.61155,0.47698 5.1316,-0.91174 6.36627,-1.03247 6.57145,-0.56738 3.43203,7.06965 5.72316,8.2167 2.77722,1.39763 3.86381,4.74818 6.00704,5.83794 2.20053,1.11374 3.07896,4.25316 6.27865,4.21391 3.62234,-0.0357 4.1354,-1.2317 7.54642,-1.27095 1.96818,0 2.2037,3.49864 4.71508,4.09635 3.99049,0.99618 5.95867,0.31997 8.22264,-0.99619 4.08723,-2.38172 1.19542,-3.80651 5.52094,-6.19101 5.97375,-3.31447 5.59054,-1.59093 6.67117,-2.74095 1.4127,-1.47614 5.91328,0.51306 7.35928,-0.95991 1.90158,-1.98919 2.33336,-3.073 3.45622,-5.36096 0.73054,-1.56971 3.80949,-2.86465 5.19801,-3.61937 1.6603,-0.83918 2.92809,-3.62235 4.01467,-4.7694 0.63102,-0.65203 4.00278,-9.33936 8.94108,-16.45717 -0.87228,-1.52154 -1.9771,-3.45325 -2.20052,-3.83666 -0.37727,-0.66114 -3.58607,-2.45111 -4.71806,-2.45111 -1.13198,0 -1.3221,-1.79313 -1.3221,-2.35753 0,-0.56441 -0.84532,-1.98028 -1.04138,-2.92492 -0.19032,-0.94484 1.22555,-1.22556 2.17337,-1.22556 0.94781,0 8.1138,0.0932 8.86852,0.28369 0.75472,0.19032 2.26397,2.07682 2.54766,2.83135 0.28686,0.75472 2.55083,1.79313 2.55083,1.79313 0,0 3.86361,-5.37623 4.34059,-6.03718 0.47698,-0.66115 4.24424,-9.43313 4.24424,-9.43313 0,0 4.15047,0 4.43416,0 0.28389,0 2.92512,1.13199 4.34079,1.79314 1.41568,0.66709 1.97414,1.98007 1.97414,3.11206 0,0.56758 1.46701,2.36368 2.9372,4.01785 7.60967,-6.91561 16.63223,-15.08988 16.6475,-15.15629 2.63508,1.70233 11.65467,3.79125 12.61755,1.94994 l 0.33206,0.0357 c 0.35625,-4.63063 -7.66418,-13.56556 -7.42569,-15.22885 z"
     name="Oristano"
     />
  <path
     id="sassari"
     d="M 301.3271,0.0594 V 0.0396 L 301.3053,0.0198 301.2756,0 h -0.0277 l -0.0297,0.0496 -0.002,0.0218 v 0.0714 l 0.0357,0.0357 0.0654,0.0218 h 0.0436 0.0496 0.0198 V 0.1805 0.1587 l -0.0297,-0.0654 -0.0297,-0.0357 -0.0278,0.001 V 0.0308 Z m 1.72633,1.69441 0.73747,-0.11498 0.14869,-0.0278 v 0 l -0.0952,-0.86157 -0.17644,-0.20935 -0.66036,-0.30451 -0.0991,-0.0297 -0.83224,0.25633 -0.0357,0.0198 -0.43079,0.31085 -0.16256,0.45537 -0.002,0.0297 0.0198,0.0734 0.0198,0.0436 0.0198,0.0218 0.10309,0.0912 0.14274,0.0714 1.07587,0.18834 0.0971,0.0198 h 0.14273 z m -1.6728,-0.18437 h 0.0218 l 0.0198,-0.0218 0.0357,-0.0654 0.0198,-0.0357 v -0.0198 l -0.0436,-0.0575 -0.0218,-0.0218 -0.17644,-0.11895 -0.0198,-0.0218 -0.0436,-0.0436 h -0.0218 l -0.16058,0.0496 -0.0436,0.0218 -0.0753,0.14472 v 0.0218 0.0278 l 0.0357,0.0714 h 0.0198 l 0.0436,0.0198 0.3622,0.0654 0.0198,0.001 0.0297,-0.001 z m -6.44001,0.45398 -0.27794,-0.28725 -0.13679,-0.18041 0.0198,-0.0991 -0.0436,-0.0753 -0.0813,-0.0496 -0.73014,0.14868 -0.0853,0.0793 -0.72379,0.68553 -0.19032,0.21371 -0.0218,0.0297 -0.0198,0.0496 -0.14869,1.33796 0.0278,0.0297 0.18238,0.12886 0.0654,0.0198 0.33702,0.0357 0.1249,-0.0654 0.33702,-0.0932 0.29578,-0.0753 0.46845,-0.0714 1.70095,0.71309 0.0496,0.0436 0.0496,0.11697 -0.0357,0.10507 -0.0575,0.67601 1.56812,1.14249 h 0.13085 l 0.0892,-0.0198 0.60702,-0.12886 0.1923,-0.11696 0.16455,-0.11895 0.0575,-0.10507 V 5.86322 5.77992 l -0.14076,-0.48352 -0.0436,-0.0971 -1.31338,-1.99752 -0.0436,-0.0357 -0.0496,-0.0218 -0.76424,0.0753 -1.55583,-1.20018 z m 5.43253,6.33673 h 0.0357 l 0.249,-0.13282 3.04545,-1.99812 1.04693,-1.04575 0.24623,-0.3053 0.0436,-0.3384 v -0.0357 l -0.99083,-2.62457 -0.0436,-0.0892 -0.13084,-0.0793 -0.0654,-0.0218 h -0.0892 l -1.37325,1.59985 -1.24637,0.37964 -1.77014,1.54354 -0.0714,0.0892 -0.0496,0.1923 -0.0436,0.18437 -0.0853,0.54854 0.15662,0.34773 0.95039,1.75863 0.0357,0.0357 0.11895,0.0198 h 0.0436 z m 8.51624,-4.35149 0.12489,-0.0357 v -0.0297 -0.0991 l -0.0198,-0.113 -0.0198,-0.0357 -0.0436,-0.0218 h -0.0198 -0.0912 l -0.0297,0.0198 -0.0218,0.0198 -0.0734,0.13481 0.0277,0.0793 0.10309,0.10507 h 0.0496 z m 0.16256,2.68524 0.0357,-0.0218 0.0278,-0.0357 0.15859,-0.37964 v -0.0436 -0.0714 -0.0496 l -0.34712,-0.95554 -0.16653,-0.249 -0.0218,-0.0218 -0.12489,-0.0952 -0.0932,-0.0198 -0.0892,0.28924 -0.60822,0.84651 -0.0218,0.0912 v 0.10507 l 0.10308,0.12886 0.2599,0.29817 0.0278,0.0198 0.0357,0.0198 0.56937,0.15265 h 0.0654 l 0.16652,-0.0198 z m 1.26501,-0.33266 0.0357,-0.0297 0.0575,-0.15066 -0.0971,-0.25197 v -0.0218 l -0.15661,-0.28865 -0.0218,-0.0436 -0.0357,-0.0575 -0.0654,-0.0833 -0.0278,-0.0198 -0.32988,0.0198 -0.0714,0.0575 -0.0357,0.17644 v 0.0218 0.0218 l 0.0654,0.27279 0.0278,0.0714 0.0833,0.18636 0.0436,0.0357 0.0654,0.0357 0.38321,0.0952 0.0912,-0.0496 z m -18.00449,-0.42008 0.0297,-0.0198 0.0218,-0.0436 -0.002,-0.0278 -0.0198,-0.0218 -0.0198,-0.0198 -0.0297,0.0198 -0.0357,0.0218 -0.0218,0.0218 -0.0277,0.0218 0.0218,0.0436 h 0.0198 0.0357 0.0218 z m 0.55132,-0.0575 h -0.0198 l -0.13283,0.0357 -0.0218,0.0198 v 0.0357 0.113 0.0198 l 0.0277,0.0218 h 0.0218 l 0.0575,0.0198 h 0.0277 0.0218 l 0.0575,-0.0813 0.0496,-0.0892 0.0198,-0.0714 h -0.0198 l -0.0892,0.0436 -0.002,-0.0357 z m 0.22224,0.0833 v -0.0277 -0.0515 h -0.0278 l -0.0733,0.0654 -0.0575,0.13481 v 0.0218 0.0357 h 0.0198 l 0.0357,0.0297 h 0.0218 l 0.0436,7.9e-4 h 0.0496 0.0297 l 0.0496,-0.0496 v -0.0218 l -0.0496,-0.11894 h -0.0218 -0.0198 v -0.0198 z m 0.57947,0.0753 0.0297,-0.0357 0.0218,-0.0654 v -0.0297 l -0.0575,0.0198 -0.0496,0.0198 -0.0496,0.0496 v 0.0278 l 0.0218,0.0496 h 0.0198 l 0.0833,-0.0357 z m -1.03484,0.11697 h 0.0198 l 0.0218,-0.0436 0.0198,-0.0357 v -0.0496 -0.0357 l -0.0198,-0.0198 h -0.0297 l -0.10309,0.0357 -0.0198,0.1249 v 0.0198 0 l 0.0991,8e-4 z m 5.16787,5.73148 0.31679,-0.0892 0.0357,-0.0436 0.26327,-0.65818 0.12291,-2.42613 -0.55727,-0.69346 -0.52317,-0.16455 -1.37682,-0.0297 -0.64092,0.45318 -1.42658,0.95476 -0.87109,0.36814 -0.21788,0.0952 -0.0357,0.0297 -0.0218,0.0218 v 0.0297 l 0.0198,0.0654 0.3045,0.5313 3.12119,1.79908 h 0.0436 l 1.44977,-0.25039 z M 299.5312,8.4232 299.5808,8.4014 V 8.3736 l 0.0218,-0.0793 -0.0218,-0.0714 -0.0436,-0.0198 h -0.0218 l -0.0218,-10e-4 v 0 l -0.0654,0.0198 -0.0198,0.0198 v 0.11102 l 0.002,0.0297 0.0297,0.0277 0.0218,0.0198 0.0515,0.0297 h 0.0278 z m 9.04575,0.0793 h 0.0218 l 0.0277,-0.0218 0.0198,-0.0198 V 8.4312 8.4034 h -0.0198 l -0.0297,-0.0198 -0.0357,0.0218 -0.0436,0.0278 v 0.0357 0.0436 h 0.0218 0.0357 z m 0.33861,0.12886 0.0277,-0.0297 v -0.0278 -0.0357 l -0.0892,-0.13481 -0.0198,7.9e-4 h -0.0357 l -0.0496,0.0198 -0.10111,0.0436 h -0.0198 v 0.0218 0.0218 l 0.17842,0.11696 h 0.0436 l 0.0436,-0.0198 z m -8.38203,0.26268 0.0436,-0.0198 0.0575,-0.0575 0.0575,-0.0991 -0.0198,-0.0853 -0.0496,-0.17445 -0.0654,-0.0297 -0.0853,0.0218 -0.0575,0.0218 -0.0575,0.0357 -0.0932,0.25772 0.002,0.0277 0.0218,0.0357 0.0218,0.0198 0.0892,0.0516 h 0.0575 0.0734 z m -7.143,-0.0218 0.0436,-0.0496 0.0198,-0.0575 0.0218,-0.0198 v -0.0297 l -0.0198,-0.0793 -0.0277,-0.0436 -0.0218,-0.0198 h -0.0436 l -0.0278,0.0278 -0.11101,0.19626 v 0.0496 l 0.0218,0.0357 0.0496,0.0198 h 0.0436 l 0.0436,-0.0278 z m 15.54663,1.82426 0.0793,-0.0357 0.13085,-0.0654 0.20062,-0.293 0.0833,-0.79814 0.002,-0.25772 v -0.0496 l -0.17248,-0.49938 -0.0277,-0.0278 -0.18437,0.0198 -0.0357,0.0218 -0.0218,0.0198 -0.0912,0.0952 -0.23175,0.70853 v 0.0297 l 0.0575,0.67404 0.15661,0.4857 0.0714,-0.0198 z m -8.6786,-1.62799 0.0833,-0.0198 0.0357,-0.0436 v -0.0218 l -0.0218,-0.0218 -0.0575,-0.0575 -0.0575,-0.0218 h -0.0575 l -0.0654,0.0218 -0.0436,0.0357 -0.0218,0.0277 v 0.0297 l 0.0218,0.0436 0.0357,0.0198 h 0.10706 0.0575 z m -0.1249,0.66828 0.0575,-0.0218 0.0496,-0.0734 v -0.0496 l -0.0496,-0.0218 h -0.0297 l -0.0357,0.0198 -0.0436,0.0932 0.002,0.0198 v 0.0297 l 0.0278,0.0218 0.0198,-0.0198 z m -0.22302,-0.11102 -0.0357,-0.0218 h -0.0297 l -0.0278,0.0198 -0.0436,0.0357 v 0.0357 0.0575 0.0297 h 0.0793 l 0.0734,-0.0436 0.0297,-0.0198 0.0496,-0.0357 v -0.0436 l -0.0218,-0.0277 -0.0357,0.0198 h -0.0575 z m 9.57111,2.26813 -0.0278,0.0198 v 0.0218 0.0218 l 0.0436,0.11102 h 0.0218 l 0.0297,7.9e-4 0.0198,-0.0218 0.0357,-0.0714 v -0.0357 l -0.0198,-0.0218 h -0.0277 l -0.0297,-10e-4 h -0.0297 l -0.0198,-0.0218 z m 6.86148,5.63692 -0.10507,-0.36516 -0.60623,-1.08401 -1.55009,-1.39922 -0.0357,-0.0297 -0.13679,-0.0753 -0.53388,-0.0198 -0.0198,-0.0654 -0.24028,-0.13084 -0.10507,-0.0436 -0.11498,0.0277 -0.59454,0.27061 -0.0833,0.0436 -0.40859,2.34961 -0.0277,0.54914 0.0218,0.10904 0.14868,0.3386 0.0496,0.10904 0.23453,0.13282 0.10705,0.0436 0.18239,0.0218 0.0971,-0.0198 -0.18239,0.60326 -0.43812,1.26956 -0.0357,0.0952 -0.0496,0.0515 -0.113,0.1011 -0.13084,0.0654 -0.14274,0.0436 -0.19031,-0.0912 -0.73827,-0.42722 -0.0357,-0.0357 -0.15859,-0.23294 -0.0436,-0.0654 -0.49204,-0.82054 -0.70794,3.07578 -0.31105,0.86812 -0.31818,0.28786 -2.23007,1.763 -2.02131,0.57154 -0.0753,-0.0278 -0.82847,0.0793 -0.12292,0.16851 -0.5426,1.24479 -0.36298,0.94028 0.50433,2.97547 1.32072,2.54012 0.0575,0.0357 0.12093,0.0357 1.2652,0.1467 0.35704,0.0198 3.07638,-0.19626 0.56659,-0.21291 0.42365,-0.18636 1.43887,-0.96684 1.14824,-0.7347 0.12886,-0.0496 0.20062,0.0198 0.0773,0.0198 0.0714,0.0218 0.11696,0.0773 0.10111,0.25772 0.0218,0.14274 -0.002,0.0496 0.0198,0.113 0.0357,0.11102 0.24741,0.1804 0.14075,0.0833 3.98792,-0.0357 0.21291,-0.16653 0.32552,-0.78584 0.15067,-2.07187 v -0.0575 l -0.17644,-0.43674 -0.17446,-0.19983 -0.0496,-0.0297 h -0.0753 l -0.0654,0.0198 h -0.0436 -0.22441 l -0.18635,0.001 h -0.0773 v -0.0793 l 0.10111,-1.03326 0.0357,-0.12688 0.18041,-0.31818 0.0436,-0.0357 0.20499,-0.0991 0.0436,0.0198 0.60326,0.24027 0.1923,0.0833 0.0654,0.0436 v 0.0734 l -0.0496,0.0654 -0.0773,0.0357 h -0.0773 -0.0773 l -0.0297,0.0357 -0.0198,0.0436 0.0277,0.0297 0.16851,0.0198 h 0.0991 0.24523 l 0.43297,-0.2258 0.10705,-0.113 0.7347,-1.14388 v -0.0654 -0.0654 l -0.24404,-0.26981 -0.0436,-0.0297 -0.0496,0.0357 -0.0277,0.0654 -0.0198,0.0654 -0.18238,-0.0753 -0.35863,-0.14671 -0.0218,-0.0357 v -0.10507 -0.0436 l 0.002,-0.32334 v -0.14076 l 0.0198,-0.0852 -0.0198,-0.0278 -0.23374,-0.11498 -0.22381,0.0496 -0.85226,0.53249 -0.27358,0.41651 -0.90262,0.17842 0.79596,-2.28101 -0.17049,-2.20608 -0.0872,-0.52476 -0.0436,-0.0436 -0.0436,-0.0357 -0.0436,-0.0198 -0.57531,-0.19428 -0.0575,-0.0198 -0.10111,0.0436 -0.41354,0.25197 -0.0833,0.0773 -0.0218,0.20063 v 0.0357 l -0.39907,-0.96565 -0.38895,-1.83159 1.08678,-0.81043 z m -46.11118,0.97775 0.12688,-0.0951 v -0.0575 l -0.0654,-0.17445 h -0.20558 -0.0198 -0.0496 l -0.0753,0.001 -0.0813,0.0198 v 0.0714 0.0218 l 0.0991,0.21073 0.17644,0.0357 0.0932,-0.0198 z m -0.61119,0.10706 0.0278,-0.0297 0.0357,-0.0734 0.0198,-0.0496 v -0.0297 -0.0218 l -0.0496,-0.0714 -0.0714,0.0436 -0.12688,0.14274 -0.0218,0.11894 0.0892,0.0297 0.0853,-0.0714 z m -0.13877,0.96843 0.16454,-0.32473 v -0.0357 -0.0218 -0.0297 l -0.0357,-0.0277 -0.0297,-0.0218 v -0.0277 l -0.0218,-0.0496 -0.0436,-0.0357 -0.0218,-0.0218 -0.22302,-0.0852 -0.0357,0.0297 -0.14472,0.16653 -0.0496,0.11697 -0.10308,0.32631 0.0496,0.13282 h 0.27496 l 0.22085,-0.0852 z m 39.04768,0.0872 0.28151,-0.113 0.0357,-0.0218 -0.002,-0.16851 -0.0297,-0.0575 -0.0218,-0.0793 -0.0436,-0.0436 -0.0932,-0.0218 -0.42504,0.10903 -0.0198,0.0496 0.0198,0.1705 0.0198,0.0793 0.0496,0.0833 0.0297,0.0496 h 0.0714 l 0.12688,-0.0436 z m -14.15931,0.40284 -0.0218,-0.0198 -0.0436,-0.0793 v -0.0278 l -0.10507,-0.49581 -0.0198,-0.0218 -0.17049,-0.0793 -0.0852,0.0218 -0.53328,0.35367 -0.20717,0.31105 -0.70714,1.10482 -0.0198,0.0496 -0.0198,0.0714 -0.0198,0.0991 -0.0436,3.79858 0.66531,0.99678 0.0218,0.0218 0.73529,0.55925 0.48055,0.3616 1.21029,0.22799 0.48788,-0.12292 1.16827,-0.80032 1.36115,-1.46999 0.0198,-0.0218 0.0654,-0.16058 0.0198,-0.0278 0.0278,-0.0952 0.44387,-1.47078 0.0496,-0.18239 v -0.0436 l -0.10903,-0.45894 -0.0218,-0.0278 -0.46132,-0.17643 -0.16653,0.12489 -0.0813,0.0436 -0.0654,0.0218 h -0.0436 l -0.0773,-0.0496 -0.0496,-0.0496 -0.0218,-0.0575 v -0.0496 -0.0575 l 0.0198,-0.0575 0.0714,-0.28646 -0.38896,-0.67047 -0.0892,-0.31957 -0.0833,-0.49938 -0.0198,-0.0496 -0.0297,-0.0575 -0.0753,-0.12093 -0.0357,-0.0496 -0.46053,-0.28567 -0.0654,-0.0297 -0.0813,-0.0357 -0.10507,0.0218 -0.0753,0.0436 -0.0436,0.0436 -0.0277,0.0297 0.002,0.22085 -0.19626,0.0496 -0.47064,0.10507 -1.51321,-0.17644 z m -3.84002,0.72816 0.0198,-0.0357 0.0198,-0.0436 v -0.18041 l -0.0198,-0.19229 -0.21866,-0.62705 -0.0753,-0.0198 -0.113,-0.0218 -0.51386,0.47044 0.002,0.33781 0.0773,0.26268 0.113,0.35585 0.70635,-0.30609 z m -34.09867,-0.0714 0.0436,-0.384 -0.0198,-0.0575 -0.0793,-0.22164 -0.23968,-0.28786 -0.0575,-7.9e-4 -0.0654,0.0575 -0.15067,0.34713 v 0.0297 l -0.0575,0.27278 v 0.0297 l 0.46826,0.34197 0.0833,0.0496 0.0734,-0.18041 z m 51.63331,0.0575 0.0654,-0.0218 h 0.0357 l 0.0793,-0.0714 0.0496,-0.0813 -0.0198,-0.0357 -0.0297,-0.0654 -0.0198,-0.0278 h -0.0436 l 0.0218,-0.0357 v -0.0357 l -0.0297,0.002 -0.0496,0.0198 -0.0575,0.0297 -0.0496,0.18437 v 0.0297 0.0297 0.0714 l 0.0198,0.0357 h 0.0277 z m -9.84112,1.06517 0.0198,-0.0218 v -0.0357 l 0.0357,-0.0357 0.0436,-0.0297 0.0198,-0.0297 v -0.0278 -0.0297 l -0.12093,-0.0496 -0.0297,0.0218 v 0.0357 0.0773 l 0.0198,0.11696 0.0198,0.0357 h 0.0198 l 0.0218,-0.0297 z m 27.8125,0.21352 0.0357,-0.0912 -0.54497,0.7014 -1.3459,-0.24523 -0.99301,0.46825 0.18437,1.49676 0.0575,0.98944 -0.45041,2.16564 -0.78724,1.42955 -0.11894,-0.10111 -0.0496,-0.0357 -0.0654,-0.0297 -0.33127,-0.12489 -0.14868,-0.0575 -0.0912,-0.0278 -0.0436,-0.0198 -0.33127,-0.0654 -0.10308,0.0575 -0.29797,0.24979 -0.0357,0.0991 -0.0357,0.21212 0.47976,0.24048 0.26704,0.21648 0.0357,0.0436 v 1.26005 l -0.28072,0.4756 -0.74837,0.30946 0.13282,0.95772 0.80468,2.18011 0.70437,-0.0773 h 0.0198 l 0.22085,0.18833 0.0218,0.0198 0.27139,1.57031 v 0.0892 l -0.0218,0.0654 -0.33048,0.17644 -0.14472,0.0436 h -0.0496 -0.0813 l -0.52833,-0.0198 -0.0734,-0.0198 -0.65381,-0.20856 -0.10111,-0.0734 -0.0297,-0.0218 -0.0218,-0.0496 -0.0297,-0.0496 -0.0277,-0.0357 -0.73549,-0.65521 -0.0278,-0.0198 -0.27715,-0.0278 -0.0357,0.0734 0.0198,0.36874 -0.21945,0.88041 -0.0952,0.37251 -0.0218,0.0852 h -0.0575 l -0.0654,0.0218 -0.0654,0.0436 -0.0297,0.0654 -0.10705,0.43297 v 0.0654 0.0575 l 0.0872,0.59534 0.24027,0.47995 0.0654,0.0952 0.0773,0.0575 0.22877,0.22877 v 0.0654 l -0.0218,0.0436 -0.84592,0.24107 -0.28508,0.0575 h -0.0218 l -0.25752,-0.0654 -0.0218,-0.0198 -0.0833,-0.0575 -0.24087,-0.19626 -0.15463,-0.19627 -0.12093,-0.0912 -0.1249,0.0971 -0.2599,0.37726 -0.0198,0.0753 -0.0198,0.11101 0.0575,0.29024 0.0575,0.0654 0.0733,0.0793 0.45538,0.30232 0.0813,-0.0198 -0.14671,1.32428 v 0.14472 0.0277 l 0.13481,0.47995 0.0218,0.0357 0.0218,0.0297 0.113,0.0654 h 0.0654 l 1.05229,-0.23235 0.0357,-0.0218 0.62051,-0.72182 0.0496,-0.12886 0.11498,-0.33265 v -0.0218 l -0.0357,-0.0218 -0.28944,-0.0218 h -0.0932 l 1.02038,-1.78104 0.42365,-0.29579 0.96188,-0.18437 0.0436,8e-4 0.0496,0.0218 0.37607,0.59474 0.24464,0.86237 v 0.0357 l -0.0198,0.17049 -0.0218,0.0575 -0.0496,0.0932 -0.0575,0.10904 -0.0357,0.0496 3.34044,1.89939 2.70843,-0.29816 0.0436,-0.0496 0.21728,-0.25752 0.0932,-0.19032 v -0.0575 -0.55152 l -0.15463,-0.36874 -0.0971,-0.20419 -0.0971,-0.14472 -0.0575,-0.0852 -0.0793,-0.0198 -1.58914,0.0734 -0.81182,0.29142 -0.27575,0.22164 -0.0436,0.13084 v 0.13878 l -0.0654,0.21648 -0.2036,0.23155 -0.12489,0.0198 -0.45101,-0.0357 -0.10507,-0.0436 -0.0773,-0.0575 -0.0654,-0.10507 -0.0575,-0.17049 0.17842,-1.46425 0.0575,-0.17644 1.15399,-1.04654 1.27789,-1.17044 0.98885,-1.03702 0.36874,-3.66894 1.26362,-1.58398 0.0218,0.0357 0.0496,0.0297 h 0.0357 0.0496 l 0.22521,-0.1249 0.29598,-0.94107 0.0912,-0.40561 v -0.0496 -0.14076 l -0.0198,-0.0654 -0.29578,-0.42147 -1.18076,-0.74758 -0.0436,-0.0297 -0.17049,-3.73019 -1.76023,-1.02751 -0.15264,-0.0496 -0.0971,-0.17247 -0.48788,-1.05071 -0.0654,-0.63359 z m -27.61049,-0.0773 -0.0297,-0.0436 -0.0198,-0.0198 h -0.0436 l -0.0218,0.0218 -0.0198,0.0277 -0.0218,0.002 h -0.0277 -0.0297 v 0.0357 0.0436 0.0218 l 0.0575,0.0496 0.0892,0.0297 0.0218,-0.0218 0.0297,-0.0654 v -0.0218 -0.0714 z m -19.14816,3.92507 -0.0198,0.002 h -0.0218 v 0 l -0.0218,0.0218 v 0 0.0892 0.0436 l 0.0198,0.0218 0.0297,0.0198 h 0.0496 l 0.0277,-0.0278 0.0912,-0.0952 0.0198,-0.0218 -0.0198,-0.0218 h -0.0357 -0.0297 -0.0714 l -0.0218,-0.0218 z m 42.94539,1.65257 0.0218,-0.0436 -0.0853,-0.23889 -0.0575,-0.0753 -0.0357,-0.0198 -0.0218,0.0357 -0.0218,0.0853 v 0.0575 0.0297 l 0.0218,0.0357 0.0932,0.10507 0.0278,0.0297 h 0.0357 l 0.0436,-0.0198 z m -28.71451,0.0654 0.11696,-0.0357 v -0.0218 -0.0793 -0.0297 -0.0575 l 0.0198,-0.11697 -0.002,-0.0436 v -0.0297 l -0.0436,-0.0218 h -0.0218 l -0.0297,0.0218 -0.0912,0.17842 v 0.0357 0.14868 l 0.002,0.0297 0.0278,0.0218 h 0.0357 z m 28.72383,0.45398 h -0.0357 l -0.23888,0.0277 0.002,0.0357 0.11498,0.34435 0.12093,0.0734 0.0496,0.0198 h 0.0357 l 0.0436,-0.13878 -0.0218,-0.32413 -0.0357,-0.0277 -0.0357,0.0198 v -0.0218 z m -1.99753,1.17619 h -0.0218 v 0.0496 0.0496 l 0.0218,0.0575 0.0436,0.0932 0.0714,0.13877 0.0218,0.0436 0.0357,0.0198 0.12093,-0.0753 0.0357,-0.002 0.26486,0.1249 -0.002,0.0496 0.0278,0.002 0.0297,-0.0218 0.0198,-0.0278 0.0436,-0.0872 0.0198,-0.0496 -0.0297,-0.0436 -0.0496,-0.0575 -0.0575,-0.0357 -0.0734,-0.0277 -0.0714,0.0932 -0.0357,0.0297 -0.0357,0.0198 -0.0515,-0.0198 -0.0357,-0.0297 -0.1011,-0.16454 h -0.0654 l -0.11102,-0.12688 z m 17.49797,1.07172 -0.0654,-0.0436 -0.0496,0.0218 -0.0516,0.0277 0.0575,0.0793 0.11301,0.0773 v -0.15662 z m -0.0714,0.28071 0.0218,-0.0357 0.0218,-0.0357 -0.0357,-0.0496 -0.0198,-0.0198 -0.11895,-0.0198 -0.0297,0.12292 0.13084,0.0833 0.0297,-0.0436 z m -0.40125,0.58443 0.14472,-0.11498 -0.0496,-0.0773 -0.22937,0.0496 -0.0218,0.0277 -0.0357,0.0496 0.0198,0.0496 0.0198,0.0575 0.15463,-0.0436 z m 0.34773,0.0575 -0.0278,-0.0198 -0.0496,-0.0218 -0.0297,0.0496 -0.0218,0.0357 0.12687,0.0496 v -0.0952 z m -24.69409,2.17932 0.2815,-0.26486 0.11697,-0.14868 0.0218,-0.38182 v -0.33841 -0.0357 l -0.13481,-0.35447 -0.0436,-0.0357 -0.10309,-0.0734 -0.34574,0.26763 -0.24166,0.18833 -0.0436,0.0793 v 0.0575 l 0.48788,1.0398 0.0198,8e-4 z m 7.25896,0.63855 v -0.0218 -0.0277 l -0.0436,-0.0892 -0.0218,-0.0278 -0.21371,0.0932 v 0.0198 l 0.0198,0.0733 v 0.0198 h 0.0218 l 0.12292,0.0218 0.10705,-0.0575 z m -9.00749,7.00521 h 0.0515 l 1.09531,-0.26267 0.73331,-0.26486 0.40977,-0.16256 0.19845,-0.0892 0.23611,-0.13877 0.11696,-0.12292 0.0892,-0.12687 0.10706,-0.17248 0.12291,-0.35862 0.12688,-0.38024 0.0833,-0.27061 0.0714,-0.25038 0.0892,-0.44744 0.0198,-0.13877 v -0.0952 -0.15067 l -0.50513,-2.06611 -0.14472,-0.36517 -0.12489,-0.25971 -0.18239,-0.316 -0.15661,-0.26287 -0.0813,-0.0734 -0.0496,-0.0436 -0.0654,-0.0297 -0.41771,-0.13084 -0.24027,-0.0357 -1.40219,0.0654 -0.0734,0.0773 -0.0912,0.0951 -2.90747,3.08947 -0.0218,0.0436 -0.30748,1.70452 -0.0198,0.43297 v 0.16454 0.0436 l 0.0218,0.0357 3.11463,1.27789 h 0.0952 z m -22.28461,-5.131 -0.0198,-0.0654 -0.0575,-0.0892 -0.0753,-0.0773 -0.0714,-0.0278 -0.0198,-0.0297 -0.0297,0.0357 -0.0218,0.0297 0.0218,0.17445 0.0793,0.0357 0.0932,0.0218 0.0773,0.0218 0.0218,-0.0277 z m 30.1845,-0.0357 V 35.884 l -0.0218,-0.0198 -0.0357,-0.0198 -0.0575,-0.0297 -0.0218,0.0297 -0.0198,0.0278 v 0.0357 0.0357 0.0357 l 0.17644,0.22461 0.0297,0.0218 0.0218,0.0198 h 0.0218 0.0833 l 0.0218,-0.0218 v -0.0278 l -0.0218,-0.0714 -0.1348,-0.23235 -0.0297,0.0198 -0.002,-0.0218 z m -11.22884,1.65833 h -0.0297 l -0.11697,0.0496 -0.0436,0.0436 v 0.10705 0.0496 0.0436 0.0436 l 0.0575,0.12886 0.0436,0.0218 0.25911,-0.0297 0.0436,-0.0277 0.0357,-0.0654 v -0.0654 l -0.0714,-0.21014 -0.0218,-0.0436 h -0.17049 v -0.0575 z m -15.10494,2.43564 0.1923,-0.0892 0.0952,-0.0753 -0.0278,-0.0872 -0.0198,-0.0198 -0.0714,-0.0496 -0.1804,-0.11697 -0.0892,-0.0198 -0.0714,-0.0734 -0.46191,0.0714 -0.0436,0.18239 v 0.15661 l 0.30748,0.10111 0.0912,0.0198 0.11499,0.0198 0.16256,-0.0218 z m 37.03866,3.0288 0.0714,-0.0357 0.16652,-0.4187 0.0297,-0.0714 v -0.0575 l -0.17247,-0.43078 -0.43158,-0.29301 -0.0436,-0.10904 -0.0357,-0.0198 -0.0753,0.0357 -0.0773,0.0952 -0.0297,0.0496 -0.0734,0.25316 -0.0218,0.0753 0.0892,0.27794 0.0496,0.13679 0.53903,0.49581 h 0.0297 z m 0.34277,-1.01402 h 0.0218 l 0.0357,-0.0357 v -0.0436 l -0.0198,-0.0773 -0.0277,-0.0654 0.12886,-0.11696 -0.0436,-0.0218 -0.26049,0.18437 -0.0198,0.0218 v 0.0575 l 0.0277,0.0575 0.0436,0.0297 v 0 h 0.0198 0.0714 z m -6.41464,3.49487 0.0654,-0.0198 0.0575,-0.12093 v -0.0218 l -0.0436,-0.58027 -0.0218,-0.10507 -0.0436,-0.0872 -0.0436,-0.0872 -0.0357,-0.0575 h -0.0278 -0.0575 l -0.17446,0.0951 -0.0297,0.0198 -0.0357,0.0714 -0.0753,0.21509 v 0.0278 l 0.0515,0.21946 0.0436,0.0218 -0.0218,0.0714 -0.0515,0.0496 -0.1586,0.0892 -0.0297,0.0971 v 0.0575 l 0.0357,0.0218 0.49066,0.0357 0.0991,-0.0198 z m -0.47064,-0.39173 v -0.0357 l -0.0297,-0.15066 -0.0278,-0.0436 -0.0297,-0.0277 -0.0654,0.0218 -0.0218,0.0575 0.0218,0.15661 0.0218,0.0218 0.0734,0.0218 0.0496,-0.0218 z m 15.43899,3.8983 h 0.36873 l 0.36597,-0.0198 0.43376,-0.45894 0.0357,-0.0357 -0.14273,-0.28864 -0.47698,-0.58027 -0.16058,-0.0793 -0.0971,-0.0198 -0.10706,-0.0198 -1.31417,-0.15265 -0.0297,-0.0515 h -0.11102 l -0.0853,0.0278 -0.22739,0.12093 v 0.0357 l -0.0198,0.0952 0.0198,0.0436 0.35923,0.27497 0.28805,0.26843 0.13084,0.13084 0.11102,0.17049 0.0218,0.0357 v 0.0496 l -0.1348,0.0714 0.14273,0.11697 0.0932,0.0654 0.37964,0.20122 0.1586,-10e-4 z m -0.91649,-0.56797 -0.0436,-0.0575 -0.0357,-0.0575 -0.0436,-0.0357 -0.0278,-0.0198 -0.0833,-0.0436 -0.0297,-0.0198 h -0.0218 -0.0357 -0.0714 l -0.0198,0.0277 v 0.0436 l 0.13084,0.0912 0.12291,0.0753 0.0912,0.0357 0.0575,-0.0436 z m -97.33393,1.75725 -0.0218,-0.0278 v -0.0436 -0.0198 l -0.0991,0.0357 v 0.0654 0.0218 l 0.11499,-0.0278 z m 0,0 -0.0198,0.0297 -0.0357,0.0852 -0.0198,0.0991 0.12291,-0.0496 0.0297,-0.0575 0.0496,-0.0892 0.0198,-0.0515 v -0.0436 h -0.0952 l -0.0357,0.0357 -0.0297,0.0496 z m 93.07838,1.39505 -0.113,-0.0436 -0.2367,0.0853 -0.0654,0.0436 v 0.0357 0.0436 l 0.0277,0.0575 0.0793,0.0714 0.2938,0.11696 0.13084,6e-4 0.0575,7.9e-4 0.0654,-0.0277 0.0575,-0.0218 h 0.0436 l 0.0357,0.0277 0.0753,-0.0496 0.0654,-0.17445 v -0.0218 -0.0654 -0.0357 l -0.0357,-0.0277 -0.0357,-0.0198 -0.0357,0.0218 h -0.0654 l -0.3277,-0.0357 z m 15.91815,7.71296 0.0714,-0.0853 0.0852,-0.1586 0.0218,-0.0436 0.0198,-0.15463 -0.0436,-0.2375 -0.0297,-0.0436 -0.0218,-0.0436 -0.0198,-0.0218 h -0.0198 l -0.17644,0.0575 -0.0198,0.0198 -0.0218,0.0218 -0.0773,0.0852 -0.0436,0.14472 v 0.0496 0.0654 l 0.0436,0.16851 v 0.0218 l 0.0297,0.0654 v 0.0218 l 0.0218,0.0297 0.11696,0.0654 h 0.0496 z m -0.15265,1.70808 0.61496,-0.69703 0.0496,-0.10507 0.0218,-0.12291 v -0.0278 l -0.0575,-0.12489 -0.14869,-0.0654 v -0.0575 l -0.0218,-0.0436 -0.49006,0.1923 -0.0872,0.0515 -0.34574,0.26763 -0.26922,0.49661 v 0.0575 0.0654 l 0.0297,0.0575 0.0357,0.0714 0.0278,0.0575 0.0654,0.0357 0.17644,0.0654 0.4062,-0.17842 z m 1.08183,-0.39391 0.0218,-0.0297 0.0357,-0.0357 0.10309,-0.13481 0.0297,-0.0515 v -0.0277 l -0.0357,-0.36953 -0.0297,-0.0357 h -0.0277 -0.12688 l -0.19844,0.0218 -0.0575,0.0496 -0.0872,0.14274 -0.0654,0.1804 -0.0357,0.10507 v 0.0297 l 0.0357,0.0357 0.36953,0.12291 0.0436,0.0198 h 0.0277 z m -1.44482,0.8471 -0.0198,-0.0198 -0.0496,-0.0436 h -0.0297 -0.0357 l -0.0654,0.0297 -0.0912,0.0932 -0.0198,0.0278 0.0198,0.0218 0.12886,0.1348 0.26842,0.0654 0.23968,-0.0654 0.0773,-0.0515 v -0.0773 l -0.0297,-0.0198 -0.25336,-0.0436 -0.0654,0.0198 -0.0892,-0.0833 z m 1.44839,1.82505 v -0.15661 l 0.0218,-0.0773 v -0.0277 l -0.0198,-0.0357 -0.0198,-0.0297 -0.0198,-0.0357 -0.0218,-0.0357 -0.0436,-0.0357 h -0.0932 l -0.13481,0.19032 -0.0218,0.0575 -0.0198,0.0853 v 0.0218 0.0357 l 0.0496,0.13282 h 0.0218 l 0.11697,0.0357 h 0.0218 l 0.11697,-0.12886 z m -0.27854,0.66036 v -0.0436 l 0.0218,-0.38182 -0.0496,-0.20578 -0.0198,-0.0357 -0.0654,-0.0436 h -0.0297 l -0.13877,0.0277 -0.12688,0.0853 -0.0218,0.0436 -0.0297,0.0714 v 0.0654 l 0.0436,0.23532 0.0198,0.0357 0.0198,0.0357 0.0278,0.0496 0.0436,0.0436 0.0278,0.0198 0.0912,0.0297 h 0.0575 0.0654 l 0.0575,-0.0218 z m 2.73143,7.17094 0.0853,-0.11498 -0.0357,-0.0813 -0.0218,-0.0277 -0.0357,-0.0357 -0.0991,-0.0654 -0.0813,-0.0218 -0.0198,0.0357 -0.0198,0.0575 v 0.15661 l 0.0773,0.0654 0.0654,0.0436 h 0.0734 z m -0.39986,0.48868 0.0218,-0.0654 -0.0575,-0.0833 -0.1011,-0.0515 h -0.0575 l -0.0357,0.0198 v 0.11101 l 0.0496,0.0436 0.0654,0.0357 0.0357,0.0198 0.0734,-0.0218 z m 7.43303,3.97562 v -0.58324 l -0.0436,-0.16851 -0.0357,-0.0654 -0.0218,-0.0654 -0.0297,-0.0198 h -0.10308 l -0.55351,0.1923 -0.7115,0.83996 -0.40402,0.6215 v 0.0436 l -0.0496,0.10705 -0.0496,0.0714 -0.2938,0.22521 h -0.0198 l -0.70794,-0.30808 -0.0575,-0.0436 -0.0575,0.0496 -0.0654,0.0932 -0.0198,0.0932 v 0.0654 0.0496 l 0.14274,0.34198 0.93532,1.0955 0.27854,0.0991 0.0892,0.0277 0.81479,0.0734 0.0654,-0.0357 0.17247,-0.13085 0.33127,-0.4179 0.11697,-0.19031 0.2821,-2.06097 z m -2.09863,0.27199 0.0654,-0.0218 0.0297,-0.0198 0.0496,-0.0357 0.0198,-0.0297 v -0.0575 l -0.0436,-0.0198 h -0.0654 -0.0575 v 0.0218 0.0496 0.0496 l -0.0436,0.0218 v 0.0436 h 0.0218 l 0.0357,-0.0198 z m -3.43996,1.47 h 0.0496 l 0.0654,-0.11895 -0.0198,-0.0278 -0.0218,-0.0357 -0.0714,-0.0436 h -0.0357 l -0.10705,0.0575 -0.0297,0.0297 0.002,0.0357 0.0218,0.0297 0.0218,0.0357 0.0575,0.0357 h 0.0357 0.0277 z m -0.34575,1.06002 -0.0436,-0.0278 -0.0952,-0.0297 h -0.0297 l -0.0436,0.0357 -0.2036,0.26327 v 0.0733 l 0.0297,0.11697 0.0357,0.0733 0.0198,0.0198 0.16454,0.10111 0.0872,0.0436 0.61992,0.11697 h 0.0277 0.0357 l 0.0218,-0.0218 0.0357,-0.0872 v -0.0277 -0.0496 -0.0436 l -0.19032,-0.44228 -0.0198,-0.0198 -0.0872,-0.0436 h -0.12292 l -0.0575,0.0198 -0.0654,0.0297 -0.12291,-0.10309 z m -2.59146,0.46766 -0.0357,-0.0277 h -0.0496 l -0.0575,0.0218 -0.0218,0.0278 -1.19146,1.57328 -0.0833,0.12092 -0.0198,0.0496 0.0198,0.0357 0.41929,0.69921 0.5196,0.20202 0.31244,0.0496 0.12093,0.0198 h 0.0813 0.12489 l 0.13085,-0.0496 0.60465,-0.38618 0.0852,-0.36795 0.0198,-0.73965 -0.0198,-0.33999 v -0.0833 l -0.0218,-0.0932 -0.0218,-0.0714 -0.0436,-0.0654 -0.0496,-0.0833 -0.0575,-0.0496 -0.17247,-0.12291 -0.10111,-0.0218 h -0.0496 l -0.26624,0.12093 -0.16653,-0.41572 z m 1.95866,0.70139 0.18239,-0.0773 0.0575,-0.0357 0.13481,-0.10705 0.0198,-0.0277 h -0.0198 l -0.65441,-0.33762 -0.27219,0.0813 -0.10309,0.0952 -0.10309,0.14274 -0.0218,0.0793 v 0.0932 l 0.0297,0.0952 0.10904,0.0575 0.64945,-0.0575 z m -13.13774,8.30273 0.0198,-0.0575 -0.0833,-0.0654 -0.0436,-0.0357 -0.0436,-0.0218 -0.31898,0.0198 v 0.0198 l 0.0198,0.0218 0.31897,0.22818 v 0 h 0.0198 l 0.0793,0.0198 0.0436,-0.12291 z m -161.99318,9.478731 0.0218,-0.01983 0.0218,-0.01982 v -0.01982 l 0.0357,-0.144719 v -0.02974 -0.508699 -0.301733 l -0.0218,-0.0357 h -0.0297 l -0.64291,0.0198 -0.0198,0.0218 v 0.0218 l 0.25395,0.946819 0.0357,0.03568 0.0436,0.02181 0.19428,0.02181 0.0773,-0.01982 z m 190.04872,11.116429 0.0932,-0.0436 0.0218,-0.0198 0.15067,-0.10308 0.14869,-0.10111 0.0654,-0.27358 v -0.0872 l -0.0654,-0.17445 -0.11697,-0.18437 -0.0872,-0.12886 -0.1011,-0.14472 -0.28726,-0.27081 -0.39055,-0.0575 h -0.35287 l -0.0932,0.0218 -0.0575,0.0218 -0.0575,0.0297 0.0932,0.84869 0.0297,0.0932 0.56203,0.6221 0.0575,0.0654 0.38836,-0.11895 z m -13.74953,6.04016 h -0.0198 l -0.10705,0.0714 v 0 l -0.0198,0.0436 -0.0198,0.0654 v 0.0198 l 0.0198,0.0773 0.0496,0.14273 0.0436,0.0575 h 0.0218 0.0198 0.0218 l 0.0575,-0.0297 0.20994,-0.11894 0.0198,-0.0198 0.0515,-0.0436 v -0.0198 l 0.0198,-0.0218 -0.0278,-0.0892 -0.0357,-0.11499 -0.0198,-0.0198 h -0.0198 -0.10111 -0.0198 l -0.0575,0.001 h -0.0793 l -0.0198,-0.0198 z m -14.98501,9.40379 0.0991,-0.0218 0.0515,-0.0852 0.0734,-0.18834 -0.0496,-0.0932 -0.21073,-0.0714 -0.0436,0.0714 -0.0436,0.22521 v 0.0892 l 0.0496,0.0991 0.0813,-0.0297 z m 26.48743,2.29846 0.0198,-0.0515 v -0.0654 -0.0436 h -0.0218 l -0.0436,0.0297 -0.0357,0.0575 -0.0198,0.0575 0.0357,0.0357 h 0.0278 l 0.0357,-0.0218 z m -0.37965,0.77355 0.0991,-0.16058 v -0.0991 l -0.0496,-0.0436 -0.0357,-0.0297 -0.0357,-0.0297 -0.10904,-0.0198 -0.0218,0.0496 -0.0357,0.0892 v 0.0734 l 0.0496,0.17644 0.0218,0.0436 0.12291,-0.0575 z m -29.50392,-0.0436 0.0357,-0.0297 0.0496,-0.0436 0.0297,-0.15859 -0.0297,-0.0436 -0.0496,-0.1249 -0.35645,0.16256 -0.16851,0.22006 v 0.0932 l 0.16455,0.0734 0.0952,0.0357 0.23809,-0.18239 z m 31.55418,-0.0218 0.0297,-0.0218 v -0.0357 -0.0496 l -0.0654,-0.0575 -0.0218,0.0357 -0.11696,0.0218 h -0.0753 v 0.0357 l 0.0833,0.0496 0.13084,0.0218 h 0.0218 l 0.0357,-0.0198 z m -0.15066,0.30946 0.0218,-0.0218 0.0198,-0.0575 -0.0496,-0.18635 h -0.0575 l -0.0277,0.0297 -0.0357,0.0436 v 0.0813 l 0.0297,0.0853 0.0793,0.0575 0.0357,-0.0357 z m -2.13452,0.0515 0.0813,-0.0357 -0.12291,-0.21351 -0.0872,0.0297 -0.0654,0.0714 -0.0575,0.0714 0.11895,0.12886 0.12489,-0.0436 z m 1.32627,-0.0872 0.0436,-0.0436 v -0.0436 l -0.0714,-0.0654 -0.0575,0.0436 0.0436,0.11895 h 0.0436 z m -17.51145,-0.0297 0.113,-0.0198 0.0734,-0.0297 v -0.0357 l -0.0357,-0.0357 h -0.0833 l -0.0218,0.0198 -0.0654,0.0496 -0.0436,0.0357 -0.0714,0.0793 0.0198,0.0198 0.0496,0.0218 0.0654,-0.0971 z m 19.69889,1.01245 0.0436,-0.0357 0.13679,-0.16653 0.0198,-0.0436 -0.113,-0.11498 h -0.0872 l -0.20419,0.22223 v 0.15067 l 0.0575,0.0218 h 0.0932 l 0.0496,-0.0357 z m -33.63755,0.26267 0.25475,-0.0714 0.0852,-0.0297 0.34852,-0.28944 0.0575,-0.0753 v -0.11696 l -0.0892,-0.0198 -0.113,-0.0218 -0.79953,0.42722 -0.0575,0.0436 -0.0218,0.0198 0.0575,0.14075 h 0.0872 0.0952 l 0.10705,-0.0218 z m -0.0218,-0.39332 0.0813,-0.0297 -0.0654,-0.15463 h -0.0575 -0.0654 l -0.0753,0.0436 -0.0218,0.0892 0.0198,0.0297 0.0357,0.0575 0.15067,-0.0198 z m 4.19409,0.21431 0.0734,-0.0575 0.0872,-0.14274 v -0.0297 l 0.0198,-0.0515 -0.11498,-0.0575 h -0.10705 l -0.0892,0.0218 -0.0218,0.0198 -0.0496,0.0297 -0.10904,0.25831 0.0297,0.0575 0.0198,0.0218 0.0654,0.0297 0.0357,0.0198 0.16256,-0.12093 z m 14.10182,3.87094 0.0496,-0.0853 -0.0734,-0.0654 -0.0198,-0.0575 -0.12489,-0.0277 -0.34713,0.11102 -0.0852,0.18437 v 0.0515 l 0.0436,0.0753 0.0436,0.0654 0.0793,0.0357 0.44011,-0.27933 z m 22.08458,2.74868 0.0872,-0.0654 v -0.0753 l -0.0496,-0.0714 -0.10706,0.0714 -0.0357,0.0575 v 0.0654 l 0.0357,0.0357 0.0575,-0.0297 z m -1.54136,0.9498 0.0218,-0.0357 v -0.0357 l -0.0297,-0.0575 -0.11697,-0.0793 -0.0872,0.0932 -0.0198,0.0297 v 0.0277 l 0.0218,0.0515 0.0218,0.0198 0.14472,0.0198 0.0436,-0.0198 z m -3.19909,1.67934 -0.0436,-0.11895 -0.91728,-0.38837 -0.25911,-0.0773 -0.0892,0.30887 -0.30966,0.27061 -0.0793,0.0297 h -0.0436 l -0.0952,0.0198 -0.0436,-0.0198 v 0 l -0.0218,-0.0198 -0.0198,-0.0575 -0.0773,-0.0833 -0.0654,0.0218 -0.0218,0.0436 0.0218,0.11101 0.0297,0.0793 0.15464,0.24167 0.0654,0.0932 0.0813,0.0436 0.25911,0.0436 1.05347,-0.22006 0.20796,-0.0813 0.0932,-0.0496 0.12688,-0.2034 z m -3.5383,0.64786 -0.0277,-0.0357 -0.0575,-0.0198 -0.0872,0.0218 -0.14274,0.14869 -0.0198,0.0297 -0.0853,0.19626 -0.0198,0.0952 0.0218,0.0971 0.0436,0.0575 0.0654,0.0496 0.35506,-0.22719 0.0496,-0.10705 0.0436,-0.113 -0.0496,-0.12291 v -0.0218 l -0.0436,-0.0734 -0.0218,0.0198 -0.0218,0.0496 v -0.0436 z m 7.60114,3.03455 0.26486,-0.18437 0.0734,-0.0991 -0.0496,-0.0436 -0.3501,-0.19904 -0.0892,-0.0496 h -0.0278 l -0.16256,0.10904 -0.13481,0.12093 0.0278,0.0872 v 0.0218 l 0.16058,0.14868 0.17644,0.10706 0.0436,0.0218 0.0575,-0.0436 z m 25.68294,1.09769 0.0793,-0.0297 0.11102,-0.113 0.13481,-0.20578 -0.0357,-0.16058 -0.0714,-0.0654 -0.0714,-0.0436 -0.0278,-0.0218 -0.19844,-0.0198 -0.0496,0.0297 -0.0357,0.25613 v 0.11895 l 0.0654,0.23968 v 0.0198 h 0.0734 z m -17.00651,-0.4524 0.0912,-0.0853 v -0.19626 l -0.0357,-0.0198 h -0.0575 l -0.0773,0.0872 -0.0436,0.16454 v 0.0793 l 0.11498,-0.0357 z m -7.39179,3.57001 0.0654,-0.2938 -0.17842,-0.13084 h -0.15067 v 0.13282 l 0.0793,0.30094 0.19626,-0.001 z m 11.07084,6.04808 0.17643,-0.14075 0.25475,-0.33841 0.0297,-0.0813 0.0198,-0.10705 -0.0496,-0.0515 -0.15661,-0.0654 h -0.11102 l -0.0773,0.0297 -0.0654,0.0357 -0.12886,0.11498 -0.12489,0.12093 -0.0278,0.20202 -0.0198,0.18436 0.0198,0.0952 0.0853,0.0714 0.17049,-0.0714 z m 0.33344,-0.1804 0.0773,-0.0436 0.0357,-0.0297 0.0575,-0.0853 v -0.0218 -0.0198 l -0.0218,-0.0198 -0.0773,0.0277 -0.14472,0.13481 v 0 l 0.0218,0.0357 h 0.0357 0.0198 z m -3.79739,6.17456 -0.0198,-0.18238 0.0297,-0.47203 -0.0793,-0.0496 -0.18833,0.0198 -0.2149,0.36894 v 0.16851 l 0.0991,0.11696 0.0971,0.0496 0.27338,-0.0198 z m 1.83952,29.54933 0.54835,-0.17247 0.11696,-0.0654 0.0436,-0.10706 v -0.0654 -0.0793 l -0.0198,-0.0932 -0.0575,-0.0813 h -0.0833 l -0.69783,0.43158 -0.0813,0.0932 -0.0218,0.12489 0.11895,0.0496 0.13283,-0.0278 z m 12.10211,16.57989 0.19626,-0.0436 0.0496,-0.0218 0.0357,-0.0198 0.0436,-0.0654 0.0991,-0.18635 0.0198,-0.0951 -0.0654,-0.0436 h -0.0436 -0.0357 l -0.5087,0.22005 -0.0297,0.0575 -0.0198,0.0357 0.0297,0.0793 0.0297,0.0218 0.0436,0.0297 0.11697,0.0297 h 0.0436 z m -10.49731,-61.37808 2.50543,-0.84513 2.71676,1.44284 -0.94484,1.57565 0.24166,1.32825 -0.32334,0.86039 -1.38851,0.34415 -1.06557,-0.87545 -3.68262,-1.30406 -0.45259,-0.87526 1.14725,-2.22788 z m -5.85598,-5.01086 -1.35838,-0.24167 -1.72078,-0.30173 -2.05263,0.39253 -0.4524,-0.42861 0.43158,-1.12583 3.44115,-0.70933 1.57268,-1.87164 1.90158,-0.94166 5.36413,-4.02083 0.75453,-1.82624 1.11691,-0.24186 -0.15066,0.87546 1.50924,1.99217 -0.30173,0.51326 -5.13159,3.04862 -1.59984,2.17952 z m -358.517201,-30.91029 -0.905785,-0.63359 -1.445806,0.20578 -0.16058,-0.60406 0.817963,-1.59389 -0.94484,-1.87759 0.12093,-2.390646 0.552115,-1.346287 1.931905,-1.596877 0.51306,-1.87144 -0.30173,-0.96307 -1.780842,-0.14869 -0.190316,-0.75472 1.065571,-1.73267 0.423057,-2.52347 0.72439,-0.63359 1.952919,-0.27774 1.427766,-1.38872 1.322299,0.24186 2.475099,-2.80735 0.482927,-1.11692 1.780842,-3.98454 1.78104,-1.57269 1.690442,-0.11696 1.116917,0.46766 0.120929,-1.3223 -1.177183,-4.407 -0.996185,-0.87546 -0.362195,-1.90177 0.331863,-0.90856 1.469993,0.0357 0.754722,0.56738 2.327405,-1.11691 2.052637,0.0654 1.35838,-1.05943 1.811174,-3.56188 0.72439,-0.0872 2.596028,3.24489 -0.996185,0.49224 0.329088,2.01339 3.444124,1.12901 2.076823,3.10314 -3.099969,3.65545 -0.24186,1.62701 1.198396,1.39148 -0.905587,3.29326 -0.784855,0.89369 0.02974,1.3342 -0.543392,0.68831 -1.599843,-1.34312 -2.263967,0.0654 -2.263967,-1.18332 -1.599844,0.12093 -2.535563,-0.679 -1.660309,-1.46404 -1.811173,2.93404 -1.237649,-0.0714 -1.42162,-0.0496 -1.183329,2.0225 1.301087,1.38871 -6.100618,6.34188 0.02974,0.75473 0.965853,0.32908 0.72439,-0.32908 0.301731,2.294098 1.720575,1.062597 1.388513,2.161276 0.30173,2.822429 -0.422858,2.30004 -1.78104,1.91982 -1.307035,0.12687 -1.629976,-0.17644 -1.267782,-0.84512 z m -0.785053,4.70913 0.694257,1.29792 -0.694257,0.99618 -0.603857,-0.36239 -1.177382,-2.77703 0.604055,-1.66031 0.691482,-0.51306 1.699362,2.0798 z m 364.901504,40.97106 -0.63359,0.8362 -1.94995,-0.86931 -1.87144,0.27497 -0.69148,-1.627 -0.75452,-0.56718 -0.69129,1.35838 -0.51325,-0.0654 -0.31383,-0.0436 0.32909,-1.69639 -1.87164,-2.81926 -1.53938,-0.63736 -1.57268,2.42396 -1.74774,0.44109 -0.75472,-1.90177 -1.69639,-0.43812 -0.54339,-0.56718 1.82327,-3.96333 -1.18016,-0.67047 -0.55568,-1.69342 -1.38852,0.24166 -0.31977,1.85955 -0.99618,0.40482 -2.26397,-3.1876 -3.32934,-2.0225 -0.0357,-1.2315 1.39149,-0.55212 0.9599,-1.54235 3.32657,-5.28265 -0.3168,-0.56719 -1.08381,-0.56718 -2.41781,0.39253 -0.84214,-1.18036 -1.06855,0.23532 -0.33206,1.19542 -1.69936,0.19032 -2.07683,2.93404 -2.11012,0.69148 -1.06855,0.92065 -1.38851,0.0753 -1.55445,-0.94167 -1.0626,-1.3221 1.69639,-0.75472 -0.0357,-0.36239 -0.72162,-0.34991 -1.58477,0.39551 -1.35838,-1.38852 -0.3622,0.58879 0.6336,1.79611 -0.66393,0.3045 -1.47911,-1.83238 -1.38851,0.0436 -0.90559,-1.03841 -0.75472,-0.56718 -1.38852,0.39252 -1.72057,1.50925 -4.61239,0.51306 -1.19542,0.99618 -0.81796,-0.35942 -0.27497,-2.14621 0.12093,-0.11696 0.90856,-0.93869 1.55762,0.42285 1.06854,-0.3045 1.08361,0.12093 0.15067,-0.19032 0.51306,-0.71507 -0.47995,-1.03227 -1.15003,0.0853 -2.70466,-0.44664 0.69148,-0.99004 0.75452,-0.31977 0.43733,-0.21133 2.3395,0.43792 0.94484,-0.91451 0.87526,0.0654 2.7348,2.07683 2.62021,-0.23235 1.43689,1.07152 1.02631,0.12093 1.23765,-0.69128 1.19523,-2.37875 -1.11375,-1.47297 -0.18437,-1.23765 1.57269,-1.66011 0.96288,0.35922 0.0357,-0.20855 0.31382,-1.87144 0.81519,-0.39253 0.0654,-0.81816 -0.56143,-0.44387 1.04139,-1.11672 1.22258,0.28072 0.12093,-1.5485 1.31615,-1.44601 -3.10929,-2.69852 1.38852,-3.85172 0.87545,-0.3955 1.23765,0.27497 0.93572,-1.83239 1.32825,-0.12093 1.81117,-1.23447 0.63359,-0.42583 1.11672,0.51306 2.77723,3.2088 2.35456,0.3955 0.21133,0.67027 -1.06854,1.19542 0.15265,1.06855 0.72161,0.27497 0.27497,-1.19543 0.81816,-0.36219 1.9319,-3.21773 1.59985,-0.24186 -1.06557,-1.46999 -0.55569,-1.75071 -0.51306,-0.31105 -5.16172,1.66011 -2.1131,-1.741586 -0.90559,-1.476138 -1.08361,-0.190316 -0.78783,-1.98623 -0.78486,-0.15661 -1.82326,-1.44581 -2.02548,0.12093 -1.05943,2.897764 -0.96307,0.441096 -0.81797,-1.231701 -0.87545,-0.06542 -0.0912,3.338461 -1.7176,-0.476981 -1.38852,-0.35942 -1.81434,0.833231 -0.96288,-1.180359 0.12093,-1.186303 1.94697,-2.979238 0.3168,-1.7176 -1.19523,-1.07767 1.38852,-1.70848 -0.75473,-0.51603 -1.19542,0.55211 -2.14304,2.54151 -1.57268,-0.63716 -2.18546,0.42583 -1.1532,1.87144 -0.19428,1.26778 0.81499,0.32632 -0.0813,1.868466 -1.58795,0.691283 -2.08277,0.186351 -1.38851,-0.633594 0.27497,-1.427766 1.86846,-1.50925 0.24166,-0.35942 0.6336,-0.99321 0.60405,-3.25698 1.02632,-2.26397 -0.42286,-4.1354 0.93572,-1.0293 1.08679,0.27497 1.29791,-1.86252 -0.0872,-0.96585 -1.54255,-0.35942 -0.4409,-1.22853 0.4409,-1.79016 2.08277,-3.89077 0.66393,-0.4409 0.63359,0.2712 0.6669,2.65649 1.55742,0.12093 2.07682,-1.87163 -0.15067,-0.90559 0.66393,-0.44665 0.24166,-2.50246 0.99619,-1.39148 0.21133,-0.27794 -1.32805,-1.02632 0.4409,-1.02632 -0.3622,-3.25995 -0.75472,-0.67344 -2.86763,0.0654 -0.90558,1.72057 -0.96586,0.4409 -0.44387,-1.06854 0.18635,-1.87145 0.99619,-2.83154 -0.69148,-0.87228 -1.22239,-0.43158 -1.47613,0.84512 -1.19543,-0.12093 -0.34415,-0.87526 0.42286,-1.11691 0.87545,0.0297 1.23765,-0.66392 -2.07088,-2.86782 0.35942,-1.78085 -0.75452,-0.43158 -1.82327,0.0853 -1.91386,0.94484 -0.43139,0.95376 0.272,0.19031 1.90772,1.32211 -0.70933,0.9147 -3.18164,-0.23888 -2.34247,0.71507 -1.99218,-1.07767 -0.94186,0.99619 -3.45027,0.0654 -1.02632,0.81796 0.18635,1.05645 1.55445,0.69149 0.30173,1.02929 -0.5434,2.17337 -2.0677,0.33206 -2.53874,4.76622 -1.19522,5.58736 -0.67919,1.20454 0.28647,1.54255 -0.68474,0.60327 -0.81499,-0.28072 -0.55569,-1.03227 0.71508,-0.44109 0.44089,-1.35818 0.22957,-10.35696 0.98707,-2.93998 -0.1804,-1.18631 -1.90158,0.32334 -0.33206,-2.20053 -1.29791,-1.69956 0.0912,-2.65629 -1.06874,-1.5485 -3.83348,-0.75472 2.80716,-2.70467 0.56718,-1.78699 -0.2381,-1.18927 -1.20434,-0.87546 -1.38851,0.0912 -2.32741,1.74773 -2.54765,-2.07682 -2.14324,0.47718 -0.87545,-0.87546 -1.19523,-1.14705 -1.7509,0.55192 -1.14705,-2.20053 0.59751,-2.69852 -0.64014,-1.74476 -1.46682,-0.27794 -1.50944,0.83322 -1.35838,-1.07469 -0.87526,0.3955 -1.78104,2.83155 v 0.91451 l 1.05646,0.11696 v 0.96011 l -0.69129,0.95693 -2.83749,-0.75472 -0.60049,-0.56719 -0.31382,-2.58393 -0.60405,-0.19924 -0.78486,1.05645 -0.39253,1.94995 0.0575,3.77321 h -0.42286 l -0.91173,-1.2315 -0.20479,-1.99217 -0.96605,-0.56718 -2.41484,0.28349 -0.66392,-0.57373 0.2714,-1.05645 1.71463,-1.66625 -1.06855,-1.16212 -0.2714,-1.9773 -1.32527,-0.35942 -0.4409,-0.72162 -1.72058,5.67499 0.19032,1.08361 0.94484,0.19428 0.16653,0.75452 -1.31318,0.60049 -2.6563,-2.53557 -0.36219,-0.72439 3.59201,-7.10572 -0.12093,-0.18635 -2.02548,-3.26015 -0.20855,-0.66393 0.39253,-1.18313 -0.56718,-0.35942 -1.79314,0.3955 -1.05942,-1.31318 -2.81034,-0.59176 -0.91768,-1.19542 -1.27075,-0.18041 -0.47698,0.66393 -0.59176,-0.3622 -0.51604,-3.01869 -1.27095,-1.06854 -2.94296,0.94781 -0.59474,2.50543 -1.42776,-0.63359 -1.02632,0.69148 -2.26397,3.83665 -0.51306,-0.30827 0.54339,-2.07682 -0.54339,-1.07152 -1.59984,0.24186 -0.19627,-0.16256 -0.99321,-0.83006 -0.75452,0.30807 -1.63018,2.3516 -1.59687,0.44089 -2.65629,-3.05179 -0.84512,0.99599 -1.78104,0.42583 -0.75453,2.14621 0.5434,1.19542 4.4976,-0.0357 0.60405,0.87229 0.66393,3.41716 -0.8362,4.88398 -1.19543,1.67221 -0.19031,1.78104 0.40422,1.53957 0.67047,0.0654 -0.24186,2.45111 h 0.69148 0.47401 l 1.38851,2.17654 -0.58879,2.62299 -2.58988,2.57799 -0.90559,2.3847 -5.28266,0.78486 -1.32804,-0.33206 0.43733,-1.19523 -0.92066,-0.48293 -0.90558,2.07683 0.69425,1.62403 -0.96605,2.14918 -2.17337,2.22769 -3.35075,0.36239 -3.96035,1.50925 -2.95506,-0.39253 -1.87163,1.23765 -1.11672,-0.12093 -0.18041,-0.87546 -0.39252,-1.66328 -0.96605,-0.84215 -2.5657,0.20856 -1.59984,0.63439 -1.72058,1.69936 -3.13942,1.11691 -5.21922,6.22433 -2.50543,4.84175 0.30173,1.32528 -0.4742,0.75452 -1.1863,-0.19031 -1.07747,0.84512 -1.10482,2.45111 -3.23002,2.90073 -0.69129,1.95014 -0.51306,-0.15066 -0.94186,0.75472 -2.6563,2.89776 0.12093,1.63017 -2.62616,0.12093 -1.18928,2.77703 -0.83322,-0.7908 -0.87526,0.0357 -4.226,1.66011 -1.11097,1.31318 -1.46405,-0.43733 -0.57372,0.60029 0.60346,0.81816 0.60386,3.229824 -0.57353,0.313823 -1.9321,-1.165091 -0.25039,-0.211528 -1.14705,0.482927 -0.63359,0.959906 1.9894,3.081929 -0.79993,1.02929 0.84215,1.19542 -0.20855,0.75453 -12.26468,14.87557 -4.52773,4.04501 1.26778,0.19031 3.37771,-2.53556 0.31105,0.56718 -2.98241,2.83135 -2.66224,0.12093 -3.41122,3.29345 -2.17931,0.87228 -2.26397,0.31105 -1.57268,-0.47698 -5.70512,-0.0813 -2.23364,1.57269 -1.446,0.23888 -2.97924,-1.06854 -1.63017,1.06854 -1.78699,0.0853 -1.06557,0.87546 -0.0853,1.83218 -0.56718,0.4409 -1.62998,-0.39252 -1.78104,1.83218 -4.8598,2.00129 -5.67815,3.77322 -1.14686,1.446 -1.02631,2.46321 -1.31318,2.463 -2.46004,2.74709 -7.03336,5.00472 -5.59648,1.71165 -5.991978,2.83135 -12.75335,0.75472 -0.754722,0.0357 -2.831544,0.69128 -1.992172,-0.56143 -2.92809,-2.14323 -2.662243,-1.14705 -4.099326,-3.97245 -0.842149,0.63716 -4.464495,0.35942 -8.46113,0.63359 -1.509245,-0.9599 -2.185462,0.20498 -2.502456,-0.67621 -0.833029,-0.79081 -2.544683,0.30808 -1.705508,-0.47044 -2.822426,-1.15022 -9.746952,-9.33639 -1.026319,-2.10101 -1.599843,-1.47296 -3.857863,-6.3512 0.326313,-1.18016 -0.875454,-3.98157 -0.905587,-1.07469 -0.21133,-1.62383 1.116719,-3.53789 0.666899,-2.14324 -0.238093,-0.43436 -2.327406,0.20499 -4.527934,-5.76241 -2.022305,0.94167 -0.67919,2.3274 -1.464045,1.54235 -1.315956,2.57799 -0.03568,1.82922 -1.116917,0.87545 -0.567181,1.26778 3.411017,3.05794 0.12093,0.91451 -0.440899,0.4409 0.57075,2.50543 1.267782,0.12093 1.750708,2.34842 0.875454,0.31977 1.660308,0.56718 0.754524,0.99619 0.784855,3.7401 -0.824108,2.77703 0.271993,1.82326 -5.040994,10.62836 -0.944839,0.84532 -0.392527,1.50924 0.362195,1.50925 -0.663925,2.20053 -0.72439,0.51306 -0.875453,-0.18437 -0.422859,0.75472 0.271399,1.02632 -1.509444,1.07449 -1.315955,2.70764 -1.509444,1.30109 -0.120929,0.0872 -1.068545,0.27497 -0.543392,1.43688 0.977946,1.06855 0.440899,3.62234 -0.241662,3.56486 -1.14705,1.31615 L 5.221992,182.5079 0,187.83556 l 1.20732,0.75472 1.06854,0.12093 2.677508,3.16341 6.100618,4.92026 -0.06542,0.75472 -0.12093,2.4299 0.443872,0.67047 1.186303,-1.50925 0.754722,0.0357 0.549141,1.19542 1.780842,1.19522 1.99237,0.20499 0.479755,1.18035 -0.691283,1.57269 -1.267782,1.15002 -0.552115,3.58607 -1.820094,4.4524 -1.150222,4.60327 -2.502259,1.57288 -2.327405,0.24166 -0.51306,1.98325 -1.029293,0.43436 -2.777027,-0.19031 H 3.143187 l -0.440898,2.38469 0.941865,3.38089 v 4.34079 l 0.875454,4.13223 1.593698,1.93805 -0.754524,2.11311 1.780842,2.74074 0.600487,0.11697 0.516033,-1.43074 -0.633593,-1.30109 -0.314022,-3.05774 0.552115,-1.42182 1.750709,0.0793 0.31977,-0.81816 -1.388514,-2.41483 0.326115,-0.75453 h 2.420977 l 0.47698,-0.84234 2.263768,-3.77321 -1.186104,-2.10379 0.204788,-0.51603 2.469349,-0.44387 2.704668,0.35644 0.817962,0.55568 0.637162,1.75071 0.993211,0.94484 v 2.6565 l -0.754722,0.94166 -1.747735,0.27497 -0.555683,1.1532 -1.183329,5.94955 0.546366,1.54552 1.391487,0.0853 1.509443,-0.94483 5.442442,1.30703 0.116965,-0.20499 0.476979,-1.06557 1.153196,0.83918 0.793776,-0.19032 0.316797,-3.34163 0.959906,-1.57268 3.806517,0.83917 0.94484,-0.47698 0.02974,-1.62998 2.710614,-1.19542 h 0.950787 0.875454 l 3.592015,1.30704 0.513258,1.02632 0.594539,1.23764 0.953959,0.87526 0.817962,0.69148 0.633594,1.23448 v 0.12093 l 0.05749,1.446 -0.12093,0.20201 -0.634386,1.0745 -0.47698,0.87545 0.08525,0.87248 1.068545,1.69936 3.586068,11.2895 1.237648,2.68961 -0.332061,2.69852 0.241859,1.3221 2.746894,-1.27076 1.992172,1.02929 2.414832,0.44685 0.966052,0.836 1.297915,6.71043 1.14705,1.57268 0.694257,0.91451 -0.694257,1.57268 2.50543,5.4698 2.535564,10.80638 -0.02775,0.0357 c 0.452397,0.72756 0.77871,1.48208 0.965854,2.20053 0.446648,1.78401 5.252324,0.43455 8.210547,0.43455 3.803346,-0.0654 3.048822,-1.21346 4.920263,-3.17867 1.814147,-1.86847 4.527933,-4.58225 7.637022,-4.60624 3.924275,-0.0357 8.844538,6.51396 11.4707,10.08496 1.38851,1.86866 2.50543,5.54216 3.68559,6.60476 3.49864,3.07895 2.81945,4.18972 3.37791,6.48382 0.91153,3.49567 -1.58775,4.96864 1.54849,5.75944 0.79081,0.22005 6.55936,2.81648 7.38644,3.68876 0.72439,0.72181 0.99619,1.47614 1.11692,2.14621 0.24166,1.26778 -0.0496,2.20965 1.42479,1.82326 3.49547,-0.94484 4.41018,-0.37448 6.3631,-2.45408 2.1131,-2.17951 1.50944,0 5.19503,-0.99619 2.84344,-0.71804 3.47445,-2.22768 4.92641,-3.73693 2.14621,-2.20073 2.20647,-5.15578 6.20013,-5.21922 2.92809,-0.0357 4.48254,-2.65629 7.4257,-2.69257 3.89394,-0.0218 5.12247,0.0357 6.94276,-1.83536 1.53938,-1.60282 4.71805,0.48927 5.16173,-1.44581 0.60405,-2.50543 2.67751,-3.89097 3.10909,-5.71106 0.81498,-3.45324 -1.81415,-9.45434 0.30173,-8.93811 3.10909,0.75472 5.59648,0.30153 6.67097,2.50246 0.63082,1.27075 2.71973,4.25316 3.83665,4.52773 2.26396,0.54934 5.31279,-2.46915 7.09383,-2.3847 4.4976,0.20856 6.91243,4.89013 7.57953,5.5604 1.03544,1.05031 2.17654,4.37073 3.98157,4.37073 3.79739,-0.0357 4.73906,0.56738 7.00303,1.71165 1.11097,0.56718 2.92809,3.89394 2.92809,5.88017 0.0297,4.09933 2.17337,4.3739 4.52793,6.36309 2.6563,2.22174 2.2941,1.74476 3.80335,3.25421 1.87144,1.86549 2.57779,3.6162 3.41716,2.74075 1.43371,-1.50925 1.99832,-3.89395 3.45622,-5.36097 1.43668,-1.50924 2.65629,-3.95143 4.01467,-5.37008 1.78084,-1.84428 2.53557,-0.25038 5.041,-1.57268 2.26396,-1.17421 2.44516,-2.83135 7.54642,-2.86168 2.0225,-0.0436 4.92026,-3.4804 7.0635,-4.04778 2.81033,-0.73351 5.0743,-1.78699 7.54662,-2.45409 1.41865,-0.36239 4.79953,-3.38088 6.34486,-4.19884 2.10715,-1.09888 0.27794,-3.24211 1.59389,-4.59138 1.92279,-2.03142 2.83135,-3.25995 4.34079,-4.80865 1.27076,-1.33102 3.25698,-5.55722 3.21476,-7.30496 0,-1.91981 3.45621,-3.95123 3.41399,-7.11464 -0.0357,-2.81648 9.85261,-3.80652 8.66036,-6.18824 -1.14705,-2.28796 -1.07469,-11.28951 -4.16573,-11.2562 -3.04883,0.0297 -10.32346,3.61025 -11.68184,2.26397 -2.33949,-2.36052 -10.34783,1.46701 -10.40512,-3.06092 0,-2.62616 2.57798,-4.15047 3.45324,-5.97374 0.41076,-0.87248 0.77276,-1.50924 1.19542,-1.94994 l -0.11498,-0.17248 c 0.90876,-0.97814 2.02548,-1.02632 4.59137,-1.06557 3.58904,-0.0357 5.00769,2.93701 7.54642,2.26377 3.17551,-0.836 8.24981,0.67344 11.63366,0.64311 4.13244,-0.0753 2.56273,-4.41632 5.76241,-6.08853 2.07683,-1.08063 7.06647,-2.95505 7.8997,-4.68177 0.55846,-1.16212 7.54643,-0.0198 6.91244,-4.21391 -0.51584,-3.17867 4.76642,-4.87804 1.627,-8.30115 -1.05943,-1.15002 3.77341,-8.57274 5.1649,-10.00963 1.90771,-1.94697 0.56718,-5.853 3.61937,-6.67116 3.05179,-0.82094 3.13922,-2.18547 6.3962,-1.38852 3.34461,0.82708 5.69917,1.14705 9.89802,1.11692 1.38851,0 6.88547,0.11102 8.36458,-0.29003 2.84641,-0.75473 4.68475,-4.76643 6.19399,-6.55342 3.01869,-3.58606 6.49295,-6.8702 7.46812,-8.86852 1.19522,-2.53874 16.16437,5.34589 17.11535,3.41102 1.04733,-2.23384 5.12545,13.10047 5.09531,9.81039 0,-2.20965 6.79191,-3.99664 6.95189,-4.71805 0.35645,-1.56357 5.49379,-2.42098 9.09195,-4.12352 l -0.31402,-0.0872 1.11394,-2.45408 -1.94995,-5.16192 -0.11696,-2.14621 1.29811,-0.90856 -0.81796,-1.3221 0.51584,-3.41399 -0.81797,-1.39149 1.38852,-0.23889 0.32909,-0.83025 -2.86763,-1.26778 -1.50925,0.44109 0.27497,-1.11691 -2.53873,-3.65248 -1.53938,-0.2714 -1.57269,-1.44581 -1.90177,-4.21094 -0.60048,-1.82624 0.55865,-2.03162 0.90559,-2.21857 -1.1863,-1.23765 1.30703,-0.9599 1.93488,1.06854 1.38851,-0.15661 0.0872,-2.74075 -1.18313,-0.96605 -0.40125,-2.20053 1.44581,-0.0436 0.48273,-2.3395 1.07171,-0.40402 2.57779,1.15914 2.14324,-0.32631 1.42182,-1.35838 0.63359,0.21152 0.20855,-1.38851 z"
     name="Sassari"
     />
  <path
     id="cagliari"
     d="m 329.91097,688.10055 c 0,0 1.25887,-3.52263 2.01339,-5.28246 0.75472,-1.75982 0.25058,-3.27224 0,-4.78149 -0.25039,-1.50924 -7.29584,-13.5836 -7.79701,-15.34343 -0.50097,-1.75983 -1.50924,-4.52793 -1.25866,-5.28245 0.25058,-0.75473 -0.50414,-5.53324 -0.50414,-5.53324 l -4.27735,-3.77322 c 0,0 -2.76791,-1.25866 -3.26907,-2.26396 -0.50117,-1.00511 -1.00511,-2.01339 -5.03208,-0.25356 -4.02677,1.75983 -5.28245,0.75472 -6.54112,-0.25038 -1.25886,-1.00531 -8.55172,-11.57022 -8.55172,-11.57022 l 9.05566,-15.09305 -0.25038,-8.80508 c 0,0 -13.83419,4.02359 -14.58891,4.27735 -0.75452,0.25355 -4.02379,0.50096 -6.54132,0.25038 -2.51752,-0.25038 -2.26376,1.0053 -2.26376,1.0053 0,0 -0.25059,5.28246 -0.50414,7.54643 -0.25356,2.26397 -6.28776,8.05056 -6.28776,8.05056 0,0 -0.25059,2.26397 -0.50414,3.26908 -0.25356,1.0053 -1.75983,1.50924 -4.0238,1.50924 -2.26397,0 -4.52773,3.52283 -4.52773,3.52283 h -3.77341 l -2.76791,2.26397 -1.50925,-2.26397 -6.7919,-0.50414 -0.75472,-2.01041 -4.02379,2.76493 -4.52774,-2.01021 -3.52283,-3.77321 -5.28245,-0.75472 c 0,0 -1.75983,2.01041 -3.52263,3.26907 -1.76281,1.25886 -6.03718,1.75983 -6.03718,1.75983 l -3.52263,2.01338 -1.00531,-0.50414 -5.03187,1.50945 c 0,0 -3.52283,-3.51966 -5.7866,-4.77852 -2.26396,-1.25866 -4.77851,0.75472 -6.7919,2.51455 -2.01338,1.75983 -2.76811,5.28246 -2.76811,5.28246 l -0.25058,4.52793 -7.04228,5.03187 c 0,0 -1.50925,0.25059 -3.01849,0 -1.50945,-0.25038 -2.26397,0.75473 -2.76811,1.50945 -0.50414,0.75452 -2.26397,1.25866 -3.01849,1.25866 -0.75472,0 -1.25886,0.50117 -2.76811,2.51455 -1.50924,2.01338 -2.7681,12.82888 -2.7681,12.82888 0,0 1.0053,1.00531 1.25886,2.26397 0.25356,1.25866 -0.25058,3.52263 -0.25058,3.52263 l 0.25058,11.8208 c 0,0 -1.0053,2.76811 -2.26397,3.77321 -1.25886,1.00531 -1.25886,5.53621 -1.25886,5.53621 l -3.33548,0.0674 c 0,0 -0.0198,0.0198 -0.0198,0.0198 0.2143,1.27988 0.0198,2.69555 -0.81499,4.26229 -2.26397,4.28647 4.10527,10.7582 7.90862,14.57681 0,0.29578 -6.55639,10.61031 -7.78194,10.9061 0,0 0,0 0,0 l 14.85158,27.99746 c 0,0 3.52263,3.26907 4.27735,4.52793 0.75453,1.25866 1.25866,4.53091 0.75453,5.53601 -0.50414,1.00511 -1.25867,3.77321 -1.25867,3.77321 l 2.3393,4.96864 12.88023,-12.18002 4.52793,-5.20098 3.08193,-1.9894 -0.60366,-2.07068 2.1131,-1.38851 1.62998,-0.99004 0.39233,1.83516 0.99618,0.31402 1.53958,-5.21921 -0.24146,-1.47911 0.60365,-1.78085 -0.21133,-2.95525 1.59985,-2.70764 0.24146,-1.83833 1.29811,-2.05561 1.26779,-2.07682 0.27457,-1.32211 -1.05943,-3.77321 -2.86762,-3.41716 -2.05264,-3.96333 -0.87545,-4.79953 -0.31403,-7.8543 0.43773,-3.3446 1.78104,-4.71508 1.44581,-2.3847 3.88799,-5.75944 7.63108,-8.09893 3.56783,-4.48868 -0.317,-0.55826 -0.33186,-0.55252 h -1.19542 l -0.51326,-0.94186 2.32443,-1.39149 0.96585,1.82624 0.12093,0.24147 0.15067,0.32611 0.84512,1.62998 1.93191,-0.28072 2.45408,1.38851 1.46107,1.86847 4.89013,6.2273 2.35437,-0.28072 0.72459,1.11394 0.93572,-0.0396 1.11692,-1.05943 0.48292,-1.19245 -1.31615,-0.81796 -0.3955,-1.23765 0.48312,-1.35243 1.82307,-2.83135 2.36963,-2.3847 1.71463,-1.06854 5.37306,-3.21773 4.19587,0.0634 2.89776,2.0225 1.44898,1.54255 4.79953,0.51604 1.7507,1.03841 4.96864,-0.60366 0.84215,0.3622 1.18333,1.7509 0.94484,0.42246 3.68261,0.96606 0.99618,1.38851 2.17932,0.87545 2.0679,3.04863 1.59667,1.47911 4.59138,1.69659 3.98454,3.81246 1.23765,2.06156 1.21941,0.72459 0.99321,4.04481 0.80587,0.71844 0.97794,-0.59771 1.06875,0.27179 3.3446,2.86763 3.05477,-0.0634 0.42246,3.18165 0.99619,0.31084 0.48292,-1.41884 1.50945,0.1804 1.38851,-1.05645 h 0.0456 c 0.68533,-0.60663 1.63909,-4.98965 2.13411,-5.73228 0.50414,-0.75452 4.0238,-3.27204 5.28266,-4.52773 1.25866,-1.25589 1.52728,-8.25892 1.52728,-8.25892 z"
     name="Cagliari"
     />
</svg>
