<svg
   xmlns="http://www.w3.org/2000/svg"
   version="1.1"
   id="sardinia"
   viewBox="0 0 209 400"
   aria-label="Map of Sardinia - Italy"
   >
  <path
     id="sud-sardegna"
     d="m 151.4414,226.306 c 0,0 -0.3167,1.2045 -0.8253,1.4588 -0.5085,0.2543 -1.5865,1.0157 -2.22,0.7614 -0.6334,-0.2542 -1.7129,-0.7614 -2.0936,-0.7614 -0.3807,0 -2.4744,0.1918 -2.7911,-0.1264 -0.3167,-0.3182 -0.8877,-0.8253 -1.142,-0.8253 -0.2543,0 -2.1377,-0.082 -2.1377,-0.082 -0.102,0.2589 -0.2315,0.4614 -0.3975,0.5999 -0.137,0.1218 -0.3623,0.1614 -0.6395,0.1614 l -0.032,0.02 c -1.4465,0 -4.4309,-1.2318 -5.2379,-0.6669 -1.0476,0.7294 -2.4422,1.7358 -4.4094,1.4282 -3.1062,-0.4872 0.8222,4.026 -0.5482,4.903 -2.5306,1.6658 1.9915,6.2489 1.3702,7.3757 -0.6623,1.1739 -2.934,-0.032 -3.9739,-0.7293 l -0.2133,-0.2163 c 0.091,-0.1645 0.137,-0.3487 0.137,-0.5619 l -0.1674,-0.021 c -0.4903,0.9288 -5.177,-0.239 -6.3647,-0.9836 0,0 -4.5998,4.1584 -8.3912,7.5859 -0.737,-0.8329 -1.4771,-1.7359 -1.4771,-2.0206 0,-0.571 -0.2863,-1.2364 -0.9958,-1.5668 -0.7157,-0.3365 -2.0494,-0.9074 -2.1895,-0.9074 h -2.2367 c 0,0 -1.9034,4.4247 -2.1409,4.7582 -0.2376,0.3365 -2.1896,3.0453 -2.1896,3.0453 0,0 -1.142,-0.5237 -1.2881,-0.9044 -0.1432,-0.3807 -0.9045,-1.3324 -1.2851,-1.4283 -0.3807,-0.096 -3.9971,-0.1461 -4.4736,-0.1461 -0.4766,0 -1.1891,0.1461 -1.0978,0.6181 0.096,0.4766 0.5268,1.1892 0.5268,1.4755 0,0.2862 0.094,1.1891 0.6669,1.1891 0.5726,0 2.1895,0.9045 2.3798,1.238 0.1097,0.1964 0.6671,1.1647 1.1086,1.9306 -2.5047,3.5965 -4.2132,8.0076 -4.533,8.3395 -0.5481,0.5802 -1.1875,1.9812 -2.025,2.406 -0.7004,0.3806 -2.2597,1.0353 -2.6297,1.8256 -0.5619,1.1572 -0.7766,1.7053 -1.7358,2.7102 -0.7294,0.737 -2.9935,-0.2649 -3.7152,0.4781 -0.539,0.5786 -0.3487,-0.2876 -3.3651,1.3827 -2.1773,1.2029 -0.7156,1.9215 -2.7848,3.1244 -1.142,0.6669 -2.1288,1.002 -4.1432,0.501 -1.2653,-0.303 -1.3918,-2.0618 -2.3754,-2.0618 -1.7206,0.015 -1.9824,0.6152 -3.8065,0.6395 -1.6186,0.015 -2.0618,-1.5683 -3.1672,-2.1317 -1.0811,-0.5527 -1.6292,-2.2382 -3.03,-2.9386 -1.1511,-0.5816 0.4324,-4.4339 -2.8915,-4.1492 -0.6152,0.059 -0.3807,0.7612 -3.2037,0.5222 -2.6189,-0.2117 -2.2383,0.3518 -3.5021,-0.2862 -0.9075,-0.44 -2.6647,-2.3891 -4.0914,-4.3502 l -0.1979,0.3807 -0.198,1.0826 -0.6852,0.1628 -1.177,-1.5074 -2.9493,-5.5515 -0.8983,-0.8649 -0.4264,-0.102 -0.3548,0.2224 -0.026,0.7445 -0.7766,2.0617 -0.076,0.2055 0.3654,1.2973 -0.1827,1.4907 0.5634,1.11 -0.1447,1.6156 -0.4751,0.2634 0.015,0.2801 0.8404,0.1203 0.2634,0.2604 -0.023,1.11 -0.5391,2.8702 -0.7873,0.58 0.3457,0.4401 0.091,0.9609 0.9289,0.5024 0.3805,0.737 -0.018,0.7856 -0.5252,1.0993 -0.091,2.0846 0.015,2.2397 0.4568,0.8223 1.3002,1.2029 0.4111,2.0677 -0.7963,2.6648 0.03,2.8808 -0.6029,1.3642 -0.6029,2.284 -0.3046,0.9196 -4.0654,6.7454 -1.1359,1.3521 -1.5379,1.1223 0.4872,0.4201 -0.015,0.021 c -0.4964,0.5359 -1.2348,1.2699 -1.2348,1.2699 l -0.7293,2.5275 0.1537,0.4416 1.8424,1.34 1.7664,1.2637 -0.259,2.8809 -0.6029,0.8802 -0.5939,1.8712 -2.0859,1.8089 -0.7295,1.4877 0.233,0.7293 -0.198,0.7933 0.2437,1.0476 0.9897,0.7232 -0.2284,0.9791 0.4568,1.0812 0.5024,0.015 0.3047,0.4127 -0.4737,1.0201 0.3564,0.5391 1.5227,-0.1828 0.9197,0.7263 0.6029,0.9836 -0.2954,0.9899 1.11,1.1251 0.6395,2.3007 0.3045,2.2673 -0.5786,1.5545 -0.5969,0.8985 -2.4894,2.0617 -0.8832,1.3003 -0.4949,0.7309 -0.8039,0.5176 -2.223,2.45 -0.2848,0.5953 0.1584,1.6811 0.5025,0.9196 1.99,1.8059 0.2284,-0.058 0.7765,-0.2008 0.3045,0.7415 -0.096,2.0236 0.4262,2.3798 0.4751,0.4751 0.6061,-0.198 0.3959,-1.4815 2.0433,2.4438 0.4645,1.0416 0.3958,2.3798 -0.1584,4.265 0.3411,0.2239 1.1816,-1.0476 0.7293,0.3198 0.6076,-0.4204 0.3563,0.079 1.2638,1.9823 0.4264,1.4207 0.4415,1.11 0.335,0.8832 0.015,0.6227 -1.4982,3.1459 -0.6061,0.2858 0.428,0.8928 -0.034,0.023 0.012,0.026 2.3631,-0.8573 0.2864,-0.3 -0.4112,-0.4218 0.2741,-0.6836 -0.3487,-0.5437 -0.032,-0.041 0.2878,-0.4415 0.4415,-0.7294 0.4584,-0.2771 0.7293,0.059 0.6701,0.044 1.0047,-0.1644 0.1584,0.9013 -0.2862,0.8633 -0.7188,0.6045 -0.094,0.3807 0.7445,0.058 -0.044,0.6228 1.218,0.1218 0.1447,-0.3379 -0.4842,-1.0416 0.2588,-0.032 1.0644,0.8542 0.5618,1.3688 0.4797,0.8832 0.944,0.6563 0.2162,-0.1218 0.096,-0.7781 0.5786,0.2436 0.6395,0.8376 0.4767,0.102 0.778,0.918 0.4234,-0.043 0.4399,-0.9166 0.8421,-0.02 -0.3213,1.8423 0.8999,1.5075 -0.3198,0.2223 -1.4464,-1.4907 0.076,1.4907 -0.2223,1.1267 -0.8466,1.0356 -0.1582,1.827 1.0961,2.2232 -0.1978,0.8222 1.6596,2.1895 0.076,1.3643 0.6425,0.2405 0.5602,-0.6638 0.8573,-0.3198 0.5848,0.3487 v 0.01 l 0.2437,0.1537 0.743,1.1877 0.3578,1.3642 0.2056,0.7445 -0.2253,1.4908 0.076,1.8425 -1.218,1.6185 -0.2802,0.6029 -0.02,1.0476 0.1677,0.8679 0.8373,0.3488 1.401,0.1583 0.883,-0.9592 0.7933,-0.018 0.4767,0.4752 -0.1371,2.0586 0.2421,0.7932 -1.1253,1.4282 0.1524,0.4127 0.4415,0.1811 0.7461,-0.4765 0.9867,-0.091 0.2771,-2.3631 -0.7005,-0.8041 -0.096,-0.6669 0.5588,-0.9394 0.9837,0.2968 0.9136,-0.6029 -0.041,-0.6838 -0.7202,-1.1738 0.2878,-0.4614 0.4401,0.4415 0.5008,0.096 0.3198,-0.3015 1.5624,-0.399 0.883,-0.7856 0.5391,-0.037 0.3487,-0.4232 0.4005,0.032 0.2998,-0.4599 0.8679,0.032 0.8633,-1.7815 0.4005,-0.024 1.5624,1.7662 0.7292,0.5025 1.2364,0.6059 2.8642,0.7188 -0.2238,1.3551 1.5073,1.7511 0.4111,0.4842 0.6701,1.11 0.5785,0.061 -0.096,-0.8557 -0.7399,-1.0446 0.2131,-0.5618 0.6244,-0.5359 0.2131,1.142 0.6092,0.5025 1.1844,0.061 0.5818,0.3974 0.4188,1.04 0.9409,0.8436 2.4058,-0.046 0.7003,-1.2014 1.2486,-0.5192 2.1896,-1.5058 1.3034,-0.7782 0.5999,-0.6075 1.04,-1.9962 v 0 l -1.1786,-2.517 c 0,0 0.3806,-1.3947 0.6349,-1.9033 0.2543,-0.5055 0,-2.156 -0.3805,-2.7925 -0.3807,-0.6334 -2.1576,-2.284 -2.1576,-2.284 l -7.4916,-14.124 c 0,0 1e-4,0 0,0 0,0 0.01,0 0.011,0 0.609,-0.1371 3.9283,-5.3535 3.9283,-5.5058 -1.9186,-1.9246 -5.1313,-5.1877 -3.9893,-7.3499 0.4157,-0.7948 0.5207,-1.5089 0.4095,-2.1576 l 1.6827,-0.035 c 0,0 0,-2.2855 0.6349,-2.7925 0.635,-0.5071 1.142,-1.9033 1.142,-1.9033 l -0.1264,-5.9628 c 0,0 0.2528,-1.1419 0.1264,-1.7768 -0.1264,-0.635 -0.6351,-1.142 -0.6351,-1.142 0,0 0.6351,-5.4557 1.3964,-6.4713 0.7613,-1.0156 1.0157,-1.2684 1.3963,-1.2684 0.3807,0 1.2683,-0.2542 1.5226,-0.6349 0.2543,-0.3807 0.635,-0.8876 1.3963,-0.7613 0.7614,0.1264 1.5226,0 1.5226,0 l 3.5524,-2.5383 0.1263,-2.284 c 0,0 0.3808,-1.7769 1.3964,-2.6646 1.0156,-0.8877 2.2838,-1.9033 3.4258,-1.2683 1.142,0.6349 2.9189,2.4103 2.9189,2.4103 l 2.5384,-0.7612 0.5071,0.2541 1.7769,-1.0156 c 0,0 2.1575,-0.2527 3.0452,-0.8876 0.8877,-0.635 1.7769,-1.6491 1.7769,-1.6491 l 2.6646,0.3807 1.7785,1.9033 2.284,1.0142 2.0282,-1.3948 0.3805,1.014 3.426,0.2544 0.7613,1.1418 1.398,-1.1418 h 1.9032 c 0,0 1.142,-1.7771 2.284,-1.7771 1.142,0 1.9032,-0.2542 2.0281,-0.7613 0.1264,-0.507 0.2558,-1.6489 0.2558,-1.6489 0,0 3.0453,-2.9191 3.1702,-4.0611 0.1264,-1.1419 0.2558,-3.8065 0.2558,-3.8065 0,0 -0.1264,-0.6335 1.142,-0.5071 1.2668,0.1264 2.9189,0 3.2996,-0.1264 0.3806,-0.1279 7.3589,-2.1574 7.3589,-2.1574 l 0.1264,4.4414 -4.568,7.6133 c 0,0 3.6772,5.3293 4.3136,5.8364 0.635,0.507 1.2699,1.014 3.2996,0.1263 2.0282,-0.8877 2.2841,-0.3792 2.5384,0.1278 0.2543,0.5071 1.6489,1.142 1.6489,1.142 l 2.1576,1.9033 c 0,0 0.3808,2.4104 0.2544,2.7911 -0.1264,0.3807 0.3806,1.7769 0.6349,2.6646 0.2543,0.8877 3.8065,6.9783 3.9329,7.7396 0.1264,0.7613 0.3807,1.5243 0,2.412 -0.3807,0.8877 -1.0156,2.6645 -1.0156,2.6645 0,0 -0.1263,3.5539 -0.7613,4.1873 -0.6349,0.6334 -2.4103,1.9033 -2.6645,2.284 -0.2482,0.3731 -0.7325,2.5839 -1.0766,2.8899 l 0.7369,-0.044 1.2364,0.3212 0.2817,-0.3364 1.081,-0.061 0.8223,-0.4584 0.8375,0.032 1.2638,0.6075 0.2223,0.6395 0.3624,1.037 -0.2741,0.6075 -0.4264,0.2861 0.4872,1.0827 0.4218,0.1813 0.7051,1.1601 1.3399,0.2407 -0.7003,-1.11 0.6789,-2.4424 1.6658,-2.2428 0.4979,0.079 0.361,-0.2984 1.4024,0.094 1.3428,-2.3267 0.1614,-1.9413 0.018,-0.2254 0.4128,-1.7479 0.6668,-0.8802 -0.1553,-0.5419 0.166,-0.4874 -0.1827,-0.5952 -1.2623,-0.5011 -0.1675,-2.1027 0.4872,-0.9273 -0.198,-1.4283 0.4111,-1.4632 -0.1187,-1.0446 0.2407,-0.7613 -0.015,-0.9593 0.7765,-1.174 1.174,-3.7137 1.6002,-2.5062 1.5379,-1.183 1.369,-0.3808 0.9759,0.061 -0.093,-1.2821 -1.6443,-0.8451 -1.7495,-1.6156 -0.4128,-1.0033 -0.1811,-3.1672 0.1978,-3.228 0.044,-0.6546 2.3814,-7.0682 1.174,-2.6281 1.4449,-2.1896 0.017,-1.7495 0.5632,-1.1267 -0.3044,-1.6415 0.093,-0.9776 -0.2968,-0.7293 0.061,-1.2363 -0.7842,-1.305 -0.4782,-1.5546 0.7613,-5.1161 0.076,-0.4568 0.3807,-0.4218 0.8619,-0.1765 0.2207,-0.3487 -0.1217,-1.1573 0.6546,-2.5732 v -0.04 h 0.029 v -0.02 0 c -0.9212,-0.3061 -1.745,-0.7292 -2.421,-1.1738 -1.7206,-1.1557 -7.6436,-2.5886 -10.0342,-2.6328 -3.3498,-0.032 -5.9841,-4.7506 -5.908,-7.5812 0.061,-2.0587 -2.5427,2.2459 -3.5218,0 -1.4282,-3.2433 -4.6897,-2.9844 -5.9231,-0.032 -0.9288,2.2413 -3.7747,-0.9592 -3.9741,-2.829 -0.5178,-4.5253 1.9261,-4.1446 -0.2741,-7.4336 -1.3095,-1.9779 -4.4156,1.0841 -6.3494,-0.8649 -1.5272,-1.5394 5.1725,-3.3909 5.9201,-5.7434 l 0.05,-0.4843 -0.041,-0.2739 1.5225,-1.8166 c 0,0 -1.2059,-2.1577 -1.7769,-2.7287 -0.571,-0.571 -4.1233,-4.6302 -4.3776,-4.8205 -0.2543,-0.1904 -0.5709,-1.3965 -0.5709,-1.7771 0,-0.3807 -0.4431,-1.2683 0.8252,-1.6489 1.2684,-0.3807 1.0781,-1.4587 0.5071,-1.9033 -0.5709,-0.4446 -0.4447,-0.9517 -0.4447,-1.142 0,-0.1903 0.4446,-1.206 0.9517,-1.206 0.507,0 2.22,-0.1904 2.22,-0.1904 0,0 1.206,-1.0155 1.206,-1.5865 0,-0.571 0,-2.4729 0.5711,-3.1078 0.571,-0.635 0.7612,-1.8409 0.7612,-1.8409 0,0 -2.5382,-4.2496 -3.0452,-4.6302 -0.5071,-0.3807 -1.4588,-0.9518 -1.4588,-0.9518 z m -110.2231,142.3324 -0.4277,-0.8997 0.034,-0.016 -0.014,-0.028 -0.644,-0.7294 -0.4371,-1.7799 0.198,-0.9 -0.3807,-0.8542 -0.7309,-0.8069 -1.6748,-0.8817 -1.2791,-1.6155 -0.9639,-0.1217 -3.5628,0.8373 -0.1021,0.032 -0.2436,-0.3364 -0.8984,-1.209 -0.4614,-0.7293 -0.6669,0.5785 -1.142,1.9033 -0.8572,0.015 0.2787,2.7255 -0.7933,1.0384 1.8272,7.0043 1.2638,3.1077 0.3485,0.4127 0.8832,1.02 0.096,1.1101 1.3855,3.4412 0.8635,1.5835 -0.198,1.174 0.7005,0.574 0.7202,0.05 0.9241,-0.6061 0.4417,0.495 0.5632,-0.1143 1.7968,-1.5074 0.2437,-0.4842 -0.2133,-1.3157 0.3488,-0.3288 0.4127,-1.142 0.1521,-1.2364 0.3397,-3.6695 0.4978,-1.7358 1.1008,-1.9963 -0.1217,-0.5358 -0.5985,0.7993 -0.5435,-0.3198 0.6242,-1.3962 z m -19.5537,-21.3396 -0.7933,0.1735 -1.1221,0.8542 -1.081,-0.1218 -0.5634,0.2878 -1.203,-0.5649 -0.3655,0.072 -0.7459,1.6674 -1.7968,0.6562 -0.2741,0.2117 -0.4263,0.3395 -1.2989,-0.023 -0.3805,0.4322 -0.9593,2.1897 0.061,0.6684 0.4767,0.4416 1.9185,0.3197 0.6243,0.4234 0.3487,0.7796 -0.1827,1.2348 0.2785,0.7156 0.5787,0.3807 -0.061,0.5345 -0.4872,0.5039 -0.015,0.5117 0.5938,0.7339 1.3704,0.4857 1.034,0.9364 1.1875,0.1584 0.5787,-0.1644 0.3654,0.2573 0.4263,-0.044 0.4827,-0.7293 1.1116,-0.1827 0.411,-0.7522 0.137,-3.3317 0.081,-1.2378 0.4825,-0.6487 -0.5634,-0.6152 -0.091,-3.7456 0.3047,-2.5063 -0.1827,-0.9593 z m 159.1689,5.3691 -0.029,0.011 h -0.01 -0.01 l -0.033,0.029 v 0.063 l 9e-4,0.01 0.057,0.1106 h 0.011 l 0.036,0.01 0.058,0.011 0.022,-0.041 h 9e-4 v -0.045 l -0.052,-0.059 -0.033,-0.01 v -0.018 -0.041 z m 0.1675,1.1885 -0.033,0.018 -0.089,0.1274 -0.047,0.069 -0.01,0.011 -0.014,0.033 -0.083,0.6315 v 0.074 l 0.01,0.2647 0.038,0.4307 v 0.018 0.015 0.011 l 0.1091,0.1735 0.052,-0.011 0.1428,-0.1125 0.018,-0.036 0.1479,-0.5482 0.022,-0.2264 0.044,-0.5297 -0.1172,-0.2195 -0.033,-0.062 h -0.011 l -0.029,-0.015 h -0.018 l -0.036,-0.071 h -9e-4 l -0.011,-0.018 -0.01,-0.01 -0.01,-0.015 z m -9.4019,8.9549 v 0.01 l -0.2159,0.4669 -0.1001,0.3776 0.01,0.04 0.862,0.3921 0.038,0.015 h 0.011 0.041 l 0.138,-0.064 v 0 l 0.045,-0.123 0.029,-0.1322 -0.123,-0.6142 -0.011,-0.046 -0.018,-0.052 -0.063,-0.118 -0.033,-0.044 -0.2382,-0.054 -0.3352,-0.044 z m 0.9141,0.839 h -0.026 -0.011 -0.01 -0.01 l -0.033,0.011 0.029,0.037 0.033,0.025 0.08,-0.01 v 0 l -0.051,-0.069 z m 0.4804,0.1454 -0.053,0.025 -0.025,0.025 0.077,0.074 0.089,0.029 0.033,-0.029 -0.021,-0.059 -0.022,-0.029 z m -127.8786,1.0957 -0.3609,0.9881 0.3959,0.032 0.5634,-0.7293 0.087,-0.2908 z"
     name="Sud Sardegna"
     />
  <path
     id="nuoro"
     d="m 207.7855,131.2564 0.4765,-0.6045 -0.1218,-3.5066 -0.6014,-0.5603 -1.7389,-0.4599 -1.4008,-0.8984 -0.539,-0.338 -0.2863,-0.3045 0.015,-0.5984 0.6243,-0.1188 0.1827,-0.5618 -0.5481,-2.6479 -0.5329,-0.3198 -0.4873,-1.0384 -1.9947,-0.7218 -0.9196,0.4599 -0.5177,-0.2863 0.4263,-0.3806 -0.076,-0.3365 -0.603,-0.1828 0.1066,-1.2028 0.5177,0.1553 0.061,-0.3365 -0.7918,-1.7039 0.3198,-0.7187 -0.046,-0.6821 -0.7156,-0.536 -0.4264,-2.086 0.3045,-1.4283 -0.1218,-0.4781 -0.3974,0.2223 -0.1583,3.0453 -0.3198,0.5451 -0.8831,-0.3197 0.1066,-0.4127 0.542,-0.3806 0.1584,-2.1622 -0.1675,-0.4583 -0.5025,-0.061 0.7461,-1.174 1.5379,-0.8054 -0.096,-2.3876 0.5938,-1.3033 -0.1066,-0.4127 -1.3003,-1.6612 0.015,-0.539 -0.9258,-0.7294 -0.5816,0.2421 -0.4568,-0.4126 -1.005,0.9639 -0.1187,-0.032 -0.3228,-0.076 c -1.8089,0.8619 -4.4005,1.2958 -4.5832,2.0845 -0.076,0.3685 -3.5021,1.2654 -3.5021,2.3799 0.015,1.6597 -2.0343,-6.0753 -2.5733,-4.9486 -0.472,0.9761 -8.0243,-3.0026 -8.6334,-1.7221 -0.4827,1.0035 -2.2383,2.6647 -3.7609,4.4736 -0.7613,0.9014 -1.6932,2.9265 -3.1214,3.3072 -0.7477,0.1979 -3.5219,0.137 -4.2193,0.137 -2.1104,0.018 -3.3041,-0.137 -4.9836,-0.5634 -1.6445,-0.3959 -1.6902,0.2863 -3.228,0.7035 -1.5425,0.4126 -0.8679,2.3875 -1.8272,3.365 -0.7004,0.7279 -3.1412,4.4736 -2.6037,5.0522 1.5835,1.7206 -1.0811,2.5854 -0.8223,4.1872 0.3198,2.1135 -3.2097,1.5318 -3.4868,2.1257 -0.4264,0.8755 -2.9387,1.8165 -3.9894,2.3662 -1.6079,0.8405 -0.8222,3.03 -2.9082,3.0635 -1.7039,0.018 -4.2634,-0.743 -5.8622,-0.3197 -1.279,0.338 -1.9977,-1.1618 -3.8066,-1.142 -1.2973,0.017 -1.8531,0.049 -2.316,0.5359 -0.2101,0.2254 -0.3928,0.5452 -0.6029,0.9867 -0.4416,0.9151 -1.7435,1.6871 -1.7435,3.0133 0.032,2.284 4.0685,0.3548 5.2501,1.544 0.6852,0.6791 4.3548,-1.1237 5.8927,-1.142 1.5591,-0.017 1.5226,4.5223 2.1012,5.678 0.603,1.2029 -4.3852,1.7023 -4.3669,3.1214 0.023,1.5957 -1.7237,2.6129 -1.7237,3.5904 0.018,0.8831 -0.9836,3.0133 -1.6216,3.6863 -0.7613,0.7781 -1.2166,1.4024 -2.1896,2.4226 -0.6669,0.6852 0.2589,1.7678 -0.8039,2.3159 -0.7796,0.4127 -2.485,1.9353 -3.2006,2.1211 -1.2486,0.3349 -2.3906,0.8724 -3.8066,1.2333 -1.0811,0.2969 -2.5429,2.0251 -3.563,2.0495 -2.5733,0.012 -2.6647,0.8481 -3.8067,1.4374 -1.2638,0.6714 -1.6444,-0.1356 -2.5428,0.7933 -0.6852,0.7141 -1.3003,1.9459 -2.0251,2.7072 -0.737,0.7385 -1.0202,1.9414 -1.745,2.7027 -0.4156,0.4416 -0.7765,-0.4415 -1.7205,-1.3856 -0.7614,-0.7613 -0.5787,-0.5177 -1.9186,-1.6384 -1.1876,-1.0018 -2.2687,-1.1419 -2.284,-3.2066 0,-1.005 -0.9135,-2.6829 -1.4769,-2.9692 -1.142,-0.5786 -1.6186,-0.8831 -3.5326,-0.8679 -0.9075,0 -1.4906,-1.6673 -2.0099,-2.1987 -0.3349,-0.3441 -1.5531,-2.6997 -3.8218,-2.8093 -0.8984,-0.035 -2.4362,1.4876 -3.5782,1.2014 -0.5649,-0.1371 -1.6186,-1.6354 -1.9353,-2.284 -0.539,-1.1039 -1.7967,-0.874 -3.3651,-1.2547 -1.0719,-0.2664 0.2589,2.7621 -0.1522,4.5071 -0.2178,0.9166 -1.2638,1.617 -1.5683,2.8808 -0.2254,0.9715 -1.8272,-0.072 -2.6038,0.7294 -0.9136,0.9425 -1.5378,0.9166 -3.5021,0.9273 -1.4845,0.015 -2.2687,1.3399 -3.7457,1.3566 -2.016,0.032 -2.0403,1.5227 -3.129,2.6327 -0.7294,0.7613 -1.0491,1.5226 -2.485,1.8881 -1.8576,0.5025 -1.5531,-0.603 -2.6189,0.5025 -0.9867,1.0475 -1.4465,0.7613 -3.2098,1.2333 -0.7445,0.1964 -0.5968,-0.2741 -0.7187,-0.9136 l -0.6654,0.1568 c 0.1995,1.7206 -0.6395,6.453 1.1603,7.8112 4.2908,3.2463 5.6155,1.0811 5.5714,2.3449 -0.096,2.1622 -0.5375,5.9688 0.4827,7.6939 0.976,1.6414 3.869,-1.5424 5.2972,-0.9181 l 0.059,-0.1401 c 0.5177,-1.0811 1.311,2.1454 2.3784,2.6646 1.0811,0.533 2.4408,0.5786 3.8066,0.5634 0.5025,0 2.386,-1.0049 3.2082,-1.2227 1.2821,-0.3319 3.0773,-0.029 4.4051,-0.041 0.9242,0 3.1062,-2.0251 4.3699,-1.7221 1.1603,0.2862 5.6064,0.44 6.2277,-0.2193 0.5025,-0.5161 1.6262,-0.8222 3.7289,-0.4826 1.4633,0.2268 1.71,-0.1036 3.5219,-0.1188 1.6932,-0.02 2.4545,0.3274 3.5204,0.8603 1.5546,0.7811 2.0236,0.9623 1.2029,2.6844 -0.5421,1.142 -0.5619,2.2413 -0.5421,3.9026 0,0.4232 1.1831,1.7632 1.1831,3.2706 0.02,1.3399 -1.8089,1.9185 -1.4907,3.2432 0.1706,0.6228 2.9555,2.6022 3.3224,3.3316 0.5391,1.0826 0.4249,2.587 0.7614,3.9467 0.3639,1.413 1.3612,3.6239 0.8831,4.67 -1.2455,2.8595 -4.067,2.0251 -5.8926,-0.1554 -1.2151,-1.451 -1.8424,-0.9486 -2.7027,-0.032 -0.8573,0.8877 -1.0659,2.6357 -2.0449,3.1412 -1.3247,0.7004 -1.3598,2.284 -1.6019,3.365 -0.3197,1.3811 3.257,2.2033 3.5904,3.5265 0.1218,0.4842 4.0061,-1.0034 5.8318,0.5618 0.8055,0.6974 -2.89,3.6361 -2.2673,4.9167 0.5619,1.1298 -1.2988,3.6239 -0.7171,5.1039 1.1222,2.823 1.8424,1.7221 3.0453,2.1637 0.941,0.3532 6.488,3.0925 6.2093,3.8858 -1.1907,3.4731 8.2969,-0.9258 8.0959,0.4126 -0.1202,0.8344 3.9285,5.3414 3.7656,7.6452 0,0.2162 -0.043,0.4005 -0.1401,0.5619 l 0.2192,0.2192 c 1.0476,0.6974 3.3148,1.9033 3.9681,0.7294 0.6288,-1.1192 -3.895,-5.7099 -1.3643,-7.3696 1.3643,-0.8832 -2.5627,-5.3902 0.5435,-4.906 1.9627,0.3121 3.3636,-0.7004 4.4112,-1.4283 0.8054,-0.5679 3.7898,0.667 5.2348,0.667 0.2771,0 0.5025,-0.043 0.6395,-0.1645 0.1629,-0.1385 0.2924,-0.3426 0.3974,-0.5984 v 0 c 0,0 1.8835,0.081 2.1378,0.081 0.2543,0 0.8253,0.5071 1.142,0.8253 0.3167,0.3182 2.4104,0.1264 2.791,0.1264 0.3807,0 1.4587,0.507 2.0937,0.7613 0.6349,0.2543 1.7129,-0.507 2.22,-0.7613 0.507,-0.2543 0.8253,-1.4587 0.8253,-1.4587 0,0 0.9516,0.571 1.4587,0.9516 0.507,0.3807 3.0452,4.6304 3.0452,4.6304 0,0 -0.1903,1.2059 -0.7613,1.8409 -0.571,0.6349 -0.571,2.5367 -0.571,3.1077 0,0.571 -1.2059,1.5866 -1.2059,1.5866 0,0 -1.713,0.1903 -2.22,0.1903 -0.5071,0 -0.9517,1.0156 -0.9517,1.206 0,0.1903 -0.1264,0.6973 0.4446,1.142 0.571,0.4446 0.7614,1.5226 -0.507,1.9033 -1.2684,0.3806 -0.8253,1.2683 -0.8253,1.649 0,0.3807 0.3167,1.5866 0.571,1.7769 0.2543,0.1904 3.8066,4.2497 4.3776,4.8207 0.571,0.571 1.777,2.7286 1.777,2.7286 l -1.5227,1.8196 v 0 c 0.7293,2.724 -7.6118,4.7978 -5.9216,6.5032 1.9337,1.949 5.0399,-1.11 6.3494,0.8679 2.1987,3.2889 -0.2436,2.9083 0.2741,7.4305 0.201,1.8714 3.0453,5.0704 3.9741,2.8322 1.2333,-2.954 4.4949,-3.2128 5.9231,0.03 0.9791,2.2398 3.5828,-2.054 3.5249,0 -0.076,2.8306 2.5581,7.5492 5.9079,7.5812 2.3906,0.046 8.3137,1.4739 10.0342,2.6327 0.6761,0.4446 1.4983,0.8694 2.4211,1.1739 l -0.4112,-10.4605 -0.5177,-2.8626 0.1371,-0.9441 1.0963,-1.7662 0.3959,-1.1573 -0.2223,-2.9432 0.2862,-0.9425 0.903,-0.3487 0.9409,-2.284 -0.44,-1.4435 0.2406,-0.7613 v -2.3159 l -0.4111,-0.8832 0.091,-1.3399 -0.4811,-2.086 0.239,-2.6966 0.1812,-1.174 0.9608,-6.488 0.7248,-1.5059 0.8527,-0.8664 0.3502,-1.1587 -0.8832,-1.7815 -0.6699,-0.335 -0.031,-0.4416 0.4111,-1.1267 -0.5177,-1.34 0.4873,-3.9634 0.4187,-1.4907 2.5702,-0.3654 0.3655,-0.5558 0.015,-1.7282 -1.0049,-1.11 -0.6548,-0.032 0.015,0.4873 0.4416,0.2588 v 0.335 l -0.5786,0.084 -0.6014,-0.3609 -0.3807,-1.005 -0.6669,-4.9942 0.6852,-2.823 1.177,-0.603 v -4.2025 l 0.4065,-0.3807 0.2954,-0.8679 -0.2954,-0.472 0.2132,-0.4872 1.5379,-1.675 1.3247,-2.3799 0.4415,-1.5378 -0.5329,-1.7358 0.076,-0.3228 0.1979,-0.9608 -0.9745,-1.0613 -4.6745,-3.2128 -0.6548,-1.8089 -1.6292,-1.5546 -1.0811,-1.6597 -0.8542,-3.091 -1.582,-2.421 -0.4766,-0.4872 -0.5329,-3.1672 -0.096,-1.1572 0.2848,-2.9844 -0.4675,-0.8983 -0.061,-1.9033 0.096,-0.5786 c 0.032,-0.2726 0.3046,-1.8318 0.3046,-1.8318 l 1.1739,-4.1553 1.9627,-3.3681 0.7614,-0.1994 0.3014,-1.4283 1.11,-1.582 0.6852,-0.3015 0.3807,-1.3856 0.3807,-0.3807 0.2223,-0.2223 0.6395,-1.1739 1.6048,-1.6597 -0.021,-0.67 -1.1602,1.4313 -0.501,0.041 0.6,-1.1739 1.1221,-1.2425 0.7294,-0.2025 0.7933,-1.0217 0.5436,0.5222 1.11,-1.2013 -0.8024,-0.3609 0.7613,-0.5801 0.5968,-0.043 0.4751,0.2863 0.5801,-0.8603 1.6171,0.2406 1.11,-1.5547 0.4416,-0.039 0.1203,-1.7267 0.4217,-0.6669 0.2421,-3.5935 0.2406,-0.3487 1.4024,-1.987 0.9181,-0.1386 0.1569,-0.2588 -0.3198,-1.0811 -1.0628,-0.1371 -0.2162,-0.8222 0.1614,-0.4766 1.11,0.7614 0.4416,0.102 0.2436,-0.198 1.2014,-3.1671 1.0019,-2.6798 0.2862,-0.1995 -0.094,-1.0034 0.5817,-0.5634 -0.076,-0.8222 z"
     name="Nuoro"
     />
  <path
     id="oristano"
     d="m 119.7627,237.9803 c 0.3244,0.2314 -0.012,0.052 0,0 z m 2.7667,-6.6418 c 0.1995,-1.3399 -9.2882,3.056 -8.0959,-0.4126 0.2741,-0.7964 -5.2684,-3.5356 -6.2124,-3.8874 -1.2029,-0.4415 -1.9186,0.6609 -3.0453,-2.1636 -0.5786,-1.48 1.279,-3.9757 0.7156,-5.1055 -0.6197,-1.2744 3.0773,-4.2192 2.2688,-4.9166 -1.8272,-1.5638 -5.71,-0.079 -5.8318,-0.5634 -0.3289,-1.3232 -3.9101,-2.1423 -3.5873,-3.5264 0.2375,-1.0811 0.2786,-2.6647 1.6003,-3.3651 0.9775,-0.507 1.1861,-2.2565 2.0434,-3.1412 0.8633,-0.9136 1.4861,-1.4145 2.7057,0.032 1.8211,2.1804 4.6471,3.0163 5.8896,0.1568 0.4766,-1.0476 -0.5207,-3.2554 -0.8801,-4.6684 -0.341,-1.3643 -0.2238,-2.8672 -0.7613,-3.9483 -0.367,-0.7293 -3.1534,-2.7057 -3.3255,-3.3315 -0.3197,-1.3247 1.5075,-1.9033 1.4907,-3.2448 0,-1.5059 -1.1861,-2.8458 -1.1861,-3.2706 -0.015,-1.6612 0,-2.759 0.5451,-3.901 0.8207,-1.7267 0.3487,-1.9033 -1.2029,-2.686 -1.0689,-0.5299 -1.8302,-0.8831 -3.5219,-0.8618 -1.8104,0.018 -2.0556,0.3472 -3.5173,0.1218 -2.1043,-0.3411 -3.228,-0.035 -3.7305,0.4812 -0.6243,0.6608 -5.0704,0.5024 -6.2276,0.2192 -1.2638,-0.303 -3.4503,1.7221 -4.37,1.7221 -1.3278,0.014 -3.1214,-0.2938 -4.4096,0.043 -0.8177,0.2162 -2.7012,1.2196 -3.2037,1.2196 -1.3703,0.017 -2.7255,-0.03 -3.8066,-0.5618 -1.0689,-0.5193 -1.8576,-3.7457 -2.3799,-2.6647 l -0.056,0.1371 c -1.4283,-0.6213 -4.3258,2.5626 -5.2973,0.9196 -1.0202,-1.7266 -0.5786,-5.5333 -0.4872,-7.6954 0.046,-1.2638 -1.2791,0.8999 -5.5729,-2.3449 -1.7968,-1.3582 -0.9593,-6.0906 -1.1572,-7.8112 l 0.7004,-0.1598 c -0.061,-0.3426 -0.198,-0.7233 -0.5634,-1.0842 -0.4157,-0.4385 -3.3285,-1.7541 -3.7229,-1.8622 -1.582,-0.3989 -0.3213,-1.142 -0.7841,-2.9067 -0.2833,-1.1526 0.061,-1.7145 -1.7024,-3.2676 -0.5968,-0.5299 -1.1602,-2.389 -1.8606,-3.3316 -1.3247,-1.7982 -3.8067,-5.1039 -5.7861,-5.0871 -1.5683,0.014 -2.9326,1.3856 -3.8523,2.3281 -0.944,0.9928 -0.5634,1.5668 -2.4819,1.6003 -1.4907,0 -3.9193,0.6837 -4.1416,-0.2162 -0.096,-0.3639 -0.2589,-0.7446 -0.4873,-1.11 l -0.4111,0.6852 -0.1218,2.0068 -0.6395,0.702 -0.1477,1.2622 -0.5177,1.174 0.096,1.6445 -0.7263,0.5953 -0.3349,0.7446 0.3197,0.603 0.1827,0.3365 0.2132,0.9608 -0.2132,1.384 0.5939,0.093 0.3502,-0.4126 0.9288,0.5618 1.0963,-0.1035 0.2741,0.3198 1.5987,0.061 1.1679,0.4568 0.4568,0.5801 0.1827,1.1633 0.6669,0.3197 1.681,-0.3197 0.667,0.5801 0.4872,1.142 0.198,1.8607 0.609,0.7004 0.5025,-0.2162 0.7963,0.036 0.046,0.023 0.1827,0.2177 -0.1675,0.137 -0.061,0.061 -0.944,0.8375 -0.137,0.4614 0.5177,0.061 0.5481,1.11 -0.4263,2.7681 -0.7157,0.7294 -1.2333,4.0655 -0.6502,0.807 0.6654,0.7293 -0.3502,2.0617 0.061,2.9235 -0.5025,1.7373 -0.3197,1.3643 0.4126,1.2181 -0.3045,1.2364 0.472,1.885 1.174,2.823 1.2181,1.6993 0.3045,0.8222 0.2132,0.5802 0.137,0.9196 0.046,0.3487 0.3654,-0.1583 0.2589,-0.1036 0.1066,0.2589 -0.1218,0.1218 -0.5786,0.606 -0.2087,0.8222 0.4873,1.8577 -0.1827,0.7186 -2.9692,3.563 -1.7358,1.4861 -0.5634,0.198 -0.1218,0.037 -1.0354,-0.5329 -0.3654,0.061 -1.9186,1.3552 -0.7004,-0.015 -0.4126,-0.2771 -0.3487,-0.9257 -0.7156,-0.3807 -0.6091,1.4008 -0.5938,-0.3197 -0.501,0.1324 -0.5786,0.5802 -0.1644,0.303 -0.1386,0.2223 0.038,0.6395 0.2284,0.338 0.2238,0.2223 0.5192,0.1584 0.5801,-0.018 0.7614,-0.3624 0.539,-0.1994 0.4035,0.105 0.5801,0.9441 0.1995,0.8983 0.1203,0.4751 0.1035,0.9014 -0.032,0.6669 -0.1675,0.4264 -0.274,0.7156 -0.3487,0.6395 -1.5546,2.4835 -0.5482,1.1419 v 0.4614 l 0.8679,1.2821 0.061,0.74 -0.032,1.4846 -0.1583,5.8043 -0.2589,0.9014 0.1645,0.8557 0.7385,0.7294 1.0506,0.094 1.6444,1.5546 1.1238,1.582 0.3806,0.7796 -0.084,1.0476 -0.7004,0.842 0.023,0.7781 0.7613,0.1401 0.5573,-0.9425 0.024,-0.804 0.015,-0.8024 0.3654,-1.3065 0.938,-1.2622 1.7617,-1.3019 -0.015,-0.5207 -0.4827,-0.032 -1.6232,1.7206 -0.2588,-0.2589 0.3197,-0.7445 -0.1674,-0.5193 -0.4721,0.2254 -0.2284,0.6395 -0.2588,0.017 0.2588,-1.2013 0.8679,-0.2162 1.0629,-1.142 2.0631,-0.201 0.1066,0.2177 -0.1675,0.2254 -1.4008,0.5588 0.3198,0.2421 2.223,-0.4599 0.3655,-1.0201 0.5786,-0.5375 0.4766,-0.061 0.1781,0.4126 -0.6426,0.6806 -0.2223,0.7202 0.2589,0.1584 3.228,-0.2238 1.0019,0.7171 1.343,1.5668 0.5786,1.6003 0.9593,2.0678 0.4872,1.8424 -0.3502,2.2246 0.032,0.9593 0.078,3.8066 -1.1009,4.0928 -1.2835,2.5002 -2.3434,2.4484 -0.2984,0.667 0.1537,0.341 0.5375,-0.1218 2.4058,-3.0133 0.539,-0.3487 0.198,0.5588 -0.7613,1.4831 -2.82,3.9071 -0.7034,1.3232 c 1.4221,1.9642 3.1869,3.9101 4.0867,4.3517 1.2638,0.635 0.8832,0.068 3.5021,0.2863 2.8306,0.2406 2.5885,-0.4599 3.2113,-0.5208 3.3148,-0.2862 1.7312,3.5661 2.8869,4.1447 1.4009,0.705 1.949,2.3951 3.0301,2.9448 1.11,0.5618 1.5531,2.1454 3.1671,2.1256 1.8272,-0.018 2.086,-0.6213 3.8066,-0.6411 0.9928,0 1.1116,1.7648 2.3784,2.0663 2.0129,0.5025 3.0057,0.1614 4.1477,-0.5025 2.0617,-1.2014 0.603,-1.9201 2.7849,-3.1229 3.0133,-1.6719 2.82,-0.8025 3.3651,-1.3826 0.7126,-0.7446 2.9828,0.2588 3.7122,-0.4842 0.9592,-1.0034 1.177,-1.5501 1.7434,-2.7042 0.3685,-0.7918 1.9216,-1.445 2.622,-1.8257 0.8375,-0.4233 1.477,-1.8272 2.0251,-2.4058 0.3183,-0.3289 2.0191,-4.711 4.5101,-8.3014 -0.44,-0.7675 -0.9973,-1.7419 -1.11,-1.9353 -0.1903,-0.3335 -1.8089,-1.2364 -2.3799,-1.2364 -0.571,0 -0.6669,-0.9045 -0.6669,-1.1892 0,-0.2847 -0.4264,-0.9989 -0.5253,-1.4754 -0.096,-0.4766 0.6182,-0.6182 1.0963,-0.6182 0.4781,0 4.0928,0.047 4.4735,0.1431 0.3807,0.096 1.142,1.0476 1.2851,1.4282 0.1447,0.3807 1.2867,0.9045 1.2867,0.9045 0,0 1.9489,-2.7119 2.1895,-3.0453 0.2406,-0.3335 2.1409,-4.7583 2.1409,-4.7583 0,0 2.0936,0 2.2367,0 0.1432,0 1.4755,0.571 2.1896,0.9045 0.7141,0.3365 0.9958,0.9988 0.9958,1.5698 0,0.2863 0.74,1.1923 1.4816,2.0267 3.8385,-3.4884 8.3897,-7.6117 8.3974,-7.6452 1.3292,0.8587 5.8789,1.9124 6.3646,0.9836 l 0.1675,0.018 c 0.1797,-2.3358 -3.866,-6.8428 -3.7457,-7.6818 z"
     name="Oristano"
     />
  <path
     id="sassari"
     d="M 151.9967,0.03 V 0.02 L 151.9857,0.01 151.9707,0 h -0.014 l -0.015,0.025 -9e-4,0.011 v 0.036 l 0.018,0.018 0.033,0.011 h 0.022 0.025 0.01 V 0.091 0.08 l -0.015,-0.033 -0.015,-0.018 -0.014,7e-4 v -0.014 z m 0.8708,0.8547 0.372,-0.058 0.075,-0.014 v 0 l -0.048,-0.4346 -0.089,-0.1056 -0.3331,-0.1536 -0.05,-0.015 -0.4198,0.1293 -0.018,0.01 -0.2173,0.1568 -0.082,0.2297 -9e-4,0.015 0.01,0.037 0.01,0.022 0.01,0.011 0.052,0.046 0.072,0.036 0.5427,0.095 0.049,0.01 h 0.072 z m -0.8438,-0.093 h 0.011 l 0.01,-0.011 0.018,-0.033 0.01,-0.018 v -0.01 l -0.022,-0.029 -0.011,-0.011 -0.089,-0.06 -0.01,-0.011 -0.022,-0.022 h -0.011 l -0.081,0.025 -0.022,0.011 -0.038,0.073 v 0.011 0.014 l 0.018,0.036 h 0.01 l 0.022,0.01 0.1827,0.033 0.01,7e-4 0.015,-7e-4 z m -3.2485,0.229 -0.1402,-0.1449 -0.069,-0.091 0.01,-0.05 -0.022,-0.038 -0.041,-0.025 -0.3683,0.075 -0.043,0.04 -0.3651,0.3458 -0.096,0.1078 -0.011,0.015 -0.01,0.025 -0.075,0.6749 0.014,0.015 0.092,0.065 0.033,0.01 0.17,0.018 0.063,-0.033 0.17,-0.047 0.1492,-0.038 0.2363,-0.036 0.858,0.3597 0.025,0.022 0.025,0.059 -0.018,0.053 -0.029,0.341 0.791,0.5763 h 0.066 l 0.045,-0.01 0.3062,-0.065 0.097,-0.059 0.083,-0.06 0.029,-0.053 V 2.9576 2.9156 l -0.071,-0.2439 -0.022,-0.049 -0.6625,-1.0076 -0.022,-0.018 -0.025,-0.011 -0.3855,0.038 -0.7848,-0.6054 z m 2.7403,3.1964 h 0.018 l 0.1256,-0.067 1.5362,-1.0079 0.5281,-0.5275 0.1242,-0.154 0.022,-0.1707 V 2.272 l -0.4998,-1.3239 -0.022,-0.045 -0.066,-0.04 -0.033,-0.011 h -0.045 l -0.6927,0.807 -0.6287,0.1915 -0.8929,0.7786 -0.036,0.045 -0.025,0.097 -0.022,0.093 -0.043,0.2767 0.079,0.1754 0.4794,0.8871 0.018,0.018 0.06,0.01 h 0.022 z m 4.2958,-2.195 0.063,-0.018 v -0.015 -0.05 l -0.01,-0.057 -0.01,-0.018 -0.022,-0.011 h -0.01 -0.046 l -0.015,0.01 -0.011,0.01 -0.037,0.068 0.014,0.04 0.052,0.053 h 0.025 z m 0.082,1.3545 0.018,-0.011 0.014,-0.018 0.08,-0.1915 v -0.022 -0.036 -0.025 l -0.1751,-0.482 -0.084,-0.1256 -0.011,-0.011 -0.063,-0.048 -0.047,-0.01 -0.045,0.1459 -0.3068,0.427 -0.011,0.046 v 0.053 l 0.052,0.065 0.1311,0.1504 0.014,0.01 0.018,0.01 0.2872,0.077 h 0.033 l 0.084,-0.01 z m 0.6381,-0.1678 0.018,-0.015 0.029,-0.076 -0.049,-0.1271 v -0.011 l -0.079,-0.1456 -0.011,-0.022 -0.018,-0.029 -0.033,-0.042 -0.014,-0.01 -0.1664,0.01 -0.036,0.029 -0.018,0.089 v 0.011 0.011 l 0.033,0.1376 0.014,0.036 0.042,0.094 0.022,0.018 0.033,0.018 0.1933,0.048 0.046,-0.025 z m -9.0819,-0.2119 0.015,-0.01 0.011,-0.022 -9e-4,-0.014 -0.01,-0.011 -0.01,-0.01 -0.015,0.01 -0.018,0.011 -0.011,0.011 -0.014,0.011 0.011,0.022 h 0.01 0.018 0.011 z m 0.2781,-0.029 h -0.01 l -0.067,0.018 -0.011,0.01 v 0.018 0.057 0.01 l 0.014,0.011 h 0.011 l 0.029,0.01 h 0.014 0.011 l 0.029,-0.041 0.025,-0.045 0.01,-0.036 h -0.01 l -0.045,0.022 -9e-4,-0.018 z m 0.1121,0.042 v -0.014 -0.026 h -0.014 l -0.037,0.033 -0.029,0.068 v 0.011 0.018 h 0.01 l 0.018,0.015 h 0.011 l 0.022,4e-4 h 0.025 0.015 l 0.025,-0.025 v -0.011 l -0.025,-0.06 h -0.011 -0.01 v -0.01 z m 0.2923,0.038 0.015,-0.018 0.011,-0.033 v -0.015 l -0.029,0.01 -0.025,0.01 -0.025,0.025 v 0.014 l 0.011,0.025 h 0.01 l 0.042,-0.018 z m -0.522,0.059 h 0.01 l 0.011,-0.022 0.01,-0.018 v -0.025 -0.018 l -0.01,-0.01 h -0.015 l -0.052,0.018 -0.01,0.063 v 0.01 0 l 0.05,4e-4 z m 2.6068,2.8911 0.1598,-0.045 0.018,-0.022 0.1328,-0.332 0.062,-1.2238 -0.2811,-0.3498 -0.2639,-0.083 -0.6945,-0.015 -0.3233,0.2286 -0.7196,0.4816 -0.4394,0.1857 -0.1099,0.048 -0.018,0.015 -0.011,0.011 v 0.015 l 0.01,0.033 0.1536,0.268 1.5744,0.9075 h 0.022 L 150.22,5.9945 Z m 0.874,-1.7491 0.025,-0.011 v -0.014 l 0.011,-0.04 -0.011,-0.036 -0.022,-0.01 h -0.011 l -0.011,-7e-4 v 0 l -0.033,0.01 -0.01,0.01 v 0.056 l 9e-4,0.015 0.015,0.014 0.011,0.01 0.026,0.015 h 0.014 z m 4.5629,0.04 h 0.011 l 0.014,-0.011 0.01,-0.01 v -0.015 -0.014 h -0.01 l -0.015,-0.01 -0.018,0.011 -0.022,0.014 v 0.018 0.022 h 0.011 0.018 z m 0.1708,0.065 0.014,-0.015 v -0.014 -0.018 l -0.045,-0.068 -0.01,4e-4 h -0.018 l -0.025,0.01 -0.051,0.022 h -0.01 v 0.011 0.011 l 0.09,0.059 h 0.022 l 0.022,-0.01 z m -4.2281,0.1325 0.022,-0.01 0.029,-0.029 0.029,-0.05 -0.01,-0.043 -0.025,-0.088 -0.033,-0.015 -0.043,0.011 -0.029,0.011 -0.029,0.018 -0.047,0.13 9e-4,0.014 0.011,0.018 0.011,0.01 0.045,0.026 h 0.029 0.037 z m -3.6031,-0.011 0.022,-0.025 0.01,-0.029 0.011,-0.01 v -0.015 l -0.01,-0.04 -0.014,-0.022 -0.011,-0.01 h -0.022 l -0.014,0.014 -0.056,0.099 v 0.025 l 0.011,0.018 0.025,0.01 h 0.022 l 0.022,-0.014 z m 7.8421,0.9202 0.04,-0.018 0.066,-0.033 0.1012,-0.1478 0.042,-0.4026 9e-4,-0.13 v -0.025 l -0.087,-0.2519 -0.014,-0.014 -0.093,0.01 -0.018,0.011 -0.011,0.01 -0.046,0.048 -0.1169,0.3574 v 0.015 l 0.029,0.34 0.079,0.245 0.036,-0.01 z m -4.3777,-0.8212 0.042,-0.01 0.018,-0.022 v -0.011 l -0.011,-0.011 -0.029,-0.029 -0.029,-0.011 h -0.029 l -0.033,0.011 -0.022,0.018 -0.011,0.014 v 0.015 l 0.011,0.022 0.018,0.01 h 0.054 0.029 z m -0.063,0.3371 0.029,-0.011 0.025,-0.037 v -0.025 l -0.025,-0.011 h -0.015 l -0.018,0.01 -0.022,0.047 9e-4,0.01 v 0.015 l 0.014,0.011 0.01,-0.01 z m -0.1125,-0.056 -0.018,-0.011 h -0.015 l -0.014,0.01 -0.022,0.018 v 0.018 0.029 0.015 h 0.04 l 0.037,-0.022 0.015,-0.01 0.025,-0.018 v -0.022 l -0.011,-0.014 -0.018,0.01 h -0.029 z m 4.8279,1.1441 -0.014,0.01 v 0.011 0.011 l 0.022,0.056 h 0.011 l 0.015,4e-4 0.01,-0.011 0.018,-0.036 V 6.023 l -0.01,-0.011 h -0.014 l -0.015,-7e-4 h -0.015 l -0.01,-0.011 z m 3.4611,2.8434 -0.053,-0.1842 -0.3058,-0.5468 -0.7819,-0.7058 -0.018,-0.015 -0.069,-0.038 -0.2693,-0.01 -0.01,-0.033 -0.1212,-0.066 -0.053,-0.022 -0.058,0.014 -0.2999,0.1365 -0.042,0.022 -0.2061,1.1852 -0.014,0.277 0.011,0.055 0.075,0.1708 0.025,0.055 0.1183,0.067 0.054,0.022 0.092,0.011 0.049,-0.01 -0.092,0.3043 -0.221,0.6404 -0.018,0.048 -0.025,0.026 -0.057,0.051 -0.066,0.033 -0.072,0.022 -0.096,-0.046 -0.3724,-0.2155 -0.018,-0.018 -0.08,-0.1175 -0.022,-0.033 -0.2482,-0.4139 -0.3571,1.5515 -0.1569,0.4379 -0.1605,0.1452 -1.1249,0.8893 -1.0196,0.2883 -0.038,-0.014 -0.4179,0.04 -0.062,0.085 -0.2737,0.6279 -0.1831,0.4743 0.2544,1.5009 0.6662,1.2813 0.029,0.018 0.061,0.018 0.6382,0.074 0.1801,0.01 1.5518,-0.099 0.2858,-0.1074 0.2137,-0.094 0.7258,-0.4877 0.5792,-0.3706 0.065,-0.025 0.1012,0.01 0.039,0.01 0.036,0.011 0.059,0.039 0.051,0.13 0.011,0.072 -9e-4,0.025 0.01,0.057 0.018,0.056 0.1248,0.091 0.071,0.042 2.0116,-0.018 0.1074,-0.084 0.1642,-0.3964 0.076,-1.0451 v -0.029 l -0.089,-0.2203 -0.088,-0.1008 -0.025,-0.015 h -0.038 l -0.033,0.01 h -0.022 -0.1132 l -0.094,7e-4 h -0.039 v -0.04 l 0.051,-0.5212 0.018,-0.064 0.091,-0.1605 0.022,-0.018 0.1034,-0.05 0.022,0.01 0.3043,0.1212 0.097,0.042 0.033,0.022 v 0.037 l -0.025,0.033 -0.039,0.018 h -0.039 -0.039 l -0.015,0.018 -0.01,0.022 0.014,0.015 0.085,0.01 h 0.05 0.1237 l 0.2184,-0.1139 0.054,-0.057 0.3706,-0.577 v -0.033 -0.033 l -0.1231,-0.1361 -0.022,-0.015 -0.025,0.018 -0.014,0.033 -0.01,0.033 -0.092,-0.038 -0.1809,-0.074 -0.011,-0.018 v -0.053 -0.022 l 9e-4,-0.1631 v -0.071 l 0.01,-0.043 -0.01,-0.014 -0.1179,-0.058 -0.1129,0.025 -0.4299,0.2686 -0.138,0.2101 -0.4553,0.09 0.4015,-1.1506 -0.086,-1.1128 -0.044,-0.2647 -0.022,-0.022 -0.022,-0.018 -0.022,-0.01 -0.2902,-0.098 -0.029,-0.01 -0.051,0.022 -0.2086,0.1271 -0.042,0.039 -0.011,0.1012 v 0.018 L 159.233,10.1847 159.0368,9.2608 159.585,8.852 Z m -23.2596,0.4932 0.064,-0.048 v -0.029 l -0.033,-0.088 h -0.1037 -0.01 -0.025 l -0.038,7e-4 -0.041,0.01 v 0.036 0.011 l 0.05,0.1063 0.089,0.018 0.047,-0.01 z m -0.3083,0.054 0.014,-0.015 0.018,-0.037 0.01,-0.025 v -0.015 -0.011 l -0.025,-0.036 -0.036,0.022 -0.064,0.072 -0.011,0.06 0.045,0.015 0.043,-0.036 z m -0.07,0.4885 0.083,-0.1638 v -0.018 -0.011 -0.015 l -0.018,-0.014 -0.015,-0.011 v -0.014 l -0.011,-0.025 -0.022,-0.018 -0.011,-0.011 -0.1125,-0.043 -0.018,0.015 -0.073,0.084 -0.025,0.059 -0.052,0.1646 0.025,0.067 h 0.1387 l 0.1114,-0.043 z m 19.6966,0.044 0.142,-0.057 0.018,-0.011 -9e-4,-0.085 -0.015,-0.029 -0.011,-0.04 -0.022,-0.022 -0.047,-0.011 -0.2144,0.055 -0.01,0.025 0.01,0.086 0.01,0.04 0.025,0.042 0.015,0.025 h 0.036 l 0.064,-0.022 z m -7.1423,0.2032 -0.011,-0.01 -0.022,-0.04 v -0.014 l -0.053,-0.2501 -0.01,-0.011 -0.086,-0.04 -0.043,0.011 -0.269,0.1784 -0.1045,0.1569 -0.3567,0.5573 -0.01,0.025 -0.01,0.036 -0.01,0.05 -0.022,1.9161 0.3356,0.5028 0.011,0.011 0.3709,0.2821 0.2424,0.1824 0.6105,0.115 0.2461,-0.062 0.5893,-0.4037 0.6866,-0.7415 0.01,-0.011 0.033,-0.081 0.01,-0.014 0.014,-0.048 0.2239,-0.7419 0.025,-0.092 v -0.022 l -0.055,-0.2315 -0.011,-0.014 -0.2327,-0.089 -0.084,0.063 -0.041,0.022 -0.033,0.011 h -0.022 l -0.039,-0.025 -0.025,-0.025 -0.011,-0.029 v -0.025 -0.029 l 0.01,-0.029 0.036,-0.1445 -0.1962,-0.3382 -0.045,-0.1612 -0.042,-0.2519 -0.01,-0.025 -0.015,-0.029 -0.038,-0.061 -0.018,-0.025 -0.2323,-0.1441 -0.033,-0.015 -0.041,-0.018 -0.053,0.011 -0.038,0.022 -0.022,0.022 -0.014,0.015 0.001,0.1114 -0.099,0.025 -0.2374,0.053 -0.7633,-0.089 z m -1.937,0.3673 0.01,-0.018 0.01,-0.022 v -0.091 l -0.01,-0.097 -0.1103,-0.3163 -0.038,-0.01 -0.057,-0.011 -0.2592,0.2373 9e-4,0.1704 0.039,0.1325 0.057,0.1795 0.3563,-0.1544 z m -17.2002,-0.036 0.022,-0.1937 -0.01,-0.029 -0.04,-0.1118 -0.1209,-0.1452 -0.029,-4e-4 -0.033,0.029 -0.076,0.1751 v 0.015 l -0.029,0.1376 v 0.015 l 0.2362,0.1725 0.042,0.025 0.037,-0.091 z m 26.0451,0.029 0.033,-0.011 h 0.018 l 0.04,-0.036 0.025,-0.041 -0.01,-0.018 -0.015,-0.033 -0.01,-0.014 h -0.022 l 0.011,-0.018 v -0.018 l -0.015,8e-4 -0.025,0.01 -0.029,0.015 -0.025,0.093 v 0.015 0.015 0.036 l 0.01,0.018 h 0.014 z m -4.9641,0.5373 0.01,-0.011 v -0.018 l 0.018,-0.018 0.022,-0.015 0.01,-0.015 v -0.014 -0.015 l -0.061,-0.025 -0.015,0.011 v 0.018 0.039 l 0.01,0.059 0.01,0.018 h 0.01 l 0.011,-0.015 z m 14.0293,0.1077 0.018,-0.046 -0.2749,0.3538 -0.6789,-0.1237 -0.5009,0.2362 0.093,0.755 0.029,0.4991 -0.2272,1.0924 -0.3971,0.7211 -0.06,-0.051 -0.025,-0.018 -0.033,-0.015 -0.1671,-0.063 -0.075,-0.029 -0.046,-0.014 -0.022,-0.01 -0.1671,-0.033 -0.052,0.029 -0.1503,0.126 -0.018,0.05 -0.018,0.107 0.242,0.1213 0.1347,0.1092 0.018,0.022 v 0.6356 l -0.1416,0.2399 -0.3775,0.1561 0.067,0.4831 0.4059,1.0997 0.3553,-0.039 h 0.01 l 0.1114,0.095 0.011,0.01 0.1369,0.7921 v 0.045 l -0.011,0.033 -0.1667,0.089 -0.073,0.022 h -0.025 -0.041 l -0.2665,-0.01 -0.037,-0.01 -0.3298,-0.1052 -0.051,-0.037 -0.015,-0.011 -0.011,-0.025 -0.015,-0.025 -0.014,-0.018 -0.371,-0.3305 -0.014,-0.01 -0.1398,-0.014 -0.018,0.037 0.01,0.186 -0.1107,0.4441 -0.048,0.1879 -0.011,0.043 h -0.029 l -0.033,0.011 -0.033,0.022 -0.015,0.033 -0.054,0.2184 v 0.033 0.029 l 0.044,0.3003 0.1212,0.2421 0.033,0.048 0.039,0.029 0.1154,0.1154 v 0.033 l -0.011,0.022 -0.4267,0.1216 -0.1438,0.029 h -0.011 l -0.1299,-0.033 -0.011,-0.01 -0.042,-0.029 -0.1215,-0.099 -0.078,-0.099 -0.061,-0.046 -0.063,0.049 -0.1311,0.1903 -0.01,0.038 -0.01,0.056 0.029,0.1464 0.029,0.033 0.037,0.04 0.2297,0.1525 0.041,-0.01 -0.074,0.668 v 0.073 0.014 l 0.068,0.2421 0.011,0.018 0.011,0.015 0.057,0.033 h 0.033 l 0.5308,-0.1172 0.018,-0.011 0.313,-0.3641 0.025,-0.065 0.058,-0.1678 v -0.011 l -0.018,-0.011 -0.146,-0.011 h -0.047 l 0.5147,-0.8984 0.2137,-0.1492 0.4852,-0.093 0.022,4e-4 0.025,0.011 0.1897,0.3 0.1234,0.435 v 0.018 l -0.01,0.086 -0.011,0.029 -0.025,0.047 -0.029,0.055 -0.018,0.025 1.685,0.9581 1.3662,-0.1504 0.022,-0.025 0.1096,-0.1299 0.047,-0.096 v -0.029 -0.2782 l -0.078,-0.186 -0.049,-0.103 -0.049,-0.073 -0.029,-0.043 -0.04,-0.01 -0.8016,0.037 -0.4095,0.147 -0.1391,0.1118 -0.022,0.066 v 0.07 l -0.033,0.1092 -0.1027,0.1168 -0.063,0.01 -0.2275,-0.018 -0.053,-0.022 -0.039,-0.029 -0.033,-0.053 -0.029,-0.086 0.09,-0.7386 0.029,-0.089 0.5821,-0.5279 0.6446,-0.5904 0.4988,-0.5231 0.186,-1.8507 0.6374,-0.799 0.011,0.018 0.025,0.015 h 0.018 0.025 l 0.1136,-0.063 0.1493,-0.4747 0.046,-0.2046 v -0.025 -0.071 l -0.01,-0.033 -0.1492,-0.2126 -0.5956,-0.3771 -0.022,-0.015 -0.086,-1.8816 -0.8879,-0.5183 -0.077,-0.025 -0.049,-0.087 -0.2461,-0.53 -0.033,-0.3196 z m -13.9274,-0.039 -0.015,-0.022 -0.01,-0.01 h -0.022 l -0.011,0.011 -0.01,0.014 -0.011,8e-4 h -0.014 -0.015 v 0.018 0.022 0.011 l 0.029,0.025 0.045,0.015 0.011,-0.011 0.015,-0.033 v -0.011 -0.036 z m -9.6588,1.9799 -0.01,8e-4 h -0.011 v 0 l -0.011,0.011 v 0 0.045 0.022 l 0.01,0.011 0.015,0.01 h 0.025 l 0.014,-0.014 0.046,-0.048 0.01,-0.011 -0.01,-0.011 h -0.018 -0.015 -0.036 l -0.011,-0.011 z m 21.6627,0.8336 0.011,-0.022 -0.043,-0.1205 -0.029,-0.038 -0.018,-0.01 -0.011,0.018 -0.011,0.043 v 0.029 0.015 l 0.011,0.018 0.047,0.053 0.014,0.015 h 0.018 l 0.022,-0.01 z m -14.4843,0.033 0.059,-0.018 v -0.011 -0.04 -0.015 -0.029 l 0.01,-0.059 -9e-4,-0.022 v -0.015 l -0.022,-0.011 h -0.011 l -0.015,0.011 -0.046,0.09 v 0.018 0.075 l 9e-4,0.015 0.014,0.011 h 0.018 z m 14.489,0.229 h -0.018 l -0.1205,0.014 9e-4,0.018 0.058,0.1737 0.061,0.037 0.025,0.01 h 0.018 l 0.022,-0.07 -0.011,-0.1635 -0.018,-0.014 -0.018,0.01 v -0.011 z m -1.0076,0.5933 h -0.011 v 0.025 0.025 l 0.011,0.029 0.022,0.047 0.036,0.07 0.011,0.022 0.018,0.01 0.061,-0.038 0.018,-8e-4 0.1336,0.063 -9e-4,0.025 0.014,8e-4 0.015,-0.011 0.01,-0.014 0.022,-0.044 0.01,-0.025 -0.015,-0.022 -0.025,-0.029 -0.029,-0.018 -0.037,-0.014 -0.036,0.047 -0.018,0.015 -0.018,0.01 -0.026,-0.01 -0.018,-0.015 -0.051,-0.083 h -0.033 l -0.056,-0.064 z m 8.8264,0.5406 -0.033,-0.022 -0.025,0.011 -0.026,0.014 0.029,0.04 0.057,0.039 v -0.079 z m -0.036,0.1416 0.011,-0.018 0.011,-0.018 -0.018,-0.025 -0.01,-0.01 -0.06,-0.01 -0.015,0.062 0.066,0.042 0.015,-0.022 z m -0.2024,0.2948 0.073,-0.058 -0.025,-0.039 -0.1157,0.025 -0.011,0.014 -0.018,0.025 0.01,0.025 0.01,0.029 0.078,-0.022 z m 0.1754,0.029 -0.014,-0.01 -0.025,-0.011 -0.015,0.025 -0.011,0.018 0.064,0.025 v -0.048 z m -12.4563,1.0993 0.142,-0.1336 0.059,-0.075 0.011,-0.1926 v -0.1707 -0.018 l -0.068,-0.1788 -0.022,-0.018 -0.052,-0.037 -0.1744,0.135 -0.1219,0.095 -0.022,0.04 v 0.029 l 0.2461,0.5245 0.01,4e-4 z m 3.6616,0.3221 v -0.011 -0.014 l -0.022,-0.045 -0.011,-0.014 -0.1078,0.047 v 0.01 l 0.01,0.037 v 0.01 h 0.011 l 0.062,0.011 0.054,-0.029 z m -4.5436,3.5336 h 0.026 l 0.5525,-0.1325 0.3699,-0.1336 0.2067,-0.082 0.1001,-0.045 0.1191,-0.07 0.059,-0.062 0.045,-0.064 0.054,-0.087 0.062,-0.1809 0.064,-0.1918 0.042,-0.1365 0.036,-0.1263 0.045,-0.2257 0.01,-0.07 v -0.048 -0.076 l -0.2548,-1.0422 -0.073,-0.1842 -0.063,-0.131 -0.092,-0.1594 -0.079,-0.1326 -0.041,-0.037 -0.025,-0.022 -0.033,-0.015 -0.2107,-0.066 -0.1212,-0.018 -0.7073,0.033 -0.037,0.039 -0.046,0.048 -1.4666,1.5584 -0.011,0.022 -0.1551,0.8598 -0.01,0.2184 v 0.083 0.022 l 0.011,0.018 1.5711,0.6446 h 0.048 z m -11.2409,-2.5882 -0.01,-0.033 -0.029,-0.045 -0.038,-0.039 -0.036,-0.014 -0.01,-0.015 -0.015,0.018 -0.011,0.015 0.011,0.088 0.04,0.018 0.047,0.011 0.039,0.011 0.011,-0.014 z m 15.2258,-0.018 v -0.015 l -0.011,-0.01 -0.018,-0.01 -0.029,-0.015 -0.011,0.015 -0.01,0.014 v 0.018 0.018 0.018 l 0.089,0.1133 0.015,0.011 0.011,0.01 h 0.011 0.042 l 0.011,-0.011 v -0.014 l -0.011,-0.036 -0.068,-0.1172 -0.015,0.01 -9e-4,-0.011 z m -5.6641,0.8365 h -0.015 l -0.059,0.025 -0.022,0.022 v 0.054 0.025 0.022 0.022 l 0.029,0.065 0.022,0.011 0.1307,-0.015 0.022,-0.014 0.018,-0.033 v -0.033 l -0.036,-0.106 -0.011,-0.022 h -0.086 v -0.029 z m -7.6193,1.2286 0.097,-0.045 0.048,-0.038 -0.014,-0.044 -0.01,-0.01 -0.036,-0.025 -0.091,-0.059 -0.045,-0.01 -0.036,-0.037 -0.233,0.036 -0.022,0.092 v 0.079 l 0.1551,0.051 0.046,0.01 0.058,0.01 0.082,-0.011 z m 18.6832,1.5278 0.036,-0.018 0.084,-0.2112 0.015,-0.036 v -0.029 l -0.087,-0.2173 -0.2177,-0.1478 -0.022,-0.055 -0.018,-0.01 -0.038,0.018 -0.039,0.048 -0.015,0.025 -0.037,0.1277 -0.011,0.038 0.045,0.1402 0.025,0.069 0.2719,0.2501 h 0.015 z m 0.1729,-0.5115 h 0.011 l 0.018,-0.018 v -0.022 l -0.01,-0.039 -0.014,-0.033 0.065,-0.059 -0.022,-0.011 -0.1314,0.093 -0.01,0.011 v 0.029 l 0.014,0.029 0.022,0.015 v 0 h 0.01 0.036 z m -3.2357,1.7629 0.033,-0.01 0.029,-0.061 v -0.011 l -0.022,-0.2927 -0.011,-0.053 -0.022,-0.044 -0.022,-0.044 -0.018,-0.029 h -0.014 -0.029 l -0.088,0.048 -0.015,0.01 -0.018,0.036 -0.038,0.1085 v 0.014 l 0.026,0.1107 0.022,0.011 -0.011,0.036 -0.026,0.025 -0.08,0.045 -0.015,0.049 v 0.029 l 0.018,0.011 0.2475,0.018 0.05,-0.01 z m -0.2374,-0.1976 v -0.018 l -0.015,-0.076 -0.014,-0.022 -0.015,-0.014 -0.033,0.011 -0.011,0.029 0.011,0.079 0.011,0.011 0.037,0.011 0.025,-0.011 z m 7.7878,1.9664 h 0.186 l 0.1846,-0.01 0.2188,-0.2315 0.018,-0.018 -0.072,-0.1456 -0.2406,-0.2927 -0.081,-0.04 -0.049,-0.01 -0.054,-0.01 -0.6629,-0.077 -0.015,-0.026 h -0.056 l -0.043,0.014 -0.1147,0.061 v 0.018 l -0.01,0.048 0.01,0.022 0.1812,0.1387 0.1453,0.1354 0.066,0.066 0.056,0.086 0.011,0.018 v 0.025 l -0.068,0.036 0.072,0.059 0.047,0.033 0.1915,0.1015 0.08,-7e-4 z m -0.4623,-0.2865 -0.022,-0.029 -0.018,-0.029 -0.022,-0.018 -0.014,-0.01 -0.042,-0.022 -0.015,-0.01 h -0.011 -0.018 -0.036 l -0.01,0.014 v 0.022 l 0.066,0.046 0.062,0.038 0.046,0.018 0.029,-0.022 z m -49.0976,0.8864 -0.011,-0.014 v -0.022 -0.01 l -0.05,0.018 v 0.033 0.011 l 0.058,-0.014 z m 0,0 -0.01,0.015 -0.018,0.043 -0.01,0.05 0.062,-0.025 0.015,-0.029 0.025,-0.045 0.01,-0.026 v -0.022 h -0.048 l -0.018,0.018 -0.015,0.025 z m 46.951,0.7037 -0.057,-0.022 -0.1194,0.043 -0.033,0.022 v 0.018 0.022 l 0.014,0.029 0.04,0.036 0.1482,0.059 0.066,3e-4 0.029,4e-4 0.033,-0.014 0.029,-0.011 h 0.022 l 0.018,0.014 0.038,-0.025 0.033,-0.088 v -0.011 -0.033 -0.018 l -0.018,-0.014 -0.018,-0.01 -0.018,0.011 h -0.033 l -0.1653,-0.018 z m 8.0295,3.8906 0.036,-0.043 0.043,-0.08 0.011,-0.022 0.01,-0.078 -0.022,-0.1198 -0.015,-0.022 -0.011,-0.022 -0.01,-0.011 h -0.01 l -0.089,0.029 -0.01,0.01 -0.011,0.011 -0.039,0.043 -0.022,0.073 v 0.025 0.033 l 0.022,0.085 v 0.011 l 0.015,0.033 v 0.011 l 0.011,0.015 0.059,0.033 h 0.025 z m -0.077,0.8616 0.3102,-0.3516 0.025,-0.053 0.011,-0.062 v -0.014 l -0.029,-0.063 -0.075,-0.033 v -0.029 l -0.011,-0.022 -0.2472,0.097 -0.044,0.026 -0.1744,0.135 -0.1358,0.2505 v 0.029 0.033 l 0.015,0.029 0.018,0.036 0.014,0.029 0.033,0.018 0.089,0.033 0.2049,-0.09 z m 0.5457,-0.1987 0.011,-0.015 0.018,-0.018 0.052,-0.068 0.015,-0.026 v -0.014 l -0.018,-0.1864 -0.015,-0.018 h -0.014 -0.064 l -0.1001,0.011 -0.029,0.025 -0.044,0.072 -0.033,0.091 -0.018,0.053 v 0.015 l 0.018,0.018 0.1864,0.062 0.022,0.01 h 0.014 z m -0.7288,0.4273 -0.01,-0.01 -0.025,-0.022 h -0.015 -0.018 l -0.033,0.015 -0.046,0.047 -0.01,0.014 0.01,0.011 0.065,0.068 0.1354,0.033 0.1209,-0.033 0.039,-0.026 v -0.039 l -0.015,-0.01 -0.1278,-0.022 -0.033,0.01 -0.045,-0.042 z m 0.7306,0.9206 v -0.079 l 0.011,-0.039 v -0.014 l -0.01,-0.018 -0.01,-0.015 -0.01,-0.018 -0.011,-0.018 -0.022,-0.018 h -0.047 l -0.068,0.096 -0.011,0.029 -0.01,0.043 v 0.011 0.018 l 0.025,0.067 h 0.011 l 0.059,0.018 h 0.011 l 0.059,-0.065 z m -0.1405,0.3331 v -0.022 l 0.011,-0.1926 -0.025,-0.1038 -0.01,-0.018 -0.033,-0.022 h -0.015 l -0.07,0.014 -0.064,0.043 -0.011,0.022 -0.015,0.036 v 0.033 l 0.022,0.1187 0.01,0.018 0.01,0.018 0.014,0.025 0.022,0.022 0.014,0.01 0.046,0.015 h 0.029 0.033 l 0.029,-0.011 z m 1.3778,3.6172 0.043,-0.058 -0.018,-0.041 -0.011,-0.014 -0.018,-0.018 -0.05,-0.033 -0.041,-0.011 -0.01,0.018 -0.01,0.029 v 0.079 l 0.039,0.033 0.033,0.022 h 0.037 z m -0.2017,0.2465 0.011,-0.033 -0.029,-0.042 -0.051,-0.026 h -0.029 l -0.018,0.01 v 0.056 l 0.025,0.022 0.033,0.018 0.018,0.01 0.037,-0.011 z m 3.7494,2.0054 v -0.2942 l -0.022,-0.085 -0.018,-0.033 -0.011,-0.033 -0.015,-0.01 h -0.052 l -0.2792,0.097 -0.3589,0.4237 -0.2038,0.3135 v 0.022 l -0.025,0.054 -0.025,0.036 -0.1482,0.1136 h -0.01 l -0.3571,-0.1554 -0.029,-0.022 -0.029,0.025 -0.033,0.047 -0.01,0.047 v 0.033 0.025 l 0.072,0.1725 0.4718,0.5526 0.1405,0.05 0.045,0.014 0.411,0.037 0.033,-0.018 0.087,-0.066 0.1671,-0.2108 0.059,-0.096 0.1423,-1.0396 z m -1.0586,0.1372 0.033,-0.011 0.015,-0.01 0.025,-0.018 0.01,-0.015 v -0.029 l -0.022,-0.01 h -0.033 -0.029 v 0.011 0.025 0.025 l -0.022,0.011 v 0.022 h 0.011 l 0.018,-0.01 z m -1.7352,0.7415 h 0.025 l 0.033,-0.06 -0.01,-0.014 -0.011,-0.018 -0.036,-0.022 h -0.018 l -0.054,0.029 -0.015,0.015 9e-4,0.018 0.011,0.015 0.011,0.018 0.029,0.018 h 0.018 0.014 z m -0.1744,0.5347 -0.022,-0.014 -0.048,-0.015 h -0.015 l -0.022,0.018 -0.1027,0.1328 v 0.037 l 0.015,0.059 0.018,0.037 0.01,0.01 0.083,0.051 0.044,0.022 0.3127,0.059 h 0.014 0.018 l 0.011,-0.011 0.018,-0.044 v -0.014 -0.025 -0.022 l -0.096,-0.2231 -0.01,-0.01 -0.044,-0.022 h -0.062 l -0.029,0.01 -0.033,0.015 -0.062,-0.052 z m -1.3072,0.2359 -0.018,-0.014 h -0.025 l -0.029,0.011 -0.011,0.014 -0.601,0.7936 -0.042,0.061 -0.01,0.025 0.01,0.018 0.2115,0.3527 0.2621,0.1019 0.1576,0.025 0.061,0.01 h 0.041 0.063 l 0.066,-0.025 0.305,-0.1948 0.043,-0.1856 0.01,-0.3731 -0.01,-0.1715 v -0.042 l -0.011,-0.047 -0.011,-0.036 -0.022,-0.033 -0.025,-0.042 -0.029,-0.025 -0.087,-0.062 -0.051,-0.011 h -0.025 l -0.1343,0.061 -0.084,-0.2097 z m 0.988,0.3538 0.092,-0.039 0.029,-0.018 0.068,-0.054 0.01,-0.014 h -0.01 l -0.3301,-0.1703 -0.1373,0.041 -0.052,0.048 -0.052,0.072 -0.011,0.04 v 0.047 l 0.015,0.048 0.055,0.029 0.3276,-0.029 z m -6.627,4.1881 0.01,-0.029 -0.042,-0.033 -0.022,-0.018 -0.022,-0.011 -0.1609,0.01 v 0.01 l 0.01,0.011 0.1609,0.1151 v 0 h 0.01 l 0.04,0.01 0.022,-0.062 z m -81.7133,4.7813 0.011,-0.01 0.011,-0.01 v -0.01 l 0.018,-0.073 v -0.015 -0.2566 -0.1522 l -0.011,-0.018 h -0.015 l -0.3243,0.01 -0.01,0.011 v 0.011 l 0.1281,0.4776 0.018,0.018 0.022,0.011 0.098,0.011 0.039,-0.01 z m 95.8652,5.6074 0.047,-0.022 0.011,-0.01 0.076,-0.052 0.075,-0.051 0.033,-0.138 v -0.044 l -0.033,-0.088 -0.059,-0.093 -0.044,-0.065 -0.051,-0.073 -0.1449,-0.1366 -0.197,-0.029 h -0.178 l -0.047,0.011 -0.029,0.011 -0.029,0.015 0.047,0.4281 0.015,0.047 0.2835,0.3138 0.029,0.033 0.1959,-0.06 z m -6.9356,3.0468 h -0.01 l -0.054,0.036 v 0 l -0.01,0.022 -0.01,0.033 v 0.01 l 0.01,0.039 0.025,0.072 0.022,0.029 h 0.011 0.01 0.011 l 0.029,-0.015 0.1059,-0.06 0.01,-0.01 0.026,-0.022 v -0.01 l 0.01,-0.011 -0.014,-0.045 -0.018,-0.058 -0.01,-0.01 h -0.01 -0.051 -0.01 l -0.029,7e-4 h -0.04 l -0.01,-0.01 z m -7.5588,4.7435 0.05,-0.011 0.026,-0.043 0.037,-0.095 -0.025,-0.047 -0.1063,-0.036 -0.022,0.036 -0.022,0.1136 v 0.045 l 0.025,0.05 0.041,-0.015 z m 13.3609,1.1594 0.01,-0.026 v -0.033 -0.022 h -0.011 l -0.022,0.015 -0.018,0.029 -0.01,0.029 0.018,0.018 h 0.014 l 0.018,-0.011 z m -0.1915,0.3902 0.05,-0.081 v -0.05 l -0.025,-0.022 -0.018,-0.015 -0.018,-0.015 -0.055,-0.01 -0.011,0.025 -0.018,0.045 v 0.037 l 0.025,0.089 0.011,0.022 0.062,-0.029 z m -14.8825,-0.022 0.018,-0.015 0.025,-0.022 0.015,-0.08 -0.015,-0.022 -0.025,-0.063 -0.1798,0.082 -0.085,0.111 v 0.047 l 0.083,0.037 0.048,0.018 0.1201,-0.092 z m 15.9167,-0.011 0.015,-0.011 v -0.018 -0.025 l -0.033,-0.029 -0.011,0.018 -0.059,0.011 h -0.038 v 0.018 l 0.042,0.025 0.066,0.011 h 0.011 l 0.018,-0.01 z m -0.076,0.1561 0.011,-0.011 0.01,-0.029 -0.025,-0.094 h -0.029 l -0.014,0.015 -0.018,0.022 v 0.041 l 0.015,0.043 0.04,0.029 0.018,-0.018 z m -1.0767,0.026 0.041,-0.018 -0.062,-0.1077 -0.044,0.015 -0.033,0.036 -0.029,0.036 0.06,0.065 0.063,-0.022 z m 0.669,-0.044 0.022,-0.022 v -0.022 l -0.036,-0.033 -0.029,0.022 0.022,0.06 h 0.022 z m -8.8332,-0.015 0.057,-0.01 0.037,-0.015 v -0.018 l -0.018,-0.018 h -0.042 l -0.011,0.01 -0.033,0.025 -0.022,0.018 -0.036,0.04 0.01,0.01 0.025,0.011 0.033,-0.049 z m 9.9366,0.5107 0.022,-0.018 0.069,-0.084 0.01,-0.022 -0.057,-0.058 h -0.044 l -0.103,0.1121 v 0.076 l 0.029,0.011 h 0.047 l 0.025,-0.018 z m -16.9676,0.1325 0.1285,-0.036 0.043,-0.015 0.1758,-0.146 0.029,-0.038 v -0.059 l -0.045,-0.01 -0.057,-0.011 -0.4033,0.2155 -0.029,0.022 -0.011,0.01 0.029,0.071 h 0.044 0.048 l 0.054,-0.011 z m -0.011,-0.1984 0.041,-0.015 -0.033,-0.078 h -0.029 -0.033 l -0.038,0.022 -0.011,0.045 0.01,0.015 0.018,0.029 0.076,-0.01 z m 2.1156,0.1081 0.037,-0.029 0.044,-0.072 v -0.015 l 0.01,-0.026 -0.058,-0.029 h -0.054 l -0.045,0.011 -0.011,0.01 -0.025,0.015 -0.055,0.1303 0.015,0.029 0.01,0.011 0.033,0.015 0.018,0.01 0.082,-0.061 z m 7.1133,1.9526 0.025,-0.043 -0.037,-0.033 -0.01,-0.029 -0.063,-0.014 -0.1751,0.056 -0.043,0.093 v 0.026 l 0.022,0.038 0.022,0.033 0.04,0.018 0.222,-0.1409 z m 11.14,1.3865 0.044,-0.033 v -0.038 l -0.025,-0.036 -0.054,0.036 -0.018,0.029 v 0.033 l 0.018,0.018 0.029,-0.015 z m -0.7775,0.4791 0.011,-0.018 v -0.018 l -0.015,-0.029 -0.059,-0.04 -0.044,0.047 -0.01,0.015 v 0.014 l 0.011,0.026 0.011,0.01 0.073,0.01 0.022,-0.01 z m -1.6137,0.8471 -0.022,-0.06 -0.4627,-0.1959 -0.1307,-0.039 -0.045,0.1558 -0.1562,0.1365 -0.04,0.015 h -0.022 l -0.048,0.01 -0.022,-0.01 v 0 l -0.011,-0.01 -0.01,-0.029 -0.039,-0.042 -0.033,0.011 -0.011,0.022 0.011,0.056 0.015,0.04 0.078,0.1219 0.033,0.047 0.041,0.022 0.1307,0.022 0.5314,-0.111 0.1049,-0.041 0.047,-0.025 0.064,-0.1026 z m -1.7848,0.3268 -0.014,-0.018 -0.029,-0.01 -0.044,0.011 -0.072,0.075 -0.01,0.015 -0.043,0.099 -0.01,0.048 0.011,0.049 0.022,0.029 0.033,0.025 0.1791,-0.1146 0.025,-0.054 0.022,-0.057 -0.025,-0.062 v -0.011 l -0.022,-0.037 -0.011,0.01 -0.011,0.025 v -0.022 z m 3.8342,1.5307 0.1336,-0.093 0.037,-0.05 -0.025,-0.022 -0.1766,-0.1004 -0.045,-0.025 h -0.014 l -0.082,0.055 -0.068,0.061 0.014,0.044 v 0.011 l 0.081,0.075 0.089,0.054 0.022,0.011 0.029,-0.022 z m 12.9551,0.5537 0.04,-0.015 0.056,-0.057 0.068,-0.1038 -0.018,-0.081 -0.036,-0.033 -0.036,-0.022 -0.014,-0.011 -0.1001,-0.01 -0.025,0.015 -0.018,0.1292 v 0.06 l 0.033,0.1209 v 0.01 h 0.037 z m -8.5785,-0.2282 0.046,-0.043 v -0.099 l -0.018,-0.01 h -0.029 l -0.039,0.044 -0.022,0.083 v 0.04 l 0.058,-0.018 z m -3.7286,1.8008 0.033,-0.1482 -0.09,-0.066 h -0.076 v 0.067 l 0.04,0.1518 0.099,-7e-4 z m 5.5844,3.0508 0.089,-0.071 0.1285,-0.1707 0.015,-0.041 0.01,-0.054 -0.025,-0.026 -0.079,-0.033 h -0.056 l -0.039,0.015 -0.033,0.018 -0.065,0.058 -0.063,0.061 -0.014,0.1019 -0.01,0.093 0.01,0.048 0.043,0.036 0.086,-0.036 z m 0.1682,-0.091 0.039,-0.022 0.018,-0.015 0.029,-0.043 v -0.011 -0.01 l -0.011,-0.01 -0.039,0.014 -0.073,0.068 v 0 l 0.011,0.018 h 0.018 0.01 z m -1.9155,3.1146 -0.01,-0.092 0.015,-0.2381 -0.04,-0.025 -0.095,0.01 -0.1084,0.1861 v 0.085 l 0.05,0.059 0.049,0.025 0.1379,-0.01 z m 0.9279,14.9054 0.2766,-0.087 0.059,-0.033 0.022,-0.054 v -0.033 -0.04 l -0.01,-0.047 -0.029,-0.041 h -0.042 l -0.352,0.2177 -0.041,0.047 -0.011,0.063 0.06,0.025 0.067,-0.014 z m 6.1046,8.3633 0.099,-0.022 0.025,-0.011 0.018,-0.01 0.022,-0.033 0.05,-0.094 0.01,-0.048 -0.033,-0.022 h -0.022 -0.018 l -0.2566,0.111 -0.015,0.029 -0.01,0.018 0.015,0.04 0.015,0.011 0.022,0.015 0.059,0.015 h 0.022 z m -5.2951,-30.9606 1.2638,-0.4263 1.3704,0.7278 -0.4766,0.7948 0.1219,0.67 -0.1631,0.434 -0.7004,0.1736 -0.5375,-0.4416 -1.8576,-0.6578 -0.2283,-0.4415 0.5787,-1.1238 z m -2.9539,-2.5276 -0.6852,-0.1219 -0.868,-0.1522 -1.0354,0.198 -0.2282,-0.2162 0.2177,-0.5679 1.7358,-0.3578 0.7933,-0.9441 0.9592,-0.475 2.7058,-2.0282 0.3806,-0.9212 0.5634,-0.122 -0.076,0.4416 0.7613,1.0049 -0.1522,0.2589 -2.5885,1.5378 -0.807,1.0994 z M 11.5465,53.611 l -0.4569,-0.3196 -0.7293,0.1038 -0.081,-0.3047 0.4126,-0.804 -0.4766,-0.9471 0.061,-1.2059 0.2785,-0.6791 0.9745,-0.8055 0.2588,-0.944 -0.1522,-0.4858 -0.8983,-0.075 -0.096,-0.3807 0.5375,-0.874 0.2134,-1.2729 0.3654,-0.3196 0.9851,-0.1401 0.7202,-0.7005 0.667,0.122 1.2485,-1.4161 0.2436,-0.5634 0.8983,-2.0099 0.8984,-0.7933 0.8527,-0.059 0.5634,0.2359 0.061,-0.667 -0.5938,-2.223 -0.5025,-0.4416 -0.1827,-0.9593 0.1674,-0.4583 0.7415,0.018 0.3807,0.2862 1.174,-0.5634 1.0354,0.033 0.6852,-0.5344 0.9136,-1.7967 0.3654,-0.044 1.3095,1.6368 -0.5025,0.2483 0.166,1.0156 1.7373,0.5695 1.0476,1.5653 -1.5637,1.8439 -0.122,0.8207 0.6045,0.7019 -0.4568,1.6612 -0.3959,0.4508 0.015,0.673 -0.2741,0.3472 -0.807,-0.6775 -1.142,0.033 -1.142,-0.5969 -0.807,0.061 -1.279,-0.3425 -0.8375,-0.7385 -0.9136,1.48 -0.6243,-0.036 -0.7171,-0.025 -0.5969,1.0202 0.6563,0.7005 -3.0773,3.199 0.015,0.3807 0.4872,0.166 0.3654,-0.166 0.1522,1.1572 0.8679,0.536 0.7004,1.0902 0.1522,1.4237 -0.2133,1.1602 -0.8984,0.9684 -0.6593,0.064 -0.8222,-0.089 -0.6395,-0.4263 z m -0.396,2.3754 0.3502,0.6547 -0.3502,0.5025 -0.3046,-0.1828 -0.5939,-1.4008 0.3047,-0.8375 0.3488,-0.2588 0.8572,1.0491 z m 184.0652,20.6668 -0.3196,0.4218 -0.9836,-0.4385 -0.944,0.1387 -0.3488,-0.8207 -0.3806,-0.2861 -0.3487,0.6852 -0.2589,-0.033 -0.1583,-0.022 0.166,-0.8557 -0.9441,-1.4221 -0.7765,-0.3215 -0.7933,1.2227 -0.8816,0.2225 -0.3807,-0.9593 -0.8557,-0.221 -0.2741,-0.2861 0.9197,-1.9992 -0.5953,-0.3382 -0.2803,-0.8542 -0.7004,0.1219 -0.1613,0.938 -0.5025,0.2042 -1.142,-1.6079 -1.6794,-1.0202 -0.018,-0.6212 0.7019,-0.2785 0.4842,-0.778 1.678,-2.6647 -0.1598,-0.2861 -0.5467,-0.2861 -1.2196,0.198 -0.4248,-0.5954 -0.539,0.1187 -0.1675,0.603 -0.8572,0.096 -1.0476,1.48 -1.0644,0.3488 -0.539,0.4644 -0.7004,0.038 -0.7841,-0.475 -0.536,-0.6669 0.8557,-0.3807 -0.018,-0.1828 -0.364,-0.1765 -0.7994,0.1995 -0.6852,-0.7004 -0.1827,0.297 0.3196,0.906 -0.3349,0.1536 -0.7461,-0.9243 -0.7004,0.022 -0.4568,-0.5238 -0.3807,-0.2861 -0.7004,0.198 -0.8679,0.7613 -2.3266,0.2588 -0.603,0.5025 -0.4126,-0.1813 -0.1387,-1.0826 0.061,-0.059 0.4583,-0.4735 0.7857,0.2133 0.539,-0.1536 0.5466,0.061 0.076,-0.096 0.2588,-0.3607 -0.2421,-0.5207 -0.5801,0.043 -1.3643,-0.2253 0.3488,-0.4994 0.3806,-0.1613 0.2206,-0.1066 1.1801,0.2209 0.4766,-0.4613 0.4415,0.033 1.3795,1.0476 1.3217,-0.1172 0.7248,0.5405 0.5177,0.061 0.6243,-0.3487 0.6029,-1.1999 -0.5618,-0.743 -0.093,-0.6243 0.7933,-0.8374 0.4857,0.1812 0.018,-0.1052 0.1583,-0.944 0.4112,-0.198 0.033,-0.4127 -0.2832,-0.2239 0.5253,-0.5633 0.6167,0.1416 0.061,-0.7811 0.6639,-0.7294 -1.5684,-1.3612 0.7004,-1.9429 0.4416,-0.1995 0.6243,0.1387 0.472,-0.9243 0.67,-0.061 0.9136,-0.6227 0.3196,-0.2148 0.5633,0.2588 1.4009,1.6186 1.1877,0.1995 0.1066,0.3381 -0.539,0.603 0.077,0.539 0.364,0.1387 0.1387,-0.603 0.4127,-0.1827 0.9745,-1.6231 0.807,-0.122 -0.5375,-0.7415 -0.2803,-0.8831 -0.2588,-0.1569 -2.6037,0.8374 -1.0659,-0.8785 -0.4568,-0.7446 -0.5466,-0.096 -0.3974,-1.0019 -0.3959,-0.079 -0.9197,-0.7293 -1.0217,0.061 -0.5344,1.4617 -0.4858,0.2225 -0.4126,-0.6213 -0.4416,-0.033 -0.046,1.684 -0.8664,-0.2406 -0.7004,-0.1813 -0.9152,0.4203 -0.4857,-0.5954 0.061,-0.5984 0.9821,-1.5028 0.1598,-0.8664 -0.6029,-0.5436 0.7004,-0.8618 -0.3807,-0.2603 -0.603,0.2785 -1.081,1.282 -0.7933,-0.3214 -1.1024,0.2148 -0.5817,0.944 -0.098,0.6395 0.4111,0.1646 -0.041,0.9425 -0.801,0.3487 -1.0506,0.094 -0.7004,-0.3196 0.1387,-0.7202 0.9425,-0.7613 0.1219,-0.1813 0.3196,-0.501 0.3047,-1.6429 0.5177,-1.142 -0.2133,-2.086 0.472,-0.5192 0.5482,0.1387 0.6547,-0.9395 -0.044,-0.4872 -0.7781,-0.1813 -0.2224,-0.6197 0.2224,-0.903 1.0506,-1.9626 0.3349,-0.2224 0.3196,0.1368 0.3364,1.34 0.7856,0.061 1.0476,-0.9441 -0.076,-0.4568 0.3349,-0.2253 0.1219,-1.2623 0.5025,-0.7019 0.1066,-0.1402 -0.6699,-0.5177 0.2224,-0.5177 -0.1827,-1.6444 -0.3807,-0.3397 -1.4465,0.033 -0.4568,0.8679 -0.4872,0.2224 -0.2239,-0.539 0.094,-0.944 0.5025,-1.4283 -0.3488,-0.44 -0.6166,-0.2177 -0.7446,0.4263 -0.603,-0.061 -0.1736,-0.4415 0.2133,-0.5634 0.4416,0.015 0.6243,-0.3349 -1.0446,-1.4466 0.1813,-0.8983 -0.3806,-0.2177 -0.9197,0.043 -0.9654,0.4766 -0.2176,0.4811 0.1372,0.096 0.9623,0.6669 -0.3578,0.4614 -1.6049,-0.1205 -1.1816,0.3607 -1.0049,-0.5436 -0.4751,0.5025 -1.7404,0.033 -0.5177,0.4126 0.094,0.5329 0.7841,0.3488 0.1522,0.5192 -0.2741,1.0963 -1.043,0.1675 -1.2806,2.4042 -0.6029,2.8184 -0.3426,0.6076 0.1445,0.7781 -0.3454,0.3043 -0.4111,-0.1416 -0.2803,-0.5207 0.3607,-0.2225 0.2224,-0.6851 0.1158,-5.2243 0.4979,-1.483 -0.091,-0.5984 -0.9592,0.1631 -0.1675,-1.11 -0.6547,-0.8573 0.046,-1.3399 -0.5391,-0.7811 -1.9337,-0.3807 1.416,-1.3643 0.2861,-0.9014 -0.1201,-0.5999 -0.6075,-0.4416 -0.7004,0.046 -1.174,0.8816 -1.2851,-1.0476 -1.0811,0.2407 -0.4416,-0.4416 -0.6029,-0.5786 -0.8832,0.2784 -0.5786,-1.11 0.3014,-1.3612 -0.3229,-0.8801 -0.7399,-0.1402 -0.7614,0.4203 -0.6852,-0.5421 -0.4415,0.1995 -0.8984,1.4283 v 0.4613 l 0.5329,0.059 v 0.4843 l -0.3487,0.4827 -1.4313,-0.3807 -0.3029,-0.2861 -0.1583,-1.3034 -0.3047,-0.1005 -0.3959,0.5329 -0.198,0.9836 0.029,1.9033 h -0.2133 l -0.4599,-0.6212 -0.1033,-1.0049 -0.4873,-0.2861 -1.2181,0.143 -0.3349,-0.2894 0.1369,-0.5329 0.8649,-0.8405 -0.539,-0.5862 -0.1369,-0.9974 -0.6685,-0.1813 -0.2224,-0.364 -0.8679,2.8626 0.096,0.5466 0.4766,0.098 0.084,0.3806 -0.6624,0.3029 -1.3399,-1.279 -0.1827,-0.3654 1.8119,-3.5843 -0.061,-0.094 -1.0217,-1.6445 -0.1052,-0.3349 0.198,-0.5968 -0.2861,-0.1813 -0.9045,0.1995 -0.5344,-0.6624 -1.4176,-0.2985 -0.4629,-0.603 -0.641,-0.091 -0.2406,0.3349 -0.2985,-0.1827 -0.2603,-1.5227 -0.6411,-0.539 -1.4845,0.4781 -0.3,1.2638 -0.7202,-0.3196 -0.5177,0.3488 -1.142,1.9353 -0.2588,-0.1555 0.2741,-1.0476 -0.2741,-0.5405 -0.807,0.122 -0.099,-0.082 -0.501,-0.4187 -0.3806,0.1554 -0.8223,1.1862 -0.8055,0.2224 -1.3399,-1.5394 -0.4263,0.5024 -0.8984,0.2148 -0.3806,1.0826 0.2741,0.603 2.2687,-0.018 0.3047,0.44 0.3349,1.7237 -0.4218,2.4636 -0.603,0.8435 -0.096,0.8984 0.2039,0.7766 0.3382,0.033 -0.122,1.2364 h 0.3488 0.2391 l 0.7004,1.0979 -0.297,1.3231 -1.3064,1.3004 -0.4568,1.2029 -2.6647,0.3959 -0.6699,-0.1675 0.2206,-0.6029 -0.4644,-0.2436 -0.4568,1.0476 0.3502,0.8192 -0.4873,1.0841 -1.0963,1.1237 -1.6902,0.1828 -1.9977,0.7613 -1.4906,-0.198 -0.9441,0.6243 -0.5633,-0.061 -0.091,-0.4416 -0.198,-0.839 -0.4873,-0.4248 -1.2942,0.1052 -0.807,0.32 -0.8679,0.8572 -1.5836,0.5634 -2.6327,3.1397 -1.2638,2.4423 0.1522,0.6685 -0.2392,0.3806 -0.5984,-0.096 -0.5435,0.4263 -0.5573,1.2364 -1.6293,1.4632 -0.3487,0.9837 -0.2588,-0.076 -0.4751,0.3807 -1.3399,1.4617 0.061,0.8223 -1.3247,0.061 -0.5999,1.4008 -0.4203,-0.3989 -0.4415,0.018 -2.1317,0.8374 -0.5604,0.6624 -0.7385,-0.2206 -0.2894,0.3028 0.3044,0.4127 0.3046,1.6292 -0.2893,0.1583 -0.9746,-0.5877 -0.1263,-0.1067 -0.5786,0.2436 -0.3196,0.4842 1.0035,1.5546 -0.4035,0.5192 0.4248,0.603 -0.1052,0.3806 -6.1866,7.5036 -2.2839,2.0404 0.6395,0.096 1.7038,-1.279 0.1569,0.2861 -1.5044,1.4282 -1.3429,0.061 -1.7207,1.6613 -1.0993,0.44 -1.142,0.1569 -0.7933,-0.2406 -2.8778,-0.041 -1.1267,0.7933 -0.7294,0.1205 -1.5028,-0.539 -0.8223,0.539 -0.9014,0.043 -0.5375,0.4416 -0.043,0.9242 -0.2861,0.2224 -0.8222,-0.198 -0.8984,0.9242 -2.4514,1.0095 -2.8642,1.9033 -0.5785,0.7294 -0.5177,1.2425 -0.6624,1.2424 -1.2409,1.3857 -3.5478,2.5245 -2.823,0.8634 -3.0225,1.4282 -6.4331,0.3807 -0.3807,0.018 -1.4283,0.3487 -1.0049,-0.2832 -1.477,-1.0811 -1.3429,-0.5786 -2.0678,-2.0038 -0.4248,0.3214 -2.252,0.1813 -4.268,0.3196 -0.7613,-0.4842 -1.1024,0.1034 -1.2623,-0.3411 -0.4202,-0.3989 -1.2836,0.1554 -0.8603,-0.2373 -1.4237,-0.5802 -4.9166,-4.7095 -0.5177,-1.0598 -0.807,-0.743 -1.946,-3.2037 0.1646,-0.5953 -0.4416,-2.0084 -0.4568,-0.5421 -0.1066,-0.8191 0.5633,-1.7846 0.3364,-1.0811 -0.1201,-0.2191 -1.174,0.1034 -2.284,-2.9067 -1.0201,0.475 -0.3426,1.174 -0.7385,0.778 -0.6638,1.3004 -0.018,0.9227 -0.5634,0.4416 -0.2861,0.6395 1.7206,1.5425 0.061,0.4613 -0.2224,0.2224 0.2879,1.2638 0.6395,0.061 0.8831,1.1846 0.4416,0.1613 0.8375,0.2861 0.3806,0.5025 0.3959,1.8866 -0.4157,1.4008 0.1372,0.9197 -2.5428,5.3612 -0.4766,0.4264 -0.198,0.7613 0.1827,0.7613 -0.3349,1.11 -0.3654,0.2588 -0.4416,-0.093 -0.2133,0.3807 0.1369,0.5177 -0.7614,0.542 -0.6638,1.3658 -0.7614,0.6563 -0.061,0.044 -0.539,0.1387 -0.2741,0.7248 0.4933,0.539 0.2224,1.8272 L 4.172,89.208 3.5934,89.8719 2.6341,92.0615 0,94.7489 l 0.609,0.3807 0.539,0.061 1.3506,1.5957 3.0773,2.4819 -0.033,0.3807 -0.061,1.2257 0.2239,0.3382 0.5984,-0.7613 0.3807,0.018 0.277,0.603 0.8983,0.6029 1.005,0.1034 0.242,0.5954 -0.3487,0.7933 -0.6395,0.5801 -0.2785,1.8089 -0.9181,2.2459 -0.5802,2.322 -1.2622,0.7934 -1.174,0.1219 -0.2588,1.0004 -0.5192,0.2191 -1.4008,-0.096 H 1.5855 l -0.2224,1.2029 0.4751,1.7054 v 2.1896 l 0.4416,2.0844 0.8039,0.9776 -0.3806,1.0659 0.8983,1.3825 0.3029,0.059 0.2603,-0.7217 -0.3196,-0.6563 -0.1584,-1.5424 0.2785,-0.7172 0.8831,0.04 0.1613,-0.4127 -0.7004,-1.2181 0.1645,-0.3806 h 1.2212 l 0.2406,-0.4249 1.1419,-1.9033 -0.5983,-1.0612 0.1033,-0.2603 1.2456,-0.2239 1.3643,0.1798 0.4126,0.2803 0.3214,0.8831 0.501,0.4766 v 1.34 l -0.3807,0.475 -0.8816,0.1387 -0.2803,0.5817 -0.5969,3.0011 0.2756,0.7796 0.7019,0.043 0.7614,-0.4766 2.7453,0.6593 0.059,-0.1034 0.2406,-0.5375 0.5817,0.4233 0.4004,-0.096 0.1598,-1.6856 0.4842,-0.7933 1.9201,0.4233 0.4766,-0.2406 0.015,-0.8222 1.3673,-0.603 h 0.4796 0.4416 l 1.8119,0.6593 0.2589,0.5177 0.2999,0.6243 0.4812,0.4415 0.4126,0.3488 0.3196,0.6227 v 0.061 l 0.029,0.7294 -0.061,0.1019 -0.32,0.542 -0.2406,0.4416 0.043,0.4401 0.539,0.8572 1.8089,5.6947 0.6243,1.3567 -0.1675,1.3612 0.122,0.6669 1.3856,-0.641 1.0049,0.5192 1.2181,0.2254 0.4873,0.4217 0.6547,3.3849 0.5786,0.7933 0.3502,0.4613 -0.3502,0.7933 1.2638,2.7591 1.279,5.451 -0.014,0.018 c 0.2282,0.367 0.3928,0.7476 0.4872,1.11 0.2253,0.8999 2.6494,0.2192 4.1416,0.2192 1.9185,-0.033 1.5379,-0.6121 2.4819,-1.6034 0.9151,-0.9425 2.284,-2.3114 3.8523,-2.3235 1.9795,-0.018 4.4614,3.2858 5.7861,5.0871 0.7004,0.9426 1.2638,2.7956 1.8591,3.3316 1.7648,1.5531 1.4222,2.1134 1.7039,3.2706 0.4598,1.7633 -0.8009,2.5063 0.7811,2.9052 0.3989,0.111 3.3087,1.4207 3.7259,1.8607 0.3654,0.3641 0.5025,0.7446 0.5634,1.0826 0.1219,0.6395 -0.025,1.1146 0.7187,0.9197 1.7632,-0.4766 2.2246,-0.1889 3.2097,-1.2379 1.0659,-1.0994 0.7614,0 2.6205,-0.5025 1.4343,-0.3622 1.7526,-1.1237 2.485,-1.885 1.0826,-1.1101 1.113,-2.6007 3.1275,-2.6327 1.477,-0.018 2.2611,-1.3399 3.7457,-1.3582 1.9642,-0.011 2.5839,0.018 3.5021,-0.9258 0.7765,-0.8085 2.3799,0.2468 2.6037,-0.7293 0.3047,-1.2638 1.3506,-1.9627 1.5683,-2.8808 0.4111,-1.7419 -0.9151,-4.769 0.1522,-4.5086 1.5683,0.3807 2.823,0.1521 3.365,1.2623 0.3182,0.641 1.3719,2.1454 1.9353,2.2839 1.142,0.2771 2.6799,-1.2455 3.5783,-1.2029 2.2687,0.1052 3.4868,2.4667 3.8233,2.8048 0.5223,0.5298 1.0979,2.2047 2.0084,2.2047 1.9155,-0.018 2.3905,0.2862 3.5325,0.8634 0.5604,0.2861 1.477,1.9642 1.477,2.9661 0.015,2.0678 1.0963,2.2063 2.284,3.2097 1.3399,1.1207 1.1572,0.8801 1.9185,1.6415 0.944,0.941 1.3003,1.8241 1.7237,1.3825 0.7232,-0.7613 1.008,-1.9642 1.7434,-2.7042 0.7247,-0.7613 1.3399,-1.9932 2.0251,-2.7088 0.8983,-0.9303 1.279,-0.1263 2.5428,-0.7933 1.142,-0.5923 1.2334,-1.4282 3.8066,-1.4435 1.0202,-0.022 2.4819,-1.7556 3.563,-2.0418 1.4176,-0.37 2.5596,-0.9014 3.8067,-1.2379 0.7156,-0.1828 2.421,-1.7054 3.2005,-2.118 1.0629,-0.5543 0.1402,-1.6354 0.804,-2.316 0.9699,-1.0247 1.4282,-1.6444 2.1896,-2.4256 0.641,-0.6714 1.6429,-2.8032 1.6216,-3.6848 0,-0.9684 1.7434,-1.9931 1.7221,-3.5888 -0.018,-1.4207 4.9699,-1.9201 4.3685,-3.1215 -0.5786,-1.1541 -0.5421,-5.6947 -2.1013,-5.6779 -1.5379,0.015 -5.2074,1.8211 -5.8926,1.142 -1.1801,-1.1907 -5.2197,0.74 -5.2486,-1.544 0,-1.3247 1.3004,-2.0936 1.7419,-3.0133 0.2072,-0.4401 0.3898,-0.7613 0.603,-0.9836 l -0.058,-0.087 c 0.4584,-0.4934 1.0217,-0.5177 2.316,-0.5375 1.8104,-0.018 2.526,1.4815 3.8066,1.1419 1.6018,-0.4217 4.1614,0.3397 5.8683,0.3244 2.0845,-0.038 1.2927,-2.2277 2.9067,-3.0712 1.0476,-0.5451 3.5645,-1.4906 3.9848,-2.3616 0.2817,-0.5862 3.8066,-0.01 3.4868,-2.1256 -0.2602,-1.6034 2.4043,-2.4606 0.8207,-4.1873 -0.5344,-0.5801 1.9034,-4.3243 2.6053,-5.0491 0.9623,-0.9821 0.2861,-2.9524 1.8257,-3.3651 1.5394,-0.4141 1.5835,-1.1024 3.2264,-0.7004 1.6871,0.4172 2.8748,0.5786 4.9928,0.5634 0.7004,0 3.4732,0.056 4.2193,-0.1463 1.4358,-0.3807 2.3631,-2.4043 3.1244,-3.3057 1.5227,-1.8089 3.2752,-3.4655 3.7671,-4.4735 0.6029,-1.2806 8.1537,2.6966 8.6334,1.7206 0.5283,-1.1268 2.5854,6.6082 2.5702,4.9486 0,-1.1146 3.426,-2.016 3.5067,-2.3799 0.1798,-0.7887 2.7712,-1.2212 4.5862,-2.08 l -0.1584,-0.044 0.5619,-1.2379 -0.9836,-2.6038 -0.059,-1.0826 0.6548,-0.4583 -0.4126,-0.6669 0.2602,-1.7221 -0.4126,-0.7019 0.7004,-0.1205 0.166,-0.4188 -1.4465,-0.6395 -0.7613,0.2225 0.1387,-0.5634 -1.2806,-1.8424 -0.7765,-0.1369 -0.7933,-0.7293 -0.9593,-2.1241 -0.3029,-0.9212 0.2818,-1.0248 0.4568,-1.1191 -0.5984,-0.6243 0.6593,-0.4842 0.976,0.539 0.7004,-0.079 0.044,-1.3825 -0.5968,-0.4873 -0.2024,-1.11 0.7293,-0.022 0.2435,-1.1801 0.5406,-0.2038 1.3003,0.5847 1.0811,-0.1646 0.7172,-0.6852 0.3196,0.1067 0.1052,-0.7004 z"
     name="Sassari"
     />
  <path
     id="cagliari"
     d="m 166.4151,347.0947 c 0,0 0.635,-1.7769 1.0156,-2.6646 0.3807,-0.8877 0.1264,-1.6506 0,-2.4119 -0.1263,-0.7613 -3.6802,-6.8519 -3.933,-7.7396 -0.2527,-0.8877 -0.7613,-2.284 -0.6349,-2.6646 0.1264,-0.3807 -0.2543,-2.7911 -0.2543,-2.7911 l -2.1576,-1.9033 c 0,0 -1.3962,-0.6349 -1.649,-1.142 -0.2528,-0.507 -0.507,-1.0156 -2.5383,-0.1279 -2.0312,0.8877 -2.6646,0.3807 -3.2995,-0.1263 -0.635,-0.5071 -4.3137,-5.8363 -4.3137,-5.8363 l 4.5679,-7.6133 -0.1263,-4.4415 c 0,0 -6.9783,2.0296 -7.359,2.1576 -0.3806,0.1279 -2.0297,0.2527 -3.2996,0.1263 -1.2699,-0.1263 -1.1419,0.5071 -1.1419,0.5071 0,0 -0.1264,2.6646 -0.2543,3.8066 -0.1279,1.142 -3.1717,4.0609 -3.1717,4.0609 0,0 -0.1264,1.142 -0.2543,1.649 -0.1279,0.5071 -0.8877,0.7613 -2.0297,0.7613 -1.142,0 -2.2839,1.777 -2.2839,1.777 h -1.9034 l -1.3962,1.142 -0.7613,-1.142 -3.426,-0.2543 -0.3807,-1.0141 -2.0297,1.3947 -2.2839,-1.014 -1.777,-1.9033 -2.6646,-0.3807 c 0,0 -0.8877,1.0141 -1.7769,1.649 -0.8892,0.635 -3.0453,0.8877 -3.0453,0.8877 l -1.7769,1.0156 -0.5071,-0.2543 -2.5382,0.7614 c 0,0 -1.777,-1.7754 -2.9189,-2.4104 -1.142,-0.6349 -2.4104,0.3807 -3.426,1.2684 -1.0156,0.8877 -1.3963,2.6646 -1.3963,2.6646 l -0.1264,2.284 -3.5523,2.5382 c 0,0 -0.7613,0.1264 -1.5226,0 -0.7614,-0.1263 -1.142,0.3807 -1.3963,0.7614 -0.2543,0.3806 -1.142,0.6349 -1.5226,0.6349 -0.3807,0 -0.635,0.2528 -1.3963,1.2684 -0.7613,1.0156 -1.3963,6.4712 -1.3963,6.4712 0,0 0.5071,0.5071 0.635,1.142 0.1279,0.6349 -0.1264,1.7769 -0.1264,1.7769 l 0.1264,5.9627 c 0,0 -0.5071,1.3963 -1.142,1.9033 -0.635,0.5071 -0.635,2.7926 -0.635,2.7926 l -1.6825,0.034 c 0,0 -0.01,0.01 -0.01,0.01 0.1081,0.6456 0.01,1.3597 -0.4111,2.15 -1.142,2.1622 2.0708,5.4267 3.9893,7.3529 0,0.1492 -3.3072,5.3521 -3.9254,5.5013 0,0 0,0 0,0 l 7.4915,14.1226 c 0,0 1.7769,1.649 2.1576,2.284 0.3806,0.6349 0.6349,2.2855 0.3806,2.7925 -0.2543,0.507 -0.6349,1.9033 -0.6349,1.9033 l 1.18,2.5063 6.4971,-6.1439 2.284,-2.6235 1.5546,-1.0035 -0.3045,-1.0445 1.0659,-0.7004 0.8222,-0.4994 0.1979,0.9257 0.5025,0.1584 0.7766,-2.6327 -0.1218,-0.7461 0.3045,-0.8983 -0.1066,-1.4907 0.807,-1.3658 0.1218,-0.9273 0.6548,-1.0369 0.6395,-1.0476 0.1385,-0.6669 -0.5344,-1.9033 -1.4465,-1.7237 -1.0354,-1.9992 -0.4416,-2.421 -0.1584,-3.9619 0.2208,-1.6871 0.8984,-2.3784 0.7293,-1.2029 1.9612,-2.9052 3.8493,-4.0853 1.7997,-2.2642 -0.1599,-0.2816 -0.1674,-0.2787 h -0.603 l -0.2589,-0.4751 1.1725,-0.7019 0.4872,0.9212 0.061,0.1218 0.076,0.1645 0.4263,0.8222 0.9745,-0.1416 1.2379,0.7004 0.737,0.9425 2.4667,3.1412 1.1876,-0.1416 0.3655,0.5619 0.472,-0.02 0.5634,-0.5344 0.2436,-0.6015 -0.6639,-0.4126 -0.1995,-0.6243 0.2437,-0.6822 0.9196,-1.4282 1.1953,-1.2029 0.8649,-0.539 2.7103,-1.6231 2.1165,0.032 1.4617,1.0202 0.7309,0.7781 2.421,0.2603 0.8831,0.5238 2.5063,-0.3045 0.4248,0.1827 0.5969,0.8832 0.4766,0.2131 1.8576,0.4873 0.5025,0.7004 1.0993,0.4416 1.0431,1.5378 0.8054,0.7461 2.316,0.8558 2.0099,1.9231 0.6243,1.0399 0.6151,0.3655 0.501,2.0403 0.4065,0.3624 0.4933,-0.3015 0.5391,0.1371 1.6871,1.4465 1.5409,-0.032 0.2131,1.6049 0.5025,0.1568 0.2436,-0.7157 0.7614,0.091 0.7004,-0.5329 h 0.023 c 0.3457,-0.306 0.8268,-2.5169 1.0765,-2.8915 0.2543,-0.3806 2.0297,-1.6505 2.6647,-2.2839 0.6349,-0.6335 0.7704,-4.166 0.7704,-4.166 z"
     name="Cagliari"
     />
</svg>
