<svg
   xmlns="http://www.w3.org/2000/svg"
   viewBox="0 0 251 198"
   aria-label="Map of Apulia - Italy"
   id="apulia"
   version="1.1"
>
  <path
     d="M 73.03148,68.83042 71.54796,68.11016 70.65776,67.845 70.33578,67.67454 70.2032,67.44726 69.76756,67.2389 69.44558,66.91692 68.82054,66.61388 67.93034,65.6858 67.36214,65.45852 67.05908,65.11758 66.75604,64.49256 66.62346,64.15164 66.131,63.94328 65.86584,63.29932 65.54386,62.99626 65.2787,62.12502 64.63472,60.81812 64.08546,59.73852 63.8771,58.71574 63.66876,58.6021 63.46042,57.25734 63.3089,56.48078 l -0.0947,-2.17814 0.13258,-1.57204 0.4735,-0.24624 0.26518,-0.5682 0.90914,-0.9849 0.54926,-0.22728 0.58714,-0.6061 0.68186,-0.24622 0.45458,-0.1894 -0.019,-0.11364 0.3788,-0.30306 0.6061,-0.32198 0.92808,-0.90914 0.60608,-0.2841 0.75762,-0.22728 0.20834,-0.4167 0.39776,-0.15152 0.0758,-0.24622 c 0,0 0.5682,-0.11366 0.64396,-0.13258 0.0758,-0.019 0.62504,-0.6061 0.62504,-0.6061 l 1.34476,-1.19324 0.13258,-1.11748 0.34094,-0.45456 0.87124,-0.20836 0.28412,-0.41668 0.68186,-1.21218 0.5682,-0.2841 0.66292,-0.24624 c 0,0 0.81442,-0.1894 0.90914,-0.1894 0.0947,0 0.26516,-0.41668 0.26516,-0.41668 l 0.20834,-0.39776 0.30304,-0.13258 0.39776,-0.35986 0.30304,-0.17046 0.15152,-1.09854 0.13258,-0.13258 0.62504,-0.0379 0.3788,-0.30306 0.1894,-0.64396 0.34094,-1.06066 0.22728,-0.83338 -0.41668,-0.45458 0.15152,-0.71972 0.15152,-0.34094 -0.22728,-0.30304 0.26516,-0.30304 v -0.37882 l -0.68186,-0.1894 -0.68184,-0.60608 0.0379,-0.30306 0.3788,-0.0758 0.15152,-0.34092 -0.9849,-0.15152 -0.26516,-1.1743 -0.0379,-1.9698 -1.13642,-0.45458 -0.6061,-1.3637 -0.49244,-0.30304 -0.26518,-0.30304 -0.49244,0.26516 -0.3788,0.11364 -0.64398,-0.41668 -0.3788,-0.34094 -0.56822,-0.22728 -1.40158,-1.43946 -1.43946,-0.0758 -0.53034,-0.26518 -1.1743,0.22728 -0.53034,0.15154 -0.7576,-0.22728 h -1.0607 l -1.7804,0.71972 -2.12132,0.7955 -1.40158,0.11364 -1.25008,0.49244 -1.1743,0.34094 -2.68952,0.26516 -3.21988,0.90914 -2.95468,0.64398 -2.42438,0.26516 -1.32582,0.26516 -1.3637,-0.1894 -0.37882,-0.49246 -1.28794,-0.15152 -0.60608,-0.22728 -1.06066,0.15152 -1.02278,0.37882 -2.61378,0.49244 -1.62888,0.75762 -1.32582,0.1894 -1.47734,0.68186 -1.25006,0.34092 -2.23498,0.22728 -1.51522,0.34092 -2.04556,0.15154 -1.51522,-0.15154 -0.64398,-0.30304 -0.68186,-0.7955 -1.85614,-0.0379 -4.05324,0.15152 -2.9547,0.18942 -4.58356,-0.0379 -0.20706,-0.17706 -0.0803,0.3616 -0.10716,1.1518 0.2009,1.33928 0.25446,0.28124 0.1875,0.54912 0.10714,0.22768 -0.0937,0.33482 -0.34822,0.32142 -0.29464,0.5759 -0.28124,0.99106 -0.29466,0.52232 -0.69642,0.22768 -0.1875,1.23216 -0.24108,0.14732 0.12054,0.1741 0.4018,0.62946 0.58928,0.61608 0.28124,1.44642 0.1875,0.52232 -0.13392,0.70982 -0.66964,0.29464 -0.22768,0.5759 -0.21428,0.64286 0.1741,0.60268 0.5759,0.5759 0.45536,0.22766 0.45534,0.25448 -0.10714,0.3616 -0.45536,-0.1741 -0.48214,0.1607 v 0.49554 l 0.1741,0.17412 0.5893,0.57588 0.12054,0.33482 0.32142,0.28126 0.067,0.40178 0.96428,0.1741 0.3884,0.34822 1.25894,0.0938 0.067,0.30802 -0.42858,0.17412 -0.75,0.375 c 0,0 -0.20088,0.26786 -0.26786,0.29464 -0.067,0.0268 -0.5625,0.22768 -0.5625,0.22768 l -0.50892,0.16072 -0.14732,0.1875 c 0,0 -0.3884,0.12052 -0.32142,0.12052 0.067,0 -0.12054,0.52232 -0.12054,0.52232 l -0.33482,0.24108 -0.26786,0.14732 0.1741,0.22768 0.17412,0.1741 -0.0134,0.46876 h -0.68304 l -0.16072,-0.62946 -0.24106,0.0803 -0.0402,0.45536 -0.12054,0.54912 -0.3616,0.29464 -0.64286,0.30804 -0.91072,0.26784 -0.1741,0.17412 -0.22768,0.1741 -0.067,0.50894 -0.17412,0.30802 0.0268,0.46876 0.14732,0.25446 -0.0938,0.21428 -0.77678,-0.1607 -0.42858,0.26786 -0.0803,0.45534 0.0803,0.5893 0.29466,0.3482 -0.2143,0.0268 L 4.35272,56.47754 3.8438,56.1695 3.40184,55.982 l -0.067,-0.38838 -0.25448,-0.5625 -0.375,0.0268 -0.1741,0.25446 -0.375,-0.25446 L 1.67412,54.9106 1.37948,54.64274 1.16518,54.73654 1.04466,55.28564 0.79018,56.1026 0.16072,56.70528 0,57.08028 l 0.10716,0.44196 0.5357,0.26786 0.3884,0.28126 -0.0938,0.29464 -0.21428,0.067 -0.13392,0.50892 0.29464,0.0268 0.14732,0.42858 0.25446,0.25446 -0.24106,0.12054 -0.22768,0.29464 0.25446,0.87052 0.14732,0.24108 -0.13392,0.3884 -0.25448,0.81696 -0.25446,0.5625 -0.0134,1.40626 0.0536,0.77678 0.0938,0.46874 0.64286,0.10714 1.35266,0.22768 0.0938,0.2143 0.25446,0.0804 0.28126,0.48214 0.26784,0.28124 0.17412,0.26784 0.87052,0.26786 0.54912,0.41518 0.25446,0.44196 0.0938,0.067 0.3616,0.29464 0.3482,0.32142 0.3884,0.13394 0.14732,0.41518 0.30804,0.9107 0.16072,0.72322 0.29464,0.13392 0.26786,-0.24106 0.30802,-0.067 0.1875,0.96428 1.25894,0.1741 0.21428,0.3884 2.0759,0.26786 0.33482,0.58928 0.22768,0.24108 -0.2009,0.16072 -0.80356,0.25446 -0.0938,0.62946 -0.30804,0.32142 0.25448,0.4018 0.28124,0.375 0.36162,0.1607 0.0268,0.45536 -0.9509,0.34822 -0.25446,0.58928 -0.68304,0.66964 -0.375,0.12054 -0.067,0.46876 0.1741,0.26786 0.29464,0.9241 0.25448,1.39286 0.29464,0.40178 0.61606,0.29464 0.1875,0.10714 0.52232,-0.067 0.1875,-0.13392 0.24108,0.0536 0.34822,0.1875 0.5491,0.375 1.47322,0.26786 0.0402,0.70982 -0.32144,0.17412 -0.0804,0.5223 0.5893,0.13394 0.30804,0.24106 0.0803,0.65626 0.45536,0.44196 0.24108,0.1875 0.13392,0.13394 0.22768,-0.0938 0.87054,-0.3616 0.72322,-0.0938 0.375,-0.14732 0.0268,-0.14732 1.00446,-0.0268 0.1875,0.3482 -0.44196,0.22768 0.13392,0.24108 0.48216,0.0536 0.85714,0.12054 0.25446,0.3616 0.0536,0.375 0.33484,0.16072 0.1607,-0.22768 0.26786,-0.38838 0.91072,-0.0402 0.375,0.14732 0.48214,0.13392 0.0268,0.3884 0.4018,0.4018 0.61606,0.57588 0.16072,0.33482 0.14732,0.24108 0.0536,0.1741 -0.3616,0.13392 -1.60714,0.32144 -0.1875,0.375 0.21428,1.1116 0.34822,0.64286 0.62946,0.5491 0.12054,0.32144 -0.0804,0.32142 -0.61606,0.26786 -0.4018,0.32144 -0.5625,0.26784 -0.60268,0.62948 -0.28124,0.81696 -0.62948,0.65626 -0.25446,0.49552 0.12054,0.7634 0.49554,0.5625 0.45536,0.28124 1.35268,0.30804 0.24106,0.61608 0.29464,0.32142 0.25448,0.5893 0.3616,0.28124 0.44196,0.28126 0.2009,0.65624 0.5357,0.24106 0.5893,0.33484 0.5357,0.1875 0.2143,0.24106 0.33482,0.0268 0.0937,-0.2143 0.64286,-0.28124 0.1875,-0.41518 0.54912,0.0402 0.48214,0.375 1.79464,0.30804 0.44196,0.22768 0.2009,0.1741 0.88392,-0.067 0.5759,-0.61608 0.29464,-0.62946 0.24106,-0.34822 0.24108,-0.46874 0.3616,0.21428 0.45536,0.3616 0.30804,0.41518 0.40178,0.2143 0.62948,0.1607 0.89624,0.95092 0.96596,0.15152 1.11748,-0.15152 0.0947,-0.13258 0.49244,0.019 v 0.39774 l 0.62504,0.26518 1.269,0.6629 0.90914,0.24622 0.58716,0.28412 0.70078,-0.17048 -0.0568,-0.96594 -0.22728,-0.20836 -0.019,-0.24622 h 0.41668 l 0.26516,-0.32198 0.45458,-0.2841 0.11364,-0.8902 0.43562,-0.13258 0.26518,-0.17046 0.30304,-0.28412 0.32198,-0.13258 2.1592,-0.30304 0.39776,-0.15152 0.70078,0.13258 0.43564,0.32198 1.68568,0.26516 0.30306,0.0947 0.41668,0.0947 0.0568,-0.30304 0.3788,0.0379 0.0568,0.17048 0.39774,0.0568 0.2841,-0.0947 1.04172,-0.3788 0.96596,-0.24622 0.3788,-0.15152 0.28412,-0.43564 0.92808,-0.20834 0.77654,0.0947 0.71974,0.62504 0.0568,0.41668 0.24622,0.17046 0.26518,-0.1894 0.34092,-0.3788 1.15536,-0.28412 0.2841,-0.92808 0.22728,-0.96594 0.2273,-0.11364 0.0758,-0.37882 0.6629,-0.2841 0.30306,-0.32198 0.22728,-0.5114 0.20834,-0.20834 0.32198,0.0379 0.18942,0.22728 0.49244,-0.13258 0.87126,-0.11364 0.2841,-0.3788 0.3717,-0.61518 -0.015,-0.0613 0.0899,-0.1852 0.0778,-0.11494 0.0483,-0.0532 0.68184,-0.73734 1.06946,-1.07312 0.39056,-0.0536 0.42474,-0.64824 0.10046,-0.30412 0.5276,-0.75844 0.0827,-0.0478 0.0337,-0.0158 0.0492,-0.0178 0.1763,-0.0328 0.0509,-0.007 0.44166,-0.0595 0.71524,-0.0266 2.62912,-1.31864 0.95918,-1.23968 0.36414,-0.33834 0.0166,-0.0287 0.18556,-0.3579 0.20512,-0.4074 -0.0266,-0.29736 -0.0897,-0.4441 -0.17778,-0.0457 -0.009,-0.002 -0.0302,-0.007 -0.007,-0.78794 0.004,-0.0263 0.0136,-0.0318 0.0254,-0.0319 0.0323,-0.0338 0.0469,-0.0429 0.0719,-0.0551 0.0384,-0.0476 0.0361,-0.0523 0.28962,-0.53036 0.0394,-0.0907 0.0547,-0.1257 0.27754,-0.77432 0.0453,-0.12628 0.17034,-0.4757 0.002,-0.006 0.12766,-0.35614 -0.42828,0.14094 -0.1953,0.0718 -0.41522,0.39446 -0.0166,0.01 -0.039,0.007 -0.92594,0.0602 -0.0661,-0.7434 -0.42878,-0.57858 -0.0859,-0.1159 -0.004,-0.005 -0.12972,-0.17504 -0.002,-0.002 -0.70714,-1.1533 -0.13726,-0.2522 -0.14388,-0.39754 -0.27676,0.0172 -0.0313,-0.26952 -0.24384,-2.29024 -0.0977,-0.98816 v -0.009 l -0.0485,-0.49024 -0.0827,-0.836 0.21498,0.0324 0.43538,-0.0961 0.91942,-0.49798 1.08482,-0.5873 0.0144,-0.008 0.47672,-0.25794 0.20542,-0.11106 0.0412,-0.0448 0.21072,-0.45916 -0.006,-0.0667 -0.0104,-0.0585 -0.0148,-0.0616 -0.0337,-0.0718 -0.0415,-0.038 -0.25608,-0.15408 -0.0629,-0.0269 -0.0564,-0.023 -0.17262,0.071 -0.0758,0.0277 -0.0641,-0.01 -0.0896,-0.0206 -0.0744,-0.0198 -0.1206,-0.0343 -0.0738,-0.0332 -1.0312,-0.62236 -1.11248,-0.56862 -0.56538,-0.33798 -0.68596,-0.51302 -1.71688,-0.5342 -0.7957,-0.22242 -0.005,-0.002 0.0261,-0.0735 0.64258,-1.23936 0.11434,-0.21934 1.3501,0.064 0.13978,0.0118 0.23166,0.0308 0.0938,0.0122 0.12094,0.0166 0.0487,0.0132 0.55446,0.1504 0.24046,0.0987 0.0256,0.0474 0.0725,0.10378 0.0249,0.0266 0.2727,0.10526 0.0775,0.03 0.58598,0.20262 h 0.002 l 0.32022,0.09 0.39776,0.13604 0.16474,0.0609 0.0687,0.0304 0.27304,0.12852 -0.0373,-0.38238 z m 1.64164,-44.90812 0.47352,0.11364 v 0.24624 h -0.5114 z m 5.0192,3.06834 0.51138,0.019 0.0947,0.58714 -0.32198,-0.0758 -0.2841,-0.24622 v -0.2841 z M 48.75006,0 c 0.10714,0 0.88392,0.0536 0.88392,0.0536 l 0.0536,0.24106 -0.34822,0.0804 -0.0536,0.1875 -0.1607,0.0268 -0.2143,-0.26786 -0.1607,-0.0536 z M 34.9554,8.8125 34.25898,8.7857 l -0.0804,0.45534 -0.0268,0.32144 0.1875,0.0536 0.13394,-0.32142 h 0.45536 z m -0.71996,1.09394 0.56822,-0.13258 0.0758,0.2841 -0.43562,0.43562 -0.64398,0.34094 c 0,0 -0.26516,-0.24622 -0.1894,-0.28412 0.0758,-0.0379 0.43562,-0.35986 0.43562,-0.35986 z m -2.2539,2.00768 0.0758,-0.37882 0.4167,-0.22728 0.22728,-0.22728 0.15152,-0.81444 0.39774,0.11364 0.11366,0.30306 0.26516,0.30304 -0.11364,0.26516 -0.22728,0.43564 -0.4167,0.3788 -0.51138,0.1894 z"
     id="foggia"
     name="Foggia"
     />
  <path
     d="m 124.27728,127.11282 -0.42188,-0.26016 -0.57188,-0.51562 -0.825,-0.31876 -0.84374,-0.59062 -0.35626,-0.28126 -0.58124,-0.73124 -0.32812,-0.20626 -0.14064,0.4125 -0.14062,0.57188 v 0.32812 l -0.59062,0.0188 -0.10312,-0.62812 -0.30938,-0.53438 -0.31876,-0.23438 -0.12186,-0.45 -0.23438,0.0656 -0.2625,0.28126 -0.55312,0.12188 -0.225,0.19686 -0.68438,0.3 -0.54376,-0.0375 -0.21562,-0.25312 -0.45938,-0.53438 -0.14062,-0.4125 -0.59062,-0.009 -0.54376,0.36564 -0.20624,0.36562 0.10312,0.45938 0.27188,0.15936 0.3,0.39376 0.14062,0.45 -0.0562,0.23438 -0.40314,0.1875 -0.47812,0.009 c 0,0 -0.3375,-0.21564 -0.34688,-0.27188 -0.009,-0.0563 -0.0656,-0.45 -0.0656,-0.49688 0,-0.0469 0.0469,-0.19688 0.0469,-0.19688 l 0.0188,-0.32812 -0.0375,-0.3375 -0.14062,-0.1875 -0.38438,-0.16874 -0.30936,0.17812 -0.44064,0.35624 -0.20624,0.29064 -0.1875,0.27186 0.0375,0.30938 0.24374,0.225 0.15,0.225 0.12188,0.29062 0.13126,0.46876 0.2625,0.20624 0.17812,0.40314 -0.10312,0.24374 -0.4875,0.009 -0.40314,-0.4875 -0.40312,-0.3 -0.35624,-0.45936 -0.075,-0.54374 -0.12188,-0.2625 -0.525,-0.35626 -0.49688,-0.36562 -0.15938,-0.39376 -0.15936,-0.28124 -0.34688,0.21562 -0.29062,0.54376 -0.13126,0.72186 -0.40312,0.31876 -0.225,0.525 -0.4125,0.62812 -0.20626,0.40312 -0.35624,0.3 -0.45,0.3 -0.2625,0.46876 -0.61876,0.38438 -0.19686,0.24374 -0.42188,0.34688 -0.44062,0.23438 -0.23438,0.29062 -0.42188,0.14062 -0.31874,-0.12188 -0.51564,-0.35624 -0.25312,-0.3 -0.23438,-0.55312 -0.225,-0.39376 -0.38436,-0.38438 -0.0563,-0.47812 -0.28124,-0.25312 -0.42188,-0.17812 -0.225,-0.15 -0.47812,-0.17814 -0.54376,-0.3 -0.57188,-0.2625 -0.525,-0.50624 -0.51562,-0.51562 -0.59062,-0.65626 -0.58126,-0.43124 -0.81562,-0.81564 -0.675,-0.36562 -0.3375,-0.5625 -0.83438,-0.27188 -0.6375,-0.25312 -0.15,-0.55312 -0.31874,-0.4875 -0.39376,-0.17812 -0.40312,-0.24376 -0.4125,-0.62812 -0.10312,-0.27188 c 0,0 -0.45244,-0.3615 -0.50548,-0.40128 -0.053,-0.0398 -0.6629,-0.5038 -0.6629,-0.5038 l -0.18562,-0.3182 -0.19888,-0.2254 c 0,0 -0.19886,-0.35796 -0.21212,-0.411 -0.0132,-0.053 -0.18562,-0.29168 -0.18562,-0.29168 l -0.10608,-0.45078 -0.0132,-0.92808 -0.11932,-0.1591 -0.0795,-0.18562 0.23864,-0.0795 -0.0663,-0.23866 -0.18562,-0.33146 -0.38448,-0.11932 v -0.26516 l -0.19888,-0.64966 -0.2519,-0.38448 -0.27844,-0.33146 -0.23864,-0.26516 -0.23866,-0.19888 -0.21776,-0.35448 0.273,-0.59924 0.0852,-0.23654 0.12686,-0.33822 0.0298,-0.071 0.0297,-0.0698 0.0399,-0.0734 0.86448,-1.35546 0.0417,-0.058 0.37002,-0.50334 0.036,-0.038 0.0339,-0.0313 0.008,-0.008 0.0497,-0.0459 0.7481,-0.6644 0.13252,-0.11294 0.1916,-0.1349 0.0228,-0.3095 0.2787,-1.6494 0.1475,-0.80962 0.19566,-1.0751 -0.88516,-0.75506 0.19412,-0.39672 0.0328,-0.0369 0.27758,-0.2513 0.0663,-0.0349 0.0797,-0.047 0.0641,-0.0506 0.0482,-0.0459 0.012,-0.053 0.0232,-0.25108 0.004,-0.0682 -0.0154,-0.0632 -0.0278,-0.013 -0.11642,-0.11106 -0.16104,-0.1723 -0.0136,-0.06 0.10368,-0.36554 0.0459,-0.12158 0.45948,-0.91414 0.76848,-1.30926 0.1203,-0.17642 0.26756,-0.39128 0.28256,-0.43944 0.0268,-0.0471 0.15524,-0.70786 0.62762,-0.74898 0.10272,-0.21878 0.0277,-0.18354 0.14384,-0.4388 0.0275,-0.0836 0.008,-0.0234 0.12074,-0.36632 0.0357,-0.10848 0.027,-0.0647 0.0445,-0.0349 0.25358,-0.21542 0.92892,-1.07664 0.10528,-0.12378 0.0847,-0.12504 0.034,-0.0525 0.0124,-0.0192 0.0299,-0.06 0.0313,-0.0725 0.0205,-0.0713 0.20316,-0.7787 -0.003,-0.003 -0.15012,-0.14964 -0.21518,-0.20272 -0.33744,-0.27036 -0.33504,-0.75668 0.0344,-0.0419 0.0807,-0.15912 0.0749,-0.1662 0.0345,-0.0839 -0.0424,-0.35816 -0.0144,-0.0596 -0.13166,-0.45654 0.8354,0.25054 0.37176,0.10924 0.0184,-0.13412 0.0265,-0.13296 0.0702,-0.31756 0.0144,-0.0459 0.0522,-0.10544 0.19098,-0.24304 1.0298,-0.93108 0.23432,-0.89892 0.0659,-0.20664 0.0425,-0.0676 0.23496,-0.1425 0.2167,0.0586 0.15972,0.0713 0.0914,0.37244 0.006,0.0294 0.16932,0.086 1.26496,0.051 0.4986,-0.21492 0.0242,-0.0168 0.0238,-0.0223 0.0174,-0.0231 0.02,-0.0447 0.002,-0.0441 0.0346,0.007 0.43172,0.1211 0.0461,0.015 0.0343,0.0287 0.0234,0.0306 0.1037,0.28696 -0.0156,0.0372 -0.0259,0.0627 -0.0114,0.0306 0.65792,0.5637 0.3818,0.0771 0.15078,0.016 0.38684,0.29246 0.32694,0.66448 0.14828,0.5185 0.17998,0.33192 0.22066,0.372 0.0316,-0.0128 0.0423,-0.0379 0.0213,-0.036 0.11904,-0.26634 0.53334,-0.20192 0.45934,0.0669 0.79718,0.0617 h 0.03 l 0.12362,-0.0439 0.22152,-0.7236 v 0 l 0.0282,-0.0889 0.34228,-1.14864 -0.16938,-0.19626 -0.014,-0.022 -0.011,-0.0467 -0.11234,-0.66236 0.29674,-0.64324 0.44026,-0.75808 0.37538,-0.55432 0.14204,-0.2085 0.26914,-0.49034 0.011,-0.0239 0.0273,-0.0885 0.016,-0.19136 0.006,-0.10226 -0.002,-0.0291 v -0.007 l -0.003,-0.0182 -0.006,-0.0447 -0.007,-0.0436 -0.0166,-0.0479 -0.0198,-0.0365 -0.0235,-0.0228 -0.009,-0.0224 v -0.0388 l 0.007,-0.0788 0.003,-0.0164 0.002,-0.006 0.002,-0.01 0.22012,-0.84942 1.14314,0.24088 0.50626,0.28124 0.32812,0.28126 0.2625,0.44062 0.675,0.23438 1.15312,0.14062 0.44062,0.35626 0.51564,0.20624 0.38436,0.16876 1.52814,0.10312 1.74374,0.13124 c 0,0 0.26252,0.3 0.27188,0.3375 0.009,0.0375 0.83438,0.4125 0.88124,0.45 0.0469,0.0375 0.45938,0.20628 0.49688,0.21564 0.0375,0.009 1.44376,0.16874 1.44376,0.16874 l 0.30936,0.15938 0.87188,0.19688 0.74062,0.13124 0.85314,0.17812 0.91874,0.0656 0.42188,0.10312 0.44062,0.16874 c 0,0 0.14064,0.31876 0.15,0.35626 0.009,0.0375 0.525,0.27188 0.525,0.27188 l 0.27188,0.17812 0.73124,0.23438 0.36564,0.21562 0.73124,0.21562 h 0.49688 l 0.43124,-0.009 0.19688,-0.2625 0.30938,0.009 0.24374,0.31876 0.36564,0.13124 0.13124,0.3 0.35626,0.12188 0.30936,-0.0469 0.25314,-0.30938 0.15936,-0.24374 0.0281,-0.32812 -0.43126,-0.20626 -0.70312,-0.12188 0.0844,-0.17812 0.34688,0.0188 0.61874,0.0375 0.39376,0.30936 v 0.51564 l 0.0375,0.53436 0.0844,0.375 0.5625,0.1875 0.51564,0.14064 0.81562,0.225 0.72188,0.1875 c 0,0 0.64686,0.17814 0.68436,0.1875 0.0375,0.009 0.66564,0.225 0.66564,0.225 l 0.74062,0.3 0.96562,0.28124 0.60938,0.0563 0.68438,0.12186 0.46874,0.29064 0.6,0.16874 0.88126,0.24376 h 1.06874 l 1.40626,0.12186 0.76874,0.30938 c 0,0 0.66562,0.20626 0.68438,0.25312 0.0188,0.0469 0.76874,0.20626 0.76874,0.20626 l 0.4875,0.32812 0.79688,0.31876 0.61876,0.29062 0.58124,0.58124 0.69376,0.35626 0.70312,0.35624 0.75,0.29064 0.88124,0.43124 0.7875,0.1875 0.95626,0.1875 1.0125,0.825 0.50624,0.43126 0.25314,0.66562 0.60936,0.0844 0.54376,0.13124 0.88124,0.1875 c 0,0 0.7125,0.4125 0.73126,0.45938 0.0188,0.0469 0.85312,0.6 0.85312,0.6 l 0.72188,0.47812 0.75938,0.1125 0.49686,0.55312 0.87188,0.6375 0.975,0.75 0.95624,0.70314 0.50626,0.45 0.54374,0.6375 0.525,0.76874 0.32814,0.65626 0.64686,0.60936 c 0,0 0.9375,0.20624 0.975,0.19688 0.0375,-0.009 1.01968,0.27186 1.01668,0.28164 l -0.27486,0.3752 -0.6061,0.49246 c 0,0 -0.34092,0.30304 -0.51138,0.48298 -0.17046,0.17992 -0.73868,0.64396 -0.73868,0.64396 l -0.7292,0.57768 -0.17046,0.2273 0.22728,0.2557 0.0284,0.34092 -0.43562,0.53032 -0.2841,0.43564 -0.50192,0.80496 -0.34094,0.66292 -0.55874,0.44508 -0.11364,0.43564 -0.30304,0.33146 -0.0758,0.36934 0.7008,0.24622 0.79548,0.23674 1.01332,0.20836 0.31696,0.0235 0.61606,0.1875 0.32144,0.50892 0.375,0.34822 0.58928,0.40178 0.375,0.16072 0.29464,-0.26786 1.09822,-0.0804 0.80356,0.16072 0.375,0.13392 -0.26786,0.45536 -0.5357,0.48214 -0.2143,0.64286 0.1875,0.45536 0.5893,0.45536 -0.32144,0.53572 -1.01786,0.0536 h -0.40178 l -0.69642,0.21428 -0.50894,0.10716 -0.1607,0.45534 -0.2143,0.32144 -0.28006,0.16466 -0.76764,-0.26758 -0.2254,-0.37122 -0.76236,0.0928 -0.40436,0.3646 -0.44416,-0.0132 -0.35796,-0.87504 -0.45078,-0.58336 -0.5287,-0.53928 0.13124,-0.35624 0.4875,-0.13126 0.0188,-0.375 -1.44376,-0.0375 0.3375,-0.54374 1.29376,-0.0375 0.8625,-0.16876 c 0,0 -0.31876,-0.825 -0.3375,-0.91874 -0.0188,-0.0938 -0.825,-0.69376 -0.825,-0.69376 l -0.0938,0.28126 0.65626,0.6 -0.65626,0.31874 -0.54374,-0.58124 -1.275,-0.13126 h -1.575 l 0.0188,0.84376 0.7125,1.7625 -0.35626,0.6 -1.03124,0.675 -1.6125,0.15 -0.31876,-0.46876 -0.73124,0.4875 -1.40626,1.0125 -0.65624,0.45 -0.16876,1.51876 -0.1875,0.4875 0.4125,0.35624 0.0188,0.39376 -0.31876,0.3375 -0.69374,0.31874 -0.3375,0.1875 h -0.9375 l -0.2625,-0.28124 -0.16876,-0.4875 -0.54374,-0.075 -0.46876,0.45 -0.375,0.075 -0.4875,0.0188 -0.075,-0.69374 -0.975,-0.0375 -0.9,0.1125 -0.61874,0.225 -0.58126,0.35624 -0.2625,0.1875 -0.6375,0.0563 -0.43124,-0.24376 -0.4125,-0.43124 -0.91876,-0.61876 0.0188,-0.28124 0.6,-0.39376 0.45,-0.7125 0.28124,-0.31874 0.0188,-0.84376 -0.39376,-0.24374 -0.58124,0.2625 -0.525,0.4875 -1.05,0.525 -0.45,0.525 -0.54376,0.24374 -2.175,0.0188 -0.825,0.54374 -0.13124,0.9 0.31874,0.43126 0.2625,0.675 0.28126,0.0937 v 0.375 l -0.54376,0.0563 -0.375,0.24374 -0.1875,0.24376 h -0.5625 l -0.3375,-0.20626 -0.225,-0.4125 -0.46874,-0.15 -0.58126,-0.0375 -0.2625,0.24376 -0.225,0.31874 -0.31874,0.0188 -0.16876,-0.2625 v -0.6 l -0.225,-0.35626 h -0.84374 l -0.5625,0.65626 -0.3,0.525 -0.4875,0.3375 -0.3375,0.225 -0.225,0.80624 0.16874,0.4125 -0.225,0.16876 -0.35624,0.225 -0.31876,-0.1125 -0.45,-0.2625 -0.20624,-0.5625 -0.3375,-0.6375 -0.24376,-0.35626 -0.13124,-0.91874 -0.1125,-0.76876 -0.6375,-0.3 -0.225,0.43126 -0.54376,0.4875 -0.65624,0.1875 -0.3375,0.3375 -0.4125,0.5625 -0.5625,0.225 -0.6,0.0937 z"
     id="bari"
     name="Bari"
     />
  <path
     d="m 88.43838,112.22458 -0.56096,-0.1273 -0.71862,-0.18956 -0.20096,-0.0587 -0.0879,-0.0286 -0.26076,-0.11442 -0.0627,-0.0416 -0.0591,-0.0447 -0.0979,-0.0596 -0.0791,-0.0168 -0.55584,-0.0651 -1.0505,0.49444 -0.51682,0.53406 -0.0476,0.0624 -0.0393,0.0781 -0.0892,0.2767 -0.006,0.11532 0.017,0.10708 0.0396,0.31618 -0.0112,0.031 -0.0138,0.0365 -0.0108,0.0259 -0.043,0.0491 -0.45428,0.35634 -0.16584,0.0595 -0.0341,0.0322 -0.0367,0.0483 -0.0233,0.0483 -0.0477,0.1158 -0.004,0.13378 -0.34754,-0.36286 -1.03132,-0.97942 -0.26368,-0.22954 -0.32966,-0.24354 -0.0596,-0.0278 -0.0527,-0.0231 -0.574,-0.19802 -0.23184,-0.06 -0.14706,-0.0276 -0.30044,-0.0301 -0.50428,-0.0921 -0.47754,-0.10344 -0.072,-0.0352 -0.0238,-0.0373 -0.0231,-0.0788 -0.0313,-0.0412 -0.0308,-0.0247 -0.16404,-0.11228 -0.26646,-0.14542 -0.3217,-0.1614 -0.52974,-0.19272 -0.82284,-0.27082 -0.26458,-0.0292 -0.14912,-0.0146 -0.0776,-0.007 -0.4258,-0.19162 -0.51018,-0.16944 -0.0552,-0.0128 -0.48758,-0.0619 -0.94208,-0.22776 -0.0634,-0.0351 -0.33932,-0.23724 -0.006,-0.005 -0.0367,-0.0325 v -4e-5 l -0.41682,-1.16618 0.0546,0.0229 0.0574,0.0218 0.10248,0.0338 0.0476,0.008 0.007,0.002 0.35062,0.0351 h 0.18176 l 0.63424,-0.0542 0.23252,-0.0268 0.39228,-0.0451 0.34876,-0.19434 0.0124,-0.0158 0.86406,-1.35896 0.1248,-0.2181 0.0915,-0.17714 0.27394,-0.65238 -0.003,-0.0216 -0.0948,-0.60014 -0.12468,-0.25242 -0.0546,-0.0576 -0.0327,-0.0387 -0.0372,-0.0466 -0.0156,-0.0431 -0.0236,-0.0662 -0.0245,-0.15614 -0.0365,-0.36324 -0.009,-0.51834 0.002,-0.0541 0.0289,-0.0597 0.0839,-0.1387 0.0448,-0.0448 0.15492,-0.0839 0.48262,-0.1151 -0.0194,-0.57112 -0.0182,-0.0953 -0.009,-0.0219 -0.006,-0.0102 -0.13624,-0.15392 -0.0362,-0.038 -0.0136,-0.0138 -1.14264,-0.98628 -1.00466,-0.59324 -0.0263,-0.0148 -0.0255,0.0295 -0.0733,0.11276 -0.18846,0.24338 -0.0576,0.0563 -0.1227,0.0882 -0.0203,-0.0124 -0.0134,-0.0114 -0.0148,-0.0142 -1.26272,-1.952 -0.17102,-0.35152 0.0757,-0.0669 0.0495,-0.048 0.0941,-0.2832 -0.0817,-0.24622 -0.0315,-0.0325 -0.35064,-0.32942 -0.0433,-0.0309 -0.0604,-0.0383 -1.04226,0.16356 -0.40792,0.0491 0.18806,-0.27176 0.0622,-0.10182 0.036,-0.0696 0.033,-0.0896 0.0138,-0.10366 -0.006,-0.0439 -0.0201,-0.0592 -0.0988,-0.2085 -0.0547,-0.0909 -0.3315,-0.4993 -1.06418,-0.15424 -0.34056,0.43414 -0.73462,-0.13128 -0.11048,-0.075 -0.2939,-0.24974 -0.33764,-0.30728 -0.0303,-0.0258 -0.009,-0.008 -0.25062,-0.21166 -0.40896,-0.34232 -0.0562,0.0642 -0.0383,0.0488 -0.044,0.0473 -0.0573,0.0595 -0.23314,0.12922 -0.0239,0.008 -0.0366,-0.025 -0.0431,-0.0493 -0.0379,-0.0438 -0.33936,-0.43826 -0.305,-0.39954 -0.0459,-0.0551 -0.25182,-0.28904 -0.0591,0.0249 -0.0142,0.0326 -0.0186,0.026 -0.0455,0.0379 -0.0538,0.0316 -0.0511,0.0253 -0.0254,-0.002 -0.33076,-0.24354 0.007,-0.0494 0.0899,-0.18522 0.0778,-0.11492 0.0483,-0.0532 0.68184,-0.73732 1.06946,-1.07312 0.39056,-0.0536 0.42474,-0.64826 0.10046,-0.3041 0.5276,-0.75844 0.0827,-0.0478 0.0337,-0.0158 0.0492,-0.0178 0.1763,-0.0328 0.0509,-0.007 0.44166,-0.0595 0.71524,-0.0266 2.62912,-1.31864 0.95918,-1.23966 0.36414,-0.33836 0.0168,-0.0287 0.18556,-0.35788 0.20512,-0.40742 -0.0266,-0.29736 -0.0897,-0.4441 -0.17776,-0.0457 -0.009,-0.002 -0.0302,-0.007 -0.007,-0.78794 0.004,-0.0263 0.0136,-0.0318 0.0254,-0.0319 0.0323,-0.0338 0.0469,-0.0429 0.0719,-0.0551 0.0384,-0.0476 0.0361,-0.0523 0.28962,-0.53038 0.0394,-0.0907 0.0547,-0.12568 0.27754,-0.77432 0.0453,-0.12628 0.17034,-0.4757 0.002,-0.006 0.12766,-0.35614 -0.42828,0.14094 -0.1953,0.0718 -0.41522,0.39448 -0.0166,0.01 -0.039,0.007 -0.92594,0.0602 -0.0661,-0.7434 -0.42878,-0.57856 -0.0859,-0.1159 -0.004,-0.005 -0.12972,-0.17506 -0.002,-0.002 -0.70714,-1.1533 -0.13726,-0.2522 -0.1439,-0.39754 -0.27674,0.0172 -0.0313,-0.2695 -0.24384,-2.29024 -0.0977,-0.98816 v -0.009 l -0.0485,-0.49024 -0.0827,-0.836 0.21498,0.0324 0.4354,-0.0961 0.9194,-0.49798 1.08482,-0.5873 0.0144,-0.008 0.47672,-0.25796 0.20542,-0.11106 0.0412,-0.0448 0.21072,-0.45914 -0.006,-0.0667 -0.0104,-0.0585 -0.0148,-0.0616 -0.0337,-0.0718 -0.0415,-0.038 -0.25606,-0.15408 -0.0629,-0.0269 -0.0564,-0.023 -0.17262,0.071 -0.0758,0.0277 -0.0641,-0.01 -0.0896,-0.0206 -0.0744,-0.0198 -0.1206,-0.0343 -0.0738,-0.0332 -1.0312,-0.62234 -1.11248,-0.56862 -0.56538,-0.33798 -0.68596,-0.51302 -1.71688,-0.53422 -0.7957,-0.22242 -0.005,-0.002 0.0261,-0.0734 0.64258,-1.23936 0.11434,-0.21936 1.3501,0.064 0.13978,0.0118 0.23166,0.0308 0.0938,0.0122 0.12096,0.0166 0.0487,0.0132 0.55446,0.1504 0.24046,0.0987 0.0256,0.0475 0.0725,0.10378 0.0249,0.0266 0.2727,0.10526 0.0775,0.03 0.58598,0.20262 h 0.002 l 0.32022,0.09 0.39776,0.13604 0.16474,0.0608 0.0687,0.0304 0.27304,0.1285 -0.0321,-0.379 0.0401,0.0172 0.0718,0.0302 0.42238,0.15844 0.40988,0.11596 0.061,-0.0213 0.11754,-0.008 0.10702,0.0367 0.339,0.13238 1.60022,0.67738 2.28418,0.89064 1.9015,0.87124 1.5032,0.71454 0.12646,0.0696 0.0474,0.0261 0.114,0.0621 0.15456,0.0842 0.0816,0.0377 0.51408,0.2288 0.66832,0.21852 0.74244,0.22736 0.44734,0.1339 0.11762,0.0314 0.1519,0.0347 0.161,0.009 0.24608,-0.0126 0.0655,0.0162 0.0578,0.0554 0.14648,0.0935 0.1491,0.0764 0.0264,-0.0313 0.003,-0.0112 0.007,-0.002 0.0662,0.0215 0.12908,0.096 0.0168,0.0146 0.0184,0.0172 0.0174,0.0221 0.0136,0.0265 0.0322,0.0472 0.006,0.007 0.0569,0.0423 0.28934,0.20304 h 0.0482 l 0.42686,0.3193 0.39444,0.29848 0.008,0.006 0.13536,0.0988 0.4943,0.32372 0.15248,0.0954 0.23412,0.13152 0.54932,0.27152 0.3415,0.15374 0.3381,0.13136 0.34756,0.10434 0.0959,0.0198 0.0986,0.0204 0.0292,0.006 0.11486,0.0238 h 0.14064 0.14686 l 0.13206,-0.048 0.0289,-0.0146 0.0572,-0.0419 0.014,-0.0106 -0.0771,-0.21112 0.15636,-0.11558 0.0683,-0.16872 0.14278,-0.20774 0.012,0.0106 0.008,0.16728 -0.0573,0.0815 -0.20146,0.18696 -0.0318,0.0388 -0.01,0.009 0.0382,0.22768 0.0114,0.0357 0.0226,0.0325 0.2902,0.0858 0.0233,0.0522 -0.003,0.0138 0.011,0.003 0.18256,-0.003 0.0632,-0.004 0.005,-0.0298 0.0401,-0.29986 0.0126,-0.10816 0.003,-0.17248 -0.002,-0.0134 -0.009,-0.053 -0.0246,-0.1067 -0.008,-0.0271 -0.0304,-0.10516 -0.0198,-0.0683 0.0194,-0.008 0.0782,0.31584 0.0162,0.10318 0.002,0.078 -0.002,0.0302 -0.002,0.0317 -0.002,0.0188 -0.002,0.007 -0.004,0.009 0.007,0.19504 -0.003,0.0122 0.15488,0.20052 0.47298,0.21186 0.0628,0.0268 0.0693,0.0245 0.10192,0.0303 0.026,0.007 0.14634,0.035 0.0709,0.0158 0.0301,0.006 0.19172,0.0284 0.18374,0.0327 0.15904,0.0307 0.19858,0.0845 0.15686,0.0553 0.11194,0.0198 0.0684,0.005 0.32472,0.0496 0.21168,0.0412 0.22762,0.011 0.0622,-0.002 0.0979,0.0217 0.2156,0.057 0.13456,0.0606 0.0556,0.0679 0.0813,0.0831 0.15274,-0.0188 0.10692,-0.007 h 0.002 l 0.0759,0.0221 0.0696,0.0342 0.0152,0.0138 0.24736,0.0792 0.21458,0.0984 0.14656,0.072 0.0951,0.0555 0.22906,0.13376 0.67042,0.39542 0.0299,0.0219 0.60916,0.32756 0.9422,0.36932 0.0744,0.0102 0.0794,-0.002 0.0368,-0.006 0.0386,-0.011 0.0158,-0.0112 0.1931,0.0306 0.61932,0.16846 0.41704,0.16354 0.21574,0.20016 0.0553,0.1864 0.005,0.0116 0.005,0.008 0.006,0.008 0.004,0.005 0.008,0.01 0.006,0.007 0.0244,0.0279 0.0346,0.0277 0.0134,0.0104 0.0186,0.0144 1.4243,0.89986 0.0378,0.0238 0.19578,0.0949 0.10362,0.0446 h 0.0209 l 0.0439,-0.0203 0.34254,0.0547 0.34622,0.12172 0.0935,0.0401 0.13576,0.076 0.37668,0.0374 1.5796,0.32884 0.68036,0.16648 -0.0745,0.21162 -0.0112,0.0256 -0.063,0.0681 0.0281,0.0253 0.0154,0.0114 0.0142,0.008 0.0868,0.0164 0.007,0.002 0.56976,-0.0315 0.005,-0.004 0.005,-0.007 -2e-5,-0.005 v -0.013 l -0.002,-0.0224 0.007,-0.006 0.066,-0.0132 0.0255,0.002 0.0915,0.01 0.19748,0.0532 0.26532,0.0833 0.44572,0.1683 0.0416,0.0156 0.0684,0.0302 0.0685,0.0441 0.1741,0.1342 0.0152,0.0184 0.0229,0.0332 0.007,0.0102 0.004,0.0248 -0.002,0.0223 -0.007,0.0108 -0.014,0.0116 -0.0166,0.007 -0.0134,0.01 -0.006,0.0108 -0.009,0.0728 0.35808,0.13484 0.15732,0.0272 -0.2227,0.80176 -0.002,0.01 -0.002,0.006 -0.003,0.0164 -0.007,0.0788 v 0.0388 l 0.009,0.0224 0.0235,0.0228 0.0198,0.0365 0.0166,0.0479 0.007,0.0436 0.006,0.0447 0.003,0.0182 v 0.007 l 0.002,0.0291 -0.006,0.10228 -0.0158,0.19134 -0.0273,0.0885 -0.011,0.0239 -0.26914,0.49034 -0.14204,0.2085 -0.37538,0.55432 -0.44026,0.75808 -0.29674,0.64326 0.11234,0.66234 0.011,0.0467 0.014,0.0221 0.16938,0.19624 -0.34228,1.14864 -0.0282,0.0889 v 0 l -0.22152,0.7236 -0.12362,0.0439 h -0.03 l -0.79718,-0.0617 -0.45934,-0.0669 -0.53334,0.20192 -0.11904,0.26632 -0.0213,0.036 -0.0423,0.0379 -0.0316,0.0128 -0.22066,-0.37202 -0.17998,-0.33192 -0.14828,-0.5185 -0.32694,-0.66448 -0.38684,-0.29246 -0.15078,-0.016 -0.3818,-0.0771 -0.65792,-0.56368 0.0114,-0.0306 0.0259,-0.0627 0.0156,-0.0372 -0.1037,-0.28696 -0.0234,-0.0306 -0.0343,-0.0287 -0.0461,-0.015 -0.43172,-0.1211 -0.0346,-0.007 -0.002,0.0442 -0.02,0.0446 -0.0174,0.0231 -0.0238,0.0223 -0.0242,0.0168 -0.4986,0.21492 -1.26496,-0.051 -0.16932,-0.086 -0.006,-0.0294 -0.0914,-0.37244 -0.15972,-0.0713 -0.2167,-0.0586 -0.23496,0.1425 -0.0425,0.0676 -0.0659,0.20664 -0.23432,0.8989 -1.0298,0.9311 -0.19098,0.24302 -0.0522,0.10544 -0.0144,0.0459 -0.0702,0.31754 -0.0265,0.13298 -0.0184,0.1341 -0.37176,-0.10924 -0.8354,-0.25054 0.13166,0.45654 0.0144,0.0596 0.0424,0.35818 -0.0345,0.0839 -0.0749,0.1662 -0.0807,0.15912 -0.0344,0.0419 0.33504,0.7567 0.33744,0.27034 0.21518,0.20274 0.15012,0.14964 0.003,0.003 -0.20316,0.7787 -0.0205,0.0713 -0.0313,0.0725 -0.0299,0.0599 -0.0124,0.0192 -0.034,0.0525 -0.0847,0.12504 -0.10528,0.12376 -0.92892,1.07664 -0.25358,0.21542 -0.0445,0.0349 -0.027,0.0647 -0.0357,0.1085 -0.12074,0.36632 -0.008,0.0234 -0.0275,0.0836 -0.14384,0.4388 -0.0277,0.18354 -0.10272,0.21878 -0.62762,0.74898 -0.15524,0.70786 -0.0268,0.0471 -0.28256,0.43944 -0.26756,0.39128 -0.1203,0.17644 -0.76848,1.30924 -0.45948,0.91414 -0.0459,0.12158 -0.10368,0.36554 0.0136,0.06 0.16104,0.17232 0.11642,0.11106 0.0278,0.013 0.0154,0.0632 -0.004,0.0682 -0.0232,0.25106 -0.012,0.053 -0.0482,0.0459 -0.0641,0.0506 -0.0797,0.047 -0.0663,0.0349 -0.27758,0.25128 -0.0328,0.0369 -0.19412,0.39674 0.88516,0.75504 -0.19566,1.0751 -0.1475,0.80962 -0.2787,1.6494 -0.0228,0.3095 -0.1916,0.1349 -0.13252,0.11294 -0.7481,0.6644 -0.0497,0.0459 -0.008,0.008 -0.0339,0.0313 -0.036,0.038 -0.37002,0.50332 -0.0417,0.058 -0.86448,1.35548 -0.0399,0.0734 -0.0297,0.0698 -0.0298,0.071 -0.12686,0.33822 -0.0852,0.23656 -0.14606,0.42372 z"
     id="bat"
     name="Barletta-Andria-Trani"
     />
  <path
     d="m 197.36612,156.96382 0.21428,0.5625 0.24106,-2e-5 0.12054,-0.3884 h 1.16518 l 0.5759,0.375 1.54018,-0.0134 1.16518,0.45536 0.067,0.16072 0.28126,0.0268 0.24106,-0.5893 0.61608,-0.1875 0.77678,0.2143 0.375,0.33482 0.46874,0.41518 0.24108,0.5625 c 0,0 0.13392,0.7098 0.067,0.69642 -0.067,-0.0134 0.46876,0.60268 0.46876,0.60268 l 0.25446,-0.22768 0.20088,-0.42858 0.50894,-0.0803 0.25446,0.38838 0.32144,-0.12054 0.29464,0.42858 c 0,0 -0.0134,0.3884 -0.067,0.40178 -0.0536,0.0134 -0.46874,-0.067 -0.46874,-0.067 l -0.61606,-0.33482 v 0.50892 l 0.50892,0.36162 0.78782,0.55526 1.02278,1.06066 0.2273,0.4167 -0.75762,0.3788 -0.0758,1.02278 0.3788,1.02278 0.71974,0.83338 0.49244,0.60608 0.94702,0.11366 0.75762,0.68184 0.26516,0.87126 0.7955,0.60608 1.02278,0.26518 0.71974,0.60608 0.49244,1.43948 0.6061,0.15152 0.41668,0.90914 v 1.1743 l -0.22728,0.3788 -0.26518,0.34094 -0.15152,0.71972 -0.7576,0.6061 -0.75762,0.1894 -0.4167,0.68186 0.15154,0.53032 h 0.34092 l 0.53032,-0.34092 0.71974,0.15152 0.64398,0.0758 0.75762,1.40158 0.3788,0.7955 -0.0379,1.70464 -0.56822,0.49244 -0.60608,-0.15152 -0.30306,0.22728 0.34094,0.68186 0.83336,1.591 1.13644,0.79548 1.13642,2.04556 0.64396,0.7955 1.13642,0.45456 0.87126,0.90914 1.89404,1.21218 1.1743,0.64398 1.06066,0.71974 c 0,0 1.59098,1.25006 1.40158,1.13642 -0.1894,-0.11366 1.28796,0.34092 1.28796,0.34092 l 0.79548,0.3788 0.94702,0.34094 1.25006,0.71972 2.80318,-0.0379 1.70464,-0.30304 0.90914,0.64398 1.28794,0.5682 0.3788,0.53034 1.43946,0.49244 0.15154,0.49246 0.30304,0.30304 0.19686,0.1334 0.44196,0.0402 0.70982,-0.16072 0.16072,-0.16072 0.33482,-0.12052 0.067,0.13392 0.2009,0.0402 0.33482,-0.0268 0.30804,-0.5625 0.30802,-0.77678 0.14734,-0.375 0.50892,-0.26786 -0.0134,-0.7366 -0.3616,-0.41518 -0.14732,-0.26786 -0.24108,-0.30802 0.10712,-0.79018 0.4152,-0.28126 -0.10716,-1.96874 c 0,0 0.34822,-0.2143 0.33482,-0.29464 -0.0134,-0.0804 -0.0134,-1.27234 -0.0134,-1.27234 l -0.40178,-0.58928 -0.24108,-0.26786 -0.29464,-0.44196 -0.12054,-0.5625 0.16072,-0.29464 0.1875,-1.8616 0.20088,-1.74108 0.12054,-0.14732 -0.0268,-0.10714 -0.16072,-0.32144 0.0268,-0.57588 0.0937,-0.3884 0.29464,-0.9509 0.22768,-1.1116 0.32144,-0.61606 0.32142,-0.1875 0.5625,-0.22768 -0.0804,-2.00894 0.4018,-0.30804 0.87052,-0.66964 0.73662,-0.57588 0.26786,-0.28126 0.1473,-2.29018 0.4018,-0.91072 0.5357,-1.17856 0.26786,-0.10714 0.45536,-0.60268 0.375,-0.54912 0.3884,-0.12052 -0.0536,-0.24108 -0.28124,-0.5625 -0.49554,-0.26786 -0.0402,-0.40178 v -0.7634 l 0.52232,-0.12052 -0.1875,-0.2143 -0.26786,-0.62946 -0.32142,-0.40178 -0.22768,-0.2143 -0.75,0.0402 -0.13394,0.36162 -0.25446,-0.0134 0.0938,-0.48214 -0.0402,-0.48216 -0.66964,-0.42856 -0.34822,-0.45536 -0.375,-1.04464 -0.34822,-0.68304 -0.60268,-0.3616 -0.0536,-0.62948 -0.22768,-0.28124 -0.0536,-0.58928 0.36162,-0.375 -0.10716,-0.84376 -0.57588,-0.42858 -0.22768,-0.5759 -0.42858,-0.44196 -0.2009,-0.58928 -0.24106,-0.50894 -0.1875,-0.52232 -0.46874,-0.60268 -0.2277,-0.1741 c 0,0 -0.12052,-0.9375 -0.1741,-0.99106 -0.0536,-0.0536 -0.42856,-0.3884 -0.42856,-0.3884 l -0.24108,-0.58928 -0.5625,-0.1875 -1.01786,-0.1875 -0.41518,-0.34822 -0.75,-0.66964 -0.65624,-0.69644 -0.5625,-0.88392 c 0,0 -0.64286,-0.49554 -0.70982,-0.52232 -0.067,-0.0268 -0.88394,-0.7634 -0.88394,-0.7634 l -0.375,-0.58928 -0.46874,-0.375 -0.50894,-0.33482 -0.48214,-0.0938 -0.5759,-0.1875 -0.29464,-0.375 -0.46874,-0.41518 -0.0938,-0.29464 -0.28124,-0.62946 -0.16072,-0.32142 -0.75,-0.52232 -0.7634,-0.32144 -0.5357,-0.60268 -0.7634,-0.57588 -0.66964,-0.65626 -0.3616,-0.32142 -0.3884,-0.45536 -0.30804,-0.66964 -0.375,-0.0804 -0.16072,-0.1875 -0.96428,-0.067 -0.375,-0.5759 -0.33482,-0.45536 -1.07142,-0.22768 -0.79018,-0.0804 -0.52232,-0.28124 -0.41518,-0.5893 -0.97768,-0.0268 -1.05804,-0.48214 -0.87054,-0.25446 -0.44196,-0.42858 -0.50892,-0.28124 -0.49554,-0.46876 -0.36162,-0.20088 -0.45534,-0.2277 -0.28126,0.25448 v 0.49554 l -0.3884,0.75 -0.0402,0.77678 -0.69644,0.25446 -0.44196,0.42858 -0.14732,0.41518 0.29464,0.48214 0.66964,0.40178 0.375,0.26786 -0.26786,0.52232 -0.80356,0.0134 -0.1875,-0.53572 -0.44198,-0.80356 -0.62946,-0.10714 -0.14732,-0.45536 -0.0402,-0.52232 -0.48214,-0.0268 -0.21428,0.26786 -0.34822,0.40178 -0.44196,0.32144 -0.13394,0.44196 0.7902,0.1741 0.0402,0.50894 -0.5625,0.25446 -0.30802,0.0804 -0.29464,-0.12054 -0.33484,-0.29464 -0.20088,-0.16072 -0.5625,0.0268 -0.26786,0.48214 -0.52232,0.60268 -0.60268,0.3482 c 0,0 -1.5,0.16072 -1.58036,0.2009 -0.0804,0.0402 -0.3616,0.44196 -0.3616,0.44196 l -0.13394,0.5625 -0.40178,1.3393 -0.21428,0.14732 -0.62946,0.30802 -1.37948,0.26786 -0.77678,0.14734 -0.46874,0.57588 -0.81698,0.10714 -0.45536,0.28126 -0.66964,0.42856 -0.76338,0.54912 -0.89734,0.38838 -0.5491,0.83036 -0.41518,0.53572 -0.45536,0.41518 0.0938,0.41518 -0.12054,1.20536 0.33482,0.45536 -0.0268,0.62946 -0.4018,0.3616 -0.0268,1.39286 -0.52232,0.28124 -0.375,0.30804 0.1875,0.49554 0.61606,0.66964 -0.0268,0.45536 -0.83036,0.067 -0.32142,-0.067 -0.29464,0.21428 -0.13394,0.85714 z m 14.01404,20.18228 0.90914,-0.3788 0.4167,0.3788 0.11364,0.75762 -0.75762,0.30304 -0.49244,-0.26516 -0.2273,-0.45458 z m -7.19708,-18.73586 0.48214,0.0536 0.067,0.28124 -0.1741,0.3884 -0.41518,-0.13394 -0.0402,-0.5491 z"
     id="lecce"
     name="Lecce"
     />
  <path
     d="m 165.47878,121.24008 0.2668,-0.16912 0.21428,-0.32144 0.16072,-0.45534 0.50892,-0.10716 0.69644,-0.21428 h 0.40178 l 1.01786,-0.0536 0.32142,-0.53572 -0.58928,-0.45536 -0.1875,-0.45536 0.21428,-0.64286 0.53572,-0.48214 0.26786,-0.45536 -0.375,-0.13392 -0.80358,-0.16072 -1.09822,0.0804 -0.29464,0.26786 -0.375,-0.16072 -0.58928,-0.40178 -0.375,-0.34822 -0.32142,-0.50892 -0.61608,-0.1875 -0.31694,-0.0235 -1.01332,-0.20836 -0.7955,-0.23674 -0.7008,-0.24622 0.0758,-0.36934 0.30304,-0.33146 0.11364,-0.43564 0.55874,-0.44508 0.34092,-0.66292 0.50192,-0.80496 0.28412,-0.43564 0.43562,-0.53032 -0.0284,-0.34092 -0.2273,-0.2557 0.17048,-0.2273 0.7292,-0.57768 c 0,0 0.5682,-0.46404 0.73866,-0.64396 0.17048,-0.17994 0.5114,-0.48298 0.5114,-0.48298 l 0.6061,-0.49246 0.29828,-0.38938 0.67552,0.3928 0.7701,0.66296 1.19196,0.99106 1.65402,0.81028 0.95758,0.46206 0.44198,0.65624 0.80356,0.99776 0.99776,0.42188 1.21206,0.5558 0.5692,0.18082 1.09822,0.40848 0.67634,0.28124 0.81026,0.34822 0.41008,0.36978 0.24622,0.11364 0.17046,-0.22728 0.2273,-0.20836 0.62502,-0.019 0.35988,0.32198 0.53032,0.30306 1.4584,0.20834 1.04172,0.20834 1.66676,0.30304 1.591,0.35986 c 0,0 0.45456,0.1326 0.54926,0.17048 0.0947,0.0379 0.49246,0.26516 0.49246,0.26516 l 0.81442,0.53032 1.09854,0.24624 1.26902,0.5682 0.51138,0.54928 0.58716,0.3788 0.53032,0.35986 1.11748,0.45458 0.6061,0.51138 0.81444,0.0568 0.17046,0.15154 0.58714,0.019 0.32198,-0.26516 0.26518,0.22728 -0.0947,0.24622 -0.53034,0.0947 -0.11364,0.24624 0.54928,0.32198 0.60608,0.35986 1.09854,0.17046 0.30304,0.30306 1.07962,0.0947 0.71972,0.24622 0.8902,0.0947 0.56822,-0.11364 h 2.02662 l 0.947,-0.0947 0.43564,-0.45458 0.43562,0.1894 0.0568,0.30306 0.322,0.68186 0.51138,0.39774 0.47352,0.0947 0.89018,0.019 0.68186,0.019 0.26516,-0.39774 0.54928,0.0568 0.0947,0.11364 -0.0379,0.15152 -0.66292,0.1894 -0.68184,0.0947 -0.77656,0.0947 -0.26516,0.37882 -0.20836,0.53032 -0.39774,0.26516 -0.85232,0.30306 -0.41668,0.24622 -0.0758,0.45456 0.45456,-0.019 0.62504,-0.34094 0.83338,-0.43562 0.24622,-0.26516 0.35986,0.0758 0.87126,-0.019 0.17046,0.26516 0.35988,0.0758 0.39774,-0.32198 0.15152,-0.66292 0.62504,0.35986 0.58714,0.47352 0.30304,0.35986 0.0379,0.6061 0.18942,0.77654 0.7576,0.49246 0.5114,0.54926 0.39774,0.26518 0.47352,0.41668 0.20834,0.2841 -0.26516,0.4167 -0.322,0.51138 -0.26516,0.53034 -0.0947,0.58714 0.0568,0.7008 0.7008,0.58714 0.54926,0.58716 0.62504,0.13258 0.49244,0.24622 0.75762,0.43564 0.22728,0.45456 0.15152,0.66292 0.56822,0.49244 0.43562,0.18942 0.27478,0.24738 -0.2882,0.26036 v 0.49552 l -0.3884,0.75 -0.0402,0.7768 -0.69642,0.25446 -0.44198,0.42858 -0.1473,0.41516 0.29464,0.48216 0.66964,0.40178 0.375,0.26786 -0.26786,0.52232 -0.80358,0.0134 -0.1875,-0.53572 -0.44196,-0.80356 -0.62946,-0.10714 -0.14732,-0.45536 -0.0402,-0.52234 -0.48214,-0.0268 -0.21428,0.26786 -0.34822,0.40178 -0.44198,0.32144 -0.13392,0.44196 0.79018,0.1741 0.0402,0.50894 -0.5625,0.25446 -0.30804,0.0804 -0.29464,-0.12054 -0.33482,-0.29464 -0.2009,-0.16072 -0.5625,0.0268 -0.26784,0.48216 -0.52234,0.60268 -0.60266,0.3482 c 0,0 -1.5,0.16072 -1.58036,0.2009 -0.0804,0.0402 -0.36162,0.44196 -0.36162,0.44196 l -0.13392,0.5625 -0.4018,1.3393 -0.21428,0.1473 -0.62946,0.30804 -1.37946,0.26786 -0.7768,0.14732 -0.46874,0.5759 -0.81696,0.10714 -0.45536,0.28124 -0.66964,0.42858 -0.7634,0.54912 -0.89732,0.38838 -0.5491,0.83036 -0.41518,0.53572 -0.46396,0.4423 -0.1936,-0.003 -0.32198,-0.4735 H 198.387 l -0.32198,0.22728 -0.1894,0.30304 -0.15152,0.11364 -0.49246,-0.73866 -0.15152,-0.37882 -0.6061,-0.13258 -0.83336,0.34092 -0.49246,0.26518 -0.66292,0.26516 -0.60608,-0.32198 -0.39774,-0.81444 -0.2273,-0.30304 -1.00384,-0.019 -0.45456,-0.26516 -0.32198,-0.47352 -0.34094,-0.68184 -0.20834,-0.94702 -0.13258,-0.54928 -0.45458,0.019 -0.0568,0.35986 -0.70078,0.11364 -0.34094,-0.2841 -0.41668,-0.15152 -0.87126,-0.30306 -0.3788,-0.73866 -0.66292,-0.35988 -0.20834,0.0947 -0.0379,0.32198 -0.43564,0.30304 -0.20834,-0.22728 -0.0568,-0.2841 -0.6629,-0.17046 -0.322,0.15152 -0.30304,0.26516 -0.35986,0.35986 -0.53034,0.17046 0.87126,0.71974 0.15152,0.28412 -0.2841,0.62502 -1.269,0.019 -0.4167,0.17046 -0.34092,-0.0379 -0.0947,-0.28412 -0.53034,-0.11364 -0.17046,0.30306 -0.0379,0.26516 -0.58714,-0.4167 -0.6061,-0.62502 -0.53032,-0.7008 -0.0758,-0.6629 -0.34092,-0.64398 -0.32198,-0.30304 -1.4584,-0.20834 -0.58716,-0.5114 -0.26516,-0.77656 -0.28412,-0.3788 -0.49244,-0.92808 -0.62504,-1.00384 -0.34092,-0.85232 -0.56822,-0.96596 -0.64396,-0.81442 0.13258,-0.6061 0.0947,-0.77656 0.32198,-1.23112 0.56822,-0.49244 0.22728,-0.58716 0.17046,-0.8902 -0.30304,-0.54926 -0.35986,-0.30306 -0.92808,-0.17046 -0.8902,-0.20834 -0.83338,-0.54926 -0.39774,-0.66292 -0.2841,-1.49628 -0.26518,-1.1175 -0.3788,-0.70078 0.53032,-0.39776 0.28412,-0.53032 -0.2273,-0.24622 -0.70078,0.24622 -0.2841,-0.22728 -0.71974,-0.43564 -0.54928,-0.53032 0.13258,-0.75762 -0.41668,-0.90914 -1.53416,-0.39774 -0.94702,-0.22728 -0.8991,-0.46758 z"
     id="brindisi"
     name="Brindisi"
     />
  <path
     d="m 165.49336,121.2976 0.88452,0.41006 0.94702,0.22728 1.53416,0.39776 0.41668,0.90914 -0.13258,0.75762 0.54928,0.53032 0.71974,0.43564 0.2841,0.22728 0.70078,-0.24624 0.2273,0.24624 -0.28412,0.53032 -0.53032,0.39776 0.3788,0.70078 0.26518,1.11748 0.2841,1.4963 0.39774,0.6629 0.83338,0.54928 0.8902,0.20834 0.92808,0.17046 0.35986,0.30306 0.30304,0.54926 -0.17046,0.8902 -0.22728,0.58716 -0.56822,0.49244 -0.32198,1.23112 -0.0947,0.77656 -0.13258,0.60608 0.64396,0.81444 0.56822,0.96596 0.34092,0.85232 0.62504,1.00384 0.49244,0.92808 0.28412,0.3788 0.26516,0.77656 0.58716,0.51138 1.4584,0.20836 0.32198,0.30304 0.34092,0.64396 0.0758,0.66292 0.53032,0.7008 0.6061,0.62502 0.58714,0.4167 0.0379,-0.26518 0.17046,-0.30304 0.53034,0.11364 0.0947,0.28412 0.34092,0.0379 0.4167,-0.17046 1.269,-0.019 0.2841,-0.62504 -0.15152,-0.2841 -0.87126,-0.71974 0.53034,-0.17046 0.35986,-0.35986 0.30304,-0.26516 0.322,-0.15154 0.6629,0.17046 0.0568,0.28412 0.20834,0.22728 0.43564,-0.30304 0.0379,-0.322 0.20834,-0.0947 0.66292,0.35988 0.3788,0.73866 0.87126,0.30306 0.41668,0.15152 0.34094,0.2841 0.70078,-0.11364 0.0568,-0.35986 0.45458,-0.019 0.13258,0.54928 0.20834,0.94702 0.34094,0.68184 0.32198,0.47352 0.45456,0.26516 1.00384,0.019 0.2273,0.30304 0.39774,0.81442 0.60608,0.322 0.66292,-0.26516 0.49246,-0.26518 0.83336,-0.34092 0.6061,0.13258 0.15152,0.3788 0.49246,0.73868 0.15152,-0.11364 0.1894,-0.30304 0.32198,-0.22728 h 0.30306 l 0.32198,0.4735 0.171,0.0374 0.12496,0.35356 -0.12054,1.20536 0.33482,0.45536 -0.0268,0.62946 -0.4018,0.3616 -0.0268,1.39286 -0.52232,0.28124 -0.375,0.30804 0.1875,0.49554 0.61606,0.66964 -0.0268,0.45536 -0.83036,0.067 -0.32142,-0.067 -0.29464,0.21428 -0.13394,0.85714 2e-5,2e-5 0.21018,0.56902 -0.36152,-0.38956 -0.29062,0.009 -0.44064,0.20626 -0.25312,0.24374 -0.35624,-0.009 -0.28126,-0.62812 -0.43124,-0.0844 -0.89064,-0.0375 h -1.09686 l -1.02188,0.0563 -1.2296,0.28342 -1.02088,0.18562 -2.2539,0.29168 -0.90156,0.411 -1.90918,0.17236 -1.31258,0.35798 -1.33908,0.3447 -1.48492,0.0663 -0.8883,-0.411 -0.15912,-0.76898 -0.55684,-0.14584 -1.2065,-0.3182 -0.91482,-0.21214 -0.67616,-0.29168 -0.26518,-0.53032 -1.00762,-0.1326 -0.58336,0.0663 -0.17236,0.14584 -0.71594,0.11932 -0.83528,-0.0795 -0.27842,-0.39774 -0.94134,-0.3845 -0.46404,-0.4773 -1.81638,-0.42426 -0.1591,-0.42426 -0.68942,-0.34472 -0.37124,0.1591 -0.23864,0.29168 -0.37124,0.13258 -0.92808,-0.26516 -0.13258,-0.42426 -0.21212,-0.45078 -0.26516,-0.29168 -1.24628,-0.0796 -0.26516,-0.1591 -0.66292,-0.68942 -0.60988,-0.21214 -0.87504,-0.13258 -0.42428,-0.29168 -0.63638,-0.26516 -0.34472,-0.29168 -0.49066,-0.0941 -0.36562,-0.0281 -0.46874,0.1875 -0.44064,0.13126 -0.2625,-0.19688 -0.12186,-0.45938 v -0.32812 l 0.61874,-0.58126 0.38438,-0.40312 0.23438,0.0469 0.2625,0.12188 0.25312,0.10312 0.23438,-0.0375 0.35624,-0.15 0.35626,-0.46876 0.13124,-0.3 0.16876,-0.4125 0.0656,-0.525 c 0,0 0,-0.35624 -0.009,-0.4125 -0.009,-0.0562 -0.0844,-0.6 -0.0844,-0.6 l -0.27188,-0.7125 -0.31874,-0.50624 -0.4875,-0.31876 -0.76876,-0.35626 c 0,0 -0.3375,-0.0375 -0.4125,-0.0375 -0.075,0 -0.91876,-0.0188 -0.91876,-0.0188 l -0.0937,0.16874 -0.20626,0.24376 -0.375,0.0188 -0.375,-0.0375 -0.20624,-0.35624 -0.075,-0.20626 -0.16876,-0.43124 -0.1875,-0.1875 -0.45,-0.0938 -0.4125,-0.375 -0.16874,-0.16874 -0.1875,-0.20626 -0.3,0.16876 -0.225,0.24374 -0.35626,0.24376 -0.5625,0.16874 -0.13124,-0.16874 0.0562,-0.35626 0.3,-0.1875 0.15,-0.3375 v -0.35624 l -0.2625,-0.1875 -0.43124,-0.13126 -0.45,-0.13124 h -1.03126 l -0.59552,-0.0562 -0.81538,-0.02 -0.55022,0.0928 -0.49054,0.25854 -0.3646,0.0198 -0.75572,0.37786 -0.98112,0.11932 -1.10042,0.57012 -0.53034,0.38448 -1.26616,0.81538 -0.60326,0.51044 -0.72258,0.37786 -0.6165,0.6364 -0.49718,0.48394 -0.58336,0.40436 -0.50382,0.67618 -0.78224,0.5237 -0.44414,0.56348 -0.90158,1.3457 -0.78222,0.64966 -0.21214,0.46404 -0.15246,0.51044 -0.2718,0.29832 -0.3646,0.38448 -0.13258,0.26516 -0.41764,0.50382 -0.19224,0.6364 h -0.41102 l -0.62312,-0.0331 -0.19888,-0.51708 -0.19224,-0.4773 -0.39112,-0.27842 -0.19888,0.2055 -0.0398,0.2254 h -0.55022 l -0.33146,-0.51046 -0.64302,-0.49718 -0.0862,-0.38448 -0.14584,-0.23866 -0.33808,-0.31156 -0.0994,-0.2055 -0.0464,-0.85516 -0.32482,-0.50382 -0.43752,-0.54358 -0.4972,-0.23866 -0.17898,-0.19224 -0.45078,-0.0597 -0.0994,0.26516 -0.59662,0.0331 -0.89492,-0.0464 -0.0994,-0.23202 -0.34472,-0.31156 -0.12596,0.1392 -0.17898,0.3845 -0.23866,0.0928 -0.43088,-0.0132 -0.45078,-0.43088 -0.50382,-0.34472 -0.29168,-0.21214 -0.13258,-0.5038 0.23864,-0.26518 0.34472,-0.42426 0.39776,-0.26516 0.21212,-0.37124 0.13258,-0.39774 -0.0265,-0.39774 -0.39774,-0.2917 -0.18562,-0.29166 -0.60988,-0.0796 -0.34472,-0.0796 -0.13258,-0.23864 -0.23864,-0.39774 v -0.45078 l 0.39774,-0.13258 0.21214,-0.0796 0.0795,-0.26516 v -0.29168 l -0.37122,-0.3182 -0.58338,-0.21214 -0.39774,-0.13258 -0.29168,-0.23864 0.0265,-0.37124 0.1591,-0.6364 0.10606,-0.26516 0.13258,-0.45078 0.23866,-0.50382 0.21212,-0.37122 v -0.45078 l -0.34472,-0.1591 -0.23864,-0.23864 -0.23864,-0.21214 0.1591,-0.29168 0.4773,-0.1591 0.47728,-0.13258 0.26518,-0.2917 v -0.31818 l -0.42428,-0.18562 -0.55684,-0.26516 -0.4773,-0.29168 -0.0583,-0.378 -0.0188,-0.5625 -0.15936,-0.5625 -0.0563,-0.94688 0.28126,-0.58124 0.1875,-0.50626 0.24374,-0.53438 0.0281,-1.34062 0.075,-0.675 -0.23438,-0.66562 -0.45,-0.28126 -0.5625,-0.15 -0.54376,-0.3 -0.1875,-0.54374 0.5625,-0.375 h 0.50626 l 0.1875,-0.4664 0.69376,0.0164 0.6,-0.0937 0.5625,-0.225 0.4125,-0.5625 0.3375,-0.3375 0.65626,-0.1875 0.54374,-0.4875 0.225,-0.43126 0.6375,0.3 0.1125,0.76876 0.13126,0.91874 0.24374,0.35626 0.3375,0.6375 0.20626,0.5625 0.45,0.2625 0.31874,0.1125 0.35626,-0.225 0.225,-0.16876 -0.16876,-0.4125 0.225,-0.80624 0.3375,-0.225 0.4875,-0.3375 0.3,-0.525 0.5625,-0.65626 h 0.84376 l 0.225,0.35626 v 0.6 l 0.16874,0.2625 0.31876,-0.0188 0.225,-0.31874 0.2625,-0.24376 0.58124,0.0375 0.46876,0.15 0.225,0.4125 0.3375,0.20626 h 0.5625 l 0.1875,-0.24376 0.375,-0.24374 0.54374,-0.0563 v -0.375 l -0.28124,-0.0937 -0.2625,-0.675 -0.31876,-0.43126 0.13126,-0.9 0.825,-0.54374 2.175,-0.0188 0.54374,-0.24374 0.45,-0.525 1.05,-0.525 0.525,-0.4875 0.58126,-0.2625 0.39374,0.24374 -0.0188,0.84376 -0.28126,0.31874 -0.45,0.7125 -0.6,0.39376 -0.0188,0.28124 0.91874,0.61876 0.4125,0.43124 0.43126,0.24376 0.6375,-0.0563 0.2625,-0.1875 0.58124,-0.35624 0.61876,-0.225 0.9,-0.1125 0.975,0.0375 0.075,0.69374 0.4875,-0.0188 0.375,-0.075 0.46874,-0.45 0.54376,0.075 0.16874,0.4875 0.2625,0.28124 h 0.9375 l 0.3375,-0.1875 0.69376,-0.31874 0.31874,-0.3375 -0.0188,-0.39376 -0.4125,-0.35624 0.1875,-0.4875 0.16874,-1.51876 0.65626,-0.45 1.40624,-1.0125 0.73126,-0.4875 0.31874,0.46876 1.6125,-0.15 1.03126,-0.675 0.35624,-0.6 -0.7125,-1.7625 -0.0188,-0.84376 h 1.575 l 1.275,0.13126 0.54374,0.58124 0.65626,-0.31874 -0.65626,-0.6 0.0938,-0.28126 c 0,0 0.80624,0.6 0.825,0.69376 0.0188,0.0937 0.3375,0.91874 0.3375,0.91874 l -0.8625,0.16876 -1.29376,0.0375 -0.3375,0.54374 1.44376,0.0375 -0.0188,0.375 -0.4875,0.13126 -0.13124,0.35624 0.52868,0.53928 0.45078,0.58336 0.35798,0.87504 0.44414,0.0132 0.40438,-0.3646 0.76236,-0.0928 0.22538,0.37122 0.7955,0.32958 z m -8.8817,26.82694 0.31874,-0.0375 0.5625,0.0937 0.16876,0.3375 v 0.3 l -0.84376,0.13126 -0.35624,-0.31876 -0.225,-0.16874 z m -0.54376,-1.63126 0.0563,0.50626 0.28124,0.45 v 0.35624 l -0.54374,0.15 -0.13126,0.225 -0.43124,0.13126 -0.225,-0.20626 -0.61876,-0.15 -0.0188,-0.4125 0.525,-0.15 0.39374,-0.4125 0.0563,-0.39374 0.24374,-0.15 z"
     id="taranto"
     name="Taranto"
     />
</svg>
